<svg viewBox="0 0 24 24" fill="none" xmlns="http://www.w3.org/2000/svg">
<g clip-path="url(#clip0_1842_5000)">
<path fill-rule="evenodd" clip-rule="evenodd" d="M4.75563 2.55919C6.8339 0.964482 9.38029 0.100097 11.9999 0.100098C14.6195 0.100098 17.1659 0.964485 19.2442 2.55919C21.3224 4.1539 22.8164 6.38982 23.4944 8.92015L21.7557 9.38603C21.1803 7.23843 19.9123 5.34072 18.1484 3.98723C16.3845 2.63374 14.2232 1.9001 11.9999 1.9001C9.77653 1.9001 7.61531 2.63373 5.8514 3.98723C4.08749 5.34072 2.81948 7.23843 2.24404 9.38602L0.505371 8.92015C1.18337 6.38981 2.67736 4.1539 4.75563 2.55919Z" fill="black"/>
<path d="M20.3392 14.604C18.5908 14.1325 17.0406 12.5789 16.8614 10.6455C15.3522 11.1732 14.7324 11.5079 13.4213 12.2509C12.8851 12.5547 12.0148 13.0055 11.1865 13.4344L10.7507 13.6603C8.48714 14.835 6.71573 15.2192 4.08545 15.6978C4.40243 16.3751 4.80378 17.005 5.27597 17.574C9.12087 16.8636 12.6865 15.4417 15.1986 13.6764L15.4545 13.4966L15.6235 13.7597C16.6421 15.3457 17.862 16.2154 19.3759 16.6795C19.7829 16.0394 20.1088 15.3428 20.3392 14.604Z" fill="#0DA4FF"/>
<path d="M18.7376 17.558C17.3176 17.2108 16.0749 16.4551 15.1344 15.1445C12.3942 16.5452 9.81344 17.8434 6.10183 18.4413C6.71144 18.9998 7.40057 19.473 8.15029 19.8417C9.86445 19.5693 12.6507 18.6342 14.6905 17.6139L14.8728 17.5227L15.0248 17.6587C15.7193 18.2804 16.4686 18.6043 17.2875 18.9521C17.8228 18.5444 18.3095 18.0763 18.7376 17.558Z" fill="#0DA4FF"/>
<path d="M16.1169 19.7047C15.9913 19.6308 15.873 19.5638 15.7584 19.4989C15.6677 19.4475 15.5792 19.3974 15.4914 19.3463C15.2189 19.1879 14.9618 19.0252 14.6893 18.798C13.3866 19.5688 11.7291 20.1137 10.2049 20.5491C10.7843 20.6702 11.3848 20.7338 12.0001 20.7338C13.4888 20.7338 14.8904 20.3614 16.1169 19.7047Z" fill="#0DA4FF"/>
<path d="M22.0662 11.1663C22.0886 11.4412 22.1001 11.7192 22.1001 11.9999C22.1001 17.578 17.5782 22.0999 12.0001 22.0999C6.42202 22.0999 1.9001 17.578 1.9001 11.9999C1.9001 11.7193 1.91155 11.4413 1.934 11.1664L0.17094 10.694C0.124124 11.1229 0.100098 11.5586 0.100098 11.9999C0.100098 18.5721 5.42791 23.8999 12.0001 23.8999C18.5723 23.8999 23.9001 18.5721 23.9001 11.9999C23.9001 11.5586 23.8761 11.1228 23.8292 10.6938L22.0662 11.1663Z" fill="#024CC6"/>
</g>
<defs>
<clipPath id="clip0_1842_5000">
<rect width="24" height="24" fill="white"/>
</clipPath>
</defs>
</svg>
