<svg viewBox="0 0 24 24" fill="none" xmlns="http://www.w3.org/2000/svg">
<path fill-rule="evenodd" clip-rule="evenodd" d="M2.63184 6.43921L2.63184 19.3685C2.63184 20.9373 3.83596 22.2248 5.3704 22.3573C6.63921 22.2372 7.63184 21.1688 7.63184 19.8685V18.8685C7.63184 18.0401 8.30341 17.3685 9.13184 17.3685C9.45786 17.3685 9.77659 17.465 10.0479 17.6459L10.649 18.0466C10.9476 18.2457 11.3299 18.2695 11.6509 18.109L12.6846 17.5921C12.9662 17.4513 13.2975 17.4513 13.5791 17.5921L14.6846 18.1449C14.9662 18.2857 15.2975 18.2857 15.5791 18.1449L16.6846 17.5921C16.9662 17.4513 17.2975 17.4513 17.5791 17.5921L18.6128 18.109C18.9338 18.2695 19.3161 18.2457 19.6147 18.0466L19.6318 18.0352L19.6318 6.43921C19.6318 4.11793 17.8944 2.1641 15.589 1.89288C12.6278 1.5445 9.6359 1.5445 6.67466 1.89288C4.36928 2.1641 2.63184 4.11793 2.63184 6.43921ZM8.63223 6.51856C8.16278 6.51856 7.78223 6.89911 7.78223 7.36856C7.78223 7.838 8.16278 8.21856 8.63223 8.21856L11.6322 8.21856C12.1017 8.21856 12.4822 7.838 12.4822 7.36856C12.4822 6.89911 12.1017 6.51856 11.6322 6.51856L8.63223 6.51856ZM8.63223 11.0186C8.16278 11.0186 7.78223 11.3991 7.78223 11.8686C7.78223 12.338 8.16278 12.7186 8.63223 12.7186H14.6322C15.1017 12.7186 15.4822 12.338 15.4822 11.8686C15.4822 11.3991 15.1017 11.0186 14.6322 11.0186H8.63223Z" fill="#2B73E3"/>
<path fill-rule="evenodd" clip-rule="evenodd" d="M8.63223 6.51855C8.16278 6.51855 7.78223 6.89911 7.78223 7.36855C7.78223 7.838 8.16278 8.21855 8.63223 8.21855H11.6322C12.1017 8.21855 12.4822 7.838 12.4822 7.36855C12.4822 6.89911 12.1017 6.51855 11.6322 6.51855L8.63223 6.51855ZM8.63223 11.0186C8.16278 11.0186 7.78223 11.3991 7.78223 11.8686C7.78223 12.338 8.16278 12.7186 8.63223 12.7186H14.6322C15.1017 12.7186 15.4822 12.338 15.4822 11.8686C15.4822 11.3991 15.1017 11.0186 14.6322 11.0186H8.63223Z" fill="white"/>
<path d="M19.9318 22.3684L5.13184 22.3684C6.51255 22.3684 7.63184 21.2491 7.63184 19.8684V18.8684C7.63184 18.04 8.30341 17.3684 9.13184 17.3684C9.45786 17.3684 9.77659 17.4649 10.0479 17.6458L10.649 18.0465C10.9476 18.2456 11.3299 18.2694 11.6509 18.1089L12.6846 17.592C12.9661 17.4513 13.2975 17.4513 13.579 17.592L14.6846 18.1448C14.9661 18.2856 15.2975 18.2856 15.579 18.1448L16.6846 17.592C16.9661 17.4513 17.2975 17.4513 17.579 17.592L18.6128 18.1089C18.9338 18.2694 19.3161 18.2456 19.6147 18.0465L20.2158 17.6458C20.4871 17.4649 20.8058 17.3684 21.1318 17.3684C21.9603 17.3684 22.6318 18.04 22.6318 18.8684V19.6684C22.6318 21.1596 21.423 22.3684 19.9318 22.3684Z" fill="#AAC7F4"/>
</svg>
