<svg viewBox="0 0 24 24" fill="none" xmlns="http://www.w3.org/2000/svg" width="24" height="24">
<g clip-path="url(#clip0_1850_4966)">
<path d="M10.6619 10.9533C10.6412 11.0213 10.5361 11.1279 10.3467 11.2731C10.1366 11.4336 9.90856 11.5692 9.66725 11.6773C9.41418 11.8001 9.1378 11.8675 8.85659 11.875C8.75066 11.8772 8.64573 11.8542 8.55041 11.8079C8.45509 11.7617 8.37212 11.6934 8.3083 11.6089C8.17957 11.4416 8.11641 11.2331 8.13073 11.0225C8.13812 10.7536 8.20294 10.4894 8.32084 10.2476C8.38168 10.1277 8.42389 10.0678 8.44747 10.0678C8.45317 10.0678 8.45621 10.075 8.45621 10.0856C8.44548 10.1525 8.42295 10.2168 8.38967 10.2758C8.28876 10.4751 8.23774 10.696 8.241 10.9195C8.24163 11.0028 8.25876 11.0851 8.29139 11.1617C8.32402 11.2383 8.37151 11.3077 8.43112 11.3659C8.4884 11.4248 8.55716 11.4714 8.63316 11.5027C8.70915 11.5341 8.79076 11.5495 8.87295 11.548C9.15894 11.5417 9.44098 11.4798 9.70338 11.3659C9.92942 11.2759 10.1441 11.1597 10.3429 11.0195C10.5176 10.8981 10.5968 10.8262 10.5806 10.8039C10.554 10.7654 10.4562 10.7306 10.2874 10.6997C10.1411 10.6764 9.99697 10.6408 9.85661 10.5933C9.70857 10.5327 9.63455 10.4461 9.63455 10.3336C9.64908 10.0016 9.78319 9.68613 10.0121 9.44533C10.1941 9.23062 10.3547 9.12327 10.4939 9.12327C10.608 9.12327 10.665 9.20616 10.665 9.37194C10.665 9.49868 10.6295 9.56206 10.5585 9.56206C10.5528 9.56206 10.5429 9.53962 10.5296 9.49438C10.5163 9.44913 10.4794 9.42669 10.4186 9.42669C10.3017 9.42669 10.1623 9.52593 10.0003 9.72442C9.88114 9.84188 9.79464 9.9884 9.74938 10.1495C9.74924 10.1533 9.75002 10.1571 9.75167 10.1605C9.84715 10.2649 9.97725 10.3311 10.1178 10.3469C10.279 10.3776 10.4384 10.417 10.5954 10.4647C10.6694 10.4959 10.7064 10.572 10.7064 10.6929C10.7042 10.7814 10.6892 10.8691 10.6619 10.9533Z" fill="#045453"/>
<path d="M10.8707 12.083C10.8826 12.0358 10.8893 11.9875 10.8909 11.9389C10.8911 11.901 10.882 11.8637 10.8646 11.83C10.8472 11.7964 10.8219 11.7675 10.7909 11.7457C10.7176 11.6923 10.6283 11.6654 10.5377 11.6697C10.247 11.6922 9.97376 11.8174 9.76692 12.0229C9.54487 12.2422 9.32204 12.4613 9.09847 12.6804C8.93715 12.8698 8.71369 12.9957 8.46804 13.0355C8.35017 13.0355 8.2868 12.9548 8.27792 12.7933C8.28409 12.5081 8.36259 12.2292 8.50606 11.9826C8.52196 11.9568 8.53256 11.9281 8.53724 11.8982C8.53724 11.888 8.53382 11.8826 8.52622 11.8826C8.50087 11.8826 8.47716 11.9027 8.45511 11.9427C8.2923 12.2083 8.19979 12.511 8.18628 12.8222C8.18531 12.8821 8.1962 12.9416 8.21832 12.9972C8.24044 13.0529 8.27337 13.1036 8.31519 13.1465C8.35437 13.1897 8.4024 13.224 8.45601 13.2469C8.50961 13.2699 8.56754 13.281 8.62584 13.2796C8.82441 13.2368 9.00187 13.1261 9.12775 12.9667C9.51254 12.5816 9.75894 12.3455 9.86692 12.2583C10.026 12.1059 10.2317 12.0112 10.451 11.9895C10.5162 11.9818 10.5823 11.9928 10.6417 12.021C10.701 12.0493 10.7511 12.0937 10.7863 12.1492C10.7967 12.1745 10.8079 12.1872 10.8198 12.1872C10.8375 12.1875 10.8545 12.1527 10.8707 12.083Z" fill="#045453"/>
<path fill-rule="evenodd" clip-rule="evenodd" d="M15.7769 9.93126C15.6554 9.93126 15.6641 9.99769 15.676 10.0874C15.6829 10.1398 15.6908 10.2001 15.6746 10.2598C15.6366 10.3993 15.4255 10.3818 15.4042 10.0697C15.404 10.0624 15.4013 10.0555 15.3968 10.0499C15.3922 10.0443 15.3859 10.0404 15.3789 10.0387C15.3718 10.037 15.3645 10.0377 15.3579 10.0406C15.3512 10.0435 15.3458 10.0485 15.3423 10.0548C15.0419 10.5571 14.7441 10.6028 14.5282 10.0571C14.5253 10.049 14.5208 10.0416 14.515 10.0353C14.5092 10.029 14.5022 10.0239 14.4944 10.0204C14.4866 10.0168 14.4782 10.0149 14.4696 10.0147C14.461 10.0144 14.4525 10.0159 14.4445 10.0191C14.204 10.1189 14.0788 10.451 14.0072 10.6412C13.9855 10.6986 13.9688 10.7432 13.9552 10.7644C13.6685 10.8864 13.2616 11.1731 13.4183 11.6043C13.1722 11.6555 12.9451 11.774 12.7624 11.9465C12.5403 12.1655 12.3175 12.3847 12.0939 12.6039C12.0751 12.6261 12.0554 12.6473 12.0349 12.6677C12.0249 12.4671 12.0122 12.2381 11.9966 11.9807L11.9961 11.9722C12.1212 11.9073 12.2394 11.8292 12.3486 11.7389C12.5573 11.6079 12.7575 11.464 12.9483 11.3081C12.9865 11.2764 13.0194 11.239 13.046 11.1971C13.0756 11.1324 13.0951 11.0635 13.1038 10.9929C13.1098 10.9569 13.1129 10.9206 13.1129 10.8841C13.1201 10.8146 13.1097 10.7443 13.0825 10.6799C13.0553 10.6155 13.0123 10.559 12.9574 10.5157C12.8229 10.4348 12.6832 10.3629 12.5391 10.3005C12.3675 10.2245 12.2099 10.1201 12.073 9.99172C12.1767 9.99781 12.2374 9.99122 12.2551 9.97195C12.2673 9.95725 12.248 9.93507 12.1973 9.90541C12.1867 9.89932 12.1749 9.89362 12.1616 9.88754L11.8395 9.73544C11.8142 9.72226 11.7986 9.71859 11.7927 9.72442C11.7876 9.73547 11.7854 9.74764 11.7863 9.75978V9.9499C11.7863 9.99882 11.7981 10.0299 11.8216 10.0431C11.852 10.0596 11.8797 10.0806 11.9038 10.1054C12.0059 10.2462 12.1313 10.3686 12.2745 10.4674C12.3895 10.5406 12.5097 10.6051 12.6342 10.6605C12.7469 10.7113 12.8547 10.7723 12.9563 10.8427C13.011 10.8827 13.0384 10.9168 13.0384 10.945C13.037 10.9569 13.0332 10.9685 13.027 10.9789C13.0208 10.9892 13.0125 10.9981 13.0026 11.005C12.8058 11.1594 12.6004 11.3025 12.3874 11.4336C12.2615 11.5325 12.1245 11.6157 11.9797 11.6818C11.9626 11.3656 11.9563 11.1915 11.9609 11.1594C11.9947 11.2002 12.0315 11.2383 12.0711 11.2735C12.079 11.2808 12.0885 11.286 12.0989 11.2887C12.1076 11.2895 12.1133 11.2838 12.1133 11.272C12.0984 11.172 12.0689 11.0748 12.0259 10.9834C11.9891 10.8837 11.9511 10.7832 11.9118 10.6818C11.8895 10.6154 11.871 10.5822 11.8563 10.5822C11.8502 10.5818 11.8453 10.5868 11.8419 10.5971C11.7974 10.6838 11.767 10.7771 11.7517 10.8735C11.7715 10.9172 11.7885 10.9622 11.8027 11.0081C11.8111 11.3024 11.8159 11.5275 11.8171 11.6834L11.8199 11.7467C11.7445 11.7736 11.6674 11.796 11.5889 11.8138C11.5298 11.8156 11.4723 11.794 11.4289 11.7537C11.4014 11.729 11.3799 11.6984 11.366 11.6641C11.3522 11.6298 11.3464 11.5929 11.349 11.556C11.3573 11.4157 11.3803 11.2768 11.4176 11.1415C11.4274 11.132 11.44 11.1149 11.4555 11.0914C11.5354 10.9284 11.5771 10.7493 11.5775 10.5678C11.5813 10.4983 11.5832 10.4265 11.5832 10.3522C11.5777 10.0602 11.5565 9.61314 11.5198 9.0111C11.4901 8.50463 11.4782 8.23086 11.484 8.18979C11.5178 8.23056 11.5547 8.26869 11.5943 8.30386C11.6021 8.31116 11.6117 8.31638 11.622 8.31907C11.6308 8.31983 11.6365 8.31413 11.6365 8.30234C11.6215 8.2024 11.5921 8.10518 11.549 8.01375C11.512 7.91412 11.474 7.81362 11.435 7.71222C11.4127 7.64581 11.3941 7.6126 11.3794 7.6126C11.3734 7.61222 11.3684 7.61716 11.365 7.62743C11.3204 7.71419 11.29 7.80751 11.2749 7.90386C11.2947 7.94759 11.3117 7.99255 11.3258 8.03846C11.3342 8.33276 11.339 8.55786 11.3403 8.71375C11.3768 9.56801 11.4077 10.2081 11.4331 10.6339C11.438 10.7593 11.4288 10.8848 11.4057 11.0081C11.4009 11.0324 11.3974 11.0535 11.3949 11.0716C11.3169 11.2705 11.2756 11.482 11.2733 11.6959C11.2733 11.8458 11.303 11.9566 11.3622 12.0282C11.2542 12.2521 11.1926 12.4962 11.1817 12.7458C11.1808 12.8056 11.1917 12.8651 11.2138 12.9208C11.2359 12.9765 11.2688 13.0272 11.3106 13.0701C11.3499 13.1133 11.398 13.1476 11.4516 13.1706C11.5053 13.1935 11.5633 13.2047 11.6217 13.2032C11.7142 13.1832 11.8022 13.1485 11.8824 13.101C11.8922 13.2928 11.9014 13.4603 11.9099 13.6036C11.9136 13.6987 11.9091 13.794 11.8966 13.8883C11.8833 13.8982 11.8705 13.9143 11.8582 13.9366C11.6954 14.2021 11.6029 14.5047 11.5893 14.8158C11.5883 14.8756 11.5992 14.9351 11.6213 14.9908C11.6435 15.0465 11.6764 15.0972 11.7182 15.1401C11.7574 15.1833 11.8054 15.2175 11.859 15.2405C11.9126 15.2635 11.9706 15.2746 12.0289 15.2732C12.2274 15.2303 12.4049 15.1197 12.5308 14.9602C12.9156 14.5754 13.162 14.3393 13.27 14.2519C13.3893 14.1486 13.5266 14.0681 13.6749 14.0142C13.9522 13.9993 14.2303 14.015 14.5042 14.061C14.6571 14.0913 14.8159 14.0619 14.9479 13.9789C15.0799 13.8959 15.1751 13.7656 15.2141 13.6146C15.2955 13.3186 15.1093 13.2205 14.9168 13.1191C14.8817 13.1006 14.8465 13.082 14.8126 13.0621C14.5129 12.8857 14.4209 12.6864 14.7145 12.4918C14.7508 12.4676 14.7919 12.4516 14.835 12.4446C14.8781 12.4377 14.9222 12.44 14.9643 12.4515L14.9762 12.4549C15.063 12.4804 15.0951 12.4899 15.0951 12.3024C15.0978 12.2711 15.0931 12.2396 15.0814 12.2105C15.0696 12.1813 15.0512 12.1553 15.0276 12.1346C15.004 12.1139 14.9759 12.099 14.9454 12.0912C14.915 12.0833 14.8832 12.0827 14.8525 12.0895C14.6119 12.1893 14.4868 12.5214 14.4152 12.7115C14.3935 12.7689 14.3767 12.8136 14.3631 12.8347C14.0764 12.9568 13.6696 13.2435 13.8259 13.6747C13.5798 13.7259 13.3527 13.8443 13.17 14.0169C12.9479 14.2359 12.7251 14.4549 12.5015 14.6739C12.3402 14.8634 12.1167 14.9893 11.8711 15.0291C11.7527 15.0291 11.6893 14.9485 11.681 14.7872C11.6866 14.5284 11.7517 14.2747 11.871 14.0457C11.8647 14.0954 11.8674 14.1203 11.8791 14.1203C11.889 14.1211 11.9066 14.1015 11.932 14.0617C12.0119 13.8988 12.0536 13.7197 12.054 13.5382C12.0578 13.4687 12.0597 13.3968 12.0597 13.3226C12.0578 13.224 12.0542 13.1077 12.0488 12.9734C12.0753 12.9475 12.1003 12.9197 12.1236 12.8902C12.5084 12.5054 12.7549 12.2693 12.8631 12.1819C12.9825 12.0787 13.1198 11.9981 13.2681 11.9442C13.5454 11.9295 13.8235 11.9453 14.0974 11.9914C14.2507 12.0223 14.4101 11.9932 14.5426 11.9101C14.6751 11.8269 14.7707 11.6961 14.8095 11.5446C14.8909 11.2486 14.7048 11.1505 14.5122 11.0491L14.5117 11.0488C14.4769 11.0304 14.4417 11.0119 14.408 10.9921C14.0761 10.7967 13.9993 10.5739 14.4187 10.3609C14.5411 10.8769 14.8886 10.9457 15.235 10.5666C15.2368 10.5647 15.2389 10.5632 15.2414 10.5622C15.2438 10.5612 15.2464 10.5608 15.249 10.561C15.2516 10.5611 15.2541 10.5619 15.2564 10.5632C15.2586 10.5645 15.2606 10.5664 15.262 10.5685C15.5145 10.9324 16.075 10.4754 15.7769 9.93126ZM11.5996 12.1267C11.6791 12.1052 11.757 12.0787 11.8329 12.0477C11.8452 12.3259 11.8568 12.5776 11.8677 12.8029C11.7462 12.8819 11.6087 12.9355 11.4635 12.9591C11.3451 12.9591 11.2817 12.8783 11.2734 12.7169C11.2782 12.4956 11.3265 12.2781 11.4149 12.0766C11.4638 12.11 11.5254 12.1267 11.5996 12.1267ZM13.8662 11.1138C13.7103 11.1138 13.3574 11.5914 13.6829 11.5914C13.9259 11.5914 14.0555 11.1138 13.8662 11.1138ZM14.1438 11.2598C14.3525 11.2925 14.6521 11.4465 14.6521 11.5282C14.6521 11.61 14.2422 11.7921 13.9297 11.6499C14.0261 11.5354 14.0989 11.4026 14.1438 11.2598ZM14.2742 13.1834C14.1183 13.1834 13.7654 13.661 14.0909 13.661V13.6602C14.3339 13.6602 14.4631 13.1826 14.2742 13.1834ZM15.0601 13.5979C15.0601 13.5161 14.7605 13.3621 14.5517 13.3294L14.5514 13.329C14.5067 13.4721 14.434 13.6048 14.3377 13.7195C14.6502 13.8617 15.0601 13.6796 15.0601 13.5979Z" fill="#045453"/>
<path d="M14.5088 9.29779C14.5285 9.25626 14.5413 9.21184 14.5468 9.16623C14.5498 9.13201 14.5206 9.09196 14.459 9.04608C14.3852 8.99747 14.3178 8.93986 14.2582 8.87459C14.2068 8.95982 14.1618 9.04879 14.1236 9.14075C14.1213 9.1661 14.1696 9.21414 14.2685 9.28486C14.3169 9.32429 14.3699 9.35786 14.4263 9.38486C14.4533 9.38752 14.4807 9.35824 14.5088 9.29779Z" fill="#045453"/>
<path d="M9.96233 13.807C9.95682 13.8526 9.94398 13.897 9.9243 13.9385C9.89616 13.999 9.86879 14.0283 9.84179 14.0256C9.78544 13.9986 9.73247 13.965 9.68399 13.9256C9.58513 13.8549 9.53684 13.8069 9.53912 13.7815C9.5773 13.6896 9.62229 13.6006 9.67373 13.5154C9.7333 13.5806 9.80074 13.6382 9.87449 13.6868C9.93609 13.7327 9.96537 13.7728 9.96233 13.807Z" fill="#045453"/>
<path d="M14.5533 8.97308C14.6202 8.90287 14.6611 8.81192 14.6692 8.71528C14.672 8.68562 14.6363 8.65 14.562 8.60843C14.4878 8.56702 14.4174 8.51904 14.3518 8.46508C14.2813 8.64836 14.246 8.73708 14.246 8.73125C14.2438 8.75812 14.263 8.78613 14.3038 8.81528C14.3877 8.86801 14.4709 8.9206 14.5533 8.97308Z" fill="#045453"/>
<path d="M14.959 9.0803C14.9507 9.12192 14.9372 9.1623 14.9187 9.20046C14.8981 9.25339 14.8677 9.30191 14.8289 9.34342C14.7721 9.30514 14.7155 9.26712 14.659 9.22935C14.5829 9.17409 14.5459 9.13467 14.5479 9.1111C14.5623 9.06913 14.5803 9.02854 14.6019 8.98981C14.6405 8.91376 14.6671 8.87573 14.6818 8.87573C14.8688 8.98017 14.9612 9.04836 14.959 9.0803Z" fill="#045453"/>
<path d="M13.2437 13.0252C13.2634 12.9837 13.2763 12.9393 13.2818 12.8937C13.2843 12.8584 13.255 12.8184 13.1939 12.7735C13.1202 12.7249 13.0527 12.6673 12.9932 12.602C12.9417 12.6873 12.8967 12.7762 12.8586 12.8682C12.8563 12.8935 12.9046 12.9416 13.0034 13.0123C13.0519 13.0518 13.1049 13.0853 13.1612 13.1123C13.1881 13.1148 13.2156 13.0858 13.2437 13.0252Z" fill="#045453"/>
<path d="M13.6928 12.8047C13.6846 12.8463 13.6711 12.8867 13.6525 12.9248C13.6319 12.9778 13.6015 13.0263 13.5628 13.0678C13.506 13.0295 13.4493 12.9915 13.3928 12.9537C13.3168 12.8987 13.2798 12.8593 13.2818 12.8355C13.2961 12.7935 13.3142 12.7529 13.3358 12.7142C13.3743 12.6381 13.401 12.6001 13.416 12.6001C13.6033 12.7046 13.6956 12.7728 13.6928 12.8047Z" fill="#045453"/>
<path d="M11.3248 13.9591C11.3247 13.9236 11.3226 13.8882 11.3183 13.853C11.2939 13.7338 11.2529 13.6186 11.1966 13.5108C11.1221 13.3534 11.0841 13.2718 11.0825 13.2659C11.1093 13.2721 11.1368 13.2751 11.1643 13.2747C11.1752 13.2768 11.1863 13.2784 11.1974 13.2792C11.2076 13.2792 11.213 13.2754 11.213 13.2682C11.1517 13.1843 11.0846 13.1048 11.0122 13.0302C10.9607 12.9729 10.9343 12.9442 10.9327 12.9442C10.9251 12.9442 10.9202 12.9496 10.9171 12.9598C10.9028 13.057 10.8807 13.1529 10.851 13.2465C10.8596 13.2564 10.8693 13.2653 10.8799 13.2731C10.9225 13.4014 10.9585 13.5036 10.9879 13.5796C11.0261 13.677 11.0703 13.772 11.1202 13.864C11.1598 13.926 11.1896 13.9937 11.2084 14.0648C11.2085 14.0703 11.2069 14.0758 11.2038 14.0804C10.9991 14.3333 10.7406 14.5374 10.4472 14.6781C10.1426 14.8791 9.79334 15.0025 9.43005 15.0374C8.86223 15.0374 8.57832 14.7742 8.57832 14.2477C8.57859 14.1483 8.58968 14.0492 8.6114 13.9522C8.62563 13.9066 8.62786 13.858 8.61787 13.8112C8.6076 13.7861 8.59353 13.7906 8.57604 13.8287C8.56198 13.859 8.55164 13.8909 8.54524 13.9237C8.51565 14.0577 8.50086 14.1945 8.50113 14.3317C8.4903 14.5782 8.55077 14.8225 8.67528 15.0355C8.74191 15.1425 8.83601 15.2296 8.94776 15.2878C9.05952 15.3459 9.18484 15.3731 9.31066 15.3663C9.706 15.3494 10.0897 15.2276 10.4225 15.0135C10.7323 14.8441 11.0047 14.6137 11.2232 14.3363C11.2869 14.2205 11.3217 14.0911 11.3248 13.9591Z" fill="#045453"/>
<path fill-rule="evenodd" clip-rule="evenodd" d="M11.9974 3.1947C11.7621 2.70419 11.2089 2.06227 9.95203 2.25739C9.55836 1.41227 8.5096 1.38744 8.02743 1.37603L8.02653 1.37601H8.02425C7.90469 1.37262 7.78818 1.33748 7.68668 1.2742C7.58518 1.21092 7.50235 1.12178 7.44667 1.01592C7.4824 1.13001 7.48714 1.25155 7.46041 1.36808C7.43369 1.48461 7.37645 1.59193 7.29458 1.67905L7.29299 1.68072C6.95958 2.03128 6.23727 2.79072 6.55654 3.66387C5.52667 4.41724 5.59322 5.26552 5.77462 5.77826C5.26138 5.59641 4.41484 5.53292 3.6626 6.56125C2.78631 6.24153 2.0267 6.96634 1.67795 7.29912C1.59083 7.38099 1.48333 7.4384 1.36681 7.46512C1.25028 7.49185 1.12874 7.48711 1.01465 7.45138C1.12051 7.50706 1.20965 7.58989 1.27293 7.69139C1.33621 7.79289 1.37134 7.9094 1.37473 8.02896V8.03124C1.38576 8.51185 1.41047 9.5632 2.25611 9.95674C2.06081 11.2145 2.70449 11.7675 3.19491 12.0027C2.70441 12.238 2.06252 12.7912 2.25763 14.0481C1.41252 14.4417 1.38769 15.4905 1.37627 15.9727L1.37625 15.9736V15.9758C1.3729 16.0954 1.33778 16.2119 1.2745 16.3134C1.21122 16.415 1.12205 16.4978 1.01617 16.5534C1.13026 16.5177 1.2518 16.513 1.36832 16.5397C1.48485 16.5664 1.59218 16.6236 1.67929 16.7055L1.68097 16.7071C2.03153 17.0405 2.79097 17.7628 3.66412 17.4436C4.41749 18.4731 5.26578 18.4068 5.77852 18.2255C5.59666 18.7387 5.53315 19.5853 6.5615 20.3375C6.24178 21.2138 6.96659 21.9734 7.29937 22.3222C7.38124 22.4093 7.43865 22.5168 7.46537 22.6333C7.4921 22.7498 7.48736 22.8714 7.45163 22.9855C7.50731 22.8796 7.59014 22.7905 7.69164 22.7272C7.79314 22.6639 7.90965 22.6288 8.02921 22.6254H8.03149C8.5121 22.6144 9.56345 22.5896 9.95699 21.744C11.2147 21.9393 11.7678 21.2956 12.003 20.8052C12.2382 21.2957 12.7915 21.9376 14.0483 21.7425C14.442 22.5876 15.4907 22.6124 15.9729 22.6238L15.9738 22.6239H15.9761C16.0956 22.6273 16.2122 22.6624 16.3137 22.7257C16.4152 22.7889 16.498 22.8781 16.5537 22.9839C16.5179 22.8699 16.5132 22.7483 16.5399 22.6318C16.5667 22.5153 16.6239 22.4079 16.7058 22.3208L16.7073 22.3191C17.0408 21.9686 17.7631 21.2091 17.4438 20.336C18.4733 19.5826 18.4071 18.7343 18.2257 18.2216C18.7389 18.4034 19.5855 18.467 20.3378 17.4386C21.2141 17.7583 21.9737 17.0335 22.3224 16.7007C22.4096 16.6189 22.5171 16.5615 22.6336 16.5347C22.7501 16.508 22.8717 16.5128 22.9858 16.5485C22.8799 16.4928 22.7908 16.41 22.7275 16.3085C22.6642 16.207 22.6291 16.0905 22.6257 15.9709V15.9686C22.6146 15.488 22.5899 14.4367 21.7443 14.0431C21.9396 12.7854 21.2959 12.2323 20.8055 11.9971C21.296 11.7619 21.9379 11.2086 21.7428 9.9518C22.5879 9.55812 22.6127 8.50936 22.6241 8.0272L22.6242 8.0263V8.02402C22.6275 7.90446 22.6627 7.78795 22.726 7.68645C22.7892 7.58495 22.8784 7.50212 22.9842 7.44644C22.8701 7.48217 22.7486 7.48691 22.6321 7.46018C22.5156 7.43345 22.4082 7.37622 22.3211 7.29435L22.3194 7.29276C21.9689 6.95935 21.2094 6.23704 20.3363 6.55631C19.5829 5.52641 18.7346 5.593 18.2219 5.7744C18.4037 5.26117 18.4672 4.41461 17.4389 3.66236C17.7586 2.78607 17.0338 2.02647 16.701 1.67771C16.6191 1.5906 16.5617 1.48309 16.535 1.36656C16.5083 1.25004 16.513 1.1285 16.5487 1.0144C16.4931 1.12029 16.4103 1.20945 16.3088 1.27274C16.2073 1.33602 16.0907 1.37114 15.9712 1.37449H15.9689C15.4883 1.38551 14.4369 1.41023 14.0434 2.25587C12.7856 2.06056 12.2326 2.70427 11.9974 3.1947ZM13.0418 5.82664C13.7609 6.3719 14.0251 7.11184 13.8023 7.64949C14.0251 7.11146 14.735 6.77533 15.6225 6.89586L15.6627 6.90139C16.0872 6.95967 16.617 7.03244 17.1015 6.89644C16.9669 7.37995 17.0392 7.90844 17.0972 8.33182L17.1028 8.37269C17.2252 9.2651 16.8883 9.97499 16.3507 10.1978C16.8887 9.97499 17.6283 10.2393 18.172 10.9533L18.197 10.9863C18.4554 11.3268 18.7776 11.7514 19.2146 11.9979C18.7775 12.2449 18.4553 12.6699 18.1969 13.0107L18.1735 13.0416C17.6283 13.7606 16.8883 14.0249 16.3507 13.802C16.8887 14.0249 17.2248 14.7348 17.1043 15.6222L17.0988 15.6625C17.0405 16.0869 16.9677 16.6168 17.1037 17.1013C16.6202 16.9666 16.0917 17.0389 15.6683 17.0969L15.6274 17.1025C14.735 17.2249 14.0251 16.888 13.8023 16.3504C14.0251 16.8884 13.7608 17.628 13.0468 18.1717L13.0138 18.1967C12.6733 18.4551 12.2487 18.7774 12.0022 19.2143C11.7552 18.7772 11.3302 18.455 10.9894 18.1967L10.9585 18.1732C10.2395 17.628 9.97524 16.888 10.1981 16.3504C9.97524 16.8884 9.26535 17.2245 8.37788 17.104L8.33762 17.0985C7.91319 17.0402 7.38336 16.9674 6.89887 17.1034C7.0335 16.6199 6.96116 16.0914 6.90321 15.668L6.89763 15.6272C6.77519 14.7348 7.11208 14.0249 7.64973 13.802C7.1117 14.0249 6.37214 13.7606 5.82841 13.0465L5.80337 13.0135C5.54496 12.6731 5.22275 12.2485 4.7858 12.002C5.22288 11.755 5.54507 11.33 5.80345 10.9892L5.82689 10.9583C6.37214 10.2393 7.11208 9.97499 7.64973 10.1978C7.1117 9.97499 6.77557 9.26509 6.89611 8.37763L6.90163 8.33738C6.95992 7.91295 7.03268 7.38312 6.89669 6.89863C7.3802 7.03325 7.90869 6.96092 8.33205 6.90297L8.37292 6.89738C9.26533 6.77495 9.97523 7.11183 10.198 7.64949C9.97523 7.11146 10.2395 6.3719 10.9536 5.82816L10.9865 5.80313C11.327 5.54471 11.7516 5.22249 11.9982 4.78553C12.2451 5.22262 12.6701 5.54482 13.0109 5.80321L13.0418 5.82664ZM15.7468 6.09927C15.3062 6.02372 14.8545 6.04251 14.4217 6.15441C14.1947 5.76901 13.8881 5.43619 13.5228 5.17797C12.8012 4.64336 12.4072 4.30685 12.6981 3.60456C13.0301 2.80569 13.8939 3.03041 14.219 3.1152L14.5544 3.18896L14.7179 2.7939C14.9286 2.28553 15.2487 2.19807 15.9898 2.18096L16.0685 2.17906L16.1229 2.2361C16.6347 2.77223 16.7993 3.06044 16.5887 3.56882L16.4252 3.96388L16.7141 4.14905C17.0039 4.31902 17.7735 4.77112 17.4427 5.56961C17.1518 6.2719 16.6351 6.23122 15.7468 6.09927ZM9.57869 6.15432C9.80564 5.76913 10.1117 5.43648 10.4768 5.17835C11.1992 4.64374 11.592 4.30685 11.3015 3.60494C10.9707 2.80645 10.1068 3.03078 9.78055 3.11557L9.44518 3.18934L9.28168 2.79428C9.07103 2.2859 8.74935 2.19845 8.0098 2.18134L7.93109 2.17944L7.87672 2.23648C7.36492 2.77261 7.20028 3.06082 7.41093 3.56919L7.57443 3.96426L7.28545 4.14943C6.99571 4.3194 6.22612 4.77149 6.55692 5.56999C6.8478 6.27228 7.36454 6.23159 8.25277 6.09965C8.69363 6.02383 9.14557 6.04247 9.57869 6.15432ZM6.09952 8.25329C6.02397 8.69393 6.04276 9.14557 6.15465 9.57841C5.76925 9.80543 5.43644 10.1121 5.17821 10.4773C4.6436 11.199 4.3071 11.5929 3.6048 11.302C2.80593 10.9701 3.03065 10.1062 3.11544 9.78108L3.18921 9.44571L2.79414 9.2822C2.28577 9.07155 2.19832 8.7514 2.18121 8.01032C2.17931 7.98296 2.17931 7.95673 2.17931 7.93164L2.23634 7.87724C2.77247 7.36545 3.06069 7.2008 3.56906 7.41145L3.96412 7.57496L4.1493 7.28598C4.31926 6.99624 4.77136 6.22664 5.56985 6.55745C6.27215 6.84833 6.23146 7.36507 6.09952 8.25329ZM5.17859 13.5233C5.43673 13.8884 5.76937 14.1945 6.15456 14.4214C6.04271 14.8545 6.02408 15.3065 6.0999 15.7473C6.23184 16.6356 6.27252 17.1523 5.57023 17.4432C4.77174 17.774 4.31964 17.0044 4.14968 16.7146L3.9645 16.4257L3.56944 16.5892C3.06107 16.7998 2.77285 16.6352 2.23672 16.1234L2.17968 16.069C2.18158 16.0439 2.18158 16.0177 2.18158 15.9903C2.19869 15.2508 2.28615 14.9291 2.79452 14.7184L3.18958 14.5549L3.11582 14.2195C3.03103 13.8933 2.80669 13.0294 3.60518 12.6986C4.30709 12.4077 4.64398 12.8009 5.17859 13.5233ZM8.25392 17.9006C8.69455 17.9761 9.1462 17.9573 9.57904 17.8455C9.80637 18.2302 10.1127 18.5624 10.4779 18.82C11.1996 19.3546 11.5935 19.6911 11.3026 20.3934C10.9707 21.1923 10.1068 20.9676 9.7817 20.8828L9.44634 20.809L9.28284 21.2041C9.07219 21.7124 8.75203 21.7999 8.01095 21.817L7.93225 21.8189L7.87787 21.7619C7.36608 21.2276 7.20144 20.9394 7.41209 20.4311L7.57559 20.036L7.28661 19.8508C6.99687 19.6809 6.22728 19.2288 6.55808 18.4303C6.84896 17.728 7.36569 17.7687 8.25392 17.9006ZM13.5236 18.8211C13.8886 18.5631 14.1947 18.2306 14.4216 17.8455C14.8547 17.9579 15.3066 17.9771 15.7476 17.9017C16.6358 17.7698 17.1525 17.7291 17.4434 18.4314C17.7742 19.2299 17.0046 19.682 16.7149 19.852L16.4259 20.0371L16.5894 20.4322C16.8001 20.9387 16.6354 21.2269 16.1236 21.763L16.0692 21.82L15.9905 21.8181C15.251 21.801 14.9293 21.7136 14.7187 21.2052L14.5552 20.8101L14.2198 20.8839C13.8936 20.9687 13.0297 21.193 12.6989 20.3945C12.408 19.6926 12.8011 19.3557 13.5236 18.8211ZM17.9009 15.7466C17.9764 15.3059 17.9576 14.8543 17.8457 14.4214C18.2305 14.1942 18.5626 13.8876 18.8203 13.5226C19.3549 12.8009 19.6914 12.407 20.3937 12.6978C21.1926 13.0298 20.9678 13.8937 20.8831 14.2188L20.8093 14.5541L21.2044 14.7177C21.7127 14.9283 21.8002 15.2485 21.8173 15.9895C21.8192 16.0169 21.8192 16.0431 21.8192 16.0682L21.7622 16.1226C21.2279 16.6344 20.9397 16.799 20.4313 16.5884L20.0363 16.4249L19.8511 16.7139C19.6811 17.0036 19.229 17.7732 18.4306 17.4424C17.7283 17.1515 17.7689 16.6348 17.9009 15.7466ZM18.8214 10.4765C18.5634 10.1115 18.2309 9.80544 17.8458 9.57846C17.9582 9.14545 17.9773 8.69351 17.902 8.25254C17.7701 7.36431 17.7294 6.84757 18.4317 6.55669C19.2302 6.22589 19.6823 6.99548 19.8522 7.28522L20.0374 7.5742L20.4325 7.4107C20.939 7.20005 21.2272 7.36469 21.7633 7.87649L21.8203 7.93086C21.8184 7.95595 21.8184 7.98219 21.8184 8.00956C21.8013 8.74912 21.7139 9.0708 21.2055 9.28145L20.8104 9.44495L20.8842 9.78032C20.969 10.1066 21.1933 10.9705 20.3948 11.3013C19.6929 11.5918 19.356 11.199 18.8214 10.4765Z" fill="#045453"/>
<path fill-rule="evenodd" clip-rule="evenodd" d="M11.9974 3.1947C11.7621 2.70419 11.2089 2.06227 9.95203 2.25739C9.55836 1.41227 8.5096 1.38744 8.02743 1.37603L8.02425 1.37601C7.90469 1.37262 7.78818 1.33748 7.68668 1.2742C7.58518 1.21092 7.50235 1.12178 7.44667 1.01592C7.4824 1.13001 7.48714 1.25155 7.46041 1.36808C7.43369 1.48461 7.37645 1.59193 7.29458 1.67905L7.29299 1.68072C6.95958 2.03128 6.23727 2.79072 6.55654 3.66387C5.52667 4.41724 5.59322 5.26552 5.77462 5.77826C5.26138 5.59641 4.41484 5.53292 3.6626 6.56125C2.78631 6.24153 2.0267 6.96634 1.67795 7.29912C1.59083 7.38099 1.48333 7.4384 1.36681 7.46512C1.25028 7.49185 1.12874 7.48711 1.01465 7.45138C1.12051 7.50706 1.20965 7.58989 1.27293 7.69139C1.33621 7.79289 1.37134 7.9094 1.37473 8.02896V8.03124C1.38576 8.51185 1.41047 9.5632 2.25611 9.95674C2.06081 11.2145 2.70449 11.7675 3.19491 12.0027C2.70441 12.238 2.06252 12.7912 2.25763 14.0481C1.41252 14.4417 1.38769 15.4905 1.37627 15.9727L1.37625 15.9758C1.3729 16.0954 1.33778 16.2119 1.2745 16.3134C1.21122 16.415 1.12205 16.4978 1.01617 16.5534C1.13026 16.5177 1.2518 16.513 1.36832 16.5397C1.48485 16.5664 1.59218 16.6236 1.6793 16.7055L1.68097 16.7071C2.03153 17.0405 2.79097 17.7628 3.66412 17.4436C4.41749 18.4731 5.26578 18.4068 5.77852 18.2255C5.59666 18.7387 5.53315 19.5853 6.5615 20.3375C6.24178 21.2138 6.96659 21.9734 7.29937 22.3222C7.38124 22.4093 7.43865 22.5168 7.46537 22.6333C7.4921 22.7498 7.48736 22.8714 7.45163 22.9855C7.50731 22.8796 7.59014 22.7905 7.69164 22.7272C7.79314 22.6639 7.90965 22.6288 8.02921 22.6254H8.03149C8.5121 22.6144 9.56345 22.5896 9.95699 21.744C11.2147 21.9393 11.7678 21.2956 12.003 20.8052C12.2382 21.2957 12.7915 21.9376 14.0483 21.7425C14.442 22.5876 15.4907 22.6124 15.9729 22.6238L15.9761 22.6239C16.0956 22.6273 16.2122 22.6624 16.3137 22.7257C16.4152 22.7889 16.498 22.8781 16.5537 22.9839C16.5179 22.8699 16.5132 22.7483 16.5399 22.6318C16.5667 22.5153 16.6239 22.4079 16.7058 22.3208L16.7073 22.3191C17.0408 21.9686 17.7631 21.2091 17.4438 20.336C18.4733 19.5826 18.4071 18.7343 18.2257 18.2216C18.7389 18.4034 19.5855 18.467 20.3378 17.4386C21.2141 17.7583 21.9737 17.0335 22.3224 16.7007C22.4096 16.6189 22.5171 16.5615 22.6336 16.5347C22.7501 16.508 22.8717 16.5128 22.9858 16.5485C22.8799 16.4928 22.7907 16.41 22.7275 16.3085C22.6642 16.207 22.6291 16.0905 22.6257 15.9709V15.9686C22.6146 15.488 22.5899 14.4367 21.7443 14.0431C21.9396 12.7854 21.2959 12.2323 20.8055 11.9971C21.296 11.7619 21.9379 11.2086 21.7428 9.9518C22.5879 9.55812 22.6127 8.50936 22.6241 8.0272L22.6242 8.02402C22.6275 7.90446 22.6627 7.78795 22.726 7.68645C22.7892 7.58495 22.8784 7.50212 22.9842 7.44644C22.8701 7.48217 22.7486 7.48691 22.6321 7.46018C22.5156 7.43345 22.4082 7.37622 22.3211 7.29435L22.3194 7.29276C21.9689 6.95935 21.2094 6.23704 20.3363 6.55631C19.5829 5.52641 18.7346 5.593 18.2219 5.7744C18.4037 5.26117 18.4672 4.41461 17.4389 3.66236C17.7586 2.78607 17.0338 2.02647 16.701 1.67771C16.6191 1.5906 16.5617 1.48309 16.535 1.36656C16.5083 1.25004 16.513 1.1285 16.5487 1.0144C16.4931 1.12029 16.4103 1.20945 16.3088 1.27274C16.2073 1.33602 16.0907 1.37114 15.9712 1.37449H15.9689C15.4883 1.38551 14.4369 1.41023 14.0434 2.25587C12.7856 2.06056 12.2326 2.70427 11.9974 3.1947ZM13.0418 5.82664C13.7609 6.3719 14.0251 7.11184 13.8023 7.64949C14.0251 7.11146 14.735 6.77533 15.6225 6.89586L15.6627 6.90139C16.0872 6.95967 16.617 7.03244 17.1015 6.89644C16.9669 7.37995 17.0392 7.90844 17.0972 8.33182L17.1028 8.37269C17.2252 9.2651 16.8883 9.97499 16.3507 10.1978C16.8887 9.97499 17.6283 10.2393 18.172 10.9533L18.197 10.9863C18.4554 11.3268 18.7776 11.7514 19.2146 11.9979C18.7775 12.2449 18.4553 12.6699 18.1969 13.0107L18.1735 13.0416C17.6283 13.7606 16.8883 14.0249 16.3507 13.802C16.8887 14.0249 17.2248 14.7348 17.1043 15.6222L17.0988 15.6625C17.0405 16.0869 16.9677 16.6168 17.1037 17.1013C16.6202 16.9666 16.0917 17.0389 15.6683 17.0969L15.6274 17.1025C14.735 17.2249 14.0251 16.888 13.8023 16.3504C14.0251 16.8884 13.7608 17.628 13.0468 18.1717L13.0138 18.1967C12.6733 18.4551 12.2487 18.7774 12.0022 19.2143C11.7552 18.7772 11.3302 18.455 10.9894 18.1967L10.9585 18.1732C10.2395 17.628 9.97524 16.888 10.1981 16.3504C9.97524 16.8884 9.26535 17.2245 8.37788 17.104L8.33762 17.0985C7.91319 17.0402 7.38336 16.9674 6.89887 17.1034C7.0335 16.6199 6.96116 16.0914 6.90321 15.668L6.89763 15.6272C6.77519 14.7348 7.11208 14.0249 7.64973 13.802C7.1117 14.0249 6.37214 13.7606 5.82841 13.0465L5.80337 13.0135C5.54496 12.6731 5.22275 12.2485 4.7858 12.002C5.22288 11.755 5.54507 11.33 5.80345 10.9892L5.82689 10.9583C6.37214 10.2393 7.11208 9.97499 7.64973 10.1978C7.1117 9.97499 6.77557 9.26509 6.89611 8.37763L6.90163 8.33738C6.95992 7.91295 7.03268 7.38312 6.89669 6.89863C7.3802 7.03325 7.90869 6.96092 8.33205 6.90297L8.37292 6.89738C9.26533 6.77495 9.97523 7.11183 10.198 7.64949C9.97523 7.11146 10.2395 6.3719 10.9536 5.82817L10.9865 5.80313C11.327 5.54471 11.7516 5.22249 11.9982 4.78553C12.2451 5.22262 12.6701 5.54482 13.0109 5.80321L13.0418 5.82664ZM15.7468 6.09927C15.3062 6.02372 14.8545 6.04251 14.4217 6.15441C14.1947 5.76901 13.8881 5.43619 13.5228 5.17797C12.8012 4.64336 12.4072 4.30685 12.6981 3.60456C13.0301 2.80569 13.8939 3.03041 14.219 3.1152L14.5544 3.18896L14.7179 2.7939C14.9286 2.28553 15.2487 2.19807 15.9898 2.18096L16.0685 2.17906L16.1229 2.2361C16.6347 2.77223 16.7993 3.06044 16.5887 3.56882L16.4252 3.96388L16.7141 4.14905C17.0039 4.31902 17.7735 4.77112 17.4427 5.56961C17.1518 6.2719 16.6351 6.23122 15.7468 6.09927ZM9.57869 6.15432C9.80564 5.76913 10.1117 5.43648 10.4768 5.17835C11.1992 4.64374 11.592 4.30685 11.3015 3.60494C10.9707 2.80645 10.1068 3.03078 9.78055 3.11557L9.44518 3.18934L9.28168 2.79428C9.07103 2.2859 8.74935 2.19845 8.0098 2.18134L7.93109 2.17944L7.87672 2.23648C7.36492 2.77261 7.20028 3.06082 7.41093 3.56919L7.57443 3.96426L7.28545 4.14943C6.99571 4.3194 6.22612 4.77149 6.55692 5.56999C6.8478 6.27228 7.36454 6.23159 8.25277 6.09965C8.69363 6.02383 9.14557 6.04247 9.57869 6.15432ZM6.09952 8.25329C6.02397 8.69393 6.04276 9.14557 6.15465 9.57841C5.76925 9.80543 5.43644 10.1121 5.17821 10.4773C4.6436 11.199 4.3071 11.5929 3.6048 11.302C2.80593 10.9701 3.03065 10.1062 3.11544 9.78108L3.18921 9.44571L2.79414 9.2822C2.28577 9.07155 2.19832 8.7514 2.18121 8.01032C2.17931 7.98296 2.17931 7.95673 2.17931 7.93164L2.23634 7.87724C2.77247 7.36545 3.06069 7.2008 3.56906 7.41145L3.96412 7.57496L4.1493 7.28598C4.31926 6.99624 4.77136 6.22664 5.56985 6.55745C6.27214 6.84833 6.23146 7.36507 6.09952 8.25329ZM5.17859 13.5233C5.43673 13.8884 5.76937 14.1945 6.15456 14.4214C6.04271 14.8545 6.02408 15.3065 6.0999 15.7473C6.23184 16.6356 6.27252 17.1523 5.57023 17.4432C4.77174 17.774 4.31964 17.0044 4.14968 16.7146L3.9645 16.4257L3.56944 16.5892C3.06107 16.7998 2.77285 16.6352 2.23672 16.1234L2.17968 16.069C2.18158 16.0439 2.18158 16.0177 2.18158 15.9903C2.19869 15.2508 2.28615 14.9291 2.79452 14.7184L3.18958 14.5549L3.11582 14.2195C3.03103 13.8933 2.80669 13.0294 3.60518 12.6986C4.30709 12.4077 4.64398 12.8009 5.17859 13.5233ZM8.25392 17.9006C8.69455 17.9761 9.1462 17.9573 9.57904 17.8455C9.80637 18.2302 10.1127 18.5624 10.4779 18.82C11.1996 19.3546 11.5935 19.6911 11.3026 20.3934C10.9707 21.1923 10.1068 20.9676 9.7817 20.8828L9.44634 20.809L9.28284 21.2041C9.07219 21.7124 8.75203 21.7999 8.01095 21.817L7.93225 21.8189L7.87787 21.7619C7.36608 21.2276 7.20144 20.9394 7.41209 20.4311L7.57559 20.036L7.28661 19.8508C6.99687 19.6809 6.22728 19.2288 6.55808 18.4303C6.84896 17.728 7.36569 17.7687 8.25392 17.9006ZM13.5236 18.8211C13.8886 18.5631 14.1947 18.2306 14.4216 17.8455C14.8547 17.9579 15.3066 17.9771 15.7476 17.9017C16.6358 17.7698 17.1525 17.7291 17.4434 18.4314C17.7742 19.2299 17.0046 19.682 16.7149 19.852L16.4259 20.0371L16.5894 20.4322C16.8001 20.9387 16.6354 21.2269 16.1236 21.763L16.0692 21.82L15.9905 21.8181C15.251 21.801 14.9293 21.7136 14.7187 21.2052L14.5552 20.8101L14.2198 20.8839C13.8936 20.9687 13.0297 21.193 12.6989 20.3945C12.408 19.6926 12.8011 19.3557 13.5236 18.8211ZM17.9009 15.7466C17.9764 15.3059 17.9576 14.8543 17.8457 14.4214C18.2305 14.1942 18.5626 13.8876 18.8203 13.5226C19.3549 12.8009 19.6914 12.407 20.3937 12.6978C21.1926 13.0298 20.9678 13.8937 20.8831 14.2188L20.8093 14.5541L21.2044 14.7177C21.7127 14.9283 21.8002 15.2485 21.8173 15.9895C21.8192 16.0169 21.8192 16.0431 21.8192 16.0682L21.7622 16.1226C21.2279 16.6344 20.9397 16.799 20.4313 16.5884L20.0363 16.4249L19.8511 16.7139C19.6811 17.0036 19.229 17.7732 18.4306 17.4424C17.7283 17.1515 17.7689 16.6348 17.9009 15.7466ZM18.8214 10.4765C18.5634 10.1115 18.2309 9.80544 17.8458 9.57846C17.9582 9.14544 17.9773 8.69351 17.902 8.25254C17.7701 7.36431 17.7294 6.84757 18.4317 6.55669C19.2302 6.22589 19.6823 6.99548 19.8522 7.28522L20.0374 7.5742L20.4325 7.4107C20.939 7.20005 21.2272 7.36469 21.7633 7.87649L21.8203 7.93086C21.8184 7.95595 21.8184 7.98219 21.8184 8.00956C21.8013 8.74912 21.7139 9.0708 21.2055 9.28145L20.8104 9.44495L20.8842 9.78032C20.969 10.1066 21.1933 10.9705 20.3948 11.3013C19.6929 11.5918 19.356 11.199 18.8214 10.4765Z" fill="#045453" stroke="#045453" stroke-width="0.3" stroke-linejoin="round"/>
</g>
<defs>
<clipPath id="clip0_1850_4966">
<rect width="24" height="24" fill="white"/>
</clipPath>
</defs>
</svg>
