<svg viewBox="0 0 24 24" fill="none" xmlns="http://www.w3.org/2000/svg">
<path d="M10.7571 5.49989V4.24989C10.7571 2.8616 10.4072 1.50939 9.75616 0.311165C9.13523 0.429653 8.53141 0.59639 7.94876 0.80733C8.45997 1.75787 8.75 2.84501 8.75 3.99989C8.75 7.72782 5.72792 10.7499 2 10.7499C1.37414 10.7499 0.768167 10.6647 0.193053 10.5053C0.131706 10.9949 0.100098 11.4937 0.100098 11.9999C0.100098 12.2518 0.107924 12.5019 0.123348 12.7499H6.09861L7.95018 9.97254C8.04291 9.83344 8.19903 9.74989 8.3662 9.74989H13.4671C13.8665 9.74989 14.1047 10.195 13.8832 10.5272L12.4014 12.7499H15.0986L16.9502 9.97254C17.0429 9.83344 17.199 9.74989 17.3662 9.74989H23.6877C22.6618 4.38884 18.0387 0.305239 12.4269 0.107422C12.8125 1.03097 13.0693 2.00826 13.1856 3.01175C13.2103 3.01101 13.235 3.01064 13.2598 3.01064C13.92 3.01064 14.5531 3.2729 15.0199 3.73972C15.4868 4.20655 15.749 4.8397 15.749 5.49989H10.7571Z" fill="#2D3B9C"/>
<path d="M23.8768 11.2499H17.9014L16.0498 14.0272C15.9571 14.1663 15.801 14.2499 15.6338 14.2499H10.5329C10.1335 14.2499 9.89533 13.8048 10.1168 13.4725L11.5986 11.2499H9.06194C8.96164 11.2499 8.86797 11.3 8.81233 11.3835L7.04982 14.0272C6.95709 14.1663 6.80097 14.2499 6.6338 14.2499H0.312506C1.34551 19.648 6.02561 23.751 11.6899 23.8959C11.2433 22.8992 10.949 21.8354 10.8218 20.7404C10.797 20.7412 10.7722 20.7416 10.7473 20.7416C10.0865 20.7416 9.45269 20.479 8.98541 20.0118C8.51813 19.5445 8.25562 18.9107 8.25562 18.2499H13.25V19.4999C13.25 20.9754 13.6452 22.4101 14.3771 23.6625C14.9512 23.5461 15.5104 23.3884 16.0513 23.1925C15.5401 22.242 15.25 21.1548 15.25 19.9999C15.25 16.272 18.2721 13.2499 22 13.2499C22.6259 13.2499 23.232 13.3351 23.8071 13.4945C23.8685 13.0049 23.9001 12.5061 23.9001 11.9999C23.9001 11.748 23.8923 11.4979 23.8768 11.2499Z" fill="#2D3B9C"/>
<path d="M23.5252 14.9749C23.0425 14.8286 22.5305 14.7499 22 14.7499C19.1005 14.7499 16.75 17.1004 16.75 19.9999C16.75 20.9419 16.9981 21.826 17.4326 22.5904C17.8793 22.3607 18.3096 22.1037 18.7213 21.8214C18.4211 21.2821 18.25 20.661 18.25 19.9999C18.25 17.9288 19.9289 16.2499 22 16.2499C22.3679 16.2499 22.7235 16.3029 23.0595 16.4017C23.2435 15.9396 23.3995 15.4633 23.5252 14.9749Z" fill="#2D3B9C"/>
<path d="M22.4014 17.7856C22.2712 17.7621 22.137 17.7499 22 17.7499C20.7574 17.7499 19.75 18.7572 19.75 19.9999C19.75 20.3106 19.813 20.6065 19.9268 20.8757C20.9136 19.9938 21.7524 18.9499 22.4014 17.7856Z" fill="#2D3B9C"/>
<path d="M0.474984 9.02497C0.957602 9.17124 1.46962 9.24989 2 9.24989C4.8995 9.24989 7.25 6.89939 7.25 3.99989C7.25 3.0579 7.00191 2.17384 6.5675 1.40951C6.12075 1.63914 5.69042 1.89621 5.27874 2.17849C5.57897 2.71779 5.75 3.33887 5.75 3.99989C5.75 6.07096 4.07107 7.74989 2 7.74989C1.63212 7.74989 1.27662 7.69692 0.9407 7.59819C0.75664 8.06024 0.600696 8.53654 0.474984 9.02497Z" fill="#2D3B9C"/>
<path d="M1.59879 6.21423C1.72898 6.23766 1.86306 6.24989 2 6.24989C3.24264 6.24989 4.25 5.24253 4.25 3.99989C4.25 3.68928 4.18706 3.39338 4.07324 3.12423C3.08653 4.00607 2.24776 5.05002 1.59879 6.21423Z" fill="#2D3B9C"/>
</svg>
