<svg viewBox="0 0 24 24" fill="none" xmlns="http://www.w3.org/2000/svg">
<g clip-path="url(#clip0_1842_5002)">
<path d="M23 12C23 18.0751 18.0751 23 12 23C5.92487 23 1 18.0751 1 12C1 5.92487 5.92487 1 12 1C18.0751 1 23 5.92487 23 12Z" fill="#FFDA33"/>
<path fill-rule="evenodd" clip-rule="evenodd" d="M12.0001 0.100098C5.42791 0.100098 0.100098 5.42791 0.100098 12.0001C0.100098 18.5723 5.42791 23.9001 12.0001 23.9001C18.5723 23.9001 23.9001 18.5723 23.9001 12.0001C23.9001 5.42791 18.5723 0.100098 12.0001 0.100098ZM1.9001 12.0001C1.9001 6.42202 6.42202 1.9001 12.0001 1.9001C17.5782 1.9001 22.1001 6.42202 22.1001 12.0001C22.1001 16.91 18.5966 21.0016 13.9532 21.9114L9.0272 12.0163L12.1374 5.76855H4.05114C4.02154 5.80626 3.9922 5.84417 3.96313 5.88231L7.01638 12.0161L3.97261 18.1303C4.3633 18.6411 4.80166 19.1136 5.28103 19.541L8.02173 14.0356L12.0364 22.1C12.0243 22.1001 12.0122 22.1001 12.0001 22.1001C6.42202 22.1001 1.9001 17.5782 1.9001 12.0001Z" fill="#292929"/>
<path d="M21.1971 16.18L16.4719 6.68823L13.5639 12.9303L12.6487 11.1L1.93946 11.1C1.91327 11.3965 1.8999 11.6967 1.8999 12C1.8999 12.3033 1.91327 12.6035 1.93945 12.9L11.5363 12.9L13.6211 17.0698L16.5256 10.8353L20.1056 18.0266C20.5316 17.4547 20.8984 16.8361 21.1971 16.18Z" fill="#FE0002"/>
</g>
<defs>
<clipPath id="clip0_1842_5002">
<rect width="24" height="24" fill="white"/>
</clipPath>
</defs>
</svg>
