<svg viewBox="0 0 24 24" fill="none" xmlns="http://www.w3.org/2000/svg">
<path fill-rule="evenodd" clip-rule="evenodd" d="M3.65415 5.70422C3.18341 5.83085 2.83691 6.26065 2.83691 6.77138V8.01038C2.83691 8.13466 2.85743 8.25415 2.89526 8.36564C2.97082 8.58833 3.11546 8.77912 3.30365 8.91251C3.40149 8.98186 3.51111 9.03569 3.62891 9.07042V10.0158C3.5111 10.0505 3.40149 10.1043 3.30365 10.1737C3.11546 10.3071 2.97082 10.4979 2.89526 10.7206C2.85743 10.8321 2.83691 10.9515 2.83691 11.0758V12.3148C2.83691 12.8164 3.17107 13.2399 3.62891 13.3749V16.2098C3.62891 18.7301 3.62891 19.9902 4.11938 20.9528C4.55081 21.7995 5.23922 22.4879 6.08595 22.9194C7.04855 23.4098 8.30867 23.4098 10.8289 23.4098H13.1644C15.6847 23.4098 16.9448 23.4098 17.9074 22.9194C18.7541 22.4879 19.4425 21.7995 19.874 20.9528C20.3644 19.9902 20.3644 18.7301 20.3644 16.2098V10.5469C20.8128 10.4792 21.1565 10.0922 21.1565 9.62496V7.30421C21.1565 6.83434 20.809 6.44565 20.3569 6.38121C20.3341 4.91421 20.2424 4.02319 19.874 3.30006C19.4425 2.45333 18.7541 1.76492 17.9074 1.33349C16.9448 0.843018 15.6847 0.843018 13.1644 0.843018H10.8289C8.30867 0.843018 7.04855 0.843018 6.08595 1.33349C5.23922 1.76492 4.55081 2.45333 4.11938 3.30006C3.81134 3.90461 3.69677 4.62652 3.65415 5.70422Z" fill="#2B73E3"/>
<path fill-rule="evenodd" clip-rule="evenodd" d="M11.2452 19.6313C10.6527 19.6313 10.1724 20.1117 10.1724 20.7041C10.1724 21.2966 10.6527 21.7769 11.2452 21.7769H12.755C13.3475 21.7769 13.8278 21.2966 13.8278 20.7041C13.8278 20.1117 13.3475 19.6313 12.755 19.6313H11.2452Z" fill="white"/>
<rect x="5.32227" y="2.56299" width="13.3551" height="15.8615" rx="3" fill="#AAC7F4"/>
</svg>
