<svg viewBox="0 0 24 24" fill="none" xmlns="http://www.w3.org/2000/svg">
<path d="M15.3931 6.94826C15.4023 6.72718 15.3947 6.50571 15.3701 6.2858L15.3484 6.091C15.172 4.50843 14.518 3.01709 13.4732 1.81536C13.2542 1.56339 12.8412 1.67272 12.7756 2.00007L12.3997 3.87352C12.3185 4.27831 12.2047 4.67587 12.0593 5.0623C11.7657 5.84294 10.6832 5.89987 10.3093 5.15435L10.2644 5.06479C10.1793 4.8952 10.1064 4.71977 10.0463 4.53984L9.84848 3.94831C9.72664 3.58393 9.21322 3.57846 9.08365 3.94015L9.06297 3.99787C8.79171 4.75503 8.62042 5.54434 8.55342 6.34582L8.53232 6.59829C8.50397 6.93742 8.51523 7.27869 8.56586 7.61522C8.8076 9.22184 10.1671 10.4235 11.7913 10.4661L11.8617 10.468C13.7372 10.5172 15.3051 9.05238 15.3835 7.17792L15.3931 6.94826Z" fill="#ED1B24"/>
<path d="M15.4794 12.5878H8.33948V11.4751H15.4794V12.5878Z" fill="#14489D"/>
<path d="M13.5839 14.8391C14.0278 14.5073 14.2771 14.0572 14.2771 13.5879V13.1537H9.54358V13.5879C9.54358 14.0572 9.79294 14.5073 10.2368 14.8391C10.3278 14.9072 10.4293 14.9684 10.5378 15.0339C10.8519 15.2234 11.2246 15.4482 11.5713 15.9768C11.7185 16.2015 12.0965 16.1988 12.2428 15.9736C12.5831 15.4496 12.96 15.225 13.2765 15.0364C13.3878 14.97 13.4917 14.9081 13.5839 14.8391Z" fill="#14489D"/>
<path fill-rule="evenodd" clip-rule="evenodd" d="M0 21.4212C0 20.2314 0.964553 19.2668 2.15439 19.2668C2.27989 19.2668 2.40288 19.2776 2.5225 19.2982C2.70239 16.9314 4.63127 15.0315 7.0324 15.0315C9.05275 15.0315 10.7387 16.3766 11.3299 18.2131C11.5145 18.1616 11.7092 18.134 11.9102 18.134C12.1143 18.134 12.3118 18.1624 12.4988 18.2154C13.0972 16.3917 14.777 15.0588 16.7882 15.0588C19.1893 15.0588 21.1182 16.9588 21.2981 19.3255C21.4177 19.3049 21.5407 19.2942 21.6662 19.2942C22.856 19.2942 23.8206 20.2587 23.8206 21.4486C23.8206 22.6384 22.856 23.603 21.6662 23.603C21.1362 23.603 20.6508 23.4116 20.2756 23.0941C19.847 23.4134 19.3157 23.6023 18.7402 23.6023H14.6281V21.8023H16.2857C16.209 21.5585 16.1677 21.299 16.1677 21.0298V19.5978H17.9677V21.0298C17.9677 21.4565 18.3136 21.8023 18.7402 21.8023C19.1669 21.8023 19.5127 21.4565 19.5127 21.0298V19.6874C19.5127 18.1008 18.2683 16.8588 16.7882 16.8588C15.308 16.8588 14.0645 18.1008 14.0645 19.6874C14.0645 19.6874 14.0646 20.2816 14.0646 20.2884C14.0646 21.4782 13.1001 22.4428 11.9102 22.4428C10.7204 22.4428 9.75586 21.4782 9.75586 20.2884C9.75586 20.2884 9.75591 19.6687 9.75601 19.6601C9.75601 18.0735 8.51255 16.8315 7.0324 16.8315C5.55225 16.8315 4.30879 18.0735 4.30879 19.6601L4.30781 21.0034C4.30781 21.4301 4.65368 21.776 5.08033 21.776C5.50698 21.776 5.85285 21.4301 5.85285 21.0034V19.5715H7.65285V21.0034C7.65285 21.2726 7.61152 21.5321 7.53484 21.776H9.19243V23.576H5.08033C4.50459 23.576 3.97302 23.3868 3.54437 23.0673C3.16919 23.3844 2.68412 23.5756 2.15439 23.5756C0.964553 23.5756 0 22.6111 0 21.4212ZM2.15439 21.0668C1.95867 21.0668 1.8 21.2255 1.8 21.4212C1.8 21.6169 1.95867 21.7756 2.15439 21.7756C2.35011 21.7756 2.50878 21.6169 2.50878 21.4212C2.50878 21.2255 2.35011 21.0668 2.15439 21.0668ZM11.5559 20.2892C11.5563 20.4846 11.7148 20.6428 11.9102 20.6428C12.1057 20.6428 12.2642 20.4846 12.2646 20.2892L12.2645 20.2801C12.2602 20.0882 12.1032 19.934 11.9102 19.934C11.718 19.934 11.5616 20.087 11.556 20.2779L11.5559 20.2892ZM21.6662 21.0942C21.8619 21.0942 22.0206 21.2528 22.0206 21.4486C22.0206 21.6443 21.8619 21.803 21.6662 21.803C21.4704 21.803 21.3118 21.6443 21.3118 21.4486C21.3118 21.2528 21.4704 21.0942 21.6662 21.0942Z" fill="#14489D"/>
</svg>
