<svg viewBox="0 0 86 70" fill="none" xmlns="http://www.w3.org/2000/svg">
<path fill-rule="evenodd" clip-rule="evenodd" d="M23.2365 56.5779C23.3419 56.418 23.4473 56.2049 23.5527 55.9918C23.6054 55.7787 23.6581 55.6189 23.7108 55.5123C23.7108 55.4057 23.7108 55.4057 23.6581 55.4057C23.6581 55.4057 23.6054 55.459 23.5 55.6189C23.4473 55.7254 23.3419 55.832 23.1838 55.9385C23.0784 56.0451 22.8676 56.1516 22.5513 56.2582C22.2878 56.3648 21.9189 56.4713 21.6027 56.5779C21.2338 56.6844 20.8649 56.7377 20.4959 56.7377C20.127 56.791 19.7581 56.791 19.4419 56.791C18.5459 56.791 17.9135 56.6844 17.4919 56.4713C17.2811 56.3648 17.1757 56.2582 17.1757 56.0984C17.1757 55.9385 17.1757 55.832 17.123 55.7787C17.123 55.7254 17.0703 55.6721 17.0703 55.6721C17.0176 55.6721 17.0176 55.7254 16.9649 55.7254C16.9649 55.7787 16.9122 55.8853 16.9122 56.0451C16.8595 56.2049 16.8595 56.3648 16.8068 56.5779C16.8068 56.7377 16.7541 56.8975 16.7541 56.9508C16.7541 57.1639 16.8068 57.3771 16.9649 57.4836C17.123 57.6434 17.3865 57.75 17.8081 57.8566C18.0716 57.9098 18.3878 57.9098 18.8095 57.9098C19.1784 57.9098 19.6 57.9098 20.0216 57.8566C20.4432 57.8033 20.8649 57.75 21.2865 57.5902C21.55 57.5369 21.8135 57.4303 22.0243 57.3238C22.2878 57.2172 22.5514 57.0574 22.7622 56.9508C23.0257 56.8443 23.1311 56.7377 23.2365 56.5779ZM25.3446 54.9262C25.2919 54.9262 25.2392 54.9795 25.2392 55.0328C25.1865 55.1393 25.1338 55.2992 25.0284 55.5123C24.923 55.7254 24.8176 55.9918 24.7122 56.2049C24.6068 56.418 24.5014 56.5779 24.3959 56.7377C24.2905 56.8443 24.1324 57.0041 23.9216 57.1639C23.7108 57.3238 23.5 57.4303 23.3419 57.5369C23.1838 57.6434 23.0784 57.6967 23.0257 57.8033C22.973 57.8566 22.973 57.8566 22.973 57.9098L23.0257 57.9631C23.0784 57.9631 23.1311 57.9631 23.2892 57.9098C23.4473 57.8566 23.6054 57.8566 23.8689 57.75C24.0797 57.6967 24.2905 57.5902 24.3959 57.5369C24.5014 57.4303 24.6068 57.3238 24.6595 57.1639C24.7649 57.0041 24.8703 56.791 24.9757 56.4713C25.0811 56.1516 25.1865 55.8852 25.2392 55.6189C25.2919 55.3525 25.3446 55.1926 25.3446 55.0861C25.45 54.9795 25.3973 54.9795 25.3446 54.9262ZM27.7162 54.9795C27.6108 54.9262 27.4527 54.873 27.2419 54.873C27.1892 54.873 27.1365 54.873 27.0838 54.873C29.4027 52.6885 30.6149 51.4631 30.6676 51.3033C30.9311 50.7172 30.9838 50.5041 30.8257 50.5574C30.6676 50.8238 29.9297 51.5697 28.6122 52.8484C27.3473 54.0738 26.6622 54.7664 26.4514 54.9795C26.4514 54.7664 26.5041 54.5 26.5568 54.1803C26.6622 53.541 26.6622 53.1148 26.7149 52.9016C26.7149 52.8484 26.7149 52.8484 26.6622 52.8484C26.6622 52.8484 26.6095 52.8484 26.6095 52.9016C26.4514 53.3811 26.2932 53.7008 26.2405 53.8607C26.1351 54.5 26.0297 55.0328 25.977 55.5656C25.9243 56.0984 25.8716 56.4713 25.8716 56.791C25.8716 57.1639 25.9243 57.4836 26.0824 57.6967C26.1878 57.9098 26.3986 58.0164 26.6095 58.0164C26.7676 58.0164 26.9257 57.9631 27.0311 57.8566C27.1892 57.75 27.2946 57.6434 27.4 57.4836C27.5581 57.2705 27.6635 56.9508 27.8216 56.6311C27.927 56.3115 27.9797 55.9918 27.9797 55.6721C28.0324 55.2992 27.927 55.0861 27.7162 54.9795ZM27.4 56.6844C27.2946 56.791 27.0838 56.791 26.9257 56.791C26.7676 56.791 26.6622 56.7377 26.5568 56.6844C26.4514 56.5779 26.3986 56.4713 26.3986 56.3648C26.3986 56.2582 26.4514 56.1516 26.6095 56.0451C26.7676 55.9385 26.873 55.9385 27.0311 55.9385C27.1892 55.9385 27.2946 55.9385 27.4527 56.0451C27.6108 56.1516 27.6635 56.2582 27.6635 56.3648C27.6108 56.4713 27.5581 56.5779 27.4 56.6844ZM19.4419 55.1926C19.4946 55.2459 19.5473 55.2459 19.5473 55.2459C19.6527 55.2459 19.8108 55.0328 20.0216 54.6598C20.127 54.7131 20.1797 54.8197 20.2851 54.9262C20.3905 55.0328 20.4432 55.0861 20.4959 55.0861C20.5486 55.0861 20.6541 54.9795 20.7595 54.8197C20.9176 54.6066 20.9703 54.4467 20.9703 54.3402C20.9703 54.2336 20.9176 54.0738 20.7595 53.9672C20.6541 53.8074 20.5486 53.7541 20.4432 53.7541C20.3905 53.7541 20.3378 53.8607 20.2851 53.9672C20.1797 54.1271 20.127 54.2336 20.0216 54.3934C19.9689 54.2869 19.8635 54.1803 19.7581 54.0738C19.6527 53.9672 19.5473 53.9139 19.4946 53.9139C19.4419 53.9139 19.3892 54.0738 19.2311 54.3402C19.073 54.6066 19.0203 54.7664 19.0203 54.8197C19.0203 54.8197 19.073 54.873 19.1784 54.9795C19.2838 55.0328 19.3892 55.1393 19.4419 55.1926ZM31.0365 54.6066C31.1419 54.7131 31.2473 54.7664 31.3 54.8197C31.3527 54.873 31.4054 54.873 31.4054 54.873C31.5108 54.873 31.6689 54.6598 31.8797 54.2869C31.9851 54.3402 32.0378 54.4467 32.1432 54.5533C32.2486 54.6598 32.3014 54.7131 32.3541 54.7131C32.4068 54.7131 32.5122 54.6066 32.6176 54.4467C32.7757 54.2336 32.8284 54.0738 32.8284 53.9672C32.8284 53.8607 32.7757 53.7008 32.6176 53.5943C32.5122 53.4877 32.4068 53.3811 32.3013 53.3811C32.2486 53.3811 32.1959 53.4344 32.1432 53.5943C32.0378 53.7541 31.9851 53.8607 31.8797 54.0205C31.827 53.9139 31.7216 53.8074 31.6162 53.7008C31.5108 53.5943 31.4054 53.541 31.3527 53.541C31.3 53.541 31.2473 53.7008 31.0892 53.9672C30.9311 54.2336 30.8784 54.3934 30.8784 54.4467C30.8784 54.4467 30.9311 54.5 31.0365 54.6066ZM39.9959 52.8484C39.9432 52.9549 39.8905 53.0082 39.8378 53.1148C39.7851 53.2213 39.7324 53.3279 39.6797 53.4344C39.627 53.541 39.5743 53.6475 39.5743 53.8074C39.5216 53.9139 39.5216 54.0205 39.5216 54.1803C39.5216 54.3934 39.4689 54.6598 39.5216 55.0328C39.5216 55.4057 39.5216 55.6721 39.5216 55.8852C39.5216 56.0984 39.4689 56.3115 39.4162 56.5246C39.3635 56.7377 39.3635 56.8443 39.3635 56.8443C39.3635 56.8975 39.3635 56.8975 39.3635 56.8975C39.3635 56.8975 39.4162 56.8975 39.4689 56.8443C39.5216 56.791 39.5216 56.7377 39.5743 56.6844C39.627 56.5779 39.6797 56.418 39.7851 56.2049C39.8905 55.9385 39.9432 55.6721 39.9432 55.3525C39.9432 55.1926 39.9959 55.0328 39.9959 54.8197C39.9959 54.6066 39.9959 54.3934 39.9959 54.127C39.9959 54.0738 39.9959 54.0205 39.9959 53.9672C39.9959 53.9139 39.9959 53.8074 39.9959 53.7008C39.9959 53.5943 39.9959 53.541 39.9959 53.4344C39.9959 53.3279 39.9959 53.2746 39.9959 53.168C39.9959 53.0615 39.9959 53.0082 39.9959 52.9549C39.9959 52.9016 39.9959 52.8484 39.9959 52.8484C39.9959 52.7951 39.9959 52.7951 39.9432 52.7951C40.0486 52.7418 39.9959 52.7951 39.9959 52.8484ZM43.8432 59.668C43.7905 59.668 43.7378 59.7746 43.5797 60.041C43.4216 60.3074 43.3689 60.4672 43.3689 60.4672C43.3689 60.5205 43.3689 60.5205 43.4216 60.5738C43.4743 60.627 43.527 60.6803 43.5797 60.7336C43.6324 60.7869 43.6851 60.8402 43.7378 60.8934C43.7905 60.9467 43.7905 60.9467 43.8432 61C43.8959 61 43.9486 60.8934 44.1068 60.7336C44.2122 60.5205 44.2649 60.4139 44.2649 60.2541C44.2649 60.1475 44.2122 60.041 44.1068 59.8811C44.0014 59.7746 43.9486 59.668 43.8432 59.668ZM45.2662 54.5C45.2135 54.6598 45.1081 54.7664 45.0554 54.7664C45.0027 54.8197 44.8973 54.873 44.7919 54.9262C44.6338 54.9795 44.5284 55.0861 44.4757 55.0861C44.3176 55.1926 44.2122 55.2992 44.1068 55.4057C44.0541 55.5123 43.8959 55.7254 43.7905 56.0451C43.6324 56.3648 43.5797 56.5779 43.527 56.5779C43.4216 56.6844 43.3162 56.8443 43.1054 57.0041C43.1054 57.0041 43.0527 57.0574 42.8419 57.1639C42.5784 57.3238 42.4203 57.4303 42.3149 57.4836C42.2095 57.5369 42.1568 57.5902 42.1568 57.6434C42.0513 57.6967 42.0513 57.75 42.0513 57.8033C42.0513 57.8566 42.1568 57.8566 42.2095 57.8566C42.3149 57.8566 42.473 57.8566 42.6838 57.8033C42.8419 57.75 43 57.75 43.1054 57.6967C43.3162 57.5902 43.527 57.4303 43.6324 57.1639C43.6851 57.0041 43.7905 56.7377 43.8959 56.4713C43.9486 56.3115 44.0541 56.1516 44.1068 56.0984C44.1068 56.0451 44.1595 56.0451 44.2649 55.9918C44.3176 55.9385 44.5284 55.832 44.8446 55.6721C45.0554 55.5656 45.2662 55.1926 45.477 54.5C45.5297 54.3934 45.477 54.2869 45.477 54.2869C45.3716 54.2869 45.3189 54.3402 45.2662 54.5ZM44.2649 58.3361C44.2122 58.3361 44.1595 58.4426 44.0541 58.6025C44.0014 58.709 43.8959 58.8689 43.8432 58.9754C43.7905 58.8689 43.7378 58.7623 43.5797 58.6557C43.4743 58.5492 43.3689 58.4959 43.3162 58.4959C43.2635 58.4959 43.2108 58.6557 43.0527 58.9221C42.8946 59.1885 42.8419 59.4016 42.8419 59.4016C42.8419 59.4016 42.9473 59.5082 43.1054 59.668C43.2635 59.8279 43.3689 59.8811 43.3689 59.8811C43.4743 59.8811 43.6324 59.668 43.7905 59.2418C43.8432 59.2951 43.9486 59.4016 44.1068 59.5082C44.2122 59.6148 44.2649 59.668 44.3176 59.668C44.3703 59.668 44.4757 59.5615 44.5811 59.4016C44.6865 59.1885 44.7919 59.0287 44.7919 58.8689C44.7919 58.7623 44.7392 58.6025 44.5811 58.4959C44.423 58.3893 44.3176 58.3361 44.2649 58.3361ZM50.3784 58.123C50.3257 58.123 50.273 58.1762 50.2203 58.3361C50.1149 58.4959 50.0622 58.6025 49.9568 58.7623C49.9041 58.6557 49.7986 58.5492 49.6932 58.4426C49.5878 58.3361 49.4824 58.2828 49.4297 58.2828C49.377 58.2828 49.3243 58.4426 49.1662 58.709C49.0081 58.9754 48.9554 59.1352 48.9554 59.1885C48.9554 59.1885 49.0081 59.2418 49.1135 59.3484C49.2189 59.4549 49.3243 59.5082 49.377 59.5615C49.4297 59.6147 49.4824 59.6148 49.4824 59.6148C49.5878 59.6148 49.7459 59.4016 49.9568 59.0287C50.0622 59.082 50.1149 59.1885 50.2203 59.2951C50.3257 59.4016 50.3784 59.4549 50.4311 59.4549C50.4838 59.4549 50.5892 59.3484 50.6946 59.1885C50.8527 58.9754 50.9054 58.8156 50.9054 58.709C50.9054 58.6025 50.8527 58.4426 50.6946 58.3361C50.5365 58.2295 50.4311 58.123 50.3784 58.123ZM42.2095 55.832C42.2095 55.3525 41.9986 54.9795 41.5243 54.6598C41.4189 54.6066 41.3662 54.6066 41.3662 54.7131C41.2081 55.0861 41.05 55.4057 40.9446 55.6189C40.8919 55.7254 40.9446 55.7787 40.9973 55.832C41.4189 56.1516 41.6297 56.418 41.6297 56.6311C41.6297 56.6844 41.5243 56.8443 41.3135 57.0574C41.1027 57.2705 40.8392 57.4836 40.5757 57.6967C40.4176 57.8033 40.3649 57.8566 40.3649 57.9098C40.3649 57.9098 40.3649 57.9631 40.4176 57.9631C40.4703 57.9631 40.4703 57.9631 40.5757 57.9631C40.9973 57.8566 41.3662 57.6434 41.577 57.4303C41.7351 57.2705 41.8405 57.1107 41.9986 56.8443C42.1041 56.4713 42.2095 56.2049 42.2095 55.832ZM37.8878 52.1025C37.9405 52.1025 38.0459 51.9959 38.1514 51.7828C38.2568 51.5697 38.3095 51.4098 38.3095 51.3033C38.3095 51.1967 38.2041 51.0902 38.0986 50.9303C37.9405 50.7705 37.8351 50.7172 37.7824 50.7705C37.7297 50.7705 37.677 50.9303 37.5189 51.1967C37.3608 51.4631 37.3081 51.623 37.3081 51.7295C37.3081 51.7828 37.3081 51.8361 37.3608 51.8361C37.4135 51.8893 37.5189 51.9426 37.6243 52.0492C37.7824 52.0492 37.8351 52.1025 37.8878 52.1025ZM16.9649 47.627C16.9649 47.627 17.0703 47.5205 17.1757 47.3074C17.3865 47.3074 17.5973 47.1475 17.8081 46.8279C18.0189 46.5082 18.1243 46.1885 18.1243 45.8156C18.1243 45.709 18.1243 45.6557 18.0716 45.6557C18.0189 45.6557 18.0189 45.709 17.9662 45.8689C17.9135 46.0287 17.8608 46.1352 17.8081 46.1885C17.7554 46.2951 17.65 46.3484 17.5973 46.3484C17.5446 46.3484 17.4919 46.3484 17.3338 46.2951C17.2811 46.2951 17.2811 46.2951 17.2284 46.2951C17.1757 46.2951 17.123 46.4016 17.0703 46.6148C16.9649 46.8279 16.9122 46.9344 16.8068 46.9344C16.7014 46.9344 16.6486 46.9344 16.5959 46.9344C16.5432 46.9344 16.4378 46.9344 16.3851 46.9344C16.2797 46.9877 16.1216 47.0943 15.9108 47.3607C15.7527 47.5205 15.4892 47.627 15.173 47.627C14.9622 47.627 14.7514 47.5738 14.6459 47.4672C14.4878 47.3607 14.3824 47.2541 14.3297 47.0943C14.277 46.8811 14.2243 46.7213 14.2243 46.6148C14.2243 46.5082 14.2243 46.4016 14.2243 46.1885C14.2243 46.1352 14.2243 45.9754 14.277 45.6557C14.3297 45.3361 14.3824 44.75 14.4878 43.8443C14.5932 42.9385 14.6459 42.3525 14.6986 42.0328C14.6986 41.9795 14.6986 41.9795 14.6459 41.9795C14.6459 41.9795 14.5932 41.9795 14.5405 42.0328C14.277 42.6721 14.1189 43.0984 14.0662 43.3648C13.9081 44.2172 13.8027 45.0164 13.6973 45.709C13.5919 46.4549 13.5919 46.9877 13.5919 47.3607C13.5919 47.8402 13.6973 48.2131 13.8027 48.5328C13.9608 48.8525 14.2243 49.0123 14.5932 49.0123C14.9095 49.0123 15.2257 48.7992 15.4892 48.4262C15.7527 48.0533 15.9635 47.8402 16.0689 47.7869C16.1743 47.7336 16.227 47.7336 16.3324 47.7336C16.3851 47.7336 16.4905 47.7336 16.5959 47.7869C16.7541 47.8934 16.8595 47.7869 16.9649 47.627ZM38.6784 53.8607C38.573 53.9139 38.5203 53.9139 38.4149 53.9139C38.3622 53.9139 38.2041 53.8607 37.9932 53.7541C37.7824 53.6475 37.5716 53.6475 37.4662 53.6475C37.3081 53.6475 37.15 53.7008 37.0446 53.7541C36.9392 53.8074 36.8338 53.9139 36.7811 54.0738C36.7284 54.1271 36.6757 54.2336 36.6757 54.3402C36.623 54.4467 36.623 54.5 36.6757 54.5C36.6757 54.5 36.7284 54.5 36.7811 54.4467C36.8338 54.3402 36.8865 54.2336 36.9919 54.1803C37.0446 54.1271 37.15 54.0738 37.2554 54.0738C37.3081 54.0738 37.4135 54.0738 37.4662 54.127C37.5189 54.127 37.5189 54.1271 37.5716 54.1803C37.6243 54.1803 37.6243 54.1803 37.677 54.2336C37.7824 54.2869 37.8351 54.2869 37.8878 54.3402C37.9405 54.3402 37.9932 54.3934 38.0459 54.4467C37.9932 54.5 37.9405 54.6066 37.8351 54.7131C37.7824 54.7664 37.6243 54.9262 37.3081 55.1926C36.9919 55.459 36.6757 55.6721 36.4122 55.7787C36.0959 55.8852 35.9378 55.9385 35.8324 55.9385C35.7797 55.9385 35.727 55.9385 35.6743 55.9385C35.6743 55.7787 35.6743 55.6721 35.6216 55.7254C35.5689 55.7787 35.4108 55.9385 35.1473 56.0984C34.8838 56.2582 34.6203 56.3648 34.3041 56.4713C33.9878 56.5779 33.7243 56.6311 33.4081 56.6844C33.0919 56.7377 32.7757 56.791 32.5122 56.791C32.1959 56.791 31.9324 56.8443 31.6689 56.8443C31.3527 56.8443 30.9838 56.8443 30.5622 56.791C30.1405 56.7377 29.7716 56.6844 29.5608 56.5779C29.35 56.4713 29.2446 56.3115 29.1919 56.0451C29.1919 55.8853 29.1392 55.7787 29.0865 55.7787C29.0338 55.7787 28.9811 55.9385 28.9811 56.2049C28.9284 56.4713 28.9284 56.7377 28.9284 56.9508C28.9284 57.3238 29.0338 57.5902 29.2973 57.75C29.4027 57.8566 29.6662 57.9098 29.9824 57.9098C30.2986 57.9631 30.5622 57.9631 30.8257 57.9631C31.1946 57.9631 31.6162 57.9631 32.0905 57.9098C32.5122 57.8566 32.9338 57.8033 33.25 57.6967C33.6189 57.5902 33.8824 57.4836 34.1986 57.3771C34.4622 57.2705 34.7784 57.1107 35.0419 56.8443C35.2527 56.7377 35.4108 56.5246 35.6216 56.2582L35.9905 56.3648L36.4122 56.4713C36.5176 56.4713 36.623 56.4713 36.7284 56.3648C36.7811 56.3115 36.8338 56.2582 36.9392 56.2049C36.9919 56.1516 37.0446 56.0984 37.0973 56.0451L37.9405 55.2459C38.0986 55.0861 38.2041 55.0328 38.2568 54.9262C38.3622 54.8197 38.4676 54.7131 38.6257 54.6066L38.9419 54.3934C39.0473 54.3402 39.1 54.2336 39.1 54.1803C39.1 54.1271 39.1527 54.0738 39.1527 54.0205C39.1527 53.9672 39.1527 53.9139 39.2054 53.8607C39.2581 53.7541 39.2054 53.7541 39.2054 53.7541C38.8365 53.7541 38.7311 53.8074 38.6784 53.8607ZM51.4851 54.3934C51.6432 54.3934 51.7486 54.3402 51.8541 54.2336C51.9595 54.0738 52.0122 53.9672 52.0649 53.8074C52.1176 53.6475 52.1703 53.541 52.1703 53.4877C52.1703 53.4344 52.1703 53.3811 52.1703 53.3279C52.1703 53.2746 52.1703 53.2746 52.1176 53.2746C52.1176 53.2746 52.0649 53.3279 52.0649 53.3811C51.9595 53.541 51.8541 53.6475 51.8541 53.6475C51.8013 53.7008 51.6432 53.7008 51.4851 53.6475C51.4324 53.6475 51.327 53.7008 51.2216 53.7541C51.1162 53.8074 51.0108 53.9139 50.9054 54.127C50.7473 54.3402 50.5365 54.4467 50.273 54.4467C50.1149 54.4467 49.9568 54.3934 49.7986 54.2869C49.6405 54.1271 49.5351 53.8607 49.5351 53.4877C49.5351 53.3279 49.5878 53.0082 49.6405 52.5287C49.6405 52.3689 49.6932 52.1557 49.7459 51.7828C49.7459 51.7295 49.7986 51.6762 49.7459 51.623H49.6932C49.5878 51.7828 49.4824 51.9959 49.4297 52.1557C49.377 52.2623 49.377 52.3689 49.3243 52.582C49.2716 52.7418 49.2716 52.9016 49.2189 53.0615C49.1662 53.2746 49.1662 53.4877 49.1135 53.7008L49.0608 54.2869V54.3402C49.0608 54.3402 49.0608 54.3402 49.0608 54.3934V54.5533C49.0608 54.6598 49.0081 54.7664 48.9027 54.9262C48.85 55.0328 48.7973 55.1393 48.6919 55.2992L48.5338 55.5656C48.4284 55.7254 48.3757 55.8853 48.323 56.0451C48.2703 56.2049 48.2176 56.3648 48.2176 56.4713C48.2176 56.6311 48.3757 56.791 48.6392 56.9508C48.9027 57.0574 49.0081 57.1639 49.0081 57.2172C49.0081 57.5369 48.85 57.8566 48.4811 58.123C48.1122 58.4426 47.5851 58.6025 47.0054 58.6025C46.6892 58.6025 46.4257 58.5492 46.2149 58.3893C45.9514 58.1762 45.7932 57.8566 45.7932 57.4303C45.7932 57.1639 45.8986 56.8443 46.0568 56.418C46.1622 56.1516 46.3203 55.7787 46.5838 55.1393C46.6365 55.0861 46.6365 54.9795 46.6365 54.9262C46.6365 54.873 46.6365 54.8197 46.5838 54.8197C46.5311 54.8197 46.5311 54.873 46.4784 54.9795C46.4257 55.0328 46.4257 55.0861 46.373 55.1393C46.3203 55.1926 46.3203 55.2992 46.2676 55.3525C46.2149 55.459 46.1622 55.6189 46.1095 55.6721C46.0568 55.7787 46.0568 55.832 46.0041 55.832C45.9514 55.9918 45.8459 56.2049 45.7405 56.4713C45.6351 56.6844 45.5297 57.0041 45.477 57.3238C45.3716 57.6434 45.3716 57.9098 45.3716 58.123C45.3716 58.6025 45.477 58.9754 45.6878 59.2951C45.9514 59.668 46.3203 59.8279 46.7419 59.8279C46.9527 59.8279 47.1108 59.7746 47.3216 59.7213C47.4797 59.668 47.6378 59.5615 47.7959 59.4549C48.2703 59.1352 48.5865 58.6557 48.85 58.123C49.0081 57.75 49.1135 57.4303 49.1662 57.2172C49.2189 56.9508 49.2716 56.7377 49.2716 56.4713C49.2716 56.3115 49.2716 56.1516 49.2189 56.0984C49.1662 56.0451 49.1135 55.9385 49.0608 55.8853C48.9554 55.832 48.9027 55.7787 48.7973 55.7254C48.6919 55.6721 48.6919 55.6189 48.6919 55.5656C48.6919 55.5123 48.7973 55.3525 48.9027 55.1393C48.9554 55.0861 49.0081 55.0328 49.0081 54.9795C49.0608 55.0328 49.0608 55.1393 49.1135 55.1926C49.2716 55.4057 49.4824 55.5656 49.7459 55.5656C50.0095 55.5656 50.273 55.4057 50.4838 55.0328C50.6946 54.6598 50.8527 54.4467 51.0635 54.3934C51.2743 54.3402 51.3797 54.3402 51.4851 54.3934ZM16.8068 33.5615C16.3324 34.041 15.9108 34.4672 15.4892 34.8402C15.0676 35.2131 14.6459 35.5861 14.2243 35.9057C13.8027 36.2787 13.4338 36.5984 13.0649 36.8648C12.7486 37.1311 12.2743 37.5041 11.7473 37.9303C11.2203 38.3566 10.7986 38.7295 10.5878 38.9426C10.4297 39.1025 10.3243 39.2623 10.2189 39.4221C10.1135 39.6885 10.0081 39.9016 9.95541 40.0615C9.95541 40.1148 10.0608 40.0615 10.1662 39.9549C10.2189 39.9016 10.3243 39.8484 10.377 39.7951C10.4297 39.7418 10.5351 39.6885 10.5878 39.6352L11.6419 38.7828C11.8527 38.623 12.0635 38.4631 12.2743 38.3033C12.4851 38.1434 12.6959 37.9836 12.8541 37.8771C13.0122 37.7172 13.3284 37.5041 13.75 37.1844C14.1716 36.8648 14.5405 36.4918 14.9622 36.1721C15.3311 35.8525 15.7 35.5328 16.0162 35.1598C16.3851 34.7869 16.7014 34.4139 17.0176 34.041C17.3338 33.668 17.5446 33.2418 17.7027 32.7623C17.7554 32.6557 17.7554 32.5492 17.7027 32.6025C17.5973 32.7623 17.2811 33.082 16.8068 33.5615ZM15.5419 55.6189C15.4365 55.459 15.2784 55.3525 15.1203 55.1926L15.0676 55.2992C15.173 55.3525 15.2257 55.459 15.2784 55.5656C15.3311 55.6721 15.3838 55.7787 15.4365 55.8853C15.4892 55.9918 15.5419 56.1516 15.5419 56.2582C15.5419 56.418 15.5946 56.5246 15.5946 56.6844C15.5946 56.8975 15.5946 57.0574 15.5419 57.2705C15.4892 57.4303 15.4365 57.5902 15.3311 57.75C15.2257 57.9098 15.173 58.0164 15.0149 58.123L15.0676 58.1762C15.2257 58.0697 15.3838 57.9098 15.4892 57.75C15.5946 57.5902 15.7 57.4303 15.7527 57.2172C15.8054 57.0574 15.8054 56.8443 15.8054 56.6311C15.8054 56.418 15.7527 56.2049 15.7527 56.0451C15.7527 55.9385 15.6473 55.7787 15.5419 55.6189ZM13.4338 44.0574C13.3811 44.0574 13.3284 44.1639 13.223 44.3238C13.1176 44.5369 13.0122 44.6434 12.9595 44.75C12.9068 44.8033 12.7486 44.9098 12.5378 44.9631C12.327 45.0697 12.1689 45.1762 12.0635 45.2295C11.8527 45.3893 11.6946 45.5492 11.5892 45.6557C11.4838 45.8156 11.3257 46.082 11.1149 46.5615C10.9041 47.041 10.7986 47.3074 10.7459 47.3074C10.6405 47.4672 10.4297 47.627 10.1135 47.8402C10.1135 47.8402 10.0081 47.8934 9.74459 48.1066C9.42838 48.3197 9.16487 48.4795 9.05946 48.5861C8.95405 48.6926 8.84865 48.7459 8.79595 48.7992C8.69054 48.9057 8.63784 48.959 8.63784 49.0123C8.69054 49.0656 8.74324 49.1189 8.90135 49.1189C9.05946 49.1189 9.27027 49.0656 9.53378 49.0123C9.7973 48.959 10.0081 48.9057 10.1662 48.8525C10.4824 48.6926 10.7459 48.4262 10.9041 48.1066C11.0095 47.8934 11.1149 47.5205 11.3257 47.0943C11.4311 46.8811 11.5365 46.668 11.6419 46.5615C11.6946 46.5082 11.7473 46.4549 11.8527 46.4016C11.9581 46.3484 12.2216 46.1885 12.6432 45.9754C12.9595 45.8156 13.223 45.2828 13.4865 44.377C13.4865 44.1639 13.4865 44.0574 13.4338 44.0574ZM12.0108 51.0369C11.9581 51.0369 11.8527 51.1967 11.6419 51.5697C11.4311 51.9426 11.3257 52.1557 11.3257 52.209C11.3257 52.2623 11.3784 52.3156 11.4311 52.3689C11.4838 52.4221 11.5892 52.4754 11.6419 52.582C11.6946 52.6352 11.8 52.7418 11.8527 52.7951C11.9054 52.8484 11.9581 52.9016 12.0108 52.9016C12.0635 52.9016 12.1689 52.7951 12.327 52.5287C12.4851 52.2623 12.5905 52.0492 12.5905 51.8893C12.5905 51.7295 12.5378 51.5697 12.3797 51.3566C12.2216 51.1434 12.1162 51.0369 12.0108 51.0369ZM4.47432 46.2418C4.42162 46.2418 4.36892 46.2951 4.36892 46.4016C4.26351 46.8279 4.15811 47.4139 4.10541 48.0533C4.10541 48.4262 4.21081 48.6926 4.42162 48.8525C4.68514 49.0656 5.10676 49.1721 5.73919 49.1721C6.42432 49.1721 7.00405 49.0123 7.47838 48.7459C7.79459 48.5861 8.00541 48.373 8.26892 48.1598C8.53243 47.8934 8.79595 47.4672 9.05946 46.9877C9.32297 46.5082 9.53378 45.8156 9.69189 44.9631C9.7973 44.3238 9.85 43.7377 9.85 43.2049C9.85 42.9918 9.85 42.5656 9.9027 41.873C9.9027 41.6598 9.9027 41.3934 9.95541 41.127C10.0081 40.8074 10.0081 40.6475 10.0081 40.541C10.0081 40.4344 10.0081 40.3279 10.0608 40.2746C10.0608 40.168 10.0608 40.168 10.0608 40.1148C10.0608 40.1148 10.0081 40.1148 9.95541 40.1148C9.9027 40.2213 9.7973 40.4877 9.58649 40.9139C9.42838 41.2869 9.32297 41.5533 9.21757 41.7131C9.21757 41.7664 9.16487 41.9795 9.16487 42.2992C9.16487 42.459 9.16487 43.0451 9.11216 43.9508C9.11216 44.75 9.05946 45.2828 9.00676 45.6557C8.95405 46.0287 8.84865 46.2418 8.74324 46.4016C8.47973 46.8279 8.11081 47.0943 7.58378 47.3074C7.21486 47.4672 6.74054 47.5205 6.26622 47.5205C6.10811 47.5205 5.8973 47.5205 5.63378 47.4672C5.42297 47.4139 5.21216 47.3607 5.05405 47.3074C4.68514 47.1475 4.52703 46.8811 4.52703 46.5082C4.52703 46.4549 4.52703 46.3484 4.52703 46.2951C4.57973 46.2951 4.52703 46.2418 4.47432 46.2418ZM6.58243 45.2828H6.42432C6.31892 45.2828 6.31892 45.3361 6.31892 45.3893C6.31892 45.5492 6.42432 45.6025 6.58243 45.6025C6.84595 45.6025 7.00405 45.5492 7.10946 45.3893C7.21486 45.2295 7.21486 45.123 7.16216 45.0164C7.10946 44.9098 7.10946 44.8033 7.10946 44.75C7.16216 44.6434 7.26757 44.5902 7.42568 44.5902C7.58378 44.5902 7.68919 44.5369 7.68919 44.377C7.68919 44.2705 7.63649 44.2172 7.53108 44.2172C7.37297 44.2172 7.21486 44.2705 7.10946 44.377C7.00405 44.4836 6.95135 44.6434 7.00405 44.8033C7.05676 44.9631 7.05676 45.0697 6.95135 45.123C6.84595 45.2295 6.74054 45.2828 6.58243 45.2828ZM15.8054 40.541C15.5946 40.9139 15.4892 41.1803 15.4892 41.2336C15.4892 41.2869 15.5946 41.3934 15.8054 41.5533C16.0162 41.7131 16.1743 41.8197 16.1743 41.8197C16.3324 41.8197 16.5432 41.5533 16.8068 40.9672C16.9122 41.0205 17.0703 41.1803 17.2284 41.3402C17.3338 41.4467 17.4392 41.5 17.4919 41.5C17.5446 41.5 17.7027 41.3402 17.8608 41.127C18.0189 40.8607 18.1243 40.6475 18.1243 40.4344C18.1243 40.2746 18.0189 40.1148 17.8608 39.9016C17.7027 39.7418 17.5446 39.6352 17.4392 39.6352C17.3865 39.6352 17.3338 39.7418 17.1757 40.0082C17.0703 40.168 16.9649 40.3279 16.8595 40.541C16.8068 40.4344 16.7014 40.2746 16.5432 40.1148C16.3851 39.9549 16.2797 39.9016 16.1743 39.9016C16.1216 39.9549 16.0162 40.168 15.8054 40.541ZM13.0122 50.6639C13.1703 50.3975 13.2757 50.1311 13.2757 49.9713C13.2757 49.8115 13.1703 49.6516 13.0122 49.4385C12.8541 49.2787 12.6959 49.1721 12.5905 49.1721C12.5378 49.1721 12.4851 49.2787 12.327 49.5451C12.2216 49.7049 12.1162 49.918 12.0108 50.0779C11.9581 49.9713 11.8527 49.8115 11.6946 49.6516C11.5365 49.4918 11.3784 49.4385 11.3257 49.4385C11.273 49.4385 11.1676 49.6516 10.9568 50.0779C10.7459 50.5041 10.6405 50.7172 10.6405 50.7705C10.6405 50.8238 10.7459 50.9303 10.9568 51.0902C11.1676 51.3033 11.3257 51.3566 11.3257 51.3566C11.4838 51.3566 11.6946 51.0902 11.9581 50.5041C12.0635 50.6107 12.2216 50.7172 12.3797 50.877C12.4851 50.9836 12.5905 51.0902 12.6432 51.0902C12.6959 51.0902 12.8014 50.9303 13.0122 50.6639ZM12.1162 55.4057C12.0635 55.4057 12.0635 55.4057 12.0108 55.459C12.0108 55.459 11.9581 55.5123 11.9581 55.6189L11.8527 55.832C11.8527 55.832 11.8527 55.8853 11.9054 55.8853C11.9581 55.8853 11.9581 55.9385 11.9581 55.9385C11.9581 55.9385 11.9581 55.9918 11.9054 55.9918C11.9054 55.9918 11.8527 56.0451 11.8 56.0984C11.7473 56.1516 11.6946 56.2049 11.6419 56.2582C11.5892 56.3115 11.5365 56.418 11.4838 56.4713C11.4311 56.5246 11.3784 56.6311 11.3784 56.7377C11.3257 56.8443 11.3257 56.8975 11.3257 56.9508C11.3257 57.0041 11.3257 57.0574 11.3784 57.1107C11.3784 57.1639 11.4311 57.1639 11.4838 57.2172C11.5892 57.2705 11.6419 57.3238 11.6946 57.3238L11.7473 57.3771C11.7473 57.4303 11.6946 57.5369 11.6419 57.6434C11.5892 57.75 11.4838 57.8566 11.3784 57.9098C11.273 57.9631 11.2203 58.0164 11.1149 58.0164C11.0095 58.0164 10.9041 58.0697 10.7986 58.0697C10.6405 58.0697 10.4824 58.0164 10.4297 57.9098C10.3243 57.8033 10.2716 57.6434 10.2716 57.4836C10.2716 57.3771 10.2716 57.2705 10.3243 57.1639C10.3243 57.1107 10.377 56.9508 10.4824 56.6844C10.5351 56.5246 10.5878 56.418 10.5878 56.3648C10.5878 56.3115 10.5878 56.3115 10.5878 56.2582C10.5878 56.2582 10.5351 56.3115 10.4824 56.418C10.4297 56.4713 10.4297 56.5779 10.377 56.6311C10.2716 56.8443 10.2189 57.0574 10.1135 57.2172C10.0608 57.4303 10.0081 57.6434 10.0081 57.8033C10.0081 58.0697 10.0608 58.2828 10.1662 58.3893C10.2716 58.5492 10.4297 58.6025 10.5878 58.6025C10.9568 58.6025 11.273 58.4426 11.4838 58.0697C11.5892 57.9098 11.6419 57.75 11.7473 57.5369C11.8 57.3238 11.8527 57.1639 11.8527 57.0041V56.9508C11.8527 56.8975 11.8527 56.8975 11.8527 56.8443C11.8527 56.791 11.8 56.791 11.7473 56.7377C11.6946 56.6844 11.6419 56.6844 11.5892 56.6311C11.5365 56.5779 11.4838 56.5779 11.4838 56.5246C11.4838 56.4713 11.4838 56.4713 11.5892 56.418C11.6419 56.3648 11.6946 56.3115 11.6946 56.3115C11.7473 56.2582 11.8527 56.2049 11.9581 56.1516C12.0108 56.1516 12.0635 56.0984 12.2216 55.9918C12.2743 55.9385 12.327 55.8852 12.4324 55.832C12.4851 55.7254 12.5378 55.6721 12.5378 55.6189C12.5378 55.5656 12.4851 55.5123 12.4324 55.459C12.327 55.459 12.2216 55.459 12.1162 55.4057ZM14.8568 56.0451C14.8041 56.1516 14.7514 56.2049 14.7514 56.2049H14.6986C14.6459 56.2582 14.6459 56.2582 14.6459 56.3115C14.5405 56.3115 14.5405 56.3648 14.4878 56.3648H14.3824C14.3297 56.3648 14.2243 56.418 14.1189 56.5779C14.0662 56.6311 14.0135 56.6844 13.9608 56.791C13.9608 56.7377 13.9081 56.7377 13.9081 56.6844C13.8554 56.6311 13.8027 56.5779 13.6973 56.5779C13.6446 56.5779 13.5919 56.5779 13.5392 56.6311C13.4865 56.6844 13.4865 56.6844 13.4338 56.7377C13.3811 56.791 13.3284 56.8443 13.3284 56.8443C13.2757 56.8975 13.223 56.8975 13.1176 56.8975C13.0122 56.8975 12.9068 56.8443 12.8541 56.791C12.8014 56.6844 12.8014 56.5779 12.8014 56.4713C12.8014 56.418 12.8014 56.3648 12.8014 56.2582C12.8014 56.1516 12.8014 56.0451 12.8541 55.9385L12.9595 55.2992V55.1393C12.9595 55.0861 12.9595 55.0861 12.9595 55.0328C12.9068 55.0861 12.9068 55.1926 12.8541 55.2992C12.8014 55.4057 12.8014 55.5123 12.7486 55.5123C12.7486 55.6721 12.6959 55.9385 12.6432 56.2582C12.5905 56.5779 12.5905 56.791 12.5905 56.791C12.5905 56.9508 12.6432 57.1107 12.6959 57.2172C12.7486 57.3238 12.8541 57.3771 12.9595 57.3771C13.0122 57.3771 13.0649 57.377 13.1176 57.3238C13.1703 57.3238 13.223 57.2705 13.223 57.2172C13.2757 57.1639 13.3284 57.1107 13.3811 57.0041C13.4338 56.8975 13.5392 56.8443 13.5919 56.8443C13.6446 56.8443 13.6973 56.8443 13.75 56.8975C13.8027 56.9508 13.8027 57.0041 13.8027 57.0574V57.2705C13.8027 57.3238 13.8027 57.3771 13.8027 57.3771C13.8027 57.3771 13.8027 57.4303 13.8554 57.4303C13.8554 57.4303 13.9081 57.377 13.9081 57.2705C13.9608 57.1107 14.0135 57.0041 14.0662 56.8443C14.0662 56.791 14.1189 56.7377 14.1716 56.6844C14.2243 56.5779 14.277 56.5779 14.3297 56.5246C14.3297 56.5246 14.3824 56.5246 14.4351 56.5246C14.4878 56.5246 14.4878 56.5246 14.5405 56.5246L14.5932 56.4713C14.6459 56.418 14.6459 56.418 14.6459 56.418C14.6986 56.3648 14.6986 56.3648 14.7514 56.3648C14.8041 56.3648 14.8568 56.3115 14.9095 56.2049C14.9622 56.0984 15.0149 56.0451 15.0149 55.9385C15.0149 55.9385 15.0149 55.9385 15.0149 55.8853C14.8568 55.9918 14.8568 55.9918 14.8568 56.0451ZM10.1135 56.3648C10.1135 56.3115 10.1662 56.2582 10.1662 56.2582C10.1662 56.2582 10.1662 56.2582 10.1662 56.2049H10.0608C10.0608 56.2049 9.9554 56.2049 9.85 56.1516C9.7973 56.1516 9.74459 56.0984 9.74459 56.0984C9.69189 56.0984 9.63919 56.1516 9.53378 56.2049C9.48108 56.2582 9.42838 56.3115 9.37568 56.418L9.11216 56.8443C9.00676 56.8443 8.90135 56.791 8.84865 56.7377C8.79595 56.6844 8.74324 56.5779 8.74324 56.418C8.74324 56.3648 8.74324 56.3115 8.74324 56.2049C8.74324 56.0984 8.74324 55.9918 8.79595 55.8853L8.90135 55.2459V55.0861C8.90135 55.0328 8.90135 55.0328 8.90135 54.9795C8.84865 55.0328 8.84865 55.1393 8.79595 55.2459C8.74324 55.3525 8.69054 55.459 8.69054 55.459C8.69054 55.6189 8.63784 55.8852 8.58513 56.2049C8.53243 56.5246 8.53243 56.7377 8.53243 56.7377C8.53243 56.8975 8.58513 57.0041 8.63784 57.1107C8.74324 57.2172 8.84865 57.2705 9.00676 57.2705C9.16486 57.2705 9.27027 57.2172 9.42838 57.1639C9.53378 57.1107 9.63919 57.0041 9.69189 56.8443C9.69189 56.8443 9.74459 56.7377 9.85 56.6311C9.9027 56.5779 9.9027 56.5246 9.95541 56.4713L10.0081 56.418C10.0081 56.3648 10.0608 56.3648 10.0608 56.3648C10.0608 56.4713 10.1135 56.418 10.1135 56.3648ZM9.58649 56.7377C9.53378 56.791 9.48108 56.791 9.42838 56.8443C9.42838 56.8443 9.37568 56.8443 9.32297 56.8975H9.16487L9.37568 56.5779C9.42838 56.5246 9.42838 56.4713 9.48108 56.4713C9.53378 56.418 9.58649 56.418 9.63919 56.418C9.63919 56.418 9.69189 56.418 9.74459 56.418C9.7973 56.418 9.85 56.4713 9.85 56.4713C9.7973 56.5779 9.69189 56.6844 9.58649 56.7377ZM9.7973 54.8197C9.74459 54.8197 9.74459 54.8197 9.7973 54.8197C9.74459 54.7664 9.74459 54.7664 9.74459 54.7664C9.74459 54.7664 9.74459 54.8197 9.69189 54.8197C9.63919 54.873 9.63919 54.9262 9.58649 54.9795C9.58649 55.0328 9.53378 55.0861 9.48108 55.1393C9.48108 55.1393 9.48108 55.1926 9.42838 55.2459C9.42838 55.2459 9.42838 55.2992 9.48108 55.2992C9.48108 55.2992 9.53378 55.3525 9.58649 55.3525C9.58649 55.3525 9.63919 55.4057 9.69189 55.459C9.74459 55.5123 9.74459 55.5123 9.74459 55.5123C9.74459 55.5123 9.7973 55.5123 9.7973 55.459C9.85 55.4057 9.9027 55.3525 9.9027 55.2992C9.9027 55.2459 9.95541 55.1926 9.95541 55.1393C9.95541 55.0861 9.95541 55.0328 9.95541 55.0328C9.95541 54.9795 9.95541 54.9795 9.9027 54.9262C9.9027 54.9262 9.85 54.873 9.7973 54.8197ZM4.68514 55.6721C4.79054 55.5123 4.84324 55.4057 5.00135 55.2992L4.94865 55.2459C4.79054 55.3525 4.63243 55.5123 4.52703 55.6721C4.42162 55.832 4.31622 55.9918 4.26351 56.2049C4.21081 56.418 4.21081 56.5779 4.21081 56.791C4.21081 57.0041 4.21081 57.2172 4.26351 57.3771C4.31622 57.5902 4.36892 57.75 4.52703 57.9098C4.63243 58.0697 4.79054 58.1762 4.94865 58.3361L5.00135 58.2828C4.89595 58.2295 4.84324 58.123 4.79054 58.0164C4.73784 57.9098 4.68514 57.8033 4.63243 57.6967C4.57973 57.5902 4.52703 57.4303 4.52703 57.3238C4.52703 57.1639 4.47432 57.0574 4.47432 56.8975C4.47432 56.6844 4.47432 56.5246 4.52703 56.3115C4.57973 55.9918 4.63243 55.832 4.68514 55.6721ZM8.21622 55.459C8.16351 55.459 8.11081 55.459 8.11081 55.5123C8.05811 55.5656 8.00541 55.6189 7.9527 55.6721C7.9 55.7254 7.8473 55.832 7.74189 55.8853C7.68919 55.9918 7.63649 56.0451 7.58378 56.1516C7.53108 56.1516 7.53108 56.1516 7.47838 56.1516C7.42568 56.1516 7.42568 56.1516 7.37297 56.1516C7.32027 56.1516 7.26757 56.2049 7.21486 56.2582C7.21486 56.3115 7.16216 56.418 7.16216 56.4713C7.16216 56.5246 7.16216 56.5779 7.16216 56.6844C7.16216 56.791 7.16216 56.8443 7.16216 56.8443C7.16216 56.8975 7.16216 57.0041 7.10946 57.0041C7.10946 57.0574 7.10946 57.1107 7.05676 57.2172C7.00405 57.3238 6.95135 57.4836 6.89865 57.5369C6.84595 57.5902 6.79324 57.6434 6.68784 57.75C6.74054 57.8033 6.63514 57.8566 6.58243 57.9098C6.52973 57.9631 6.42432 57.9631 6.37162 58.0164C6.26622 58.0164 6.16081 58.0697 5.95 58.0697C5.79189 58.0697 5.63378 58.0164 5.52838 57.9631C5.42297 57.8566 5.37027 57.75 5.37027 57.5902C5.37027 57.4836 5.37027 57.3771 5.42297 57.2705C5.42297 57.2172 5.47568 57.1639 5.47568 57.0574L5.63378 56.7377C5.63378 56.6844 5.68649 56.6311 5.68649 56.5779C5.68649 56.5246 5.68649 56.5246 5.68649 56.5246C5.68649 56.5246 5.68649 56.5246 5.63378 56.5779C5.63378 56.5779 5.63378 56.6311 5.58108 56.6844C5.52838 56.791 5.47568 56.8443 5.42297 56.9508C5.42297 57.0041 5.37027 57.0574 5.31757 57.1639C5.26486 57.2705 5.26486 57.4303 5.21216 57.5369C5.21216 57.6434 5.15946 57.75 5.15946 57.8566C5.15946 58.123 5.21216 58.3893 5.42297 58.4959C5.52838 58.6025 5.68649 58.6557 5.84459 58.6557C5.95 58.6557 6.05541 58.6557 6.16081 58.6025C6.31892 58.5492 6.42432 58.4959 6.52973 58.3893C6.68784 58.2828 6.84595 58.0697 6.95135 57.8566C7.05676 57.6967 7.10946 57.5369 7.21486 57.2705C7.26757 57.1107 7.32027 56.9508 7.32027 56.8443C7.32027 56.791 7.37297 56.7377 7.37297 56.6844C7.37297 56.6311 7.37297 56.6311 7.37297 56.5779C7.37297 56.5246 7.37297 56.5246 7.42568 56.5246H7.53108C7.58378 56.5246 7.63649 56.5246 7.74189 56.4713C7.9 56.418 8.00541 56.3648 8.11081 56.2049C8.16351 56.0984 8.21622 56.0451 8.26892 55.8853C8.32162 55.7787 8.37432 55.6721 8.37432 55.5656C8.37432 55.5123 8.37432 55.459 8.32162 55.4057C8.32162 55.5123 8.26892 55.459 8.21622 55.459ZM8.16351 55.9385C8.11081 55.9918 8.05811 56.0451 8.0054 56.0451C7.9527 56.0984 7.9 56.0984 7.8473 56.0984C7.79459 56.0984 7.74189 56.0984 7.74189 56.0984C7.74189 56.0984 7.74189 56.0451 7.79459 56.0451C7.8473 55.9918 7.9 55.9385 7.9 55.8853C7.9527 55.7787 8.05811 55.7254 8.11081 55.7254C8.16351 55.7254 8.21622 55.7254 8.21622 55.7787C8.26892 55.7787 8.26892 55.832 8.26892 55.832C8.26892 55.8852 8.21622 55.8852 8.16351 55.9385ZM16.2797 39.5287C16.3851 39.582 16.4905 39.6885 16.5959 39.7951C16.7541 39.9549 16.8595 40.0082 16.8595 40.0082C16.9122 40.0082 17.0176 39.8484 17.1757 39.582C17.3338 39.3156 17.3865 39.0492 17.3865 38.8893C17.3865 38.7295 17.2811 38.5164 17.123 38.3566C16.9649 38.1967 16.8068 38.0902 16.7014 38.0902C16.6486 38.0902 16.5432 38.3033 16.3324 38.6762C16.1743 39.0492 16.0689 39.2623 16.0689 39.3156C16.1743 39.4221 16.227 39.4754 16.2797 39.5287ZM31.0892 25.4631H25.2919L24.6595 25.7828H20.0216L19.3365 25.4631H10.1662C8.84865 25.4631 8.95405 26.4221 8.95405 26.4221C8.95405 27.2746 10.1135 27.2746 10.1135 27.2746H21.023L21.1811 27.0082H22.7095L22.9203 27.2213H30.9838C32.9338 27.2213 34.5676 26.9016 34.5676 26.9016H82V26.0492H34.6203C32.3541 25.4098 31.0892 25.4631 31.0892 25.4631ZM33.8824 30.3648H17.0703C15.8054 30.3115 15.9108 31.2705 15.9108 31.2705C15.9635 32.123 17.0176 32.0164 17.0176 32.0164H33.7243C34.8838 32.0164 37.0446 31.75 37.0446 31.75H82V30.8443H37.2554C35.4108 30.5246 33.8824 30.3648 33.8824 30.3648ZM26.1878 27.9139H12.6959C11.4311 27.8607 11.4838 28.873 11.4838 28.873C11.4311 29.832 12.4851 29.7254 12.4851 29.7254H26.0824C27.6108 29.6721 29.2973 29.3525 29.2973 29.3525H82V28.5H29.4554C27.5581 27.8607 26.1878 27.9139 26.1878 27.9139ZM39.1527 35.2131H30.773L29.2973 35.4795H26.9257L25.8189 35.2131H19.8108C18.5459 35.1598 18.6514 36.0656 18.6514 36.0656C18.6514 37.0779 19.7054 36.9713 19.7054 36.9713H25.7662L27.3473 36.5984H29.1392L30.6676 36.918H38.4676C39.7324 36.918 41.6297 36.5451 41.6297 36.5451H82V35.6393H41.6824C40.1541 35.2131 39.1527 35.2131 39.1527 35.2131ZM37.15 32.7623H28.2432L27.7162 33.082H25.3973L25.0811 32.7623H20.3378C19.1257 32.709 19.2311 33.5615 19.2311 33.5615C19.2311 34.6271 20.3905 34.4672 20.3905 34.4672H24.8176L25.0811 34.3074H28.1905L28.4014 34.5205H36.8865C38.2568 34.5738 40.1014 34.2008 40.1014 34.2008H82V33.2951H40.2068C38.1514 32.8156 37.15 32.7623 37.15 32.7623ZM24.9757 42.459C24.027 42.5123 24.0797 43.1516 24.0797 43.1516C24.0797 44.2172 25.2392 44.0041 25.2392 44.0041C25.6608 44.0041 26.2932 43.6311 26.2932 43.6311H82V42.7787H26.1878C25.5554 42.459 24.9757 42.459 24.9757 42.459ZM39.7851 37.6107H34.1986C32.5649 37.6107 31.0892 38.0902 31.0892 38.0902H29.1919C27.7162 37.8238 26.2932 37.7172 26.2932 37.7172H20.3378C19.1784 37.7172 19.2311 38.5697 19.2311 38.5697C19.2311 39.4754 20.2851 39.3689 20.2851 39.3689H26.1878C27.1365 39.3689 29.35 38.8893 29.35 38.8893H30.9311C31.9851 39.3156 34.0405 39.3689 34.0405 39.3689H39.1527C40.3122 39.3156 42.5257 39.0492 42.5257 39.0492H82V38.1434H42.6838C41.6297 37.8238 39.7851 37.6107 39.7851 37.6107ZM39.9432 40.1148C38.4149 40.0615 36.4122 40.5943 36.4122 40.5943H29.1919L25.977 40.0082H22.077C20.8649 40.0082 21.023 40.9139 21.023 40.9139C21.023 41.8197 22.1297 41.7131 22.0243 41.7131H25.7662L29.0338 41.1803H36.4649C38.0986 41.7664 39.7851 41.7131 39.7851 41.7131C40.9446 41.7131 43 41.2869 43 41.2869H82V40.3811H42.3149C41.2608 40.1148 39.9432 40.1148 39.9432 40.1148ZM4 9V9.85246H82V9H4ZM40.7338 11.1311H35.5689C34.4622 11.1844 33.0919 11.5041 33.0919 11.5041H4V12.3566H33.0392C34.0405 12.6762 35.1473 12.7828 35.1473 12.7828H40.7865C41.9986 12.7295 43.3689 12.4098 43.3689 12.4098H82V11.5041H43.1581C42.3149 11.291 40.7338 11.1311 40.7338 11.1311ZM81.1568 46.668C80.7351 47.041 80.4716 47.3607 80.2608 47.5205C79.9446 47.8402 79.6284 48.1066 79.2595 48.373C78.7324 48.7992 78.2581 49.1721 77.8365 49.5451C77.2568 50.0246 76.9405 50.291 76.7824 50.4508C76.677 50.5574 76.6243 50.6639 76.5189 50.8238C76.4135 50.9836 76.3608 51.1434 76.3081 51.25C76.3081 51.3033 76.3608 51.25 76.4662 51.1434C76.5189 51.0902 76.5716 51.0902 76.6243 51.0369C76.677 50.9836 76.7297 50.9303 76.7824 50.877L77.573 50.291C77.8365 50.0779 78.1527 49.8648 78.4689 49.5984C78.6797 49.4385 78.9432 49.2254 79.2068 48.959C79.4176 48.7992 79.5757 48.6393 79.7338 48.5328C79.8919 48.4262 79.9973 48.2664 80.1027 48.2131C80.3662 47.9467 80.577 47.7869 80.6824 47.6803C80.7351 47.6271 80.8405 47.5205 80.9986 47.3074C81.1568 47.1475 81.2622 46.9877 81.3676 46.8279C81.473 46.7213 81.5784 46.5615 81.6838 46.3484C81.7892 46.1352 81.8419 45.9754 81.8946 45.8689C81.8946 45.8156 81.8946 45.7623 81.8946 45.7623C82 45.8689 81.7365 46.1352 81.1568 46.668ZM40.5757 13.5287H30.2986C29.0865 13.5287 27.7162 13.9549 27.7162 13.9549H4V14.7541H27.4527C28.2432 15.0205 29.8243 15.2336 29.8243 15.2336H40.4176C41.577 15.2336 42.8946 14.7541 42.8946 14.7541H82V14.0082H42.5784C41.4189 13.6352 40.5757 13.5287 40.5757 13.5287ZM39.8905 15.9795H27.0838C25.9243 16.0328 24.7649 16.459 24.7649 16.459H13.8027C12.6959 16.1393 11.5892 15.9795 11.5892 15.9795H5.26486C4.63243 15.9795 4.63243 16.832 4.63243 16.832C4.63243 17.6844 5.26486 17.6311 5.26486 17.6311H11.2203C12.4851 17.5246 13.8554 17.1516 13.8554 17.1516H24.7122C25.6608 17.3648 26.873 17.5779 26.873 17.5779H39.5743C40.7865 17.5246 41.9459 17.2049 41.9459 17.2049H82V16.3525H42.0513C40.7338 15.9795 39.8905 15.9795 39.8905 15.9795ZM53.6459 48.5861C53.9095 48.3197 54.1203 48.1598 54.2257 48.0533C54.2784 48 54.3838 47.8934 54.5419 47.6803C54.7 47.5205 54.8054 47.3607 54.9108 47.2008C55.0162 47.0943 55.1216 46.9344 55.227 46.7213C55.3324 46.5082 55.4378 46.3484 55.4378 46.2418C55.4378 46.1885 55.4378 46.1885 55.4378 46.1353C55.4378 46.1353 55.1743 46.4016 54.5946 46.9877C54.2257 47.3607 53.9095 47.627 53.6987 47.8402C53.3824 48.1598 53.0662 48.4262 52.6973 48.6926C52.4338 48.9057 52.223 49.0656 51.9595 49.2787C51.7486 49.4918 51.4851 49.6516 51.2216 49.8648C50.6946 50.291 50.3257 50.6107 50.1676 50.7705C50.0622 50.877 50.0095 50.9836 49.9041 51.1434C49.8514 51.25 49.7459 51.4098 49.6932 51.5697C49.6932 51.5697 49.7459 51.5697 49.8514 51.4631C49.9041 51.4098 50.0095 51.3033 50.1676 51.1967L50.9581 50.5574C51.1162 50.4508 51.2743 50.3443 51.3797 50.2377C51.5378 50.1311 51.6959 50.0246 51.8013 49.918C52.0649 49.7049 52.3284 49.4918 52.5392 49.2787C53.1716 48.959 53.4878 48.6926 53.6459 48.5861ZM37.3608 20.8279H24.2905C23.2892 20.7746 22.077 21.2008 22.077 21.2008H19.7054C18.7041 20.8279 17.8608 20.8279 17.8608 20.8279H6.79324C5.8973 20.8279 6.0027 21.6803 6.0027 21.6803C6.0027 22.4795 6.68784 22.4262 6.68784 22.4262H17.5446C18.5459 22.4795 19.7581 22.0533 19.7581 22.0533H22.1824C22.9203 22.4262 24.1851 22.4795 24.1851 22.4795H37.0446C38.6257 22.4795 39.5216 22.1066 39.5216 22.1066H82V21.3074H39.627C38.0459 20.7746 37.3608 20.8279 37.3608 20.8279ZM38.9946 18.4303H25.5554C24.1324 18.377 23.1838 18.8033 23.1838 18.8033H17.4919C15.9635 18.4303 15.2784 18.377 15.2784 18.377H6.21351C5.37027 18.377 5.42297 19.1762 5.42297 19.1762C5.42297 20.0287 6.10811 19.9221 6.10811 19.9221H14.9095C16.227 19.8156 17.1757 19.5492 17.1757 19.5492H23.0257C23.8162 19.8689 25.1338 20.0287 25.1338 20.0287H38.7838C39.8905 19.9754 40.9446 19.6025 40.9446 19.6025H82V18.8566H40.9973C39.8378 18.4303 38.9946 18.4303 38.9946 18.4303ZM35.5162 23.2787C35.5162 23.2787 25.0811 23.2254 24.1324 23.2787C23.1838 23.332 22.3932 23.5451 22.3932 23.5451H20.8649C20.3378 23.3852 19.6 23.2254 19.6 23.2254H8.26892C7.10946 23.2254 7.26757 24.0779 7.26757 24.0779C7.26757 24.877 8.16351 24.877 8.16351 24.877H19.2311C19.8108 24.8238 20.8122 24.6107 20.8122 24.6107H22.3932C23.0257 24.8771 23.8162 24.9303 23.8162 24.9303H35.2C36.2014 24.9303 37.6243 24.5574 37.6243 24.5574H82V23.7049H37.677C36.7811 23.332 35.5162 23.2787 35.5162 23.2787ZM69.5622 48.4795C69.6676 48.373 69.773 48.2131 69.8784 48C69.9838 47.7869 70.0365 47.627 70.0892 47.5205C70.0892 47.4672 70.0892 47.4672 70.0892 47.4139C70.0892 47.4139 69.8257 47.7336 69.2459 48.2664C69.0878 48.4262 68.877 48.5861 68.7716 48.7459C68.6135 48.9057 68.5081 49.0123 68.4027 49.1189C68.0865 49.4385 67.7703 49.7049 67.4013 49.9713C67.1378 50.1844 66.927 50.3443 66.6635 50.5574C66.4 50.7705 66.1892 50.9303 65.9257 51.1434C65.3986 51.5697 65.0824 51.8893 64.8716 52.0492C64.7662 52.1557 64.6608 52.3156 64.6081 52.4221C64.5554 52.5287 64.45 52.6885 64.3973 52.8484C64.3973 52.8484 64.45 52.8484 64.5554 52.7418C64.6081 52.6885 64.6608 52.6885 64.7135 52.6353C64.7662 52.582 64.8189 52.5287 64.8716 52.5287L65.6622 51.9426C65.8203 51.8361 65.9784 51.7295 66.0838 51.623C66.2419 51.5164 66.4 51.4098 66.5581 51.25C66.8216 51.0369 67.0851 50.8238 67.2959 50.6107C67.5068 50.4508 67.6649 50.291 67.823 50.1844C67.9811 50.0779 68.0865 49.918 68.1919 49.8648C68.4554 49.5984 68.6662 49.4385 68.7716 49.332C68.8243 49.2787 68.9297 49.1721 69.0878 48.959C69.2986 48.7992 69.4568 48.6393 69.5622 48.4795ZM68.35 50.6639C68.1919 50.9303 68.1392 51.0902 68.1392 51.1434C68.1392 51.1967 68.1919 51.1967 68.2446 51.25C68.2973 51.3033 68.4027 51.3566 68.5081 51.4631C68.6135 51.5697 68.7189 51.623 68.7189 51.623C68.7716 51.623 68.877 51.5164 68.9824 51.3033C69.0878 51.0902 69.1405 50.9303 69.1405 50.8238C69.1405 50.7172 69.0878 50.5574 68.9297 50.3975C68.8243 50.291 68.7189 50.1844 68.6135 50.1844C68.5608 50.2377 68.5081 50.3443 68.35 50.6639ZM55.8595 51.4098C55.9122 51.4631 55.9649 51.4631 55.9649 51.4631C56.0703 51.4631 56.2284 51.25 56.4392 50.877C56.5446 50.9303 56.5973 51.0369 56.7027 51.1434C56.8081 51.25 56.8608 51.3033 56.9135 51.3033C56.9662 51.3033 57.0716 51.1967 57.177 51.0369C57.3351 50.8238 57.3878 50.6639 57.3878 50.5574C57.3878 50.4508 57.3351 50.291 57.177 50.1844C57.0716 50.0246 56.9662 49.9713 56.8608 49.9713C56.8081 49.9713 56.7554 50.0779 56.7027 50.1844C56.5973 50.3443 56.5446 50.4508 56.4392 50.6107C56.3865 50.5041 56.2811 50.3975 56.1757 50.291C56.0703 50.1844 55.9649 50.1311 55.9122 50.1311C55.8595 50.1311 55.8068 50.291 55.6487 50.5574C55.4905 50.8238 55.4378 50.9836 55.4378 51.0369C55.4378 51.0369 55.4905 51.0902 55.5959 51.1967C55.7541 51.3033 55.8068 51.3566 55.8595 51.4098ZM60.7081 53.541C60.6554 53.6475 60.6027 53.7008 60.55 53.8074C60.4973 53.9139 60.4446 54.0205 60.3919 54.127C60.3392 54.2336 60.2865 54.3402 60.2865 54.5C60.2338 54.6066 60.2338 54.7664 60.2338 54.873C60.2338 55.0861 60.1811 55.3525 60.2338 55.7254C60.2338 56.0984 60.2338 56.3648 60.2338 56.5779C60.2338 56.791 60.1811 57.0041 60.1284 57.2172C60.0757 57.4303 60.0757 57.5369 60.0757 57.5369C60.0757 57.5902 60.0757 57.5902 60.0757 57.5902C60.0757 57.5902 60.1284 57.5902 60.1811 57.5369C60.2338 57.4836 60.2338 57.4303 60.2865 57.3771C60.3392 57.2705 60.3919 57.1107 60.4973 56.8975C60.6027 56.6312 60.6554 56.3648 60.6554 56.0451C60.6554 55.8853 60.6554 55.7254 60.7081 55.5123C60.7081 55.2992 60.7081 55.0861 60.7081 54.8197C60.7081 54.7664 60.7081 54.7131 60.7081 54.6598C60.7081 54.6066 60.7081 54.5 60.7081 54.3934C60.7081 54.2869 60.7081 54.2336 60.7081 54.127C60.7081 54.0205 60.7081 53.9672 60.7081 53.8607C60.7081 53.7541 60.7081 53.7008 60.7081 53.6475C60.7081 53.5943 60.7081 53.541 60.7081 53.541C60.7081 53.4877 60.7081 53.4877 60.6554 53.4877C60.7608 53.4877 60.7081 53.4877 60.7081 53.541ZM59.4432 49.8648C59.3378 49.9713 59.2851 50.0779 59.1797 50.2377C59.0743 50.3975 59.0216 50.5574 58.9689 50.6639C58.9689 50.7172 59.0216 50.6639 59.127 50.5574C59.1797 50.5041 59.2851 50.3975 59.4432 50.291C61.077 49.0656 62.6581 47.7336 64.0811 46.2951C64.1865 46.1885 64.2919 45.9754 64.45 45.709C64.6081 45.4426 64.6608 45.2828 64.5554 45.3361C63.2378 46.6148 61.4986 48.1066 59.4432 49.8648ZM51.9595 50.7172C51.9068 50.7172 51.8541 50.877 51.6959 51.1434C51.5905 51.4098 51.4851 51.5697 51.4851 51.6762C51.4851 51.7295 51.4851 51.7828 51.5378 51.7828C51.5905 51.8361 51.6959 51.8893 51.8014 51.9959C51.9068 52.1025 52.0122 52.1025 52.0122 52.1025C52.0649 52.1025 52.1703 51.9959 52.2757 51.7828C52.3811 51.5697 52.4338 51.4098 52.4338 51.3033C52.4338 51.1967 52.3284 51.0902 52.223 50.9303C52.1703 50.7172 52.0649 50.6639 51.9595 50.7172ZM52.4865 57.5902C52.5919 57.5369 52.6973 57.4836 52.75 57.4836C52.8027 57.4303 52.9081 57.3238 53.0135 57.1639C53.1189 57.0041 53.2243 56.7377 53.3824 56.3648C53.4351 56.3115 53.4351 56.2049 53.4878 56.0984C53.4878 55.9918 53.5405 55.9385 53.5405 55.8853C53.5405 55.832 53.5405 55.7254 53.5932 55.6721C53.5932 55.5656 53.5932 55.5123 53.5932 55.4057C53.5932 55.2459 53.5405 55.0861 53.4351 54.9262C53.3297 54.8197 53.2243 54.7131 53.0662 54.7131C52.9608 54.7131 52.9081 54.7664 52.8027 54.873C52.6973 54.9795 52.6446 55.1393 52.5392 55.2992C52.4338 55.459 52.3811 55.6189 52.3811 55.6721C52.3284 55.7787 52.3284 55.832 52.3284 55.8853C52.3284 55.9918 52.3284 56.0984 52.4338 56.1516C52.5392 56.2582 52.6446 56.2582 52.75 56.2582H52.8027C52.8554 56.2582 52.8554 56.2582 52.8554 56.2049H52.9608C52.9081 56.3648 52.8554 56.5246 52.75 56.6844C52.6446 56.8443 52.5392 56.8975 52.4338 57.0041C52.3284 57.0574 52.1176 57.2172 51.8014 57.4303C51.5905 57.75 51.4324 57.8566 51.4324 57.9098C51.4324 57.9098 51.4324 57.9098 51.4851 57.9098C51.5378 57.9098 51.6959 57.8566 51.9595 57.8033C52.223 57.6967 52.3811 57.6434 52.4865 57.5902ZM60.0757 50.5574C60.0757 50.5041 60.0757 50.5041 60.0757 50.5041C60.0757 50.5041 60.023 50.5574 59.9703 50.5574C59.8649 50.6639 59.8122 50.8238 59.7068 51.0369C59.6013 51.25 59.5486 51.4098 59.5486 51.4631C59.4959 51.5697 59.4959 51.6762 59.4959 51.8361C59.4959 51.9959 59.4432 52.1557 59.4432 52.209V53.1148C59.4432 53.2746 59.3905 53.4344 59.2851 53.4877C59.1797 53.5943 59.0743 53.6475 58.9162 53.6475C58.7581 53.6475 58.6527 53.5943 58.6 53.4877C58.5473 53.3811 58.4946 53.168 58.4946 52.7951C58.4946 52.6885 58.4946 52.582 58.5473 52.4754C58.5473 52.3689 58.6 52.209 58.6527 51.8893L58.8635 50.8238C58.8635 50.7705 58.8635 50.7172 58.8635 50.7172C58.8635 50.7172 58.8108 50.6639 58.8108 50.7172C58.7581 50.8238 58.6527 51.0369 58.4946 51.3566C58.4946 51.4098 58.4419 51.4631 58.3892 51.5697C58.3365 51.6762 58.2838 51.7828 58.2311 51.9426C58.1784 51.9959 58.1784 52.1025 58.1784 52.2623C58.1784 52.4221 58.1257 52.582 58.1257 52.7418C58.1257 52.8484 58.073 53.0082 58.073 53.2746C58.073 53.4344 58.073 53.5943 58.073 53.8074V54.2869C58.073 54.3934 58.0203 54.5 57.9676 54.5533C57.9149 54.6066 57.8622 54.6598 57.8622 54.6598C57.8095 54.7131 57.6513 54.7131 57.4405 54.7131C57.177 54.7131 56.9662 54.7131 56.7027 54.7664C56.65 54.7664 56.65 54.7664 56.5973 54.7664C56.5446 54.7664 56.4919 54.7664 56.4919 54.8197C56.2811 54.9262 56.0176 55.0328 55.7541 55.2459C55.4905 55.459 55.227 55.6721 54.9635 56.0451C54.8581 56.1516 54.6473 56.4713 54.3311 56.9508C54.2257 57.1107 54.173 57.2172 54.0676 57.3771C53.8568 57.6967 53.6459 58.0164 53.4351 58.2295C53.2243 58.4959 52.9608 58.709 52.75 58.8689C52.5392 59.0287 52.3284 59.1885 52.1703 59.2951C52.0122 59.4016 51.9068 59.5082 51.8541 59.5615C51.8013 59.6147 51.8013 59.668 51.8013 59.668C51.8541 59.7213 51.9068 59.7213 51.9595 59.668C52.0122 59.668 52.0122 59.668 52.0649 59.6148H52.1176C52.2757 59.5615 52.4338 59.4549 52.5919 59.4016C52.75 59.2951 52.9081 59.1885 53.0662 59.082C53.2243 58.9754 53.4351 58.7623 53.6987 58.4959C53.9622 58.2295 54.2257 57.9098 54.4892 57.5902C54.7527 57.2172 54.9635 56.9508 55.1216 56.6844C55.2797 56.4713 55.5432 56.2582 55.8068 56.0984C56.0176 55.9918 56.123 55.9385 56.2284 55.9385C56.3338 55.8852 56.4392 55.8852 56.5446 55.8852C56.65 55.8852 56.7027 55.8852 56.7554 55.8852C56.8081 55.8852 56.8608 55.8852 56.9135 55.8852C56.9662 55.8852 57.0189 55.8852 57.1243 55.8852C57.177 55.8852 57.2297 55.8852 57.2824 55.832C57.3878 55.7787 57.4405 55.7254 57.5986 55.5656C57.7041 55.459 57.8095 55.2992 57.9149 55.1926C57.9676 55.1393 58.073 55.0328 58.1784 54.873C58.2838 54.7664 58.3365 54.7131 58.3892 54.7131C58.4946 54.873 58.6 54.9262 58.7581 54.9262C58.9162 54.9262 59.0743 54.8197 59.2324 54.6066C59.3905 54.3934 59.4959 54.1803 59.6541 53.8607C59.7595 53.5943 59.8122 53.3279 59.8649 53.168C59.9703 52.7418 60.023 52.3156 60.023 51.8893C60.023 51.4631 60.023 51.0902 60.1284 50.7705C60.0757 50.6639 60.0757 50.5574 60.0757 50.5574ZM67.7703 53.9139C67.7703 53.9139 67.7176 53.9672 67.6649 54.0738C67.6122 54.1803 67.5595 54.2869 67.5595 54.3402C67.5068 54.3934 67.4541 54.3934 67.4013 54.3934C67.3486 54.3934 67.2959 54.3402 67.2959 54.3934C67.1905 54.7131 67.0851 54.8197 66.9797 54.8197C66.9797 54.8197 66.927 54.8197 66.8743 54.7664C66.8216 54.7664 66.7689 54.8197 66.7162 54.9795C66.6108 55.1393 66.5581 55.1926 66.4 55.1926L66.1892 55.1393C66.1365 55.1393 66.0311 55.1926 65.9257 55.2459C65.8203 55.2992 65.7149 55.4057 65.6095 55.6189C65.4514 55.832 65.2405 55.9385 64.977 55.9385C64.8189 55.9385 64.6608 55.8852 64.5027 55.7787C64.3446 55.6189 64.2392 55.3525 64.2392 54.9795C64.2392 54.9262 64.2392 54.873 64.2392 54.7664C64.2392 54.6066 64.2392 54.4467 64.2919 54.1803C64.3446 53.7008 64.3446 53.3811 64.3973 53.168C64.3973 53.1148 64.3973 53.0615 64.3973 53.0615C64.3446 53.0615 64.3446 53.0615 64.3446 53.1148L63.923 54.1803C63.8703 54.2336 63.8703 54.3934 63.8703 54.5533C63.8703 54.7664 63.8703 54.9262 63.8176 55.0328C63.8176 55.1393 63.8176 55.2459 63.8176 55.4057C63.8176 55.9385 63.7649 56.2582 63.7649 56.3648C63.7649 56.4713 63.7122 56.5779 63.7122 56.6311C63.6595 56.791 63.6068 56.8975 63.5013 57.0041C63.3959 57.1107 63.2905 57.1107 63.1324 57.1107C62.9743 57.1107 62.9216 57.0574 62.8689 57.0574C62.7635 57.0574 62.7108 57.0041 62.6581 57.0041C62.5527 57.0041 62.3946 57.0574 62.2365 57.1107C62.0257 57.2172 61.8149 57.377 61.6568 57.5902C61.4986 57.8033 61.3932 57.9631 61.3405 58.0697C61.2878 58.1762 61.2878 58.2295 61.3405 58.2295C61.3405 58.2295 61.3932 58.2295 61.4459 58.2295C61.7095 58.0697 61.973 58.0164 62.2892 58.0164C62.3419 58.0164 62.4473 58.0697 62.6054 58.0697C62.7108 58.0697 62.8689 58.0697 63.027 58.0164C63.1851 57.9631 63.3432 57.8566 63.5013 57.6967C63.6068 57.5369 63.7122 57.3771 63.8176 57.2172C63.9757 56.9508 64.0284 56.791 64.0811 56.791C64.0811 56.791 64.0811 56.791 64.1338 56.791C64.2919 57.0041 64.45 57.1107 64.7135 57.1107C64.977 57.1107 65.2405 56.9508 65.4514 56.5779C65.6622 56.2049 65.8203 56.0451 66.0311 55.9385C66.0838 55.9385 66.1892 55.9385 66.2946 55.9385C66.4 55.9385 66.5581 55.7787 66.8216 55.5123C66.8743 55.459 66.9797 55.459 67.0324 55.4057C67.0851 55.4057 67.1905 55.3525 67.2432 55.2459C67.2959 55.1926 67.4014 55.0861 67.5068 55.0328C67.6122 54.9795 67.6649 54.8197 67.7176 54.7131C67.7703 54.5533 67.823 54.3934 67.8757 54.2336C67.823 54.0205 67.823 53.9672 67.7703 53.9139C67.823 53.9139 67.823 53.9139 67.7703 53.9139ZM64.7135 59.5082C64.6608 59.5082 64.6081 59.668 64.45 59.9344C64.3446 60.2008 64.2392 60.3607 64.2392 60.4139C64.2392 60.4672 64.2392 60.5205 64.2919 60.5205C64.3446 60.5738 64.45 60.6271 64.5554 60.7336C64.6608 60.8402 64.7662 60.8402 64.7662 60.8402C64.8189 60.8402 64.9243 60.7336 65.0297 60.5205C65.1351 60.3074 65.1878 60.1475 65.1878 60.041C65.1878 59.9344 65.0824 59.8279 64.977 59.668C64.9243 59.5615 64.8189 59.5082 64.7135 59.5082ZM70.6162 55.0861C70.6689 55.1393 70.7216 55.1393 70.7216 55.1393C70.827 55.1393 70.9851 54.9262 71.1959 54.5533C71.3013 54.6066 71.354 54.7131 71.4595 54.8197C71.5649 54.9262 71.6176 54.9795 71.6703 54.9795C71.723 54.9795 71.8284 54.873 71.9338 54.7131C72.0919 54.5 72.1446 54.3402 72.1446 54.2336C72.1446 54.127 72.0919 53.9672 71.9338 53.8607C71.8284 53.7541 71.723 53.6475 71.6176 53.6475C71.5649 53.6475 71.5122 53.7008 71.4595 53.8607C71.354 54.0205 71.3013 54.1271 71.1959 54.2869C71.1432 54.1803 71.0378 54.0738 70.9324 53.9672C70.827 53.8607 70.7216 53.8074 70.6689 53.8074C70.6162 53.8074 70.5635 53.9672 70.4054 54.2336C70.2473 54.5 70.1946 54.6598 70.1946 54.7131C70.1946 54.7131 70.2473 54.7664 70.3527 54.873C70.5108 54.9795 70.5635 55.0328 70.6162 55.0861ZM80.7878 50.0779C80.7878 50.0779 80.6824 50.1844 80.577 50.3443C80.4716 50.4508 80.4189 50.6107 80.3135 50.7172C80.2608 50.6107 80.1554 50.5041 80.05 50.3975C79.8919 50.291 79.8392 50.2377 79.7338 50.2377C79.6811 50.2377 79.5757 50.3975 79.4176 50.6639C79.2595 50.9836 79.1541 51.1434 79.1541 51.1967C79.1541 51.1967 79.2595 51.3033 79.4176 51.4631C79.5757 51.623 79.6811 51.6762 79.7338 51.6762C79.8392 51.6762 80.05 51.4631 80.2608 51.0369C80.3662 51.0902 80.4716 51.1967 80.577 51.3033C80.6824 51.4098 80.7351 51.4631 80.7878 51.4631C80.8405 51.4631 80.9459 51.3566 81.104 51.1434C81.2622 50.9303 81.3149 50.7705 81.3149 50.6107C81.3149 50.5041 81.2622 50.3443 81.104 50.2377C80.9986 50.1311 80.8405 50.0779 80.7878 50.0779ZM80.8405 53.3279C80.7878 53.3279 80.7878 53.3811 80.7351 53.4344C80.6824 53.4877 80.6297 53.5943 80.577 53.6475C80.4716 53.6475 80.3662 53.6475 80.2608 53.7008C80.1554 53.7541 79.9973 53.8074 79.8919 53.9672C79.7865 54.1271 79.6811 54.2336 79.6284 54.2869C79.523 54.3934 79.4703 54.5 79.4703 54.5533C79.3649 54.6598 79.3122 54.7131 79.2068 54.7131C79.2068 54.7131 79.1541 54.7131 78.9959 54.7131C78.8378 54.7131 78.6797 54.7131 78.5743 54.7664C78.5216 54.7664 78.5216 54.7664 78.4689 54.7664C78.4162 54.7664 78.3635 54.7664 78.3635 54.8197C78.1527 54.9262 77.8892 55.0328 77.6257 55.2459C77.3622 55.459 77.0986 55.6721 76.8351 56.0451C76.7297 56.1516 76.5189 56.4713 76.2027 56.9508C76.0973 57.1107 76.0446 57.2172 75.9392 57.3771C75.7284 57.6967 75.5176 58.0164 75.3068 58.2295C75.0959 58.4959 74.8324 58.709 74.6216 58.8689C74.4108 59.0287 74.2 59.1885 74.0419 59.2951C73.8838 59.4016 73.7784 59.5082 73.7257 59.5615C73.673 59.6148 73.673 59.668 73.673 59.668C73.7257 59.7213 73.7784 59.7213 73.8311 59.668C73.8838 59.668 73.8838 59.668 73.9365 59.6148H73.9892C74.1473 59.5615 74.3054 59.4549 74.4635 59.4016C74.6216 59.2951 74.7797 59.1885 74.9378 59.082C75.0959 58.9754 75.3068 58.7623 75.5703 58.4959C75.8338 58.2295 76.0973 57.9098 76.3608 57.5902C76.6243 57.2172 76.8351 56.9508 76.9932 56.6844C77.1514 56.4713 77.4149 56.2582 77.6784 56.0984C77.8892 55.9918 77.9946 55.9385 78.1 55.9385C78.2054 55.8852 78.3108 55.8853 78.4162 55.8853C78.5216 55.8853 78.5743 55.8853 78.627 55.8853C78.8378 55.8853 78.9959 55.832 79.1013 55.7254C79.2068 55.6189 79.4176 55.2992 79.7338 54.7664C79.8392 54.6066 79.8919 54.5533 79.9973 54.5C80.05 54.4467 80.1554 54.3934 80.2081 54.3934C80.2608 54.3934 80.3662 54.3402 80.4189 54.3402C80.5243 54.3402 80.6824 54.1271 80.8405 53.7541C80.8932 53.5943 80.8932 53.541 80.8932 53.4877C80.8932 53.3279 80.8932 53.2746 80.8405 53.3279ZM80.1027 50.1844C80.2081 50.291 80.3135 50.3443 80.3135 50.3443C80.3662 50.3443 80.4716 50.2377 80.577 50.0246C80.6824 49.8115 80.7878 49.6516 80.7878 49.4918C80.7878 49.332 80.7351 49.2254 80.577 49.0656C80.4189 48.959 80.3135 48.8525 80.2081 48.8525C80.1554 48.8525 80.05 49.0123 79.9446 49.2787C79.7865 49.5451 79.7338 49.7582 79.7338 49.7582C79.7338 49.8115 79.7865 49.8648 79.8392 49.8648C79.8919 50.0246 79.9973 50.0779 80.1027 50.1844ZM74.0946 56.8443C74.1473 56.791 74.2 56.7377 74.2527 56.6311C74.3054 56.5779 74.3581 56.5246 74.4108 56.418C74.5162 56.3115 74.5689 56.2049 74.6743 56.0984C74.7797 55.9918 74.8324 55.9918 74.9378 55.9385C75.0432 55.9385 75.1486 55.8853 75.2541 55.8853C75.2541 55.8853 75.3068 55.8853 75.3595 55.8853C75.4649 55.8853 75.5176 55.832 75.623 55.7254C75.7284 55.6189 75.8338 55.459 75.8865 55.2992C75.9919 55.1393 76.0446 54.9795 76.0973 54.8197C76.15 54.6598 76.2027 54.4467 76.2027 54.2336C76.2027 54.0205 76.2554 53.4344 76.3081 52.4754C76.3081 52.3156 76.3081 52.1025 76.3608 51.9426C76.3608 51.7828 76.3608 51.623 76.3608 51.4631C76.3608 51.3566 76.3608 51.3566 76.3608 51.3033C76.3608 51.25 76.3081 51.25 76.3081 51.3033L76.0973 51.8893L75.8338 52.6885V54.2336C75.8338 54.3402 75.8338 54.5 75.7811 54.6598C75.7811 54.8197 75.7284 54.9262 75.7284 55.0328C75.6757 55.1926 75.623 55.2459 75.5176 55.1926C75.4122 55.1393 75.3595 55.1393 75.2541 55.1393C75.0959 55.1926 74.9378 55.2459 74.8324 55.3525C74.7797 55.4057 74.727 55.5123 74.6216 55.6189C74.5162 55.7254 74.4635 55.7787 74.4635 55.832C74.3581 55.9385 74.2527 56.0451 74.0419 56.0984C73.8838 56.2049 73.673 56.2582 73.4095 56.3648C72.9878 56.4713 72.6716 56.5779 72.4081 56.6311C72.1446 56.6844 71.7757 56.6844 71.354 56.7377C70.9324 56.7377 70.5108 56.7377 70.1946 56.7377C69.773 56.7377 69.4567 56.6844 69.2459 56.6311C69.0351 56.5779 68.877 56.5246 68.7716 56.418C68.6662 56.3115 68.6135 56.2049 68.6135 56.0451C68.6135 55.8853 68.5608 55.7787 68.5081 55.7787C68.4554 55.7787 68.4027 55.9385 68.4027 56.2049C68.35 56.4713 68.35 56.6844 68.35 56.9508C68.35 57.3238 68.4554 57.5902 68.7189 57.75C68.877 57.8566 69.0878 57.9098 69.4041 57.9098C69.6676 57.9631 69.9311 57.9631 70.2473 57.9631C71.0378 57.9631 71.7757 57.9098 72.4081 57.75C73.0405 57.5902 73.5676 57.3771 73.8838 57.1639C73.8838 57.0574 73.9892 56.9508 74.0946 56.8443ZM68.6662 52.3156C68.7716 52.3689 68.8243 52.4754 68.9824 52.582C69.0878 52.6885 69.1405 52.7418 69.1932 52.7418C69.2459 52.7418 69.3513 52.6352 69.4568 52.4754C69.5622 52.2623 69.6676 52.1025 69.6676 51.9426C69.6676 51.8361 69.6149 51.6762 69.4568 51.5697C69.2986 51.4631 69.1932 51.3566 69.1405 51.3566C69.1405 51.3566 69.0351 51.4631 68.9297 51.623C68.877 51.7295 68.7716 51.8893 68.7189 51.9959C68.6662 51.8893 68.6135 51.7828 68.4554 51.6762C68.35 51.5697 68.2446 51.5164 68.1919 51.5164C68.1392 51.5164 68.0338 51.6762 67.9284 51.9426C67.7703 52.209 67.7176 52.4221 67.7176 52.4221C67.7176 52.4221 67.823 52.5287 67.9811 52.6885C68.1392 52.8484 68.2446 52.9016 68.2973 52.9016C68.2973 52.9549 68.4554 52.7418 68.6662 52.3156Z" fill="#1D93D1"/>
</svg>
