<svg width="88" height="79" viewBox="0 0 88 79" fill="none" xmlns="http://www.w3.org/2000/svg">
<path fill-rule="evenodd" clip-rule="evenodd" d="M27.277 57.7582C27.3662 57.623 27.4554 57.4426 27.5446 57.2623C27.5892 57.082 27.6338 56.9467 27.6784 56.8566C27.6784 56.7664 27.6784 56.7664 27.6338 56.7664C27.6338 56.7664 27.5892 56.8115 27.5 56.9467C27.4554 57.0369 27.3662 57.1271 27.2324 57.2172C27.1432 57.3074 26.9649 57.3975 26.6973 57.4877C26.4743 57.5779 26.1622 57.668 25.8946 57.7582C25.5824 57.8484 25.2703 57.8934 24.9581 57.8934C24.6459 57.9385 24.3338 57.9385 24.0662 57.9385C23.3081 57.9385 22.773 57.8484 22.4162 57.668C22.2378 57.5779 22.1486 57.4877 22.1486 57.3525C22.1486 57.2172 22.1486 57.1271 22.1041 57.082C22.1041 57.0369 22.0595 56.9918 22.0595 56.9918C22.0149 56.9918 22.0149 57.0369 21.9703 57.0369C21.9703 57.082 21.9257 57.1721 21.9257 57.3074C21.8811 57.4426 21.8811 57.5779 21.8365 57.7582C21.8365 57.8934 21.7919 58.0287 21.7919 58.0738C21.7919 58.2541 21.8365 58.4344 21.9703 58.5246C22.1041 58.6598 22.327 58.75 22.6838 58.8402C22.9068 58.8853 23.1743 58.8853 23.5311 58.8853C23.8432 58.8853 24.2 58.8853 24.5568 58.8402C24.9135 58.7951 25.2703 58.75 25.627 58.6148C25.85 58.5697 26.073 58.4795 26.2514 58.3893C26.4743 58.2992 26.6973 58.1639 26.8757 58.0738C27.0986 57.9836 27.1878 57.8934 27.277 57.7582ZM29.0608 56.3607C29.0162 56.3607 28.9716 56.4057 28.9716 56.4508C28.927 56.541 28.8824 56.6762 28.7932 56.8566C28.7041 57.0369 28.6149 57.2623 28.5257 57.4426C28.4365 57.623 28.3473 57.7582 28.2581 57.8934C28.1689 57.9836 28.0351 58.1189 27.8568 58.2541C27.6784 58.3893 27.5 58.4795 27.3662 58.5697C27.2324 58.6598 27.1432 58.7049 27.0986 58.7951C27.0541 58.8402 27.0541 58.8402 27.0541 58.8852L27.0986 58.9303C27.1432 58.9303 27.1878 58.9303 27.3216 58.8852C27.4554 58.8402 27.5892 58.8402 27.8122 58.75C27.9905 58.7049 28.1689 58.6148 28.2581 58.5697C28.3473 58.4795 28.4365 58.3893 28.4811 58.2541C28.5703 58.1189 28.6595 57.9385 28.7486 57.668C28.8378 57.3975 28.927 57.1721 28.9716 56.9467C29.0162 56.7213 29.0608 56.5861 29.0608 56.4959C29.15 56.4057 29.1054 56.4057 29.0608 56.3607ZM31.0676 56.4057C30.9784 56.3607 30.8446 56.3156 30.6662 56.3156C30.6216 56.3156 30.577 56.3156 30.5324 56.3156C32.4946 54.4672 33.5203 53.4303 33.5649 53.2951C33.7878 52.7992 33.8324 52.6189 33.6986 52.6639C33.5649 52.8893 32.9405 53.5205 31.8257 54.6025C30.7554 55.6393 30.1757 56.2254 29.9973 56.4057C29.9973 56.2254 30.0419 56 30.0865 55.7295C30.1757 55.1885 30.1757 54.8279 30.2203 54.6475C30.2203 54.6025 30.2203 54.6025 30.1757 54.6025C30.1757 54.6025 30.1311 54.6025 30.1311 54.6475C29.9973 55.0533 29.8635 55.3238 29.8189 55.459C29.7297 56 29.6405 56.4508 29.5959 56.9016C29.5514 57.3525 29.5068 57.668 29.5068 57.9385C29.5068 58.2541 29.5513 58.5246 29.6851 58.7049C29.7743 58.8853 29.9527 58.9754 30.1311 58.9754C30.2649 58.9754 30.3986 58.9303 30.4878 58.8402C30.6216 58.75 30.7108 58.6598 30.8 58.5246C30.9338 58.3443 31.023 58.0738 31.1568 57.8033C31.2459 57.5328 31.2905 57.2623 31.2905 56.9918C31.3351 56.6762 31.2459 56.4959 31.0676 56.4057ZM30.8 57.8484C30.7108 57.9385 30.5324 57.9385 30.3986 57.9385C30.2649 57.9385 30.1757 57.8934 30.0865 57.8484C29.9973 57.7582 29.9527 57.668 29.9527 57.5779C29.9527 57.4877 29.9973 57.3975 30.1311 57.3074C30.2649 57.2172 30.3541 57.2172 30.4878 57.2172C30.6216 57.2172 30.7108 57.2172 30.8446 57.3074C30.9784 57.3975 31.023 57.4877 31.023 57.5779C30.9784 57.668 30.9338 57.7582 30.8 57.8484ZM24.0662 56.5861C24.1108 56.6311 24.1554 56.6311 24.1554 56.6311C24.2446 56.6311 24.3784 56.4508 24.5568 56.1353C24.6459 56.1803 24.6905 56.2705 24.7797 56.3607C24.8689 56.4508 24.9135 56.4959 24.9581 56.4959C25.0027 56.4959 25.0919 56.4057 25.1811 56.2705C25.3149 56.0902 25.3595 55.9549 25.3595 55.8648C25.3595 55.7746 25.3149 55.6393 25.1811 55.5492C25.0919 55.4139 25.0027 55.3689 24.9135 55.3689C24.8689 55.3689 24.8243 55.459 24.7797 55.5492C24.6905 55.6844 24.6459 55.7746 24.5568 55.9098C24.5122 55.8197 24.423 55.7295 24.3338 55.6393C24.2446 55.5492 24.1554 55.5041 24.1108 55.5041C24.0662 55.5041 24.0216 55.6393 23.8878 55.8648C23.7541 56.0902 23.7095 56.2254 23.7095 56.2705C23.7095 56.2705 23.7541 56.3156 23.8432 56.4057C23.9324 56.4508 24.0216 56.541 24.0662 56.5861ZM33.877 56.0902C33.9662 56.1803 34.0554 56.2254 34.1 56.2705C34.1446 56.3156 34.1892 56.3156 34.1892 56.3156C34.2784 56.3156 34.4122 56.1353 34.5905 55.8197C34.6797 55.8648 34.7243 55.9549 34.8135 56.0451C34.9027 56.1353 34.9473 56.1803 34.9919 56.1803C35.0365 56.1803 35.1257 56.0902 35.2149 55.9549C35.3486 55.7746 35.3932 55.6393 35.3932 55.5492C35.3932 55.459 35.3486 55.3238 35.2149 55.2336C35.1257 55.1434 35.0365 55.0533 34.9473 55.0533C34.9027 55.0533 34.8581 55.0984 34.8135 55.2336C34.7243 55.3689 34.6797 55.459 34.5905 55.5943C34.5459 55.5041 34.4568 55.4139 34.3676 55.3238C34.2784 55.2336 34.1892 55.1885 34.1446 55.1885C34.1 55.1885 34.0554 55.3238 33.9216 55.5492C33.7878 55.7746 33.7432 55.9098 33.7432 55.9549C33.7432 55.9549 33.7878 56 33.877 56.0902ZM41.4581 54.6025C41.4135 54.6926 41.3689 54.7377 41.3243 54.8279C41.2797 54.918 41.2351 55.0082 41.1905 55.0984C41.1459 55.1885 41.1014 55.2787 41.1014 55.4139C41.0568 55.5041 41.0568 55.5943 41.0568 55.7295C41.0568 55.9098 41.0122 56.1353 41.0568 56.4508C41.0568 56.7664 41.0568 56.9918 41.0568 57.1721C41.0568 57.3525 41.0122 57.5328 40.9676 57.7131C40.923 57.8934 40.923 57.9836 40.923 57.9836C40.923 58.0287 40.923 58.0287 40.923 58.0287C40.923 58.0287 40.9676 58.0287 41.0122 57.9836C41.0568 57.9385 41.0568 57.8934 41.1014 57.8484C41.1459 57.7582 41.1905 57.623 41.2797 57.4426C41.3689 57.2172 41.4135 56.9918 41.4135 56.7213C41.4135 56.5861 41.4581 56.4508 41.4581 56.2705C41.4581 56.0902 41.4581 55.9098 41.4581 55.6844C41.4581 55.6393 41.4581 55.5943 41.4581 55.5492C41.4581 55.5041 41.4581 55.4139 41.4581 55.3238C41.4581 55.2336 41.4581 55.1885 41.4581 55.0984C41.4581 55.0082 41.4581 54.9631 41.4581 54.873C41.4581 54.7828 41.4581 54.7377 41.4581 54.6926C41.4581 54.6475 41.4581 54.6025 41.4581 54.6025C41.4581 54.5574 41.4581 54.5574 41.4135 54.5574C41.5027 54.5123 41.4581 54.5574 41.4581 54.6025ZM44.7135 60.373C44.6689 60.373 44.6243 60.4631 44.4905 60.6885C44.3568 60.9139 44.3122 61.0492 44.3122 61.0492C44.3122 61.0943 44.3122 61.0943 44.3568 61.1393C44.4014 61.1844 44.4459 61.2295 44.4905 61.2746C44.5351 61.3197 44.5797 61.3648 44.6243 61.4098C44.6689 61.4549 44.6689 61.4549 44.7135 61.5C44.7581 61.5 44.8027 61.4098 44.9365 61.2746C45.0257 61.0943 45.0703 61.0041 45.0703 60.8689C45.0703 60.7787 45.0257 60.6885 44.9365 60.5533C44.8473 60.4631 44.8027 60.373 44.7135 60.373ZM45.9176 56C45.873 56.1353 45.7838 56.2254 45.7392 56.2254C45.6946 56.2705 45.6054 56.3156 45.5162 56.3607C45.3824 56.4057 45.2932 56.4959 45.2486 56.4959C45.1149 56.5861 45.0257 56.6762 44.9365 56.7664C44.8919 56.8566 44.7581 57.0369 44.6689 57.3074C44.5351 57.5779 44.4905 57.7582 44.4459 57.7582C44.3568 57.8484 44.2676 57.9836 44.0892 58.1189C44.0892 58.1189 44.0446 58.1639 43.8662 58.2541C43.6432 58.3893 43.5095 58.4795 43.4203 58.5246C43.3311 58.5697 43.2865 58.6148 43.2865 58.6598C43.1973 58.7049 43.1973 58.75 43.1973 58.7951C43.1973 58.8402 43.2865 58.8402 43.3311 58.8402C43.4203 58.8402 43.5541 58.8402 43.7324 58.7951C43.8662 58.75 44 58.75 44.0892 58.7049C44.2676 58.6148 44.4459 58.4795 44.5351 58.2541C44.5797 58.1189 44.6689 57.8934 44.7581 57.668C44.8027 57.5328 44.8919 57.3975 44.9365 57.3525C44.9365 57.3074 44.9811 57.3074 45.0703 57.2623C45.1149 57.2172 45.2932 57.1271 45.5608 56.9918C45.7392 56.9016 45.9176 56.5861 46.0959 56C46.1405 55.9098 46.0959 55.8197 46.0959 55.8197C46.0068 55.8197 45.9622 55.8648 45.9176 56ZM45.0703 59.2459C45.0257 59.2459 44.9811 59.3361 44.8919 59.4713C44.8473 59.5615 44.7581 59.6967 44.7135 59.7869C44.6689 59.6967 44.6243 59.6066 44.4905 59.5164C44.4014 59.4262 44.3122 59.3811 44.2676 59.3811C44.223 59.3811 44.1784 59.5164 44.0446 59.7418C43.9108 59.9672 43.8662 60.1475 43.8662 60.1475C43.8662 60.1475 43.9554 60.2377 44.0892 60.373C44.223 60.5082 44.3122 60.5533 44.3122 60.5533C44.4013 60.5533 44.5351 60.373 44.6689 60.0123C44.7135 60.0574 44.8027 60.1475 44.9365 60.2377C45.0257 60.3279 45.0703 60.373 45.1149 60.373C45.1595 60.373 45.2486 60.2828 45.3378 60.1475C45.427 59.9672 45.5162 59.832 45.5162 59.6967C45.5162 59.6066 45.4716 59.4713 45.3378 59.3811C45.2041 59.291 45.1149 59.2459 45.0703 59.2459ZM50.2432 59.0656C50.1987 59.0656 50.1541 59.1107 50.1095 59.2459C50.0203 59.3811 49.9757 59.4713 49.8865 59.6066C49.8419 59.5164 49.7527 59.4262 49.6635 59.3361C49.5743 59.2459 49.4851 59.2008 49.4405 59.2008C49.3959 59.2008 49.3514 59.3361 49.2176 59.5615C49.0838 59.7869 49.0392 59.9221 49.0392 59.9672C49.0392 59.9672 49.0838 60.0123 49.173 60.1025C49.2622 60.1926 49.3514 60.2377 49.3959 60.2828C49.4405 60.3279 49.4851 60.3279 49.4851 60.3279C49.5743 60.3279 49.7081 60.1475 49.8865 59.832C49.9757 59.8771 50.0203 59.9672 50.1095 60.0574C50.1986 60.1475 50.2432 60.1926 50.2878 60.1926C50.3324 60.1926 50.4216 60.1025 50.5108 59.9672C50.6446 59.7869 50.6892 59.6516 50.6892 59.5615C50.6892 59.4713 50.6446 59.3361 50.5108 59.2459C50.377 59.1557 50.2878 59.0656 50.2432 59.0656ZM43.3311 57.1271C43.3311 56.7213 43.1527 56.4057 42.7514 56.1352C42.6622 56.0902 42.6176 56.0902 42.6176 56.1803C42.4838 56.4959 42.35 56.7664 42.2608 56.9467C42.2162 57.0369 42.2608 57.082 42.3054 57.1271C42.6622 57.3975 42.8405 57.623 42.8405 57.8033C42.8405 57.8484 42.7514 57.9836 42.573 58.1639C42.3946 58.3443 42.1716 58.5246 41.9486 58.7049C41.8149 58.7951 41.7703 58.8402 41.7703 58.8852C41.7703 58.8852 41.7703 58.9303 41.8149 58.9303C41.8595 58.9303 41.8595 58.9303 41.9486 58.9303C42.3054 58.8402 42.6176 58.6598 42.7959 58.4795C42.9297 58.3443 43.0189 58.209 43.1527 57.9836C43.2419 57.668 43.3311 57.4426 43.3311 57.1271ZM39.6743 53.9713C39.7189 53.9713 39.8081 53.8811 39.8973 53.7008C39.9865 53.5205 40.0311 53.3853 40.0311 53.2951C40.0311 53.2049 39.9419 53.1148 39.8527 52.9795C39.7189 52.8443 39.6297 52.7992 39.5851 52.8443C39.5405 52.8443 39.4959 52.9795 39.3622 53.2049C39.2284 53.4303 39.1838 53.5656 39.1838 53.6557C39.1838 53.7008 39.1838 53.7459 39.2284 53.7459C39.273 53.791 39.3622 53.8361 39.4514 53.9262C39.5851 53.9262 39.6297 53.9713 39.6743 53.9713ZM21.9703 50.1844C21.9703 50.1844 22.0595 50.0943 22.1486 49.9139C22.327 49.9139 22.5054 49.7787 22.6838 49.5082C22.8622 49.2377 22.9514 48.9672 22.9514 48.6516C22.9514 48.5615 22.9514 48.5164 22.9068 48.5164C22.8622 48.5164 22.8622 48.5615 22.8176 48.6967C22.773 48.832 22.7284 48.9221 22.6838 48.9672C22.6392 49.0574 22.55 49.1025 22.5054 49.1025C22.4608 49.1025 22.4162 49.1025 22.2824 49.0574C22.2378 49.0574 22.2378 49.0574 22.1932 49.0574C22.1486 49.0574 22.1041 49.1475 22.0595 49.3279C21.9703 49.5082 21.9257 49.5984 21.8365 49.5984C21.7473 49.5984 21.7027 49.5984 21.6581 49.5984C21.6135 49.5984 21.5243 49.5984 21.4797 49.5984C21.3905 49.6434 21.2568 49.7336 21.0784 49.959C20.9446 50.0943 20.7216 50.1844 20.4541 50.1844C20.2757 50.1844 20.0973 50.1393 20.0081 50.0492C19.8743 49.959 19.7851 49.8689 19.7405 49.7336C19.6959 49.5533 19.6514 49.418 19.6514 49.3279C19.6514 49.2377 19.6514 49.1475 19.6514 48.9672C19.6514 48.9221 19.6514 48.7869 19.6959 48.5164C19.7405 48.2459 19.7851 47.75 19.8743 46.9836C19.9635 46.2172 20.0081 45.7213 20.0527 45.4508C20.0527 45.4057 20.0527 45.4057 20.0081 45.4057C20.0081 45.4057 19.9635 45.4057 19.9189 45.4508C19.6959 45.9918 19.5622 46.3525 19.5176 46.5779C19.3838 47.2992 19.2946 47.9754 19.2054 48.5615C19.1162 49.1926 19.1162 49.6434 19.1162 49.959C19.1162 50.3648 19.2054 50.6803 19.2946 50.9508C19.4284 51.2213 19.6514 51.3566 19.9635 51.3566C20.2311 51.3566 20.4986 51.1762 20.7216 50.8607C20.9446 50.5451 21.123 50.3648 21.2122 50.3197C21.3014 50.2746 21.3459 50.2746 21.4351 50.2746C21.4797 50.2746 21.5689 50.2746 21.6581 50.3197C21.7919 50.4098 21.8811 50.3197 21.9703 50.1844ZM40.3432 55.459C40.2541 55.5041 40.2095 55.5041 40.1203 55.5041C40.0757 55.5041 39.9419 55.459 39.7635 55.3689C39.5851 55.2787 39.4068 55.2787 39.3176 55.2787C39.1838 55.2787 39.05 55.3238 38.9608 55.3689C38.8716 55.4139 38.7824 55.5041 38.7378 55.6393C38.6932 55.6844 38.6486 55.7746 38.6486 55.8648C38.6041 55.9549 38.6041 56 38.6486 56C38.6486 56 38.6932 56 38.7378 55.9549C38.7824 55.8648 38.827 55.7746 38.9162 55.7295C38.9608 55.6844 39.05 55.6393 39.1392 55.6393C39.1838 55.6393 39.273 55.6393 39.3176 55.6844C39.3622 55.6844 39.3622 55.6844 39.4068 55.7295C39.4514 55.7295 39.4514 55.7295 39.4959 55.7746C39.5851 55.8197 39.6297 55.8197 39.6743 55.8648C39.7189 55.8648 39.7635 55.9098 39.8081 55.9549C39.7635 56 39.7189 56.0902 39.6297 56.1803C39.5851 56.2254 39.4514 56.3607 39.1838 56.5861C38.9162 56.8115 38.6486 56.9918 38.4257 57.082C38.1581 57.1721 38.0243 57.2172 37.9351 57.2172C37.8905 57.2172 37.8459 57.2172 37.8014 57.2172C37.8014 57.082 37.8014 56.9918 37.7568 57.0369C37.7122 57.082 37.5784 57.2172 37.3554 57.3525C37.1324 57.4877 36.9095 57.5779 36.6419 57.668C36.3743 57.7582 36.1514 57.8033 35.8838 57.8484C35.6162 57.8934 35.3486 57.9385 35.1257 57.9385C34.8581 57.9385 34.6351 57.9836 34.4122 57.9836C34.1446 57.9836 33.8324 57.9836 33.4757 57.9385C33.1189 57.8934 32.8068 57.8484 32.6284 57.7582C32.45 57.668 32.3608 57.5328 32.3162 57.3074C32.3162 57.1721 32.2716 57.082 32.227 57.082C32.1824 57.082 32.1378 57.2172 32.1378 57.4426C32.0932 57.668 32.0932 57.8934 32.0932 58.0738C32.0932 58.3893 32.1824 58.6148 32.4054 58.75C32.4946 58.8402 32.7176 58.8853 32.9851 58.8853C33.2527 58.9303 33.4757 58.9303 33.6986 58.9303C34.0108 58.9303 34.3676 58.9303 34.7689 58.8853C35.1257 58.8402 35.4824 58.7951 35.75 58.7049C36.0622 58.6148 36.2851 58.5246 36.5527 58.4344C36.7757 58.3443 37.0432 58.209 37.2662 57.9836C37.4446 57.8934 37.5784 57.7131 37.7568 57.4877L38.0689 57.5779L38.4257 57.668C38.5149 57.668 38.6041 57.668 38.6932 57.5779C38.7378 57.5328 38.7824 57.4877 38.8716 57.4426C38.9162 57.3975 38.9608 57.3525 39.0054 57.3074L39.7189 56.6311C39.8527 56.4959 39.9419 56.4508 39.9865 56.3607C40.0757 56.2705 40.1649 56.1803 40.2987 56.0902L40.5662 55.9098C40.6554 55.8648 40.7 55.7746 40.7 55.7295C40.7 55.6844 40.7446 55.6393 40.7446 55.5943C40.7446 55.5492 40.7446 55.5041 40.7892 55.459C40.8338 55.3689 40.7892 55.3689 40.7892 55.3689C40.477 55.3689 40.3878 55.4139 40.3432 55.459ZM51.1797 55.9098C51.3135 55.9098 51.4027 55.8648 51.4919 55.7746C51.5811 55.6393 51.6257 55.5492 51.6703 55.4139C51.7149 55.2787 51.7595 55.1885 51.7595 55.1434C51.7595 55.0984 51.7595 55.0533 51.7595 55.0082C51.7595 54.9631 51.7595 54.9631 51.7149 54.9631C51.7149 54.9631 51.6703 55.0082 51.6703 55.0533C51.5811 55.1885 51.4919 55.2787 51.4919 55.2787C51.4473 55.3238 51.3135 55.3238 51.1797 55.2787C51.1351 55.2787 51.0459 55.3238 50.9568 55.3689C50.8676 55.4139 50.7784 55.5041 50.6892 55.6844C50.5554 55.8648 50.377 55.9549 50.1541 55.9549C50.0203 55.9549 49.8865 55.9098 49.7527 55.8197C49.6189 55.6844 49.5297 55.459 49.5297 55.1434C49.5297 55.0082 49.5743 54.7377 49.6189 54.332C49.6189 54.1967 49.6635 54.0164 49.7081 53.7008C49.7081 53.6557 49.7527 53.6107 49.7081 53.5656H49.6635C49.5743 53.7008 49.4851 53.8811 49.4405 54.0164C49.3959 54.1066 49.3959 54.1967 49.3513 54.3771C49.3068 54.5123 49.3068 54.6475 49.2622 54.7828C49.2176 54.9631 49.2176 55.1434 49.173 55.3238L49.1284 55.8197V55.8648C49.1284 55.8648 49.1284 55.8648 49.1284 55.9098V56.0451C49.1284 56.1352 49.0838 56.2254 48.9946 56.3607C48.95 56.4508 48.9054 56.541 48.8162 56.6762L48.6824 56.9016C48.5932 57.0369 48.5486 57.1721 48.5041 57.3074C48.4595 57.4426 48.4149 57.5779 48.4149 57.668C48.4149 57.8033 48.5486 57.9385 48.7716 58.0738C48.9946 58.1639 49.0838 58.2541 49.0838 58.2992C49.0838 58.5697 48.95 58.8402 48.6378 59.0656C48.3257 59.3361 47.8797 59.4713 47.3892 59.4713C47.1216 59.4713 46.8986 59.4262 46.7203 59.291C46.4973 59.1107 46.3635 58.8402 46.3635 58.4795C46.3635 58.2541 46.4527 57.9836 46.5865 57.623C46.6757 57.3975 46.8095 57.082 47.0324 56.541C47.077 56.4959 47.077 56.4057 47.077 56.3607C47.077 56.3156 47.077 56.2705 47.0324 56.2705C46.9878 56.2705 46.9878 56.3156 46.9432 56.4057C46.8987 56.4508 46.8986 56.4959 46.8541 56.541C46.8095 56.5861 46.8095 56.6762 46.7649 56.7213C46.7203 56.8115 46.6757 56.9467 46.6311 56.9918C46.5865 57.082 46.5865 57.1271 46.5419 57.1271C46.4973 57.2623 46.4081 57.4426 46.3189 57.668C46.2297 57.8484 46.1405 58.1189 46.0959 58.3893C46.0068 58.6598 46.0068 58.8852 46.0068 59.0656C46.0068 59.4713 46.0959 59.7869 46.2743 60.0574C46.4973 60.373 46.8095 60.5082 47.1662 60.5082C47.3446 60.5082 47.4784 60.4631 47.6568 60.418C47.7905 60.373 47.9243 60.2828 48.0581 60.1926C48.4595 59.9221 48.727 59.5164 48.95 59.0656C49.0838 58.75 49.173 58.4795 49.2176 58.2992C49.2622 58.0738 49.3068 57.8934 49.3068 57.668C49.3068 57.5328 49.3068 57.3975 49.2622 57.3525C49.2176 57.3074 49.173 57.2172 49.1284 57.1721C49.0392 57.1271 48.9946 57.082 48.9054 57.0369C48.8162 56.9918 48.8162 56.9467 48.8162 56.9016C48.8162 56.8566 48.9054 56.7213 48.9946 56.541C49.0392 56.4959 49.0838 56.4508 49.0838 56.4057C49.1284 56.4508 49.1284 56.541 49.173 56.5861C49.3068 56.7664 49.4851 56.9016 49.7081 56.9016C49.9311 56.9016 50.1541 56.7664 50.3324 56.4508C50.5108 56.1353 50.6446 55.9549 50.823 55.9098C51.0014 55.8648 51.0905 55.8648 51.1797 55.9098ZM21.8365 38.2828C21.4351 38.6885 21.0784 39.0492 20.7216 39.3648C20.3649 39.6803 20.0081 39.9959 19.6514 40.2664C19.2946 40.582 18.9824 40.8525 18.6703 41.0779C18.4027 41.3033 18.0014 41.6189 17.5554 41.9795C17.1095 42.3402 16.7527 42.6557 16.5743 42.8361C16.4405 42.9713 16.3514 43.1066 16.2622 43.2418C16.173 43.4672 16.0838 43.6475 16.0392 43.7828C16.0392 43.8279 16.1284 43.7828 16.2176 43.6926C16.2622 43.6475 16.3514 43.6025 16.3959 43.5574C16.4405 43.5123 16.5297 43.4672 16.5743 43.4221L17.4662 42.7008C17.6446 42.5656 17.823 42.4303 18.0014 42.2951C18.1797 42.1598 18.3581 42.0246 18.4919 41.9344C18.6257 41.7992 18.8932 41.6189 19.25 41.3484C19.6068 41.0779 19.9189 40.7623 20.2757 40.4918C20.5878 40.2213 20.9 39.9508 21.1676 39.6352C21.4797 39.3197 21.7473 39.0041 22.0149 38.6885C22.2824 38.373 22.4608 38.0123 22.5946 37.6066C22.6392 37.5164 22.6392 37.4262 22.5946 37.4713C22.5054 37.6066 22.2378 37.8771 21.8365 38.2828ZM20.7662 56.9467C20.677 56.8115 20.5432 56.7213 20.4095 56.5861L20.3649 56.6762C20.4541 56.7213 20.4986 56.8115 20.5432 56.9016C20.5878 56.9918 20.6324 57.082 20.677 57.1721C20.7216 57.2623 20.7662 57.3975 20.7662 57.4877C20.7662 57.623 20.8108 57.7131 20.8108 57.8484C20.8108 58.0287 20.8108 58.1639 20.7662 58.3443C20.7216 58.4795 20.677 58.6148 20.5878 58.75C20.4986 58.8853 20.4541 58.9754 20.3203 59.0656L20.3649 59.1107C20.4986 59.0205 20.6324 58.8853 20.7216 58.75C20.8108 58.6148 20.9 58.4795 20.9446 58.2992C20.9892 58.1639 20.9892 57.9836 20.9892 57.8033C20.9892 57.623 20.9446 57.4426 20.9446 57.3074C20.9446 57.2172 20.8554 57.082 20.7662 56.9467ZM18.9824 47.1639C18.9378 47.1639 18.8932 47.2541 18.8041 47.3893C18.7149 47.5697 18.6257 47.6598 18.5811 47.75C18.5365 47.7951 18.4027 47.8852 18.2243 47.9303C18.0459 48.0205 17.9122 48.1107 17.823 48.1557C17.6446 48.291 17.5108 48.4262 17.4216 48.5164C17.3324 48.6516 17.1986 48.8771 17.0203 49.2828C16.8419 49.6885 16.7527 49.9139 16.7081 49.9139C16.6189 50.0492 16.4405 50.1844 16.173 50.3648C16.173 50.3648 16.0838 50.4098 15.8608 50.5902C15.5932 50.7705 15.3703 50.9057 15.2811 50.9959C15.1919 51.0861 15.1027 51.1311 15.0581 51.1762C14.9689 51.2664 14.9243 51.3115 14.9243 51.3566C14.9689 51.4016 15.0135 51.4467 15.1473 51.4467C15.2811 51.4467 15.4595 51.4016 15.6824 51.3566C15.9054 51.3115 16.0838 51.2664 16.2176 51.2213C16.4851 51.0861 16.7081 50.8607 16.8419 50.5902C16.9311 50.4098 17.0203 50.0943 17.1986 49.7336C17.2878 49.5533 17.377 49.373 17.4662 49.2828C17.5108 49.2377 17.5554 49.1926 17.6446 49.1475C17.7338 49.1025 17.9568 48.9672 18.3135 48.7869C18.5811 48.6516 18.8041 48.2008 19.027 47.4344C19.027 47.2541 19.027 47.1639 18.9824 47.1639ZM17.7784 53.0697C17.7338 53.0697 17.6446 53.2049 17.4662 53.5205C17.2878 53.8361 17.1986 54.0164 17.1986 54.0615C17.1986 54.1066 17.2432 54.1516 17.2878 54.1967C17.3324 54.2418 17.4216 54.2869 17.4662 54.3771C17.5108 54.4221 17.6 54.5123 17.6446 54.5574C17.6892 54.6025 17.7338 54.6475 17.7784 54.6475C17.823 54.6475 17.9122 54.5574 18.0459 54.332C18.1797 54.1066 18.2689 53.9262 18.2689 53.791C18.2689 53.6557 18.2243 53.5205 18.0905 53.3402C17.9568 53.1598 17.8676 53.0697 17.7784 53.0697ZM11.4014 49.0123C11.3568 49.0123 11.3122 49.0574 11.3122 49.1475C11.223 49.5082 11.1338 50.0041 11.0892 50.5451C11.0892 50.8607 11.1784 51.0861 11.3568 51.2213C11.5797 51.4016 11.9365 51.4918 12.4716 51.4918C13.0514 51.4918 13.5419 51.3566 13.9432 51.1311C14.2108 50.9959 14.3892 50.8156 14.6122 50.6352C14.8351 50.4098 15.0581 50.0492 15.2811 49.6434C15.5041 49.2377 15.6824 48.6516 15.8162 47.9303C15.9054 47.3893 15.95 46.8934 15.95 46.4426C15.95 46.2623 15.95 45.9016 15.9946 45.3156C15.9946 45.1352 15.9946 44.9098 16.0392 44.6844C16.0838 44.4139 16.0838 44.2787 16.0838 44.1885C16.0838 44.0984 16.0838 44.0082 16.1284 43.9631C16.1284 43.873 16.1284 43.873 16.1284 43.8279C16.1284 43.8279 16.0838 43.8279 16.0392 43.8279C15.9946 43.918 15.9054 44.1434 15.727 44.5041C15.5932 44.8197 15.5041 45.0451 15.4149 45.1803C15.4149 45.2254 15.3703 45.4057 15.3703 45.6762C15.3703 45.8115 15.3703 46.3074 15.3257 47.0738C15.3257 47.75 15.2811 48.2008 15.2365 48.5164C15.1919 48.832 15.1027 49.0123 15.0135 49.1475C14.7905 49.5082 14.4784 49.7336 14.0324 49.9139C13.7203 50.0492 13.3189 50.0943 12.9176 50.0943C12.7838 50.0943 12.6054 50.0943 12.3824 50.0492C12.2041 50.0041 12.0257 49.959 11.8919 49.9139C11.5797 49.7787 11.4459 49.5533 11.4459 49.2377C11.4459 49.1926 11.4459 49.1025 11.4459 49.0574C11.4905 49.0574 11.4459 49.0123 11.4014 49.0123ZM13.1851 48.2008H13.0514C12.9622 48.2008 12.9622 48.2459 12.9622 48.291C12.9622 48.4262 13.0514 48.4713 13.1851 48.4713C13.4081 48.4713 13.5419 48.4262 13.6311 48.291C13.7203 48.1557 13.7203 48.0656 13.6757 47.9754C13.6311 47.8852 13.6311 47.7951 13.6311 47.75C13.6757 47.6598 13.7649 47.6148 13.8986 47.6148C14.0324 47.6148 14.1216 47.5697 14.1216 47.4344C14.1216 47.3443 14.077 47.2992 13.9878 47.2992C13.8541 47.2992 13.7203 47.3443 13.6311 47.4344C13.5419 47.5246 13.4973 47.6598 13.5419 47.7951C13.5865 47.9303 13.5865 48.0205 13.4973 48.0656C13.4081 48.1557 13.3189 48.2008 13.1851 48.2008ZM20.9892 44.1885C20.8108 44.5041 20.7216 44.7295 20.7216 44.7746C20.7216 44.8197 20.8108 44.9098 20.9892 45.0451C21.1676 45.1803 21.3014 45.2705 21.3014 45.2705C21.4351 45.2705 21.6135 45.0451 21.8365 44.5492C21.9257 44.5943 22.0595 44.7295 22.1932 44.8648C22.2824 44.9549 22.3716 45 22.4162 45C22.4608 45 22.5946 44.8648 22.7284 44.6844C22.8622 44.459 22.9514 44.2787 22.9514 44.0984C22.9514 43.9631 22.8622 43.8279 22.7284 43.6475C22.5946 43.5123 22.4608 43.4221 22.3716 43.4221C22.327 43.4221 22.2824 43.5123 22.1486 43.7377C22.0595 43.873 21.9703 44.0082 21.8811 44.1885C21.8365 44.0984 21.7473 43.9631 21.6135 43.8279C21.4797 43.6926 21.3905 43.6475 21.3014 43.6475C21.2568 43.6926 21.1676 43.873 20.9892 44.1885ZM18.6257 52.7541C18.7595 52.5287 18.8486 52.3033 18.8486 52.168C18.8486 52.0328 18.7595 51.8975 18.6257 51.7172C18.4919 51.582 18.3581 51.4918 18.2689 51.4918C18.2243 51.4918 18.1797 51.582 18.0459 51.8074C17.9568 51.9426 17.8676 52.123 17.7784 52.2582C17.7338 52.168 17.6446 52.0328 17.5108 51.8975C17.377 51.7623 17.2432 51.7172 17.1986 51.7172C17.1541 51.7172 17.0649 51.8975 16.8865 52.2582C16.7081 52.6189 16.6189 52.7992 16.6189 52.8443C16.6189 52.8893 16.7081 52.9795 16.8865 53.1148C17.0649 53.2951 17.1986 53.3402 17.1986 53.3402C17.3324 53.3402 17.5108 53.1148 17.7338 52.6189C17.823 52.709 17.9568 52.7992 18.0905 52.9344C18.1797 53.0246 18.2689 53.1148 18.3135 53.1148C18.3581 53.1148 18.4473 52.9795 18.6257 52.7541ZM17.8676 56.7664C17.823 56.7664 17.823 56.7664 17.7784 56.8115C17.7784 56.8115 17.7338 56.8566 17.7338 56.9467L17.6446 57.1271C17.6446 57.1271 17.6446 57.1721 17.6892 57.1721C17.7338 57.1721 17.7338 57.2172 17.7338 57.2172C17.7338 57.2172 17.7338 57.2623 17.6892 57.2623C17.6892 57.2623 17.6446 57.3074 17.6 57.3525C17.5554 57.3975 17.5108 57.4426 17.4662 57.4877C17.4216 57.5328 17.377 57.623 17.3324 57.668C17.2878 57.7131 17.2432 57.8033 17.2432 57.8934C17.1986 57.9836 17.1986 58.0287 17.1986 58.0738C17.1986 58.1189 17.1986 58.1639 17.2432 58.209C17.2432 58.2541 17.2878 58.2541 17.3324 58.2992C17.4216 58.3443 17.4662 58.3893 17.5108 58.3893L17.5554 58.4344C17.5554 58.4795 17.5108 58.5697 17.4662 58.6598C17.4216 58.75 17.3324 58.8402 17.2432 58.8853C17.1541 58.9303 17.1095 58.9754 17.0203 58.9754C16.9311 58.9754 16.8419 59.0205 16.7527 59.0205C16.6189 59.0205 16.4851 58.9754 16.4405 58.8853C16.3514 58.7951 16.3068 58.6598 16.3068 58.5246C16.3068 58.4344 16.3068 58.3443 16.3514 58.2541C16.3514 58.209 16.3959 58.0738 16.4851 57.8484C16.5297 57.7131 16.5743 57.623 16.5743 57.5779C16.5743 57.5328 16.5743 57.5328 16.5743 57.4877C16.5743 57.4877 16.5297 57.5328 16.4851 57.623C16.4405 57.668 16.4405 57.7582 16.3959 57.8033C16.3068 57.9836 16.2622 58.1639 16.173 58.2992C16.1284 58.4795 16.0838 58.6598 16.0838 58.7951C16.0838 59.0205 16.1284 59.2008 16.2176 59.291C16.3068 59.4262 16.4405 59.4713 16.5743 59.4713C16.8865 59.4713 17.1541 59.3361 17.3324 59.0205C17.4216 58.8853 17.4662 58.75 17.5554 58.5697C17.6 58.3893 17.6446 58.2541 17.6446 58.1189V58.0738C17.6446 58.0287 17.6446 58.0287 17.6446 57.9836C17.6446 57.9385 17.6 57.9385 17.5554 57.8934C17.5108 57.8484 17.4662 57.8484 17.4216 57.8033C17.377 57.7582 17.3324 57.7582 17.3324 57.7131C17.3324 57.668 17.3324 57.668 17.4216 57.623C17.4662 57.5779 17.5108 57.5328 17.5108 57.5328C17.5554 57.4877 17.6446 57.4426 17.7338 57.3975C17.7784 57.3975 17.823 57.3525 17.9568 57.2623C18.0014 57.2172 18.0459 57.1721 18.1351 57.1271C18.1797 57.0369 18.2243 56.9918 18.2243 56.9467C18.2243 56.9016 18.1797 56.8566 18.1351 56.8115C18.0459 56.8115 17.9568 56.8115 17.8676 56.7664ZM20.1865 57.3074C20.1419 57.3975 20.0973 57.4426 20.0973 57.4426H20.0527C20.0081 57.4877 20.0081 57.4877 20.0081 57.5328C19.9189 57.5328 19.9189 57.5779 19.8743 57.5779H19.7851C19.7405 57.5779 19.6514 57.623 19.5622 57.7582C19.5176 57.8033 19.473 57.8484 19.4284 57.9385C19.4284 57.8934 19.3838 57.8934 19.3838 57.8484C19.3392 57.8033 19.2946 57.7582 19.2054 57.7582C19.1608 57.7582 19.1162 57.7582 19.0716 57.8033C19.027 57.8484 19.027 57.8484 18.9824 57.8934C18.9378 57.9385 18.8932 57.9836 18.8932 57.9836C18.8486 58.0287 18.8041 58.0287 18.7149 58.0287C18.6257 58.0287 18.5365 57.9836 18.4919 57.9385C18.4473 57.8484 18.4473 57.7582 18.4473 57.668C18.4473 57.623 18.4473 57.5779 18.4473 57.4877C18.4473 57.3975 18.4473 57.3074 18.4919 57.2172L18.5811 56.6762V56.541C18.5811 56.4959 18.5811 56.4959 18.5811 56.4508C18.5365 56.4959 18.5365 56.5861 18.4919 56.6762C18.4473 56.7664 18.4473 56.8566 18.4027 56.8566C18.4027 56.9918 18.3581 57.2172 18.3135 57.4877C18.2689 57.7582 18.2689 57.9385 18.2689 57.9385C18.2689 58.0738 18.3135 58.209 18.3581 58.2992C18.4027 58.3893 18.4919 58.4344 18.5811 58.4344C18.6257 58.4344 18.6703 58.4344 18.7149 58.3893C18.7595 58.3893 18.8041 58.3443 18.8041 58.2992C18.8486 58.2541 18.8932 58.209 18.9378 58.1189C18.9824 58.0287 19.0716 57.9836 19.1162 57.9836C19.1608 57.9836 19.2054 57.9836 19.25 58.0287C19.2946 58.0738 19.2946 58.1189 19.2946 58.1639V58.3443C19.2946 58.3893 19.2946 58.4344 19.2946 58.4344C19.2946 58.4344 19.2946 58.4795 19.3392 58.4795C19.3392 58.4795 19.3838 58.4344 19.3838 58.3443C19.4284 58.209 19.473 58.1189 19.5176 57.9836C19.5176 57.9385 19.5622 57.8934 19.6068 57.8484C19.6514 57.7582 19.6959 57.7582 19.7405 57.7131C19.7405 57.7131 19.7851 57.7131 19.8297 57.7131C19.8743 57.7131 19.8743 57.7131 19.9189 57.7131L19.9635 57.668C20.0081 57.623 20.0081 57.623 20.0081 57.623C20.0527 57.5779 20.0527 57.5779 20.0973 57.5779C20.1419 57.5779 20.1865 57.5328 20.2311 57.4426C20.2757 57.3525 20.3203 57.3074 20.3203 57.2172C20.3203 57.2172 20.3203 57.2172 20.3203 57.1721C20.1865 57.2623 20.1865 57.2623 20.1865 57.3074ZM16.173 57.5779C16.173 57.5328 16.2176 57.4877 16.2176 57.4877C16.2176 57.4877 16.2176 57.4877 16.2176 57.4426H16.1284C16.1284 57.4426 16.0392 57.4426 15.95 57.3975C15.9054 57.3975 15.8608 57.3525 15.8608 57.3525C15.8162 57.3525 15.7716 57.3975 15.6824 57.4426C15.6378 57.4877 15.5932 57.5328 15.5486 57.623L15.3257 57.9836C15.2365 57.9836 15.1473 57.9385 15.1027 57.8934C15.0581 57.8484 15.0135 57.7582 15.0135 57.623C15.0135 57.5779 15.0135 57.5328 15.0135 57.4426C15.0135 57.3525 15.0135 57.2623 15.0581 57.1721L15.1473 56.6311V56.4959C15.1473 56.4508 15.1473 56.4508 15.1473 56.4057C15.1027 56.4508 15.1027 56.541 15.0581 56.6311C15.0135 56.7213 14.9689 56.8115 14.9689 56.8115C14.9689 56.9467 14.9243 57.1721 14.8797 57.4426C14.8351 57.7131 14.8351 57.8934 14.8351 57.8934C14.8351 58.0287 14.8797 58.1189 14.9243 58.209C15.0135 58.2992 15.1027 58.3443 15.2365 58.3443C15.3703 58.3443 15.4595 58.2992 15.5932 58.2541C15.6824 58.209 15.7716 58.1189 15.8162 57.9836C15.8162 57.9836 15.8608 57.8934 15.95 57.8033C15.9946 57.7582 15.9946 57.7131 16.0392 57.668L16.0838 57.623C16.0838 57.5779 16.1284 57.5779 16.1284 57.5779C16.1284 57.668 16.173 57.623 16.173 57.5779ZM15.727 57.8934C15.6824 57.9385 15.6378 57.9385 15.5932 57.9836C15.5932 57.9836 15.5486 57.9836 15.5041 58.0287H15.3703L15.5486 57.7582C15.5932 57.7131 15.5932 57.668 15.6378 57.668C15.6824 57.623 15.727 57.623 15.7716 57.623C15.7716 57.623 15.8162 57.623 15.8608 57.623C15.9054 57.623 15.95 57.668 15.95 57.668C15.9054 57.7582 15.8162 57.8484 15.727 57.8934ZM15.9054 56.2705C15.8608 56.2705 15.8608 56.2705 15.9054 56.2705C15.8608 56.2254 15.8608 56.2254 15.8608 56.2254C15.8608 56.2254 15.8608 56.2705 15.8162 56.2705C15.7716 56.3156 15.7716 56.3607 15.727 56.4057C15.727 56.4508 15.6824 56.4959 15.6378 56.541C15.6378 56.541 15.6378 56.5861 15.5932 56.6311C15.5932 56.6311 15.5932 56.6762 15.6378 56.6762C15.6378 56.6762 15.6824 56.7213 15.727 56.7213C15.727 56.7213 15.7716 56.7664 15.8162 56.8115C15.8608 56.8566 15.8608 56.8566 15.8608 56.8566C15.8608 56.8566 15.9054 56.8566 15.9054 56.8115C15.95 56.7664 15.9946 56.7213 15.9946 56.6762C15.9946 56.6311 16.0392 56.5861 16.0392 56.541C16.0392 56.4959 16.0392 56.4508 16.0392 56.4508C16.0392 56.4057 16.0392 56.4057 15.9946 56.3607C15.9946 56.3607 15.95 56.3156 15.9054 56.2705ZM11.5797 56.9918C11.6689 56.8566 11.7135 56.7664 11.8473 56.6762L11.8027 56.6311C11.6689 56.7213 11.5351 56.8566 11.4459 56.9918C11.3568 57.1271 11.2676 57.2623 11.223 57.4426C11.1784 57.623 11.1784 57.7582 11.1784 57.9385C11.1784 58.1189 11.1784 58.2992 11.223 58.4344C11.2676 58.6148 11.3122 58.75 11.4459 58.8853C11.5351 59.0205 11.6689 59.1107 11.8027 59.2459L11.8473 59.2008C11.7581 59.1557 11.7135 59.0656 11.6689 58.9754C11.6243 58.8853 11.5797 58.7951 11.5351 58.7049C11.4905 58.6148 11.4459 58.4795 11.4459 58.3893C11.4459 58.2541 11.4014 58.1639 11.4014 58.0287C11.4014 57.8484 11.4014 57.7131 11.4459 57.5328C11.4905 57.2623 11.5351 57.1271 11.5797 56.9918ZM14.5676 56.8115C14.523 56.8115 14.4784 56.8115 14.4784 56.8566C14.4338 56.9016 14.3892 56.9467 14.3446 56.9918C14.3 57.0369 14.2554 57.1271 14.1662 57.1721C14.1216 57.2623 14.077 57.3074 14.0324 57.3975C13.9878 57.3975 13.9878 57.3975 13.9432 57.3975C13.8986 57.3975 13.8986 57.3975 13.8541 57.3975C13.8095 57.3975 13.7649 57.4426 13.7203 57.4877C13.7203 57.5328 13.6757 57.623 13.6757 57.668C13.6757 57.7131 13.6757 57.7582 13.6757 57.8484C13.6757 57.9385 13.6757 57.9836 13.6757 57.9836C13.6757 58.0287 13.6757 58.1189 13.6311 58.1189C13.6311 58.1639 13.6311 58.209 13.5865 58.2992C13.5419 58.3893 13.4973 58.5246 13.4527 58.5697C13.4081 58.6148 13.3635 58.6598 13.2743 58.75C13.3189 58.7951 13.2297 58.8402 13.1851 58.8853C13.1405 58.9303 13.0514 58.9303 13.0068 58.9754C12.9176 58.9754 12.8284 59.0205 12.65 59.0205C12.5162 59.0205 12.3824 58.9754 12.2932 58.9303C12.2041 58.8402 12.1595 58.75 12.1595 58.6148C12.1595 58.5246 12.1595 58.4344 12.2041 58.3443C12.2041 58.2992 12.2486 58.2541 12.2486 58.1639L12.3824 57.8934C12.3824 57.8484 12.427 57.8033 12.427 57.7582C12.427 57.7131 12.427 57.7131 12.427 57.7131C12.427 57.7131 12.427 57.7131 12.3824 57.7582C12.3824 57.7582 12.3824 57.8033 12.3378 57.8484C12.2932 57.9385 12.2486 57.9836 12.2041 58.0738C12.2041 58.1189 12.1595 58.1639 12.1149 58.2541C12.0703 58.3443 12.0703 58.4795 12.0257 58.5697C12.0257 58.6598 11.9811 58.75 11.9811 58.8402C11.9811 59.0656 12.0257 59.291 12.2041 59.3811C12.2932 59.4713 12.427 59.5164 12.5608 59.5164C12.65 59.5164 12.7392 59.5164 12.8284 59.4713C12.9622 59.4262 13.0514 59.3811 13.1405 59.291C13.2743 59.2008 13.4081 59.0205 13.4973 58.8402C13.5865 58.7049 13.6311 58.5697 13.7203 58.3443C13.7649 58.209 13.8095 58.0738 13.8095 57.9836C13.8095 57.9385 13.8541 57.8934 13.8541 57.8484C13.8541 57.8033 13.8541 57.8033 13.8541 57.7582C13.8541 57.7131 13.8541 57.7131 13.8986 57.7131H13.9878C14.0324 57.7131 14.077 57.7131 14.1662 57.668C14.3 57.623 14.3892 57.5779 14.4784 57.4426C14.523 57.3525 14.5676 57.3074 14.6122 57.1721C14.6568 57.082 14.7014 56.9918 14.7014 56.9016C14.7014 56.8566 14.7014 56.8115 14.6568 56.7664C14.6568 56.8566 14.6122 56.8115 14.5676 56.8115ZM14.523 57.2172C14.4784 57.2623 14.4338 57.3074 14.3892 57.3074C14.3446 57.3525 14.3 57.3525 14.2554 57.3525C14.2108 57.3525 14.1662 57.3525 14.1662 57.3525C14.1662 57.3525 14.1662 57.3074 14.2108 57.3074C14.2554 57.2623 14.3 57.2172 14.3 57.1721C14.3446 57.082 14.4338 57.0369 14.4784 57.0369C14.523 57.0369 14.5676 57.0369 14.5676 57.082C14.6122 57.082 14.6122 57.1271 14.6122 57.1271C14.6122 57.1721 14.5676 57.1721 14.523 57.2172ZM21.3905 43.332C21.4797 43.3771 21.5689 43.4672 21.6581 43.5574C21.7919 43.6926 21.8811 43.7377 21.8811 43.7377C21.9257 43.7377 22.0149 43.6025 22.1486 43.3771C22.2824 43.1516 22.327 42.9262 22.327 42.791C22.327 42.6557 22.2378 42.4754 22.1041 42.3402C21.9703 42.2049 21.8365 42.1148 21.7473 42.1148C21.7027 42.1148 21.6135 42.2951 21.4351 42.6107C21.3014 42.9262 21.2122 43.1066 21.2122 43.1516C21.3014 43.2418 21.3459 43.2869 21.3905 43.332ZM33.9216 31.4303H29.0162L28.4811 31.7008H24.5568L23.977 31.4303H16.2176C15.1027 31.4303 15.1919 32.2418 15.1919 32.2418C15.1919 32.9631 16.173 32.9631 16.173 32.9631H25.4041L25.5378 32.7377H26.8311L27.0095 32.918H33.8324C35.4824 32.918 36.8649 32.6475 36.8649 32.6475H77V31.9262H36.9095C34.9919 31.3852 33.9216 31.4303 33.9216 31.4303ZM36.2851 35.5779H22.0595C20.9892 35.5328 21.0784 36.3443 21.0784 36.3443C21.123 37.0656 22.0149 36.9754 22.0149 36.9754H36.1514C37.1324 36.9754 38.9608 36.75 38.9608 36.75H77V35.9836H39.1392C37.5784 35.7131 36.2851 35.5779 36.2851 35.5779ZM29.7743 33.5041H18.3581C17.2878 33.459 17.3324 34.3156 17.3324 34.3156C17.2878 35.1271 18.1797 35.0369 18.1797 35.0369H29.6851C30.9784 34.9918 32.4054 34.7213 32.4054 34.7213H77V34H32.5392C30.9338 33.459 29.7743 33.5041 29.7743 33.5041ZM40.7446 39.6803H33.6541L32.4054 39.9057H30.3986L29.4622 39.6803H24.3784C23.3081 39.6352 23.3973 40.4016 23.3973 40.4016C23.3973 41.2582 24.2892 41.168 24.2892 41.168H29.4176L30.7554 40.8525H32.2716L33.5649 41.123H40.1649C41.2351 41.123 42.8405 40.8074 42.8405 40.8074H77V40.041H42.8851C41.5919 39.6803 40.7446 39.6803 40.7446 39.6803ZM39.05 37.6066H31.5135L31.0676 37.8771H29.1054L28.8378 37.6066H24.8243C23.7986 37.5615 23.8878 38.2828 23.8878 38.2828C23.8878 39.1844 24.8689 39.0492 24.8689 39.0492H28.6149L28.8378 38.9139H31.4689L31.6473 39.0943H38.827C39.9865 39.1393 41.5473 38.8238 41.5473 38.8238H77V38.0574H41.6365C39.8973 37.6516 39.05 37.6066 39.05 37.6066ZM28.7486 45.8115C27.9459 45.8566 27.9905 46.3975 27.9905 46.3975C27.9905 47.2992 28.9716 47.1189 28.9716 47.1189C29.3284 47.1189 29.8635 46.8033 29.8635 46.8033H77V46.082H29.7743C29.2392 45.8115 28.7486 45.8115 28.7486 45.8115ZM41.2797 41.709H36.5527C35.1703 41.709 33.9216 42.1148 33.9216 42.1148H32.3162C31.0676 41.8893 29.8635 41.7992 29.8635 41.7992H24.8243C23.8432 41.7992 23.8878 42.5205 23.8878 42.5205C23.8878 43.2869 24.7797 43.1967 24.7797 43.1967H29.7743C30.577 43.1967 32.45 42.791 32.45 42.791H33.7878C34.6797 43.1516 36.4189 43.1967 36.4189 43.1967H40.7446C41.7257 43.1516 43.5986 42.9262 43.5986 42.9262H77V42.1598H43.7324C42.8405 41.8893 41.2797 41.709 41.2797 41.709ZM41.4135 43.8279C40.1203 43.7828 38.4257 44.2336 38.4257 44.2336H32.3162L29.5959 43.7377H26.2959C25.2703 43.7377 25.4041 44.5041 25.4041 44.5041C25.4041 45.2705 26.3405 45.1803 26.2514 45.1803H29.4176L32.1824 44.7295H38.4703C39.8527 45.2254 41.2797 45.1803 41.2797 45.1803C42.2608 45.1803 44 44.8197 44 44.8197H77V44.0533H43.4203C42.5284 43.8279 41.4135 43.8279 41.4135 43.8279ZM11 17.5V18.2213H77V17.5H11ZM42.0824 19.3033H37.7122C36.7757 19.3484 35.6162 19.6189 35.6162 19.6189H11V20.3402H35.5716C36.4189 20.6107 37.3554 20.7008 37.3554 20.7008H42.127C43.1527 20.6557 44.3122 20.3852 44.3122 20.3852H77V19.6189H44.1338C43.4203 19.4385 42.0824 19.3033 42.0824 19.3033ZM76.2865 49.373C75.9297 49.6885 75.7068 49.959 75.5284 50.0943C75.2608 50.3648 74.9932 50.5902 74.6811 50.8156C74.2351 51.1762 73.8338 51.4918 73.477 51.8074C72.9865 52.2131 72.7189 52.4385 72.5851 52.5738C72.4959 52.6639 72.4514 52.7541 72.3622 52.8893C72.273 53.0246 72.2284 53.1598 72.1838 53.25C72.1838 53.2951 72.2284 53.25 72.3176 53.1598C72.3622 53.1148 72.4068 53.1148 72.4514 53.0697C72.4959 53.0246 72.5405 52.9795 72.5851 52.9344L73.2541 52.4385C73.477 52.2582 73.7446 52.0779 74.0122 51.8525C74.1905 51.7172 74.4135 51.5369 74.6365 51.3115C74.8149 51.1762 74.9487 51.041 75.0824 50.9508C75.2162 50.8607 75.3054 50.7254 75.3946 50.6803C75.6176 50.4549 75.7959 50.3197 75.8851 50.2295C75.9297 50.1844 76.0189 50.0943 76.1527 49.9139C76.2865 49.7787 76.3757 49.6434 76.4649 49.5082C76.5541 49.418 76.6432 49.2828 76.7324 49.1025C76.8216 48.9221 76.8662 48.7869 76.9108 48.6967C76.9108 48.6516 76.9108 48.6066 76.9108 48.6066C77 48.6967 76.777 48.9221 76.2865 49.373ZM41.9486 21.332H33.2527C32.227 21.332 31.0676 21.6926 31.0676 21.6926H11V22.3689H30.8446C31.5135 22.5943 32.8514 22.7746 32.8514 22.7746H41.8149C42.7959 22.7746 43.9108 22.3689 43.9108 22.3689H77V21.7377H43.6432C42.6622 21.4221 41.9486 21.332 41.9486 21.332ZM41.3689 23.4057H30.5324C29.5514 23.4508 28.5703 23.8115 28.5703 23.8115H19.2946C18.3581 23.541 17.4216 23.4057 17.4216 23.4057H12.0703C11.5351 23.4057 11.5351 24.127 11.5351 24.127C11.5351 24.8484 12.0703 24.8033 12.0703 24.8033H17.1095C18.1797 24.7131 19.3392 24.3975 19.3392 24.3975H28.5257C29.3284 24.5779 30.3541 24.7582 30.3541 24.7582H41.1014C42.127 24.7131 43.1081 24.4426 43.1081 24.4426H77V23.7213H43.1973C42.0824 23.4057 41.3689 23.4057 41.3689 23.4057ZM53.0081 50.9959C53.2311 50.7705 53.4095 50.6353 53.4986 50.5451C53.5432 50.5 53.6324 50.4098 53.7662 50.2295C53.9 50.0943 53.9892 49.959 54.0784 49.8238C54.1676 49.7336 54.2568 49.5984 54.3459 49.418C54.4351 49.2377 54.5243 49.1025 54.5243 49.0123C54.5243 48.9672 54.5243 48.9672 54.5243 48.9221C54.5243 48.9221 54.3014 49.1475 53.8108 49.6434C53.4986 49.959 53.2311 50.1844 53.0527 50.3648C52.7851 50.6353 52.5176 50.8607 52.2054 51.0861C51.9824 51.2664 51.8041 51.4016 51.5811 51.582C51.4027 51.7623 51.1797 51.8975 50.9568 52.0779C50.5108 52.4385 50.1986 52.709 50.0649 52.8443C49.9757 52.9344 49.9311 53.0246 49.8419 53.1598C49.7973 53.25 49.7081 53.3852 49.6635 53.5205C49.6635 53.5205 49.7081 53.5205 49.7973 53.4303C49.8419 53.3852 49.9311 53.2951 50.0649 53.2049L50.7338 52.6639C50.8676 52.5738 51.0014 52.4836 51.0905 52.3934C51.2243 52.3033 51.3581 52.2131 51.4473 52.123C51.6703 51.9426 51.8932 51.7623 52.0716 51.582C52.6068 51.3115 52.8743 51.0861 53.0081 50.9959ZM39.2284 27.5082H28.1689C27.3216 27.4631 26.2959 27.8238 26.2959 27.8238H24.2892C23.4419 27.5082 22.7284 27.5082 22.7284 27.5082H13.3635C12.6054 27.5082 12.6946 28.2295 12.6946 28.2295C12.6946 28.9057 13.2743 28.8607 13.2743 28.8607H22.4608C23.3081 28.9057 24.3338 28.5451 24.3338 28.5451H26.3851C27.0095 28.8607 28.0797 28.9057 28.0797 28.9057H38.9608C40.2987 28.9057 41.0568 28.5902 41.0568 28.5902H77V27.9139H41.1459C39.8081 27.4631 39.2284 27.5082 39.2284 27.5082ZM40.6108 25.4795H29.2392C28.0351 25.4344 27.2324 25.7951 27.2324 25.7951H22.4162C21.123 25.4795 20.5432 25.4344 20.5432 25.4344H12.873C12.1595 25.4344 12.2041 26.1107 12.2041 26.1107C12.2041 26.832 12.7838 26.7418 12.7838 26.7418H20.2311C21.3459 26.6516 22.1486 26.4262 22.1486 26.4262H27.0986C27.7676 26.6967 28.8824 26.832 28.8824 26.832H40.4324C41.3689 26.7869 42.2608 26.4713 42.2608 26.4713H77V25.8402H42.3054C41.3243 25.4795 40.6108 25.4795 40.6108 25.4795ZM37.6676 29.582C37.6676 29.582 28.8378 29.5369 28.0351 29.582C27.2324 29.627 26.5635 29.8074 26.5635 29.8074H25.2703C24.8243 29.6721 24.2 29.5369 24.2 29.5369H14.6122C13.6311 29.5369 13.7649 30.2582 13.7649 30.2582C13.7649 30.9344 14.523 30.9344 14.523 30.9344H23.8878C24.3784 30.8893 25.2257 30.709 25.2257 30.709H26.5635C27.0986 30.9344 27.7676 30.9795 27.7676 30.9795H37.4C38.2473 30.9795 39.4514 30.6639 39.4514 30.6639H77V29.9426H39.4959C38.7378 29.627 37.6676 29.582 37.6676 29.582ZM66.4757 50.9057C66.5649 50.8156 66.6541 50.6803 66.7432 50.5C66.8324 50.3197 66.877 50.1844 66.9216 50.0943C66.9216 50.0492 66.9216 50.0492 66.9216 50.0041C66.9216 50.0041 66.6987 50.2746 66.2081 50.7254C66.0743 50.8607 65.8959 50.9959 65.8068 51.1311C65.673 51.2664 65.5838 51.3566 65.4946 51.4467C65.227 51.7172 64.9595 51.9426 64.6473 52.168C64.4243 52.3484 64.2459 52.4836 64.023 52.6639C63.8 52.8443 63.6216 52.9795 63.3987 53.1598C62.9527 53.5205 62.6851 53.791 62.5068 53.9262C62.4176 54.0164 62.3284 54.1516 62.2838 54.2418C62.2392 54.332 62.15 54.4672 62.1054 54.6025C62.1054 54.6025 62.15 54.6025 62.2392 54.5123C62.2838 54.4672 62.3284 54.4672 62.373 54.4221C62.4176 54.3771 62.4622 54.332 62.5068 54.332L63.1757 53.8361C63.3095 53.7459 63.4432 53.6557 63.5324 53.5656C63.6662 53.4754 63.8 53.3852 63.9338 53.25C64.1568 53.0697 64.3797 52.8893 64.5581 52.709C64.7365 52.5738 64.8703 52.4385 65.0041 52.3484C65.1378 52.2582 65.227 52.123 65.3162 52.0779C65.5392 51.8525 65.7176 51.7172 65.8068 51.6271C65.8513 51.582 65.9405 51.4918 66.0743 51.3115C66.2527 51.1762 66.3865 51.041 66.4757 50.9057ZM65.45 52.7541C65.3162 52.9795 65.2716 53.1148 65.2716 53.1598C65.2716 53.2049 65.3162 53.2049 65.3608 53.25C65.4054 53.2951 65.4946 53.3402 65.5838 53.4303C65.673 53.5205 65.7622 53.5656 65.7622 53.5656C65.8068 53.5656 65.8959 53.4754 65.9851 53.2951C66.0743 53.1148 66.1189 52.9795 66.1189 52.8893C66.1189 52.7992 66.0743 52.6639 65.9405 52.5287C65.8514 52.4385 65.7622 52.3484 65.673 52.3484C65.6284 52.3934 65.5838 52.4836 65.45 52.7541ZM54.8811 53.3852C54.9257 53.4303 54.9703 53.4303 54.9703 53.4303C55.0595 53.4303 55.1932 53.25 55.3716 52.9344C55.4608 52.9795 55.5054 53.0697 55.5946 53.1598C55.6838 53.25 55.7284 53.2951 55.773 53.2951C55.8176 53.2951 55.9068 53.2049 55.9959 53.0697C56.1297 52.8893 56.1743 52.7541 56.1743 52.6639C56.1743 52.5738 56.1297 52.4385 55.9959 52.3484C55.9068 52.2131 55.8176 52.168 55.7284 52.168C55.6838 52.168 55.6392 52.2582 55.5946 52.3484C55.5054 52.4836 55.4608 52.5738 55.3716 52.709C55.327 52.6189 55.2378 52.5287 55.1487 52.4385C55.0595 52.3484 54.9703 52.3033 54.9257 52.3033C54.8811 52.3033 54.8365 52.4385 54.7027 52.6639C54.5689 52.8893 54.5243 53.0246 54.5243 53.0697C54.5243 53.0697 54.5689 53.1148 54.6581 53.2049C54.7919 53.2951 54.8365 53.3402 54.8811 53.3852ZM58.9838 55.1885C58.9392 55.2787 58.8946 55.3238 58.85 55.4139C58.8054 55.5041 58.7608 55.5943 58.7162 55.6844C58.6716 55.7746 58.627 55.8648 58.627 56C58.5824 56.0902 58.5824 56.2254 58.5824 56.3156C58.5824 56.4959 58.5378 56.7213 58.5824 57.0369C58.5824 57.3525 58.5824 57.5779 58.5824 57.7582C58.5824 57.9385 58.5378 58.1189 58.4932 58.2992C58.4486 58.4795 58.4486 58.5697 58.4486 58.5697C58.4486 58.6148 58.4486 58.6148 58.4486 58.6148C58.4486 58.6148 58.4932 58.6148 58.5378 58.5697C58.5824 58.5246 58.5824 58.4795 58.627 58.4344C58.6716 58.3443 58.7162 58.209 58.8054 58.0287C58.8946 57.8033 58.9392 57.5779 58.9392 57.3074C58.9392 57.1721 58.9392 57.0369 58.9838 56.8566C58.9838 56.6762 58.9838 56.4959 58.9838 56.2705C58.9838 56.2254 58.9838 56.1803 58.9838 56.1353C58.9838 56.0902 58.9838 56 58.9838 55.9098C58.9838 55.8197 58.9838 55.7746 58.9838 55.6844C58.9838 55.5943 58.9838 55.5492 58.9838 55.459C58.9838 55.3689 58.9838 55.3238 58.9838 55.2787C58.9838 55.2336 58.9838 55.1885 58.9838 55.1885C58.9838 55.1434 58.9838 55.1434 58.9392 55.1434C59.0284 55.1434 58.9838 55.1434 58.9838 55.1885ZM57.9135 52.0779C57.8243 52.168 57.7797 52.2582 57.6905 52.3934C57.6014 52.5287 57.5568 52.6639 57.5122 52.7541C57.5122 52.7992 57.5568 52.7541 57.6459 52.6639C57.6905 52.6189 57.7797 52.5287 57.9135 52.4385C59.2959 51.4016 60.6338 50.2746 61.8378 49.0574C61.927 48.9672 62.0162 48.7869 62.15 48.5615C62.2838 48.3361 62.3284 48.2008 62.2392 48.2459C61.1243 49.3279 59.6527 50.5902 57.9135 52.0779ZM51.5811 52.7992C51.5365 52.7992 51.4919 52.9344 51.3581 53.1598C51.2689 53.3852 51.1797 53.5205 51.1797 53.6107C51.1797 53.6557 51.1797 53.7008 51.2243 53.7008C51.2689 53.7459 51.3581 53.791 51.4473 53.8811C51.5365 53.9713 51.6257 53.9713 51.6257 53.9713C51.6703 53.9713 51.7595 53.8811 51.8486 53.7008C51.9378 53.5205 51.9824 53.3852 51.9824 53.2951C51.9824 53.2049 51.8932 53.1148 51.8041 52.9795C51.7595 52.7992 51.6703 52.7541 51.5811 52.7992ZM52.027 58.6148C52.1162 58.5697 52.2054 58.5246 52.25 58.5246C52.2946 58.4795 52.3838 58.3893 52.473 58.2541C52.5622 58.1189 52.6514 57.8934 52.7851 57.5779C52.8297 57.5328 52.8297 57.4426 52.8743 57.3525C52.8743 57.2623 52.9189 57.2172 52.9189 57.1721C52.9189 57.1271 52.9189 57.0369 52.9635 56.9918C52.9635 56.9016 52.9635 56.8566 52.9635 56.7664C52.9635 56.6311 52.9189 56.4959 52.8297 56.3607C52.7405 56.2705 52.6514 56.1803 52.5176 56.1803C52.4284 56.1803 52.3838 56.2254 52.2946 56.3156C52.2054 56.4057 52.1608 56.541 52.0716 56.6762C51.9824 56.8115 51.9378 56.9467 51.9378 56.9918C51.8932 57.082 51.8932 57.1271 51.8932 57.1721C51.8932 57.2623 51.8932 57.3525 51.9824 57.3975C52.0716 57.4877 52.1608 57.4877 52.25 57.4877H52.2946C52.3392 57.4877 52.3392 57.4877 52.3392 57.4426H52.4284C52.3838 57.5779 52.3392 57.7131 52.25 57.8484C52.1608 57.9836 52.0716 58.0287 51.9824 58.1189C51.8932 58.1639 51.7149 58.2992 51.4473 58.4795C51.2689 58.75 51.1351 58.8402 51.1351 58.8852C51.1351 58.8852 51.1351 58.8852 51.1797 58.8852C51.2243 58.8852 51.3581 58.8402 51.5811 58.7951C51.8041 58.7049 51.9378 58.6598 52.027 58.6148ZM58.4486 52.6639C58.4486 52.6189 58.4486 52.6189 58.4486 52.6189C58.4486 52.6189 58.4041 52.6639 58.3595 52.6639C58.2703 52.7541 58.2257 52.8893 58.1365 53.0697C58.0473 53.25 58.0027 53.3852 58.0027 53.4303C57.9581 53.5205 57.9581 53.6107 57.9581 53.7459C57.9581 53.8811 57.9135 54.0164 57.9135 54.0615V54.8279C57.9135 54.9631 57.8689 55.0984 57.7797 55.1434C57.6905 55.2336 57.6013 55.2787 57.4676 55.2787C57.3338 55.2787 57.2446 55.2336 57.2 55.1434C57.1554 55.0533 57.1108 54.873 57.1108 54.5574C57.1108 54.4672 57.1108 54.3771 57.1554 54.2869C57.1554 54.1967 57.2 54.0615 57.2446 53.791L57.423 52.8893C57.423 52.8443 57.423 52.7992 57.423 52.7992C57.423 52.7992 57.3784 52.7541 57.3784 52.7992C57.3338 52.8893 57.2446 53.0697 57.1108 53.3402C57.1108 53.3852 57.0662 53.4303 57.0216 53.5205C56.977 53.6107 56.9324 53.7008 56.8878 53.8361C56.8432 53.8811 56.8432 53.9713 56.8432 54.1066C56.8432 54.2418 56.7986 54.377 56.7986 54.5123C56.7986 54.6025 56.7541 54.7377 56.7541 54.9631C56.7541 55.0984 56.7541 55.2336 56.7541 55.4139V55.8197C56.7541 55.9098 56.7095 56 56.6649 56.0451C56.6203 56.0902 56.5757 56.1352 56.5757 56.1352C56.5311 56.1803 56.3973 56.1803 56.2189 56.1803C55.9959 56.1803 55.8176 56.1803 55.5946 56.2254C55.55 56.2254 55.55 56.2254 55.5054 56.2254C55.4608 56.2254 55.4162 56.2254 55.4162 56.2705C55.2378 56.3607 55.0149 56.4508 54.7919 56.6311C54.5689 56.8115 54.3459 56.9918 54.123 57.3074C54.0338 57.3975 53.8554 57.668 53.5878 58.0738C53.4986 58.209 53.4541 58.2992 53.3649 58.4344C53.1865 58.7049 53.0081 58.9754 52.8297 59.1557C52.6514 59.3811 52.4284 59.5615 52.25 59.6967C52.0716 59.832 51.8932 59.9672 51.7595 60.0574C51.6257 60.1475 51.5365 60.2377 51.4919 60.2828C51.4473 60.3279 51.4473 60.373 51.4473 60.373C51.4919 60.418 51.5365 60.418 51.5811 60.373C51.6257 60.373 51.6257 60.373 51.6703 60.3279H51.7149C51.8486 60.2828 51.9824 60.1926 52.1162 60.1475C52.25 60.0574 52.3838 59.9672 52.5176 59.877C52.6513 59.7869 52.8297 59.6066 53.0527 59.3811C53.2757 59.1557 53.4986 58.8852 53.7216 58.6148C53.9446 58.2992 54.123 58.0738 54.2568 57.8484C54.3905 57.668 54.6135 57.4877 54.8365 57.3525C55.0149 57.2623 55.1041 57.2172 55.1932 57.2172C55.2824 57.1721 55.3716 57.1721 55.4608 57.1721C55.55 57.1721 55.5946 57.1721 55.6392 57.1721C55.6838 57.1721 55.7284 57.1721 55.773 57.1721C55.8176 57.1721 55.8622 57.1721 55.9514 57.1721C55.9959 57.1721 56.0405 57.1721 56.0851 57.127C56.1743 57.082 56.2189 57.0369 56.3527 56.9016C56.4419 56.8115 56.5311 56.6762 56.6203 56.5861C56.6649 56.541 56.7541 56.4508 56.8432 56.3156C56.9324 56.2254 56.977 56.1803 57.0216 56.1803C57.1108 56.3156 57.2 56.3607 57.3338 56.3607C57.4676 56.3607 57.6014 56.2705 57.7351 56.0902C57.8689 55.9098 57.9581 55.7295 58.0919 55.459C58.1811 55.2336 58.2257 55.0082 58.2703 54.873C58.3595 54.5123 58.4041 54.1516 58.4041 53.791C58.4041 53.4303 58.4041 53.1148 58.4932 52.8443C58.4486 52.7541 58.4486 52.6639 58.4486 52.6639ZM64.9595 55.5041C64.9595 55.5041 64.9149 55.5492 64.8703 55.6393C64.8257 55.7295 64.7811 55.8197 64.7811 55.8648C64.7365 55.9098 64.6919 55.9098 64.6473 55.9098C64.6027 55.9098 64.5581 55.8648 64.5581 55.9098C64.4689 56.1803 64.3797 56.2705 64.2905 56.2705C64.2905 56.2705 64.2459 56.2705 64.2014 56.2254C64.1568 56.2254 64.1122 56.2705 64.0676 56.4057C63.9784 56.541 63.9338 56.5861 63.8 56.5861L63.6216 56.541C63.577 56.541 63.4878 56.5861 63.3987 56.6311C63.3095 56.6762 63.2203 56.7664 63.1311 56.9467C62.9973 57.1271 62.8189 57.2172 62.5959 57.2172C62.4622 57.2172 62.3284 57.1721 62.1946 57.082C62.0608 56.9467 61.9716 56.7213 61.9716 56.4057C61.9716 56.3607 61.9716 56.3156 61.9716 56.2254C61.9716 56.0902 61.9716 55.9549 62.0162 55.7295C62.0608 55.3238 62.0608 55.0533 62.1054 54.873C62.1054 54.8279 62.1054 54.7828 62.1054 54.7828C62.0608 54.7828 62.0608 54.7828 62.0608 54.8279L61.7041 55.7295C61.6595 55.7746 61.6595 55.9098 61.6595 56.0451C61.6595 56.2254 61.6595 56.3607 61.6149 56.4508C61.6149 56.541 61.6149 56.6311 61.6149 56.7664C61.6149 57.2172 61.5703 57.4877 61.5703 57.5779C61.5703 57.668 61.5257 57.7582 61.5257 57.8033C61.4811 57.9385 61.4365 58.0287 61.3473 58.1189C61.2581 58.209 61.1689 58.209 61.0351 58.209C60.9013 58.209 60.8568 58.1639 60.8122 58.1639C60.723 58.1639 60.6784 58.1189 60.6338 58.1189C60.5446 58.1189 60.4108 58.1639 60.277 58.209C60.0986 58.2992 59.9203 58.4344 59.7865 58.6148C59.6527 58.7951 59.5635 58.9303 59.5189 59.0205C59.4743 59.1107 59.4743 59.1557 59.5189 59.1557C59.5189 59.1557 59.5635 59.1557 59.6081 59.1557C59.8311 59.0205 60.0541 58.9754 60.3216 58.9754C60.3662 58.9754 60.4554 59.0205 60.5892 59.0205C60.6784 59.0205 60.8122 59.0205 60.9459 58.9754C61.0797 58.9303 61.2135 58.8402 61.3473 58.7049C61.4365 58.5697 61.5257 58.4344 61.6149 58.2992C61.7486 58.0738 61.7932 57.9385 61.8378 57.9385C61.8378 57.9385 61.8378 57.9385 61.8824 57.9385C62.0162 58.1189 62.15 58.209 62.373 58.209C62.5959 58.209 62.8189 58.0738 62.9973 57.7582C63.1757 57.4426 63.3095 57.3074 63.4878 57.2172C63.5324 57.2172 63.6216 57.2172 63.7108 57.2172C63.8 57.2172 63.9338 57.082 64.1568 56.8566C64.2014 56.8115 64.2905 56.8115 64.3351 56.7664C64.3797 56.7664 64.4689 56.7213 64.5135 56.6311C64.5581 56.5861 64.6473 56.4959 64.7365 56.4508C64.8257 56.4057 64.8703 56.2705 64.9149 56.1803C64.9595 56.0451 65.0041 55.9098 65.0486 55.7746C65.0041 55.5943 65.0041 55.5492 64.9595 55.5041C65.0041 55.5041 65.0041 55.5041 64.9595 55.5041ZM62.373 60.2377C62.3284 60.2377 62.2838 60.373 62.15 60.5984C62.0608 60.8238 61.9716 60.959 61.9716 61.0041C61.9716 61.0492 61.9716 61.0943 62.0162 61.0943C62.0608 61.1393 62.15 61.1844 62.2392 61.2746C62.3284 61.3648 62.4176 61.3648 62.4176 61.3648C62.4622 61.3648 62.5514 61.2746 62.6405 61.0943C62.7297 60.9139 62.7743 60.7787 62.7743 60.6885C62.7743 60.5984 62.6851 60.5082 62.5959 60.373C62.5514 60.2828 62.4622 60.2377 62.373 60.2377ZM67.3676 56.4959C67.4122 56.541 67.4568 56.541 67.4568 56.541C67.5459 56.541 67.6797 56.3607 67.8581 56.0451C67.9473 56.0902 67.9919 56.1803 68.0811 56.2705C68.1703 56.3607 68.2149 56.4057 68.2595 56.4057C68.3041 56.4057 68.3932 56.3156 68.4824 56.1803C68.6162 56 68.6608 55.8648 68.6608 55.7746C68.6608 55.6844 68.6162 55.5492 68.4824 55.459C68.3932 55.3689 68.3041 55.2787 68.2149 55.2787C68.1703 55.2787 68.1257 55.3238 68.0811 55.459C67.9919 55.5943 67.9473 55.6844 67.8581 55.8197C67.8135 55.7295 67.7243 55.6393 67.6351 55.5492C67.5459 55.459 67.4568 55.4139 67.4122 55.4139C67.3676 55.4139 67.323 55.5492 67.1892 55.7746C67.0554 56 67.0108 56.1353 67.0108 56.1803C67.0108 56.1803 67.0554 56.2254 67.1446 56.3156C67.2784 56.4057 67.323 56.4508 67.3676 56.4959ZM75.9743 52.2582C75.9743 52.2582 75.8851 52.3484 75.7959 52.4836C75.7068 52.5738 75.6622 52.709 75.573 52.7992C75.5284 52.709 75.4392 52.6189 75.35 52.5287C75.2162 52.4385 75.1716 52.3934 75.0824 52.3934C75.0378 52.3934 74.9487 52.5287 74.8149 52.7541C74.6811 53.0246 74.5919 53.1598 74.5919 53.2049C74.5919 53.2049 74.6811 53.2951 74.8149 53.4303C74.9487 53.5656 75.0378 53.6107 75.0824 53.6107C75.1716 53.6107 75.35 53.4303 75.5284 53.0697C75.6176 53.1148 75.7068 53.2049 75.7959 53.2951C75.8851 53.3852 75.9297 53.4303 75.9743 53.4303C76.0189 53.4303 76.1081 53.3402 76.2419 53.1598C76.3757 52.9795 76.4203 52.8443 76.4203 52.709C76.4203 52.6189 76.3757 52.4836 76.2419 52.3934C76.1527 52.3033 76.0189 52.2582 75.9743 52.2582ZM76.0189 55.0082C75.9743 55.0082 75.9743 55.0533 75.9297 55.0984C75.8851 55.1434 75.8405 55.2336 75.7959 55.2787C75.7068 55.2787 75.6176 55.2787 75.5284 55.3238C75.4392 55.3689 75.3054 55.4139 75.2162 55.5492C75.127 55.6844 75.0378 55.7746 74.9932 55.8197C74.9041 55.9098 74.8595 56 74.8595 56.0451C74.7703 56.1353 74.7257 56.1803 74.6365 56.1803C74.6365 56.1803 74.5919 56.1803 74.4581 56.1803C74.3243 56.1803 74.1905 56.1803 74.1013 56.2254C74.0568 56.2254 74.0568 56.2254 74.0122 56.2254C73.9676 56.2254 73.923 56.2254 73.923 56.2705C73.7446 56.3607 73.5216 56.4508 73.2986 56.6311C73.0757 56.8115 72.8527 56.9918 72.6297 57.3074C72.5405 57.3975 72.3622 57.668 72.0946 58.0738C72.0054 58.209 71.9608 58.2992 71.8716 58.4344C71.6932 58.7049 71.5149 58.9754 71.3365 59.1557C71.1581 59.3811 70.9351 59.5615 70.7568 59.6967C70.5784 59.832 70.4 59.9672 70.2662 60.0574C70.1324 60.1475 70.0432 60.2377 69.9986 60.2828C69.9541 60.3279 69.9541 60.373 69.9541 60.373C69.9986 60.418 70.0432 60.418 70.0878 60.373C70.1324 60.373 70.1324 60.373 70.177 60.3279H70.2216C70.3554 60.2828 70.4892 60.1926 70.623 60.1475C70.7568 60.0574 70.8905 59.9672 71.0243 59.8771C71.1581 59.7869 71.3365 59.6066 71.5595 59.3811C71.7824 59.1557 72.0054 58.8853 72.2284 58.6148C72.4513 58.2992 72.6297 58.0738 72.7635 57.8484C72.8973 57.668 73.1203 57.4877 73.3432 57.3525C73.5216 57.2623 73.6108 57.2172 73.7 57.2172C73.7892 57.1721 73.8784 57.1721 73.9676 57.1721C74.0568 57.1721 74.1014 57.1721 74.1459 57.1721C74.3243 57.1721 74.4581 57.1271 74.5473 57.0369C74.6365 56.9467 74.8149 56.6762 75.0824 56.2254C75.1716 56.0902 75.2162 56.0451 75.3054 56C75.35 55.9549 75.4392 55.9098 75.4838 55.9098C75.5284 55.9098 75.6176 55.8648 75.6622 55.8648C75.7514 55.8648 75.8851 55.6844 76.0189 55.3689C76.0635 55.2336 76.0635 55.1885 76.0635 55.1434C76.0635 55.0082 76.0635 54.9631 76.0189 55.0082ZM75.3946 52.3484C75.4838 52.4385 75.573 52.4836 75.573 52.4836C75.6176 52.4836 75.7067 52.3934 75.7959 52.2131C75.8851 52.0328 75.9743 51.8975 75.9743 51.7623C75.9743 51.627 75.9297 51.5369 75.7959 51.4016C75.6622 51.3115 75.573 51.2213 75.4838 51.2213C75.4392 51.2213 75.35 51.3566 75.2608 51.582C75.127 51.8074 75.0824 51.9877 75.0824 51.9877C75.0824 52.0328 75.127 52.0779 75.1716 52.0779C75.2162 52.2131 75.3054 52.2582 75.3946 52.3484ZM70.3108 57.9836C70.3554 57.9385 70.4 57.8934 70.4446 57.8033C70.4892 57.7582 70.5338 57.7131 70.5784 57.623C70.6676 57.5328 70.7122 57.4426 70.8013 57.3525C70.8905 57.2623 70.9351 57.2623 71.0243 57.2172C71.1135 57.2172 71.2027 57.1721 71.2919 57.1721C71.2919 57.1721 71.3365 57.1721 71.3811 57.1721C71.4703 57.1721 71.5149 57.1271 71.6041 57.0369C71.6932 56.9467 71.7824 56.8115 71.827 56.6762C71.9162 56.541 71.9608 56.4057 72.0054 56.2705C72.05 56.1353 72.0946 55.9549 72.0946 55.7746C72.0946 55.5943 72.1392 55.0984 72.1838 54.2869C72.1838 54.1516 72.1838 53.9713 72.2284 53.8361C72.2284 53.7008 72.2284 53.5656 72.2284 53.4303C72.2284 53.3402 72.2284 53.3402 72.2284 53.2951C72.2284 53.25 72.1838 53.25 72.1838 53.2951L72.0054 53.791L71.7824 54.4672V55.7746C71.7824 55.8648 71.7824 56 71.7378 56.1353C71.7378 56.2705 71.6932 56.3607 71.6932 56.4508C71.6487 56.5861 71.6041 56.6311 71.5149 56.5861C71.4257 56.541 71.3811 56.541 71.2919 56.541C71.1581 56.5861 71.0243 56.6311 70.9351 56.7213C70.8905 56.7664 70.8459 56.8566 70.7568 56.9467C70.6676 57.0369 70.623 57.082 70.623 57.1271C70.5338 57.2172 70.4446 57.3074 70.2662 57.3525C70.1324 57.4426 69.9541 57.4877 69.7311 57.5779C69.3743 57.668 69.1068 57.7582 68.8838 57.8033C68.6608 57.8484 68.3486 57.8484 67.9919 57.8934C67.6351 57.8934 67.2784 57.8934 67.0108 57.8934C66.6541 57.8934 66.3865 57.8484 66.2081 57.8033C66.0297 57.7582 65.8959 57.7131 65.8068 57.623C65.7176 57.5328 65.673 57.4426 65.673 57.3074C65.673 57.1721 65.6284 57.082 65.5838 57.082C65.5392 57.082 65.4946 57.2172 65.4946 57.4426C65.45 57.668 65.45 57.8484 65.45 58.0738C65.45 58.3893 65.5392 58.6148 65.7622 58.75C65.8959 58.8402 66.0743 58.8853 66.3419 58.8853C66.5649 58.9303 66.7878 58.9303 67.0554 58.9303C67.7243 58.9303 68.3486 58.8853 68.8838 58.75C69.4189 58.6148 69.8649 58.4344 70.1324 58.2541C70.1324 58.1639 70.2216 58.0738 70.3108 57.9836ZM65.7176 54.1516C65.8068 54.1967 65.8514 54.2869 65.9851 54.377C66.0743 54.4672 66.1189 54.5123 66.1635 54.5123C66.2081 54.5123 66.2973 54.4221 66.3865 54.2869C66.4757 54.1066 66.5649 53.9713 66.5649 53.8361C66.5649 53.7459 66.5203 53.6107 66.3865 53.5205C66.2527 53.4303 66.1635 53.3402 66.1189 53.3402C66.1189 53.3402 66.0297 53.4303 65.9405 53.5656C65.8959 53.6557 65.8068 53.791 65.7622 53.8811C65.7176 53.791 65.673 53.7008 65.5392 53.6107C65.45 53.5205 65.3608 53.4754 65.3162 53.4754C65.2716 53.4754 65.1824 53.6107 65.0932 53.8361C64.9595 54.0615 64.9149 54.2418 64.9149 54.2418C64.9149 54.2418 65.0041 54.332 65.1378 54.4672C65.2716 54.6025 65.3608 54.6475 65.4054 54.6475C65.4054 54.6926 65.5392 54.5123 65.7176 54.1516Z" fill="#1D93D1"/>
</svg>
