<svg viewBox="0 0 86 70" fill="none" xmlns="http://www.w3.org/2000/svg">
<path fill-rule="evenodd" clip-rule="evenodd" d="M19.1056 44.8629H16.0381L14.6346 42.4619H19.1056C21.1474 42.4619 22.8025 43.9669 22.8025 45.8233V49.2705H20.1619V45.8233C20.1619 45.2929 19.689 44.8629 19.1056 44.8629Z" fill="#0B70B8"/>
<path fill-rule="evenodd" clip-rule="evenodd" d="M32.5515 44.514C32.5495 43.3695 33.5693 42.4408 34.8279 42.4408H40.1742L39.47 43.6413H34.8279C34.2993 43.6413 33.871 44.0314 33.8718 44.5121C33.8727 44.9916 34.3005 45.38 34.8279 45.38H39.0162C40.2127 45.38 41.1822 46.263 41.1801 47.351C41.1781 48.4364 40.2098 49.3153 39.0162 49.3153H32.8212V48.1148H39.0162C39.4815 48.1148 39.859 47.7721 39.8598 47.3489C39.8606 46.9248 39.4827 46.5805 39.0162 46.5805H34.8279C33.5721 46.5805 32.5535 45.6558 32.5515 44.514Z" fill="#0B70B8"/>
<path fill-rule="evenodd" clip-rule="evenodd" d="M42.1966 45.7586C42.1962 45.4932 42.4328 45.2778 42.7247 45.2778H50.9227L50.2243 46.4783H43.5187L43.522 48.1148H50.9227V49.3153H42.9024L42.2 48.1148L42.1966 45.7586Z" fill="#0B70B8"/>
<path fill-rule="evenodd" clip-rule="evenodd" d="M52.2684 42.4663H58.6234C59.997 42.4663 61.1106 43.4788 61.1106 44.7279C61.1106 45.9769 59.997 46.9894 58.6234 46.9894H53.6018V49.3668L52.2815 48.7295V46.2487C52.2815 45.9948 52.5079 45.7889 52.7871 45.7889H58.6234C59.2679 45.7889 59.7903 45.3139 59.7903 44.7279C59.7903 44.1419 59.2679 43.6668 58.6234 43.6668H52.2684V42.4663Z" fill="#0B70B8"/>
<path fill-rule="evenodd" clip-rule="evenodd" d="M42.2372 42.4408L50.9215 42.4408L50.2073 43.6413L42.2372 43.6413V42.4408Z" fill="#0B70B8"/>
<path d="M4 32.0302V35.3678C4 38.0199 6.36448 40.1698 9.28121 40.1698H28.4784C30.0554 40.1698 31.471 39.5413 32.4387 38.5448C33.4064 39.5413 34.8219 40.1698 36.399 40.1698H61.0112V37.7688H36.399C34.9627 37.7688 33.7943 36.7262 33.7592 35.4279C33.7594 35.4079 33.7596 35.3879 33.7596 35.3678V30.8023L31.1178 32.0419V35.3678C31.1178 35.3879 31.1179 35.4079 31.1182 35.4279C31.0831 36.7262 29.9146 37.7688 28.4784 37.7688H9.28121C7.82284 37.7688 6.6406 36.6939 6.6406 35.3678V30.8023L4 32.0302Z" fill="#0B70B8"/>
<path d="M57.6989 21.0752C57.8363 20.7968 58.1448 20.6212 58.4803 20.6303L65.5514 20.8232C66.4473 20.8477 67.1598 21.5148 67.1603 22.3297L67.1678 34.05L55.6003 28.8793C54.7985 28.5209 54.453 27.6495 54.8189 26.9084L57.6989 21.0752Z" fill="#0B70B8"/>
<path d="M78.9413 39.6364C78.8024 39.9143 78.493 40.0886 78.1575 40.078L71.0875 39.8552C70.1917 39.8269 69.4827 39.1568 69.4863 38.3419L69.5389 26.6216L81.0798 31.8413C81.8797 32.2031 82.2208 33.076 81.8511 33.8155L78.9413 39.6364Z" fill="#7FCBE7"/>
</svg>
