<svg viewBox="0 0 210 104" fill="none" xmlns="http://www.w3.org/2000/svg">
<path d="M151.552 6.07563L151.581 30.3238L129.611 20.009C128.26 19.3748 127.658 17.7844 128.257 16.4194C129.675 13.1904 132.141 7.57907 133.415 4.65267C133.863 3.62247 134.891 2.96894 136.016 3.00114C139.21 3.09128 145.344 3.24259 148.874 3.32951C150.366 3.36493 151.552 4.58506 151.552 6.07563Z" fill="#0094D9"/>
<path d="M177.453 25.8207L155.482 15.5059L155.511 39.7541C155.511 41.2446 156.698 42.4648 158.19 42.5002C161.72 42.5871 167.854 42.7384 171.048 42.8286C172.173 42.8608 173.201 42.2072 173.649 41.177C174.922 38.2506 177.388 32.6393 178.807 29.4103C179.406 28.0453 178.807 26.4549 177.453 25.8207Z" fill="#44C7F4"/>
<path d="M92.9123 37.6788C90.6721 37.6788 88.8574 35.8663 88.8574 33.6288V24.0898L83.7032 26.6653V33.632C83.7032 35.8695 81.8885 37.682 79.6483 37.682H39.5241C38.1155 37.682 36.9744 36.5423 36.9744 35.1355V24.0931L31.8203 26.6685V33.632C31.8203 38.7122 35.943 42.833 41.0326 42.833H79.6483C82.256 42.833 84.6058 41.7448 86.2819 40.0064C87.958 41.7448 90.3079 42.833 92.9155 42.833H140.695V37.6852H92.9155L92.9123 37.6788Z" fill="#00529B"/>
<path d="M61.0004 47.6399H52.6777L55.2564 52.7877H61.0004C62.019 52.7877 62.8442 53.6119 62.8442 54.6292V61.9693H67.9983V54.6292C67.9983 50.7692 64.8652 47.6367 60.9972 47.6367L61.0004 47.6399Z" fill="#00529B"/>
<path d="M120.378 50.3107L121.718 47.6387H104.764V50.3107H120.378Z" fill="#00529B"/>
<path d="M107.44 59.2958V56.1408H120.414L121.752 53.4688H104.762V60.635C104.762 61.3723 105.361 61.9711 106.099 61.9711H121.794V59.299H107.44V59.2958Z" fill="#00529B"/>
<path d="M98.6335 53.5836H90.5687C89.6662 53.5836 88.9312 52.8495 88.9312 51.9481C88.9312 51.0467 89.6662 50.3127 90.5687 50.3127H101.019L102.356 47.6406H90.5687C88.1899 47.6406 86.2559 49.5722 86.2559 51.9481C86.2559 54.324 88.1899 56.2556 90.5687 56.2556H98.6335C99.4716 56.2556 100.155 56.9381 100.155 57.7752C100.155 58.6122 99.4716 59.2947 98.6335 59.2947H87.5935L86.2559 61.9668H98.6367C100.951 61.9668 102.837 60.0867 102.837 57.7719C102.837 55.4572 100.954 53.5771 98.6367 53.5771L98.6335 53.5836Z" fill="#00529B"/>
<path d="M140.661 52.1703C140.487 49.5883 138.221 47.6406 135.632 47.6406H123.732V50.3127H135.742C136.79 50.3127 137.74 51.0177 137.95 52.0415C138.237 53.4483 137.163 54.691 135.803 54.691H125.066C124.328 54.691 123.729 55.2898 123.729 56.0271V61.9668H123.751L126.407 60.6404V57.3631H135.803C138.598 57.3631 140.851 55.0001 140.661 52.167V52.1703Z" fill="#00529B"/>
<path d="M164.852 95.3947L163.714 94.2577L164.852 93.1207L165.973 94.2396L167.093 93.1207L168.231 94.2577L167.093 95.3947L165.973 94.2758L164.852 95.3947ZM181.742 90.036L180.604 88.899L179.465 90.036L180.604 91.173L181.742 90.036ZM197.502 95.7389C197.502 94.9009 197.158 94.0584 196.55 93.4197C195.947 92.8173 195.099 92.4685 194.228 92.4685H191.937V94.0856H194.228C194.699 94.0856 195.071 94.2351 195.398 94.5476C195.715 94.8738 195.883 95.286 195.883 95.7389C195.883 96.1919 195.715 96.5996 195.407 96.9212C195.076 97.2428 194.699 97.3923 194.228 97.3923H191.937V99.0094H194.228C195.099 99.0094 195.947 98.6606 196.559 98.0491C197.158 97.4195 197.502 96.5769 197.502 95.7389ZM205.816 101.41L204.709 100.305L203.602 101.41L202.496 100.305L201.357 101.442L202.496 102.579L203.602 101.474L204.709 102.579L205.816 101.474L206.922 102.579L208.061 101.442L206.922 100.305L205.816 101.41ZM188.722 99.0049H190.332V90.0405L188.722 90.8196V99.0049ZM182.708 92.8625C182.395 92.5908 182.082 92.473 181.66 92.473H179.901C179.025 92.473 178.182 92.8173 177.597 93.4197C176.971 94.0267 176.712 94.6246 176.64 95.6257V95.6574L176.667 95.9201H178.232V95.7163C178.232 95.2814 178.399 94.8828 178.721 94.5612C179.048 94.2441 179.456 94.0765 179.901 94.0765H181.424C181.606 94.0765 181.697 94.1082 181.801 94.2034H181.805L183.638 95.7435L181.81 97.2609C181.692 97.3651 181.597 97.3968 181.42 97.3968H175.07C174.621 97.3968 174.231 97.2337 173.905 96.9076C173.578 96.5815 173.415 96.1874 173.415 95.7299V93.1253L171.805 93.9044V95.7299C171.805 96.1828 171.642 96.5769 171.329 96.9076C171.002 97.2337 170.608 97.3968 170.15 97.3968H161.895C161.446 97.3968 161.056 97.2337 160.73 96.9076C160.403 96.5815 160.24 96.1874 160.24 95.7299V93.1343L158.63 93.9134V95.7299C158.63 96.5769 158.974 97.4195 159.582 98.04C160.194 98.6516 161.038 99.0049 161.895 99.0049H170.15C171.007 99.0049 171.846 98.6561 172.458 98.0446C172.512 97.9902 172.562 97.9359 172.612 97.8815C172.658 97.9359 172.708 97.9902 172.757 98.04C173.37 98.6516 174.213 99.0049 175.07 99.0049H181.651C182.068 99.0049 182.39 98.8871 182.694 98.6244L185.193 96.4999H187.289V94.8919L185.171 94.9326L182.703 92.8716L182.708 92.8625ZM207.38 93.9134V95.7435C207.38 96.1964 207.212 96.6041 206.904 96.9257C206.573 97.2473 206.196 97.3968 205.725 97.3968H202.378C201.906 97.3968 201.534 97.2473 201.208 96.9348C200.89 96.6086 200.722 96.1964 200.722 95.7435V93.1434L199.108 93.927L199.121 95.8703V98.0536C199.121 98.2484 198.981 98.5836 198.836 98.7286L196.101 101.451L197.23 102.583L199.969 99.8701C200.101 99.7478 200.223 99.5847 200.355 99.3401L200.428 99.1997C200.527 98.9868 200.6 98.801 200.645 98.6244C200.654 98.5927 200.659 98.561 200.668 98.5338C201.18 98.8418 201.779 99.0094 202.382 99.0094H205.729C206.6 99.0094 207.448 98.6606 208.061 98.0491C208.659 97.4195 209.004 96.5769 209.004 95.7389V93.1253L207.385 93.9089L207.38 93.9134ZM48.1034 94.2622L46.965 93.1253L45.8267 94.2622L46.965 95.3992L48.1034 94.2622ZM50.421 97.4602C50.421 97.9177 50.2577 98.3118 49.9312 98.638C49.6046 98.9641 49.2146 99.1272 48.7656 99.1272H45.1464C44.6974 99.1272 44.3073 98.9641 43.9853 98.6425C43.6633 98.3118 43.5046 97.9132 43.5046 97.4557V93.1253L41.8945 93.9044V97.4557C41.8945 98.339 42.2438 99.1815 42.847 99.7659C43.4592 100.377 44.2983 100.731 45.1464 100.731H48.7656C49.6318 100.731 50.4709 100.377 51.065 99.7659C51.6773 99.1544 52.031 98.3118 52.031 97.4557V92.3643L50.421 93.1434V97.4557V97.4602ZM65.5055 95.7299C65.5055 97.5055 64.0043 99.0049 62.2265 99.0049C61.2922 99.0049 60.3851 98.5791 59.7638 97.8634C59.1334 98.5836 58.2263 99.0049 57.292 99.0049H56.9337V99.0094C56.063 99.0094 55.2194 98.6651 54.6116 98.0582C54.0039 97.4195 53.6592 96.5769 53.6592 95.7389V90.8378L55.2783 90.0541V95.7389C55.2783 96.1919 55.4461 96.6041 55.7636 96.9303C56.0856 97.2428 56.4621 97.3923 56.9337 97.3923H57.3011C58.2036 97.3923 58.9701 96.6313 58.9701 95.7253C58.9701 93.9587 60.4668 92.4639 62.2356 92.4639C64.0043 92.4639 65.5146 93.9587 65.5146 95.7253L65.5055 95.7299ZM63.8955 95.7299C63.8955 94.8194 63.1472 94.0765 62.2265 94.0765C61.3058 94.0765 60.5711 94.8194 60.5711 95.7299C60.5711 96.6403 61.3149 97.3968 62.2265 97.3968C63.1381 97.3968 63.8955 96.6313 63.8955 95.7299ZM83.47 95.7435C83.47 96.1964 83.3022 96.6041 82.9938 96.9257C82.6628 97.2473 82.2863 97.3968 81.8146 97.3968C80.903 97.3968 80.1592 96.6494 80.1592 95.7299V93.1434L78.5492 93.9225V95.7253C78.5492 96.6313 77.7827 97.3923 76.8802 97.3923C75.9777 97.3923 75.2248 96.6449 75.2248 95.7253V93.1253L73.6147 93.9044V95.7253C73.6147 96.6313 72.8483 97.3923 71.9457 97.3923H70.0001C69.5284 97.3923 69.1565 97.2428 68.8299 96.9303C68.5125 96.6041 68.3447 96.1919 68.3447 95.7389V90.0224L66.7255 90.806V95.7389C66.7255 96.5769 67.0702 97.4195 67.678 98.0582C68.2812 98.6606 69.1293 99.0094 70.0001 99.0094H70.186L71.9457 99.0049C72.88 99.0049 73.7871 98.5836 74.4175 97.8724C75.0388 98.5836 75.9414 99.0049 76.8802 99.0049C77.819 99.0049 78.7215 98.5836 79.352 97.8724C79.9733 98.5881 80.8804 99.0094 81.8146 99.0094C82.6854 99.0094 83.5335 98.6606 84.1458 98.0491C84.7445 97.4195 85.0892 96.5769 85.0892 95.7389V92.3643L83.47 93.1479V95.7389V95.7435ZM113.077 94.2622L111.938 93.1253L110.8 94.2622L111.938 95.3992L113.077 94.2622ZM114.982 95.7435C114.982 96.1964 114.814 96.6041 114.505 96.9257C114.174 97.2473 113.798 97.3968 113.326 97.3968H110.56C110.088 97.3968 109.716 97.2473 109.39 96.9348C109.072 96.6086 108.904 96.1964 108.904 95.7435V93.1524L107.285 93.9361V95.7435C107.285 96.1964 107.117 96.6041 106.809 96.9257C106.478 97.2473 106.101 97.3968 105.63 97.3968H103.163C102.691 97.3968 102.319 97.2473 101.992 96.9348C101.666 96.5996 101.494 96.1874 101.494 95.7389L101.471 95.3766V95.363C101.385 94.6473 101.058 93.9587 100.555 93.4288C99.9515 92.8263 99.1034 92.4775 98.2326 92.4775H95.0987L97.6793 89.9227L96.5364 88.7812L92.7675 92.5862V94.0946H98.2281C98.6997 94.0946 99.0716 94.2441 99.3982 94.5567C99.7157 94.8828 99.8835 95.295 99.8835 95.748C99.8835 96.201 99.7157 96.6086 99.4072 96.9303C99.0762 97.2519 98.6997 97.4013 98.2281 97.4013H89.9465C89.4839 97.4013 89.1029 97.2473 88.7809 96.9303C88.4589 96.6086 88.2911 96.201 88.2911 95.7525V93.1389L86.6811 93.918V95.7525C86.6811 96.5996 87.0258 97.4376 87.6244 98.0582C88.214 98.6651 89.0621 99.0139 89.942 99.0139H96.1237L98.2235 99.0185C99.0943 99.0185 99.9424 98.6697 100.555 98.0582C100.6 98.0083 100.645 97.9585 100.686 97.9087C100.732 97.963 100.781 98.0174 100.827 98.0672C101.43 98.6697 102.278 99.0185 103.149 99.0185H105.616C106.487 99.0185 107.335 98.6697 107.947 98.0582C107.993 98.0083 108.038 97.9585 108.079 97.9087C108.124 97.963 108.174 98.0174 108.219 98.0672C108.823 98.6697 109.671 99.0185 110.542 99.0185H113.308C114.179 99.0185 115.027 98.6697 115.639 98.0582C116.238 97.4285 116.583 96.586 116.583 95.748V93.157L114.963 93.9406V95.748L114.982 95.7435ZM152.181 95.7435C152.181 96.1964 152.013 96.6041 151.704 96.9257C151.373 97.2473 150.997 97.3968 150.525 97.3968H149.985C149.514 97.3968 149.142 97.2473 148.815 96.9348C148.493 96.6041 148.33 96.1964 148.325 95.7163C148.316 94.8873 147.972 94.0539 147.378 93.4288C146.774 92.8263 145.926 92.4775 145.056 92.4775H142.91L145.491 89.9227L144.348 88.7812L140.484 92.6814V94.0946H145.051C145.523 94.0946 145.895 94.2441 146.221 94.5567C146.539 94.8828 146.706 95.295 146.706 95.748C146.706 96.201 146.539 96.6086 146.23 96.9257C145.899 97.2473 145.523 97.3968 145.051 97.3968H139.25C138.788 97.3968 138.407 97.2428 138.085 96.9257C137.772 96.6132 137.608 96.2146 137.604 95.7435L137.568 93.1434L135.985 93.9089V95.7435C135.985 96.1964 135.817 96.6041 135.509 96.9257C135.178 97.2473 134.801 97.3968 134.329 97.3968H130.982C130.511 97.3968 130.139 97.2473 129.812 96.9348C129.495 96.6086 129.327 96.1964 129.327 95.7435V93.1434L127.712 93.927L127.726 95.8703V98.0536C127.726 98.2529 127.585 98.5836 127.445 98.7286L124.719 101.451L125.848 102.583L128.579 99.8701C128.71 99.7478 128.833 99.5756 128.964 99.3355L129.032 99.2042C129.132 98.9913 129.204 98.8056 129.25 98.6289C129.259 98.5972 129.263 98.5655 129.272 98.5383C129.785 98.8463 130.384 99.0139 130.987 99.0139H134.334C135.205 99.0139 136.053 98.6651 136.665 98.0536C136.71 98.0038 136.756 97.954 136.801 97.8996C136.847 97.954 136.892 98.0038 136.937 98.0491C137.527 98.6561 138.375 99.0049 139.255 99.0049H142.956L145.056 99.0094C145.926 99.0094 146.774 98.6606 147.387 98.0491C147.432 97.9993 147.477 97.9494 147.518 97.8996C147.564 97.954 147.613 98.0083 147.659 98.0582C148.262 98.6606 149.11 99.0094 149.981 99.0094H150.521C151.391 99.0094 152.239 98.6606 152.852 98.0491C153.45 97.4195 153.795 96.5769 153.795 95.7389V90.0224L152.176 90.806V95.7389L152.181 95.7435ZM124.755 98.0265C124.755 98.2167 124.728 98.4205 124.674 98.6289C124.628 98.801 124.556 98.9958 124.456 99.2042L124.388 99.3401C124.256 99.5802 124.134 99.7478 124.002 99.8746L121.272 102.579L120.143 101.446L122.869 98.7331C122.869 98.7331 122.891 98.7104 122.9 98.7014C122.46 98.9097 121.971 99.0185 121.485 99.0185C120.615 99.0185 119.771 98.6742 119.163 98.0672C118.555 97.4285 118.211 96.586 118.211 95.748C118.211 94.91 118.555 94.072 119.154 93.4378C119.766 92.8263 120.615 92.4775 121.485 92.4775C122.356 92.4775 123.2 92.8263 123.807 93.4288C124.415 94.0675 124.76 94.91 124.76 95.748V98.031L124.755 98.0265ZM123.136 95.7435C123.136 95.2905 122.968 94.8783 122.651 94.5521C122.329 94.2396 121.952 94.0901 121.481 94.0901C121.009 94.0901 120.633 94.2396 120.302 94.5612C119.993 94.8783 119.825 95.2905 119.825 95.7435C119.825 96.1964 119.993 96.6086 120.311 96.9348C120.633 97.2473 121.009 97.3968 121.481 97.3968C121.952 97.3968 122.329 97.2473 122.66 96.9257C122.968 96.6086 123.136 96.1964 123.136 95.7435ZM155.405 90.8015V99.0049H157.015V90.0269L155.405 90.806V90.8015ZM132.665 94.2804L133.785 95.3992L134.924 94.2622L133.785 93.1253L132.665 94.2441L131.545 93.1253L130.406 94.2622L131.545 95.3992L132.665 94.2804ZM104.378 101.424L103.258 100.305L102.119 101.442L103.258 102.579L104.378 101.46L105.498 102.579L106.637 101.442L105.498 100.305L104.378 101.424Z" fill="#00529B"/>
<path d="M38.9912 93.4151C38.388 92.8126 37.5399 92.4638 36.6691 92.4638H34.5239L37.1045 89.9091L35.9616 88.7676L32.0975 92.6677V94.081H36.6646C37.1362 94.081 37.5081 94.2304 37.8347 94.543C38.1522 94.8691 38.32 95.2813 38.32 95.7343C38.32 96.1873 38.1522 96.595 37.8438 96.9121C37.5127 97.2337 37.1362 97.3831 36.6646 97.3831H30.8639C30.4013 97.3831 30.0203 97.2291 29.6983 96.9121C29.3853 96.5995 29.2221 96.2009 29.2175 95.7298L29.1812 93.1297L27.5984 93.8952V95.7298C27.5984 96.1828 27.4306 96.5904 27.1222 96.9121C26.7911 97.2337 26.4147 97.3831 25.943 97.3831H22.6141C22.1651 97.3786 21.7932 97.2246 21.4757 96.9121C21.1628 96.5995 20.9995 96.2009 20.9949 95.7298L20.9813 95.7706C20.9813 95.7706 20.9813 95.7615 20.9813 95.757V92.3823L19.3622 93.166V95.757C19.3622 96.2099 19.1944 96.6176 18.886 96.9392C18.5549 97.2608 18.1785 97.4103 17.7068 97.4103C16.7952 97.4103 16.0514 96.6629 16.0514 95.7434V93.1569L14.4414 93.936V95.7388C14.4414 96.6448 13.6749 97.4058 12.7724 97.4058C11.8698 97.4058 11.1306 96.672 11.117 95.7615V93.1524L9.50692 93.9315V97.4647C9.50692 97.9222 9.34365 98.3163 9.0171 98.6424C8.69056 98.9686 8.30052 99.1316 7.85152 99.1316H4.23231C3.78331 99.1316 3.39327 98.9686 3.07126 98.6469C2.74925 98.3163 2.59052 97.9177 2.59052 97.4602V93.1297L0.980469 93.9088V97.4602C0.980469 98.3435 1.32969 99.186 1.93289 99.7703C2.54516 100.382 3.3842 100.735 4.23231 100.735H7.85152C8.71777 100.735 9.55681 100.382 10.1509 99.7703C10.5228 99.3989 10.7995 98.9368 10.9582 98.4431C11.4934 98.801 12.1193 99.0048 12.7678 99.0048C13.7021 99.0048 14.6092 98.5835 15.2396 97.8724C15.8609 98.5881 16.768 99.0093 17.7023 99.0093C18.5731 99.0093 19.4212 98.6605 20.0335 98.049C20.0879 97.9947 20.1332 97.9358 20.1831 97.8724C20.2285 97.9222 20.2693 97.972 20.3146 98.0218C20.8952 98.6198 21.7206 98.964 22.5869 98.9731V98.9821H25.9339C26.8047 98.9821 27.6528 98.6334 28.2651 98.0218C28.3105 97.972 28.3558 97.9222 28.4012 97.8678C28.4465 97.9222 28.4919 97.972 28.5372 98.0173C29.1268 98.6243 29.9749 98.9731 30.8548 98.9731H34.5556L36.6555 98.9776C38.4606 98.9776 39.9255 97.5145 39.9255 95.7117V95.68C39.9164 94.851 39.5717 94.0176 38.9776 93.3924L38.9912 93.4151Z" fill="#00529B"/>
<path d="M24.2781 101.882L25.3984 103L26.5367 101.864L25.3984 100.727L24.2781 101.845L23.1579 100.727L22.0195 101.864L23.1579 103L24.2781 101.882Z" fill="#00529B"/>
<path d="M15.9348 91.1365L14.8282 90.0312L13.7216 91.1365L12.6149 90.0312L11.4766 91.1682L12.6149 92.3097L13.7216 91.2045L14.8282 92.3097L15.9348 91.2045L17.0414 92.3097L18.1798 91.1682L17.0414 90.0312L15.9348 91.1365Z" fill="#00529B"/>
</svg>
