<svg width="88" height="79" viewBox="0 0 88 79" fill="none" xmlns="http://www.w3.org/2000/svg">
<path fill-rule="evenodd" clip-rule="evenodd" d="M17.6965 51.4429H14.3194L12.7743 48.5358H17.6965C19.9443 48.5358 21.7665 50.3579 21.7665 52.6057V56.7795H18.8594V52.6057C18.8594 51.9635 18.3387 51.4429 17.6965 51.4429Z" fill="#0B70B8"/>
<path fill-rule="evenodd" clip-rule="evenodd" d="M32.4994 51.0204C32.4971 49.6347 33.6198 48.5102 35.0055 48.5102H40.8913L40.1161 49.9638H35.0055C34.4235 49.9638 33.952 50.4361 33.9529 51.018C33.9539 51.5987 34.4248 52.0689 35.0055 52.0689H39.6164C40.9338 52.0689 42.001 53.1381 41.9988 54.4554C41.9965 55.7696 40.9306 56.8337 39.6164 56.8337H32.7962V55.3802H39.6164C40.1288 55.3802 40.5444 54.9653 40.5452 54.4529C40.5461 53.9393 40.13 53.5225 39.6164 53.5225H35.0055C33.623 53.5225 32.5016 52.4029 32.4994 51.0204Z" fill="#0B70B8"/>
<path fill-rule="evenodd" clip-rule="evenodd" d="M43.1178 52.5274C43.1174 52.206 43.3779 51.9452 43.6993 51.9452H52.7246L51.9557 53.3987H44.5733L44.5769 55.3802H52.7246V56.8337H43.8949L43.1216 55.3802L43.1178 52.5274Z" fill="#0B70B8"/>
<path fill-rule="evenodd" clip-rule="evenodd" d="M54.2061 48.5411H61.2024C62.7147 48.5411 63.9407 49.7671 63.9407 51.2794C63.9407 52.7917 62.7147 54.0176 61.2024 54.0176H55.6741V56.8962L54.2205 56.1244V53.1207C54.2205 52.8133 54.4697 52.5641 54.7772 52.5641H61.2024C61.9119 52.5641 62.4871 51.9889 62.4871 51.2794C62.4871 50.5698 61.9119 49.9946 61.2024 49.9946H54.2061V48.5411Z" fill="#0B70B8"/>
<path fill-rule="evenodd" clip-rule="evenodd" d="M43.1625 48.5102L52.7232 48.5102L51.937 49.9638L43.1625 49.9638V48.5102Z" fill="#0B70B8"/>
<path d="M1.06641 35.9052V39.9463C1.06641 43.1574 3.66951 45.7605 6.8806 45.7605H28.0152C29.7513 45.7605 31.3098 44.9995 32.3751 43.7929C33.4405 44.9995 34.9989 45.7605 36.7351 45.7605H63.8312V42.8534H36.7351C35.1539 42.8534 33.8675 41.591 33.8289 40.0191C33.8292 39.9949 33.8293 39.9706 33.8293 39.9463V34.4185L30.9209 35.9193V39.9463C30.9209 39.9706 30.9211 39.9949 30.9214 40.0191C30.8827 41.591 29.5964 42.8534 28.0152 42.8534H6.8806C5.27505 42.8534 3.9735 41.5519 3.9735 39.9463V34.4185L1.06641 35.9052Z" fill="#0B70B8"/>
<path d="M60.1824 22.6426C60.3337 22.3055 60.6733 22.0928 61.0427 22.1039L68.8267 22.3375C69.813 22.3671 70.5973 23.1748 70.5979 24.1615L70.6061 38.3523L57.8722 32.0917C56.9896 31.6577 56.6093 30.6027 57.0121 29.7054L60.1824 22.6426Z" fill="#0B70B8"/>
<path d="M83.5665 45.1224C83.4136 45.4588 83.073 45.6698 82.7037 45.657L74.9208 45.3872C73.9347 45.353 73.1542 44.5417 73.1582 43.555L73.2161 29.3643L85.9207 35.6842C86.8012 36.1222 87.1766 37.1791 86.7697 38.0744L83.5665 45.1224Z" fill="#7FCBE7"/>
</svg>
