<svg width="24" height="24" viewBox="0 0 24 24" fill="none" xmlns="http://www.w3.org/2000/svg">
<path fill-rule="evenodd" clip-rule="evenodd" d="M14.4298 2.706C13.4189 2.37993 12.3106 2.66572 11.5835 3.43996L2.71503 12.8826C1.84151 13.8126 1.65994 15.1968 2.26404 16.3207C2.98417 17.6605 4.10444 18.7421 5.46863 19.4148L5.57507 19.4673C6.79534 20.069 8.26553 19.8025 9.19697 18.8108L18.0407 9.39442C18.7214 8.66965 18.9408 7.62559 18.6092 6.68818C17.9465 4.81438 16.4477 3.35689 14.5561 2.74674L14.4298 2.706ZM12.7497 4.53532C13.0535 4.21192 13.5164 4.09255 13.9387 4.22875L14.065 4.26949C15.4818 4.72649 16.6044 5.81817 17.1008 7.22168C17.2328 7.59487 17.1455 8.01052 16.8745 8.29906L10.9112 14.6484L6.86829 10.7976L12.7497 4.53532ZM5.77291 11.9639L3.88131 13.9779C3.47853 14.4068 3.39482 15.045 3.67336 15.5632C4.2358 16.6096 5.11076 17.4544 6.17623 17.9798L6.28267 18.0323C6.87161 18.3227 7.58116 18.194 8.03069 17.7154L9.81582 15.8147L5.77291 11.9639Z" fill="#000000"/>
<path d="M10.4111 19.9118L11.9138 18.3118H18.0975C18.5394 18.3118 18.8975 18.6699 18.8975 19.1118C18.8975 19.5536 18.5394 19.9118 18.0975 19.9118H10.4111Z" fill="#000000"/>
</svg>
