<svg width="24" height="24" viewBox="0 0 24 24" fill="none" xmlns="http://www.w3.org/2000/svg">
<path fill-rule="evenodd" clip-rule="evenodd" d="M9.69358 20.5H13.8064C15.6442 20.5 17.0998 20.5 18.239 20.3469C19.4114 20.1892 20.3604 19.8571 21.1088 19.1088C21.8571 18.3604 22.1892 17.4114 22.3469 16.239C22.4373 15.5662 22.4744 14.7829 22.4895 13.8757C22.4964 13.8348 22.5 13.7928 22.5 13.75C22.5 13.7147 22.4976 13.6801 22.4929 13.6461C22.5 13.0804 22.5 12.4682 22.5 11.8064V10.75C22.5 10.3358 22.1642 10 21.75 10C21.3358 10 21 10.3358 21 10.75V11.75C21 12.1959 21.0019 11.3616 21 11.75L2.63976 11.8064C2.63786 11.418 2.5 12.1959 2.5 11.75C2.5 9.84318 2.50159 8.48851 2.63976 7.46085C2.77502 6.45476 3.02869 5.87511 3.4519 5.4519C3.87511 5.02869 4.45476 4.77502 5.46085 4.63976C6.48851 4.50159 7.84318 4.5 9.75 4.5H12.75C13.1642 4.5 13.5 4.16421 13.5 3.75C13.5 3.33579 13.1642 3 12.75 3H9.69359C7.85583 2.99998 6.40019 2.99997 5.26098 3.15314C4.08856 3.31076 3.13961 3.64288 2.39124 4.39124C1.64288 5.13961 1.31076 6.08855 1.15314 7.26098C0.999972 8.40019 0.999984 9.85582 1 11.6936V11.8064C0.999995 12.4682 0.999989 13.0804 1.00714 13.6461C1.00243 13.6801 1 13.7148 1 13.75C1 13.7928 1.00359 13.8348 1.01049 13.8757C1.02564 14.7829 1.06267 15.5662 1.15314 16.239C1.31076 17.4114 1.64288 18.3604 2.39124 19.1088C3.13961 19.8571 4.08856 20.1892 5.26098 20.3469C6.40019 20.5 7.85582 20.5 9.69358 20.5ZM2.5 13H21C20.9804 13.5867 20.9201 15.5937 20.8602 16.0392C20.725 17.0452 20.4713 17.6249 20.0481 18.0481C19.6249 18.4713 19.0452 18.725 18.0392 18.8602C17.0115 18.9984 15.6568 19 13.75 19H9.75C7.84318 19 6.48851 18.9984 5.46085 18.8602C4.45476 18.725 3.87511 18.4713 3.4519 18.0481C3.02869 17.6249 2.77502 17.0452 2.63976 16.0392C2.57987 15.5937 2.51956 13.5867 2.5 13ZM5 16.7892C5 17.2034 5.33579 17.5392 5.75 17.5392H9.75C10.1642 17.5392 10.5 17.2034 10.5 16.7892C10.5 16.3749 10.1642 16.0392 9.75 16.0392H5.75C5.33579 16.0392 5 16.3749 5 16.7892Z" fill="#000000"/>
<path fill-rule="evenodd" clip-rule="evenodd" d="M20.1944 5.29885L18.6959 5.29272L18.0156 4L20.1997 4.00893C21.1971 4.01301 22.0023 4.82484 21.9982 5.8222L21.9906 7.67416L20.7007 7.66889L20.7083 5.81693C20.7095 5.53197 20.4794 5.30002 20.1944 5.29885Z" fill="#000000"/>
</svg>
