<svg width="24" height="24" viewBox="0 0 24 24" fill="none" xmlns="http://www.w3.org/2000/svg">
<path d="M16 2C19.3137 2 22 4.68629 22 8V16C22 19.3137 19.3137 22 16 22H8C4.68629 22 2 19.3137 2 16V8C2 4.68629 4.68629 2 8 2H16ZM16.752 8.80566C16.3631 8.39605 15.7153 8.37871 15.3057 8.76758L10.4121 13.4141L8.72852 11.6582C8.33753 11.2506 7.68981 11.2379 7.28223 11.6289C6.87479 12.0198 6.8612 12.6666 7.25195 13.0742L9.63965 15.5645C10.0292 15.9705 10.6739 15.985 11.082 15.5977L16.7139 10.251C17.1234 9.86222 17.1405 9.21529 16.752 8.80566Z" fill="#000000"/>
</svg>
