<svg width="24" height="20" viewBox="0 0 24 20" fill="none" xmlns="http://www.w3.org/2000/svg">
<path d="M16.4657 1.83621C13.3754 1.52126 10.2612 1.52126 7.171 1.83621C5.43718 2.01292 4.11833 3.47302 4.11833 5.21582V5.32312C4.11833 5.54561 4.11833 5.55859 4.11833 5.55859L2.51833 6.5V5.32312V5.21582C2.51833 2.65218 4.45834 0.504396 7.00877 0.24446C10.2069 -0.0814865 13.4298 -0.0814865 16.6279 0.24446C19.1783 0.504396 21.1183 2.65218 21.1183 5.21582V6.95747L22.2731 5.81101C22.5867 5.49972 23.0932 5.50155 23.4045 5.8151C23.7158 6.12865 23.7139 6.63518 23.4004 6.94646L20.8643 9.46424C20.5524 9.77394 19.5183 9.90381 19.5183 9.46424C19.5183 9.42161 19.5183 7.10749 19.5183 7.10749V6.9925V5.21582C19.5183 3.47302 18.1995 2.01292 16.4657 1.83621Z" fill="#2E74E5"/>
<path d="M1.36287 13.3378L2.51833 12.1938L2.51833 13.901C2.51833 16.4647 4.45834 18.6124 7.00877 18.8724C10.2069 19.1983 13.4298 19.1983 16.6279 18.8724C19.1783 18.6124 21.1183 16.4647 21.1183 13.901V13.7937V12.6953L19.5183 13.7937V13.901C19.5183 15.6438 18.1995 17.1039 16.4657 17.2806C13.3754 17.5956 10.2612 17.5956 7.171 17.2806C5.43718 17.1039 4.11833 15.6438 4.11833 13.901L4.11833 12.1451V12.0476V10C4.11833 10 4.11833 10.0954 4.11833 9.96875C4.11833 9.84214 3.90578 9.68307 3.90578 9.68307C3.59401 9.37438 3.0918 9.37438 2.78004 9.68307L0.23713 12.2008C-0.0768365 12.5117 -0.0793514 13.0182 0.231513 13.3322C0.542377 13.6462 1.0489 13.6487 1.36287 13.3378Z" fill="#2E74E5"/>
<path fill-rule="evenodd" clip-rule="evenodd" d="M15.0108 5.85744L13.5123 5.85132L12.832 4.55859L15.0161 4.56752C16.0135 4.5716 16.8187 5.38343 16.8146 6.3808L16.807 8.23276L15.5171 8.22748L15.5247 6.37552C15.5259 6.09056 15.2958 5.85861 15.0108 5.85744Z" fill="#2E74E5"/>
</svg>
