<svg width="24" height="24" viewBox="0 0 24 24" fill="none" xmlns="http://www.w3.org/2000/svg">
<path fill-rule="evenodd" clip-rule="evenodd" d="M9.94358 1.25L10 1.25C10.4142 1.25 10.75 1.58579 10.75 2C10.75 2.41421 10.4142 2.75 10 2.75C8.09318 2.75 6.73851 2.75159 5.71085 2.88976C4.70476 3.02502 4.12511 3.27869 3.7019 3.7019C3.27869 4.12511 3.02502 4.70476 2.88976 5.71085C2.75159 6.73851 2.75 8.09318 2.75 10C2.75 10.4142 2.41421 10.75 2 10.75C1.58579 10.75 1.25 10.4142 1.25 10L1.25 9.94358C1.24998 8.10582 1.24997 6.65019 1.40314 5.51098C1.56076 4.33856 1.89288 3.38961 2.64124 2.64124C3.38961 1.89288 4.33856 1.56076 5.51098 1.40314C6.65019 1.24997 8.10582 1.24998 9.94358 1.25ZM2 13.25C2.41421 13.25 2.75 13.5858 2.75 14C2.75 15.9068 2.75159 17.2615 2.88976 18.2892C3.02502 19.2952 3.27869 19.8749 3.7019 20.2981C4.12511 20.7213 4.70476 20.975 5.71085 21.1102C6.73851 21.2484 8.09318 21.25 10 21.25C10.4142 21.25 10.75 21.5858 10.75 22C10.75 22.4142 10.4142 22.75 10 22.75H9.94359C8.10583 22.75 6.65019 22.75 5.51098 22.5969C4.33856 22.4392 3.38961 22.1071 2.64124 21.3588C1.89288 20.6104 1.56076 19.6614 1.40314 18.489C1.24997 17.3498 1.24998 15.8942 1.25 14.0564L1.25 14C1.25 13.5858 1.58579 13.25 2 13.25ZM22 13.25C22.4142 13.25 22.75 13.5858 22.75 14V14.0564C22.75 15.8942 22.75 17.3498 22.5969 18.489C22.4392 19.6614 22.1071 20.6104 21.3588 21.3588C20.6104 22.1071 19.6614 22.4392 18.489 22.5969C17.3498 22.75 15.8942 22.75 14.0564 22.75H14C13.5858 22.75 13.25 22.4142 13.25 22C13.25 21.5858 13.5858 21.25 14 21.25C15.9068 21.25 17.2615 21.2484 18.2892 21.1102C19.2952 20.975 19.8749 20.7213 20.2981 20.2981C20.7213 19.8749 20.975 19.2952 21.1102 18.2892C21.2484 17.2615 21.25 15.9068 21.25 14C21.25 13.5858 21.5858 13.25 22 13.25Z" fill="#2E74E5"/>
<g clip-path="url(#clip0_452_7469)">
<path fill-rule="evenodd" clip-rule="evenodd" d="M6.65625 8.07699C6.65625 7.28182 7.30086 6.63721 8.09603 6.63721C8.8912 6.63721 9.53582 7.28182 9.53582 8.07699C9.53582 8.87216 8.8912 9.51677 8.09603 9.51677C7.30086 9.51677 6.65625 8.87216 6.65625 8.07699ZM8.09603 7.42254C7.73459 7.42254 7.44159 7.71555 7.44159 8.07699C7.44159 8.43843 7.73459 8.73144 8.09603 8.73144C8.45747 8.73144 8.75048 8.43843 8.75048 8.07699C8.75048 7.71555 8.45747 7.42254 8.09603 7.42254Z" fill="#2E74E5"/>
<path fill-rule="evenodd" clip-rule="evenodd" d="M10.3212 8.07699C10.3212 7.28182 10.9658 6.63721 11.7609 6.63721C12.5561 6.63721 13.2007 7.28182 13.2007 8.07699C13.2007 8.87216 12.5561 9.51677 11.7609 9.51677C10.9658 9.51677 10.3212 8.87216 10.3212 8.07699ZM11.7609 7.42254C11.3995 7.42254 11.1065 7.71555 11.1065 8.07699C11.1065 8.43843 11.3995 8.73144 11.7609 8.73144C12.1224 8.73144 12.4154 8.43843 12.4154 8.07699C12.4154 7.71555 12.1224 7.42254 11.7609 7.42254Z" fill="#2E74E5"/>
<path fill-rule="evenodd" clip-rule="evenodd" d="M15.4258 6.63721C14.6307 6.63721 13.9861 7.28182 13.9861 8.07699C13.9861 8.87216 14.6307 9.51677 15.4258 9.51677C16.221 9.51677 16.8656 8.87216 16.8656 8.07699C16.8656 7.28182 16.221 6.63721 15.4258 6.63721ZM14.7714 8.07699C14.7714 7.71555 15.0644 7.42254 15.4258 7.42254C15.7873 7.42254 16.0803 7.71555 16.0803 8.07699C16.0803 8.43843 15.7873 8.73144 15.4258 8.73144C15.0644 8.73144 14.7714 8.43843 14.7714 8.07699Z" fill="#2E74E5"/>
</g>
<g clip-path="url(#clip1_452_7469)">
<path fill-rule="evenodd" clip-rule="evenodd" d="M6.65625 12.077C6.65625 11.2818 7.30086 10.6372 8.09603 10.6372C8.8912 10.6372 9.53582 11.2818 9.53582 12.077C9.53582 12.8722 8.8912 13.5168 8.09603 13.5168C7.30086 13.5168 6.65625 12.8722 6.65625 12.077ZM8.09603 11.4225C7.73459 11.4225 7.44159 11.7155 7.44159 12.077C7.44159 12.4384 7.73459 12.7314 8.09603 12.7314C8.45747 12.7314 8.75048 12.4384 8.75048 12.077C8.75048 11.7155 8.45747 11.4225 8.09603 11.4225Z" fill="#2E74E5"/>
<path fill-rule="evenodd" clip-rule="evenodd" d="M10.3212 12.077C10.3212 11.2818 10.9658 10.6372 11.7609 10.6372C12.5561 10.6372 13.2007 11.2818 13.2007 12.077C13.2007 12.8722 12.5561 13.5168 11.7609 13.5168C10.9658 13.5168 10.3212 12.8722 10.3212 12.077ZM11.7609 11.4225C11.3995 11.4225 11.1065 11.7155 11.1065 12.077C11.1065 12.4384 11.3995 12.7314 11.7609 12.7314C12.1224 12.7314 12.4154 12.4384 12.4154 12.077C12.4154 11.7155 12.1224 11.4225 11.7609 11.4225Z" fill="#2E74E5"/>
<path fill-rule="evenodd" clip-rule="evenodd" d="M15.4258 10.6372C14.6307 10.6372 13.9861 11.2818 13.9861 12.077C13.9861 12.8722 14.6307 13.5168 15.4258 13.5168C16.221 13.5168 16.8656 12.8722 16.8656 12.077C16.8656 11.2818 16.221 10.6372 15.4258 10.6372ZM14.7714 12.077C14.7714 11.7155 15.0644 11.4225 15.4258 11.4225C15.7873 11.4225 16.0803 11.7155 16.0803 12.077C16.0803 12.4384 15.7873 12.7314 15.4258 12.7314C15.0644 12.7314 14.7714 12.4384 14.7714 12.077Z" fill="#2E74E5"/>
</g>
<g clip-path="url(#clip2_452_7469)">
<path fill-rule="evenodd" clip-rule="evenodd" d="M6.65625 16.077C6.65625 15.2818 7.30086 14.6372 8.09603 14.6372C8.8912 14.6372 9.53582 15.2818 9.53582 16.077C9.53582 16.8722 8.8912 17.5168 8.09603 17.5168C7.30086 17.5168 6.65625 16.8722 6.65625 16.077ZM8.09603 15.4225C7.73459 15.4225 7.44159 15.7155 7.44159 16.077C7.44159 16.4384 7.73459 16.7314 8.09603 16.7314C8.45747 16.7314 8.75048 16.4384 8.75048 16.077C8.75048 15.7155 8.45747 15.4225 8.09603 15.4225Z" fill="#2E74E5"/>
<path fill-rule="evenodd" clip-rule="evenodd" d="M10.3212 16.077C10.3212 15.2818 10.9658 14.6372 11.7609 14.6372C12.5561 14.6372 13.2007 15.2818 13.2007 16.077C13.2007 16.8722 12.5561 17.5168 11.7609 17.5168C10.9658 17.5168 10.3212 16.8722 10.3212 16.077ZM11.7609 15.4225C11.3995 15.4225 11.1065 15.7155 11.1065 16.077C11.1065 16.4384 11.3995 16.7314 11.7609 16.7314C12.1224 16.7314 12.4154 16.4384 12.4154 16.077C12.4154 15.7155 12.1224 15.4225 11.7609 15.4225Z" fill="#2E74E5"/>
<path fill-rule="evenodd" clip-rule="evenodd" d="M15.4258 14.6372C14.6307 14.6372 13.9861 15.2818 13.9861 16.077C13.9861 16.8722 14.6307 17.5168 15.4258 17.5168C16.221 17.5168 16.8656 16.8722 16.8656 16.077C16.8656 15.2818 16.221 14.6372 15.4258 14.6372ZM14.7714 16.077C14.7714 15.7155 15.0644 15.4225 15.4258 15.4225C15.7873 15.4225 16.0803 15.7155 16.0803 16.077C16.0803 16.4384 15.7873 16.7314 15.4258 16.7314C15.0644 16.7314 14.7714 16.4384 14.7714 16.077Z" fill="#2E74E5"/>
</g>
<path fill-rule="evenodd" clip-rule="evenodd" d="M20.1944 3.29885L18.6959 3.29272L18.0156 2L20.1997 2.00893C21.1971 2.01301 22.0023 2.82484 21.9982 3.8222L21.9906 5.67416L20.7007 5.66889L20.7083 3.81693C20.7095 3.53197 20.4794 3.30002 20.1944 3.29885Z" fill="#2E74E5"/>
<defs>
<clipPath id="clip0_452_7469">
<rect width="11" height="4" fill="white" transform="translate(6.5 6)"/>
</clipPath>
<clipPath id="clip1_452_7469">
<rect width="11" height="4" fill="white" transform="translate(6.5 10)"/>
</clipPath>
<clipPath id="clip2_452_7469">
<rect width="11" height="4" fill="white" transform="translate(6.5 14)"/>
</clipPath>
</defs>
</svg>
