<svg width="24" height="24" viewBox="0 0 24 24" fill="none" xmlns="http://www.w3.org/2000/svg">
<path d="M9.83807 15.577C9.51524 15.2754 9.50681 14.7776 9.81923 14.4652L12.2841 12.0002L9.81911 9.5352C9.50669 9.22278 9.51513 8.72498 9.83795 8.42333C10.1608 8.12167 10.6758 8.1304 10.9882 8.44282L13.4149 10.8695L15.8417 8.44269C16.1541 8.13027 16.6691 8.12154 16.9919 8.42319C17.3147 8.72484 17.3232 9.22265 17.0108 9.53507L14.5456 12.0002L17.0107 14.4653C17.3231 14.7777 17.3146 15.2755 16.9918 15.5772C16.669 15.8788 16.154 15.8701 15.8416 15.5577L13.4149 13.131L10.9883 15.5575C10.6759 15.87 10.1609 15.8787 9.83807 15.577Z" fill="#000000"/>
<path fill-rule="evenodd" clip-rule="evenodd" d="M4.36014 5.45657C5.23724 4.05292 6.77562 3.20019 8.43078 3.2002L18.6952 3.20024C20.9333 3.20025 22.8213 4.86688 23.0989 7.08777C23.5067 10.35 23.5067 13.6504 23.0989 16.9127C22.8213 19.1336 20.9333 20.8002 18.6951 20.8002L8.43071 20.8001C6.77556 20.8001 5.23719 19.9474 4.3601 18.5437L0.867262 12.954C0.502578 12.3704 0.50258 11.6299 0.867266 11.0463L4.36014 5.45657ZM8.43077 4.8002C7.32734 4.80019 6.30175 5.36868 5.71701 6.30444L2.22414 11.8942C2.18362 11.959 2.18362 12.0413 2.22414 12.1061L5.71698 17.6959C6.3017 18.6316 7.32729 19.2001 8.43072 19.2001L18.6952 19.2002C20.1264 19.2002 21.3337 18.1344 21.5112 16.7142C21.9025 13.5837 21.9025 10.4167 21.5112 7.28623C21.3337 5.86602 20.1264 4.80024 18.6952 4.80024L8.43077 4.8002Z" fill="#000000"/>
</svg>
