<svg width="24" height="24" viewBox="0 0 24 24" fill="none" xmlns="http://www.w3.org/2000/svg">
<path fill-rule="evenodd" clip-rule="evenodd" d="M6.25 2.4998L7.75 1.5708C7.75 1.5708 7.75 2.28923 7.75 2.4998V3.26252C8.41203 3.24978 9.1414 3.24979 9.94358 3.2498H14.0564C14.8586 3.24979 15.588 3.24978 16.25 3.26252V2.4998L17.75 1.5708C17.75 1.5708 17.75 2.27767 17.75 2.4998V3.32688C18.0099 3.3467 18.2561 3.37162 18.489 3.40293C19.6614 3.56056 20.6104 3.89268 21.3588 4.64104C22.1071 5.3894 22.4392 6.33835 22.5969 7.51077C22.6472 7.88546 22.681 8.29438 22.7037 8.73987C22.7337 8.82086 22.75 8.90841 22.75 8.9998C22.75 9.06912 22.7406 9.13624 22.723 9.19996C22.75 10.0019 22.75 10.9125 22.75 11.9434V14.0562C22.75 15.894 22.75 17.3496 22.5969 18.4888C22.4392 19.6612 22.1071 20.6102 21.3588 21.3586C20.6104 22.1069 19.6614 22.439 18.489 22.5967C17.3498 22.7498 15.8942 22.7498 14.0564 22.7498H9.94359C8.10583 22.7498 6.65019 22.7498 5.51098 22.5967C4.33856 22.439 3.38961 22.1069 2.64124 21.3586C1.89288 20.6102 1.56076 19.6612 1.40314 18.4888C1.24997 17.3496 1.24998 15.894 1.25 14.0562V11.9434C1.24999 10.9125 1.24998 10.0019 1.27701 9.19997C1.25941 9.13624 1.25 9.06912 1.25 8.9998C1.25 8.90841 1.26634 8.82085 1.29627 8.73986C1.31895 8.29438 1.35276 7.88546 1.40314 7.51077C1.56076 6.33835 1.89288 5.3894 2.64124 4.64104C3.38961 3.89268 4.33856 3.56056 5.51098 3.40293C5.7439 3.37162 5.99006 3.3467 6.25 3.32688V2.4998ZM2.76309 9.74979C2.75032 10.4025 2.75 11.1458 2.75 11.9998V13.9998C2.75 15.9066 2.75159 17.2613 2.88976 18.2889C3.02502 19.295 3.27869 19.8747 3.7019 20.2979C4.12511 20.7211 4.70476 20.9748 5.71085 21.11C6.73851 21.2482 8.09318 21.2498 10 21.2498H14C15.9068 21.2498 17.2615 21.2482 18.2892 21.11C19.2952 20.9748 19.8749 20.7211 20.2981 20.2979C20.7213 19.8747 20.975 19.295 21.1102 18.2889C21.2484 17.2613 21.25 15.9066 21.25 13.9998V11.9998C21.25 11.1458 21.2497 10.4025 21.2369 9.74979H2.76309ZM21.1683 8.2498H2.83168C2.8477 8.06041 2.86685 7.88103 2.88976 7.71065C3.02502 6.70456 3.27869 6.12491 3.7019 5.7017C4.12511 5.27849 4.70476 5.02482 5.71085 4.88956C6.73851 4.75139 8.09318 4.7498 10 4.7498H14C15.9068 4.7498 17.2615 4.75139 18.2892 4.88956C19.2952 5.02482 19.8749 5.27849 20.2981 5.7017C20.7213 6.12491 20.975 6.70456 21.1102 7.71065C21.1331 7.88103 21.1523 8.06041 21.1683 8.2498Z" fill="#2E74E5"/>
<path fill-rule="evenodd" clip-rule="evenodd" d="M17.1944 13.2989L15.6959 13.2927L15.0156 12L17.1997 12.0089C18.1971 12.013 19.0023 12.8248 18.9982 13.8222L18.9906 15.6742L17.7007 15.6689L17.7083 13.8169C17.7095 13.532 17.4794 13.3 17.1944 13.2989Z" fill="#2E74E5"/>
</svg>
