<svg width="24" height="24" viewBox="0 0 24 24" fill="none" xmlns="http://www.w3.org/2000/svg">
<path d="M16.7508 5.00033C16.7513 5.41455 16.4158 5.7507 16.0016 5.75114L10.0016 5.75761C9.58741 5.75805 9.25126 5.42263 9.25081 5.00842C9.25037 4.5942 9.58579 4.25805 10 4.25761L16 4.2513C16.4142 4.25085 16.7504 4.58612 16.7508 5.00033Z" fill="#2E74E5"/>
<path fill-rule="evenodd" clip-rule="evenodd" d="M22.75 10.429C22.75 10.0148 22.3903 9.67898 21.976 9.67898C21.5618 9.67898 21.226 10.0148 21.226 10.429L22.2858 11.4675L22.75 10.429Z" fill="#2E74E5"/>
<path fill-rule="evenodd" clip-rule="evenodd" d="M15 5.74984C15.5254 5.74984 15.5795 5.74696 16.0016 5.75114L16 4.2513C15.5767 4.24715 15.536 4.24984 15.0416 4.24984L8.95841 4.24984C7.5892 4.24984 6.5043 4.24983 5.63794 4.33796C4.7503 4.42826 4.00926 4.61724 3.36104 5.05036C2.84239 5.39692 2.39707 5.84223 2.05052 6.36089C1.61739 7.00911 1.42841 7.75014 1.33812 8.63779C1.24998 9.50415 1.24999 10.589 1.25 11.9583V12.0414C1.24999 13.4106 1.24998 14.4955 1.33812 15.3619C1.42841 16.2495 1.61739 16.9906 2.05052 17.6388C2.39707 18.1575 2.84239 18.6028 3.36104 18.9493C4.00926 19.3824 4.7503 19.5714 5.63795 19.6617C6.5043 19.7499 7.5892 19.7499 8.9584 19.7498H15.0416C16.4108 19.7499 17.4957 19.7499 18.3621 19.6617C19.2497 19.5714 19.9907 19.3824 20.639 18.9493C21.1576 18.6028 21.6029 18.1575 21.9495 17.6388C22.3826 16.9906 22.5716 16.2495 22.6619 15.3619C22.75 14.4955 22.75 13.4106 22.75 12.0414V11.9583C22.75 11.7172 22.7509 11.479 22.7518 11.2453C22.7543 10.579 22.769 10.9798 22.75 10.429L22 10.4998L21.226 10.429C21.2496 11.1564 21.25 11.0567 21.25 11.9998C21.25 13.4199 21.2491 14.4285 21.1696 15.2101C21.0914 15.9791 20.9433 16.4448 20.7023 16.8054C20.4652 17.1603 20.1605 17.465 19.8056 17.7021C19.4449 17.9431 18.9793 18.0912 18.2102 18.1694C17.4287 18.2489 16.4201 18.2498 15 18.2498H9C7.57993 18.2498 6.57133 18.2489 5.78975 18.1694C5.02071 18.0912 4.55507 17.9431 4.1944 17.7021C3.83953 17.465 3.53484 17.1603 3.29772 16.8054C3.05673 16.4448 2.90865 15.9791 2.83042 15.2101C2.75091 14.4285 2.75 13.4199 2.75 11.9998C2.75 10.5798 2.75091 9.57117 2.83041 8.7896C2.90865 8.02056 3.05673 7.55492 3.29772 7.19424C3.53484 6.83937 3.83953 6.53468 4.1944 6.29757C4.55507 6.05657 5.02071 5.90849 5.78975 5.83026C6.57133 5.75075 7.57993 5.74984 9 5.74984L15 5.74984ZM9.75 11.9998C9.75 10.7572 10.7574 9.74985 12 9.74985C13.2426 9.74985 14.25 10.7572 14.25 11.9998C14.25 13.2425 13.2426 14.2498 12 14.2498C10.7574 14.2498 9.75 13.2425 9.75 11.9998ZM12 8.24985C9.92893 8.24985 8.25 9.92878 8.25 11.9998C8.25 14.0709 9.92893 15.7498 12 15.7498C14.0711 15.7498 15.75 14.0709 15.75 11.9998C15.75 9.92878 14.0711 8.24985 12 8.24985Z" fill="#2E74E5"/>
<path fill-rule="evenodd" clip-rule="evenodd" d="M20.7921 6.09866L19.2936 6.09253L18.6133 4.7998L20.7974 4.80873C21.7947 4.81281 22.5999 5.62464 22.5959 6.62201L22.5883 8.47397L21.2984 8.46869L21.3059 6.61673C21.3071 6.33177 21.077 6.09982 20.7921 6.09866Z" fill="#2E74E5"/>
<path d="M18 12H19" stroke="#2E74E5" stroke-linecap="round" stroke-linejoin="round"/>
<path d="M5 12H6" stroke="#2E74E5" stroke-linecap="round" stroke-linejoin="round"/>
</svg>
