<svg width="24" height="24" viewBox="0 0 24 24" fill="none" xmlns="http://www.w3.org/2000/svg">
<path fill-rule="evenodd" clip-rule="evenodd" d="M7.30779 1.25002C6.50682 1.24976 5.95722 1.24957 5.46873 1.38348C4.44312 1.66464 3.58512 2.36804 3.10828 3.3186C2.88117 3.77133 2.77356 4.3103 2.61674 5.09577L1.99714 8.19389C1.76553 9.35192 2.08288 10.4718 2.75074 11.3115L2.75074 14.0565C2.75073 15.8942 2.75071 17.3499 2.90388 18.4891C3.06151 19.6615 3.39362 20.6104 4.14199 21.3588C4.89035 22.1072 5.8393 22.4393 7.01172 22.5969C8.15094 22.7501 9.60657 22.7501 11.4443 22.75H12.5572C14.3949 22.7501 15.8506 22.7501 16.9898 22.5969C18.1622 22.4393 19.1111 22.1072 19.8595 21.3588C20.6079 20.6104 20.94 19.6615 21.0976 18.4891C21.2508 17.3499 21.2508 15.8942 21.2507 14.0565V11.3116C21.9186 10.4718 22.236 9.35193 22.0044 8.19389L21.3848 5.09576C21.2279 4.3103 21.1203 3.77133 20.8932 3.3186C20.4164 2.36804 19.5584 1.66464 18.5328 1.38348C18.0443 1.24957 17.4947 1.24976 16.6937 1.25002H7.30779ZM18.2692 12.75C18.7981 12.75 19.2979 12.6436 19.7507 12.4524V14C19.7507 15.9069 19.7492 17.2615 19.611 18.2892C19.4757 19.2953 19.222 19.8749 18.7988 20.2981C18.3756 20.7214 17.796 20.975 16.7899 21.1103C16.3444 21.1702 15.8375 21.2044 15.2507 21.224V18.4678C15.2508 18.028 15.2508 17.6487 15.2226 17.3374C15.1927 17.0082 15.1267 16.6823 14.9493 16.375C14.7518 16.033 14.4678 15.749 14.1257 15.5515C13.8185 15.3741 13.4926 15.3081 13.1634 15.2782C12.8521 15.25 12.4728 15.25 12.033 15.25H11.9685C11.5287 15.25 11.1494 15.25 10.8381 15.2782C10.5089 15.3081 10.183 15.3741 9.87574 15.5515C9.5337 15.749 9.24966 16.033 9.05219 16.375C8.87482 16.6823 8.80876 17.0082 8.77892 17.3374C8.75071 17.6487 8.75073 18.028 8.75074 18.4678L8.75074 21.224C8.16402 21.2044 7.65708 21.1702 7.21159 21.1103C6.2055 20.975 5.62586 20.7214 5.20265 20.2981C4.77944 19.8749 4.52577 19.2953 4.3905 18.2892C4.25234 17.2615 4.25074 15.9069 4.25074 14V12.4524C4.70362 12.6436 5.20341 12.75 5.73229 12.75C7.00621 12.75 8.1452 12.1217 8.83881 11.1459C9.54831 12.114 10.6939 12.75 12.0005 12.75C13.3073 12.75 14.453 12.1139 15.1625 11.1456C15.8561 12.1215 16.9952 12.75 18.2692 12.75ZM10.2507 21.2481C10.6391 21.25 11.0548 21.25 11.5007 21.25H12.5007C12.9466 21.25 13.3624 21.25 13.7507 21.2481V18.5C13.7507 18.0189 13.75 17.7083 13.7287 17.4728C13.7083 17.2477 13.6739 17.1659 13.6503 17.125C13.5844 17.011 13.4898 16.9164 13.3757 16.8505C13.3349 16.8269 13.2531 16.7925 13.028 16.7721C12.7925 16.7508 12.4819 16.75 12.0007 16.75C11.5196 16.75 11.2089 16.7508 10.9735 16.7721C10.7483 16.7925 10.6666 16.8269 10.6257 16.8505C10.5117 16.9164 10.4171 17.011 10.3512 17.125C10.3276 17.1659 10.2932 17.2476 10.2728 17.4728C10.2515 17.7083 10.2507 18.0189 10.2507 18.5V21.2481ZM8.6718 2.75005H7.41846C6.464 2.75005 6.13344 2.75661 5.86531 2.83011C5.24994 2.9988 4.73514 3.42084 4.44904 3.99118C4.32438 4.23968 4.25312 4.56254 4.06593 5.49846L3.46801 8.48807C3.18224 9.91693 4.27513 11.25 5.73229 11.25C6.91861 11.25 7.91191 10.3511 8.02996 9.17069L8.09855 8.48481L8.10252 8.44279L8.6718 2.75005ZM9.592 8.62505L10.1795 2.75005H13.8218L14.406 8.59204C14.5483 10.0152 13.4308 11.25 12.0005 11.25C10.5814 11.25 9.47009 10.0342 9.592 8.62505ZM18.1362 2.83011C17.8681 2.75661 17.5375 2.75005 16.583 2.75005H15.3295L15.9715 9.17069C16.0896 10.3511 17.0829 11.25 18.2692 11.25C19.7264 11.25 20.8193 9.91693 20.5335 8.48807L19.9356 5.49846C19.7484 4.56254 19.6771 4.23968 19.5525 3.99118C19.2664 3.42084 18.7516 2.9988 18.1362 2.83011Z" fill="#A7AEBF"/>
</svg>
