<svg width="24" height="24" viewBox="0 0 24 24" fill="none" xmlns="http://www.w3.org/2000/svg">
<path fill-rule="evenodd" clip-rule="evenodd" d="M14.1063 22.2868L3.00532 19.5327C2.92212 19.512 2.65878 19.4071 2.61641 19.3261C2.57405 19.2451 2.6292 18.8814 2.65249 18.7875L4.87001 9.8495C4.9869 9.38037 5.26392 8.97153 5.64031 8.71268C6.01669 8.45383 6.4617 8.36611 6.8777 8.46875L10.5463 9.37892C10.5912 9.39007 10.6384 9.3902 10.6845 9.37928C10.7306 9.36836 10.7746 9.34666 10.8136 9.31565C10.8525 9.28463 10.8855 9.24503 10.9103 9.19951C10.935 9.154 10.951 9.10365 10.9571 9.05186L11.461 4.77396C11.463 4.75687 11.4661 4.73989 11.4703 4.72315C11.6333 4.06597 12.021 3.49312 12.5482 3.1306C13.0753 2.76808 13.6986 2.6456 14.281 2.7901C14.8634 2.9346 15.3572 3.33424 15.6538 3.9011C15.9503 4.46797 16.0253 5.15562 15.8623 5.8128C15.8581 5.82954 15.8529 5.846 15.8467 5.86206L14.2926 9.8794C14.2738 9.92803 14.2643 9.98001 14.2649 10.0318C14.2655 10.0836 14.2762 10.1341 14.2961 10.1797C14.3161 10.2253 14.3448 10.2651 14.3805 10.2963C14.4162 10.3275 14.4579 10.3494 14.5029 10.3606L18.1714 11.2707C18.5872 11.3744 18.9396 11.66 19.1513 12.0647C19.3631 12.4695 19.4168 12.9604 19.3009 13.4298L17.7201 19.8015C17.7034 19.8685 17.6849 19.9349 17.6646 20.0005L17.0355 19.8445C17.0569 19.7792 17.0759 19.7129 17.0927 19.6458L18.0587 15.752L4.88268 12.483L3.30188 18.8547L5.18417 19.3217L6.15021 15.4279C6.17351 15.334 6.2289 15.2522 6.3042 15.2004C6.3795 15.1486 6.46855 15.1311 6.55175 15.1518C6.63495 15.1724 6.7055 15.2295 6.74786 15.3105C6.79022 15.3915 6.80094 15.4897 6.77764 15.5836L5.81159 19.4774L14.2819 21.5788C14.3758 21.602 14.4708 21.6183 14.5662 21.6277L14.3895 22.3401C14.2945 22.3277 14.2 22.3099 14.1063 22.2868ZM10.3706 10.0869L6.70205 9.17672C6.45245 9.11513 6.18545 9.16776 5.95962 9.32307C5.73379 9.47838 5.56757 9.72369 5.49744 10.0052L5.05833 11.7751L18.2344 15.044L18.6735 13.2741C18.743 12.9925 18.7108 12.698 18.5837 12.4551C18.4567 12.2122 18.2452 12.0409 17.9958 11.9787L14.3272 11.0685C14.1924 11.0351 14.0672 10.9693 13.9602 10.8757C13.8532 10.7821 13.7669 10.6628 13.707 10.5259C13.6472 10.3891 13.6153 10.2378 13.6134 10.0824C13.6116 9.92696 13.6398 9.77102 13.6963 9.62513L15.2406 5.63307C15.3505 5.16648 15.2929 4.68086 15.0805 4.28129C14.868 3.88173 14.5177 3.60035 14.1054 3.49805C13.6931 3.39576 13.2519 3.48077 12.8773 3.73468C12.5027 3.9886 12.2248 4.391 12.1038 4.85482L11.603 9.10589C11.5848 9.26125 11.5369 9.4123 11.4626 9.54882C11.3883 9.68534 11.2894 9.80413 11.1725 9.89716C11.0556 9.99019 10.9235 10.0553 10.7852 10.088C10.6469 10.1207 10.5055 10.1204 10.3706 10.0869Z" fill="#000000"/>
<path d="M16.0142 21.2374C15.5723 21.5413 15.0627 21.6767 14.5662 21.6277L14.3895 22.3401C15.0536 22.4272 15.7408 22.2554 16.3336 21.8477C16.9572 21.4188 17.4294 20.7611 17.6646 20.0005L17.0355 19.8445C16.8483 20.4174 16.4873 20.912 16.0142 21.2374Z" fill="#000000"/>
<path d="M14.5662 21.6277C15.0627 21.6767 15.5723 21.5413 16.0142 21.2374C16.4873 20.912 16.8483 20.4174 17.0355 19.8445M14.5662 21.6277C14.4708 21.6183 14.3758 21.602 14.2819 21.5788L5.81159 19.4774L6.77764 15.5836C6.80094 15.4897 6.79022 15.3915 6.74786 15.3105C6.7055 15.2295 6.63495 15.1724 6.55175 15.1518C6.46855 15.1311 6.3795 15.1486 6.3042 15.2004C6.2289 15.2522 6.17351 15.334 6.15021 15.4279L5.18417 19.3217L3.30188 18.8547L4.88268 12.483L18.0587 15.752L17.0927 19.6458C17.0759 19.7129 17.0569 19.7792 17.0355 19.8445M14.5662 21.6277L14.3895 22.3401M14.3895 22.3401C14.2945 22.3277 14.2 22.3099 14.1063 22.2868L3.00532 19.5327C2.92212 19.512 2.65878 19.4071 2.61641 19.3261C2.57405 19.2451 2.6292 18.8814 2.65249 18.7875L4.87001 9.8495C4.9869 9.38037 5.26392 8.97153 5.64031 8.71268C6.01669 8.45383 6.4617 8.36611 6.8777 8.46875L10.5463 9.37892C10.5912 9.39007 10.6384 9.3902 10.6845 9.37928C10.7306 9.36836 10.7746 9.34666 10.8136 9.31565C10.8525 9.28463 10.8855 9.24503 10.9103 9.19951C10.935 9.154 10.951 9.10365 10.9571 9.05186L11.461 4.77396C11.463 4.75687 11.4661 4.73989 11.4703 4.72315C11.6333 4.06597 12.021 3.49312 12.5482 3.1306C13.0753 2.76808 13.6986 2.6456 14.281 2.7901C14.8634 2.9346 15.3572 3.33423 15.6538 3.9011C15.9503 4.46797 16.0253 5.15563 15.8623 5.8128C15.8581 5.82954 15.8529 5.846 15.8467 5.86206L14.2926 9.8794C14.2738 9.92803 14.2643 9.98001 14.2649 10.0318C14.2655 10.0836 14.2762 10.1341 14.2961 10.1797C14.3161 10.2253 14.3448 10.2651 14.3805 10.2963C14.4162 10.3275 14.4579 10.3494 14.5029 10.3606L18.1714 11.2707C18.5872 11.3744 18.9396 11.66 19.1513 12.0647C19.3631 12.4695 19.4168 12.9604 19.3009 13.4298L17.7201 19.8015C17.7034 19.8685 17.6849 19.9349 17.6646 20.0005M14.3895 22.3401C15.0536 22.4272 15.7408 22.2554 16.3336 21.8477C16.9572 21.4188 17.4294 20.7611 17.6646 20.0005M17.6646 20.0005L17.0355 19.8445M6.70205 9.17672L10.3706 10.0869C10.5055 10.1204 10.6469 10.1207 10.7852 10.088C10.9235 10.0553 11.0556 9.99019 11.1725 9.89716C11.2894 9.80413 11.3883 9.68534 11.4626 9.54882C11.5369 9.4123 11.5848 9.26125 11.603 9.10589L12.1038 4.85482C12.2248 4.391 12.5027 3.9886 12.8773 3.73468C13.2519 3.48077 13.6931 3.39576 14.1054 3.49805C14.5177 3.60035 14.868 3.88173 15.0805 4.28129C15.2929 4.68086 15.3505 5.16648 15.2406 5.63307L13.6963 9.62513C13.6398 9.77102 13.6116 9.92696 13.6134 10.0824C13.6153 10.2378 13.6472 10.3891 13.707 10.5259C13.7669 10.6628 13.8532 10.7821 13.9602 10.8757C14.0672 10.9693 14.1924 11.0351 14.3272 11.0685L17.9958 11.9787C18.2452 12.0409 18.4567 12.2122 18.5837 12.4551C18.7108 12.698 18.743 12.9925 18.6735 13.2741L18.2344 15.044L5.05833 11.7751L5.49744 10.0052C5.56757 9.72369 5.73379 9.47838 5.95962 9.32307C6.18545 9.16776 6.45245 9.11513 6.70205 9.17672Z" stroke="#000000" stroke-width="0.7" stroke-linecap="round" stroke-linejoin="round"/>
</svg>
