<svg width="24" height="24" viewBox="0 0 24 24" fill="none" xmlns="http://www.w3.org/2000/svg">
<path fill-rule="evenodd" clip-rule="evenodd" d="M12.0006 2.75C10.758 2.75 9.75061 3.75736 9.75061 5V5.25988C10.3077 5.24999 10.9189 5.24999 11.5897 5.25H12.4115C13.0823 5.24999 13.6935 5.24999 14.2506 5.25988V5C14.2506 3.75736 13.2432 2.75 12.0006 2.75ZM15.7506 5.32793V5C15.7506 2.92893 14.0717 1.25 12.0006 1.25C9.92954 1.25 8.25061 2.92893 8.25061 5V5.32793C8.10787 5.34021 7.96995 5.35444 7.83667 5.3709C6.82671 5.49569 5.99408 5.75783 5.28679 6.34483C4.5795 6.93183 4.16841 7.70189 3.85963 8.67156C3.56039 9.61128 3.33388 10.8194 3.04915 12.3381L3.02846 12.4484C2.62667 14.5912 2.31002 16.2799 2.25192 17.6112C2.19235 18.9758 2.39537 20.106 3.16514 21.0335C3.93492 21.961 5.00834 22.3689 6.36053 22.5618C7.67975 22.75 9.39786 22.75 11.578 22.75H12.4232C14.6033 22.75 16.3215 22.75 17.6407 22.5618C18.9929 22.3689 20.0663 21.961 20.8361 21.0335C21.6058 20.106 21.8089 18.9758 21.7493 17.6112C21.6912 16.2799 21.3745 14.5912 20.9727 12.4484L20.9521 12.3381C20.6673 10.8194 20.4408 9.61129 20.1416 8.67156C19.8328 7.70189 19.4217 6.93183 18.7144 6.34483C18.0071 5.75783 17.1745 5.49569 16.1645 5.3709C16.0313 5.35444 15.8933 5.34021 15.7506 5.32793ZM8.02061 6.85959C7.16507 6.96529 6.64835 7.16413 6.24474 7.49909C5.84114 7.83406 5.55048 8.30528 5.28892 9.12669C5.02106 9.96788 4.81031 11.0846 4.51419 12.6639C4.09847 14.8811 3.80339 16.4647 3.75049 17.6766C3.69849 18.8679 3.88956 19.5576 4.31941 20.0756C4.74925 20.5935 5.392 20.9084 6.57241 21.0768C7.77332 21.2482 9.3842 21.25 11.64 21.25H12.3612C14.617 21.25 16.2279 21.2482 17.4288 21.0768C18.6092 20.9084 19.252 20.5935 19.6818 20.0756C20.1117 19.5576 20.3027 18.8679 20.2507 17.6766C20.1978 16.4647 19.9027 14.8811 19.487 12.6639C19.1909 11.0846 18.9802 9.96788 18.7123 9.12669C18.4507 8.30528 18.1601 7.83406 17.7565 7.49909C17.3529 7.16413 16.8361 6.96529 15.9806 6.85959C15.1045 6.75133 13.968 6.75 12.3612 6.75H11.64C10.0332 6.75 8.89675 6.75133 8.02061 6.85959Z" fill="#000000"/>
<path fill-rule="evenodd" clip-rule="evenodd" d="M15.1944 11.2989L13.6959 11.2927L13.0156 10L15.1997 10.0089C16.1971 10.013 17.0023 10.8248 16.9982 11.8222L16.9906 13.6742L15.7007 13.6689L15.7083 11.8169C15.7095 11.532 15.4794 11.3 15.1944 11.2989Z" fill="#000000"/>
</svg>
