<svg viewBox="0 0 24 24" fill="none" xmlns="http://www.w3.org/2000/svg" width="24" height="24">
<path fill-rule="evenodd" clip-rule="evenodd" d="M3.27254 20.2957C2.39223 20.0825 1.54368 19.5216 0.882924 18.3884C-0.280995 16.3924 0.839013 14.4225 1.62216 13.0739C-0.776608 18.0764 2.46514 19.6071 6.3034 16.238C6.3034 16.238 11.0035 11.5322 12.3169 10.2172C12.9241 9.60921 13.8289 9.20623 14.729 9.31104C16.0723 9.46754 16.9752 10.2336 17.5184 10.4666C17.8748 10.6194 18.198 10.396 18.0753 10.0999C17.9504 9.79848 17.6845 9.47685 17.1811 8.97279C15.688 7.47747 13.8555 5.73383 13.8555 5.73383C12.79 4.70844 12.3656 3.77488 12.4238 2.85747C12.5162 1.4035 13.8668 0.538252 14.7781 0.5C14.2244 1.15901 14.2723 1.72198 14.5967 2.13218C14.5967 2.13218 19.714 7.25669 19.8403 7.38313C20.4877 8.03142 21.3201 10.7356 18.953 11.4422C18.6679 11.5272 18.3838 11.5218 18.0607 11.4283C17.2186 11.1846 15.9437 10.9528 15.0748 11.8074C13.5069 13.3494 8.47761 18.4342 8.03937 18.8526C7.60114 19.2711 6.27924 20.3107 4.38969 20.3967C4.84226 21.9989 7.03091 21.7881 9.59675 19.5359C9.59675 19.5359 14.2968 14.8301 15.6102 13.5152C16.2175 12.9071 17.1163 12.5953 18.0223 12.609C18.6867 12.619 19.1704 12.7959 19.5393 13.062C20.2886 13.6022 20.5559 14.1166 20.6637 14.6903C19.7918 14.1843 19.2371 14.2507 18.3681 15.1053C17.1104 16.3423 13.7988 19.6721 12.5377 20.9412C12.5445 21.0746 12.5879 21.1945 12.6975 21.2783C13.0843 21.5741 13.9741 21.5798 14.3944 21.1591C15.8894 19.6623 18.1577 17.3912 19.0077 16.5402C19.615 15.9322 20.403 15.5725 21.3091 15.5862C21.9734 15.5962 22.2222 15.7466 22.5912 16.0126C23.3405 16.5528 23.5117 17.2549 23.6196 17.8285C22.8326 17.2727 22.4006 17.5058 21.7656 18.1303C20.8469 19.0339 18.8323 21.0541 17.3215 22.5722C16.7961 23.1002 15.4265 23.7798 13.8779 23.2312C13.0055 22.9222 12.4154 21.9935 12.039 21.4482C11.9345 21.8251 6.87359 25.8198 3.95179 21.5158C3.66601 21.0948 3.46074 20.7082 3.27254 20.2957ZM5.12248 10.7158C4.97637 10.4491 4.89324 10.1429 4.89324 9.81748C4.89324 8.78434 5.73085 7.94556 6.76255 7.94556C7.79425 7.94556 8.63186 8.78434 8.63186 9.81748C8.63186 10.8506 7.79425 11.6894 6.76255 11.6894C6.4376 11.6894 6.13187 11.6062 5.86549 11.4598C6.01161 11.7266 6.09473 12.0328 6.09473 12.3582C6.09473 13.3913 5.25712 14.2301 4.22542 14.2301C3.19372 14.2301 2.35611 13.3913 2.35611 12.3582C2.35611 11.325 3.19372 10.4862 4.22542 10.4862C4.55042 10.4862 4.85611 10.5695 5.12248 10.7158Z" fill="#00BBE6"/>
</svg>
