<svg viewBox="0 0 24 24" fill="none" xmlns="http://www.w3.org/2000/svg" width="24" height="24">
<path fill-rule="evenodd" clip-rule="evenodd" d="M15.6342 13.1242C15.6342 11.1074 13.9956 9.46875 12.004 9.46875C9.98723 9.46875 8.34863 11.0822 8.34863 13.099C8.34863 15.1158 9.98723 16.7292 11.9788 16.7544C14.0208 16.7796 15.6342 15.141 15.6342 13.1242Z" fill="#CDCCCC"/>
<path d="M10.8442 8.48684C10.5165 8.58769 10.1888 8.38599 10.0627 8.08349L8.24761 3.52054C8.17196 3.31884 8.24761 3.09194 8.42406 2.96589L10.7182 1.30204C11.4997 0.722237 12.5585 0.722237 13.3148 1.30204L15.6089 2.99109C15.7854 3.09194 15.8358 3.31884 15.7854 3.52054L13.9702 8.08349C13.8442 8.41124 13.5165 8.58769 13.1635 8.51204C12.8106 8.41124 12.4072 8.36079 12.0039 8.36079C11.6257 8.36079 11.2224 8.41124 10.8442 8.48684Z" fill="#51B5D1"/>
<path d="M14.8778 9.34399C15.508 9.82299 16.0122 10.4532 16.3148 11.1591C16.466 11.4616 16.8694 11.6381 17.1719 11.5372L21.8357 10.1255C22.0374 10.0751 22.1634 9.84819 22.1634 9.64649L22.0626 6.79779C22.0122 5.83984 21.3567 5.03309 20.4492 4.78099L17.7013 4.02469C17.4744 3.97429 17.2727 4.04994 17.1719 4.22639L14.7013 8.48684C14.5753 8.71374 14.6257 9.14229 14.8778 9.34399Z" fill="#51B5D1"/>
<path d="M6.81066 11.5624L2.12161 10.2011C1.91996 10.1003 1.79391 9.92379 1.81911 9.72214L1.91996 6.87344C1.94516 5.91544 2.60061 5.10874 3.48296 4.83144L6.23081 4.04994C6.43251 3.99949 6.63416 4.07514 6.76021 4.25159L9.23081 8.48684C9.40726 8.76414 9.33161 9.16749 9.07951 9.36919C8.44931 9.84819 7.97031 10.4784 7.64256 11.2095C7.49131 11.512 7.11316 11.6633 6.81066 11.5624Z" fill="#51B5D1"/>
<path d="M23.8021 14.3859L22.6676 11.7893C22.592 11.5876 22.3903 11.4616 22.1886 11.512L17.3484 12.2935C16.9954 12.3439 16.7433 12.6465 16.7685 12.9994V13.1506C16.7685 13.9069 16.5921 14.638 16.2643 15.2683C16.1131 15.5708 16.2139 15.9489 16.4912 16.1254L20.55 18.8733C20.7265 18.9993 20.9786 18.9741 21.1298 18.8229L23.2475 16.9321C23.9785 16.2767 24.2054 15.2683 23.8021 14.3859Z" fill="#51B5D1"/>
<path d="M7.21401 13.1254C7.21401 13.8817 7.41566 14.6128 7.74341 15.2431C7.86946 15.5708 7.79381 15.9489 7.49131 16.1506L3.45776 18.8985C3.25606 19.0245 3.05441 18.9993 2.87791 18.8481L0.760309 16.9825C0.0292093 16.3523 -0.197691 15.3187 0.180459 14.4363L1.31491 11.8397C1.39056 11.6633 1.59221 11.5624 1.79391 11.5624L6.63416 12.3187C6.98711 12.3691 7.23921 12.6717 7.21401 13.0246V13.1254Z" fill="#51B5D1"/>
<path d="M15.987 16.7556C15.7349 16.5288 15.3568 16.5288 15.0795 16.7304C14.4997 17.2346 13.7938 17.5876 13.0123 17.764C12.6845 17.8145 12.4325 18.1422 12.4577 18.4951L12.861 23.3858C12.8862 23.5875 13.0627 23.764 13.2644 23.7892L16.0879 24.2682C17.0206 24.4446 17.9534 23.9657 18.4072 23.1085L19.7181 20.5875C19.8189 20.4111 19.7937 20.159 19.6425 20.0077L15.987 16.7556Z" fill="#51B5D1"/>
<path d="M11.0207 17.7893C10.2392 17.6128 9.50811 17.2598 8.92826 16.7809C8.67616 16.554 8.27281 16.6044 8.04591 16.8061L4.41571 20.159C4.26446 20.3102 4.23926 20.5371 4.34011 20.7136L5.67621 23.2346C6.12996 24.0665 7.08796 24.5203 8.02071 24.3438L10.8442 23.8396C11.0459 23.7892 11.1972 23.6127 11.2224 23.411L11.5753 18.5203C11.6005 18.1674 11.3484 17.8397 11.0207 17.7893Z" fill="#51B5D1"/>
</svg>
