<svg viewBox="0 0 24 24" fill="none" xmlns="http://www.w3.org/2000/svg" width="24" height="24">
<path fill-rule="evenodd" clip-rule="evenodd" d="M16.8392 23.6817H7.16094L0.317383 16.8382V7.15997L7.16094 0.316406H16.8392L23.6827 7.15997V16.8382L16.8392 23.6817ZM15.4277 20.2743L20.2753 15.4268V8.57138L15.4277 3.72385H8.57235L3.72483 8.57138V15.4268L8.57235 20.2743H15.4277ZM8.54052 11.9991L14.2564 17.745L11.9705 20.0309L6.25466 14.3151L6.25412 14.3156L3.96822 11.9991L6.79732 9.20063H11.3691L8.54052 11.9991ZM17.2028 14.7975H12.631L15.4596 11.9991L9.74374 6.25315L12.0296 3.96724L17.7454 9.68308L17.746 9.68254L20.0319 11.9991L17.2028 14.7975Z" fill="#006D08"/>
</svg>
