<svg viewBox="0 0 24 24" fill="none" xmlns="http://www.w3.org/2000/svg" width="24" height="24">
<path fill-rule="evenodd" clip-rule="evenodd" d="M1.81055 23.6451H22.1889V23.4302H1.81055V23.6451ZM1.81055 23.3347H22.1889V22.8232H1.81055V23.3347ZM13.9751 5.95977L12.5179 15.1785C12.5179 15.1785 12.4174 16.8057 13.2584 17.7264C13.6651 18.1715 14.163 18.2952 14.6253 18.5609C15.0334 18.7954 15.4978 19.221 15.5695 19.7256C15.6823 20.5194 14.8418 20.6256 14.3949 20.4561C13.9196 20.2758 13.5586 20.2104 13.0835 20.2304C12.026 20.275 11.7876 21.0393 11.7911 21.3182C11.8031 22.2714 12.7032 22.6231 12.7032 22.6231C12.7032 22.6231 11.8161 22.628 11.1283 22.6343C7.07996 22.6709 5.69273 19.8937 5.17565 16.6886L3.4447 5.95977H13.9751ZM20.9329 22.6128H13.8545C13.8545 22.6128 12.3445 22.5838 12.3628 21.506C12.3777 20.6327 13.3386 20.3514 14.4644 20.7275C14.7697 20.8295 15.2592 20.8313 15.8617 20.91C16.4723 20.9898 17.201 20.8816 18.1195 21.2853C18.1915 21.317 18.3565 21.2836 18.5513 21.2898C18.7278 21.2953 18.9361 21.3428 18.9833 21.3267C19.2482 21.2359 19.3837 21.095 19.6425 21.1008C19.7433 21.103 19.832 21.188 19.8915 21.2606C19.9665 21.1991 20.0134 21.1525 20.1075 21.1522C20.3273 21.1511 20.4131 21.4769 20.5499 21.6804C20.9233 21.7644 21.1987 22.2219 21.2592 22.4592C21.2715 22.5075 21.1465 22.5743 21.1082 22.5425C20.9323 22.3963 20.2128 21.4491 20.1037 21.4499C20.0555 21.4502 20.1786 21.7029 20.2037 21.7878C20.0116 21.6645 19.6666 21.1851 19.5283 21.3255C19.3579 21.4985 19.9522 21.9166 19.7038 22.0014C19.5694 22.0472 19.2797 21.7748 18.9299 21.6629C18.6403 21.5704 18.0515 21.6241 17.9695 21.5736C17.3027 21.1633 15.6327 21.2214 14.4038 21.1271C14.1948 21.1111 13.9482 20.9871 13.6443 20.9609C13.2356 20.9257 12.8127 21.0705 12.8173 21.5483C12.8194 21.7848 13.0375 22.2372 13.6777 22.2566C15.2542 22.3042 17.9188 22.2348 17.9188 22.2348L17.5803 21.9868C17.5803 21.9868 14.5437 21.9674 13.8544 21.9373C13.534 21.9232 13.4503 21.5741 13.4845 21.4702C13.5611 21.237 13.9283 21.3026 13.9283 21.3026C13.9283 21.3026 14.3223 21.3514 14.5244 21.3619C15.1551 21.3947 16.8895 21.5328 17.6957 21.7724C17.9265 21.841 18.337 21.8135 18.6202 21.8652C19.138 21.9598 19.3512 22.0748 19.7394 22.3758L20.0456 22.3738C20.0456 22.3738 19.9986 22.0989 20.0392 22.0355C20.0798 21.9721 20.1472 21.9902 20.2198 22.0172C20.2924 22.0442 20.3662 22.1432 20.4252 22.1598C20.4842 22.1764 20.505 22.0956 20.5702 22.1087C20.7057 22.1358 20.813 22.3161 20.8895 22.4379C20.9238 22.4925 20.9327 22.6112 20.9329 22.6128ZM10.5761 20.978C10.489 21.2644 10.6056 21.4486 10.845 21.552L9.4787 21.9508C9.29699 22.0038 9.10674 21.8995 9.05371 21.7178C9.00975 21.5672 9.09592 21.41 9.24604 21.3662L10.5761 20.978ZM11.775 20.6344C11.7446 20.8874 11.7026 21.1096 11.6671 21.312L11.1104 21.4745C10.9471 21.4423 10.7771 21.3633 10.7523 21.1759C10.7359 21.0521 10.8112 20.9541 10.9088 20.8808L11.775 20.6344ZM10.5842 20.2016C10.4063 20.445 10.4916 20.6672 10.792 20.7935L9.42935 21.1912C9.24764 21.2443 9.05735 21.1399 9.00432 20.9583C8.96036 20.8076 9.04653 20.6504 9.19665 20.6066L10.5842 20.2016ZM15.7277 11.4819C15.0084 11.8173 13.9821 12.8694 13.565 13.6989C13.5353 13.7578 13.4676 13.8872 13.4143 13.9865C13.3121 14.1771 13.121 14.625 13.0745 14.7829C12.9528 15.1963 12.9237 15.3144 12.8781 15.581C12.7407 16.3829 12.8605 17.0194 13.2265 17.4331C13.4966 17.7385 13.7159 17.8656 14.6666 18.2675C14.7879 18.3187 14.8803 18.3648 15.0862 18.4768C15.8407 18.8872 16.1521 19.7506 15.8467 20.5254C15.7977 20.6496 15.7725 20.6549 16.4124 20.7082C17.1442 20.7692 17.7032 20.866 17.9021 20.965C17.8187 19.9073 17.609 17.0545 17.5385 16.3962C17.5289 16.3068 17.4821 16.2952 17.4333 16.2944C17.2739 16.2919 16.9885 16.288 16.8186 16.1979C16.8893 16.1086 16.9589 16.0482 17.0749 15.9768L16.7581 15.9639C16.2925 15.9179 16.1843 15.7055 16.6156 15.4844C16.6156 15.4844 16.0147 15.5569 16.0157 15.0441C16.0158 14.9461 16.0293 14.9099 16.116 14.932C16.1979 14.9529 16.3882 14.9493 16.3874 14.9269C16.3854 14.8731 16.2741 14.8468 16.2167 14.8241C16.0829 14.7712 16.0213 14.6724 15.9817 14.5535C15.9423 14.4357 15.9914 14.4068 16.1649 14.3283C16.3967 14.2235 16.4048 14.1282 16.2022 14.1282C15.7808 14.1282 15.7872 13.4749 16.1778 13.1353C16.3733 12.9654 16.3858 12.9079 16.252 12.8643C16.0526 12.7992 15.7751 12.4627 15.7891 12.1522C15.8095 11.7002 16.8371 11.4628 17.0039 11.8764C17.0479 11.9856 17.2413 12.0072 17.236 11.8702C17.2334 11.8003 17.3632 11.6784 17.513 11.6151C17.5792 11.5871 17.4029 11.4713 17.2747 11.4082C17.0608 11.3028 16.6017 11.2699 16.2635 11.3328C15.9362 11.3936 15.871 11.4151 15.7277 11.4819ZM11.8149 19.8424C11.8201 20.0845 11.809 20.3028 11.7894 20.5023L11.0852 20.7079C10.7152 20.6649 10.586 20.4125 10.7907 20.1413L11.8149 19.8424ZM12.0494 20.5036C12.0494 20.5036 12.1609 18.6113 11.5419 17.2992C10.8769 15.8897 9.36157 14.3876 8.49131 13.3953C8.40179 13.2931 8.27623 13.0103 8.29461 12.7953C8.37424 11.8651 9.69325 12.0806 9.69325 12.0806C9.69325 12.0806 9.72828 12.3828 9.78408 12.5223C10.2192 13.611 11.5657 14.964 12.2027 16.221C12.8526 17.5036 13.5414 20.0968 13.5414 20.0968C12.8087 20.0093 12.3052 20.1391 12.0494 20.5036ZM10.4604 19.4614C10.3622 19.8064 10.5187 19.9464 10.7055 20.0424L9.34638 20.4391C9.16472 20.4921 8.97443 20.3878 8.9214 20.2062C8.87744 20.0556 8.96361 19.8984 9.11373 19.8545L10.4604 19.4614ZM11.7492 19.0853C11.7831 19.3133 11.8024 19.5241 11.8109 19.7198L11.0696 19.9362C10.9072 19.9322 10.7776 19.8798 10.7082 19.787C10.6268 19.6781 10.6281 19.5092 10.7742 19.3699L11.7492 19.0853ZM10.2982 18.7371C10.1481 18.9554 10.2629 19.2156 10.5415 19.3186L9.14997 19.7248C9.06273 19.7503 8.96895 19.74 8.88923 19.6963C8.80956 19.6526 8.75046 19.5791 8.72499 19.4919L8.72484 19.4914C8.68103 19.3412 8.7672 19.184 8.91732 19.1402L10.2982 18.7371ZM11.6024 18.3565C11.6571 18.5743 11.6993 18.7789 11.7312 18.9714L10.832 19.2339C10.4726 19.2026 10.391 18.9853 10.5114 18.6749L11.6024 18.3565ZM10.0486 18.036C9.94036 18.442 10.1314 18.5359 10.3507 18.6003L8.92916 19.0153C8.7475 19.0683 8.5572 18.964 8.50417 18.7823C8.46021 18.6317 8.54638 18.4745 8.69651 18.4307L10.0486 18.036ZM11.393 17.6436C11.4633 17.854 11.5229 18.0537 11.5732 18.2435L10.552 18.5416C10.3803 18.4978 10.2677 18.3465 10.2415 18.2507C10.2062 18.1219 10.2558 18.0245 10.3188 17.9572L11.393 17.6436ZM9.75468 17.3708C9.63551 17.6091 9.74575 17.865 10.0236 17.9218L8.61654 18.3326C8.52979 18.3578 8.43654 18.3477 8.35725 18.3042C8.27802 18.2608 8.21926 18.1876 8.19393 18.1009C8.17268 18.028 8.18142 17.9504 8.218 17.8847C8.25454 17.8189 8.31596 17.7706 8.3884 17.7505L9.75468 17.3708ZM11.0999 16.9586C11.2015 17.1466 11.2882 17.3382 11.3555 17.5331L10.2678 17.8506C10.1258 17.8351 9.95769 17.7688 9.91572 17.55C9.8965 17.4641 9.94454 17.3687 10.0067 17.2952L11.0999 16.9586ZM9.35662 16.7282C9.2656 17.0328 9.4229 17.2001 9.64721 17.2578L8.23159 17.6709C8.05852 17.7215 7.87705 17.6234 7.8245 17.4509C7.8032 17.381 7.81087 17.3059 7.84566 17.2421C7.8804 17.1784 7.93935 17.1312 8.00922 17.1114L9.35662 16.7282ZM10.6871 16.3097C10.8156 16.4867 10.9347 16.6672 11.0402 16.8512L9.90237 17.1833C9.64813 17.1613 9.46705 16.9449 9.56758 16.6634L10.6871 16.3097ZM8.7999 16.1181C8.88273 16.4293 8.97986 16.5879 9.10495 16.642L7.78147 17.0283C7.69889 17.0525 7.61014 17.0428 7.53469 17.0014C7.45929 16.9601 7.40335 16.8905 7.37928 16.8079C7.35959 16.7404 7.36745 16.6682 7.40107 16.6069C7.43469 16.5455 7.49132 16.5 7.55852 16.4804L8.7999 16.1181ZM10.2079 15.7071C10.3467 15.8691 10.4815 16.0345 10.6084 16.2032L9.41038 16.5529C9.19854 16.5111 8.9885 16.2747 9.13969 16.0189L10.2079 15.7071ZM8.24013 15.5176C8.26536 15.5297 8.28884 15.5428 8.30592 15.5561C8.44114 15.6607 8.26235 15.8516 8.65856 16.0151L7.25211 16.4255C7.07865 16.4762 6.89695 16.3766 6.84634 16.2031C6.8264 16.1348 6.83436 16.0617 6.86842 15.9995C6.90248 15.9374 6.95983 15.8913 7.02785 15.8715L8.24013 15.5176ZM16.5076 13.9522C16.5966 13.9352 16.5967 14.0686 16.5168 14.2727C16.4307 14.4926 16.1429 14.5133 16.17 14.5577C16.2891 14.7526 16.6671 14.6753 16.7685 14.7083C16.8421 14.7322 16.7289 14.9903 16.4876 15.1486C16.3111 15.2645 16.3694 15.3188 16.6021 15.3355C16.7087 15.3431 16.8588 15.2374 17.0015 15.2388C17.0522 15.2393 17.041 15.5083 16.8955 15.6184C16.5549 15.8762 16.8318 15.8656 17.2584 15.7452C17.4965 15.6781 17.4536 15.7525 17.3625 15.9263C17.3073 16.0316 17.1953 16.0862 17.2287 16.1188C17.2733 16.1625 17.6304 16.2187 17.8966 15.8822C17.946 15.8197 17.9592 15.7289 17.8267 15.6301C17.3606 15.2822 17.1704 14.8659 17.0143 14.2394C16.9618 14.0286 16.9336 13.1884 16.9762 12.9997C17.0027 12.8823 16.9724 12.8858 16.6778 13.0347C15.967 13.3941 15.8457 14.0791 16.5076 13.9522ZM18.446 14.425C17.4636 14.4336 17.2046 15.0858 17.9616 15.5457C18.0806 15.6179 18.0548 15.64 18.0549 15.7398C18.0549 15.8816 18.194 15.9688 18.3102 15.979C18.5694 16.0015 18.7111 15.907 18.7587 15.5843C18.782 15.4262 18.8266 15.3437 18.9876 15.1276C19.064 15.025 19.0988 14.9581 19.0783 14.9506C19.0403 14.9367 18.9406 14.9597 18.8617 15.0932C18.5968 15.5416 17.9188 15.4381 17.7665 15.1142C17.6606 14.889 17.8491 14.5816 18.5288 14.5791C19.0077 14.5774 19.0254 14.5968 19.0696 14.7583C19.1049 14.8874 19.1874 14.8349 19.3608 14.5728C19.6467 14.1409 19.6093 14.0664 19.3173 14.2254C19.0408 14.3761 18.8006 14.4218 18.446 14.425ZM9.66234 15.1025C9.81145 15.2617 9.96142 15.425 10.108 15.592L8.94862 15.9304C8.83702 15.9028 8.73115 15.837 8.65143 15.7316C8.58438 15.6429 8.58898 15.5 8.68743 15.3871L9.66234 15.1025ZM7.87579 14.8623C7.79893 15.1497 7.88249 15.2777 8.16385 15.3688L6.75187 15.7809C6.66915 15.8051 6.58026 15.7954 6.50476 15.7539C6.42921 15.7125 6.37322 15.6428 6.34906 15.5601C6.32897 15.4913 6.33732 15.4177 6.37215 15.3555C6.40694 15.2933 6.46526 15.2477 6.53402 15.2289L7.87579 14.8623ZM9.08365 14.4903C9.22892 14.6451 9.38136 14.8045 9.53605 14.9683L8.40888 15.2973C8.11082 15.2365 8.01601 14.9919 8.15682 14.7769L9.08365 14.4903ZM7.3147 14.2578C7.29321 14.5797 7.50442 14.6843 7.7229 14.7235L6.27434 15.1463C6.08259 15.2023 5.88104 15.0961 5.81869 14.9064C5.81097 14.8829 5.80335 14.8596 5.79593 14.837C5.77745 14.7808 5.78356 14.7193 5.81277 14.6678C5.84198 14.6162 5.89156 14.5794 5.9493 14.5663L7.3147 14.2578ZM18.2199 14.8385C18.4113 14.8373 18.5784 14.8503 18.7564 15.0352C18.7732 15.0526 18.7937 14.9941 18.8065 14.967C18.8354 14.9056 18.8924 14.8406 18.8331 14.7987C18.7159 14.716 18.3801 14.6953 18.1231 14.7737C17.97 14.8205 18.0375 14.8398 18.2199 14.8385ZM8.54537 13.8878C8.67089 14.0401 8.81227 14.1981 8.96341 14.3614L7.96259 14.6535C7.5688 14.6434 7.49986 14.3269 7.52945 14.1472L7.66623 14.0626L8.54537 13.8878ZM6.90515 13.611C6.95512 13.8469 7.10015 13.9584 7.25367 14.0545L5.73756 14.4329C5.62136 14.4619 5.49972 14.413 5.43586 14.3116C5.39462 14.2461 5.34615 14.1692 5.29938 14.0949C5.25857 14.0301 5.25416 13.9488 5.28773 13.8799C5.32131 13.8111 5.38807 13.7646 5.4643 13.7568L6.90515 13.611ZM18.2062 13.9775C18.1574 14.0585 18.0859 14.1676 17.9677 14.2697C17.886 14.3403 18.8157 14.262 19.0542 14.1253C19.2216 14.0295 19.4062 14.0465 19.4536 14.0587C19.5229 14.0767 19.5111 13.9746 19.4479 13.7893C19.3187 13.4107 19.0945 13.297 18.7836 13.4045C18.5821 13.4743 18.4098 13.6392 18.2062 13.9775ZM18.1768 13.1846C18.0875 13.2666 17.9632 13.3895 17.8739 13.4518C17.5121 13.7041 17.3498 13.9541 17.4895 14.0922C17.7276 14.3277 18.1713 13.932 18.178 13.4584C18.1809 13.2588 18.3523 13.0657 18.8264 13.0093C18.9529 12.9943 18.988 12.9455 18.8487 12.948C18.7073 12.9505 18.5733 12.9531 18.551 12.9606C18.4071 13.0092 18.3184 13.0547 18.1768 13.1846ZM8.13688 13.2987C8.21397 13.4464 8.31902 13.6009 8.44454 13.762L7.46817 14.001C7.26618 13.9015 6.98453 13.5845 7.22121 13.3759L7.2215 13.3739L8.13688 13.2987ZM18.6854 13.2001C18.8158 13.1831 19.0073 13.1599 19.1398 13.2101C19.4274 13.3189 19.6292 13.5941 19.6383 13.7926C19.6432 13.8982 19.7079 13.9475 19.7381 13.827C19.7584 13.7464 19.8447 13.5434 19.8489 13.3479C19.8497 13.3113 19.8448 13.2479 19.8138 13.2283C19.7809 13.2075 19.6432 13.2208 19.5809 13.2096C19.4987 13.1948 19.3686 13.1643 19.2996 13.128C19.1421 13.0453 18.8288 13.0709 18.6573 13.1203C18.618 13.1316 18.5548 13.2171 18.6854 13.2001ZM6.85076 13.5155L5.33276 13.5578C5.19482 13.5616 5.07512 13.4634 5.05183 13.3274C5.04343 13.2786 5.03431 13.2254 5.025 13.1708C5.0036 13.046 5.04203 12.9184 5.12873 12.8261C5.21549 12.7339 5.34047 12.6876 5.46638 12.7012C5.93023 12.7514 6.31117 12.7951 6.54338 12.8212C6.57836 13.1804 6.76352 13.4205 6.85076 13.5155ZM17.3378 13.3477C17.4863 13.4948 17.7643 13.4473 17.8745 13.3051C18.1709 12.923 18.4088 12.8238 18.7761 12.8222C18.9004 12.8218 18.8438 12.7653 18.731 12.6593C18.581 12.5183 18.4866 12.5053 18.3053 12.5154C18.1668 12.5231 18.119 12.5144 18.1191 12.4726C18.1192 12.3034 17.8253 12.1991 17.6238 12.3236C17.2695 12.5426 17.1118 13.1239 17.3378 13.3477ZM18.556 12.7044C18.5679 12.7227 18.2571 12.8107 18.1314 12.8995C18.0789 12.9366 18.0483 12.9746 17.9999 13.0007C17.9894 13.0063 17.802 13.0027 17.7313 12.9212C17.6545 12.8327 17.6982 12.6294 17.8406 12.6315C17.9269 12.6327 17.877 12.704 17.8449 12.7847C17.827 12.8296 17.8344 12.888 17.8629 12.8967C18.1245 12.9764 18.0453 12.5631 17.8893 12.5366C17.7746 12.5172 17.5517 12.602 17.5387 12.781C17.5326 12.8647 17.5422 12.9438 17.6447 13.0228C17.7312 13.0894 17.8374 13.0711 17.9242 13.0642C17.8089 13.1841 17.6893 13.2842 17.5523 13.2768C17.3703 13.267 17.3476 12.9387 17.4652 12.7042C17.5343 12.5664 17.7028 12.4112 17.836 12.4176C18.0174 12.4265 17.998 12.5464 18.0808 12.6295C18.1288 12.6778 18.4886 12.6008 18.556 12.7044ZM8.12698 13.1545L7.00961 13.202C6.70209 12.9764 6.68851 12.0937 6.84231 11.9796C7.16225 12.3554 7.6166 12.4921 8.08113 12.5638C8.06477 12.6407 8.05429 12.7256 8.05041 12.8191C8.04677 12.9071 8.05342 13.0647 8.12698 13.1545ZM17.1664 12.1829C17.0736 12.2686 17.0415 12.2642 16.9367 12.1074C16.8264 11.9425 16.683 11.8726 16.5508 11.8709C16.2457 11.867 15.9863 12.1504 15.9646 12.1935C15.9461 12.2302 16.0005 12.2435 16.0181 12.3102C16.0765 12.5306 16.3011 12.8396 16.6025 12.8564C16.8341 12.8693 17.0332 12.7874 17.19 12.5363C17.3436 12.2905 17.4957 12.1268 17.66 12.0679C17.8914 11.9849 18.1116 12.0769 18.3184 12.2879C18.3512 12.3215 18.452 12.3367 18.484 12.3353C18.5468 12.3326 18.6949 12.442 18.7691 12.5317C18.9213 12.7153 18.9903 12.7224 18.9539 12.6028C18.9269 12.5139 18.6137 12.1793 18.4383 12.1222C18.2794 12.0704 18.1046 11.7905 17.8389 11.7354C17.7227 11.7112 17.6253 11.789 17.529 11.872C17.4053 11.9787 17.2024 12.1499 17.1664 12.1829ZM6.53334 12.6727C6.2987 12.6318 5.64358 12.5181 5.17759 12.4427C5.08933 12.4285 5.01044 12.3797 4.95823 12.3072C4.90598 12.2347 4.88473 12.1444 4.89918 12.0562C4.91161 11.9802 4.92495 11.8988 4.93771 11.8206C4.95294 11.7274 5.01034 11.6465 5.09322 11.6012C5.17609 11.5559 5.27526 11.5514 5.36192 11.5889C5.77939 11.7695 6.3068 12.0055 6.53426 12.1075C6.51505 12.2834 6.52572 12.5411 6.53334 12.6727ZM8.11034 12.4531C7.69253 12.3904 7.41762 12.2866 6.96492 11.9171C6.71723 11.6268 7.27152 10.8994 7.53222 11.0965C7.69355 11.6449 7.9821 11.8512 8.32183 12.1028C8.23105 12.1896 8.15793 12.3038 8.11034 12.4531ZM8.39782 12.0391C8.12513 11.7982 7.8508 11.45 7.76075 11.137C7.74052 11.0666 7.73227 10.9502 7.76235 10.9011C7.96749 10.5658 8.48826 10.6082 8.67307 10.6346C8.70912 10.6397 8.73091 10.6783 8.7277 10.7041C8.6803 11.0846 8.74842 11.3748 8.84634 11.621C8.85269 11.637 8.87865 11.8597 8.84376 11.8655C8.6804 11.8929 8.52615 11.9452 8.39782 12.0391ZM6.56192 11.9576L5.33946 11.315C5.25008 11.268 5.18308 11.1873 5.15324 11.0909C5.12344 10.9944 5.13325 10.89 5.18055 10.8008C5.18584 10.7908 5.19118 10.7807 5.19656 10.7706C5.25741 10.6558 5.36701 10.5748 5.49462 10.5502C5.62218 10.5256 5.75406 10.5603 5.85314 10.6443L6.77317 11.4247C6.69336 11.5593 6.60854 11.7674 6.56192 11.9576ZM9.07613 11.8417C8.91936 11.6276 8.87535 11.0622 8.89971 10.7223C8.90437 10.6574 8.95099 10.6357 8.96861 10.6364C9.30276 10.6508 9.55385 10.743 9.81276 10.9801C9.84289 11.0077 9.84987 11.0794 9.83639 11.0984C9.67632 11.3229 9.61125 11.5767 9.62474 11.8549C9.45589 11.8452 9.26511 11.8327 9.07613 11.8417ZM6.84299 11.3166C6.60888 11.1221 5.9428 10.5637 5.87764 10.4579C5.78016 9.87859 6.32232 9.53715 6.68011 9.66791C6.7788 9.80974 7.13174 10.5603 7.26284 10.8415C7.06167 11.0011 6.92548 11.1924 6.84299 11.3166ZM9.62974 10.545C9.82052 10.3171 10.2589 9.79887 10.4429 9.62628C10.5762 9.50139 10.8143 9.43924 10.9274 9.53026C11.0307 9.61342 11.2089 9.79756 11.2412 9.94127C11.2873 10.1459 11.2365 10.2875 11.0738 10.3926C10.8831 10.5158 10.2933 10.8396 10.0452 10.9748C9.9294 10.7801 9.79631 10.6405 9.62974 10.545ZM7.38816 10.7482C7.24057 10.4573 6.86318 9.70959 6.7754 9.498C6.74886 9.434 6.73489 9.33502 6.79098 9.27116C6.99792 9.03541 7.47933 8.86825 7.73474 8.89417C7.84629 8.90547 7.88554 8.96282 7.88899 9.05186C7.90117 9.36743 7.92358 10.177 7.9312 10.4574C7.73823 10.5222 7.54784 10.6351 7.38816 10.7482ZM8.86759 10.3726C8.98622 10.0576 9.24075 9.38339 9.32353 9.17655C9.34755 9.11658 9.39519 8.95506 9.48112 8.90887C9.5768 8.85744 9.80572 8.83434 9.9623 8.87316C10.1189 8.91197 10.2899 9.04399 10.3444 9.14812C10.399 9.25224 10.3703 9.37306 10.3064 9.47204C10.1828 9.66326 9.72809 10.2386 9.52562 10.4928C9.34726 10.4155 9.13309 10.379 8.86759 10.3726ZM8.06012 10.4219C8.05478 10.0997 8.04338 9.19164 8.07822 8.93812C8.09491 8.81692 8.18224 8.71876 8.29985 8.68499C8.4507 8.64157 8.85293 8.63968 9.00538 8.69125C9.12984 8.73337 9.23517 8.84448 9.21596 8.97446C9.18049 9.21498 8.86899 10.0354 8.73872 10.3718C8.56812 10.3734 8.37778 10.3856 8.16429 10.4057C8.12979 10.409 8.095 10.4144 8.06012 10.4219ZM13.9958 5.82891H3.42359L3.40016 5.68379H14.0187L13.9958 5.82891ZM14.0622 5.40839H3.35576L3.30608 5.10053C3.34232 5.09204 3.37813 5.08166 3.41341 5.06904C3.52913 5.02775 3.63597 4.96424 3.72806 4.88292C3.81525 4.80592 3.88856 4.71421 3.9496 4.61538C3.99511 4.54173 4.03402 4.46405 4.06779 4.38433C4.07488 4.36754 4.08133 4.35041 4.08774 4.33328V4.03523C4.07857 4.0376 4.06959 4.04071 4.06086 4.04444C4.00889 4.06681 3.97182 4.11092 3.94669 4.16046C3.93024 4.19277 3.91918 4.22746 3.90598 4.26113C3.89982 4.27676 3.89332 4.29219 3.88696 4.30767C3.87095 4.3441 3.85455 4.38015 3.83669 4.41577C3.79176 4.50199 3.74009 4.58447 3.6757 4.65769C3.57056 4.77734 3.435 4.86409 3.28065 4.90475L3.27474 4.90626L2.65693 1.07706H14.7469L14.1383 4.92746C14.0991 4.92241 14.0602 4.9148 14.0222 4.90475C13.8678 4.86409 13.7323 4.77734 13.6271 4.65769C13.5628 4.58447 13.511 4.50199 13.4661 4.41577C13.4483 4.38015 13.4319 4.3441 13.4159 4.30767C13.4095 4.29219 13.403 4.27676 13.3969 4.26113C13.3836 4.22746 13.3726 4.19277 13.3561 4.16046C13.331 4.11092 13.2939 4.06681 13.242 4.04444C13.2332 4.04071 13.2242 4.0376 13.2151 4.03523V4.33328C13.2215 4.35041 13.2279 4.36754 13.2351 4.38433C13.2688 4.46405 13.3077 4.54173 13.3532 4.61538C13.4143 4.71421 13.4876 4.80592 13.5748 4.88292C13.6668 4.96424 13.7737 5.02775 13.8895 5.06904C13.9603 5.09437 14.0335 5.11082 14.1077 5.12086L14.0622 5.40839ZM7.51873 4.93585C7.51873 4.93585 7.60529 4.93498 7.62989 4.93357C7.69098 4.93008 7.75216 4.92033 7.81131 4.90475C7.96565 4.86409 8.10116 4.77734 8.20636 4.65769C8.27069 4.58447 8.32242 4.50199 8.36735 4.41577C8.38515 4.38015 8.40155 4.3441 8.41761 4.30767C8.42392 4.29219 8.43047 4.27676 8.43658 4.26114C8.44983 4.22746 8.46089 4.19277 8.47729 4.16046C8.50243 4.11092 8.53954 4.06681 8.59146 4.04444C8.60019 4.04071 8.60922 4.0376 8.61839 4.03523V4.33328C8.61198 4.35041 8.60553 4.36754 8.5984 4.38433C8.56463 4.46405 8.52571 4.54173 8.4802 4.61538C8.41917 4.71421 8.34585 4.80592 8.25866 4.88292C8.16662 4.96424 8.05973 5.02775 7.94401 5.06904C7.84653 5.10388 7.74498 5.12188 7.64197 5.12959C7.61145 5.13105 7.51267 5.13246 7.51267 5.13246C7.48055 5.13251 7.42412 5.13095 7.39554 5.12959C7.29253 5.12188 7.19098 5.10388 7.0935 5.06904C6.97778 5.02775 6.87089 4.96424 6.77885 4.88292C6.69166 4.80592 6.61834 4.71421 6.55731 4.61538C6.5118 4.54173 6.47288 4.46405 6.43911 4.38433C6.43198 4.36754 6.42553 4.35041 6.41912 4.33328V4.03523C6.42829 4.0376 6.43732 4.04071 6.44605 4.04444C6.49797 4.06681 6.53508 4.11092 6.56022 4.16046C6.57662 4.19277 6.58768 4.22746 6.60093 4.26114C6.60704 4.27676 6.61359 4.29219 6.6199 4.30767C6.63596 4.3441 6.65236 4.38015 6.67016 4.41577C6.71509 4.50199 6.76682 4.58447 6.83115 4.65769C6.93635 4.77734 7.07186 4.86409 7.2262 4.90475C7.28535 4.92033 7.34653 4.93008 7.40762 4.93357C7.43387 4.93508 7.49243 4.93406 7.51873 4.93585ZM12.0494 5.13241C12.0494 5.13241 11.9548 5.13095 11.9261 5.12959C11.8232 5.12188 11.7216 5.10388 11.6241 5.06904C11.5084 5.02775 11.4015 4.96424 11.3095 4.88292C11.2223 4.80592 11.1489 4.71421 11.0879 4.61538C11.0424 4.54173 11.0035 4.46405 10.9697 4.38433C10.9626 4.36754 10.9562 4.35041 10.9498 4.33328V4.03523C10.9589 4.0376 10.9679 4.04071 10.9767 4.04444C11.0286 4.06681 11.0657 4.11092 11.0908 4.16046C11.1073 4.19277 11.1183 4.22746 11.1315 4.26114C11.1377 4.27676 11.1442 4.29219 11.1505 4.30767C11.1666 4.3441 11.183 4.38015 11.2008 4.41577C11.2457 4.50199 11.2974 4.58447 11.3618 4.65769C11.4669 4.77734 11.6025 4.86409 11.7569 4.90475C11.816 4.92033 11.8771 4.93008 11.9382 4.93357C11.9645 4.93508 12.0231 4.93406 12.0494 4.93585C12.0494 4.93585 12.1359 4.93498 12.1605 4.93357C12.2216 4.93008 12.2828 4.92033 12.3419 4.90475C12.4963 4.86409 12.6318 4.77734 12.737 4.65769C12.8013 4.58447 12.853 4.50199 12.8979 4.41577C12.9158 4.38015 12.9322 4.3441 12.9482 4.30767C12.9546 4.29219 12.9611 4.27676 12.9672 4.26114C12.9804 4.22746 12.9915 4.19277 13.0079 4.16046C13.0331 4.11092 13.0701 4.06681 13.1221 4.04444C13.1308 4.04071 13.1398 4.0376 13.149 4.03523V4.33328C13.1426 4.35041 13.1361 4.36754 13.1291 4.38433C13.0953 4.46405 13.0564 4.54173 13.0109 4.61538C12.9498 4.71421 12.8765 4.80592 12.7893 4.88292C12.6972 4.96424 12.5903 5.02775 12.4746 5.06904C12.3772 5.10388 12.2756 5.12188 12.1726 5.12959C12.1421 5.13105 12.08 5.13275 12.0494 5.13241ZM9.78937 4.93556C9.81756 4.9342 9.87059 4.93498 9.89524 4.93357C9.95628 4.93008 10.0175 4.92033 10.0766 4.90475C10.231 4.86409 10.3665 4.77734 10.4717 4.65769C10.536 4.58447 10.5877 4.50199 10.6326 4.41577C10.6505 4.38015 10.6669 4.3441 10.6829 4.30767C10.6892 4.29219 10.6958 4.27676 10.7019 4.26114C10.7151 4.22746 10.7262 4.19277 10.7426 4.16046C10.7677 4.11092 10.8048 4.06681 10.8568 4.04444C10.8655 4.04071 10.8745 4.0376 10.8837 4.03523V4.33328C10.8773 4.35041 10.8708 4.36754 10.8637 4.38433C10.8299 4.46405 10.7911 4.54173 10.7455 4.61538C10.6845 4.71421 10.6112 4.80592 10.524 4.88292C10.4319 4.96424 10.325 5.02775 10.2093 5.06904C10.1118 5.10388 10.0103 5.12188 9.90732 5.12959C9.8768 5.13105 9.81465 5.13275 9.78408 5.13241C9.75351 5.13275 9.69136 5.13105 9.66084 5.12959C9.55783 5.12188 9.45628 5.10388 9.3588 5.06904C9.24308 5.02775 9.13619 4.96424 9.04415 4.88292C8.95696 4.80592 8.88365 4.71421 8.82261 4.61538C8.7771 4.54173 8.73818 4.46405 8.70441 4.38433C8.69728 4.36754 8.69083 4.35041 8.68442 4.33328V4.03523C8.69364 4.0376 8.70262 4.04071 8.71135 4.04444C8.76332 4.06681 8.80039 4.11092 8.82552 4.16046C8.84192 4.19277 8.85303 4.22746 8.86623 4.26114C8.87234 4.27676 8.87889 4.29219 8.8852 4.30767C8.90126 4.3441 8.91766 4.38015 8.93551 4.41577C8.9804 4.50199 9.03212 4.58447 9.09646 4.65769C9.20165 4.77734 9.33716 4.86409 9.49155 4.90475C9.55065 4.92033 9.61184 4.93008 9.67292 4.93357C9.69917 4.93508 9.78937 4.93556 9.78937 4.93556ZM5.14227 4.93357C5.16857 4.93508 5.33994 4.93498 5.36459 4.93357C5.42568 4.93008 5.48686 4.92033 5.54596 4.90475C5.70035 4.86409 5.83586 4.77734 5.94105 4.65769C6.00539 4.58447 6.05711 4.50199 6.102 4.41577C6.11985 4.38015 6.13625 4.3441 6.15231 4.30767C6.15862 4.29219 6.16517 4.27676 6.17128 4.26114C6.18448 4.22746 6.19559 4.19277 6.21199 4.16046C6.23712 4.11092 6.27419 4.06681 6.32616 4.04444C6.33489 4.04071 6.34387 4.0376 6.35309 4.03523V4.33328C6.34668 4.35041 6.34023 4.36754 6.3331 4.38433C6.29933 4.46405 6.26041 4.54173 6.2149 4.61538C6.15386 4.71421 6.08055 4.80592 5.99336 4.88292C5.90127 4.96424 5.79443 5.02775 5.67871 5.06904C5.58123 5.10388 5.47968 5.12188 5.37667 5.12959C5.34615 5.13105 5.15882 5.13095 5.13019 5.12959C5.02723 5.12188 4.92568 5.10388 4.8282 5.06904C4.71248 5.02775 4.60559 4.96424 4.5135 4.88292C4.42631 4.80592 4.35304 4.71421 4.29201 4.61538C4.24645 4.54173 4.20758 4.46405 4.17381 4.38433C4.16668 4.36754 4.16023 4.35041 4.15382 4.33328V4.03523C4.16299 4.0376 4.17197 4.04071 4.18075 4.04444C4.23267 4.06681 4.26978 4.11092 4.29492 4.16046C4.31132 4.19277 4.32238 4.22746 4.33562 4.26114C4.34174 4.27676 4.34829 4.29219 4.3546 4.30767C4.37061 4.3441 4.38701 4.38015 4.40486 4.41577C4.44979 4.50199 4.50151 4.58447 4.56585 4.65769C4.67104 4.77734 4.80656 4.86409 4.9609 4.90475C5.02005 4.92033 5.08123 4.93008 5.14227 4.93357ZM4.05727 3.94575C4.02432 3.97462 3.98909 4.00553 3.97988 4.01363C3.97837 4.01494 3.97643 4.01558 3.97444 4.01543C3.95751 4.01368 3.93402 4.00442 3.92058 3.98244C3.91811 3.97807 3.91918 3.97259 3.92301 3.96943C3.94921 3.94634 4.05765 3.85085 4.1019 3.81189C4.11272 3.80238 4.12893 3.80238 4.13975 3.81189C4.18919 3.85546 4.31859 3.96943 4.31859 3.96943C4.32248 3.97259 4.32349 3.97807 4.32107 3.98244C4.30758 4.00442 4.2841 4.01368 4.26716 4.01543C4.26522 4.01558 4.26323 4.01494 4.26173 4.01363C4.24664 4.00039 4.16187 3.92606 4.1316 3.89947C4.12544 3.89403 4.11622 3.89403 4.11001 3.89947C4.09191 3.91538 4.05727 3.94575 4.05727 3.94575ZM6.32257 3.94575C6.28967 3.97462 6.2544 4.00553 6.24518 4.01363C6.24367 4.01494 6.24173 4.01558 6.23974 4.01543C6.22286 4.01368 6.19938 4.00442 6.18589 3.98244C6.18346 3.97807 6.18448 3.97259 6.18831 3.96943C6.21456 3.94634 6.32296 3.85085 6.36721 3.81189C6.37803 3.80238 6.39423 3.80238 6.40505 3.81189C6.45449 3.85546 6.5839 3.96943 6.5839 3.96943C6.58778 3.97259 6.5888 3.97807 6.58637 3.98244C6.57288 4.00442 6.5494 4.01368 6.53251 4.01543C6.53052 4.01558 6.52853 4.01494 6.52708 4.01363C6.51194 4.00039 6.42723 3.92606 6.3969 3.89947C6.39074 3.89403 6.38152 3.89403 6.37536 3.89947C6.35721 3.91538 6.32257 3.94575 6.32257 3.94575ZM8.58787 3.94575C8.55497 3.97462 8.51975 4.00553 8.51048 4.01363C8.50898 4.01494 8.50704 4.01558 8.50505 4.01543C8.48816 4.01368 8.46468 4.00442 8.45119 3.98244C8.44876 3.97807 8.44978 3.97259 8.45366 3.96943C8.47986 3.94634 8.58826 3.85085 8.63251 3.81189C8.64333 3.80238 8.65953 3.80238 8.67035 3.81189C8.71984 3.85546 8.8492 3.96943 8.8492 3.96943C8.85308 3.97259 8.8541 3.97807 8.85167 3.98244C8.83818 4.00442 8.8147 4.01368 8.79782 4.01543C8.79583 4.01558 8.79389 4.01494 8.79238 4.01363C8.77724 4.00039 8.69253 3.92606 8.6622 3.89947C8.65604 3.89403 8.64682 3.89403 8.64066 3.89947C8.62251 3.91538 8.58787 3.94575 8.58787 3.94575ZM10.8532 3.94575C10.8203 3.97462 10.785 4.00553 10.7758 4.01363C10.7743 4.01494 10.7723 4.01558 10.7703 4.01543C10.7535 4.01368 10.73 4.00442 10.7165 3.98244C10.7141 3.97807 10.7151 3.97259 10.719 3.96943C10.7452 3.94634 10.8536 3.85085 10.8978 3.81189C10.9086 3.80238 10.9248 3.80238 10.9357 3.81189C10.9851 3.85546 11.1145 3.96943 11.1145 3.96943C11.1184 3.97259 11.1194 3.97807 11.117 3.98244C11.1035 4.00442 11.08 4.01368 11.0631 4.01543C11.0611 4.01558 11.0592 4.01494 11.0577 4.01363C11.0425 4.00039 10.9578 3.92606 10.9275 3.89947C10.9213 3.89403 10.9121 3.89403 10.906 3.89947C10.8878 3.91538 10.8532 3.94575 10.8532 3.94575ZM13.1185 3.94575C13.0856 3.97462 13.0504 4.00553 13.0411 4.01363C13.0396 4.01494 13.0376 4.01558 13.0357 4.01543C13.0188 4.01368 12.9953 4.00442 12.9818 3.98244C12.9794 3.97807 12.9804 3.97259 12.9843 3.96943C13.0105 3.94634 13.1189 3.85085 13.1632 3.81189C13.1739 3.80238 13.1902 3.80238 13.201 3.81189C13.2504 3.85546 13.3798 3.96943 13.3798 3.96943C13.3837 3.97259 13.3848 3.97807 13.3823 3.98244C13.3688 4.00442 13.3454 4.01368 13.3284 4.01543C13.3264 4.01558 13.3245 4.01494 13.323 4.01363C13.3079 4.00039 13.2231 3.92606 13.1929 3.89947C13.1867 3.89403 13.1774 3.89403 13.1713 3.89947C13.1532 3.91538 13.1185 3.94575 13.1185 3.94575ZM13.1821 2.88331L13.5022 2.58622C13.5022 2.58622 13.8885 2.2035 13.9911 2.11311C14.0499 2.06133 14.1111 2.06415 14.1111 2.06415C14.1111 2.06415 13.7259 2.77992 13.7274 3.20272C13.7291 3.66478 13.424 3.92222 13.424 3.92222L13.1821 3.70917L12.9402 3.92222C12.9402 3.92222 12.6351 3.66478 12.6367 3.20272C12.6382 2.77992 12.2531 2.06415 12.2531 2.06415C12.2531 2.06415 12.3143 2.06133 12.3731 2.11311C12.4757 2.2035 12.862 2.58622 12.862 2.58622L13.1821 2.88331ZM4.12083 2.88331L4.44091 2.58622C4.44091 2.58622 4.82723 2.2035 4.92985 2.11311C4.98866 2.06133 5.04984 2.06415 5.04984 2.06415C5.04984 2.06415 4.66469 2.77992 4.66619 3.20272C4.66784 3.66478 4.36275 3.92222 4.36275 3.92222L4.12083 3.70917L3.87891 3.92222C3.87891 3.92222 3.57381 3.66478 3.57546 3.20272C3.57697 2.77992 3.19181 2.06415 3.19181 2.06415C3.19181 2.06415 3.253 2.06133 3.3118 2.11311C3.41442 2.2035 3.80074 2.58622 3.80074 2.58622L4.12083 2.88331ZM6.38613 2.88331L6.70621 2.58622C6.70621 2.58622 7.09253 2.2035 7.19515 2.11311C7.25396 2.06133 7.31514 2.06415 7.31514 2.06415C7.31514 2.06415 6.92999 2.77992 6.93149 3.20272C6.93314 3.66478 6.62805 3.92222 6.62805 3.92222L6.38613 3.70917L6.14421 3.92222C6.14421 3.92222 5.83911 3.66478 5.84076 3.20272C5.84227 2.77992 5.45712 2.06415 5.45712 2.06415C5.45712 2.06415 5.51835 2.06133 5.57711 2.11311C5.67973 2.2035 6.06604 2.58622 6.06604 2.58622L6.38613 2.88331ZM8.65143 2.88331L8.97152 2.58622C8.97152 2.58622 9.35783 2.2035 9.46045 2.11311C9.51926 2.06133 9.58044 2.06415 9.58044 2.06415C9.58044 2.06415 9.19534 2.77992 9.19679 3.20272C9.19844 3.66478 8.89335 3.92222 8.89335 3.92222L8.65143 3.70917L8.40951 3.92222C8.40951 3.92222 8.10446 3.66478 8.10607 3.20272C8.10757 2.77992 7.72247 2.06415 7.72247 2.06415C7.72247 2.06415 7.78365 2.06133 7.84246 2.11311C7.94508 2.2035 8.33139 2.58622 8.33139 2.58622L8.65143 2.88331ZM10.9168 2.88331L11.2368 2.58622C11.2368 2.58622 11.6231 2.2035 11.7258 2.11311C11.7846 2.06133 11.8457 2.06415 11.8457 2.06415C11.8457 2.06415 11.4606 2.77992 11.4621 3.20272C11.4637 3.66478 11.1587 3.92222 11.1587 3.92222L10.9168 3.70917L10.6749 3.92222C10.6749 3.92222 10.3698 3.66478 10.3714 3.20272C10.3729 2.77992 9.98777 2.06415 9.98777 2.06415C9.98777 2.06415 10.049 2.06133 10.1078 2.11311C10.2104 2.2035 10.5967 2.58622 10.5967 2.58622L10.9168 2.88331ZM8.38108 2.53232C8.22009 2.38302 8.02543 2.20233 7.91072 2.09569C7.88418 2.07109 7.86948 2.03625 7.87036 2.00005C7.87123 1.96386 7.88763 1.9298 7.91533 1.90651C7.94338 1.8821 7.97996 1.87182 8.01592 1.8773C8.05192 1.88278 8.0838 1.90345 8.10345 1.93407L8.42693 2.43533C8.40577 2.46395 8.39001 2.4968 8.38108 2.53232ZM12.9117 2.53232C12.7507 2.38302 12.556 2.20233 12.4413 2.09569C12.4148 2.07109 12.4001 2.03625 12.401 2.00005C12.4019 1.96386 12.4182 1.9298 12.446 1.90651C12.474 1.8821 12.5106 1.87182 12.5466 1.8773C12.5825 1.88278 12.6144 1.90345 12.634 1.93407L12.9575 2.43533C12.9364 2.46395 12.9207 2.4968 12.9117 2.53232ZM6.11578 2.53232C5.95479 2.38302 5.76007 2.20233 5.64542 2.09569C5.61883 2.07109 5.60413 2.03625 5.60505 2.00005C5.60593 1.96386 5.62233 1.9298 5.65003 1.90651C5.67808 1.8821 5.71466 1.87182 5.75061 1.8773C5.78657 1.88278 5.81844 1.90345 5.83814 1.93407L6.16158 2.43533C6.14047 2.46395 6.1247 2.4968 6.11578 2.53232ZM10.6464 2.53232C10.4854 2.38302 10.2907 2.20233 10.176 2.09569C10.1495 2.07109 10.1348 2.03625 10.1357 2.00005C10.1365 1.96386 10.1529 1.9298 10.1806 1.90651C10.2087 1.8821 10.2453 1.87182 10.2813 1.8773C10.3172 1.88278 10.3491 1.90345 10.3687 1.93407L10.6922 2.43533C10.6711 2.46395 10.6553 2.4968 10.6464 2.53232ZM3.85042 2.53232C3.68948 2.38302 3.49477 2.20233 3.38007 2.09569C3.35353 2.07109 3.33883 2.03625 3.3397 2.00005C3.34063 1.96386 3.35698 1.9298 3.38473 1.90651C3.41277 1.8821 3.44936 1.87182 3.48531 1.8773C3.52127 1.88278 3.55314 1.90345 3.57279 1.93407L3.89628 2.43533C3.87517 2.46395 3.8594 2.4968 3.85042 2.53232ZM4.34509 2.43494C4.45882 2.25876 4.58929 2.05677 4.66857 1.93431C4.68822 1.90389 4.71995 1.88336 4.75576 1.87793C4.79157 1.8725 4.82796 1.88273 4.85571 1.90597C4.88463 1.92936 4.90108 1.96362 4.90195 2.00001C4.90278 2.03635 4.88798 2.07133 4.86124 2.09603L4.39108 2.53188C4.38211 2.49637 4.36624 2.46357 4.34509 2.43494ZM13.4063 2.43494C13.5201 2.25876 13.6505 2.05677 13.7298 1.93431C13.7495 1.90389 13.7812 1.88336 13.817 1.87793C13.8528 1.8725 13.8892 1.88273 13.917 1.90597C13.9459 1.92936 13.9623 1.96362 13.9632 2.00001C13.964 2.03635 13.9492 2.07133 13.9225 2.09603L13.4523 2.53188C13.4434 2.49637 13.4275 2.46357 13.4063 2.43494ZM11.141 2.43494C11.2548 2.25876 11.3852 2.05677 11.4645 1.93431C11.4841 1.90389 11.5159 1.88336 11.5517 1.87793C11.5875 1.8725 11.6239 1.88273 11.6516 1.90597C11.6805 1.92936 11.697 1.96362 11.6979 2.00001C11.6987 2.03635 11.6839 2.07133 11.6572 2.09603L11.187 2.53188C11.178 2.49637 11.1622 2.46357 11.141 2.43494ZM8.87569 2.43494C8.98947 2.25876 9.11994 2.05677 9.19922 1.93431C9.21882 1.90389 9.2506 1.88336 9.28636 1.87793C9.32217 1.8725 9.35856 1.88273 9.38631 1.90597C9.41523 1.92936 9.43168 1.96362 9.43255 2.00001C9.43343 2.03635 9.41858 2.07133 9.39185 2.09603L8.92174 2.53188C8.91271 2.49637 8.89689 2.46357 8.87569 2.43494ZM6.61039 2.43494C6.72412 2.25876 6.85459 2.05677 6.93387 1.93431C6.95352 1.90389 6.98525 1.88336 7.02106 1.87793C7.05687 1.8725 7.09326 1.88273 7.12101 1.90597C7.14993 1.92936 7.16638 1.96362 7.16725 2.00001C7.16808 2.03635 7.15328 2.07133 7.12654 2.09603L6.65643 2.53188C6.64741 2.49637 6.63159 2.46357 6.61039 2.43494ZM10.7211 2.40199C10.627 2.21835 10.5206 2.01092 10.4557 1.8839C10.4391 1.85168 10.4373 1.81393 10.4505 1.78021C10.4637 1.74649 10.4907 1.72009 10.5247 1.70767C10.5594 1.69433 10.5973 1.69724 10.6293 1.71466C10.6612 1.73213 10.684 1.76245 10.6921 1.79792L10.8157 2.34062C10.7801 2.35454 10.7479 2.37555 10.7211 2.40199ZM8.4558 2.40199C8.36167 2.21835 8.25531 2.01092 8.19034 1.8839C8.17385 1.85168 8.17191 1.81393 8.18515 1.78021C8.19835 1.74649 8.22538 1.72009 8.25939 1.70767C8.29413 1.69433 8.33202 1.69724 8.36395 1.71466C8.39588 1.73213 8.41873 1.76245 8.42673 1.79792L8.55041 2.34062C8.51475 2.35454 8.48263 2.37555 8.4558 2.40199ZM6.1905 2.40199C6.09632 2.21835 5.99001 2.01092 5.92504 1.8839C5.9085 1.85168 5.90661 1.81393 5.91985 1.78021C5.93305 1.74649 5.96007 1.72009 5.99409 1.70767C6.02883 1.69433 6.06667 1.69724 6.0986 1.71466C6.13053 1.73213 6.15343 1.76245 6.16143 1.79792L6.28511 2.34062C6.2494 2.35454 6.21728 2.37555 6.1905 2.40199ZM12.9865 2.40199C12.8923 2.21835 12.786 2.01092 12.721 1.8839C12.7045 1.85168 12.7026 1.81393 12.7158 1.78021C12.729 1.74649 12.756 1.72009 12.79 1.70767C12.8247 1.69433 12.8626 1.69724 12.8946 1.71466C12.9265 1.73213 12.9494 1.76245 12.9574 1.79792L13.081 2.34062C13.0454 2.35454 13.0132 2.37555 12.9865 2.40199ZM3.92519 2.40199C3.83102 2.21835 3.72471 2.01092 3.65974 1.8839C3.6432 1.85168 3.6413 1.81393 3.6545 1.78021C3.66775 1.74649 3.69477 1.72009 3.72879 1.70767C3.76348 1.69433 3.80137 1.69724 3.8333 1.71466C3.86522 1.73213 3.88812 1.76245 3.89613 1.79792L4.01976 2.34062C3.9841 2.35454 3.95198 2.37555 3.92519 2.40199ZM6.48671 2.34042C6.53111 2.14571 6.58006 1.9313 6.61063 1.79802C6.61868 1.76269 6.64149 1.73256 6.67327 1.71524C6.70505 1.69792 6.74275 1.69506 6.77681 1.70743L6.77778 1.70704C6.81199 1.71951 6.83916 1.74605 6.85241 1.77992C6.86565 1.81383 6.86366 1.85178 6.84697 1.88409L6.58142 2.40161C6.55454 2.37526 6.52242 2.35425 6.48671 2.34042ZM13.2826 2.34042C13.3271 2.14571 13.376 1.9313 13.4066 1.79802C13.4146 1.76269 13.4374 1.73256 13.4692 1.71524C13.501 1.69792 13.5387 1.69506 13.5727 1.70743L13.5737 1.70704C13.6079 1.71951 13.6351 1.74605 13.6483 1.77992C13.6616 1.81383 13.6596 1.85178 13.6429 1.88409L13.3774 2.40161C13.3505 2.37526 13.3183 2.35425 13.2826 2.34042ZM4.22136 2.34042C4.2658 2.14571 4.31476 1.9313 4.34533 1.79802C4.35338 1.76269 4.37619 1.73256 4.40797 1.71524C4.43975 1.69792 4.47745 1.69506 4.51146 1.70743L4.51248 1.70704C4.54664 1.71951 4.57381 1.74605 4.58706 1.77992C4.6003 1.81383 4.59836 1.85178 4.58167 1.88409L4.31612 2.40161C4.28924 2.37526 4.25707 2.35425 4.22136 2.34042ZM8.75201 2.34042C8.79641 2.14571 8.84537 1.9313 8.87593 1.79802C8.88399 1.76269 8.90679 1.73256 8.93862 1.71524C8.9704 1.69792 9.0081 1.69506 9.04211 1.70743L9.04308 1.70704C9.07729 1.71951 9.10446 1.74605 9.11771 1.77992C9.13095 1.81383 9.12896 1.85178 9.11232 1.88409L8.84672 2.40161C8.81989 2.37526 8.78772 2.35425 8.75201 2.34042ZM11.0173 2.34042C11.0618 2.14571 11.1107 1.9313 11.1413 1.79802C11.1493 1.76269 11.1721 1.73256 11.2039 1.71524C11.2357 1.69792 11.2734 1.69506 11.3074 1.70743L11.3084 1.70704C11.3426 1.71951 11.3698 1.74605 11.383 1.77992C11.3963 1.81383 11.3943 1.85178 11.3776 1.88409L11.112 2.40161C11.0852 2.37526 11.053 2.35425 11.0173 2.34042ZM13.1307 2.32645C13.1036 2.08341 13.0722 1.80209 13.0544 1.64038C13.0504 1.60432 13.0618 1.56818 13.0861 1.5411C13.1103 1.51403 13.1448 1.49855 13.1812 1.4985C13.2189 1.49782 13.2536 1.51345 13.2779 1.54067C13.3022 1.56789 13.3137 1.60418 13.3096 1.64042L13.2328 2.32635C13.2164 2.32329 13.1994 2.32174 13.1821 2.32174C13.1646 2.32174 13.1474 2.32334 13.1307 2.32645ZM10.8654 2.32645C10.8383 2.08341 10.8069 1.80209 10.7891 1.64038C10.785 1.60432 10.7965 1.56818 10.8208 1.5411C10.8449 1.51403 10.8795 1.49855 10.9159 1.4985C10.9536 1.49782 10.9883 1.51345 11.0126 1.54067C11.0369 1.56789 11.0484 1.60418 11.0443 1.64042L10.9675 2.32635C10.9511 2.32329 10.9341 2.32174 10.9168 2.32174C10.8992 2.32174 10.8821 2.32334 10.8654 2.32645ZM6.33484 2.32645C6.30767 2.08341 6.27633 1.80209 6.25842 1.64038C6.2544 1.60432 6.2659 1.56818 6.29011 1.5411C6.31432 1.51403 6.34891 1.49855 6.38521 1.4985C6.42291 1.49782 6.4577 1.51345 6.48196 1.54067C6.50626 1.56789 6.51776 1.60418 6.51364 1.64042L6.43688 2.32635C6.42043 2.32329 6.40345 2.32174 6.38613 2.32174C6.36861 2.32174 6.35144 2.32334 6.33484 2.32645ZM4.06949 2.32645C4.04237 2.08341 4.01098 1.80209 3.99312 1.64038C3.98909 1.60432 4.00059 1.56818 4.02481 1.5411C4.04902 1.51403 4.08356 1.49855 4.1199 1.4985C4.1576 1.49782 4.19235 1.51345 4.21665 1.54067C4.24096 1.56789 4.25246 1.60418 4.24834 1.64042L4.17158 2.32635C4.15513 2.32329 4.13815 2.32174 4.12083 2.32174C4.10331 2.32174 4.08613 2.32334 4.06949 2.32645ZM8.60014 2.32645C8.57297 2.08341 8.54163 1.80209 8.52373 1.64038C8.5197 1.60432 8.53125 1.56818 8.55541 1.5411C8.57962 1.51403 8.61422 1.49855 8.65051 1.4985C8.68826 1.49782 8.723 1.51345 8.74726 1.54067C8.77157 1.56789 8.78311 1.60418 8.77899 1.64042L8.70223 2.32635C8.68573 2.32329 8.6688 2.32174 8.65143 2.32174C8.63391 2.32174 8.61679 2.32334 8.60014 2.32645ZM14.7904 0.801659H2.61249L2.54053 0.355469H14.8609L14.7904 0.801659Z" fill="#FFB219"/>
</svg>
