<svg viewBox="0 0 24 24" fill="none" xmlns="http://www.w3.org/2000/svg" width="24" height="24">
<path fill-rule="evenodd" clip-rule="evenodd" d="M21.2854 9.34431C21.8822 10.6403 22.215 12.0824 22.215 13.6016C22.215 14.8147 22.0028 15.9786 21.6135 17.0583C21.4562 17.0331 21.2949 17.02 21.1305 17.02C19.4587 17.02 18.1014 18.3763 18.1014 20.0469C18.1014 20.5722 18.2356 21.0664 18.4716 21.4972C16.8987 22.7864 14.9341 23.6159 12.7845 23.7794V21.0814C16.57 20.6888 19.5258 17.4874 19.5258 13.6016C19.5258 12.5718 19.3182 11.59 18.9425 10.696L21.2854 9.34431ZM2.68265 9.41445L5.02792 10.7675C4.67101 11.6424 4.47428 12.5992 4.47428 13.6016C4.47428 17.4347 7.3504 20.6018 11.0619 21.0637V23.7665C8.97242 23.5761 7.06393 22.7556 5.52851 21.4972C5.76449 21.0664 5.89869 20.5722 5.89869 20.0469C5.89869 18.3763 4.54138 17.02 2.86955 17.02C2.70519 17.02 2.54388 17.0331 2.3866 17.0583C1.99727 15.9786 1.78506 14.8147 1.78506 13.6016C1.78506 12.1098 2.10597 10.6924 2.68265 9.41445ZM2.86955 17.7669C4.12886 17.7669 5.15126 18.7885 5.15126 20.0469C5.15126 21.3052 4.12886 22.3269 2.86955 22.3269C1.61029 22.3269 0.587891 21.3052 0.587891 20.0469C0.587891 18.7885 1.61029 17.7669 2.86955 17.7669ZM21.1305 17.7669C22.3898 17.7669 23.4122 18.7885 23.4122 20.0469C23.4122 21.3052 22.3898 22.3269 21.1305 22.3269C19.8712 22.3269 18.8488 21.3052 18.8488 20.0469C18.8488 18.7885 19.8712 17.7669 21.1305 17.7669ZM8.83567 17.358C9.0381 17.7444 9.27348 18.1137 9.53991 18.4592C9.84869 18.8596 10.1992 19.2281 10.5864 19.5536C10.7752 19.7122 10.9726 19.8605 11.1777 19.9971C9.74146 19.8142 8.45199 19.1587 7.47065 18.1917C7.88533 17.8663 8.33866 17.59 8.81622 17.3669L8.83567 17.358ZM15.1763 17.3635L15.1839 17.3669C15.6614 17.59 16.1147 17.8663 16.5294 18.1917C15.5523 19.1546 14.2696 19.8087 12.8407 19.9947C13.0445 19.8587 13.2408 19.7113 13.4284 19.5536C13.8593 19.1915 14.2446 18.7761 14.5776 18.3228C14.801 18.0187 15.001 17.6975 15.1763 17.3635ZM12.1982 16.6746C12.4802 16.6826 12.7613 16.7035 13.041 16.7413C13.6539 16.8242 14.2567 16.982 14.8301 17.2133C14.6288 17.5934 14.3938 17.9558 14.1271 18.2934C13.8308 18.6685 13.4954 19.0129 13.1256 19.3161C12.8362 19.5533 12.5257 19.7649 12.1982 19.9459V16.6746ZM11.8018 16.6746V19.9376C11.4798 19.7585 11.1743 19.5497 10.8893 19.3161C10.5195 19.0129 10.184 18.6685 9.88774 18.2934C9.61993 17.9543 9.38405 17.5903 9.18212 17.2084C9.75192 16.9798 10.3505 16.8236 10.959 16.7413C11.2388 16.7035 11.5199 16.6826 11.8018 16.6746ZM18.4493 13.7997C18.4013 15.387 17.7779 16.8308 16.7807 17.9297C16.3368 17.5778 15.8503 17.2795 15.3369 17.0398C15.8095 16.0261 16.059 14.9156 16.0854 13.7997H18.4493ZM5.55081 13.7997H7.92954C7.95582 14.9134 8.20442 16.0218 8.67558 17.034L8.66316 17.0398C8.14984 17.2795 7.66325 17.5778 7.21935 17.9297C6.2222 16.8308 5.59885 15.387 5.55081 13.7997ZM15.7091 13.7997C15.6828 14.864 15.4437 15.923 14.9917 16.889C14.3826 16.6407 13.7415 16.4716 13.0896 16.3834C12.7937 16.3434 12.4964 16.3214 12.1982 16.3133V13.7997H15.7091ZM11.8018 13.7997V16.3133C11.5036 16.3214 11.2063 16.3434 10.9105 16.3834C10.263 16.471 9.62622 16.6384 9.0208 16.884C8.57032 15.9193 8.33203 14.8622 8.3058 13.7997H11.8018ZM5.55081 13.4036C5.59885 11.8162 6.22224 10.3724 7.21945 9.27338C7.66699 9.62802 8.15756 9.92778 8.67573 10.1688C8.20476 11.181 7.95591 12.2895 7.92959 13.4036H5.55081ZM8.3058 13.4036C8.33218 12.3408 8.57061 11.2836 9.0209 10.319C9.2448 10.41 9.47301 10.4902 9.70437 10.5595C10.3846 10.7634 11.092 10.8731 11.8018 10.8903V13.4036H8.3058ZM16.0854 13.4036C16.0591 12.2875 15.8095 11.1769 15.3366 10.1631C15.8502 9.92307 16.3366 9.62527 16.7806 9.27338C17.7779 10.3724 18.4013 11.8162 18.4493 13.4036H16.0854ZM12.1982 10.8903C12.9081 10.8731 13.6155 10.7634 14.2957 10.5595C14.5314 10.489 14.7638 10.407 14.9916 10.314C15.4434 11.2799 15.6827 12.339 15.709 13.4036H12.1982V10.8903ZM11.8018 7.26543V10.529C11.1272 10.5119 10.4548 10.4074 9.80816 10.2136C9.5964 10.1502 9.38739 10.0771 9.18217 9.99463C9.19297 9.97412 9.20393 9.9537 9.21498 9.93328C9.39668 9.59744 9.60485 9.27584 9.83803 8.97343C10.1624 8.55282 10.5353 8.16923 10.9505 7.83751C11.2178 7.6238 11.5027 7.43178 11.8018 7.26543ZM12.1982 7.25728C12.5028 7.4255 12.7926 7.62026 13.0644 7.83751C13.4795 8.16923 13.8525 8.55282 14.1768 8.97343C14.41 9.27584 14.6182 9.59744 14.7999 9.93328C14.81 9.95203 14.8201 9.97083 14.8301 9.98972C14.6209 10.0742 14.4078 10.1489 14.1919 10.2136C13.5453 10.4074 12.8729 10.5119 12.1982 10.529V7.25728ZM11.1775 7.20619C10.9955 7.32733 10.8197 7.45765 10.6506 7.59621C10.2159 7.95257 9.82609 8.36286 9.48819 8.81174C9.24602 9.13349 9.03043 9.47507 8.84284 9.83133L8.83577 9.84488C8.3508 9.62002 7.89103 9.34107 7.4708 9.01147C8.45204 8.04455 9.74136 7.38908 11.1775 7.20619ZM12.8411 7.20859C14.2698 7.39472 15.5523 8.04872 16.5293 9.01147C16.1125 9.33837 15.6568 9.61545 15.1762 9.83933C14.9744 9.455 14.7401 9.0877 14.4749 8.74391C14.1662 8.34348 13.8157 7.97495 13.4284 7.64952C13.2409 7.49191 13.0448 7.34451 12.8411 7.20859ZM3.52104 7.9106C4.86091 5.92204 6.88262 4.42962 9.25015 3.76894C9.73104 4.80575 10.7821 5.52563 12 5.52563C13.218 5.52563 14.2691 4.80575 14.75 3.76894C17.0921 4.42255 19.0959 5.89018 20.4358 7.84689L18.0978 9.19573C16.7299 7.30931 14.5074 6.08141 12 6.08141C9.46505 6.08141 7.22112 7.33655 5.85728 9.25841L3.52104 7.9106ZM12 0.21875C13.2593 0.21875 14.2817 1.2404 14.2817 2.49873C14.2817 3.75711 13.2593 4.77876 12 4.77876C10.7408 4.77876 9.71837 3.75711 9.71837 2.49873C9.71837 1.2404 10.7408 0.21875 12 0.21875Z" fill="#00920A"/>
</svg>
