<svg viewBox="0 0 24 24" fill="none" xmlns="http://www.w3.org/2000/svg" width="24" height="24">
<path fill-rule="evenodd" clip-rule="evenodd" d="M23.5037 3.7223C21.6929 4.45641 20.0284 5.42457 18.7437 7.00198C15.9549 9.96599 14.0272 14.0971 12.9288 19.3371C12.9068 19.4429 12.6765 19.275 12.6485 19.3808C10.2766 18.3435 8.53857 15.0598 7.68159 11.5185C7.40072 10.3579 7.08368 9.12424 6.59568 7.96646C8.50632 7.43919 10.5318 8.64129 12.6962 11.9304C13.2204 10.1156 16.7949 4.81438 16.7949 4.81438L16.8327 4.67395C15.0988 3.12054 12.8104 2.17578 10.302 2.17578C4.88731 2.17578 0.496094 6.57606 0.496094 12.002C0.496094 17.4278 4.88731 21.8281 10.302 21.8281C16.9119 21.8281 19.3396 17.0053 21.036 11.7924C21.8585 9.1025 22.5234 6.21488 23.5037 3.7223Z" fill="#209B1C"/>
</svg>
