<svg viewBox="0 0 24 24" fill="none" xmlns="http://www.w3.org/2000/svg" width="24" height="24">
<path fill-rule="evenodd" clip-rule="evenodd" d="M7.81498 7.09495C7.9599 7.68493 7.59911 8.28068 7.00913 8.4256C5.93148 8.69031 4.9687 9.29727 4.26519 10.1554C3.56168 11.0136 3.15537 12.0768 3.10719 13.1854C3.059 14.294 3.37156 15.3884 3.99796 16.3044C4.62437 17.2204 5.53086 17.9086 6.58148 18.2658C7.6321 18.623 8.77022 18.6299 9.82512 18.2856C10.88 17.9413 11.7949 17.2642 12.4324 16.3559C13.07 15.4477 13.3959 14.3572 13.3612 13.248C13.3266 12.1389 12.9333 11.0709 12.2403 10.2042C11.8609 9.72968 11.9381 9.03748 12.4125 8.6581C12.887 8.27872 13.5792 8.35582 13.9586 8.83032C14.9487 10.0687 15.5107 11.5946 15.5602 13.1794C15.6096 14.7641 15.144 16.3222 14.2331 17.6199C13.3221 18.9176 12.015 19.885 10.5078 20.377C9.00055 20.869 7.37443 20.8591 5.87331 20.3487C4.37219 19.8383 3.077 18.855 2.18199 17.5463C1.28699 16.2375 0.840419 14.6739 0.90926 13.0899C0.978101 11.5059 1.55864 9.98687 2.56381 8.76071C3.56898 7.53455 4.9446 6.66732 6.48433 6.28911C7.07431 6.14419 7.67006 6.50498 7.81498 7.09495Z" fill="#0CC788"/>
<path fill-rule="evenodd" clip-rule="evenodd" d="M15.0805 20.1979C14.6521 19.7672 14.6539 19.0707 15.0846 18.6423L19.1152 14.6325C20.0455 13.6985 20.5311 12.7989 20.7749 11.7017C21.0157 10.6185 20.8988 9.48634 20.4417 8.47517C19.9846 7.46399 19.212 6.62826 18.2398 6.09333C17.2675 5.55839 16.1481 5.35308 15.0493 5.50819C13.9505 5.66331 12.9316 6.17048 12.1455 6.95364C11.3593 7.73681 10.8482 8.75375 10.6889 9.85194C10.5296 10.9501 10.7306 12.0704 11.2619 13.0446C11.5527 13.578 11.3561 14.2462 10.8227 14.537C10.2893 14.8278 9.62115 14.6312 9.33033 14.0978C8.57133 12.7058 8.2841 11.1052 8.51171 9.5361C8.73933 7.96702 9.46953 6.51402 10.5928 5.39504C11.7161 4.27606 13.1718 3.55141 14.7418 3.32979C16.3117 3.10817 17.9112 3.40151 19.3003 4.16583C20.6894 4.93014 21.7933 6.12422 22.4464 7.56898C23.0995 9.01374 23.2665 10.6313 22.9225 12.179C22.5818 13.7122 21.8766 14.9782 20.6719 16.1871L20.6685 16.1904L16.6362 20.2019C16.2055 20.6304 15.509 20.6286 15.0805 20.1979Z" fill="#0CC788"/>
</svg>
