<svg viewBox="0 0 24 24" fill="none" xmlns="http://www.w3.org/2000/svg" width="24" height="24">
<path d="M16.1604 23.5L23.1982 23.5V6.29878C23.1982 5.41205 23.083 4.50834 22.6373 3.74166C19.7811 -1.17187 12.2178 0.0390415 11.1982 3.79341C12.8643 2.76822 14.2755 2.79939 15.2514 3.65332C16.0476 4.35005 16.1604 5.50448 16.1604 6.56229V23.5Z" fill="#2D2A68"/>
<path d="M7.95488 0.500013L0.916992 0.500001L0.916991 17.7012C0.916991 18.5879 1.03222 19.4917 1.47789 20.2583C4.33414 25.1719 11.8974 23.961 12.917 20.2066C11.2509 21.2318 9.83971 21.2006 8.86387 20.3467C8.06768 19.6499 7.95487 18.4955 7.95487 17.4377L7.95488 0.500013Z" fill="#2D2A68"/>
<circle cx="12.0203" cy="12.1082" r="3.99105" fill="#2D2A68"/>
</svg>
