<svg viewBox="0 0 24 24" fill="none" xmlns="http://www.w3.org/2000/svg" width="24" height="24">
<path fill-rule="evenodd" clip-rule="evenodd" d="M4.72779 1.98438C6.41926 1.98438 7.7925 3.35761 7.7925 5.04908C7.7925 6.74055 6.41926 8.11379 4.72779 8.11379C3.03632 8.11379 1.66309 6.74055 1.66309 5.04908C1.66309 3.35761 3.03632 1.98438 4.72779 1.98438Z" fill="url(#paint0_linear_2578_5525)"/>
<path fill-rule="evenodd" clip-rule="evenodd" d="M19.1956 15.8398C20.887 15.8398 22.2603 17.2131 22.2603 18.9045C22.2603 20.596 20.887 21.9693 19.1956 21.9693C17.5041 21.9693 16.1309 20.596 16.1309 18.9045C16.1309 17.2131 17.5041 15.8398 19.1956 15.8398Z" fill="url(#paint1_linear_2578_5525)"/>
<path d="M10.4224 4.06504C11.0422 2.81229 12.3189 2.01953 13.7166 2.01953H22.4583L13.5769 19.9697C12.9571 21.2225 11.6803 22.0152 10.2826 22.0152H1.54102L10.4224 4.06504Z" fill="url(#paint2_linear_2578_5525)"/>
<path d="M13.0869 20.7159L16.7043 2.01953H22.4583L13.5769 19.9697C13.4426 20.2412 13.2775 20.491 13.0869 20.7159Z" fill="url(#paint3_radial_2578_5525)"/>
<path d="M10.8171 3.43359L7.11951 22.0127H1.54102L10.4224 4.06248C10.5338 3.83735 10.6664 3.62708 10.8171 3.43359Z" fill="url(#paint4_linear_2578_5525)"/>
<defs>
<linearGradient id="paint0_linear_2578_5525" x1="1.66309" y1="1.98437" x2="7.7925" y2="8.11378" gradientUnits="userSpaceOnUse">
<stop stop-color="#948BC2"/>
<stop offset="1" stop-color="#603794"/>
</linearGradient>
<linearGradient id="paint1_linear_2578_5525" x1="16.1309" y1="15.8398" x2="22.2603" y2="21.9693" gradientUnits="userSpaceOnUse">
<stop offset="0.0955543" stop-color="#5E3593"/>
<stop offset="0.907612" stop-color="#948BC2"/>
</linearGradient>
<linearGradient id="paint2_linear_2578_5525" x1="15.3442" y1="2.01953" x2="8.64621" y2="22.0152" gradientUnits="userSpaceOnUse">
<stop stop-color="#643D98"/>
<stop offset="1" stop-color="#938AC1"/>
</linearGradient>
<radialGradient id="paint3_radial_2578_5525" cx="0" cy="0" r="1" gradientUnits="userSpaceOnUse" gradientTransform="translate(19.1064 20.7159) rotate(-93.6872) scale(20.7407 19.542)">
<stop stop-color="#623A96"/>
<stop offset="1" stop-color="#9992C6"/>
</radialGradient>
<linearGradient id="paint4_linear_2578_5525" x1="10.8171" y1="12.7231" x2="1.54102" y2="14.0819" gradientUnits="userSpaceOnUse">
<stop stop-color="#65409A"/>
<stop offset="1" stop-color="#9992C6"/>
</linearGradient>
</defs>
</svg>
