<svg viewBox="0 0 24 24" fill="none" xmlns="http://www.w3.org/2000/svg">
<path d="M3.90261 0.78125H20.0973C21.8083 0.78125 23.2196 2.19271 23.2196 3.90346V20.0984C23.2196 21.8092 21.8083 23.2206 20.0973 23.2206H3.90261C2.19159 23.2206 0.780278 21.8092 0.780278 20.0984V3.90389C0.778787 3.07608 1.10712 2.28168 1.69285 1.69588C2.27859 1.11009 3.07363 0.78102 3.90261 0.78125Z" fill="#E7A918"/>
<path d="M22.2843 11.0664V19.9102C22.2856 20.5402 22.0385 21.1448 21.5975 21.5905C21.1565 22.0363 20.5577 22.2866 19.9336 22.2861H4.06511C3.44107 22.2864 2.84255 22.0362 2.40161 21.5905C1.96068 21.1449 1.71358 20.5405 1.71485 19.9107V16.2214C2.58162 6.77046 11.5159 16.3395 15.6664 16.3395C18.9671 16.322 20.9338 13.762 22.2843 11.0664" fill="#6E2616"/>
<path d="M4.08006 1.71484H19.9355C21.2346 1.71484 22.2843 2.76844 22.2843 4.07252V7.6175C21.5511 17.4155 12.5077 7.63399 8.32723 7.63399C5.04615 7.63399 3.08062 10.2591 1.71484 12.9345V4.07252C1.73173 2.78494 2.79742 1.71528 4.08006 1.71528" fill="#6E2616"/>
</svg>
