<svg viewBox="0 0 24 24" fill="none" xmlns="http://www.w3.org/2000/svg" width="24" height="24">
<path fill-rule="evenodd" clip-rule="evenodd" d="M11.9405 21.1003C10.9497 21.1048 9.98934 21.3371 9.04779 21.7637C9.00595 22.2452 8.6371 22.5359 7.94013 22.6349C7.40943 22.6278 6.87708 22.5084 6.34197 22.2767C6.00726 22.1754 5.73255 21.6129 5.39343 20.92C5.0553 20.2289 4.66355 19.4075 4.31602 18.7817C4.23897 18.6453 4.23523 18.4793 4.30607 18.3396C4.51319 17.9272 4.85307 17.7625 5.24912 17.8628C5.35181 17.8886 5.43847 17.9572 5.48709 18.0512C5.54535 18.1637 5.62024 18.3085 5.62024 18.3085C6.04414 18.4478 6.4763 18.5601 6.92662 18.6146L6.98223 18.5684C6.97012 18.5612 6.95855 18.553 6.94699 18.5458C4.38433 16.9316 2.65736 14.1198 2.6001 10.903C2.50927 5.8061 6.64146 1.57386 11.7987 1.48195C11.8539 1.48096 11.9089 1.48047 11.9639 1.48047L12.0051 1.48058C12.0463 1.48074 12.0876 1.48124 12.129 1.48195C17.2863 1.57386 21.4185 5.8061 21.3276 10.903C21.2704 14.1198 19.5434 16.9316 16.9808 18.5458C16.9692 18.553 16.9576 18.5612 16.9455 18.5684L17.0011 18.6146C17.4514 18.5601 17.8836 18.4478 18.3075 18.3085C18.3075 18.3085 18.3824 18.1637 18.4406 18.0512C18.4893 17.9572 18.5759 17.8886 18.6786 17.8628C19.0746 17.7625 19.4145 17.9272 19.6216 18.3396C19.6925 18.4793 19.6888 18.6453 19.6117 18.7817C19.2642 19.4075 18.8724 20.2289 18.5343 20.92C18.1952 21.6129 17.9205 22.1754 17.5858 22.2767C17.0507 22.5084 16.5183 22.6278 15.9876 22.6349C15.2907 22.5359 14.9218 22.2452 14.88 21.7637C13.931 21.3337 12.9629 21.1012 11.9639 21.1002L11.9405 21.1003ZM5.75677 18.6734C5.75677 18.6734 6.0049 19.3577 6.13834 19.6963C6.31093 20.1342 6.7923 21.3008 6.7923 21.3008C6.90515 21.5772 7.13417 21.7858 6.54401 22.0961C6.55117 22.117 6.55833 22.1374 6.56604 22.1649C6.92773 22.2833 7.25473 22.3949 7.59385 22.3889C7.63459 22.3674 7.67588 22.3526 7.71056 22.3383L6.09369 19.0043C5.92358 18.6537 5.87789 18.635 5.75677 18.6734ZM18.171 18.6734C18.171 18.6734 17.9229 19.3577 17.7894 19.6963C17.6168 20.1342 17.1355 21.3008 17.1355 21.3008C17.0226 21.5772 16.7936 21.7858 17.3837 22.0961C17.3766 22.117 17.3694 22.1374 17.3617 22.1649C17 22.2833 16.673 22.3949 16.3339 22.3889C16.2932 22.3674 16.2519 22.3526 16.2172 22.3383L17.8341 19.0043C18.0042 18.6537 18.0499 18.635 18.171 18.6734ZM15.9746 18.2985C14.8385 17.6818 13.4054 17.4388 11.9639 17.4794L11.9151 17.4781C9.84984 17.4291 7.80851 17.9647 6.64036 19.3493C6.61833 19.5309 7.67973 21.5512 7.90214 21.844C8.00069 21.9393 8.03537 21.9525 8.11906 21.9646C9.09827 21.1342 10.528 20.7827 11.9639 20.8025L11.9975 20.8021C13.422 20.7882 14.8371 21.1407 15.8087 21.9646C15.8924 21.9525 15.9271 21.9393 16.0256 21.844C16.248 21.5512 17.3094 19.5309 17.2874 19.3493C16.9323 18.9284 16.4965 18.5859 16.0038 18.3145C15.996 18.3261 15.9797 18.3439 15.9548 18.3677C15.8898 18.4291 15.8179 18.486 15.7394 18.5378C15.6603 18.5901 15.5796 18.6319 15.4973 18.6641L15.2924 18.7484C15.2232 18.7692 15.153 18.7905 15.0822 18.8118C15.0119 18.8335 14.9412 18.8517 14.8702 18.8666C14.8652 18.8681 14.8604 18.8694 14.8559 18.8705C14.8538 18.8742 14.8513 18.8779 14.8484 18.8817C14.8365 18.9006 14.8246 18.9178 14.8134 18.9341C14.8021 18.9503 14.7908 18.967 14.7795 18.9844C14.746 19.0379 14.7136 19.0913 14.6816 19.1454L14.6294 19.2403C14.5917 19.3062 14.558 19.3744 14.5289 19.4453C14.4998 19.5163 14.4728 19.5868 14.4474 19.6575L14.4469 19.6585C14.4149 19.7473 14.4024 19.8175 14.4093 19.8694C14.4162 19.9214 14.4455 19.9568 14.4971 19.9755C14.5159 19.9822 14.5334 19.9828 14.5497 19.9771C14.5659 19.9714 14.5809 19.9627 14.5949 19.9509C14.6089 19.9392 14.6217 19.9256 14.6334 19.9105C14.6451 19.8952 14.6551 19.8811 14.6633 19.8681C14.678 19.8469 14.6894 19.8386 14.6975 19.8433C14.7056 19.8479 14.7062 19.8597 14.6995 19.8785C14.681 19.9196 14.6565 19.9665 14.6261 20.0193C14.5955 20.072 14.5613 20.1203 14.5233 20.1641C14.4854 20.2078 14.4457 20.2418 14.4043 20.2658C14.3629 20.2898 14.3218 20.2945 14.2811 20.2797C14.2372 20.264 14.2072 20.2394 14.1908 20.2061C14.1746 20.1728 14.1662 20.1357 14.1659 20.0949C14.1656 20.054 14.1711 20.0131 14.1824 19.972C14.1936 19.931 14.2047 19.8956 14.2154 19.8658L14.2157 19.8655C14.2342 19.8189 14.2553 19.7708 14.2786 19.7201C14.302 19.6693 14.3249 19.6196 14.3461 19.5703C14.3571 19.5498 14.362 19.5354 14.3613 19.528C14.3601 19.5206 14.3456 19.5272 14.3173 19.5469C14.2401 19.604 14.1638 19.6528 14.0889 19.6943C14.0141 19.7353 13.9338 19.7676 13.8492 19.7919C13.7242 19.8284 13.5959 19.8464 13.4643 19.8458C13.3326 19.8453 13.2006 19.8306 13.0671 19.8021C12.9638 19.7805 12.8592 19.7523 12.7544 19.7169C12.6491 19.682 12.5415 19.638 12.4313 19.5861C12.3825 19.5633 12.3401 19.5387 12.3031 19.5133C12.2665 19.4875 12.237 19.4578 12.2151 19.4232C12.1931 19.3886 12.1788 19.3479 12.1726 19.3015C12.1665 19.2551 12.1712 19.2003 12.1868 19.137C12.1976 19.0966 12.2128 19.0554 12.2316 19.0133C12.2498 18.9717 12.2706 18.9318 12.2934 18.8941C12.3139 18.8604 12.3304 18.846 12.3421 18.8502C12.3535 18.8545 12.354 18.8771 12.3432 18.9169C12.3335 18.9542 12.3308 18.9887 12.335 19.0204C12.3393 19.052 12.3526 19.0815 12.3749 19.1093C12.4304 19.1755 12.4973 19.2269 12.5752 19.2636C12.6532 19.3004 12.7318 19.3341 12.8111 19.3646C13.0979 19.4769 13.415 19.5382 13.7618 19.548C13.832 19.5504 13.9009 19.5469 13.9684 19.538C14.0365 19.5287 14.1024 19.5109 14.1672 19.4846C14.2661 19.4458 14.3489 19.3921 14.4152 19.3234C14.4814 19.2542 14.4981 19.2409 14.5529 19.1492C14.5644 19.1272 14.5774 19.1084 14.5918 19.0928C14.6061 19.0778 14.6199 19.0633 14.6343 19.0488C14.6674 19.0146 14.7004 18.9816 14.7324 18.9486C14.7566 18.9245 14.7815 18.9007 14.8075 18.8772C14.8031 18.8738 14.8125 18.8603 14.836 18.8361C14.8667 18.8098 14.8973 18.783 14.9275 18.7551C14.9583 18.7272 14.9924 18.7047 15.0298 18.6881C15.0615 18.6749 15.1032 18.6581 15.1556 18.6381C15.2015 18.6203 15.4298 18.5393 15.4977 18.5121C15.6336 18.4572 15.7682 18.3966 15.902 18.3301C15.917 18.3229 15.9336 18.3153 15.9529 18.3068C15.9608 18.3034 15.968 18.3007 15.9746 18.2985ZM6.46038 21.9194C6.53969 21.8817 6.65687 21.8177 6.65412 21.6795C6.48015 21.6273 6.25885 21.6173 6.17352 21.8952C6.2587 21.9578 6.3978 21.9491 6.46038 21.9194ZM17.4674 21.9194C17.388 21.8817 17.2709 21.8177 17.2736 21.6795C17.4476 21.6273 17.6689 21.6173 17.7542 21.8952C17.669 21.9578 17.53 21.9491 17.4674 21.9194ZM5.19249 18.0746C4.79197 17.9481 4.49058 18.2629 4.57096 18.5827L6.07473 21.6861C6.22454 21.502 6.37254 21.4832 6.51924 21.4743L5.19249 18.0746ZM18.7353 18.0746C19.1358 17.9481 19.4372 18.2629 19.3568 18.5827L17.853 21.6861C17.7032 21.502 17.5552 21.4832 17.4085 21.4743L18.7353 18.0746ZM14.6189 20.8734C14.6273 20.8499 14.6645 20.8084 14.7301 20.7489C14.7959 20.6894 14.8351 20.662 14.8476 20.6665C14.8883 20.6812 14.9205 20.7144 14.9443 20.7664C14.968 20.8183 14.9731 20.8631 14.9595 20.9007C14.9471 20.9351 14.9138 20.9722 14.8596 21.012C14.8054 21.0517 14.7682 21.0679 14.7478 21.0605C14.7384 21.0572 14.7131 21.0268 14.6718 20.9695C14.6576 20.9501 14.6433 20.9308 14.629 20.9115C14.6183 20.8971 14.615 20.8843 14.6189 20.8734ZM8.8698 20.9121C8.86854 20.9038 8.88445 20.858 8.91753 20.7743C8.95068 20.6907 8.97209 20.6481 8.982 20.6465C9.00991 20.6421 9.04553 20.6541 9.08886 20.6827C9.13246 20.7128 9.15668 20.7435 9.16163 20.7748C9.16736 20.8109 9.15574 20.86 9.12679 20.9219C9.09755 20.9821 9.07471 21.0136 9.0583 21.0162C9.05004 21.0175 9.03667 21.0124 9.01795 21.0011C8.99934 20.9897 8.98062 20.9779 8.9618 20.9658C8.94022 20.9574 8.91996 20.9492 8.90096 20.9412C8.88203 20.9333 8.87162 20.9235 8.8698 20.9121ZM8.64084 20.6323C8.63875 20.6192 8.65587 20.5675 8.69215 20.4775C8.72849 20.3875 8.75155 20.3417 8.76141 20.3401C8.78282 20.3368 8.8164 20.3466 8.86221 20.3697C8.90636 20.393 8.93796 20.4167 8.9569 20.4407C8.97418 20.4008 8.99229 20.3608 9.01123 20.3208C9.03771 20.2643 9.05423 20.2356 9.06078 20.2345C9.0904 20.2298 9.12943 20.2422 9.17793 20.2716C9.22693 20.3043 9.25418 20.3379 9.25968 20.3724C9.26596 20.4119 9.25142 20.4639 9.21619 20.5285C9.18173 20.5879 9.15547 20.619 9.13741 20.6219C9.1242 20.624 9.10168 20.6149 9.06986 20.5946C9.02467 20.5647 8.98756 20.5437 8.95866 20.5314C8.91302 20.6583 8.87135 20.7247 8.83347 20.7307C8.82692 20.7318 8.79334 20.7169 8.73278 20.686C8.67228 20.6552 8.64161 20.6373 8.64084 20.6323ZM15.4588 19.1237C15.4608 19.1218 15.4629 19.1199 15.4649 19.1179C15.4729 19.1102 15.4795 19.1055 15.4846 19.1038C15.4896 19.1021 15.4918 19.1046 15.4911 19.1114C15.4903 19.1183 15.4837 19.1318 15.4711 19.152C15.3948 19.2802 15.3231 19.4123 15.2564 19.5484C15.0771 19.9135 15.2075 19.6457 15.1151 19.8744C15.0828 19.9637 15.0702 20.0343 15.0771 20.0864C15.084 20.1384 15.1133 20.1738 15.165 20.1924C15.1838 20.1992 15.2013 20.1997 15.2175 20.1941C15.2337 20.1884 15.2488 20.1797 15.2628 20.1679C15.2767 20.1562 15.2896 20.1426 15.3013 20.1274C15.313 20.1121 15.3229 20.098 15.3311 20.0851C15.3459 20.0639 15.3573 20.0555 15.3653 20.0602C15.3734 20.0649 15.3741 20.0766 15.3673 20.0955C15.3489 20.1366 15.3244 20.1835 15.2939 20.2362C15.2634 20.289 15.2291 20.3372 15.1912 20.381C15.1532 20.4248 15.1135 20.4587 15.0722 20.4828C15.0307 20.5067 14.9896 20.5114 14.949 20.4967C14.9051 20.4809 14.875 20.4563 14.8587 20.423C14.8424 20.3897 14.8341 20.3526 14.8338 20.3119C14.8335 20.271 14.839 20.2301 14.8502 20.189C14.8615 20.148 14.8725 20.1126 14.8833 20.0828L14.8872 20.0793C14.9143 20.0048 14.9568 19.9107 15.0143 19.7969C15.1443 19.5399 14.9512 19.9103 15.2053 19.4251C15.2274 19.3835 15.2541 19.3436 15.2857 19.3054C15.3041 19.2839 15.3264 19.2587 15.3527 19.2301C15.3789 19.2015 15.4082 19.1718 15.4406 19.141C15.4426 19.1391 15.4446 19.1371 15.4467 19.1352L15.4588 19.1237ZM10.0312 19.3372C10.1715 19.3184 10.3076 19.2943 10.4396 19.2649C10.5715 19.2356 10.7014 19.194 10.8294 19.1399C10.9431 19.0916 11.0526 19.035 11.1579 18.9703C11.263 18.9056 11.3639 18.837 11.4603 18.7644C11.5957 18.662 11.7225 18.5547 11.8404 18.4425C11.9583 18.3302 12.0791 18.2172 12.2026 18.1032C12.2393 18.0687 12.2762 18.0358 12.3135 18.0047C12.3506 17.9735 12.3907 17.9444 12.4337 17.9174C12.4735 17.8925 12.5018 17.8851 12.5186 17.895C12.5353 17.905 12.5359 17.9298 12.5203 17.9694C12.5099 17.9997 12.4988 18.0309 12.4871 18.0631C12.4753 18.0953 12.4616 18.1253 12.4457 18.1531C12.438 18.1678 12.4293 18.1797 12.4198 18.1888C12.4102 18.1979 12.3978 18.207 12.3824 18.2162C12.3606 18.2281 12.33 18.2524 12.2902 18.289C12.2505 18.3256 12.1999 18.3732 12.1384 18.4319C12.0667 18.5005 11.9952 18.5705 11.9238 18.6416C11.8525 18.7128 11.7797 18.7829 11.7056 18.8519C11.6314 18.921 11.556 18.9881 11.4795 19.0533C11.403 19.1185 11.3238 19.1796 11.2418 19.2364C10.8974 19.4781 10.513 19.6325 10.0887 19.6998C9.97992 19.7153 9.88667 19.728 9.80899 19.7378C9.73126 19.7475 9.66519 19.7509 9.61075 19.7477C9.55107 19.7437 9.49189 19.7371 9.43309 19.7278C9.3743 19.7186 9.31721 19.7041 9.26177 19.6842C9.24025 19.6758 9.22313 19.6692 9.21063 19.6644C9.19808 19.6598 9.18674 19.6573 9.17661 19.6573C9.16648 19.6572 9.15701 19.6612 9.1482 19.6693C9.13934 19.6775 9.128 19.6911 9.11418 19.7101C9.10174 19.7272 9.0888 19.747 9.07553 19.7693C9.06221 19.7917 9.04625 19.8187 9.02769 19.8502C8.99241 19.9047 8.94798 19.9459 8.89425 19.9738C8.84052 20.0016 8.78084 20.0107 8.71522 20.0009C8.67883 19.9948 8.6458 19.9883 8.61596 19.9812C8.58623 19.9741 8.55265 19.9752 8.51533 19.9845C8.4813 19.9933 8.44866 20.0052 8.41733 20.0203C8.38601 20.0354 8.35573 20.057 8.32644 20.0852C8.28235 20.1259 8.25328 20.1445 8.23919 20.1408C8.22509 20.1371 8.23241 20.1086 8.26099 20.0552C8.29325 19.9927 8.33123 19.932 8.37494 19.8728C8.41871 19.8136 8.46804 19.7603 8.52281 19.7128C8.55094 19.6881 8.5815 19.6652 8.61431 19.644C8.64723 19.6228 8.68285 19.6108 8.72116 19.608C8.75298 19.6064 8.78469 19.6098 8.8164 19.6183C8.84806 19.6267 8.88015 19.6326 8.91275 19.6358C8.9488 19.6403 8.98062 19.6361 9.0081 19.6232C9.03557 19.6105 9.05995 19.5915 9.08126 19.5662C9.10581 19.5404 9.12761 19.5133 9.14677 19.485C9.16587 19.4567 9.18492 19.4283 9.20413 19.4001C9.23177 19.362 9.25809 19.3363 9.28291 19.3231C9.3078 19.3099 9.34551 19.3086 9.3961 19.319C9.51066 19.3397 9.61752 19.3518 9.71672 19.3555C9.81593 19.3592 9.9208 19.3531 10.0312 19.3372ZM14.8833 19.1113C14.8913 19.0894 14.928 19.0487 14.9938 18.9892C15.0594 18.9298 15.0986 18.9022 15.1111 18.9067C15.1519 18.9214 15.1841 18.9547 15.2079 19.0067C15.2316 19.0586 15.2367 19.1033 15.2231 19.1409C15.2107 19.1754 15.1775 19.2121 15.1236 19.251C15.0697 19.29 15.0326 19.3058 15.0123 19.2985C15.0029 19.2951 14.9775 19.2648 14.9362 19.2074C14.9214 19.1897 14.9068 19.1711 14.8926 19.1518C14.8824 19.1358 14.8794 19.1223 14.8833 19.1113ZM12.0073 1.98526C12.0508 1.98542 12.0942 1.98586 12.1378 1.98663C14.5805 2.03011 16.7804 3.05597 18.3593 4.67622C19.9376 6.29598 20.8949 8.50945 20.852 10.9283C20.8239 12.4863 20.3841 13.9454 19.637 15.204C18.8933 16.4572 17.9304 17.4759 16.6884 18.2298C16.6598 18.2475 16.6312 18.2657 16.602 18.2832L16.7017 18.3658C16.7281 18.3493 16.7539 18.3323 16.7809 18.3157C19.2808 16.7576 20.9687 14.0257 21.0243 10.8975C21.1124 5.96576 17.114 1.87106 12.1235 1.78195C12.0835 1.78124 12.0436 1.7808 12.0037 1.78058L11.9639 1.78052C11.9108 1.78052 11.8575 1.78102 11.8042 1.78195C6.81377 1.87106 2.81535 5.96576 2.90344 10.8975C2.95904 14.0257 4.64693 16.7576 7.14683 18.3157C7.17381 18.3323 7.19968 18.3493 7.22605 18.3658L7.32575 18.2832C7.29657 18.2657 7.26795 18.2475 7.23932 18.2298C5.99735 17.4759 5.03449 16.4572 4.29074 15.204C3.54369 13.9454 3.10383 12.4863 3.07575 10.9283C3.03281 8.50945 3.99016 6.29598 5.5685 4.67622C7.14738 3.05597 9.34727 2.03011 11.7899 1.98663C11.848 1.98559 11.906 1.98515 11.9639 1.9852L12.0073 1.98526ZM17.3753 4.5295C17.3818 4.51596 17.3884 4.50253 17.3953 4.48932L17.3983 4.48376L17.4423 4.40418C17.465 4.42427 17.4877 4.44441 17.5104 4.46456C17.5358 4.48767 17.56 4.51233 17.5832 4.5377C17.6122 4.56945 17.6398 4.60253 17.6658 4.63676C17.7699 4.7738 17.8512 4.93153 17.8863 5.10066L17.8895 5.09405L17.8923 5.08844L17.9341 5.0077C17.9573 5.02718 17.9805 5.04667 18.0037 5.06615C18.0298 5.0886 18.0546 5.11255 18.0785 5.13726C18.1084 5.16824 18.1369 5.20055 18.1639 5.23406C18.2564 5.34909 18.3324 5.47974 18.3773 5.62069L18.3756 5.61926L18.4462 5.67655C18.4727 5.69856 18.4979 5.72206 18.5223 5.74639C18.5526 5.77683 18.5817 5.80864 18.6092 5.84171C18.7301 5.98695 18.8246 6.15833 18.8613 6.34501C18.8623 6.35019 18.8632 6.35536 18.8642 6.36053L18.8826 6.32768C18.9052 6.34793 18.9277 6.36818 18.9503 6.38849C18.9756 6.41183 18.9996 6.43654 19.0226 6.46213C19.0515 6.49405 19.0788 6.52729 19.1046 6.56169C19.2179 6.71293 19.3037 6.88893 19.3307 7.07721C19.3478 7.19515 19.3419 7.31524 19.3196 7.43219L19.32 7.43153C19.3501 7.3826 19.3832 7.33549 19.4196 7.29119L19.4236 7.28634L19.483 7.21744C19.501 7.24176 19.5191 7.26609 19.5372 7.29042C19.5574 7.31826 19.576 7.34727 19.5936 7.37688C19.6155 7.41386 19.6357 7.45189 19.6542 7.49069C19.7354 7.66136 19.7846 7.85079 19.774 8.04066C19.7713 8.08766 19.7652 8.13422 19.7559 8.18018L19.8278 8.1154C19.8426 8.14182 19.8575 8.16823 19.8724 8.19465C19.8888 8.22486 19.9036 8.25602 19.9172 8.28761C19.9342 8.32712 19.9495 8.36741 19.9629 8.40824C20.0217 8.58783 20.0463 8.78199 20.0115 8.969C20.0019 9.02085 19.9879 9.07164 19.9702 9.12118C19.9806 9.11286 19.9912 9.10472 20.0019 9.09674L20.0071 9.09305L20.0813 9.0406C20.0929 9.06856 20.1046 9.09657 20.1162 9.12453C20.1291 9.15651 20.1401 9.18914 20.1499 9.22211C20.1622 9.26333 20.1726 9.3051 20.1811 9.34726C20.2184 9.53251 20.2201 9.72822 20.1636 9.90984C20.139 9.98909 20.1039 10.0645 20.0611 10.1355C20.0791 10.1235 20.0973 10.112 20.1159 10.101L20.1213 10.0978L20.2006 10.0534C20.2093 10.0824 20.218 10.1114 20.2267 10.1405C20.2361 10.1736 20.2437 10.2072 20.2501 10.241C20.258 10.2833 20.264 10.3259 20.2681 10.3687C20.286 10.5568 20.2675 10.7517 20.1925 10.9265C20.1465 11.0336 20.0809 11.1311 20.0033 11.2178L20.0061 11.2162C20.0602 11.1851 20.1165 11.1576 20.1746 11.1348L20.1804 11.1326L20.2659 11.1014C20.2698 11.1314 20.2737 11.1615 20.2776 11.1915C20.2817 11.2257 20.2838 11.2601 20.2846 11.2945C20.2857 11.3375 20.2848 11.3806 20.282 11.4234C20.2696 11.612 20.2201 11.8014 20.118 11.9619C20.0535 12.0635 19.9699 12.1517 19.8757 12.2264C19.9275 12.2081 19.9803 12.1928 20.0339 12.1814L20.0401 12.1802L20.1294 12.1633C20.1284 12.1936 20.1274 12.2239 20.1263 12.2542C20.1247 12.2886 20.1211 12.3229 20.1164 12.3569C20.1104 12.3995 20.1025 12.4419 20.0927 12.4837C20.0497 12.6677 19.9698 12.8465 19.8429 12.9882C19.7277 13.1169 19.5782 13.2118 19.4192 13.2773C19.3808 13.2932 19.3418 13.3075 19.3021 13.3198C19.302 13.3343 19.3016 13.3487 19.301 13.3632C19.3774 13.3251 19.4581 13.2953 19.5402 13.273C19.6171 13.252 19.6961 13.237 19.7756 13.2302L19.7819 13.2298L19.8727 13.2242C19.8678 13.2542 19.863 13.2841 19.8581 13.314C19.8523 13.3479 19.8444 13.3815 19.8355 13.4147C19.8242 13.4562 19.811 13.4972 19.796 13.5375C19.7303 13.7147 19.6287 13.882 19.4851 14.0067C19.3547 14.1201 19.1946 14.1956 19.0286 14.2407C18.9774 14.2547 18.9252 14.266 18.8726 14.274C18.8683 14.2987 18.8633 14.3233 18.8575 14.3476C18.9397 14.3247 19.0244 14.3107 19.1094 14.3043C19.1389 14.3021 19.1684 14.3009 19.198 14.3004C19.2091 14.3003 19.2203 14.3002 19.2314 14.3004C19.2706 14.3009 19.3097 14.3028 19.3486 14.3069L19.3549 14.3077L19.4451 14.3194C19.434 14.3498 19.4231 14.3804 19.4116 14.4107C19.3825 14.4849 19.3456 14.5563 19.3035 14.6241C19.2095 14.7755 19.086 14.9118 18.9328 15.0048C18.7796 15.0978 18.6016 15.1444 18.4239 15.1578C18.3937 15.1601 18.3633 15.1615 18.3328 15.1619C18.3301 15.1693 18.3272 15.1767 18.3242 15.1841C18.3701 15.1782 18.4166 15.1752 18.4627 15.1744C18.473 15.1743 18.4832 15.1743 18.4934 15.1743C18.5129 15.1745 18.5324 15.175 18.5519 15.176C18.6019 15.1786 18.6517 15.1837 18.701 15.1915C18.7397 15.1975 18.7781 15.2053 18.8161 15.215L18.8222 15.2166L18.9097 15.2414C18.8942 15.2698 18.8791 15.2985 18.8634 15.3268C18.8238 15.3961 18.7768 15.4613 18.7254 15.5223C18.6105 15.6584 18.4685 15.7754 18.3033 15.8451C18.1764 15.8987 18.0391 15.9231 17.9016 15.9258C17.9549 15.9302 18.008 15.9377 18.0604 15.9482C18.1136 15.9588 18.1662 15.9722 18.2176 15.9896L18.2235 15.9917L18.309 16.0226C18.2915 16.0499 18.2744 16.0774 18.2566 16.1045C18.212 16.1707 18.1605 16.2323 18.1047 16.2894C17.9802 16.4169 17.8301 16.5231 17.6604 16.5807C17.5871 16.6056 17.5113 16.621 17.4345 16.6284C17.4321 16.6279 17.5051 16.6465 17.5432 16.6593L17.5491 16.6614L17.6346 16.6924C17.6172 16.7197 17.5999 16.7471 17.5821 16.7742C17.5376 16.8404 17.4861 16.9021 17.4304 16.9591C17.3058 17.0866 17.1557 17.1929 16.986 17.2504C16.8162 17.308 16.6324 17.315 16.4559 17.2896C16.4188 17.2843 16.3818 17.2775 16.3452 17.2693C16.3392 17.2829 16.333 17.2965 16.3265 17.3099C16.3406 17.3091 16.3547 17.3086 16.3688 17.3083C16.3798 17.3081 16.3908 17.308 16.4017 17.3081C16.4877 17.3091 16.5733 17.3182 16.6577 17.335C16.7108 17.3456 16.7634 17.3591 16.8148 17.3764L16.8207 17.3785L16.9062 17.4095C16.8888 17.4368 16.8716 17.4642 16.8538 17.4913C16.8093 17.5575 16.7577 17.6192 16.702 17.6762C16.5774 17.8037 16.4273 17.91 16.2576 17.9676C16.174 17.9959 16.0869 18.012 15.999 18.018C16.1295 18.0809 16.2635 18.1476 16.4022 18.2183C16.455 18.1875 16.5068 18.1556 16.5591 18.1237C17.7718 17.3801 18.7903 16.352 19.5148 15.1314C20.2492 13.8941 20.6819 12.4588 20.7094 10.9256C20.7518 8.54578 19.8099 6.36857 18.2569 4.77474C16.7038 3.18151 14.5392 2.1721 12.1351 2.12923C12.0922 2.12846 12.0494 2.12802 12.0066 2.12785L11.9639 2.1278C11.9069 2.12774 11.8498 2.12818 11.7927 2.12923C9.38856 2.1721 7.2239 3.18151 5.67084 4.77474C4.11783 6.36857 3.17594 8.54578 3.21833 10.9256C3.24586 12.4588 3.67857 13.8941 4.41296 15.1314C5.13744 16.352 6.1559 17.3801 7.36869 18.1237C7.42093 18.1556 7.47274 18.1875 7.52559 18.2183C7.63777 18.1611 7.74686 18.1065 7.85354 18.0544C7.78221 18.0394 7.71199 18.0191 7.6436 17.9931C7.40224 17.9012 7.19038 17.7425 7.01475 17.555C6.97584 17.5135 6.93861 17.4704 6.90318 17.4259C6.86721 17.3807 6.83312 17.334 6.80167 17.2855L6.76531 17.2261C6.68355 17.2006 6.60396 17.1684 6.5278 17.1286C6.32157 17.0212 6.14599 16.8616 6.00294 16.6794C5.97929 16.6493 5.9565 16.6186 5.93455 16.5872C5.89804 16.535 5.86387 16.4812 5.83224 16.4259C5.80709 16.382 5.78345 16.3371 5.76245 16.291L5.76013 16.2857L5.72568 16.2061C5.74086 16.203 5.75602 16.1999 5.7712 16.1967C5.64437 16.1378 5.52486 16.0636 5.41881 15.9721C5.24272 15.8202 5.10838 15.6247 5.01087 15.4146C4.99475 15.3799 4.97962 15.3447 4.96544 15.3092C4.94186 15.25 4.92093 15.1898 4.90282 15.1288C4.88841 15.0802 4.8757 15.0311 4.86581 14.9814L4.86476 14.9758L4.84941 14.8902C4.87837 14.8912 4.90732 14.892 4.93628 14.893C4.94299 14.8932 4.9497 14.8935 4.95641 14.8939C4.78709 14.7857 4.63399 14.6507 4.51624 14.4873C4.38027 14.2987 4.29507 14.0772 4.24906 13.8503C4.24145 13.8127 4.2349 13.775 4.22939 13.7371C4.22021 13.6741 4.21384 13.6107 4.21041 13.5471C4.20769 13.4966 4.20673 13.4458 4.20867 13.3952L4.20895 13.3895L4.21391 13.3028C4.24185 13.3104 4.26979 13.318 4.29773 13.3256C4.34374 13.3384 4.38894 13.3544 4.43349 13.3716C4.473 13.3869 4.51205 13.4034 4.55055 13.4211C4.53572 13.4113 4.52103 13.4014 4.50646 13.3912C4.47503 13.3693 4.44419 13.3466 4.41402 13.3231C4.23149 13.1805 4.07143 13.0054 3.96334 12.7995C3.85524 12.5936 3.802 12.3625 3.78835 12.1313C3.78609 12.0931 3.78492 12.0548 3.78478 12.0165C3.78455 11.9529 3.78717 11.8892 3.79272 11.8257C3.79713 11.7753 3.80332 11.725 3.81236 11.6751L3.81344 11.6695L3.83056 11.5843C3.85716 11.5957 3.88376 11.6072 3.91036 11.6186C3.95409 11.6379 3.99657 11.66 4.03825 11.6834C4.09029 11.7124 4.18339 11.7705 4.17989 11.7672C4.15233 11.7406 4.12548 11.7133 4.09942 11.6852C3.94179 11.5156 3.81154 11.3173 3.73748 11.0968C3.66342 10.8764 3.64751 10.6398 3.67069 10.4094C3.67453 10.3713 3.67944 10.3333 3.68537 10.2955C3.69524 10.2326 3.70793 10.1701 3.72347 10.1083C3.73582 10.0593 3.74991 10.0106 3.76674 9.96273L3.7687 9.95733L3.7991 9.8761C3.82355 9.89156 3.84799 9.90703 3.87244 9.92249C3.91256 9.94847 3.95102 9.97703 3.98848 10.0067C4.03961 10.0471 4.0888 10.09 4.13594 10.1349C4.1554 10.1535 4.17451 10.1725 4.19323 10.1918L4.19577 10.1861C4.1595 10.1389 4.12526 10.0902 4.09312 10.0402C4.07243 10.008 4.05261 9.97522 4.03373 9.94192C3.91955 9.74049 3.83858 9.51749 3.81739 9.28595C3.79621 9.05436 3.83538 8.82041 3.91114 8.60158C3.92366 8.56543 3.93721 8.5296 3.95171 8.49415C3.97585 8.43527 4.00261 8.37737 4.03199 8.3209C4.05535 8.27594 4.08031 8.2318 4.10772 8.1892L4.11087 8.18436L4.15925 8.11226C4.17945 8.13301 4.19965 8.1537 4.21985 8.17445C4.25291 8.2089 4.28372 8.24561 4.31333 8.28309C4.31721 8.28799 4.32105 8.29289 4.32488 8.29784C4.27038 8.11595 4.2431 7.92547 4.25623 7.73571C4.27227 7.50373 4.34829 7.27902 4.45799 7.07506C4.47612 7.04138 4.49521 7.00819 4.51518 6.9755C4.54841 6.92118 4.58407 6.86835 4.62208 6.81722C4.65232 6.7766 4.68401 6.73698 4.71786 6.69928L4.72172 6.69509L4.78096 6.63153C4.79761 6.65519 4.81426 6.67891 4.83092 6.70263C4.85804 6.74199 4.8826 6.7831 4.90585 6.82481L4.90673 6.82641C4.89784 6.6498 4.91422 6.47182 4.96466 6.30203C5.03088 6.07914 5.15403 5.87633 5.30555 5.70121C5.3306 5.67226 5.35646 5.64402 5.38307 5.61651C5.42734 5.57072 5.47366 5.52691 5.52191 5.4853C5.56027 5.45222 5.59984 5.42047 5.64109 5.39108L5.64578 5.38778L5.71746 5.33863C5.72854 5.36543 5.73962 5.39218 5.7507 5.41893C5.75446 5.42828 5.75809 5.43764 5.76161 5.44705C5.78464 5.30996 5.82421 5.17584 5.8838 5.04997C5.9833 4.83979 6.13599 4.65823 6.31248 4.50825C6.34165 4.48349 6.37153 4.45955 6.40203 4.43638C6.45278 4.39791 6.50525 4.36169 6.55927 4.32796C6.60224 4.3011 6.64618 4.27578 6.69144 4.253L6.69659 4.25052L6.77494 4.21293C6.7818 4.24106 6.78865 4.26918 6.79551 4.2973C6.80643 4.34381 6.81431 4.39108 6.82077 4.43836C6.82957 4.50292 6.8353 4.56791 6.83806 4.63302C6.8392 4.65993 6.83982 4.68679 6.83992 4.7137C6.84301 4.71249 6.84608 4.71123 6.84917 4.70996L6.85257 4.70864C6.88884 4.61783 6.93598 4.53153 6.99557 4.45388C7.01293 4.43126 7.03134 4.40941 7.05071 4.38844C7.16178 4.2683 7.30251 4.17799 7.4523 4.1137C7.5258 4.08217 7.60208 4.05619 7.68011 4.03847L7.68628 4.03715L7.77541 4.01904C7.77479 4.04931 7.77417 4.07964 7.77355 4.10991C7.77242 4.14441 7.76934 4.17881 7.76504 4.21304C7.75967 4.25586 7.75233 4.2984 7.7431 4.34051C7.70391 4.51937 7.63029 4.69372 7.51228 4.83517C7.43406 4.92889 7.33813 5.00605 7.23311 5.06797L7.23164 5.07325C7.25638 5.07072 7.28116 5.06868 7.30597 5.06703C7.3444 5.0645 7.38287 5.06318 7.42138 5.06257C7.43707 5.06246 7.43703 5.06246 7.45275 5.06246C7.50839 5.0629 7.56401 5.06499 7.61937 5.07072L7.62505 5.07138L7.71127 5.08195C7.70127 5.11117 7.69148 5.14039 7.68121 5.16951C7.66389 5.21711 7.64386 5.26373 7.62224 5.30952C7.59645 5.36411 7.56827 5.41761 7.53788 5.46978C7.51879 5.50258 7.49882 5.53483 7.47796 5.56653C7.3487 5.76301 7.18418 5.93929 6.98394 6.06461C6.9102 6.11073 6.83236 6.14947 6.75178 6.18156C6.7444 6.21441 6.73574 6.24699 6.72642 6.2793C6.70837 6.34188 6.68733 6.40368 6.66352 6.46433C6.64966 6.49966 6.63486 6.53461 6.61909 6.56912C6.51747 6.79146 6.37479 6.99807 6.18559 7.15481C6.11895 7.21001 6.04736 7.25866 5.97223 7.30115C5.97178 7.31072 5.97126 7.32024 5.97067 7.32977C5.9667 7.39482 5.95963 7.4597 5.94962 7.5241C5.9438 7.56158 5.93696 7.59889 5.9291 7.63598C5.87839 7.87517 5.78417 8.10786 5.63369 8.30208C5.57395 8.37913 5.50623 8.44947 5.4327 8.5132C5.4379 8.54594 5.44185 8.57885 5.44514 8.61177C5.45159 8.6766 5.45495 8.74176 5.45534 8.80692C5.45557 8.84484 5.45478 8.88282 5.45293 8.92068C5.44103 9.16487 5.38516 9.40962 5.26761 9.6253C5.21768 9.71694 5.1575 9.80235 5.0897 9.88144L5.11322 9.93185C5.13302 9.97533 5.14998 10.0201 5.16556 10.0653C5.18682 10.1269 5.20513 10.1895 5.22056 10.2528C5.22954 10.2897 5.23754 10.3268 5.24449 10.364C5.2893 10.6044 5.29145 10.8555 5.22688 11.0924C5.19872 11.1958 5.15853 11.2953 5.10907 11.3901L5.13692 11.4312C5.16335 11.471 5.18721 11.5125 5.20975 11.5546C5.2405 11.6121 5.26852 11.671 5.29379 11.7311C5.30851 11.766 5.32229 11.8014 5.33507 11.8371C5.41743 12.0673 5.45937 12.3148 5.4332 12.5591C5.40942 12.7809 5.33149 12.9944 5.22284 13.1883C5.20414 13.2217 5.18448 13.2545 5.16395 13.2869L5.16056 13.2922C5.16979 13.301 5.17893 13.3098 5.18799 13.3188C5.19392 13.3049 5.19999 13.2911 5.20621 13.2774C5.23246 13.2194 5.26132 13.1626 5.29272 13.1071C5.31771 13.0631 5.34425 13.0198 5.37319 12.9783L5.3765 12.9736L5.42743 12.9033C5.44688 12.9247 5.46633 12.9462 5.48578 12.9676C5.51756 13.0033 5.54701 13.0411 5.57526 13.0796C5.61379 13.1321 5.64981 13.1865 5.68328 13.2425C5.70277 13.275 5.72139 13.3081 5.73906 13.3416C5.85298 13.558 5.92928 13.7971 5.9377 14.0426C5.93988 14.1064 5.93759 14.1701 5.93132 14.2334L5.93694 14.2198C5.96084 14.2362 5.98474 14.2525 6.00864 14.2689C6.04784 14.2962 6.08527 14.3261 6.12168 14.357C6.17138 14.3992 6.21907 14.4437 6.26462 14.4903C6.29113 14.5175 6.31693 14.5453 6.34192 14.5739C6.50299 14.7578 6.63279 14.9727 6.69804 15.2095C6.71009 15.2533 6.71994 15.2975 6.72772 15.3422C6.76649 15.3583 6.80443 15.3764 6.84178 15.3955C6.89981 15.4252 6.95644 15.4576 7.01145 15.4925C7.04348 15.5128 7.07497 15.5341 7.10584 15.5561C7.30099 15.6956 7.47376 15.8709 7.59144 16.0811C7.61583 16.1247 7.63776 16.1695 7.65734 16.2153C7.68617 16.2237 7.71475 16.233 7.74308 16.2429C7.80465 16.2643 7.86519 16.2887 7.92449 16.3158C7.95901 16.3315 7.99311 16.3482 8.02672 16.3658C8.24326 16.4794 8.44189 16.633 8.5881 16.8305C8.72309 17.0126 8.81112 17.2263 8.86226 17.4463C8.87085 17.4833 8.87839 17.5205 8.88494 17.5578C8.88781 17.5739 8.89039 17.59 8.89287 17.6061L8.89766 17.6044C9.72971 17.305 10.5552 17.1734 11.7861 17.1716C11.8453 17.1694 11.9046 17.1679 11.9639 17.1672L12.0083 17.1679C12.0528 17.1687 12.0972 17.1699 12.1417 17.1716C13.5214 17.1736 14.3918 17.3388 15.3329 17.7204C15.3217 17.6824 15.3121 17.6438 15.3042 17.605C15.268 17.4305 15.2639 17.2467 15.311 17.0738C15.3581 16.9009 15.4551 16.7447 15.5748 16.6126C15.6284 16.5536 15.6868 16.4984 15.7502 16.4499L15.7552 16.4461L15.8287 16.3926C15.8407 16.4204 15.8528 16.4482 15.8649 16.476C15.8781 16.5078 15.8896 16.5403 15.9 16.5731C15.9129 16.6142 15.9239 16.6558 15.933 16.6978C15.9479 16.7667 15.9579 16.8371 15.9618 16.9078C15.9839 16.8953 16.0065 16.8835 16.0293 16.8724C15.9962 16.7026 15.9936 16.5245 16.0394 16.3567C16.0865 16.1838 16.1835 16.0275 16.3032 15.8955C16.3567 15.8364 16.4152 15.7812 16.4786 15.7328L16.4836 15.729L16.5571 15.6755C16.5691 15.7033 16.5812 15.7311 16.5932 15.7589C16.6066 15.7907 16.6181 15.8231 16.6284 15.856C16.6412 15.8971 16.6523 15.9387 16.6613 15.9807C16.6763 16.0496 16.6863 16.1199 16.6901 16.1906C16.6935 16.1887 16.697 16.1868 16.7004 16.1849C16.6705 16.0204 16.6695 15.8489 16.7138 15.6869C16.7609 15.5141 16.8579 15.3578 16.9776 15.2258C17.0312 15.1667 17.0895 15.1115 17.153 15.063L17.158 15.0593L17.2315 15.0058C17.2436 15.0335 17.2556 15.0613 17.2676 15.0892C17.2721 15.0998 17.2763 15.1104 17.2803 15.1211C17.2833 15.088 17.2879 15.0551 17.2943 15.0224C17.3288 14.8465 17.4141 14.6837 17.5239 14.5433C17.5731 14.4805 17.6273 14.4212 17.687 14.3682L17.6917 14.3641L17.7611 14.3054C17.7752 14.3322 17.7892 14.3591 17.8033 14.3859C17.807 14.3934 17.8107 14.4008 17.8142 14.4083C17.8136 14.3847 17.8138 14.361 17.8149 14.3373C17.8235 14.1583 17.8843 13.9847 17.9726 13.8299C18.012 13.7606 18.0571 13.6941 18.1085 13.6331L18.1126 13.6283L18.1728 13.5601C18.1906 13.5847 18.2084 13.6092 18.2261 13.6337C18.246 13.6618 18.2642 13.6911 18.2815 13.7209C18.3029 13.7581 18.3227 13.7965 18.3407 13.8355C18.3702 13.8995 18.3952 13.9661 18.4143 14.0342C18.4271 14.0228 18.4401 14.0116 18.4533 14.0006C18.3644 13.8646 18.2985 13.7117 18.2754 13.5503C18.2499 13.3728 18.2767 13.191 18.3341 13.0222C18.3597 12.9467 18.3914 12.8728 18.4303 12.8032L18.4335 12.7977L18.4796 12.7193C18.5017 12.7401 18.5239 12.7608 18.5459 12.7816C18.5708 12.8054 18.5942 12.8307 18.6167 12.8567C18.6449 12.8892 18.6715 12.9231 18.6966 12.958C18.7377 13.0153 18.7748 13.0759 18.8065 13.1392L18.8075 13.138C18.8122 13.1317 18.8171 13.1255 18.822 13.1193L18.8237 13.1171C18.716 12.9919 18.6294 12.8463 18.5855 12.6864C18.5381 12.5136 18.542 12.3298 18.5778 12.1552C18.5938 12.0771 18.616 11.9999 18.6459 11.9258L18.6483 11.9201L18.6843 11.8366C18.7088 11.8544 18.7333 11.8722 18.7579 11.89C18.7855 11.9105 18.8119 11.9327 18.8375 11.9557C18.8695 11.9845 18.9002 12.0147 18.9294 12.0462C18.9413 12.059 18.9617 12.0823 18.9604 12.0808C18.9082 12.016 18.8632 11.9456 18.8282 11.8699C18.7531 11.7071 18.7269 11.5251 18.7337 11.347C18.7367 11.2673 18.7459 11.1875 18.7633 11.1097L18.7648 11.1036L18.7866 11.0153C18.8137 11.0289 18.8408 11.0424 18.8679 11.056C18.8957 11.0703 18.9227 11.086 18.9492 11.1026C18.9335 11.083 18.9186 11.0627 18.9045 11.0418C18.8043 10.8932 18.7493 10.7178 18.7275 10.5409C18.7177 10.4618 18.7141 10.3815 18.7187 10.3019L18.7192 10.2956L18.7266 10.205C18.7556 10.214 18.7845 10.223 18.8134 10.2321C18.8462 10.2427 18.8783 10.2553 18.9099 10.2689C18.9494 10.2859 18.9881 10.3048 19.0259 10.3254C19.0879 10.359 19.1477 10.3975 19.2038 10.4407C19.2058 10.4306 19.208 10.4206 19.2103 10.4106C19.0911 10.3458 18.9818 10.2622 18.8945 10.1579C18.7795 10.0205 18.7066 9.85166 18.6666 9.67808C18.6487 9.60037 18.6367 9.5209 18.6331 9.44121L18.6329 9.43493L18.6309 9.34401C18.6607 9.35001 18.6904 9.35601 18.7201 9.36201C18.7472 9.36785 18.7741 9.37489 18.8007 9.38282C18.7938 9.37671 18.787 9.37049 18.7803 9.36416C18.6499 9.24115 18.5578 9.08199 18.4977 8.9143C18.4707 8.83923 18.4495 8.76174 18.4367 8.68298L18.4357 8.67676L18.4231 8.58667C18.4533 8.5892 18.4835 8.59168 18.5137 8.59415C18.548 8.59735 18.5821 8.60252 18.6159 8.6089C18.6231 8.61022 18.6302 8.61166 18.6373 8.61309C18.6258 8.60549 18.6144 8.59762 18.6032 8.58948C18.4582 8.48408 18.3465 8.33802 18.2654 8.1793C18.2292 8.10824 18.1983 8.03411 18.1754 7.95761L18.1497 7.86389C18.1821 7.8624 18.2145 7.86058 18.2468 7.85948C18.2594 7.85921 18.2719 7.8591 18.2844 7.85921C18.2974 7.85943 18.3103 7.85976 18.3232 7.86031C18.3126 7.85591 18.3021 7.85134 18.2915 7.84655C18.1286 7.77187 17.9902 7.65073 17.8794 7.51116C17.8298 7.44875 17.7849 7.38216 17.7474 7.31171L17.7445 7.3061L17.7036 7.22492C17.7351 7.21705 17.7665 7.20885 17.7979 7.20137C17.8336 7.19333 17.8982 7.17957 17.8982 7.17957C17.8744 7.17121 17.8508 7.1618 17.8277 7.1515C17.6757 7.08376 17.5434 6.97666 17.4339 6.85233C17.3813 6.79251 17.333 6.72828 17.292 6.65987L17.2888 6.65442L17.2438 6.57539C17.2748 6.56593 17.3057 6.55618 17.3368 6.5471C17.3495 6.54353 17.3623 6.54022 17.3751 6.53714C17.2181 6.46719 17.0825 6.35481 16.9716 6.22454C16.9199 6.16378 16.8727 6.09878 16.8328 6.02966L16.8297 6.02416L16.7861 5.94441C16.8056 5.9388 16.8251 5.93313 16.8446 5.92751L16.8556 5.92438C16.6945 5.85052 16.5572 5.73142 16.4468 5.59411C16.3968 5.53197 16.3514 5.46565 16.3135 5.39543L16.3105 5.38987L16.2692 5.30891C16.2756 5.30726 16.2732 5.30787 16.2781 5.3066C16.1572 5.24408 16.049 5.15734 15.9558 5.0585C15.9011 5.00049 15.8507 4.93792 15.8073 4.87094L15.804 4.8656L15.7563 4.78817C15.787 4.77765 15.8176 4.76687 15.8483 4.75674C15.8963 4.74155 15.9452 4.72966 15.9947 4.72031C16.0698 4.70611 16.146 4.69796 16.2225 4.69604C16.2358 4.69576 16.2492 4.69571 16.2626 4.69576C16.2686 4.69587 16.2746 4.69598 16.2806 4.69615C16.2539 4.63858 16.2317 4.57892 16.2135 4.51838C16.1906 4.44199 16.1735 4.36351 16.1648 4.2842L16.1641 4.27793L16.1562 4.1874C16.1863 4.19141 16.2164 4.19549 16.2464 4.1995C16.2804 4.20457 16.3142 4.2115 16.3477 4.21965C16.3895 4.22983 16.4308 4.24194 16.4715 4.25581C16.554 4.28404 16.6346 4.31992 16.7101 4.36417C16.7122 4.27887 16.7237 4.19367 16.7424 4.11073C16.7599 4.03291 16.7836 3.95614 16.8149 3.88277L16.8551 3.79422C16.8793 3.81249 16.9035 3.83082 16.9276 3.84909C16.9548 3.87017 16.9808 3.89279 17.006 3.91629C17.0374 3.94568 17.0675 3.9765 17.0961 4.00859C17.2218 4.14964 17.3222 4.31778 17.3651 4.50303C17.3677 4.51403 17.3753 4.5295 17.3753 4.5295ZM8.19724 17.892C8.02876 17.8415 7.86736 17.767 7.72491 17.6634C7.56031 17.5437 7.4248 17.3881 7.31669 17.2163C7.198 17.2246 7.08018 17.2441 6.96498 17.2737L6.96109 17.2747C7.0139 17.3477 7.07229 17.4168 7.13484 17.4816C7.15804 17.5057 7.18187 17.5292 7.2063 17.552C7.36 17.6954 7.5396 17.8144 7.73992 17.8814C7.84909 17.9179 7.96297 17.9388 8.07769 17.9472C8.06845 17.9515 8.14852 17.9142 8.19724 17.892ZM15.6808 17.8593C15.7111 17.8653 15.7415 17.8701 15.7721 17.8739C15.9274 17.8931 16.0888 17.8842 16.2363 17.8291C16.3602 17.7828 16.4712 17.7064 16.5671 17.6159C16.5882 17.596 16.6086 17.5754 16.6283 17.554C16.6493 17.5313 16.6694 17.5078 16.6888 17.4837L16.6892 17.4831C16.6627 17.4764 16.6359 17.4707 16.6089 17.4658C16.5402 17.4533 16.4705 17.4465 16.4006 17.4457C16.3957 17.4457 16.3909 17.4457 16.386 17.4457C16.3374 17.4461 16.2888 17.4495 16.2407 17.4567C16.2149 17.4939 16.1865 17.5293 16.1554 17.5626C16.0374 17.6888 15.886 17.7805 15.7257 17.8427C15.7118 17.8481 15.6977 17.8533 15.6836 17.8583L15.6808 17.8593ZM8.66661 17.6917C8.61194 17.5707 8.54549 17.4551 8.46617 17.3486C8.38733 17.2428 8.2955 17.1463 8.1903 17.0664C8.06863 16.974 7.93003 16.9057 7.78531 16.8578C7.7108 16.8332 7.63458 16.8137 7.5575 16.799C7.4574 16.7799 7.35586 16.7688 7.25402 16.7653L7.25002 16.7652C7.25046 16.7665 7.25091 16.7678 7.25135 16.769C7.2849 16.8617 7.32518 16.9519 7.37216 17.0385C7.40934 17.1071 7.45065 17.1735 7.4964 17.2367C7.58554 17.3598 7.69197 17.4712 7.81607 17.5595C7.93023 17.6407 8.05788 17.7017 8.19069 17.7457C8.25978 17.7686 8.3303 17.787 8.40164 17.8013L8.41866 17.794C8.44128 17.7843 8.4638 17.7747 8.48631 17.7652C8.39972 17.7067 8.31499 17.6454 8.23082 17.5834C8.1358 17.5118 8.04148 17.4392 7.94987 17.3626C7.85799 17.2865 7.76782 17.2078 7.68238 17.1223L7.68276 17.1218C7.79314 17.1711 7.89873 17.2273 8.00267 17.286C8.1069 17.3444 8.20836 17.4066 8.3091 17.4698C8.40908 17.5342 8.5085 17.5995 8.60517 17.6687C8.61937 17.6788 8.63358 17.6889 8.64778 17.6992L8.6594 17.6945L8.66661 17.6917ZM15.6842 17.7112C15.6892 17.7092 15.6942 17.7071 15.6993 17.7051C15.844 17.6457 15.9803 17.5588 16.0817 17.4383C16.1669 17.3372 16.2262 17.2161 16.2652 17.0903C16.2738 17.0625 16.2814 17.0345 16.2881 17.0063C16.2952 16.9762 16.3012 16.9458 16.3063 16.9153L16.3064 16.9146C16.3061 16.9146 16.3059 16.9147 16.3057 16.9148C16.2759 16.9231 16.2464 16.9323 16.2172 16.9427C16.1898 16.9525 16.1628 16.9631 16.1362 16.9747C16.008 17.0305 15.8874 17.1084 15.7937 17.213C15.6999 17.3176 15.6357 17.446 15.5942 17.5794C15.5927 17.5844 15.5912 17.5893 15.5897 17.5943C15.6284 17.5489 15.6686 17.5049 15.7095 17.4613C15.7645 17.4044 15.8205 17.3484 15.8802 17.2954C15.9394 17.2422 16.001 17.1909 16.0689 17.145L16.0694 17.1454C16.035 17.2198 15.9942 17.2887 15.9511 17.3557C15.9082 17.423 15.8619 17.4873 15.8145 17.5506C15.7723 17.6052 15.7295 17.6593 15.6842 17.7112ZM15.8257 16.9972C15.8274 16.9276 15.8216 16.8577 15.8104 16.7892C15.8056 16.7606 15.7999 16.7321 15.7932 16.7038C15.7861 16.6737 15.7778 16.6439 15.7687 16.6143L15.7684 16.6136C15.7682 16.6138 15.7681 16.6139 15.7679 16.6141C15.745 16.6349 15.7227 16.6564 15.7013 16.6788C15.6812 16.6997 15.6618 16.7213 15.6432 16.7436C15.5536 16.8509 15.4807 16.9745 15.4438 17.11C15.4068 17.2455 15.4068 17.389 15.4296 17.5269C15.4337 17.5524 15.4451 17.6003 15.4451 17.6003C15.4458 17.5979 15.4465 17.5955 15.4471 17.5931C15.493 17.4209 15.5716 17.2546 15.6912 17.1212C15.7314 17.0764 15.7757 17.0357 15.8232 16.9991L15.8257 16.9972ZM8.73873 17.5255C8.72028 17.4354 8.69535 17.3467 8.66325 17.2605C8.61723 17.1369 8.55612 17.0185 8.47751 16.9123C8.38661 16.7896 8.27271 16.6852 8.14719 16.5987C8.07987 16.5523 8.00914 16.5108 7.93613 16.4739C7.8481 16.4295 7.75673 16.3919 7.66307 16.3612L7.65925 16.3599C7.65933 16.3613 7.6594 16.3626 7.65948 16.3639C7.66572 16.4623 7.67912 16.5601 7.69995 16.6565C7.70249 16.6683 7.70515 16.68 7.70791 16.6918C7.87944 16.736 8.04525 16.8038 8.19377 16.9007C8.22878 16.9235 8.26269 16.9479 8.29545 16.9738C8.38887 17.0477 8.47244 17.1335 8.54627 17.2269C8.61976 17.32 8.68373 17.4205 8.73873 17.5255ZM16.4092 17.1421C16.4394 17.1481 16.4699 17.153 16.5005 17.1567C16.6557 17.176 16.8171 17.1671 16.9646 17.112C17.0885 17.0657 17.1996 16.9892 17.2954 16.8988C17.3165 16.8789 17.3369 16.8582 17.3566 16.8369C17.3776 16.8142 17.3977 16.7907 17.4171 16.7666L17.4175 16.766C17.3873 16.7583 17.3568 16.752 17.326 16.7467C17.2609 16.7355 17.195 16.7293 17.129 16.7285C17.1241 16.7285 17.1193 16.7285 17.1144 16.7285C17.0658 16.7289 17.0171 16.7324 16.9691 16.7396C16.9432 16.7768 16.9148 16.8122 16.8838 16.8454C16.7658 16.9717 16.6144 17.0634 16.4541 17.1256C16.4392 17.1313 16.4242 17.1369 16.4092 17.1421ZM6.95759 17.1336C6.99734 17.1239 7.08767 17.1062 7.09557 17.1048C6.92426 17.0301 6.76376 16.9299 6.62887 16.8001C6.48223 16.659 6.36933 16.4863 6.28584 16.3012C6.25898 16.2994 6.2321 16.2982 6.2052 16.2974C6.18628 16.297 6.16738 16.2968 6.14846 16.2968C6.07917 16.2972 6.01004 16.3011 5.94114 16.3085L5.92957 16.3098L5.92558 16.3103C5.93195 16.3223 5.93852 16.3341 5.94512 16.346C6.02987 16.4954 6.13282 16.6351 6.25478 16.7564C6.35131 16.8523 6.46012 16.9365 6.58032 17.0008C6.6986 17.064 6.8269 17.1071 6.95825 17.1335L6.95759 17.1336ZM7.43325 16.6408C7.35739 16.4908 7.25931 16.3519 7.13555 16.2377C7.03017 16.1404 6.90824 16.062 6.7789 16.0006C6.62634 15.928 6.46326 15.8778 6.29713 15.848L6.28565 15.8459L6.28168 15.8453C6.28196 15.8466 6.28223 15.8479 6.2825 15.8492C6.303 15.9456 6.33052 16.0405 6.36517 16.1328C6.39258 16.2058 6.4244 16.2772 6.46105 16.3461C6.53048 16.4765 6.6176 16.5983 6.7243 16.701C6.83102 16.8036 6.95603 16.886 7.0891 16.9504C7.12472 16.9677 7.16094 16.9836 7.19766 16.9984C7.17714 16.9548 7.15811 16.9106 7.14063 16.8658C7.12464 16.8248 7.09867 16.7461 7.09945 16.7487C7.02929 16.6782 6.96004 16.6068 6.89302 16.533C6.81242 16.4449 6.73387 16.3547 6.66098 16.2583L6.66142 16.2578C6.76398 16.3218 6.86093 16.3919 6.95578 16.4644C7.02571 16.5172 7.09393 16.5721 7.16135 16.6278C7.17036 16.6275 7.17937 16.6273 7.18839 16.6271C7.19702 16.627 7.20564 16.627 7.21428 16.627C7.28743 16.6276 7.36057 16.6323 7.43325 16.6408ZM16.4334 16.9855C16.576 16.9262 16.71 16.84 16.81 16.7212C16.8953 16.6201 16.9545 16.4989 16.9936 16.3731C17.0022 16.3454 17.0099 16.3174 17.0165 16.2892C17.0237 16.259 17.0296 16.2287 17.0347 16.1982L17.0348 16.1974C17.0345 16.1975 17.0343 16.1975 17.034 16.1977C17.0043 16.206 16.9748 16.2152 16.9456 16.2256C16.9182 16.2354 16.8912 16.246 16.8646 16.2575C16.7364 16.3133 16.6158 16.3912 16.5221 16.4958C16.4524 16.5736 16.399 16.6645 16.3592 16.7608L16.4341 16.7481L16.4378 16.7441C16.4929 16.6873 16.5489 16.6312 16.6085 16.5783C16.6678 16.525 16.7294 16.4737 16.7973 16.4278L16.7978 16.4283C16.7634 16.5027 16.7225 16.5716 16.6794 16.6385C16.6366 16.7059 16.5903 16.7701 16.5429 16.8335C16.5085 16.8781 16.4736 16.9223 16.4373 16.9652C16.4361 16.972 16.4348 16.9788 16.4334 16.9855ZM16.1967 16.8041C16.2442 16.6579 16.3167 16.5188 16.4196 16.404C16.4605 16.3584 16.5057 16.3172 16.554 16.28C16.5557 16.2104 16.55 16.1406 16.5387 16.072C16.534 16.0434 16.5283 16.0149 16.5216 15.9867C16.5145 15.9565 16.5062 15.9268 16.4971 15.8972L16.4968 15.8965C16.4966 15.8967 16.4965 15.8968 16.4963 15.897C16.4734 15.9178 16.4511 15.9393 16.4297 15.9616C16.4096 15.9826 16.3902 16.0042 16.3716 16.0264C16.282 16.1337 16.2091 16.2574 16.1722 16.3929C16.1352 16.5284 16.1352 16.6718 16.1579 16.8098L16.1592 16.8174L16.1617 16.8164C16.1733 16.8122 16.1849 16.8081 16.1967 16.8041ZM7.51982 16.2444C7.50158 16.2041 7.48129 16.1647 7.45882 16.1264C7.38406 15.9991 7.2865 15.8862 7.17648 15.7882C7.04751 15.6732 6.90133 15.5775 6.7463 15.5016L6.74268 15.4999C6.74257 15.5012 6.74247 15.5026 6.74235 15.5039C6.73477 15.6055 6.73487 15.7076 6.74304 15.8092C6.74374 15.8179 6.7445 15.8266 6.74533 15.8353C6.93921 15.915 7.12083 16.0266 7.26923 16.1754C7.37853 16.2849 7.46831 16.4122 7.5406 16.5489L7.53905 16.5383C7.53372 16.501 7.52938 16.4634 7.52608 16.4258C7.52164 16.3754 7.51982 16.2444 7.51982 16.2444ZM17.1041 16.4763C17.1276 16.4805 17.1512 16.4841 17.1749 16.487C17.3302 16.5062 17.4916 16.4974 17.6391 16.4422C17.763 16.396 17.8741 16.3195 17.9699 16.2291C17.991 16.2092 18.0114 16.1885 18.031 16.1672C18.0521 16.1444 18.0722 16.1209 18.0915 16.0968L18.092 16.0962C18.0618 16.0886 18.0312 16.0823 18.0004 16.077C17.9353 16.0657 17.8695 16.0596 17.8033 16.0589C17.7985 16.0588 17.7936 16.0588 17.7888 16.0588C17.7402 16.0592 17.6916 16.0627 17.6436 16.0699C17.6176 16.1071 17.5892 16.1425 17.5582 16.1757C17.4402 16.3019 17.2888 16.3937 17.1285 16.4558C17.1219 16.4584 17.1154 16.4609 17.1087 16.4633C17.1072 16.4677 17.1056 16.472 17.1041 16.4763ZM17.1531 16.0326C17.1951 15.9901 17.238 15.9485 17.2829 15.9086C17.3422 15.8553 17.4038 15.804 17.4717 15.7581L17.4722 15.7585C17.4377 15.8329 17.3969 15.9018 17.3538 15.9688C17.311 16.0361 17.2647 16.1004 17.2173 16.1638C17.2016 16.1841 17.1858 16.2043 17.1699 16.2244C17.166 16.2479 17.1615 16.2711 17.1565 16.2944C17.2807 16.2363 17.3959 16.1567 17.4845 16.0515C17.5697 15.9503 17.6289 15.8292 17.668 15.7034C17.6766 15.6757 17.6843 15.6477 17.6909 15.6195C17.6981 15.5893 17.704 15.559 17.7091 15.5284L17.7092 15.5277C17.7089 15.5278 17.7087 15.5278 17.7085 15.5279C17.6786 15.5362 17.6491 15.5455 17.62 15.5559C17.5926 15.5656 17.5656 15.5763 17.539 15.5879C17.4108 15.6436 17.2903 15.7215 17.1965 15.8262C17.1364 15.8931 17.0885 15.9699 17.0508 16.0514L17.0552 16.0505C17.0674 16.0477 17.1531 16.0326 17.1531 16.0326ZM6.09429 16.1602C5.89729 16.034 5.7199 15.8727 5.5925 15.6754C5.4821 15.5044 5.4118 15.3104 5.37294 15.1111C5.26297 15.0772 5.14978 15.0536 5.03575 15.0394L5.02417 15.0381L5.02017 15.0376C5.02052 15.0389 5.02086 15.0402 5.0212 15.0415C5.04692 15.1366 5.07958 15.2299 5.1192 15.3201C5.15054 15.3916 5.18621 15.4611 5.22654 15.5279C5.30298 15.6544 5.3966 15.7712 5.50873 15.8679C5.61798 15.9622 5.7436 16.0363 5.87612 16.0928C5.93804 16.1192 6.06921 16.1611 6.06921 16.1611C6.07757 16.1607 6.08593 16.1604 6.09429 16.1602ZM16.8819 16.1023C16.9293 15.9679 16.9986 15.8407 17.094 15.7344C17.1348 15.6887 17.18 15.6475 17.2284 15.6104C17.2301 15.5408 17.2244 15.4709 17.2131 15.4023C17.2084 15.3737 17.2027 15.3452 17.196 15.317C17.1889 15.2869 17.1806 15.257 17.1715 15.2275L17.1712 15.2268C17.171 15.2269 17.1708 15.2271 17.1707 15.2273C17.1478 15.2481 17.1255 15.2695 17.1041 15.2919C17.084 15.3128 17.0646 15.3345 17.046 15.3567C16.9564 15.464 16.8835 15.5876 16.8465 15.7231C16.8111 15.853 16.8097 15.9903 16.8296 16.1229L16.8346 16.1208C16.8437 16.1171 16.8529 16.1134 16.8621 16.1098C16.8687 16.1073 16.8753 16.1048 16.8819 16.1023ZM6.41835 15.7321C6.41209 15.7042 6.40512 15.6765 6.39746 15.6489C6.36208 15.5218 6.31123 15.3987 6.24187 15.2863C6.16168 15.1563 6.05701 15.0427 5.9393 14.9458C5.87616 14.8938 5.8092 14.8465 5.73957 14.8036C5.65562 14.7519 5.56777 14.7067 5.47706 14.6681L5.47337 14.6665C5.47333 14.6678 5.47329 14.6692 5.47326 14.6705C5.47113 14.769 5.4762 14.8677 5.48878 14.9655C5.49873 15.0428 5.51335 15.1196 5.53324 15.195C5.57198 15.342 5.63108 15.4843 5.71501 15.6113C5.7943 15.7313 5.89451 15.8367 6.00604 15.9272C6.06614 15.976 6.19399 16.0567 6.19399 16.0567C6.18119 16.0148 6.16969 15.9725 6.15954 15.9299C6.15429 15.9079 6.14938 15.8858 6.14492 15.8636C6.12758 15.8368 6.11037 15.81 6.09323 15.7831C6.03041 15.6821 5.96865 15.5804 5.91084 15.476C5.8526 15.3718 5.79683 15.266 5.74794 15.1554L5.74849 15.155C5.83366 15.2409 5.91189 15.3313 5.98764 15.4235C6.06128 15.5124 6.13126 15.6037 6.20007 15.6958L6.11923 15.6889L6.2058 15.6963C6.25336 15.7007 6.30066 15.7083 6.34756 15.7173C6.37124 15.7218 6.39484 15.7268 6.41835 15.7321ZM17.7984 15.7475C17.7952 15.7579 17.7918 15.7683 17.7883 15.7787L17.786 15.7853C17.7948 15.7859 17.8036 15.7864 17.8124 15.7869C17.9686 15.7948 18.1289 15.7743 18.272 15.7086C18.3922 15.6534 18.4975 15.569 18.5864 15.4719C18.606 15.4505 18.6249 15.4284 18.643 15.4057C18.6623 15.3815 18.6806 15.3566 18.6982 15.3311L18.6986 15.3305C18.6349 15.3193 18.5704 15.3136 18.5057 15.3121C18.4944 15.3119 18.4831 15.3118 18.4717 15.3119C18.3971 15.3128 18.3223 15.3203 18.2494 15.3368C18.2263 15.3758 18.2005 15.4131 18.172 15.4485C18.0721 15.5725 17.9417 15.6692 17.8004 15.7412L17.7984 15.7475ZM6.60665 15.4749C6.59942 15.3975 6.58597 15.3209 6.56535 15.2461C6.52378 15.0952 6.45278 14.9536 6.36393 14.8252C6.31956 14.761 6.27073 14.7 6.21843 14.6421C6.15233 14.5689 6.08068 14.501 6.00442 14.4384L6.00129 14.4359C6.00088 14.4372 6.00047 14.4385 6.00005 14.4398C5.97039 14.5338 5.94761 14.6299 5.9323 14.7272C5.93042 14.7392 5.92866 14.751 5.92701 14.763C6.09746 14.885 6.24868 15.0352 6.35902 15.2141C6.46396 15.3841 6.53046 15.5756 6.5669 15.7717C6.57903 15.7754 6.59114 15.7792 6.60321 15.7831C6.60226 15.768 6.60149 15.753 6.60088 15.7379C6.59828 15.6743 6.59853 15.6105 6.60171 15.547C6.60291 15.5229 6.60452 15.4988 6.60665 15.4749ZM17.8571 15.4479C17.8547 15.4822 17.8504 15.5164 17.845 15.5504L17.8437 15.5578C17.9382 15.4967 18.0233 15.4212 18.0894 15.33C18.1671 15.2229 18.2174 15.0978 18.2472 14.9695C18.2538 14.9412 18.2594 14.9128 18.264 14.8841C18.2689 14.8536 18.2727 14.8229 18.2755 14.792L18.2755 14.7913C18.2753 14.7914 18.2751 14.7915 18.2749 14.7916C18.2457 14.8021 18.2169 14.8135 18.1886 14.8259C18.1621 14.8376 18.1358 14.8502 18.1101 14.8636C17.9863 14.9286 17.8717 15.0151 17.7858 15.1262C17.7216 15.2092 17.6749 15.3042 17.6421 15.4037C17.6669 15.3963 17.6918 15.3896 17.7169 15.3837L17.7199 15.3799C17.7706 15.3192 17.8225 15.2592 17.8782 15.2021C17.9333 15.1447 17.991 15.089 18.0554 15.0383L18.056 15.0387C18.027 15.1154 17.9913 15.1871 17.9531 15.2571C17.9236 15.3121 17.8916 15.3654 17.8587 15.418L17.8571 15.4479ZM17.4824 15.4624C17.519 15.3113 17.5816 15.1654 17.6769 15.042C17.7138 14.9944 17.7551 14.9507 17.7998 14.9106L17.802 14.9086C17.7987 14.839 17.7879 14.7698 17.7716 14.7022C17.7649 14.674 17.757 14.646 17.7483 14.6184C17.7391 14.5888 17.7287 14.5597 17.7173 14.5309L17.7171 14.5302C17.7169 14.5304 17.7167 14.5306 17.7166 14.5307C17.6953 14.5532 17.6746 14.5762 17.6549 14.6C17.6364 14.6224 17.6186 14.6454 17.6017 14.6689C17.5201 14.7824 17.4564 14.911 17.4294 15.0488C17.4023 15.1867 17.4128 15.3299 17.4455 15.4657C17.4464 15.4698 17.4474 15.4738 17.4484 15.4778C17.4597 15.4725 17.471 15.4673 17.4824 15.4624ZM12.7335 13.9696C13.3429 14.1925 13.9947 14.2932 14.6509 14.2613C13.8802 14.5117 13.0913 14.5414 12.3514 14.3857L12.3453 14.5381L11.9639 15.0632L11.5823 14.5381L11.5763 14.3857C10.8364 14.5414 10.0475 14.5117 9.27675 14.2613C9.93297 14.2932 10.5848 14.1925 11.1943 13.9696C10.1962 13.4468 9.39351 12.548 9.01751 11.3917C8.46033 9.67847 8.98723 7.7979 10.3536 6.62289C8.86887 8.81936 9.40342 11.7858 11.5334 13.3317L11.3853 9.67076V6.79075C11.616 6.68012 11.8152 6.51282 11.9639 6.30473C12.1125 6.51282 12.3118 6.68012 12.5424 6.79075V9.67076L12.3944 13.3317C14.5243 11.7858 15.0588 8.81936 13.5741 6.62289C14.9405 7.7979 15.4673 9.67847 14.9102 11.3917C14.5343 12.548 13.7316 13.4468 12.7335 13.9696ZM18.3759 15.023C18.3969 15.022 18.4178 15.0204 18.4386 15.0185C18.5943 15.0036 18.7499 14.96 18.882 14.8742C18.9929 14.8022 19.0848 14.7035 19.1587 14.5944C19.175 14.5704 19.1904 14.5458 19.2051 14.5207C19.2206 14.494 19.2351 14.4667 19.2488 14.4389L19.2492 14.4383C19.2362 14.4379 19.2232 14.4378 19.2102 14.4379C19.1841 14.4381 19.158 14.4389 19.1319 14.4406C19.0211 14.448 18.9097 14.4693 18.8057 14.5095L18.8046 14.5122C18.7876 14.5532 18.7679 14.5931 18.7452 14.6315C18.6575 14.7803 18.5295 14.9027 18.3865 14.9981L18.3811 15.0017C18.3794 15.0088 18.3777 15.0159 18.3759 15.023ZM4.67171 13.6392C4.65988 13.6323 4.64799 13.6254 4.63602 13.6187C4.54425 13.5672 4.44831 13.5233 4.34952 13.4871L4.34575 13.4857C4.34577 13.487 4.34581 13.4884 4.34583 13.4897C4.34874 13.5883 4.35883 13.6865 4.37638 13.7835C4.39027 13.8602 4.40879 13.9362 4.4325 14.0105C4.47743 14.1513 4.54132 14.2867 4.6279 14.4069C4.71227 14.5239 4.8172 14.6251 4.93297 14.7109C5.00208 14.7621 5.07506 14.808 5.15083 14.8488C5.14204 14.84 5.13333 14.831 5.12471 14.822C4.9646 14.6547 4.83142 14.4583 4.75413 14.239C4.68649 14.0471 4.6632 13.8421 4.67171 13.6392ZM5.54239 14.5463C5.55167 14.3531 5.53014 14.1578 5.46385 13.9757C5.41334 13.837 5.33781 13.7083 5.24732 13.592C5.14123 13.4556 5.01477 13.3351 4.876 13.2324L4.87276 13.23C4.87241 13.2313 4.87206 13.2326 4.87172 13.2339C4.84673 13.3293 4.82873 13.4264 4.81824 13.5244C4.80994 13.602 4.8063 13.68 4.80812 13.758C4.81155 13.9058 4.83472 14.0536 4.88393 14.1933C4.93315 14.3329 5.00784 14.4627 5.09783 14.5799C5.14331 14.6392 5.19275 14.6954 5.24523 14.7486C5.27539 14.7791 5.30656 14.8086 5.33867 14.8371L5.33816 14.8283C5.33752 14.8164 5.33635 14.7874 5.33635 14.7874C5.29319 14.6795 5.25418 14.57 5.21612 14.4601C5.17846 14.3472 5.14208 14.2339 5.11009 14.1189C5.07767 14.0041 5.04805 13.8882 5.02619 13.7693L5.0268 13.769C5.08972 13.8723 5.14477 13.9785 5.19702 14.0858C5.24976 14.1929 5.29804 14.3017 5.34511 14.4109C5.35541 14.4356 5.36566 14.4603 5.37582 14.4851L5.43364 14.504C5.47048 14.5165 5.50668 14.5308 5.54239 14.5463ZM18.4172 14.701C18.4174 14.7354 18.4156 14.7698 18.4126 14.8041L18.4123 14.8077C18.507 14.7293 18.5893 14.6354 18.6463 14.5262C18.7076 14.409 18.7392 14.2779 18.7501 14.1466C18.7525 14.1177 18.7539 14.0887 18.7543 14.0597C18.7547 14.0288 18.754 13.9978 18.7523 13.967L18.7522 13.9662C18.752 13.9663 18.7518 13.9665 18.7516 13.9666C18.7243 13.9812 18.6974 13.9966 18.6712 14.013C18.6466 14.0285 18.6226 14.0447 18.5991 14.0618C18.486 14.144 18.3852 14.2461 18.3164 14.3685C18.2644 14.461 18.2318 14.5629 18.2139 14.6672C18.2351 14.6594 18.2569 14.652 18.2784 14.6454L18.2879 14.6292C18.3293 14.5617 18.3719 14.4949 18.4187 14.4303C18.465 14.3655 18.5139 14.3021 18.5703 14.2426L18.5709 14.2428C18.5534 14.3229 18.5284 14.3991 18.5009 14.4738C18.4757 14.5435 18.4468 14.6112 18.4168 14.6783L18.4172 14.701ZM18.0664 14.7315C18.0817 14.5813 18.1223 14.433 18.1964 14.3011C18.2264 14.2478 18.2616 14.1977 18.3008 14.151C18.2874 14.0826 18.2667 14.0157 18.2408 13.9512C18.2299 13.9243 18.2182 13.8978 18.2055 13.8716C18.1921 13.8438 18.1775 13.8165 18.1622 13.7896L18.1618 13.789C18.1617 13.7891 18.1615 13.7894 18.1614 13.7896C18.1435 13.8148 18.1264 13.8406 18.1104 13.8671C18.0953 13.8919 18.0811 13.9171 18.0677 13.943C18.0035 14.0671 17.9591 14.2036 17.9524 14.3438C17.9457 14.4832 17.9764 14.6225 18.028 14.7515C18.0402 14.7449 18.0526 14.7384 18.065 14.7322L18.0664 14.7315ZM5.6987 14.6216C5.72089 14.5619 5.73997 14.5011 5.75553 14.4394C5.78881 14.3075 5.80572 14.171 5.79965 14.0348C5.79304 13.8864 5.75887 13.7403 5.70613 13.6017C5.64337 13.4368 5.55502 13.2819 5.44932 13.1409L5.44227 13.1316L5.43981 13.1284C5.43911 13.1295 5.43842 13.1307 5.43772 13.1318C5.38702 13.2164 5.34253 13.3045 5.305 13.3957C5.30041 13.4068 5.29592 13.418 5.29155 13.4293C5.42899 13.5875 5.54116 13.7687 5.60692 13.9683C5.6748 14.1743 5.6928 14.3942 5.67628 14.6098C5.67338 14.6083 5.68837 14.616 5.6987 14.6216ZM18.927 14.124C18.9572 14.1175 18.9871 14.1098 19.0167 14.1011C19.1668 14.057 19.3113 13.9848 19.4247 13.8755C19.52 13.7838 19.5916 13.6695 19.6436 13.5485C19.6549 13.5218 19.6655 13.4947 19.6751 13.4673C19.6853 13.4382 19.6944 13.4086 19.7026 13.3787L19.7028 13.3781C19.7025 13.3781 19.7023 13.3781 19.7021 13.3782C19.6715 13.3834 19.6412 13.3895 19.6111 13.3968C19.5829 13.4036 19.5549 13.4114 19.5272 13.4201C19.4412 13.4473 19.3574 13.484 19.2808 13.532C19.2718 13.5764 19.2598 13.6202 19.2445 13.6631C19.1865 13.8258 19.0841 13.9701 18.9617 14.0909C18.9503 14.1021 18.9388 14.1132 18.927 14.124ZM18.7757 13.8025C18.782 13.7841 18.7885 13.7657 18.795 13.7474C18.823 13.6733 18.8521 13.5996 18.8858 13.5273C18.919 13.455 18.9551 13.3834 18.9991 13.3143L18.9998 13.3145C18.9977 13.3964 18.9877 13.4759 18.9747 13.5545C18.9623 13.6333 18.9453 13.7107 18.9271 13.7876C18.9147 13.8361 18.902 13.8845 18.8879 13.9324C18.8886 13.9413 18.8892 13.9501 18.8897 13.9589C18.8898 13.9618 18.89 13.9646 18.8902 13.9674C18.996 13.857 19.0833 13.7258 19.1275 13.5784C19.1655 13.4517 19.1717 13.317 19.1575 13.1861C19.1544 13.1572 19.1502 13.1285 19.1452 13.0999C19.1397 13.0694 19.1331 13.0392 19.1256 13.0092L19.1255 13.0085C19.1252 13.0087 19.1251 13.0088 19.1249 13.0089C19.1009 13.0285 19.0774 13.0487 19.0548 13.0698C19.0336 13.0896 19.013 13.1101 18.9932 13.1313C18.8978 13.2334 18.8181 13.3529 18.7736 13.4861C18.7376 13.5944 18.7255 13.7092 18.7304 13.823C18.7449 13.816 18.7596 13.8093 18.7745 13.8029L18.7802 13.8005L18.7757 13.8025ZM18.5975 13.8968C18.5831 13.7442 18.5945 13.5883 18.6431 13.4426C18.6624 13.3845 18.6875 13.3287 18.7172 13.2754C18.691 13.2108 18.658 13.149 18.6204 13.0906C18.6047 13.0662 18.5881 13.0423 18.5708 13.0191C18.5523 12.9943 18.5328 12.9702 18.5126 12.9467L18.5122 12.9462C18.5121 12.9464 18.512 12.9466 18.5119 12.9468C18.4991 12.975 18.4872 13.0036 18.4765 13.0326C18.4663 13.0598 18.4571 13.0873 18.4489 13.1152C18.4093 13.2492 18.3916 13.3917 18.4116 13.5307C18.4315 13.6695 18.4885 13.8011 18.5641 13.9185L18.5647 13.9181C18.5755 13.9109 18.5865 13.9038 18.5975 13.8968ZM7.56466 8.28992C6.52969 10.0797 7.14242 12.3692 8.93273 13.4038C8.92998 13.4005 8.92722 13.3967 8.92447 13.3928C7.29766 11.2299 7.73312 8.15783 9.89724 6.53153C8.91346 6.77754 8.07224 7.4121 7.56466 8.28992ZM15.0033 13.3928C15.0005 13.3967 14.9978 13.4006 14.995 13.4038C16.7853 12.3692 17.398 10.0797 16.3631 8.28992C15.8555 7.4121 15.0143 6.77754 14.0305 6.53153C16.1946 8.15783 16.6301 11.2299 15.0033 13.3928ZM4.87184 13.0628C4.89943 13.0801 4.94832 13.1147 4.9462 13.1132C5.00417 12.8857 5.02197 12.6444 4.9708 12.4139C4.94054 12.2776 4.88708 12.1471 4.81858 12.0256C4.73378 11.8753 4.6263 11.7378 4.50424 11.6159L4.49594 11.6077L4.49306 11.6049C4.49254 11.6061 4.49201 11.6074 4.49148 11.6086C4.45335 11.6995 4.42188 11.7931 4.39771 11.8887C4.3786 11.9643 4.36402 12.0411 4.35486 12.1185C4.33748 12.2653 4.33963 12.415 4.36874 12.5601C4.39784 12.7053 4.45354 12.8443 4.52614 12.9731C4.56446 13.041 4.60751 13.1062 4.65429 13.1687C4.67677 13.1987 4.70011 13.2279 4.72427 13.2566L4.72561 13.2508C4.72779 13.2416 4.73003 13.2323 4.73234 13.2231L4.73411 13.2162C4.70608 13.1018 4.6826 12.9865 4.66014 12.871C4.63867 12.754 4.61858 12.6367 4.60305 12.5183C4.58709 12.4 4.5741 12.2812 4.5692 12.1604L4.5698 12.1602C4.61753 12.2713 4.65717 12.3841 4.69378 12.4977C4.73094 12.6111 4.76347 12.7257 4.79469 12.8404C4.81256 12.9092 4.83006 12.9781 4.84643 13.0472L4.87184 13.0628ZM4.23652 11.9817C4.14667 11.9098 4.05002 11.8464 3.94916 11.7914L3.93889 11.7859L3.93534 11.784C3.93518 11.7853 3.93503 11.7867 3.93487 11.788C3.92351 11.8892 3.91981 11.9912 3.9242 12.093C3.92742 12.1677 3.93496 12.2421 3.94744 12.3158C3.97284 12.4656 4.01893 12.6126 4.09111 12.7467C4.1575 12.87 4.24492 12.9813 4.34449 13.0795C4.40573 13.1399 4.47153 13.1957 4.54083 13.2467C4.53336 13.2367 4.52599 13.2266 4.51871 13.2165C4.38373 13.0283 4.27949 12.8152 4.23379 12.5872C4.1938 12.3877 4.1996 12.1813 4.23652 11.9817ZM19.3039 13.1742C19.333 13.1639 19.3617 13.1526 19.3899 13.1403C19.5333 13.0779 19.6678 12.9881 19.7666 12.8656C19.8497 12.7626 19.9064 12.6403 19.9428 12.5137C19.9507 12.4858 19.9578 12.4577 19.9639 12.4293C19.9704 12.399 19.9757 12.3686 19.9801 12.3379L19.9802 12.3372C19.9799 12.3372 19.9797 12.3373 19.9795 12.3374C19.9499 12.3464 19.9205 12.3562 19.8916 12.3672C19.8645 12.3775 19.8377 12.3888 19.8113 12.4009C19.7294 12.4386 19.6508 12.4855 19.5808 12.5426C19.5774 12.5878 19.571 12.6328 19.5612 12.6773C19.524 12.846 19.4404 13.002 19.3341 13.1371C19.3243 13.1496 19.3142 13.162 19.3039 13.1742ZM5.073 13.1723C5.12046 13.0936 5.16225 13.0114 5.19706 12.9263C5.24856 12.8004 5.28449 12.6676 5.29762 12.5319C5.31193 12.3841 5.29862 12.2345 5.26589 12.09C5.22694 11.9179 5.16126 11.752 5.07644 11.5976L5.07077 11.5874L5.06879 11.5839C5.06794 11.585 5.06709 11.5859 5.06624 11.587C5.00417 11.6636 4.9477 11.7446 4.89772 11.8296C4.89162 11.84 4.88561 11.8504 4.87969 11.861C4.99352 12.0369 5.07911 12.2321 5.11616 12.4389C5.15613 12.6621 5.14002 12.8927 5.08809 13.1125C5.08336 13.1325 5.07833 13.1525 5.073 13.1723ZM18.9468 12.9825C18.9149 12.8352 18.9075 12.6818 18.9369 12.5337C18.9489 12.4736 18.9667 12.4151 18.9895 12.3585C18.9555 12.2977 18.9151 12.2405 18.8704 12.1873C18.8517 12.165 18.8323 12.1434 18.8122 12.1225C18.7907 12.1002 18.7685 12.0788 18.7455 12.058L18.7449 12.0575C18.7449 12.0577 18.7448 12.058 18.7447 12.0582C18.7356 12.0878 18.7274 12.1176 18.7203 12.1478C18.7137 12.176 18.708 12.2044 18.7033 12.2331C18.6808 12.371 18.681 12.5146 18.7182 12.65C18.7551 12.7841 18.8272 12.9066 18.9159 13.0131C18.9213 13.0076 18.9267 13.0022 18.9322 12.9968C18.937 12.9919 18.9419 12.9872 18.9468 12.9825ZM19.265 12.9997C19.3477 12.8826 19.4108 12.7499 19.4345 12.6079C19.4563 12.4774 19.4456 12.3431 19.4152 12.2149C19.4085 12.1867 19.4008 12.1586 19.3922 12.131C19.383 12.1014 19.3726 12.0722 19.3614 12.0434L19.3611 12.0427C19.361 12.0429 19.3608 12.0431 19.3606 12.0432C19.3392 12.0656 19.3185 12.0886 19.2987 12.1124C19.2802 12.1347 19.2623 12.1575 19.2453 12.1811C19.1634 12.2944 19.0993 12.4228 19.0719 12.5605C19.051 12.6654 19.0519 12.7733 19.0677 12.8789C19.0836 12.8669 19.0998 12.8552 19.1163 12.844L19.1205 12.8412C19.1223 12.8332 19.124 12.8251 19.1258 12.8171C19.1443 12.7401 19.1639 12.6634 19.1884 12.5875C19.2122 12.5115 19.2391 12.436 19.2742 12.3619L19.2748 12.362C19.283 12.4435 19.283 12.5237 19.28 12.6033C19.2775 12.683 19.2703 12.7619 19.2619 12.8405C19.2578 12.873 19.2536 12.9054 19.2489 12.9377C19.2525 12.9502 19.2558 12.9627 19.259 12.9753C19.2611 12.9835 19.263 12.9916 19.265 12.9997ZM19.6167 12.2337C19.6437 12.2187 19.6702 12.2028 19.6961 12.1861C19.8273 12.101 19.9452 11.9905 20.0227 11.8534C20.0878 11.7383 20.1237 11.6083 20.1389 11.4775C20.1423 11.4487 20.1446 11.4197 20.146 11.3907C20.1474 11.3599 20.1477 11.3289 20.147 11.298V11.2972C20.1468 11.2973 20.1466 11.2974 20.1463 11.2976C20.1186 11.3113 20.0912 11.3258 20.0645 11.3414C20.0394 11.356 20.0148 11.3714 19.9908 11.3877C19.9162 11.4383 19.8463 11.4974 19.7866 11.5653C19.7907 11.6104 19.7917 11.6558 19.7893 11.7013C19.7802 11.8738 19.7232 12.0414 19.6405 12.1921C19.6328 12.206 19.6248 12.2199 19.6167 12.2337ZM18.9898 12.1157C19.015 12.1467 19.0389 12.179 19.0611 12.2123C19.0638 12.2076 19.0665 12.203 19.0693 12.1984C19.0415 12.1721 19.0149 12.1444 18.9898 12.1157ZM19.3887 11.8325C19.3932 11.7795 19.3989 11.7266 19.4067 11.6736C19.4178 11.5948 19.432 11.5159 19.4545 11.4371H19.4552C19.4766 11.5162 19.4897 11.5952 19.4998 11.6743C19.5103 11.7533 19.5161 11.8323 19.5206 11.9113C19.523 11.9717 19.5249 12.0322 19.5244 12.0926C19.526 12.0979 19.5276 12.1032 19.5292 12.1085L19.5317 12.1037C19.6043 11.9651 19.6527 11.8109 19.653 11.6535C19.6531 11.5213 19.6207 11.3904 19.5696 11.269C19.5584 11.2422 19.5462 11.2158 19.5332 11.1899C19.5193 11.1623 19.5043 11.1352 19.4885 11.1086L19.4881 11.108C19.488 11.1082 19.4879 11.1084 19.4878 11.1086C19.4703 11.1342 19.4536 11.1602 19.4379 11.1869C19.4233 11.2119 19.4094 11.2375 19.3965 11.2634C19.3342 11.3886 19.292 11.5257 19.2875 11.6661C19.285 11.7443 19.2942 11.8222 19.3122 11.8981C19.3186 11.8922 19.3887 11.8325 19.3887 11.8325ZM19.2015 12.0141C19.1656 11.9002 19.1461 11.7813 19.1499 11.6617C19.1519 11.6005 19.16 11.5399 19.1732 11.4803C19.1296 11.4259 19.0804 11.376 19.0276 11.3308C19.0056 11.3119 18.9829 11.2938 18.9596 11.2765C18.9348 11.258 18.9093 11.2405 18.8832 11.2238L18.8826 11.2233C18.8826 11.2236 18.8825 11.2238 18.8825 11.2241C18.8783 11.2547 18.8751 11.2855 18.873 11.3164C18.8712 11.3453 18.8702 11.3743 18.8703 11.4034C18.8706 11.5431 18.8944 11.6847 18.9532 11.8122C19 11.9136 19.0679 12.0038 19.1472 12.0823L19.1499 12.0787C19.1558 12.0708 19.1619 12.063 19.168 12.0552C19.1789 12.0413 19.1901 12.0276 19.2015 12.0141ZM4.77386 11.641C4.79329 11.618 4.81217 11.5945 4.83048 11.5706C4.95827 11.4037 5.05922 11.2134 5.1063 11.0075C5.13743 10.8714 5.1451 10.7306 5.13533 10.5915C5.12322 10.4192 5.0851 10.249 5.02713 10.0866L5.02314 10.0756L5.02174 10.0719C5.02074 10.0727 5.01973 10.0736 5.01873 10.0745C4.94529 10.1403 4.87669 10.2114 4.81387 10.2873C4.80619 10.2966 4.7986 10.306 4.79109 10.3154C4.87558 10.5072 4.92913 10.7135 4.93289 10.9236C4.93695 11.1503 4.88447 11.3754 4.79832 11.5842C4.79046 11.6032 4.7823 11.6222 4.77386 11.641ZM4.13689 10.3327C4.05959 10.2475 3.97427 10.1695 3.88338 10.0992L3.87411 10.0922L3.87091 10.0897C3.87054 10.091 3.87018 10.0923 3.86981 10.0936C3.84343 10.1886 3.824 10.2854 3.81207 10.3833C3.80263 10.4607 3.79785 10.5387 3.79852 10.6167C3.79979 10.7645 3.82079 10.9127 3.86795 11.053C3.91511 11.1934 3.98787 11.3243 4.07612 11.4428C4.12269 11.5054 4.17362 11.5647 4.22789 11.6207C4.23077 11.6237 4.23599 11.6285 4.23599 11.6285C4.23046 11.6179 4.22503 11.6072 4.21968 11.5966C4.11626 11.3894 4.04712 11.1624 4.03816 10.9301C4.03032 10.7268 4.06877 10.5239 4.13689 10.3327ZM4.65377 11.5724C4.69019 11.4897 4.72074 11.4045 4.74426 11.3173C4.77969 11.1859 4.79883 11.0497 4.795 10.9135C4.79082 10.7651 4.75898 10.6184 4.70852 10.479C4.6818 10.4052 4.64988 10.3333 4.61373 10.2637C4.56678 10.1732 4.51268 10.0867 4.45237 10.0046L4.44997 10.0013C4.44926 10.0025 4.44854 10.0036 4.44783 10.0047C4.39401 10.0912 4.34675 10.1817 4.30691 10.2755C4.27623 10.3477 4.24992 10.4218 4.22898 10.4975C4.18939 10.6403 4.16898 10.789 4.17624 10.9374C4.18328 11.081 4.21582 11.2227 4.26563 11.3574C4.29227 11.4294 4.32374 11.4997 4.35938 11.5677L4.36226 11.5608C4.37573 11.5287 4.39012 11.497 4.40573 11.4658L4.40835 11.4607L4.42036 11.4378C4.41784 11.3845 4.41588 11.3312 4.41412 11.2779C4.41153 11.1589 4.41027 11.0399 4.41373 10.9206C4.41671 10.8013 4.42271 10.6818 4.43702 10.5618H4.43768C4.46719 10.679 4.48838 10.7967 4.50655 10.9147C4.52521 11.0326 4.5392 11.1508 4.5518 11.2691C4.55877 11.3421 4.56535 11.4153 4.57063 11.4885C4.58748 11.5044 4.60396 11.5208 4.62017 11.5373C4.63151 11.5489 4.64271 11.5606 4.65377 11.5724ZM19.7411 11.2748C19.7654 11.2558 19.7889 11.2359 19.8118 11.2152C19.9277 11.1103 20.0264 10.9823 20.081 10.8347C20.1268 10.7106 20.1415 10.5766 20.1356 10.4449C20.1342 10.416 20.1319 10.387 20.1286 10.3582C20.1252 10.3274 20.1204 10.2969 20.1148 10.2665L20.1147 10.2658C20.1145 10.2659 20.1143 10.266 20.1141 10.2662C20.0889 10.2841 20.0642 10.3028 20.0403 10.3225C20.0179 10.3409 19.9961 10.3601 19.975 10.38C19.9093 10.4419 19.8499 10.5114 19.8018 10.5879C19.8131 10.6318 19.8213 10.6765 19.8262 10.7218C19.8448 10.8935 19.8154 11.068 19.7578 11.23C19.7525 11.245 19.7469 11.26 19.7411 11.2748ZM19.305 11.142C19.2466 11.0304 19.2049 10.9101 19.1887 10.7849C19.1809 10.7242 19.1791 10.6631 19.1827 10.6021C19.131 10.5554 19.0743 10.5141 19.015 10.4779C18.9903 10.4627 18.9649 10.4485 18.9392 10.4351C18.9118 10.4208 18.8837 10.4076 18.8554 10.3953L18.8547 10.395C18.8547 10.3952 18.8547 10.3955 18.8547 10.3957C18.8555 10.4266 18.8573 10.4575 18.8602 10.4883C18.8629 10.5172 18.8667 10.546 18.8713 10.5746C18.8941 10.7125 18.9402 10.8485 19.0187 10.9649C19.0846 11.0627 19.1718 11.1445 19.2687 11.2114C19.2786 11.1913 19.2889 11.1715 19.2996 11.1519C19.3014 11.1486 19.3032 11.1453 19.305 11.142ZM19.6082 11.0405C19.6229 11.0653 19.6369 11.0906 19.6501 11.1162C19.6899 10.9805 19.7065 10.8366 19.684 10.6965C19.663 10.5659 19.61 10.4419 19.5402 10.3301C19.5249 10.3055 19.5086 10.2814 19.4916 10.2579C19.4734 10.2329 19.4543 10.2086 19.4345 10.1848L19.434 10.1842C19.4339 10.1845 19.4338 10.1847 19.4337 10.1849C19.4206 10.2129 19.4083 10.2413 19.3971 10.2702C19.3866 10.2972 19.377 10.3246 19.3684 10.3524C19.327 10.4858 19.3072 10.628 19.3252 10.7673C19.3358 10.8495 19.3594 10.9293 19.3922 11.0053L19.4528 10.929C19.4483 10.8715 19.445 10.8137 19.4441 10.7557C19.4424 10.676 19.4438 10.5959 19.4534 10.5145L19.4541 10.5144C19.4879 10.589 19.5135 10.665 19.536 10.7414C19.5591 10.8177 19.5775 10.8948 19.5946 10.972C19.5993 10.9948 19.6038 11.0176 19.6082 11.0405ZM19.7508 10.3031C19.773 10.2817 19.7943 10.2594 19.8149 10.2365C19.9194 10.1201 20.0043 9.98254 20.0432 9.83003C20.076 9.70191 20.0767 9.56707 20.0572 9.4368C20.0529 9.40813 20.0475 9.37957 20.0413 9.35122C20.0346 9.32101 20.0268 9.29113 20.018 9.26146L20.0178 9.26075C20.0176 9.26091 20.0174 9.26108 20.0172 9.26124C19.9941 9.28171 19.9714 9.30285 19.9498 9.32486C19.9293 9.3455 19.9096 9.36685 19.8907 9.38881C19.8319 9.45722 19.7799 9.53251 19.74 9.61358C19.7557 9.65607 19.7686 9.69966 19.7782 9.74418C19.8145 9.91303 19.8033 10.0897 19.7628 10.2567C19.7591 10.2722 19.755 10.2877 19.7508 10.3031ZM19.2831 10.1846C19.2232 10.0882 19.1768 9.98358 19.1507 9.87302C19.1368 9.8144 19.1288 9.7548 19.1258 9.69487L19.1257 9.69184C19.0695 9.65073 19.0088 9.61545 18.9461 9.58562C18.9199 9.57313 18.8933 9.56157 18.8662 9.55089C18.8374 9.53956 18.8083 9.52932 18.7787 9.51996L18.778 9.51974C18.778 9.51996 18.7781 9.52024 18.7781 9.52046C18.7821 9.55117 18.787 9.58171 18.7931 9.61204C18.7988 9.64049 18.8056 9.66873 18.8132 9.69674C18.8501 9.83152 18.91 9.96195 19.0001 10.0697C19.0696 10.1527 19.1555 10.2204 19.2491 10.2746C19.251 10.269 19.2529 10.2633 19.2549 10.2578C19.2633 10.2343 19.2722 10.211 19.2818 10.1879L19.2831 10.1846ZM19.3321 9.25089C19.3219 9.28012 19.3126 9.30962 19.3045 9.33945C19.2969 9.36746 19.2902 9.39569 19.2845 9.42415C19.2571 9.56119 19.2522 9.70466 19.2846 9.84132C19.3006 9.9089 19.3255 9.97384 19.3569 10.0356L19.4046 9.95695L19.4262 9.97781C19.4166 9.9247 19.408 9.87137 19.4017 9.81743C19.3918 9.73835 19.3848 9.65854 19.3859 9.5766L19.3866 9.57643C19.4279 9.64721 19.4612 9.72007 19.4916 9.79371C19.5225 9.86724 19.5488 9.94198 19.5738 10.017C19.5944 10.0829 19.6144 10.1489 19.6311 10.2157C19.6323 10.2104 19.6335 10.2052 19.6347 10.1998C19.6686 10.0471 19.675 9.88568 19.634 9.73372C19.5997 9.60598 19.5341 9.48821 19.4531 9.3843C19.4352 9.36141 19.4166 9.33912 19.3973 9.31754C19.3766 9.29448 19.3551 9.27225 19.3329 9.25067L19.3323 9.25018L19.3321 9.25089ZM5.3064 8.60857C5.3064 8.60857 5.18711 8.69245 5.12435 8.72734C5.09169 8.7455 5.05852 8.76278 5.0249 8.77918C5.06107 8.98204 5.06463 9.1914 5.02054 9.39316C4.97216 9.61468 4.86912 9.82156 4.7371 10.0048C4.72505 10.0216 4.71274 10.0381 4.70019 10.0545C4.7244 10.0366 4.74819 10.0181 4.77151 9.9991C4.93439 9.86614 5.07656 9.70428 5.16989 9.51484C5.23161 9.38958 5.27159 9.25436 5.29419 9.11677C5.32175 8.94908 5.32435 8.77742 5.3064 8.60857ZM4.59436 9.96636L4.59592 9.96432C4.74119 9.77318 4.854 9.55243 4.8958 9.31452C4.92061 9.17329 4.92045 9.02839 4.90218 8.88639C4.88063 8.71887 4.83451 8.55464 4.76974 8.39878L4.7652 8.38805L4.76361 8.38436C4.76265 8.38529 4.7617 8.38623 4.76074 8.38717C4.69075 8.45662 4.62586 8.53108 4.567 8.61017C4.52043 8.67275 4.4776 8.73813 4.43952 8.80621C4.36735 8.93521 4.31214 9.07434 4.28353 9.21963C4.25492 9.36487 4.25327 9.51457 4.27114 9.66129C4.28057 9.73873 4.29541 9.81545 4.31478 9.89101C4.31879 9.90664 4.32299 9.92222 4.32739 9.93774C4.34591 9.90791 4.36529 9.87863 4.38581 9.85012L4.38921 9.8455L4.39061 9.84363C4.40397 9.76828 4.41876 9.69322 4.43397 9.6182C4.4589 9.50186 4.48516 9.38579 4.5161 9.27049C4.54655 9.15513 4.57991 9.04027 4.62158 8.92679L4.62224 8.9269C4.62389 9.04776 4.61734 9.16719 4.60776 9.28612C4.59874 9.40516 4.58503 9.52338 4.57 9.64137C4.55872 9.72239 4.54699 9.80329 4.53359 9.88391C4.55177 9.90703 4.56922 9.93075 4.5862 9.95475C4.58893 9.9586 4.59165 9.96245 4.59436 9.96636ZM4.18 9.91941C4.17696 9.90741 4.17403 9.89542 4.17121 9.88336C4.11628 9.64886 4.10255 9.40208 4.15417 9.1657C4.19559 8.97599 4.27688 8.79713 4.38245 8.63444C4.32505 8.53037 4.25754 8.43174 4.18231 8.33989L4.17975 8.33675C4.17909 8.33796 4.17844 8.33912 4.17779 8.34027C4.1302 8.42663 4.08893 8.51633 4.05473 8.60879C4.02767 8.68194 4.00501 8.75678 3.98765 8.83279C3.95476 8.97693 3.94097 9.12596 3.95445 9.2734C3.96794 9.42084 4.00855 9.56493 4.06703 9.7007C4.0979 9.7723 4.13376 9.84176 4.17364 9.90879C4.17575 9.91237 4.17787 9.91589 4.18 9.91941ZM19.163 9.33708C19.0951 9.25045 19.039 9.15469 19.0012 9.05117C18.9806 8.99459 18.9656 8.93631 18.9556 8.87715L18.9551 8.87418C18.8945 8.83989 18.8302 8.81199 18.7643 8.7897C18.7369 8.78034 18.7091 8.77203 18.681 8.7646C18.651 8.75667 18.6209 8.74996 18.5905 8.74413L18.5897 8.74396C18.5898 8.74424 18.5899 8.74446 18.5899 8.74468C18.5975 8.77473 18.6059 8.80445 18.6156 8.83389C18.6246 8.86146 18.6345 8.8887 18.6454 8.91562C18.6979 9.04517 18.7726 9.16774 18.8748 9.2641C18.9525 9.33747 19.0444 9.3941 19.1423 9.4368C19.1476 9.40488 19.1542 9.37318 19.1618 9.34181L19.163 9.33708ZM19.6477 9.40791C19.6672 9.38403 19.6858 9.35942 19.7036 9.33427C19.7936 9.20637 19.8618 9.05987 19.8826 8.90384C19.9 8.77274 19.885 8.63879 19.8503 8.51171C19.8426 8.48375 19.834 8.45601 19.8245 8.42861C19.8143 8.39938 19.803 8.3706 19.7908 8.34215L19.7905 8.34143C19.7904 8.34165 19.7902 8.34182 19.79 8.34198C19.7694 8.36504 19.7495 8.38871 19.7305 8.41314C19.7126 8.43604 19.6956 8.45948 19.6793 8.48359C19.629 8.55838 19.5862 8.63923 19.556 8.72442C19.5766 8.76476 19.5946 8.80654 19.6093 8.84963C19.6652 9.01308 19.6748 9.18981 19.6542 9.36047C19.6523 9.37632 19.6501 9.39212 19.6477 9.40791ZM19.5251 9.2548C19.5317 9.11952 19.5155 8.98227 19.465 8.85612C19.4158 8.73334 19.3369 8.62404 19.2443 8.53031C19.2238 8.50968 19.2027 8.48981 19.181 8.4706C19.1577 8.45013 19.1338 8.43059 19.1092 8.41177L19.1086 8.41127C19.1086 8.41155 19.1085 8.41177 19.1085 8.41204C19.1018 8.44226 19.096 8.47264 19.0914 8.50324C19.0871 8.53191 19.0838 8.56075 19.0815 8.5897C19.0704 8.72905 19.0824 8.87203 19.1305 9.004C19.1521 9.06306 19.1806 9.11919 19.2144 9.17203L19.215 9.17038C19.2222 9.15178 19.2299 9.13334 19.238 9.11512L19.2406 9.1094L19.2796 9.02723L19.2669 9.05403C19.2587 9.02508 19.251 8.99591 19.244 8.96653C19.2249 8.8892 19.2086 8.81072 19.2001 8.72921L19.2007 8.72899C19.2501 8.79437 19.2917 8.86289 19.3305 8.93246C19.3698 9.00186 19.4047 9.07296 19.4383 9.14462C19.4427 9.15458 19.4472 9.1646 19.4516 9.17456C19.4743 9.19746 19.4961 9.22112 19.5171 9.24545C19.5198 9.24853 19.5224 9.25167 19.5251 9.2548ZM18.9545 8.48865C18.8865 8.41765 18.8276 8.33829 18.7824 8.25084C18.7547 8.1974 18.7324 8.14149 18.715 8.08408L18.7141 8.08117C18.6496 8.05492 18.5822 8.03543 18.5141 8.02173C18.4857 8.01595 18.457 8.01122 18.4282 8.00747C18.3975 8.0034 18.3667 8.0006 18.3358 7.99867L18.335 7.99861C18.3351 7.99889 18.3352 7.99911 18.3353 7.99933C18.3466 8.02811 18.3589 8.05657 18.3721 8.08447C18.3846 8.11067 18.398 8.13648 18.4122 8.16179C18.4808 8.28359 18.5705 8.39559 18.6842 8.47819C18.7624 8.53505 18.8504 8.57693 18.9424 8.60648L18.9425 8.60439C18.9442 8.57693 18.9467 8.54958 18.95 8.52233C18.9513 8.51111 18.9528 8.49988 18.9545 8.48865ZM5.33334 8.41716C5.40678 8.35447 5.47415 8.2848 5.53252 8.20786C5.62228 8.08953 5.68946 7.95525 5.73748 7.81496C5.79463 7.64809 5.82576 7.47242 5.83464 7.29641L5.83516 7.2848L5.8353 7.28078C5.83404 7.28122 5.83277 7.28166 5.83151 7.2821C5.73846 7.31474 5.64786 7.35409 5.56072 7.40021C5.55007 7.40588 5.53947 7.4116 5.52892 7.41744C5.53345 7.62696 5.50384 7.83796 5.42683 8.03351C5.3502 8.228 5.22968 8.40285 5.08624 8.55425L5.09606 8.54792C5.12617 8.52844 5.15676 8.50978 5.18782 8.49195C5.23174 8.46669 5.33334 8.41716 5.33334 8.41716ZM19.469 8.52239C19.4853 8.49619 19.5006 8.46939 19.5151 8.4422C19.5881 8.3039 19.6371 8.14991 19.6378 7.9925C19.6384 7.86025 19.6063 7.72927 19.5557 7.60764C19.5446 7.58084 19.5325 7.55448 19.5196 7.5285C19.5058 7.50082 19.4909 7.47368 19.4752 7.44705L19.4748 7.44639C19.4747 7.44661 19.4745 7.44683 19.4744 7.44699C19.4568 7.47253 19.4401 7.4985 19.4243 7.52514C19.4096 7.55013 19.3957 7.57561 19.3826 7.60153C19.3422 7.6821 19.3101 7.76774 19.291 7.85607C19.3167 7.8935 19.3397 7.93263 19.3598 7.97352C19.4361 8.12855 19.4681 8.30258 19.4694 8.47445C19.4695 8.49041 19.4694 8.50637 19.469 8.52239ZM4.95241 8.4946C5.00568 8.44127 5.05569 8.38469 5.10172 8.32498C5.18479 8.21716 5.25467 8.09867 5.30331 7.97137C5.35631 7.83263 5.38318 7.68491 5.38998 7.53681C5.39807 7.36064 5.37875 7.18326 5.33796 7.01182L5.33519 7.00054L5.3342 6.99663C5.33311 6.99741 5.33202 6.99818 5.33092 6.99895C5.25074 7.05629 5.1748 7.11953 5.10407 7.18821C5.04811 7.24253 4.9954 7.30027 4.94693 7.36141C4.8525 7.48051 4.77408 7.61309 4.72266 7.75646C4.67409 7.89184 4.64986 8.03516 4.64425 8.17864C4.64255 8.22217 4.6425 8.26576 4.64404 8.30929C4.67155 8.28139 4.69992 8.25431 4.72927 8.22833L4.80717 8.16312L4.80968 8.16785L4.81188 8.16201C4.85504 8.05117 4.89952 7.94077 4.94846 7.83186C4.99685 7.72289 5.04822 7.6148 5.10745 7.5094L5.10806 7.50962C5.09044 7.62916 5.06484 7.74606 5.03649 7.86196C5.00853 7.97803 4.9761 8.0925 4.94246 8.20665C4.92788 8.25409 4.91314 8.30142 4.89796 8.34864C4.90099 8.35591 4.90397 8.36317 4.90691 8.37049C4.92339 8.41133 4.93856 8.45277 4.95241 8.4946ZM19.3303 8.42173C19.3229 8.27484 19.2895 8.12745 19.2175 7.99834C19.1531 7.88282 19.0608 7.78447 18.9571 7.70335C18.9342 7.68546 18.9107 7.6684 18.8866 7.65216C18.861 7.63477 18.8347 7.61848 18.808 7.60291L18.8073 7.60258C18.8073 7.6028 18.8073 7.60307 18.8073 7.60329C18.8045 7.63411 18.8026 7.66499 18.802 7.69592C18.8014 7.72492 18.8018 7.75398 18.8032 7.78293C18.8099 7.92255 18.84 8.0629 18.9046 8.18761C18.9288 8.23428 18.9575 8.27831 18.9898 8.31958L19.0301 8.19608L19.0384 8.20109C19.0294 8.17957 19.0207 8.15789 19.0124 8.13604C18.9836 8.06174 18.9574 7.98601 18.9386 7.90621L18.9392 7.90593C18.9965 7.96449 19.0465 8.02712 19.0939 8.09118C19.1417 8.15503 19.1854 8.22118 19.2278 8.28788C19.2454 8.31656 19.2628 8.34528 19.2798 8.37429C19.2837 8.37781 19.2876 8.38139 19.2916 8.38496C19.3047 8.39696 19.3175 8.40918 19.3303 8.42173ZM4.918 7.18277C4.87923 7.07446 4.8303 6.96978 4.7733 6.87005L4.76745 6.85993L4.76541 6.85651C4.76459 6.85756 4.76375 6.85861 4.76292 6.85965C4.70013 6.93989 4.64342 7.02481 4.59373 7.11375C4.55731 7.17897 4.52465 7.24633 4.49662 7.31557C4.44115 7.45255 4.40375 7.59751 4.39353 7.74517C4.38331 7.89289 4.4004 8.0416 4.43647 8.18496C4.45551 8.26058 4.47982 8.33488 4.50849 8.40742C4.51 8.41122 4.51152 8.41501 4.51306 8.41887C4.51321 8.42052 4.51112 8.39597 4.51015 8.38199C4.49336 8.14171 4.51919 7.89592 4.60788 7.67071C4.67904 7.49008 4.78782 7.32652 4.918 7.18277ZM18.6641 7.71017C18.5646 7.6476 18.474 7.57099 18.4003 7.47919C18.3626 7.43224 18.3297 7.38188 18.3012 7.32905C18.3012 7.32905 18.2498 7.31793 18.2246 7.31502C18.1895 7.311 18.1541 7.30891 18.1187 7.30792C18.1055 7.3077 18.0922 7.30764 18.0789 7.3077C18.0542 7.30808 18.0296 7.30891 18.005 7.31061C17.9741 7.3127 17.9433 7.31601 17.9127 7.32024L17.912 7.32035C17.9396 7.36383 17.9703 7.4055 18.0031 7.44518C18.1027 7.5657 18.2261 7.67011 18.3711 7.73125C18.4648 7.77071 18.565 7.79207 18.6662 7.79988C18.665 7.77754 18.6641 7.71766 18.6641 7.71017ZM18.886 6.64088C18.8801 6.65795 18.8212 6.9569 18.8207 6.99163C18.8533 7.02327 18.8837 7.05712 18.9115 7.09322C19.0169 7.2301 19.0827 7.39438 19.118 7.56262C19.1213 7.5782 19.1243 7.59388 19.1271 7.60962C19.1379 7.58073 19.1476 7.55145 19.1563 7.5219C19.2006 7.37192 19.2181 7.21127 19.1877 7.05684C19.1622 6.92707 19.1048 6.80506 19.0312 6.69581C19.015 6.67176 18.9979 6.64826 18.9801 6.62536C18.961 6.60098 18.9411 6.57732 18.9204 6.55426L18.92 6.55371C18.9198 6.55398 18.9197 6.5542 18.9196 6.55442C18.9075 6.58288 18.8962 6.61166 18.886 6.64088ZM18.9726 7.54424C18.9366 7.39961 18.8743 7.25954 18.7769 7.14567C18.6909 7.04518 18.581 6.96697 18.4632 6.90797C18.4373 6.89498 18.4108 6.88288 18.3841 6.8717C18.3555 6.85976 18.3266 6.84892 18.2972 6.83901L18.2965 6.83874C18.2965 6.83901 18.2965 6.83923 18.2966 6.83951C18.3 6.87027 18.3043 6.90087 18.3098 6.93136C18.3149 6.95993 18.321 6.98827 18.3281 7.01645C18.3623 7.15195 18.4196 7.28354 18.5076 7.39306C18.5558 7.45305 18.6125 7.50549 18.6744 7.55095L18.6914 7.45167C18.6609 7.40907 18.6312 7.36576 18.6031 7.32113C18.5601 7.25404 18.5195 7.18497 18.4853 7.1105L18.4858 7.11006C18.5535 7.15618 18.615 7.20764 18.6741 7.26114C18.7335 7.31419 18.7894 7.37038 18.8443 7.42745C18.8691 7.45431 18.8939 7.48122 18.9182 7.50863C18.9366 7.52008 18.9547 7.53191 18.9726 7.54424ZM5.47789 7.00577C5.49055 7.06158 5.51259 7.1722 5.51259 7.1722C5.68746 7.05547 5.84452 6.90792 5.95557 6.72834C6.02901 6.60957 6.08176 6.47875 6.11744 6.34397C6.16162 6.1771 6.18055 6.00363 6.17816 5.8312L6.17792 5.81953L6.17781 5.81552C6.17658 5.81607 6.17534 5.81656 6.17411 5.81706C6.08336 5.85564 5.99548 5.90071 5.91148 5.95233C5.84502 5.99317 5.781 6.03808 5.72038 6.08717C5.60552 6.18024 5.50262 6.28893 5.42217 6.41326C5.34171 6.53758 5.28466 6.67594 5.24683 6.81881C5.2393 6.84727 5.23252 6.87589 5.22646 6.90467L5.22687 6.9044C5.25888 6.8809 5.29164 6.85839 5.32521 6.83714L5.41252 6.78519L5.42519 6.82256C5.48793 6.72938 5.5518 6.63692 5.6193 6.54666C5.69032 6.45079 5.76398 6.35652 5.84474 6.26659L5.84529 6.26692C5.80202 6.3798 5.75159 6.48827 5.69863 6.59521C5.64606 6.70241 5.58947 6.80709 5.53177 6.91111C5.51387 6.94253 5.49589 6.97385 5.47774 7.00511L5.47789 7.00577ZM5.96971 7.09977C5.97096 7.12867 5.97149 7.14099 5.97149 7.14099C6.02939 7.10379 6.08446 7.06224 6.13581 7.01601C6.24519 6.91755 6.3362 6.79988 6.41041 6.67308C6.49577 6.52718 6.56 6.3689 6.60397 6.20583L6.60498 6.20198C6.60366 6.20214 6.60232 6.20225 6.60099 6.20242C6.4998 6.21436 6.39955 6.23395 6.3014 6.26136C6.29297 6.26373 6.28455 6.26615 6.27615 6.26862C6.23491 6.47407 6.16003 6.67363 6.04225 6.84765C5.96177 6.96653 5.86311 7.07187 5.75317 7.16394C5.7949 7.14859 5.83716 7.13461 5.88003 7.12278L5.96971 7.09977ZM18.1795 6.98255C18.0956 6.93037 18.0184 6.8678 17.9525 6.79388C17.9118 6.7482 17.876 6.69873 17.8445 6.64655C17.8027 6.64083 17.7605 6.63775 17.7182 6.63681C17.7089 6.6367 17.6995 6.63665 17.6901 6.63665C17.612 6.63736 17.5342 6.6454 17.4574 6.65998L17.4567 6.66015C17.4866 6.70208 17.5193 6.74215 17.5541 6.78013C17.6597 6.89542 17.7883 6.99339 17.9363 7.04705C18.0235 7.07869 18.1155 7.09498 18.2082 7.09961L18.2079 7.09851C18.1978 7.06422 18.1795 6.98255 18.1795 6.98255ZM5.73099 5.90665C5.72845 5.8864 5.72559 5.86626 5.72242 5.84612C5.70703 5.74876 5.68419 5.65266 5.65447 5.55866L5.65324 5.55487C5.6522 5.55569 5.65115 5.55652 5.65011 5.5574C5.51665 5.66686 5.39639 5.79361 5.29727 5.93505C5.21031 6.05921 5.13983 6.19565 5.09659 6.34122C5.05443 6.48315 5.03868 6.63197 5.04265 6.77974C5.04474 6.85773 5.05228 6.93555 5.06445 7.01254C5.0651 7.01661 5.06575 7.02069 5.06643 7.02476L5.06658 7.0236C5.06816 7.01171 5.06984 6.99988 5.07163 6.98805C5.10623 6.7591 5.18027 6.53373 5.30662 6.33852C5.41718 6.16769 5.56523 6.02394 5.73099 5.90665ZM18.7342 6.66405C18.7478 6.55327 18.7446 6.44045 18.7174 6.33197C18.6853 6.20368 18.6218 6.08475 18.5427 5.97941C18.5253 5.95619 18.507 5.93362 18.4881 5.91166C18.4678 5.88822 18.4467 5.86565 18.4249 5.84364L18.4244 5.84314C18.4243 5.84336 18.4242 5.84358 18.4241 5.84386C18.4134 5.87286 18.4036 5.9022 18.395 5.93192C18.3868 5.95976 18.3796 5.98789 18.3735 6.01629C18.3542 6.1044 18.3443 6.19532 18.3477 6.28563L18.3498 6.2875C18.3831 6.31689 18.4144 6.34848 18.4434 6.38238C18.5556 6.5137 18.6298 6.67446 18.6736 6.84066C18.6769 6.85321 18.68 6.86582 18.683 6.87847L18.6869 6.88123C18.6887 6.87556 18.6927 6.85943 18.6927 6.85943C18.7013 6.79333 18.7155 6.7279 18.7342 6.66405ZM17.8164 6.16031C17.8213 6.19086 17.8272 6.22118 17.8342 6.25134C17.8408 6.27958 17.8484 6.30764 17.8569 6.33538C17.898 6.46901 17.9619 6.59746 18.0553 6.70236C18.0859 6.73665 18.1193 6.76813 18.1549 6.79686L18.1548 6.79471C18.1541 6.78227 18.153 6.66009 18.153 6.66009L18.1753 6.6651C18.1657 6.65211 18.1562 6.63901 18.1469 6.62575C18.1007 6.56086 18.0566 6.49399 18.0186 6.42135L18.0191 6.42091C18.0891 6.4635 18.1531 6.51177 18.2148 6.56213C18.2769 6.61221 18.3356 6.66543 18.3933 6.71964L18.4062 6.73219C18.4247 6.73945 18.4431 6.7471 18.4613 6.75508C18.4778 6.76235 18.4941 6.76989 18.5104 6.77781C18.4666 6.65415 18.4021 6.53714 18.3116 6.44166C18.2206 6.34562 18.1069 6.27314 17.9863 6.22019C17.9597 6.20853 17.9327 6.19779 17.9054 6.188C17.8763 6.17748 17.8468 6.16818 17.817 6.15976L17.8163 6.15954L17.8164 6.16031ZM17.2036 6.01326C17.1737 6.01381 17.1438 6.01507 17.1139 6.01761C17.0752 6.02085 17.0366 6.02597 16.9983 6.03258L16.9976 6.03274C17.0267 6.07523 17.0588 6.11579 17.0929 6.15437C17.1966 6.27149 17.3235 6.37154 17.4706 6.42779C17.5645 6.46361 17.6643 6.48161 17.7646 6.48618C17.7502 6.45079 17.7374 6.41474 17.7261 6.37831L17.7247 6.3738C17.6379 6.31893 17.5582 6.25288 17.4911 6.1749C17.4518 6.12922 17.4172 6.08002 17.387 6.02817L17.3856 6.0257C17.3656 6.02267 17.262 6.00599 17.2036 6.01326ZM12.9493 6.2613C12.63 6.48585 12.1885 6.40935 11.9639 6.08959C11.7393 6.40935 11.2978 6.48585 10.9785 6.2613C10.7104 6.07308 10.6069 5.72526 10.7285 5.42091C10.7967 5.78359 11.1464 6.02245 11.5092 5.95366C11.7002 5.91788 11.8664 5.80011 11.9639 5.6317C12.0613 5.80011 12.2276 5.91788 12.4186 5.95366C12.7813 6.02245 13.131 5.78359 13.1992 5.42091C13.3209 5.72526 13.2174 6.07308 12.9493 6.2613ZM18.2812 5.83483C18.2778 5.79829 18.272 5.76197 18.2637 5.72608C18.2338 5.59724 18.1724 5.47727 18.0951 5.37055C18.078 5.34705 18.0602 5.32416 18.0415 5.30192C18.0217 5.27815 18.001 5.2552 17.9796 5.23285L17.9791 5.2323C17.979 5.23258 17.9788 5.2328 17.9788 5.23302C17.9676 5.26191 17.9573 5.29103 17.9481 5.32058C17.9395 5.34832 17.9318 5.37633 17.9252 5.40456C17.9044 5.49235 17.893 5.5831 17.8948 5.67341C17.9284 5.7039 17.9599 5.73665 17.9889 5.77176C18.0856 5.88899 18.1525 6.02839 18.1951 6.17391C18.2005 6.17721 18.206 6.18057 18.2114 6.18403C18.2163 6.09884 18.2307 6.01408 18.2522 5.93175C18.2604 5.90043 18.2812 5.83483 18.2812 5.83483ZM17.3658 5.53907C17.3702 5.56973 17.3755 5.60016 17.3821 5.63043C17.3882 5.65877 17.3952 5.68695 17.4033 5.7148C17.4421 5.84909 17.5037 5.9787 17.5954 6.08513C17.621 6.11491 17.6488 6.14265 17.6783 6.16846C17.6743 6.14089 17.6712 6.11326 17.6691 6.08552L17.6638 5.98849L17.6749 5.99036C17.6347 5.93087 17.5966 5.86951 17.5635 5.80352L17.564 5.80308C17.6333 5.84683 17.6964 5.8962 17.7573 5.9476C17.7873 5.9727 17.8165 5.99845 17.8451 6.02476C17.8481 6.02559 17.8511 6.02641 17.854 6.02724C17.8955 6.03885 17.9364 6.05233 17.9766 6.06763C17.9901 6.07275 18.0036 6.07815 18.017 6.0837C17.9774 5.99075 17.9246 5.90352 17.8561 5.82878C17.7668 5.73126 17.6544 5.65685 17.5346 5.60187C17.5082 5.58976 17.4814 5.57859 17.4543 5.5683C17.4254 5.55734 17.396 5.54749 17.3664 5.53858L17.3657 5.53836L17.3658 5.53907ZM6.68881 6.05729L6.69214 6.05718C6.76038 6.03054 6.82655 5.99867 6.88948 5.96108C7.0206 5.88271 7.13573 5.77969 7.23429 5.6634C7.28502 5.60352 7.33149 5.54012 7.37393 5.47413C7.42903 5.38844 7.47728 5.2984 7.5185 5.20528L7.5201 5.20159C7.49748 5.2006 7.47485 5.20022 7.4522 5.20005C7.43754 5.20005 7.43757 5.20005 7.42291 5.20016C7.38691 5.20071 7.35094 5.20198 7.315 5.20434C7.27156 5.20715 7.22818 5.21144 7.185 5.21717C7.11285 5.41398 7.00835 5.59972 6.86536 5.75371C6.73234 5.89697 6.56984 6.01023 6.39501 6.09686L6.4025 6.09532C6.44538 6.0864 6.48853 6.07881 6.53189 6.07264C6.58204 6.06543 6.63248 6.06004 6.68309 6.05751L6.68881 6.05729ZM6.31248 5.98409C6.36161 5.96053 6.40964 5.93478 6.45635 5.90671C6.56943 5.83874 6.67461 5.7569 6.76449 5.66009C6.86841 5.54821 6.95005 5.41706 7.01206 5.27782C7.04398 5.20611 7.07082 5.13219 7.09307 5.05696C7.12196 4.95927 7.14305 4.85938 7.15654 4.75839L7.15704 4.75443C7.15574 4.75476 7.15445 4.75509 7.15315 4.75542C7.05758 4.77963 6.96383 4.81078 6.87293 4.84898C6.80101 4.87919 6.73088 4.91376 6.66347 4.953C6.53573 5.02741 6.4174 5.11915 6.3189 5.22972C6.22292 5.33748 6.14684 5.46186 6.08823 5.59345C6.06846 5.63786 6.05059 5.6831 6.03458 5.729C6.04679 5.72317 6.05907 5.71744 6.07139 5.71183C6.11753 5.69091 6.16444 5.67154 6.21231 5.65498L6.21773 5.65316L6.25297 5.64166C6.33125 5.55679 6.41063 5.47281 6.49333 5.39169C6.57822 5.30781 6.66543 5.22586 6.75896 5.14936L6.75945 5.14975C6.69945 5.2547 6.63306 5.35421 6.56435 5.45178C6.49603 5.54969 6.42413 5.64452 6.35114 5.73852C6.33897 5.75382 6.32678 5.76912 6.31455 5.78442C6.31554 5.8082 6.31597 5.83197 6.31605 5.85575C6.31619 5.89856 6.31499 5.94138 6.31248 5.98409ZM17.2935 5.82344C17.1697 5.75586 17.0565 5.66829 16.9674 5.55883C16.9288 5.51133 16.8951 5.46026 16.866 5.40666C16.841 5.40209 16.8159 5.39846 16.7907 5.39576C16.7555 5.39191 16.7202 5.39003 16.6847 5.38926C16.6714 5.38915 16.6714 5.38915 16.658 5.38915C16.6329 5.38943 16.6078 5.39025 16.5827 5.39191C16.5479 5.39416 16.5133 5.39796 16.4788 5.40297L16.4781 5.40308C16.506 5.44634 16.5369 5.48783 16.57 5.52729C16.6704 5.64722 16.7945 5.75079 16.9399 5.81106C17.0258 5.84661 17.1172 5.86697 17.2097 5.87567C17.2148 5.87561 17.22 5.87556 17.2251 5.87561C17.2549 5.87583 17.2847 5.87694 17.3144 5.87914C17.307 5.86075 17.3001 5.84221 17.2935 5.82344ZM6.70165 4.77611C6.705 4.66114 6.69756 4.54579 6.68084 4.43219L6.67907 4.42069L6.67843 4.41673C6.67727 4.41739 6.67612 4.41805 6.67496 4.41877C6.59009 4.4689 6.50892 4.5252 6.43247 4.58745C6.37198 4.63671 6.31442 4.6896 6.26081 4.74628C6.15633 4.85668 6.06663 4.98195 6.00287 5.12025C5.94266 5.25085 5.906 5.39152 5.88787 5.53395C5.87749 5.61552 5.87298 5.69785 5.87382 5.78007L5.87426 5.77859C5.87763 5.76714 5.88111 5.75569 5.88468 5.74424C5.95663 5.51442 6.07027 5.29488 6.23495 5.1175C6.36708 4.97523 6.52801 4.86257 6.70165 4.77611ZM17.4728 5.42856C17.4386 5.35448 17.3954 5.28475 17.3418 5.22284C17.2552 5.12289 17.1449 5.04546 17.0267 4.98717C17.0007 4.97435 16.9742 4.96241 16.9473 4.9514C16.9187 4.93962 16.8896 4.929 16.8603 4.91926L16.8596 4.91904C16.8596 4.91926 16.8596 4.91954 16.8596 4.91976C16.8632 4.95052 16.8677 4.98112 16.8734 5.0115C16.8787 5.04006 16.8851 5.06841 16.8923 5.09647C16.9274 5.23181 16.9855 5.36301 17.0742 5.47198C17.1225 5.53137 17.1792 5.58321 17.241 5.62806C17.2314 5.57809 17.2244 5.52751 17.2207 5.47677C17.2031 5.45151 17.1858 5.42553 17.1691 5.39945C17.1258 5.33258 17.0847 5.26378 17.05 5.18954L17.0505 5.1891C17.1185 5.23478 17.1803 5.28585 17.2398 5.33896C17.254 5.35145 17.268 5.36417 17.2818 5.37699C17.2818 5.37699 17.2758 5.37589 17.3056 5.38145C17.3393 5.38822 17.3727 5.39686 17.4057 5.40671C17.4282 5.41342 17.4506 5.42074 17.4728 5.42856ZM17.7353 5.5536C17.7697 5.4159 17.7805 5.27099 17.7521 5.13137C17.7258 5.00181 17.6676 4.88013 17.5933 4.77138C17.5769 4.74744 17.5597 4.72405 17.5417 4.70126C17.5225 4.67699 17.5024 4.65344 17.4816 4.63054L17.4811 4.62999C17.481 4.63021 17.4809 4.63043 17.4808 4.63065C17.4688 4.65922 17.4577 4.68806 17.4478 4.71739C17.4384 4.74485 17.43 4.77259 17.4225 4.80066C17.3994 4.88783 17.3854 4.97826 17.3848 5.06863C17.3848 5.06863 17.4486 5.13439 17.4761 5.16951C17.5542 5.26956 17.611 5.38453 17.6501 5.50517C17.6791 5.52019 17.7075 5.53632 17.7353 5.5536ZM16.7799 5.20291C16.6657 5.14727 16.5599 5.07452 16.4721 4.9825C16.4306 4.93891 16.3936 4.89147 16.3608 4.84127L16.3591 4.83874L16.3578 4.83863C16.3281 4.83561 16.2984 4.83401 16.2685 4.83346C16.2613 4.83335 16.2541 4.83335 16.2469 4.83335C16.1546 4.83395 16.0628 4.84513 15.9728 4.86544L15.972 4.8656C16.0033 4.90655 16.0373 4.94551 16.0734 4.98228C16.1829 5.09394 16.3147 5.18739 16.4645 5.2361C16.4899 5.24436 16.5157 5.25135 16.5417 5.25707C16.5753 5.25421 16.609 5.2525 16.6426 5.25173C16.6574 5.25157 16.6721 5.25157 16.6869 5.25173C16.7243 5.2525 16.7617 5.25448 16.7989 5.25828C16.7927 5.24155 16.7869 5.22465 16.7814 5.2077L16.7799 5.20291ZM16.964 4.81007C16.9244 4.74001 16.8765 4.6749 16.8191 4.61827C16.7249 4.52537 16.6088 4.4568 16.4864 4.40798C16.4594 4.39725 16.4321 4.38745 16.4045 4.37854C16.375 4.36907 16.3452 4.36076 16.3151 4.35333L16.3144 4.35316C16.3145 4.35338 16.3145 4.35366 16.3146 4.35388C16.3205 4.38426 16.3274 4.41436 16.3355 4.44425C16.343 4.47226 16.3515 4.50005 16.361 4.52746C16.4066 4.6596 16.4748 4.78585 16.5718 4.88756C16.6205 4.93863 16.6757 4.98277 16.7352 5.02064L16.7345 5.01706C16.7268 4.97281 16.7212 4.92818 16.718 4.88338L16.7179 4.88024C16.6984 4.85652 16.6793 4.83247 16.6607 4.80787C16.6122 4.74458 16.566 4.67919 16.5255 4.60787L16.526 4.60743C16.5974 4.6476 16.663 4.69372 16.7264 4.74199L16.7298 4.74452L16.8038 4.76054C16.8374 4.76824 16.8705 4.77782 16.9032 4.78855C16.9237 4.79526 16.9439 4.80242 16.964 4.81007ZM17.2319 4.94661C17.2606 4.79769 17.2629 4.6415 17.2209 4.49494C17.1844 4.3678 17.117 4.25107 17.0343 4.14849C17.0161 4.12587 16.9971 4.10391 16.9774 4.08261C16.9564 4.05988 16.9345 4.03803 16.9119 4.01679L16.9114 4.01629C16.9113 4.01657 16.9113 4.01679 16.9112 4.01701C16.9015 4.0464 16.8927 4.07606 16.885 4.10605C16.8779 4.13412 16.8716 4.16252 16.8664 4.19103C16.8502 4.27975 16.8433 4.371 16.8498 4.46114C16.8849 4.48987 16.918 4.52097 16.9487 4.55459C17.0407 4.65514 17.1096 4.77474 17.1589 4.90159C17.1837 4.91574 17.2081 4.93076 17.2319 4.94661ZM7.30304 4.67281C7.3004 4.72053 7.29465 4.76808 7.28751 4.8153C7.2847 4.8339 7.28163 4.85245 7.27831 4.87094C7.33145 4.82906 7.38002 4.78156 7.42191 4.72807C7.50373 4.62366 7.55883 4.50022 7.59353 4.37276C7.60117 4.34469 7.60782 4.31629 7.61353 4.28778C7.61962 4.25735 7.62451 4.22669 7.62848 4.19593L7.62861 4.19494C7.62827 4.19505 7.62794 4.1951 7.62761 4.19521C7.59803 4.20462 7.56877 4.21497 7.53991 4.22636C7.51285 4.23709 7.48614 4.24876 7.45988 4.26131C7.33336 4.32174 7.2153 4.40413 7.12504 4.51227C7.09052 4.55366 7.06045 4.59835 7.03442 4.64529L7.03859 4.64408C7.094 4.62768 7.15007 4.61359 7.2068 4.60264L7.23277 4.59818C7.28851 4.54463 7.3466 4.49295 7.41082 4.44612L7.41131 4.4465C7.38038 4.51981 7.34329 4.58833 7.30386 4.65492L7.30304 4.67281Z" fill="#4F4F4F"/>
<path fill-rule="evenodd" clip-rule="evenodd" d="M6.45931 2.05604C8.13493 1.00097 10.077 0.446283 12.057 0.457189C14.0371 0.468095 15.9729 1.04414 17.6368 2.1176C19.3007 3.19106 20.6235 4.71728 21.4497 6.51681C22.2758 8.31635 22.571 10.3144 22.3005 12.2759C22.038 14.1788 21.2484 15.967 20.0314 17.449L20.1764 17.664C20.5771 18.2585 20.6293 19.0219 20.3131 19.6653L19.4087 21.5057C18.6705 23.0081 17.0038 23.8146 15.3676 23.4612L15.2844 23.4432C14.9685 23.375 14.6725 23.2353 14.419 23.0348L14.1003 22.7828C13.7587 22.5126 13.3686 22.3059 12.9532 22.1741C12.2978 21.9663 11.5909 21.9662 10.9365 22.1755C10.5267 22.3066 10.1438 22.5106 9.80621 22.7775L9.4826 23.0335C9.22799 23.2348 8.93062 23.3752 8.61333 23.4437L8.5323 23.4612C6.89604 23.8146 5.22943 23.0081 4.49116 21.5057L3.55793 19.6066C3.25947 18.9992 3.28399 18.2829 3.6233 17.6974L3.62804 17.6892L3.88048 17.3245C2.68094 15.8312 1.92552 14.068 1.68405 12.1624C1.43514 10.1979 1.7523 8.20331 2.59823 6.41298C3.44416 4.62266 4.78369 3.1111 6.45931 2.05604ZM12.0545 0.928035C10.164 0.917623 8.30994 1.4472 6.71019 2.45448C5.11045 3.46177 3.83158 4.90489 3.02395 6.61414C2.21632 8.32339 1.91353 10.2277 2.15117 12.1032C2.38874 13.978 3.14717 15.708 4.35596 17.1622L4.47024 17.2997L4.02614 17.9413C3.77004 18.3893 3.75276 18.9354 3.98052 19.3989L4.91375 21.2981C5.55665 22.6064 7.008 23.3087 8.4329 23.001L8.51393 22.9835C8.76089 22.9301 8.99235 22.8209 9.19051 22.6642L9.51413 22.4082C9.89605 22.1061 10.3293 21.8754 10.7931 21.7271C11.5409 21.4879 12.3476 21.4881 13.0955 21.7253C13.565 21.8742 14.0059 22.1078 14.3924 22.4135L14.7111 22.6655C14.9081 22.8214 15.1383 22.93 15.3838 22.983L15.467 23.001C16.8919 23.3087 18.3432 22.6064 18.9861 21.2981L19.8905 19.4577C20.1323 18.9656 20.0924 18.3818 19.7859 17.9272L19.4423 17.4174L19.5579 17.2814C20.7827 15.8405 21.5758 14.0837 21.834 12.2116C22.0923 10.3388 21.8105 8.43131 21.0218 6.71327C20.233 4.99522 18.9701 3.53811 17.3816 2.51326C15.793 1.48841 13.9449 0.938447 12.0545 0.928035Z" fill="#E8651D"/>
</svg>
