<svg viewBox="0 0 24 24" fill="none" xmlns="http://www.w3.org/2000/svg" width="24" height="24">
<path fill-rule="evenodd" clip-rule="evenodd" d="M13.5116 0.730469C19.3902 1.47461 23.9613 6.5143 23.9613 12.587C23.9613 19.1695 18.5906 24.5382 12.0056 24.5382C5.42064 24.5382 0.0498047 19.1695 0.0498047 12.587C0.0498047 10.8756 0.412878 9.24615 1.06596 7.77183L1.68393 8.5662L1.71988 8.61046C1.71988 8.61046 1.83735 8.74902 1.97699 8.86972C2.10469 8.97863 2.26834 9.07675 2.38358 9.12414C2.47158 9.15954 2.55897 9.18999 2.65082 9.20774C3.05537 9.2871 3.47046 9.28236 3.77092 9.26865C4.00991 9.25786 4.18024 9.24455 4.18024 9.24455C5.74246 9.17164 6.34013 9.87561 6.74651 10.3547C7.11907 10.7927 10.7648 15.6484 10.7648 15.6484L12.5775 13.8341C12.5775 13.8341 11.0555 11.8942 10.3802 11.0246C9.6254 10.0529 9.07856 9.35446 8.74489 9.07272C8.01598 8.4585 6.40393 8.38569 6.03492 8.32226C6.03492 8.32226 4.67411 8.15598 3.86206 7.32344C3.67087 7.12741 3.53831 6.95426 3.53831 6.95426L2.37216 5.52243C2.67081 5.11687 2.99442 4.73071 3.34068 4.36624L4.59836 5.98559C4.84373 6.2985 4.9777 6.48001 5.2256 6.72707C5.857 7.35702 6.74905 7.44223 6.74905 7.44223C8.6096 7.77702 9.6256 7.86525 10.2153 8.54825C10.9229 9.36727 11.0596 9.55463 11.651 10.3169C11.8689 10.5977 13.579 12.8329 13.579 12.8329L15.3355 11.0733C15.3355 11.0733 14.2109 9.62492 13.5578 8.76656C13.2382 8.34616 12.7318 7.68999 12.3586 7.42216C11.5888 6.87117 10.9038 6.95295 10.2058 6.87904C9.60616 6.815 9.05305 6.8028 8.33386 6.46055C8.33386 6.46055 8.02287 6.39137 7.38094 5.56478C6.73821 4.7389 6.55806 4.4994 6.55806 4.4994L5.18024 2.78382C5.58585 2.50055 6.00972 2.24174 6.44967 2.00957L7.80738 3.77003L8.48545 4.65349C9.46236 5.90038 10.094 5.9147 10.745 5.99124C11.7779 6.11366 12.7505 6.04831 13.5916 6.6823C14.0784 7.04895 14.3327 7.43799 14.6829 7.88885C15.2116 8.56922 16.3513 10.0513 16.3513 10.0513L18.1092 8.2911C18.1092 8.2911 17.0972 6.98341 16.704 6.48656C16.5736 6.3223 16.3495 6.11416 16.0176 5.89887C15.493 5.55772 14.9694 5.45285 13.6261 5.2546C12.2832 5.05655 11.8467 4.82351 11.2121 4.12972C10.9088 3.79786 10.7408 3.5624 10.5366 3.2992L8.77807 1.07942C9.32642 0.925175 9.89052 0.809203 10.4673 0.734592L11.6655 2.38801C12.0676 2.87567 12.4263 3.51056 13.4473 3.96525C14.6759 4.51231 15.6039 4.38404 16.445 4.60135C16.445 4.60135 16.6742 4.65712 16.9266 4.76784C17.1942 4.88593 17.3684 5.0622 17.5358 5.25107C17.8139 5.56478 18.0574 5.87063 18.1131 5.94263C18.1245 5.95685 19.1559 7.24226 19.1559 7.24226L20.8934 5.50357C20.8934 5.50357 20.4922 4.9912 20.1741 4.58905C19.9771 4.34028 19.8913 4.25063 19.7261 4.14969C19.5953 4.07013 19.4314 3.99087 19.2101 3.93853C18.9575 3.87964 18.6126 3.83598 18.0178 3.81198C16.4513 3.74966 15.8726 3.62512 14.8757 2.43177L14.1361 1.5349L13.5116 0.730469Z" fill="#14763E"/>
</svg>
