<svg viewBox="0 0 24 24" fill="none" xmlns="http://www.w3.org/2000/svg" width="24" height="24">
<path fill-rule="evenodd" clip-rule="evenodd" d="M0 9.85413C3.83065 9.11383 8.0619 8.98543 12.9398 9.54938C17.0362 13.9351 18.9922 17.6295 20.3841 21.2697C15.2788 15.8272 8.8778 11.6406 0 9.85413Z" fill="#4DA2E7"/>
<path fill-rule="evenodd" clip-rule="evenodd" d="M4.85938 6.07982C8.77577 5.54012 11.3587 5.68987 15.3069 6.27892C17.6046 8.25832 21.265 12.1982 22.6569 15.8384C17.5516 10.3959 14.1388 7.65252 4.85938 6.07982Z" fill="#82BEEE"/>
<path fill-rule="evenodd" clip-rule="evenodd" d="M7.31543 3.625C11.3054 3.7117 13.5935 3.98255 17.5417 4.5716C19.4065 6.27465 21.3399 8.18575 23.6928 11.3587C17.5889 6.06505 16.5949 5.19765 7.31543 3.625Z" fill="#A6D0F3"/>
</svg>
