<svg viewBox="0 0 24 24" fill="none" xmlns="http://www.w3.org/2000/svg" width="24" height="24">
<path d="M20.3844 5.54255L22.8951 4.60113V3.01972L20.2747 4.33075L22.8951 2.22493V2.10156C22.8951 1.54928 22.4474 1.10156 21.8951 1.10156H21.8489L19.5023 3.6453L21.0618 1.10156H19.5866L18.2588 3.52387C19.2027 3.90686 19.9593 4.63555 20.3844 5.54255Z" fill="#F29200"/>
<path d="M22.8951 9.83796L20.4434 8.80823C20.6091 8.41797 20.7152 7.99473 20.7495 7.54876C20.7984 6.91435 20.6965 6.30306 20.4744 5.74995L22.8951 5.1645V6.22137L21.4509 6.6128L22.8951 6.88929V7.94902L21.7544 7.99356L22.8951 8.41589V9.83796Z" fill="#F29200"/>
<path d="M1.10254 12.8345L12.8629 8.22797C13.1008 9.16485 13.6711 9.97873 14.4495 10.5254L7.16455 22.8942H4.09458L10.6287 13.4192L2.8078 21.1994C2.17708 21.8268 1.10254 21.38 1.10254 20.4904V18.1442L9.26245 11.7577L1.10254 15.8622V12.8345Z" fill="#F29200"/>
<path d="M9.53023 22.8942L14.6774 10.6742C15.1971 10.9886 15.7961 11.1896 16.443 11.2394C16.8627 11.2717 17.2724 11.2381 17.6618 11.1473L20.7609 22.8942H18.3573L16.705 14.9731L16.5965 22.8942H14.1417L14.7116 15.1332L12.5044 22.8942H9.53023Z" fill="#F29200"/>
<path d="M17.9655 11.0637L21.9336 20.5866C22.1438 21.0911 22.8951 20.9408 22.8951 20.3943V17.4238L20.26 12.8803L22.8951 15.3249V13.4487L21.2463 11.2418L22.8951 12.0617V10.6174L20.3178 9.07602C19.8304 10.0218 18.9806 10.7405 17.9655 11.0637Z" fill="#F29200"/>
<path d="M18.971 1.10156L18.0696 3.4527C17.7503 3.34167 17.4118 3.26946 17.059 3.24232C16.4795 3.19764 15.9193 3.27868 15.4051 3.46231L14.8351 1.10156H16.0048L16.2756 2.10714L16.3134 1.10156H17.3881L17.31 2.39544L17.7108 1.10156H18.971Z" fill="#F29200"/>
<path d="M15.2019 3.54089L14.2465 1.10156H12.8597L13.3679 2.24168L12.4503 1.10156H10.6183L12.1327 2.7583L9.79685 1.10156H6.18729L13.3077 5.18385C13.7473 4.44945 14.4132 3.87205 15.2019 3.54089Z" fill="#F29200"/>
<path d="M3.71017 1.10156L13.1899 5.39424C12.9488 5.85878 12.7951 6.37826 12.7524 6.93292C12.7247 7.29188 12.7455 7.64331 12.8088 7.98109L1.10254 11.1296V8.34992L8.75128 7.31993L1.10254 6.8315V4.53659L9.28569 5.59956L1.10254 3.24232V2.10156C1.10254 1.54928 1.55025 1.10156 2.10254 1.10156H3.71017Z" fill="#F29200"/>
</svg>
