<svg viewBox="0 0 24 24" fill="none" xmlns="http://www.w3.org/2000/svg" width="24" height="24">
<path fill-rule="evenodd" clip-rule="evenodd" d="M11.6079 0.596087L5.99363 3.8209L5.96225 3.83864C5.41746 4.15809 5.05189 4.74758 5.05189 5.42219V16.7802L8.07961 15.0413L8.06202 15.0018L8.06107 14.999L8.04181 14.9533L8.02375 14.9084L8.02113 14.9018L8.00307 14.8557L7.98572 14.8093L7.98524 14.8074L7.98477 14.807L7.96765 14.7597L7.95101 14.7112L7.95054 14.7098L7.93438 14.6618L7.91845 14.6119L7.91821 14.611L7.91774 14.61L7.91346 14.5961L7.90918 14.5826C7.90229 14.5594 7.89539 14.5355 7.88874 14.5119L7.88826 14.5112L7.87448 14.4613L7.86093 14.4104L7.86045 14.4088V14.4081L7.85332 14.3795L7.84595 14.3511C7.83407 14.3028 7.82337 14.2541 7.81315 14.2052L7.81292 14.2045L7.8027 14.1527L7.79342 14.1028V14.1014L7.79295 14.0995V14.0983L7.78368 14.047L7.7756 13.9957C7.76466 13.9243 7.75539 13.8533 7.7485 13.7831L7.74826 13.781L7.74327 13.7299L7.73876 13.6755L7.73495 13.6214L7.7321 13.5698L7.73186 13.5679V13.5672L7.72925 13.5126L7.72758 13.4596V13.4585L7.72663 13.4031L7.72616 13.3487L7.72663 13.296L7.72758 13.2435L7.72877 13.208L7.72925 13.1979L7.73139 13.1383L7.73353 13.1019L7.73424 13.0938L7.73472 13.0877L7.73804 13.0345L7.74684 12.9309L7.75207 12.8822L7.75848 12.8266L7.76443 12.781L7.77227 12.7247L7.77964 12.6777L7.78891 12.6219L7.79699 12.5776L7.80769 12.5211L7.81672 12.4757C7.82195 12.4502 7.82551 12.4344 7.82908 12.419L7.83835 12.3786L7.85261 12.3206L7.86354 12.2776L7.87638 12.2303L7.88042 12.2152L7.88945 12.1825L7.89848 12.1518L7.90823 12.1203L7.92178 12.0759L7.9358 12.0317L7.95006 11.9886L7.95601 11.9718C7.96456 11.9473 7.97312 11.9229 7.98334 11.8948L7.99689 11.8591L7.99713 11.8581L7.9995 11.8517C8.00473 11.8382 8.0102 11.8233 8.01923 11.8004L8.03753 11.7552L8.05512 11.7122L8.08103 11.6526L8.09624 11.6181L8.1174 11.5718L8.13689 11.5299L8.15995 11.4826L8.18205 11.4389L8.20534 11.3935L8.22626 11.3537L8.23957 11.3294L8.25241 11.3055L8.27427 11.267L8.27618 11.2634C8.28331 11.2509 8.2902 11.2384 8.30161 11.2194L8.32324 11.1828L8.32348 11.1821L8.32752 11.1752L8.35152 11.136L8.37387 11.1003L8.40619 11.0492L8.41427 11.0374L8.44137 10.9962L8.46918 10.9555C8.51648 10.8863 8.56592 10.8189 8.61679 10.7536L8.65125 10.7094L8.67431 10.6815L8.69023 10.6616L8.71163 10.6356L8.73373 10.6096L8.75417 10.5857L8.77319 10.5637L8.79292 10.5417L8.81978 10.5117L8.84046 10.489L8.86113 10.4666L8.88419 10.442L8.90772 10.4171L8.93149 10.3925L8.94789 10.376L8.97523 10.3483L9.0028 10.3211L9.01326 10.311L9.04154 10.2838L9.0703 10.2568L9.08528 10.2429L9.11427 10.2159L9.14422 10.1889L9.14922 10.1847L9.18202 10.1554L9.21601 10.1263L9.21957 10.1232L9.22029 10.1227C9.24168 10.1043 9.26236 10.087 9.28042 10.0724C9.29825 10.0577 9.31869 10.0414 9.34151 10.0232C9.44728 9.93972 9.55638 9.86122 9.66952 9.78839L9.67404 9.78508L9.71183 9.7612L9.74939 9.73755L9.75462 9.73448L9.79169 9.71201L9.8283 9.69002L9.83947 9.68364L9.84969 9.67773L9.86015 9.67182C9.87845 9.66118 9.8958 9.65125 9.91125 9.64273L9.92338 9.63611L9.95856 9.61672L9.99445 9.59757L10.0108 9.58906L10.0479 9.5699L10.0845 9.55122L10.0905 9.54839L10.1321 9.52805L10.1732 9.50819L10.1746 9.50772C10.2107 9.49069 10.2473 9.4739 10.2842 9.45806C10.3194 9.44269 10.3567 9.42708 10.3959 9.41148C10.5882 9.33416 10.7871 9.27007 10.9916 9.22136L10.9951 9.22042L11.0403 9.20978L11.085 9.19985L11.0926 9.19819L11.1385 9.18873L11.1853 9.17975L11.1879 9.17927L11.2328 9.17076L11.2787 9.16296L11.2906 9.16083L11.3348 9.15374L11.3797 9.14735L11.3854 9.14617L11.4318 9.14002L11.4772 9.13411L11.481 9.13364L11.523 9.1282L11.5228 9.08611V4.53335C11.5228 4.45484 11.539 4.39218 11.5653 4.34513C11.5882 4.30469 11.6188 4.27466 11.6547 4.25527C11.6911 4.23565 11.7329 4.22572 11.7769 4.22572C11.8344 4.22572 11.8955 4.24251 11.953 4.27419L18.9447 8.29469V5.42219C18.9447 4.76815 18.6005 4.19356 18.0824 3.86819L12.3987 0.604127C12.2492 0.519002 12.1251 0.474548 12.0003 0.472656C11.9975 0.472656 11.9946 0.472656 11.9918 0.472656C11.8696 0.472656 11.7496 0.513563 11.6079 0.596087ZM12.4776 9.1133L12.5209 9.11803L12.524 9.1185L12.5729 9.12489L12.6214 9.13151L12.6283 9.13293L12.6775 9.14026L12.7267 9.1483L12.7284 9.14877L12.779 9.15776L12.8294 9.16745L12.8308 9.16769L12.8807 9.17809L12.9318 9.18897L12.934 9.18968L12.9482 9.19299L12.962 9.19606C12.986 9.2015 13.01 9.20765 13.034 9.21356H13.0348L13.0854 9.22657L13.1362 9.24028L13.1379 9.24075L13.1384 9.24123L13.1671 9.24903L13.1952 9.25707C13.243 9.27126 13.291 9.28615 13.3385 9.30176L13.34 9.30223L13.3896 9.31902L13.4379 9.33605L13.4391 9.33652L13.441 9.33747L13.4419 9.3377L13.4911 9.35567L13.5399 9.37412L13.5403 9.37435C13.6081 9.4006 13.6739 9.42826 13.7383 9.45688L13.7405 9.45759L13.7875 9.47934L13.837 9.50251L13.8859 9.52639L13.9323 9.54957L13.9342 9.55028L13.9349 9.55075L13.9836 9.57582L14.0304 9.60112L14.0314 9.60159L14.0804 9.62831L14.1279 9.65503L14.1733 9.68175L14.2187 9.70894L14.2577 9.73306L14.3083 9.76522L14.3392 9.78508L14.3456 9.78934L14.3504 9.79288L14.3568 9.7969L14.3953 9.82244L14.4348 9.8494L14.4811 9.88179L14.521 9.91064L14.5662 9.94422L14.6028 9.97188L14.648 10.0071L14.6853 10.0369L14.7293 10.0726L14.7637 10.1017L14.8075 10.1391L14.8424 10.1698C14.8619 10.1871 14.874 10.1979 14.8857 10.2088L14.9163 10.2367L14.9596 10.2783L14.9917 10.3091L15.0261 10.3436L15.0615 10.3788L15.0839 10.402L15.106 10.4261L15.1383 10.4599L15.1695 10.4942L15.1999 10.528L15.2115 10.5417C15.2286 10.5614 15.2458 10.5808 15.265 10.6037L15.2893 10.6333L15.29 10.6337L15.2942 10.6392C15.3038 10.6505 15.3135 10.6626 15.3292 10.6817L15.3594 10.72L15.3879 10.7569L15.4212 10.8014L15.4269 10.8089L15.4495 10.8392L15.4792 10.8806L15.5058 10.9184L15.5353 10.9617L15.5626 11.0028L15.5904 11.0454L15.6144 11.0835L15.6294 11.1071L15.6434 11.1301L15.666 11.1681L15.6681 11.1717C15.6755 11.184 15.6829 11.1963 15.6938 11.2154L15.715 11.2525L15.7152 11.253L15.7192 11.2599L15.7416 11.3001L15.7613 11.3374L15.7756 11.3639L15.7898 11.3909L15.7958 11.4032L15.796 11.4036L15.7965 11.4039L15.8181 11.4474L15.8398 11.4918C15.8764 11.5675 15.9103 11.6436 15.9417 11.72L15.9498 11.7394L15.9629 11.772L15.9759 11.8054L15.9969 11.8607L16.0085 11.8929L16.019 11.9222L16.0287 11.9496L16.0382 11.9778L16.0508 12.0158L16.0603 12.0451L16.0696 12.0742L16.0891 12.1385L16.0986 12.1716L16.105 12.1939L16.1252 12.2686L16.1288 12.2828L16.1385 12.3211L16.1473 12.3589L16.1521 12.3786L16.1611 12.4173L16.1694 12.4568L16.1706 12.4632L16.1796 12.5062L16.1882 12.5497L16.1892 12.5545V12.5554C16.1944 12.5831 16.1991 12.6096 16.2029 12.6323C16.2067 12.655 16.211 12.6807 16.2151 12.7096C16.2348 12.8422 16.2486 12.9758 16.2559 13.1094L16.2562 13.1151L16.2583 13.1598L16.2598 13.2038L16.26 13.2099L16.2609 13.2532L16.2617 13.2955V13.332C16.2619 13.3532 16.2617 13.3731 16.2614 13.3906L16.2605 13.4443L16.259 13.4849L16.2586 13.5031L16.2543 13.5857L16.254 13.5921L16.251 13.6384L16.2476 13.6833V13.685C16.2441 13.7247 16.2403 13.7644 16.2357 13.8044C16.2315 13.8425 16.2262 13.8822 16.2205 13.9238C16.1915 14.1281 16.1478 14.3315 16.0884 14.532L16.0872 14.5355L16.0736 14.5795L16.0601 14.6232L16.0577 14.6306L16.043 14.6748L16.0275 14.7197L16.0268 14.7221L16.0116 14.7649L15.9952 14.8086L15.9912 14.8197L15.9752 14.8616L15.9586 14.9034L15.9567 14.9091L15.9389 14.9517L15.9213 14.9942L15.9199 14.9976L15.9035 15.0366L15.9403 15.0576L19.9038 17.3338C19.9723 17.373 20.0184 17.4179 20.0464 17.4648C20.0702 17.5043 20.0806 17.5459 20.0797 17.5865C20.079 17.6274 20.0661 17.6684 20.0443 17.7064C20.0153 17.7561 19.9706 17.8003 19.9143 17.8341L12.991 21.8054L12.918 21.847L12.991 21.8891L15.4188 23.2833C15.9885 23.6108 16.6605 23.6013 17.2029 23.3176L22.8861 20.053C23.0351 19.9667 23.1359 19.8821 23.1999 19.7754C23.264 19.6686 23.2899 19.5428 23.2885 19.3756V12.8905C23.2828 12.2615 22.9524 11.6514 22.3653 11.3143L12.4776 5.63524V9.1133ZM1.63294 11.3152C1.06343 11.6425 0.73542 12.2263 0.710938 12.8352L0.711651 19.3638C0.712364 19.5352 0.735657 19.6645 0.796269 19.7728C0.857118 19.8816 0.953858 19.9665 1.10004 20.0492L6.71454 23.2738L6.74544 23.2918C7.29594 23.6013 7.99237 23.6217 8.57947 23.2845L18.3945 17.6473L18.467 17.6052L15.477 15.8881L15.4392 15.8665L15.4136 15.9013L15.4133 15.9018L15.4117 15.9037L15.3815 15.9429L15.3515 15.981L15.347 15.9864L15.3159 16.0252L15.2843 16.0633L15.2831 16.0647L15.2828 16.0652L15.25 16.1037L15.2163 16.1423L15.2153 16.1434L15.1816 16.1815L15.1462 16.22L15.1452 16.2205L15.1445 16.2215L15.1348 16.2321L15.125 16.2425C15.1084 16.2602 15.0913 16.2777 15.0739 16.2957L15.0732 16.2962L15.0371 16.3331L14.9993 16.3702L14.9981 16.3714L14.9976 16.3716L14.9765 16.3924L14.9553 16.4128C14.9192 16.447 14.8823 16.4806 14.8445 16.514L14.8441 16.5144L14.8041 16.5492L14.7651 16.5823L14.7642 16.583L14.7625 16.5842L14.7618 16.5849L14.7214 16.6185L14.681 16.6513C14.6244 16.6965 14.5669 16.7395 14.5096 16.7807L14.5082 16.7819L14.4657 16.8119L14.4207 16.8429L14.3753 16.8734L14.3321 16.9015L14.3306 16.9027L14.3299 16.9029L14.2836 16.9325L14.2382 16.9604L14.2372 16.9609L14.1897 16.9897L14.1426 17.0171L14.0965 17.0434L14.0502 17.0687L14.0188 17.0852L14.01 17.09L13.9565 17.1179L13.9237 17.1342L13.9166 17.1375L13.9114 17.1401L13.9045 17.1437L13.8631 17.164L13.7685 17.2082L13.7236 17.2283L13.6295 17.268L13.576 17.2893L13.5315 17.3066L13.4783 17.3267L13.436 17.3418L13.3813 17.3607L13.3373 17.3756C13.3124 17.3839 13.2969 17.3884 13.2815 17.3934L13.242 17.4056L13.1843 17.4224L13.1415 17.4343L13.0939 17.447L13.0787 17.451L13.0457 17.4596L13.0143 17.4671L12.9822 17.4745L12.9366 17.4853L12.891 17.495L12.8465 17.5042L12.8289 17.5076C12.8035 17.5128 12.7778 17.5175 12.7481 17.5225L12.7103 17.5286L12.7096 17.5288L12.7027 17.53C12.6882 17.5324 12.6728 17.5352 12.6483 17.5388L12.5995 17.5459L12.5532 17.552L12.498 17.5586L12.4885 17.5596L12.4507 17.5636L12.3999 17.5688L12.3538 17.5728L12.3012 17.5764L12.2518 17.5794L12.2009 17.582L12.1555 17.5839L12.1006 17.5854L12.0562 17.5861L12.0521 17.5858C12.0374 17.5861 12.0231 17.5863 12.0013 17.5863L11.9585 17.5858H11.9497L11.9036 17.5849L11.8615 17.5835L11.8004 17.5811L11.7871 17.5799H11.7864L11.7859 17.5802L11.737 17.5773L11.6875 17.5735C11.6036 17.5674 11.5202 17.5586 11.4379 17.5475L11.4173 17.5447L11.3823 17.5397L11.3467 17.534L11.3212 17.5303L11.288 17.5246L11.2542 17.5187L11.2233 17.513L11.1948 17.5073L11.1656 17.5016L11.1261 17.4936L11.0657 17.4804L11.0327 17.473L10.9999 17.465L10.9664 17.4567L10.9438 17.451L10.906 17.4411L10.8687 17.4309L10.8544 17.4272L10.8164 17.4163L10.7788 17.4054L10.7593 17.3993L10.7211 17.3877L10.6828 17.3754L10.6766 17.3735L10.6345 17.3593L10.5925 17.3449L10.5877 17.3435L10.587 17.3432C10.5602 17.3338 10.535 17.3245 10.5133 17.3163C10.4915 17.3085 10.4672 17.299 10.4399 17.2881C10.3144 17.2392 10.1915 17.1841 10.0715 17.1233L10.0662 17.1207L10.0268 17.1004L9.98732 17.0798L9.98185 17.0767L9.94382 17.0562L9.9065 17.0354L9.89533 17.0287L9.88487 17.0231L9.87489 17.0171C9.85611 17.0067 9.83876 16.9966 9.82378 16.9878L9.8119 16.9807L9.77743 16.9599L9.74297 16.9386L9.6921 16.9065L9.6574 16.884L9.65217 16.8805L9.61343 16.8547L9.57563 16.8292L9.57445 16.8285C9.54141 16.8058 9.50884 16.7823 9.47652 16.7587C9.44562 16.736 9.41329 16.7116 9.38001 16.6859C9.21648 16.5589 9.06151 16.4194 8.91675 16.2678L8.91438 16.265L8.88253 16.2314L8.85139 16.1978L8.84592 16.1921L8.81502 16.1571L8.78388 16.1217L8.78198 16.1196L8.75203 16.085L8.72232 16.0496L8.71472 16.0401L8.68643 16.0056L8.65815 15.9701L8.65458 15.9659L8.62582 15.929L8.59801 15.8926L8.59587 15.89L8.56996 15.8564L4.56986 18.154C4.50164 18.1931 4.43936 18.2105 4.38493 18.2115C4.33858 18.212 4.29699 18.2004 4.26181 18.1791C4.22687 18.1581 4.19763 18.1268 4.17529 18.0888C4.14653 18.0394 4.13036 17.9783 4.12918 17.9128L4.13345 9.87895L1.63294 11.3152Z" fill="#BA0B22"/>
<path fill-rule="evenodd" clip-rule="evenodd" d="M8.6377 13.304C8.6377 15.1608 10.1434 16.6667 12 16.6667C13.8572 16.6667 15.3629 15.1608 15.3629 13.304C15.3629 11.4473 13.8572 9.94141 12 9.94141C10.1434 9.94141 8.6377 11.4473 8.6377 13.304Z" fill="#FFC730"/>
</svg>
