<svg viewBox="0 0 24 24" fill="none" xmlns="http://www.w3.org/2000/svg">
<path fill-rule="evenodd" clip-rule="evenodd" d="M5.91892 18.5123C5.95135 18.4637 5.98378 18.3988 6.01622 18.334C6.03243 18.2691 6.04865 18.2204 6.06487 18.188C6.06487 18.1556 6.06487 18.1556 6.04865 18.1556C6.04865 18.1556 6.03243 18.1718 6 18.2204C5.98378 18.2529 5.95135 18.2853 5.9027 18.3177C5.87027 18.3502 5.80541 18.3826 5.70811 18.415C5.62703 18.4475 5.51351 18.4799 5.41622 18.5123C5.3027 18.5448 5.18919 18.561 5.07568 18.561C4.96216 18.5772 4.84865 18.5772 4.75135 18.5772C4.47568 18.5772 4.28108 18.5448 4.15135 18.4799C4.08649 18.4475 4.05405 18.415 4.05405 18.3664C4.05405 18.3177 4.05405 18.2853 4.03784 18.2691C4.03784 18.2529 4.02162 18.2367 4.02162 18.2367C4.00541 18.2367 4.00541 18.2529 3.98919 18.2529C3.98919 18.2691 3.97297 18.3015 3.97297 18.3502C3.95676 18.3988 3.95676 18.4475 3.94054 18.5123C3.94054 18.561 3.92432 18.6096 3.92432 18.6258C3.92432 18.6907 3.94054 18.7556 3.98919 18.788C4.03784 18.8367 4.11892 18.8691 4.24865 18.9015C4.32973 18.9177 4.42703 18.9177 4.55676 18.9177C4.67027 18.9177 4.8 18.9177 4.92973 18.9015C5.05946 18.8853 5.18919 18.8691 5.31892 18.8204C5.4 18.8042 5.48108 18.7718 5.54595 18.7394C5.62703 18.7069 5.70811 18.6583 5.77297 18.6258C5.85405 18.5934 5.88649 18.561 5.91892 18.5123ZM6.56757 18.0096C6.55135 18.0096 6.53513 18.0258 6.53513 18.0421C6.51892 18.0745 6.5027 18.1231 6.47027 18.188C6.43784 18.2529 6.40541 18.334 6.37297 18.3988C6.34054 18.4637 6.30811 18.5123 6.27568 18.561C6.24324 18.5934 6.19459 18.6421 6.12973 18.6907C6.06487 18.7394 6 18.7718 5.95135 18.8042C5.9027 18.8367 5.87027 18.8529 5.85405 18.8853C5.83784 18.9015 5.83784 18.9015 5.83784 18.9177L5.85405 18.934C5.87027 18.934 5.88649 18.934 5.93513 18.9177C5.98378 18.9015 6.03243 18.9015 6.11351 18.8691C6.17838 18.8529 6.24324 18.8204 6.27568 18.8042C6.30811 18.7718 6.34054 18.7394 6.35676 18.6907C6.38919 18.6421 6.42162 18.5772 6.45405 18.4799C6.48649 18.3826 6.51892 18.3015 6.53513 18.2204C6.55135 18.1394 6.56757 18.0907 6.56757 18.0583C6.6 18.0258 6.58378 18.0258 6.56757 18.0096ZM7.2973 18.0258C7.26486 18.0096 7.21622 17.9934 7.15135 17.9934C7.13514 17.9934 7.11892 17.9934 7.1027 17.9934C7.81622 17.3285 8.18919 16.9556 8.20541 16.9069C8.28649 16.7285 8.3027 16.6637 8.25405 16.6799C8.20541 16.761 7.97838 16.988 7.57297 17.3772C7.18378 17.7502 6.97297 17.961 6.90811 18.0258C6.90811 17.961 6.92432 17.8799 6.94054 17.7826C6.97297 17.588 6.97297 17.4583 6.98919 17.3934C6.98919 17.3772 6.98919 17.3772 6.97297 17.3772C6.97297 17.3772 6.95676 17.3772 6.95676 17.3934C6.90811 17.5394 6.85946 17.6367 6.84324 17.6853C6.81081 17.8799 6.77838 18.0421 6.76216 18.2042C6.74595 18.3664 6.72973 18.4799 6.72973 18.5772C6.72973 18.6907 6.74595 18.788 6.79459 18.8529C6.82703 18.9177 6.89189 18.9502 6.95676 18.9502C7.00541 18.9502 7.05405 18.934 7.08649 18.9015C7.13514 18.8691 7.16757 18.8367 7.2 18.788C7.24865 18.7231 7.28108 18.6258 7.32973 18.5285C7.36216 18.4312 7.37838 18.334 7.37838 18.2367C7.39459 18.1231 7.36216 18.0583 7.2973 18.0258ZM7.2 18.5448C7.16757 18.5772 7.1027 18.5772 7.05405 18.5772C7.00541 18.5772 6.97297 18.561 6.94054 18.5448C6.90811 18.5123 6.89189 18.4799 6.89189 18.4475C6.89189 18.415 6.90811 18.3826 6.95676 18.3502C7.00541 18.3177 7.03784 18.3177 7.08649 18.3177C7.13514 18.3177 7.16757 18.3177 7.21622 18.3502C7.26486 18.3826 7.28108 18.415 7.28108 18.4475C7.26486 18.4799 7.24865 18.5123 7.2 18.5448ZM4.75135 18.0907C4.76757 18.1069 4.78378 18.1069 4.78378 18.1069C4.81622 18.1069 4.86487 18.0421 4.92973 17.9285C4.96216 17.9448 4.97838 17.9772 5.01081 18.0096C5.04324 18.0421 5.05946 18.0583 5.07568 18.0583C5.09189 18.0583 5.12432 18.0258 5.15676 17.9772C5.20541 17.9123 5.22162 17.8637 5.22162 17.8313C5.22162 17.7988 5.20541 17.7502 5.15676 17.7177C5.12432 17.6691 5.09189 17.6529 5.05946 17.6529C5.04324 17.6529 5.02703 17.6853 5.01081 17.7177C4.97838 17.7664 4.96216 17.7988 4.92973 17.8475C4.91351 17.815 4.88108 17.7826 4.84865 17.7502C4.81622 17.7177 4.78378 17.7015 4.76757 17.7015C4.75135 17.7015 4.73514 17.7502 4.68649 17.8313C4.63784 17.9123 4.62162 17.961 4.62162 17.9772C4.62162 17.9772 4.63784 17.9934 4.67027 18.0258C4.7027 18.0421 4.73514 18.0745 4.75135 18.0907ZM8.31892 17.9123C8.35135 17.9448 8.38378 17.961 8.4 17.9772C8.41622 17.9934 8.43243 17.9934 8.43243 17.9934C8.46486 17.9934 8.51351 17.9285 8.57838 17.815C8.61081 17.8313 8.62703 17.8637 8.65946 17.8961C8.69189 17.9285 8.70811 17.9448 8.72432 17.9448C8.74054 17.9448 8.77297 17.9123 8.80541 17.8637C8.85405 17.7988 8.87027 17.7502 8.87027 17.7177C8.87027 17.6853 8.85405 17.6367 8.80541 17.6042C8.77297 17.5718 8.74054 17.5394 8.70811 17.5394C8.69189 17.5394 8.67568 17.5556 8.65946 17.6042C8.62703 17.6529 8.61081 17.6853 8.57838 17.734C8.56216 17.7015 8.52973 17.6691 8.4973 17.6367C8.46486 17.6042 8.43243 17.588 8.41622 17.588C8.4 17.588 8.38378 17.6367 8.33514 17.7177C8.28649 17.7988 8.27027 17.8475 8.27027 17.8637C8.27027 17.8637 8.28649 17.8799 8.31892 17.9123ZM11.0757 17.3772C11.0595 17.4096 11.0432 17.4258 11.027 17.4583C11.0108 17.4907 10.9946 17.5231 10.9784 17.5556C10.9622 17.588 10.9459 17.6204 10.9459 17.6691C10.9297 17.7015 10.9297 17.734 10.9297 17.7826C10.9297 17.8475 10.9135 17.9285 10.9297 18.0421C10.9297 18.1556 10.9297 18.2367 10.9297 18.3015C10.9297 18.3664 10.9135 18.4312 10.8973 18.4961C10.8811 18.561 10.8811 18.5934 10.8811 18.5934C10.8811 18.6096 10.8811 18.6096 10.8811 18.6096C10.8811 18.6096 10.8973 18.6096 10.9135 18.5934C10.9297 18.5772 10.9297 18.561 10.9459 18.5448C10.9622 18.5123 10.9784 18.4637 11.0108 18.3988C11.0432 18.3177 11.0595 18.2367 11.0595 18.1394C11.0595 18.0907 11.0757 18.0421 11.0757 17.9772C11.0757 17.9123 11.0757 17.8475 11.0757 17.7664C11.0757 17.7502 11.0757 17.734 11.0757 17.7177C11.0757 17.7015 11.0757 17.6691 11.0757 17.6367C11.0757 17.6042 11.0757 17.588 11.0757 17.5556C11.0757 17.5231 11.0757 17.5069 11.0757 17.4745C11.0757 17.4421 11.0757 17.4258 11.0757 17.4096C11.0757 17.3934 11.0757 17.3772 11.0757 17.3772C11.0757 17.361 11.0757 17.361 11.0595 17.361C11.0919 17.3448 11.0757 17.361 11.0757 17.3772ZM12.2595 19.4529C12.2432 19.4529 12.227 19.4853 12.1784 19.5664C12.1297 19.6475 12.1135 19.6961 12.1135 19.6961C12.1135 19.7123 12.1135 19.7123 12.1297 19.7285C12.1459 19.7448 12.1622 19.761 12.1784 19.7772C12.1946 19.7934 12.2108 19.8096 12.227 19.8258C12.2432 19.8421 12.2432 19.8421 12.2595 19.8583C12.2757 19.8583 12.2919 19.8258 12.3405 19.7772C12.373 19.7123 12.3892 19.6799 12.3892 19.6312C12.3892 19.5988 12.373 19.5664 12.3405 19.5177C12.3081 19.4853 12.2919 19.4529 12.2595 19.4529ZM12.6973 17.8799C12.6811 17.9285 12.6486 17.961 12.6324 17.961C12.6162 17.9772 12.5838 17.9934 12.5514 18.0096C12.5027 18.0258 12.4703 18.0583 12.4541 18.0583C12.4054 18.0907 12.373 18.1231 12.3405 18.1556C12.3243 18.188 12.2757 18.2529 12.2432 18.3502C12.1946 18.4475 12.1784 18.5123 12.1622 18.5123C12.1297 18.5448 12.0973 18.5934 12.0324 18.6421C12.0324 18.6421 12.0162 18.6583 11.9514 18.6907C11.8703 18.7394 11.8216 18.7718 11.7892 18.788C11.7568 18.8042 11.7405 18.8204 11.7405 18.8367C11.7081 18.8529 11.7081 18.8691 11.7081 18.8853C11.7081 18.9015 11.7405 18.9015 11.7568 18.9015C11.7892 18.9015 11.8378 18.9015 11.9027 18.8853C11.9514 18.8691 12 18.8691 12.0324 18.8529C12.0973 18.8204 12.1622 18.7718 12.1946 18.6907C12.2108 18.6421 12.2432 18.561 12.2757 18.4799C12.2919 18.4312 12.3243 18.3826 12.3405 18.3664C12.3405 18.3502 12.3568 18.3502 12.3892 18.334C12.4054 18.3177 12.4703 18.2853 12.5676 18.2367C12.6324 18.2042 12.6973 18.0907 12.7622 17.8799C12.7784 17.8475 12.7622 17.815 12.7622 17.815C12.7297 17.815 12.7135 17.8313 12.6973 17.8799ZM12.3892 19.0475C12.373 19.0475 12.3568 19.0799 12.3243 19.1285C12.3081 19.161 12.2757 19.2096 12.2595 19.2421C12.2432 19.2096 12.227 19.1772 12.1784 19.1448C12.1459 19.1123 12.1135 19.0961 12.0973 19.0961C12.0811 19.0961 12.0649 19.1448 12.0162 19.2258C11.9676 19.3069 11.9514 19.3718 11.9514 19.3718C11.9514 19.3718 11.9838 19.4042 12.0324 19.4529C12.0811 19.5015 12.1135 19.5177 12.1135 19.5177C12.1459 19.5177 12.1946 19.4529 12.2432 19.3231C12.2595 19.3394 12.2919 19.3718 12.3405 19.4042C12.373 19.4367 12.3892 19.4529 12.4054 19.4529C12.4216 19.4529 12.4541 19.4204 12.4865 19.3718C12.5189 19.3069 12.5514 19.2583 12.5514 19.2096C12.5514 19.1772 12.5351 19.1285 12.4865 19.0961C12.4378 19.0637 12.4054 19.0475 12.3892 19.0475ZM14.2703 18.9826C14.2541 18.9826 14.2378 18.9988 14.2216 19.0475C14.1892 19.0961 14.173 19.1285 14.1405 19.1772C14.1243 19.1448 14.0919 19.1123 14.0595 19.0799C14.027 19.0475 13.9946 19.0312 13.9784 19.0312C13.9622 19.0312 13.9459 19.0799 13.8973 19.161C13.8486 19.2421 13.8324 19.2907 13.8324 19.3069C13.8324 19.3069 13.8486 19.3231 13.8811 19.3556C13.9135 19.388 13.9459 19.4042 13.9622 19.4204C13.9784 19.4367 13.9946 19.4367 13.9946 19.4367C14.027 19.4367 14.0757 19.3718 14.1405 19.2583C14.173 19.2745 14.1892 19.3069 14.2216 19.3394C14.2541 19.3718 14.2703 19.388 14.2865 19.388C14.3027 19.388 14.3351 19.3556 14.3676 19.3069C14.4162 19.2421 14.4324 19.1934 14.4324 19.161C14.4324 19.1285 14.4162 19.0799 14.3676 19.0475C14.3189 19.015 14.2865 18.9826 14.2703 18.9826ZM11.7568 18.2853C11.7568 18.1394 11.6919 18.0258 11.5459 17.9285C11.5135 17.9123 11.4973 17.9123 11.4973 17.9448C11.4486 18.0583 11.4 18.1556 11.3676 18.2204C11.3514 18.2529 11.3676 18.2691 11.3838 18.2853C11.5135 18.3826 11.5784 18.4637 11.5784 18.5285C11.5784 18.5448 11.5459 18.5934 11.4811 18.6583C11.4162 18.7231 11.3351 18.788 11.2541 18.8529C11.2054 18.8853 11.1892 18.9015 11.1892 18.9177C11.1892 18.9177 11.1892 18.934 11.2054 18.934C11.2216 18.934 11.2216 18.934 11.2541 18.934C11.3838 18.9015 11.4973 18.8367 11.5622 18.7718C11.6108 18.7231 11.6432 18.6745 11.6919 18.5934C11.7243 18.4799 11.7568 18.3988 11.7568 18.2853ZM10.427 17.1502C10.4432 17.1502 10.4757 17.1177 10.5081 17.0529C10.5405 16.988 10.5568 16.9394 10.5568 16.9069C10.5568 16.8745 10.5243 16.8421 10.4919 16.7934C10.4432 16.7448 10.4108 16.7285 10.3946 16.7448C10.3784 16.7448 10.3622 16.7934 10.3135 16.8745C10.2649 16.9556 10.2486 17.0042 10.2486 17.0367C10.2486 17.0529 10.2486 17.0691 10.2649 17.0691C10.2811 17.0853 10.3135 17.1015 10.3459 17.134C10.3946 17.134 10.4108 17.1502 10.427 17.1502ZM3.98919 15.788C3.98919 15.788 4.02162 15.7556 4.05405 15.6907C4.11892 15.6907 4.18378 15.6421 4.24865 15.5448C4.31351 15.4475 4.34595 15.3502 4.34595 15.2367C4.34595 15.2042 4.34595 15.188 4.32973 15.188C4.31351 15.188 4.31351 15.2042 4.2973 15.2529C4.28108 15.3015 4.26486 15.334 4.24865 15.3502C4.23243 15.3826 4.2 15.3988 4.18378 15.3988C4.16757 15.3988 4.15135 15.3988 4.1027 15.3826C4.08649 15.3826 4.08649 15.3826 4.07027 15.3826C4.05405 15.3826 4.03784 15.415 4.02162 15.4799C3.98919 15.5448 3.97297 15.5772 3.94054 15.5772C3.90811 15.5772 3.89189 15.5772 3.87568 15.5772C3.85946 15.5772 3.82703 15.5772 3.81081 15.5772C3.77838 15.5934 3.72973 15.6258 3.66487 15.7069C3.61622 15.7556 3.53514 15.788 3.43784 15.788C3.37297 15.788 3.30811 15.7718 3.27568 15.7394C3.22703 15.7069 3.19459 15.6745 3.17838 15.6258C3.16216 15.561 3.14595 15.5123 3.14595 15.4799C3.14595 15.4475 3.14595 15.415 3.14595 15.3502C3.14595 15.334 3.14595 15.2853 3.16216 15.188C3.17838 15.0907 3.19459 14.9123 3.22703 14.6367C3.25946 14.361 3.27568 14.1826 3.29189 14.0853C3.29189 14.0691 3.29189 14.0691 3.27568 14.0691C3.27568 14.0691 3.25946 14.0691 3.24324 14.0853C3.16216 14.2799 3.11351 14.4096 3.0973 14.4907C3.04865 14.7502 3.01622 14.9934 2.98378 15.2042C2.95135 15.4313 2.95135 15.5934 2.95135 15.7069C2.95135 15.8529 2.98378 15.9664 3.01622 16.0637C3.06486 16.161 3.14595 16.2096 3.25946 16.2096C3.35676 16.2096 3.45405 16.1448 3.53514 16.0312C3.61622 15.9177 3.68108 15.8529 3.71351 15.8367C3.74595 15.8204 3.76216 15.8204 3.79459 15.8204C3.81081 15.8204 3.84324 15.8204 3.87568 15.8367C3.92432 15.8691 3.95676 15.8367 3.98919 15.788ZM10.6703 17.6853C10.6378 17.7015 10.6216 17.7015 10.5892 17.7015C10.573 17.7015 10.5243 17.6853 10.4595 17.6529C10.3946 17.6204 10.3297 17.6204 10.2973 17.6204C10.2486 17.6204 10.2 17.6367 10.1676 17.6529C10.1351 17.6691 10.1027 17.7015 10.0865 17.7502C10.0703 17.7664 10.0541 17.7988 10.0541 17.8313C10.0378 17.8637 10.0378 17.8799 10.0541 17.8799C10.0541 17.8799 10.0703 17.8799 10.0865 17.8637C10.1027 17.8313 10.1189 17.7988 10.1514 17.7826C10.1676 17.7664 10.2 17.7502 10.2324 17.7502C10.2486 17.7502 10.2811 17.7502 10.2973 17.7664C10.3135 17.7664 10.3135 17.7664 10.3297 17.7826C10.3459 17.7826 10.3459 17.7826 10.3622 17.7988C10.3946 17.815 10.4108 17.815 10.427 17.8313C10.4432 17.8313 10.4595 17.8475 10.4757 17.8637C10.4595 17.8799 10.4432 17.9123 10.4108 17.9448C10.3946 17.961 10.3459 18.0096 10.2486 18.0907C10.1514 18.1718 10.0541 18.2367 9.97297 18.2691C9.87568 18.3015 9.82703 18.3177 9.79459 18.3177C9.77838 18.3177 9.76216 18.3177 9.74595 18.3177C9.74595 18.2691 9.74595 18.2367 9.72973 18.2529C9.71351 18.2691 9.66487 18.3177 9.58378 18.3664C9.5027 18.415 9.42162 18.4475 9.32432 18.4799C9.22703 18.5123 9.14595 18.5285 9.04865 18.5448C8.95135 18.561 8.85405 18.5772 8.77297 18.5772C8.67568 18.5772 8.59459 18.5934 8.51351 18.5934C8.41622 18.5934 8.3027 18.5934 8.17297 18.5772C8.04324 18.561 7.92973 18.5448 7.86486 18.5123C7.8 18.4799 7.76757 18.4313 7.75135 18.3502C7.75135 18.3015 7.73514 18.2691 7.71892 18.2691C7.7027 18.2691 7.68649 18.3177 7.68649 18.3988C7.67027 18.4799 7.67027 18.561 7.67027 18.6258C7.67027 18.7394 7.7027 18.8204 7.78378 18.8691C7.81622 18.9015 7.8973 18.9177 7.99459 18.9177C8.09189 18.934 8.17297 18.934 8.25405 18.934C8.36757 18.934 8.4973 18.934 8.64324 18.9177C8.77297 18.9015 8.9027 18.8853 9 18.8529C9.11351 18.8204 9.19459 18.788 9.29189 18.7556C9.37297 18.7231 9.47027 18.6745 9.55135 18.5934C9.61622 18.561 9.66486 18.4961 9.72973 18.415L9.84324 18.4475L9.97297 18.4799C10.0054 18.4799 10.0378 18.4799 10.0703 18.4475C10.0865 18.4313 10.1027 18.415 10.1351 18.3988C10.1514 18.3826 10.1676 18.3664 10.1838 18.3502L10.4432 18.1069C10.4919 18.0583 10.5243 18.0421 10.5405 18.0096C10.573 17.9772 10.6054 17.9448 10.6541 17.9123L10.7514 17.8475C10.7838 17.8313 10.8 17.7988 10.8 17.7826C10.8 17.7664 10.8162 17.7502 10.8162 17.734C10.8162 17.7177 10.8162 17.7015 10.8324 17.6853C10.8486 17.6529 10.8324 17.6529 10.8324 17.6529C10.7189 17.6529 10.6865 17.6691 10.6703 17.6853ZM14.6108 17.8475C14.6595 17.8475 14.6919 17.8313 14.7243 17.7988C14.7568 17.7502 14.773 17.7177 14.7892 17.6691C14.8054 17.6204 14.8216 17.588 14.8216 17.5718C14.8216 17.5556 14.8216 17.5394 14.8216 17.5231C14.8216 17.5069 14.8216 17.5069 14.8054 17.5069C14.8054 17.5069 14.7892 17.5231 14.7892 17.5394C14.7568 17.588 14.7243 17.6204 14.7243 17.6204C14.7081 17.6367 14.6595 17.6367 14.6108 17.6204C14.5946 17.6204 14.5622 17.6367 14.5297 17.6529C14.4973 17.6691 14.4649 17.7015 14.4324 17.7664C14.3838 17.8313 14.3189 17.8637 14.2378 17.8637C14.1892 17.8637 14.1405 17.8475 14.0919 17.815C14.0432 17.7664 14.0108 17.6853 14.0108 17.5718C14.0108 17.5231 14.027 17.4258 14.0432 17.2799C14.0432 17.2312 14.0595 17.1664 14.0757 17.0529C14.0757 17.0367 14.0919 17.0204 14.0757 17.0042H14.0595C14.027 17.0529 13.9946 17.1177 13.9784 17.1664C13.9622 17.1988 13.9622 17.2312 13.9459 17.2961C13.9297 17.3448 13.9297 17.3934 13.9135 17.4421C13.8973 17.5069 13.8973 17.5718 13.8811 17.6367L13.8649 17.815V17.8313C13.8649 17.8313 13.8649 17.8313 13.8649 17.8475V17.8961C13.8649 17.9285 13.8486 17.961 13.8162 18.0096C13.8 18.0421 13.7838 18.0745 13.7514 18.1231L13.7027 18.2042C13.6703 18.2529 13.6541 18.3015 13.6378 18.3502C13.6216 18.3988 13.6054 18.4475 13.6054 18.4799C13.6054 18.5285 13.6541 18.5772 13.7351 18.6258C13.8162 18.6583 13.8486 18.6907 13.8486 18.7069C13.8486 18.8042 13.8 18.9015 13.6865 18.9826C13.573 19.0799 13.4108 19.1285 13.2324 19.1285C13.1351 19.1285 13.0541 19.1123 12.9892 19.0637C12.9081 18.9988 12.8595 18.9015 12.8595 18.7718C12.8595 18.6907 12.8919 18.5934 12.9405 18.4637C12.973 18.3826 13.0216 18.2691 13.1027 18.0745C13.1189 18.0583 13.1189 18.0258 13.1189 18.0096C13.1189 17.9934 13.1189 17.9772 13.1027 17.9772C13.0865 17.9772 13.0865 17.9934 13.0703 18.0258C13.0541 18.0421 13.0541 18.0583 13.0378 18.0745C13.0216 18.0907 13.0216 18.1231 13.0054 18.1394C12.9892 18.1718 12.973 18.2204 12.9568 18.2367C12.9405 18.2691 12.9405 18.2853 12.9243 18.2853C12.9081 18.334 12.8757 18.3988 12.8432 18.4799C12.8108 18.5448 12.7784 18.6421 12.7622 18.7394C12.7297 18.8367 12.7297 18.9177 12.7297 18.9826C12.7297 19.1285 12.7622 19.2421 12.827 19.3394C12.9081 19.4529 13.0216 19.5015 13.1514 19.5015C13.2162 19.5015 13.2649 19.4853 13.3297 19.4691C13.3784 19.4529 13.427 19.4204 13.4757 19.388C13.6216 19.2907 13.7189 19.1448 13.8 18.9826C13.8486 18.8691 13.8811 18.7718 13.8973 18.7069C13.9135 18.6258 13.9297 18.561 13.9297 18.4799C13.9297 18.4312 13.9297 18.3826 13.9135 18.3664C13.8973 18.3502 13.8811 18.3177 13.8649 18.3015C13.8324 18.2853 13.8162 18.2691 13.7838 18.2529C13.7514 18.2367 13.7514 18.2204 13.7514 18.2042C13.7514 18.188 13.7838 18.1394 13.8162 18.0745C13.8324 18.0583 13.8486 18.0421 13.8486 18.0258C13.8649 18.0421 13.8649 18.0745 13.8811 18.0907C13.9297 18.1556 13.9946 18.2042 14.0757 18.2042C14.1568 18.2042 14.2378 18.1556 14.3027 18.0421C14.3676 17.9285 14.4162 17.8637 14.4811 17.8475C14.5459 17.8313 14.5784 17.8313 14.6108 17.8475ZM3.94054 11.5069C3.79459 11.6529 3.66487 11.7826 3.53514 11.8961C3.40541 12.0096 3.27568 12.1231 3.14595 12.2204C3.01622 12.334 2.9027 12.4312 2.78919 12.5123C2.69189 12.5934 2.54595 12.7069 2.38378 12.8367C2.22162 12.9664 2.09189 13.0799 2.02703 13.1448C1.97838 13.1934 1.94595 13.2421 1.91351 13.2907C1.88108 13.3718 1.84865 13.4367 1.83243 13.4853C1.83243 13.5015 1.86486 13.4853 1.8973 13.4529C1.91351 13.4367 1.94595 13.4204 1.96216 13.4042C1.97838 13.388 2.01081 13.3718 2.02703 13.3556L2.35135 13.0961C2.41622 13.0475 2.48108 12.9988 2.54595 12.9502C2.61081 12.9015 2.67568 12.8529 2.72432 12.8204C2.77297 12.7718 2.87027 12.7069 3 12.6096C3.12973 12.5123 3.24324 12.3988 3.37297 12.3015C3.48649 12.2042 3.6 12.1069 3.6973 11.9934C3.81081 11.8799 3.90811 11.7664 4.00541 11.6529C4.1027 11.5394 4.16757 11.4096 4.21622 11.2637C4.23243 11.2312 4.23243 11.1988 4.21622 11.215C4.18378 11.2637 4.08649 11.361 3.94054 11.5069ZM3.55135 18.2204C3.51892 18.1718 3.47027 18.1394 3.42162 18.0907L3.40541 18.1231C3.43784 18.1394 3.45405 18.1718 3.47027 18.2042C3.48649 18.2367 3.5027 18.2691 3.51892 18.3015C3.53514 18.334 3.55135 18.3826 3.55135 18.415C3.55135 18.4637 3.56757 18.4961 3.56757 18.5448C3.56757 18.6096 3.56757 18.6583 3.55135 18.7231C3.53514 18.7718 3.51892 18.8204 3.48649 18.8691C3.45405 18.9177 3.43784 18.9502 3.38919 18.9826L3.40541 18.9988C3.45405 18.9664 3.5027 18.9177 3.53514 18.8691C3.56757 18.8204 3.6 18.7718 3.61622 18.7069C3.63243 18.6583 3.63243 18.5934 3.63243 18.5285C3.63243 18.4637 3.61622 18.3988 3.61622 18.3502C3.61622 18.3177 3.58378 18.2691 3.55135 18.2204ZM2.9027 14.7015C2.88649 14.7015 2.87027 14.734 2.83784 14.7826C2.80541 14.8475 2.77297 14.8799 2.75676 14.9123C2.74054 14.9285 2.69189 14.961 2.62703 14.9772C2.56216 15.0096 2.51351 15.0421 2.48108 15.0583C2.41622 15.1069 2.36757 15.1556 2.33513 15.188C2.3027 15.2367 2.25405 15.3177 2.18919 15.4637C2.12432 15.6096 2.09189 15.6907 2.07568 15.6907C2.04324 15.7394 1.97838 15.788 1.88108 15.8529C1.88108 15.8529 1.84865 15.8691 1.76757 15.934C1.67027 15.9988 1.58919 16.0475 1.55676 16.0799C1.52432 16.1123 1.49189 16.1285 1.47568 16.1448C1.44324 16.1772 1.42703 16.1934 1.42703 16.2096C1.44324 16.2258 1.45946 16.2421 1.50811 16.2421C1.55676 16.2421 1.62162 16.2258 1.7027 16.2096C1.78378 16.1934 1.84865 16.1772 1.8973 16.161C1.99459 16.1123 2.07568 16.0312 2.12432 15.934C2.15676 15.8691 2.18919 15.7556 2.25405 15.6258C2.28649 15.561 2.31892 15.4961 2.35135 15.4637C2.36757 15.4475 2.38378 15.4312 2.41622 15.415C2.44865 15.3988 2.52973 15.3502 2.65946 15.2853C2.75676 15.2367 2.83784 15.0745 2.91892 14.7988C2.91892 14.734 2.91892 14.7015 2.9027 14.7015ZM2.46486 16.8258C2.44865 16.8258 2.41622 16.8745 2.35135 16.988C2.28649 17.1015 2.25405 17.1664 2.25405 17.1826C2.25405 17.1988 2.27027 17.215 2.28649 17.2312C2.3027 17.2475 2.33513 17.2637 2.35135 17.2961C2.36757 17.3123 2.4 17.3448 2.41622 17.361C2.43243 17.3772 2.44865 17.3934 2.46486 17.3934C2.48108 17.3934 2.51351 17.361 2.56216 17.2799C2.61081 17.1988 2.64324 17.134 2.64324 17.0853C2.64324 17.0367 2.62703 16.988 2.57838 16.9231C2.52973 16.8583 2.4973 16.8258 2.46486 16.8258ZM0.145946 15.3664C0.12973 15.3664 0.113514 15.3826 0.113514 15.415C0.0810811 15.5448 0.0486486 15.7231 0.0324324 15.9177C0.0324324 16.0312 0.0648649 16.1123 0.12973 16.161C0.210811 16.2258 0.340541 16.2583 0.535135 16.2583C0.745946 16.2583 0.924324 16.2096 1.07027 16.1285C1.16757 16.0799 1.23243 16.015 1.31351 15.9502C1.39459 15.8691 1.47568 15.7394 1.55676 15.5934C1.63784 15.4475 1.7027 15.2367 1.75135 14.9772C1.78378 14.7826 1.8 14.6042 1.8 14.4421C1.8 14.3772 1.8 14.2475 1.81622 14.0367C1.81622 13.9718 1.81622 13.8907 1.83243 13.8096C1.84865 13.7123 1.84865 13.6637 1.84865 13.6312C1.84865 13.5988 1.84865 13.5664 1.86486 13.5502C1.86486 13.5177 1.86486 13.5177 1.86486 13.5015C1.86486 13.5015 1.84865 13.5015 1.83243 13.5015C1.81622 13.534 1.78378 13.615 1.71892 13.7448C1.67027 13.8583 1.63784 13.9394 1.60541 13.988C1.60541 14.0042 1.58919 14.0691 1.58919 14.1664C1.58919 14.215 1.58919 14.3934 1.57297 14.6691C1.57297 14.9123 1.55676 15.0745 1.54054 15.188C1.52432 15.3015 1.49189 15.3664 1.45946 15.415C1.37838 15.5448 1.26486 15.6258 1.1027 15.6907C0.989189 15.7394 0.843243 15.7556 0.697297 15.7556C0.648649 15.7556 0.583784 15.7556 0.502703 15.7394C0.437838 15.7231 0.372973 15.7069 0.324324 15.6907C0.210811 15.6421 0.162162 15.561 0.162162 15.4475C0.162162 15.4312 0.162162 15.3988 0.162162 15.3826C0.178378 15.3826 0.162162 15.3664 0.145946 15.3664ZM0.794595 15.0745H0.745946C0.713513 15.0745 0.713513 15.0907 0.713513 15.1069C0.713513 15.1556 0.745946 15.1718 0.794595 15.1718C0.875676 15.1718 0.924324 15.1556 0.956757 15.1069C0.989189 15.0583 0.989189 15.0258 0.972973 14.9934C0.956757 14.961 0.956757 14.9285 0.956757 14.9123C0.972973 14.8799 1.00541 14.8637 1.05405 14.8637C1.1027 14.8637 1.13514 14.8475 1.13514 14.7988C1.13514 14.7664 1.11892 14.7502 1.08649 14.7502C1.03784 14.7502 0.989189 14.7664 0.956757 14.7988C0.924324 14.8313 0.908108 14.8799 0.924324 14.9285C0.94054 14.9772 0.940541 15.0096 0.908108 15.0258C0.875676 15.0583 0.843243 15.0745 0.794595 15.0745ZM3.63243 13.6313C3.56757 13.7448 3.53514 13.8258 3.53514 13.8421C3.53514 13.8583 3.56757 13.8907 3.63243 13.9394C3.6973 13.988 3.74595 14.0204 3.74595 14.0204C3.79459 14.0204 3.85946 13.9394 3.94054 13.761C3.97297 13.7772 4.02162 13.8258 4.07027 13.8745C4.1027 13.9069 4.13514 13.9231 4.15135 13.9231C4.16757 13.9231 4.21622 13.8745 4.26486 13.8096C4.31351 13.7285 4.34595 13.6637 4.34595 13.5988C4.34595 13.5502 4.31351 13.5015 4.26486 13.4367C4.21622 13.388 4.16757 13.3556 4.13514 13.3556C4.11892 13.3556 4.1027 13.388 4.05405 13.4691C4.02162 13.5177 3.98919 13.5664 3.95676 13.6313C3.94054 13.5988 3.90811 13.5502 3.85946 13.5015C3.81081 13.4529 3.77838 13.4367 3.74595 13.4367C3.72973 13.4529 3.6973 13.5177 3.63243 13.6313ZM2.77297 16.7123C2.82162 16.6312 2.85405 16.5502 2.85405 16.5015C2.85405 16.4529 2.82162 16.4042 2.77297 16.3394C2.72432 16.2907 2.67568 16.2583 2.64324 16.2583C2.62703 16.2583 2.61081 16.2907 2.56216 16.3718C2.52973 16.4204 2.4973 16.4853 2.46486 16.534C2.44865 16.5015 2.41622 16.4529 2.36757 16.4042C2.31892 16.3556 2.27027 16.3394 2.25405 16.3394C2.23784 16.3394 2.20541 16.4042 2.14054 16.534C2.07568 16.6637 2.04324 16.7285 2.04324 16.7448C2.04324 16.761 2.07568 16.7934 2.14054 16.8421C2.20541 16.9069 2.25405 16.9231 2.25405 16.9231C2.3027 16.9231 2.36757 16.8421 2.44865 16.6637C2.48108 16.6961 2.52973 16.7285 2.57838 16.7772C2.61081 16.8096 2.64324 16.8421 2.65946 16.8421C2.67568 16.8421 2.70811 16.7934 2.77297 16.7123ZM2.4973 18.1556C2.48108 18.1556 2.48108 18.1556 2.46486 18.1718C2.46486 18.1718 2.44865 18.188 2.44865 18.2204L2.41622 18.2853C2.41622 18.2853 2.41622 18.3015 2.43243 18.3015C2.44865 18.3015 2.44865 18.3177 2.44865 18.3177C2.44865 18.3177 2.44865 18.334 2.43243 18.334C2.43243 18.334 2.41622 18.3502 2.4 18.3664C2.38378 18.3826 2.36757 18.3988 2.35135 18.415C2.33513 18.4313 2.31892 18.4637 2.3027 18.4799C2.28649 18.4961 2.27027 18.5285 2.27027 18.561C2.25405 18.5934 2.25405 18.6096 2.25405 18.6258C2.25405 18.6421 2.25405 18.6583 2.27027 18.6745C2.27027 18.6907 2.28649 18.6907 2.3027 18.7069C2.33513 18.7231 2.35135 18.7394 2.36757 18.7394L2.38378 18.7556C2.38378 18.7718 2.36757 18.8042 2.35135 18.8367C2.33513 18.8691 2.3027 18.9015 2.27027 18.9177C2.23784 18.934 2.22162 18.9502 2.18919 18.9502C2.15676 18.9502 2.12432 18.9664 2.09189 18.9664C2.04324 18.9664 1.99459 18.9502 1.97838 18.9177C1.94595 18.8853 1.92973 18.8367 1.92973 18.788C1.92973 18.7556 1.92973 18.7231 1.94595 18.6907C1.94595 18.6745 1.96216 18.6258 1.99459 18.5448C2.01081 18.4961 2.02703 18.4637 2.02703 18.4475C2.02703 18.4313 2.02703 18.4313 2.02703 18.415C2.02703 18.415 2.01081 18.4313 1.99459 18.4637C1.97838 18.4799 1.97838 18.5123 1.96216 18.5285C1.92973 18.5934 1.91351 18.6583 1.88108 18.7069C1.86486 18.7718 1.84865 18.8367 1.84865 18.8853C1.84865 18.9664 1.86486 19.0312 1.8973 19.0637C1.92973 19.1123 1.97838 19.1285 2.02703 19.1285C2.14054 19.1285 2.23784 19.0799 2.3027 18.9664C2.33513 18.9177 2.35135 18.8691 2.38378 18.8042C2.4 18.7394 2.41622 18.6907 2.41622 18.6421V18.6258C2.41622 18.6096 2.41622 18.6096 2.41622 18.5934C2.41622 18.5772 2.4 18.5772 2.38378 18.561C2.36757 18.5448 2.35135 18.5448 2.33514 18.5285C2.31892 18.5123 2.3027 18.5123 2.3027 18.4961C2.3027 18.4799 2.3027 18.4799 2.33514 18.4637C2.35135 18.4475 2.36757 18.4313 2.36757 18.4313C2.38378 18.415 2.41622 18.3988 2.44865 18.3826C2.46486 18.3826 2.48108 18.3664 2.52973 18.334C2.54595 18.3177 2.56216 18.3015 2.59459 18.2853C2.61081 18.2529 2.62703 18.2367 2.62703 18.2204C2.62703 18.2042 2.61081 18.188 2.59459 18.1718C2.56216 18.1718 2.52973 18.1718 2.4973 18.1556ZM3.34054 18.3502C3.32432 18.3826 3.30811 18.3988 3.30811 18.3988H3.29189C3.27568 18.415 3.27568 18.415 3.27568 18.4312C3.24324 18.4312 3.24324 18.4475 3.22703 18.4475H3.19459C3.17838 18.4475 3.14595 18.4637 3.11351 18.5123C3.0973 18.5285 3.08108 18.5448 3.06486 18.5772C3.06486 18.561 3.04865 18.561 3.04865 18.5448C3.03243 18.5285 3.01622 18.5123 2.98378 18.5123C2.96757 18.5123 2.95135 18.5123 2.93514 18.5285C2.91892 18.5448 2.91892 18.5448 2.9027 18.561C2.88649 18.5772 2.87027 18.5934 2.87027 18.5934C2.85405 18.6096 2.83784 18.6096 2.80541 18.6096C2.77297 18.6096 2.74054 18.5934 2.72432 18.5772C2.70811 18.5448 2.70811 18.5123 2.70811 18.4799C2.70811 18.4637 2.70811 18.4475 2.70811 18.415C2.70811 18.3826 2.70811 18.3502 2.72432 18.3177L2.75676 18.1231V18.0745C2.75676 18.0583 2.75676 18.0583 2.75676 18.0421C2.74054 18.0583 2.74054 18.0907 2.72432 18.1231C2.70811 18.1556 2.70811 18.188 2.69189 18.188C2.69189 18.2367 2.67568 18.3177 2.65946 18.415C2.64324 18.5123 2.64324 18.5772 2.64324 18.5772C2.64324 18.6258 2.65946 18.6745 2.67568 18.7069C2.69189 18.7394 2.72432 18.7556 2.75676 18.7556C2.77297 18.7556 2.78919 18.7556 2.80541 18.7394C2.82162 18.7394 2.83784 18.7231 2.83784 18.7069C2.85405 18.6907 2.87027 18.6745 2.88649 18.6421C2.9027 18.6096 2.93514 18.5934 2.95135 18.5934C2.96757 18.5934 2.98378 18.5934 3 18.6096C3.01622 18.6258 3.01622 18.6421 3.01622 18.6583V18.7231C3.01622 18.7394 3.01622 18.7556 3.01622 18.7556C3.01622 18.7556 3.01622 18.7718 3.03243 18.7718C3.03243 18.7718 3.04865 18.7556 3.04865 18.7231C3.06487 18.6745 3.08108 18.6421 3.0973 18.5934C3.0973 18.5772 3.11351 18.561 3.12973 18.5448C3.14595 18.5123 3.16216 18.5123 3.17838 18.4961C3.17838 18.4961 3.19459 18.4961 3.21081 18.4961C3.22703 18.4961 3.22703 18.4961 3.24324 18.4961L3.25946 18.4799C3.27568 18.4637 3.27568 18.4637 3.27568 18.4637C3.29189 18.4475 3.29189 18.4475 3.30811 18.4475C3.32432 18.4475 3.34054 18.4313 3.35676 18.3988C3.37297 18.3664 3.38919 18.3502 3.38919 18.3177C3.38919 18.3177 3.38919 18.3177 3.38919 18.3015C3.34054 18.334 3.34054 18.334 3.34054 18.3502ZM1.88108 18.4475C1.88108 18.4312 1.8973 18.415 1.8973 18.415C1.8973 18.415 1.8973 18.415 1.8973 18.3988H1.86486C1.86486 18.3988 1.83243 18.3988 1.8 18.3826C1.78378 18.3826 1.76757 18.3664 1.76757 18.3664C1.75135 18.3664 1.73514 18.3826 1.7027 18.3988C1.68649 18.415 1.67027 18.4312 1.65405 18.4637L1.57297 18.5934C1.54054 18.5934 1.50811 18.5772 1.49189 18.561C1.47568 18.5448 1.45946 18.5123 1.45946 18.4637C1.45946 18.4475 1.45946 18.4312 1.45946 18.3988C1.45946 18.3664 1.45946 18.334 1.47568 18.3015L1.50811 18.1069V18.0583C1.50811 18.0421 1.50811 18.0421 1.50811 18.0258C1.49189 18.0421 1.49189 18.0745 1.47568 18.1069C1.45946 18.1394 1.44324 18.1718 1.44324 18.1718C1.44324 18.2204 1.42703 18.3015 1.41081 18.3988C1.39459 18.4961 1.39459 18.561 1.39459 18.561C1.39459 18.6096 1.41081 18.6421 1.42703 18.6745C1.45946 18.7069 1.49189 18.7231 1.54054 18.7231C1.58919 18.7231 1.62162 18.7069 1.67027 18.6907C1.7027 18.6745 1.73514 18.6421 1.75135 18.5934C1.75135 18.5934 1.76757 18.561 1.8 18.5285C1.81622 18.5123 1.81622 18.4961 1.83243 18.4799L1.84865 18.4637C1.84865 18.4475 1.86486 18.4475 1.86486 18.4475C1.86486 18.4799 1.88108 18.4637 1.88108 18.4475ZM1.71892 18.561C1.7027 18.5772 1.68649 18.5772 1.67027 18.5934C1.67027 18.5934 1.65405 18.5934 1.63784 18.6096H1.58919L1.65405 18.5123C1.67027 18.4961 1.67027 18.4799 1.68649 18.4799C1.7027 18.4637 1.71892 18.4637 1.73514 18.4637C1.73514 18.4637 1.75135 18.4637 1.76757 18.4637C1.78378 18.4637 1.8 18.4799 1.8 18.4799C1.78378 18.5123 1.75135 18.5448 1.71892 18.561ZM1.78378 17.9772C1.76757 17.9772 1.76757 17.9772 1.78378 17.9772C1.76757 17.961 1.76757 17.961 1.76757 17.961C1.76757 17.961 1.76757 17.9772 1.75135 17.9772C1.73514 17.9934 1.73514 18.0096 1.71892 18.0258C1.71892 18.0421 1.7027 18.0583 1.68649 18.0745C1.68649 18.0745 1.68649 18.0907 1.67027 18.1069C1.67027 18.1069 1.67027 18.1231 1.68649 18.1231C1.68649 18.1231 1.7027 18.1394 1.71892 18.1394C1.71892 18.1394 1.73514 18.1556 1.75135 18.1718C1.76757 18.188 1.76757 18.188 1.76757 18.188C1.76757 18.188 1.78378 18.188 1.78378 18.1718C1.8 18.1556 1.81622 18.1394 1.81622 18.1231C1.81622 18.1069 1.83243 18.0907 1.83243 18.0745C1.83243 18.0583 1.83243 18.0421 1.83243 18.0421C1.83243 18.0258 1.83243 18.0258 1.81622 18.0096C1.81622 18.0096 1.8 17.9934 1.78378 17.9772ZM0.210811 18.2367C0.243243 18.188 0.259459 18.1556 0.308108 18.1231L0.291892 18.1069C0.243243 18.1394 0.194595 18.188 0.162162 18.2367C0.12973 18.2853 0.0972973 18.334 0.0810811 18.3988C0.0648649 18.4637 0.0648649 18.5123 0.0648649 18.5772C0.0648649 18.6421 0.0648649 18.7069 0.0810811 18.7556C0.0972973 18.8204 0.113514 18.8691 0.162162 18.9177C0.194595 18.9664 0.243243 18.9988 0.291892 19.0475L0.308108 19.0312C0.275676 19.015 0.259459 18.9826 0.243243 18.9502C0.227027 18.9177 0.210811 18.8853 0.194595 18.8529C0.178378 18.8204 0.162162 18.7718 0.162162 18.7394C0.162162 18.6907 0.145946 18.6583 0.145946 18.6096C0.145946 18.5448 0.145946 18.4961 0.162162 18.4313C0.178378 18.334 0.194595 18.2853 0.210811 18.2367ZM1.2973 18.1718C1.28108 18.1718 1.26486 18.1718 1.26486 18.188C1.24865 18.2042 1.23243 18.2204 1.21622 18.2367C1.2 18.2529 1.18378 18.2853 1.15135 18.3015C1.13514 18.334 1.11892 18.3502 1.1027 18.3826C1.08649 18.3826 1.08649 18.3826 1.07027 18.3826C1.05405 18.3826 1.05405 18.3826 1.03784 18.3826C1.02162 18.3826 1.00541 18.3988 0.989189 18.415C0.989189 18.4313 0.972973 18.4637 0.972973 18.4799C0.972973 18.4961 0.972973 18.5123 0.972973 18.5448C0.972973 18.5772 0.972973 18.5934 0.972973 18.5934C0.972973 18.6096 0.972973 18.6421 0.956757 18.6421C0.956757 18.6583 0.956757 18.6745 0.940541 18.7069C0.924324 18.7394 0.908108 18.788 0.891892 18.8042C0.875676 18.8204 0.859459 18.8367 0.827027 18.8691C0.843243 18.8853 0.810811 18.9015 0.794595 18.9177C0.778378 18.934 0.745946 18.934 0.72973 18.9502C0.697297 18.9502 0.664865 18.9664 0.6 18.9664C0.551351 18.9664 0.502703 18.9502 0.47027 18.934C0.437838 18.9015 0.421622 18.8691 0.421622 18.8204C0.421622 18.788 0.421622 18.7556 0.437838 18.7231C0.437838 18.7069 0.454054 18.6907 0.454054 18.6583L0.502703 18.561C0.502703 18.5448 0.518919 18.5285 0.518919 18.5123C0.518919 18.4961 0.518919 18.4961 0.518919 18.4961C0.518919 18.4961 0.518919 18.4961 0.502703 18.5123C0.502703 18.5123 0.502703 18.5285 0.486486 18.5448C0.47027 18.5772 0.454054 18.5934 0.437838 18.6258C0.437838 18.6421 0.421622 18.6583 0.405405 18.6907C0.389189 18.7231 0.389189 18.7718 0.372973 18.8042C0.372973 18.8367 0.356757 18.8691 0.356757 18.9015C0.356757 18.9826 0.372973 19.0637 0.437838 19.0961C0.47027 19.1285 0.518919 19.1448 0.567568 19.1448C0.6 19.1448 0.632432 19.1448 0.664865 19.1285C0.713514 19.1123 0.745946 19.0961 0.778378 19.0637C0.827027 19.0312 0.875676 18.9664 0.908108 18.9015C0.940541 18.8529 0.956757 18.8042 0.989189 18.7231C1.00541 18.6745 1.02162 18.6258 1.02162 18.5934C1.02162 18.5772 1.03784 18.561 1.03784 18.5448C1.03784 18.5285 1.03784 18.5285 1.03784 18.5123C1.03784 18.4961 1.03784 18.4961 1.05405 18.4961H1.08649C1.1027 18.4961 1.11892 18.4961 1.15135 18.4799C1.2 18.4637 1.23243 18.4475 1.26486 18.3988C1.28108 18.3664 1.2973 18.3502 1.31351 18.3015C1.32973 18.2691 1.34595 18.2367 1.34595 18.2042C1.34595 18.188 1.34595 18.1718 1.32973 18.1556C1.32973 18.188 1.31351 18.1718 1.2973 18.1718ZM1.28108 18.3177C1.26486 18.334 1.24865 18.3502 1.23243 18.3502C1.21622 18.3664 1.2 18.3664 1.18378 18.3664C1.16757 18.3664 1.15135 18.3664 1.15135 18.3664C1.15135 18.3664 1.15135 18.3502 1.16757 18.3502C1.18378 18.334 1.2 18.3177 1.2 18.3015C1.21622 18.2691 1.24865 18.2529 1.26486 18.2529C1.28108 18.2529 1.2973 18.2529 1.2973 18.2691C1.31351 18.2691 1.31351 18.2853 1.31351 18.2853C1.31351 18.3015 1.2973 18.3015 1.28108 18.3177ZM3.77838 13.3231C3.81081 13.3394 3.84324 13.3718 3.87568 13.4042C3.92432 13.4529 3.95676 13.4691 3.95676 13.4691C3.97297 13.4691 4.00541 13.4204 4.05405 13.3394C4.1027 13.2583 4.11892 13.1772 4.11892 13.1285C4.11892 13.0799 4.08649 13.015 4.03784 12.9664C3.98919 12.9177 3.94054 12.8853 3.90811 12.8853C3.89189 12.8853 3.85946 12.9502 3.79459 13.0637C3.74595 13.1772 3.71351 13.2421 3.71351 13.2583C3.74595 13.2907 3.76216 13.3069 3.77838 13.3231ZM8.33514 9.04206H6.55135L6.35676 9.13936H4.92973L4.71892 9.04206H1.8973C1.49189 9.04206 1.52432 9.33395 1.52432 9.33395C1.52432 9.59341 1.88108 9.59341 1.88108 9.59341H5.23784L5.28649 9.51233H5.75676L5.82162 9.5772H8.3027C8.9027 9.5772 9.40541 9.4799 9.40541 9.4799H24V9.22044H9.42162C8.72432 9.02585 8.33514 9.04206 8.33514 9.04206ZM9.19459 10.534H4.02162C3.63243 10.5177 3.66486 10.8096 3.66486 10.8096C3.68108 11.0691 4.00541 11.0367 4.00541 11.0367H9.14595C9.5027 11.0367 10.1676 10.9556 10.1676 10.9556H24V10.6799H10.2324C9.66486 10.5826 9.19459 10.534 9.19459 10.534ZM6.82703 9.78801H2.67568C2.28649 9.77179 2.3027 10.0799 2.3027 10.0799C2.28649 10.3718 2.61081 10.3394 2.61081 10.3394H6.79459C7.26486 10.3231 7.78378 10.2258 7.78378 10.2258H24V9.96638H7.83243C7.24865 9.77179 6.82703 9.78801 6.82703 9.78801ZM10.8162 12.0096H8.23784L7.78378 12.0907H7.05405L6.71351 12.0096H4.86486C4.47568 11.9934 4.50811 12.2691 4.50811 12.2691C4.50811 12.5772 4.83243 12.5448 4.83243 12.5448H6.6973L7.18378 12.4313H7.73514L8.20541 12.5285H10.6054C10.9946 12.5285 11.5784 12.415 11.5784 12.415H24V12.1394H11.5946C11.1243 12.0096 10.8162 12.0096 10.8162 12.0096ZM10.2 11.2637H7.45946L7.2973 11.361H6.58378L6.48649 11.2637H5.02703C4.65405 11.2475 4.68649 11.5069 4.68649 11.5069C4.68649 11.8312 5.04324 11.7826 5.04324 11.7826H6.40541L6.48649 11.734H7.44324L7.50811 11.7988H10.1189C10.5405 11.815 11.1081 11.7015 11.1081 11.7015H24V11.4258H11.1405C10.5081 11.2799 10.2 11.2637 10.2 11.2637ZM6.45405 14.215C6.16216 14.2312 6.17838 14.4258 6.17838 14.4258C6.17838 14.7502 6.53513 14.6853 6.53513 14.6853C6.66486 14.6853 6.85946 14.5718 6.85946 14.5718H24V14.3123H6.82703C6.63243 14.215 6.45405 14.215 6.45405 14.215ZM11.0108 12.7394H9.29189C8.78919 12.7394 8.33513 12.8853 8.33513 12.8853H7.75135C7.2973 12.8042 6.85946 12.7718 6.85946 12.7718H5.02703C4.67027 12.7718 4.68649 13.0312 4.68649 13.0312C4.68649 13.3069 5.01081 13.2745 5.01081 13.2745H6.82703C7.11892 13.2745 7.8 13.1285 7.8 13.1285H8.28649C8.61081 13.2583 9.24324 13.2745 9.24324 13.2745H10.8162C11.173 13.2583 11.8541 13.1772 11.8541 13.1772H24V12.9015H11.9027C11.5784 12.8042 11.0108 12.7394 11.0108 12.7394ZM11.0595 13.5015C10.5892 13.4853 9.97297 13.6475 9.97297 13.6475H7.75135L6.76216 13.4691H5.56216C5.18919 13.4691 5.23784 13.7448 5.23784 13.7448C5.23784 14.0204 5.57838 13.988 5.54595 13.988H6.6973L7.7027 13.8258H9.98919C10.4919 14.0042 11.0108 13.988 11.0108 13.988C11.3676 13.988 12 13.8583 12 13.8583H24V13.5826H11.7892C11.4649 13.5015 11.0595 13.5015 11.0595 13.5015ZM0 4.03125V4.29071H24V4.03125H0ZM11.3027 4.6799H9.71351C9.37297 4.69611 8.95135 4.79341 8.95135 4.79341H0V5.05287H8.93513C9.24324 5.15017 9.58378 5.1826 9.58378 5.1826H11.3189C11.6919 5.16639 12.1135 5.06909 12.1135 5.06909H24V4.79341H12.0486C11.7892 4.72855 11.3027 4.6799 11.3027 4.6799ZM23.7405 15.4961C23.6108 15.6096 23.5297 15.7069 23.4649 15.7556C23.3676 15.8529 23.2703 15.934 23.1568 16.015C22.9946 16.1448 22.8486 16.2583 22.7189 16.3718C22.5405 16.5177 22.4432 16.5988 22.3946 16.6475C22.3622 16.6799 22.3459 16.7123 22.3135 16.761C22.2811 16.8096 22.2649 16.8583 22.2486 16.8907C22.2486 16.9069 22.2649 16.8907 22.2973 16.8583C22.3135 16.8421 22.3297 16.8421 22.3459 16.8258C22.3622 16.8096 22.3784 16.7934 22.3946 16.7772L22.6378 16.5988C22.7189 16.534 22.8162 16.4691 22.9135 16.388C22.9784 16.3394 23.0595 16.2745 23.1405 16.1934C23.2054 16.1448 23.2541 16.0961 23.3027 16.0637C23.3514 16.0312 23.3838 15.9826 23.4162 15.9664C23.4973 15.8853 23.5622 15.8367 23.5946 15.8042C23.6108 15.788 23.6432 15.7556 23.6919 15.6907C23.7405 15.6421 23.773 15.5934 23.8054 15.5448C23.8378 15.5123 23.8703 15.4637 23.9027 15.3988C23.9351 15.334 23.9514 15.2853 23.9676 15.2529C23.9676 15.2367 23.9676 15.2204 23.9676 15.2204C24 15.2529 23.9189 15.334 23.7405 15.4961ZM11.2541 5.40963H8.09189C7.71892 5.40963 7.2973 5.53936 7.2973 5.53936H0V5.7826H7.21622C7.45946 5.86368 7.94595 5.92855 7.94595 5.92855H11.2054C11.5622 5.92855 11.9676 5.7826 11.9676 5.7826H24V5.55557H11.8703C11.5135 5.44206 11.2541 5.40963 11.2541 5.40963ZM11.0432 6.15557H7.1027C6.74595 6.17179 6.38919 6.30152 6.38919 6.30152H3.01622C2.67568 6.20422 2.33514 6.15557 2.33514 6.15557H0.389189C0.194595 6.15557 0.194595 6.41503 0.194595 6.41503C0.194595 6.67449 0.389189 6.65828 0.389189 6.65828H2.22162C2.61081 6.62584 3.03243 6.51233 3.03243 6.51233H6.37297C6.66487 6.5772 7.03784 6.64206 7.03784 6.64206H10.9459C11.3189 6.62584 11.6757 6.52855 11.6757 6.52855H24V6.26909H11.7081C11.3027 6.15557 11.0432 6.15557 11.0432 6.15557ZM15.2757 16.0799C15.3568 15.9988 15.4216 15.9502 15.4541 15.9177C15.4703 15.9015 15.5027 15.8691 15.5514 15.8042C15.6 15.7556 15.6324 15.7069 15.6649 15.6583C15.6973 15.6258 15.7297 15.5772 15.7622 15.5123C15.7946 15.4475 15.827 15.3988 15.827 15.3664C15.827 15.3502 15.827 15.3502 15.827 15.334C15.827 15.334 15.7459 15.415 15.5676 15.5934C15.4541 15.7069 15.3568 15.788 15.2919 15.8529C15.1946 15.9502 15.0973 16.0312 14.9838 16.1123C14.9027 16.1772 14.8378 16.2258 14.7568 16.2907C14.6919 16.3556 14.6108 16.4042 14.5297 16.4691C14.3676 16.5988 14.2541 16.6961 14.2054 16.7448C14.173 16.7772 14.1568 16.8096 14.1243 16.8583C14.1081 16.8907 14.0757 16.9394 14.0595 16.988C14.0595 16.988 14.0757 16.988 14.1081 16.9556C14.1243 16.9394 14.1568 16.9069 14.2054 16.8745L14.4486 16.6799C14.4973 16.6475 14.5459 16.615 14.5784 16.5826C14.627 16.5502 14.6757 16.5177 14.7081 16.4853C14.7892 16.4204 14.8703 16.3556 14.9351 16.2907C15.1297 16.1934 15.227 16.1123 15.2757 16.0799ZM10.2649 7.63125H6.24324C5.93513 7.61503 5.56216 7.74476 5.56216 7.74476H4.83243C4.52432 7.63125 4.26486 7.63125 4.26486 7.63125H0.859459C0.583784 7.63125 0.616216 7.89071 0.616216 7.89071C0.616216 8.13395 0.827027 8.11774 0.827027 8.11774H4.16757C4.47568 8.13395 4.84865 8.00422 4.84865 8.00422H5.59459C5.82162 8.11774 6.21081 8.13395 6.21081 8.13395H10.1676C10.6541 8.13395 10.9297 8.02044 10.9297 8.02044H24V7.7772H10.9622C10.4757 7.61503 10.2649 7.63125 10.2649 7.63125ZM10.7676 6.90152H6.63243C6.19459 6.8853 5.9027 7.01503 5.9027 7.01503H4.15135C3.68108 6.90152 3.47027 6.8853 3.47027 6.8853H0.681081C0.421622 6.8853 0.437838 7.12855 0.437838 7.12855C0.437838 7.38801 0.648649 7.35557 0.648649 7.35557H3.35676C3.76216 7.32314 4.05405 7.24206 4.05405 7.24206H5.85405C6.0973 7.33936 6.5027 7.38801 6.5027 7.38801H10.7027C11.0432 7.37179 11.3676 7.25828 11.3676 7.25828H24V7.03125H11.3838C11.027 6.90152 10.7676 6.90152 10.7676 6.90152ZM9.6973 8.3772C9.6973 8.3772 6.48649 8.36098 6.19459 8.3772C5.9027 8.39341 5.65946 8.45828 5.65946 8.45828H5.18919C5.02703 8.40963 4.8 8.36098 4.8 8.36098H1.31351C0.956757 8.36098 1.00541 8.62044 1.00541 8.62044C1.00541 8.86368 1.28108 8.86368 1.28108 8.86368H4.68649C4.86487 8.84747 5.17297 8.7826 5.17297 8.7826H5.65946C5.85405 8.86368 6.0973 8.8799 6.0973 8.8799H9.6C9.90811 8.8799 10.3459 8.76639 10.3459 8.76639H24V8.50693H10.3622C10.0865 8.39341 9.6973 8.3772 9.6973 8.3772ZM20.173 16.0475C20.2054 16.015 20.2378 15.9664 20.2703 15.9015C20.3027 15.8367 20.3189 15.788 20.3351 15.7556C20.3351 15.7394 20.3351 15.7394 20.3351 15.7231C20.3351 15.7231 20.2541 15.8204 20.0757 15.9826C20.027 16.0312 19.9622 16.0799 19.9297 16.1285C19.8811 16.1772 19.8486 16.2096 19.8162 16.2421C19.7189 16.3394 19.6216 16.4204 19.5081 16.5015C19.427 16.5664 19.3622 16.615 19.2811 16.6799C19.2 16.7448 19.1351 16.7934 19.0541 16.8583C18.8919 16.988 18.7946 17.0853 18.7297 17.134C18.6973 17.1664 18.6649 17.215 18.6486 17.2475C18.6324 17.2799 18.6 17.3285 18.5838 17.3772C18.5838 17.3772 18.6 17.3772 18.6324 17.3448C18.6486 17.3285 18.6649 17.3285 18.6811 17.3123C18.6973 17.2961 18.7135 17.2799 18.7297 17.2799L18.973 17.1015C19.0216 17.0691 19.0703 17.0367 19.1027 17.0042C19.1514 16.9718 19.2 16.9394 19.2486 16.8907C19.3297 16.8258 19.4108 16.761 19.4757 16.6961C19.5405 16.6475 19.5892 16.5988 19.6378 16.5664C19.6865 16.534 19.7189 16.4853 19.7514 16.4691C19.8324 16.388 19.8973 16.3394 19.9297 16.3069C19.9459 16.2907 19.9784 16.2583 20.027 16.1934C20.0919 16.1448 20.1405 16.0961 20.173 16.0475ZM19.8 16.7123C19.7514 16.7934 19.7351 16.8421 19.7351 16.8583C19.7351 16.8745 19.7514 16.8745 19.7676 16.8907C19.7838 16.9069 19.8162 16.9231 19.8486 16.9556C19.8811 16.988 19.9135 17.0042 19.9135 17.0042C19.9297 17.0042 19.9622 16.9718 19.9946 16.9069C20.027 16.8421 20.0432 16.7934 20.0432 16.761C20.0432 16.7285 20.027 16.6799 19.9784 16.6313C19.9459 16.5988 19.9135 16.5664 19.8811 16.5664C19.8649 16.5826 19.8486 16.615 19.8 16.7123ZM15.9568 16.9394C15.973 16.9556 15.9892 16.9556 15.9892 16.9556C16.0216 16.9556 16.0703 16.8907 16.1351 16.7772C16.1676 16.7934 16.1838 16.8258 16.2162 16.8583C16.2486 16.8907 16.2649 16.9069 16.2811 16.9069C16.2973 16.9069 16.3297 16.8745 16.3622 16.8258C16.4108 16.761 16.427 16.7123 16.427 16.6799C16.427 16.6475 16.4108 16.5988 16.3622 16.5664C16.3297 16.5177 16.2973 16.5015 16.2649 16.5015C16.2486 16.5015 16.2324 16.534 16.2162 16.5664C16.1838 16.615 16.1676 16.6475 16.1351 16.6961C16.1189 16.6637 16.0865 16.6313 16.0541 16.5988C16.0216 16.5664 15.9892 16.5502 15.973 16.5502C15.9568 16.5502 15.9405 16.5988 15.8919 16.6799C15.8432 16.761 15.827 16.8096 15.827 16.8258C15.827 16.8258 15.8432 16.8421 15.8757 16.8745C15.9243 16.9069 15.9405 16.9231 15.9568 16.9394ZM17.4486 17.588C17.4324 17.6204 17.4162 17.6367 17.4 17.6691C17.3838 17.7015 17.3676 17.734 17.3514 17.7664C17.3351 17.7988 17.3189 17.8313 17.3189 17.8799C17.3027 17.9123 17.3027 17.961 17.3027 17.9934C17.3027 18.0583 17.2865 18.1394 17.3027 18.2529C17.3027 18.3664 17.3027 18.4475 17.3027 18.5123C17.3027 18.5772 17.2865 18.6421 17.2703 18.7069C17.2541 18.7718 17.2541 18.8042 17.2541 18.8042C17.2541 18.8204 17.2541 18.8204 17.2541 18.8204C17.2541 18.8204 17.2703 18.8204 17.2865 18.8042C17.3027 18.788 17.3027 18.7718 17.3189 18.7556C17.3351 18.7231 17.3514 18.6745 17.3838 18.6096C17.4162 18.5285 17.4324 18.4475 17.4324 18.3502C17.4324 18.3015 17.4324 18.2529 17.4486 18.188C17.4486 18.1231 17.4486 18.0583 17.4486 17.9772C17.4486 17.961 17.4486 17.9448 17.4486 17.9285C17.4486 17.9123 17.4486 17.8799 17.4486 17.8475C17.4486 17.815 17.4486 17.7988 17.4486 17.7664C17.4486 17.734 17.4486 17.7177 17.4486 17.6853C17.4486 17.6529 17.4486 17.6367 17.4486 17.6204C17.4486 17.6042 17.4486 17.588 17.4486 17.588C17.4486 17.5718 17.4486 17.5718 17.4324 17.5718C17.4649 17.5718 17.4486 17.5718 17.4486 17.588ZM17.0595 16.4691C17.027 16.5015 17.0108 16.534 16.9784 16.5826C16.9459 16.6313 16.9297 16.6799 16.9135 16.7123C16.9135 16.7285 16.9297 16.7123 16.9622 16.6799C16.9784 16.6637 17.0108 16.6313 17.0595 16.5988C17.5622 16.2258 18.0486 15.8204 18.4865 15.3826C18.5189 15.3502 18.5514 15.2853 18.6 15.2042C18.6486 15.1231 18.6649 15.0745 18.6324 15.0907C18.227 15.4799 17.6919 15.934 17.0595 16.4691ZM14.7568 16.7285C14.7405 16.7285 14.7243 16.7772 14.6757 16.8583C14.6432 16.9394 14.6108 16.988 14.6108 17.0204C14.6108 17.0367 14.6108 17.0529 14.627 17.0529C14.6432 17.0691 14.6757 17.0853 14.7081 17.1177C14.7405 17.1502 14.773 17.1502 14.773 17.1502C14.7892 17.1502 14.8216 17.1177 14.8541 17.0529C14.8865 16.988 14.9027 16.9394 14.9027 16.9069C14.9027 16.8745 14.8703 16.8421 14.8378 16.7934C14.8216 16.7285 14.7892 16.7123 14.7568 16.7285ZM14.9189 18.8204C14.9514 18.8042 14.9838 18.788 15 18.788C15.0162 18.7718 15.0486 18.7394 15.0811 18.6907C15.1135 18.6421 15.1459 18.561 15.1946 18.4475C15.2108 18.4312 15.2108 18.3988 15.227 18.3664C15.227 18.334 15.2432 18.3177 15.2432 18.3015C15.2432 18.2853 15.2432 18.2529 15.2595 18.2367C15.2595 18.2042 15.2595 18.188 15.2595 18.1556C15.2595 18.1069 15.2432 18.0583 15.2108 18.0096C15.1784 17.9772 15.1459 17.9448 15.0973 17.9448C15.0649 17.9448 15.0486 17.961 15.0162 17.9934C14.9838 18.0258 14.9676 18.0745 14.9351 18.1231C14.9027 18.1718 14.8865 18.2204 14.8865 18.2367C14.8703 18.2691 14.8703 18.2853 14.8703 18.3015C14.8703 18.334 14.8703 18.3664 14.9027 18.3826C14.9351 18.415 14.9676 18.415 15 18.415H15.0162C15.0324 18.415 15.0324 18.415 15.0324 18.3988H15.0649C15.0486 18.4475 15.0324 18.4961 15 18.5448C14.9676 18.5934 14.9351 18.6096 14.9027 18.6421C14.8703 18.6583 14.8054 18.7069 14.7081 18.7718C14.6432 18.8691 14.5946 18.9015 14.5946 18.9177C14.5946 18.9177 14.5946 18.9177 14.6108 18.9177C14.627 18.9177 14.6757 18.9015 14.7568 18.8853C14.8378 18.8529 14.8865 18.8367 14.9189 18.8204ZM17.2541 16.6799C17.2541 16.6637 17.2541 16.6637 17.2541 16.6637C17.2541 16.6637 17.2378 16.6799 17.2216 16.6799C17.1892 16.7123 17.173 16.761 17.1405 16.8258C17.1081 16.8907 17.0919 16.9394 17.0919 16.9556C17.0757 16.988 17.0757 17.0204 17.0757 17.0691C17.0757 17.1177 17.0595 17.1664 17.0595 17.1826V17.4583C17.0595 17.5069 17.0432 17.5556 17.0108 17.5718C16.9784 17.6042 16.9459 17.6204 16.8973 17.6204C16.8486 17.6204 16.8162 17.6042 16.8 17.5718C16.7838 17.5394 16.7676 17.4745 16.7676 17.361C16.7676 17.3285 16.7676 17.2961 16.7838 17.2637C16.7838 17.2312 16.8 17.1826 16.8162 17.0853L16.8811 16.761C16.8811 16.7448 16.8811 16.7285 16.8811 16.7285C16.8811 16.7285 16.8649 16.7123 16.8649 16.7285C16.8486 16.761 16.8162 16.8258 16.7676 16.9231C16.7676 16.9394 16.7514 16.9556 16.7351 16.988C16.7189 17.0204 16.7027 17.0529 16.6865 17.1015C16.6703 17.1177 16.6703 17.1502 16.6703 17.1988C16.6703 17.2475 16.6541 17.2961 16.6541 17.3448C16.6541 17.3772 16.6378 17.4258 16.6378 17.5069C16.6378 17.5556 16.6378 17.6042 16.6378 17.6691V17.815C16.6378 17.8475 16.6216 17.8799 16.6054 17.8961C16.5892 17.9123 16.573 17.9285 16.573 17.9285C16.5568 17.9448 16.5081 17.9448 16.4432 17.9448C16.3622 17.9448 16.2973 17.9448 16.2162 17.961C16.2 17.961 16.2 17.961 16.1838 17.961C16.1676 17.961 16.1514 17.961 16.1514 17.9772C16.0865 18.0096 16.0054 18.0421 15.9243 18.1069C15.8432 18.1718 15.7622 18.2367 15.6811 18.3502C15.6486 18.3826 15.5838 18.4799 15.4865 18.6258C15.4541 18.6745 15.4378 18.7069 15.4054 18.7556C15.3405 18.8529 15.2757 18.9502 15.2108 19.015C15.1459 19.0961 15.0649 19.161 15 19.2096C14.9351 19.2583 14.8703 19.3069 14.8216 19.3394C14.773 19.3718 14.7405 19.4042 14.7243 19.4204C14.7081 19.4367 14.7081 19.4529 14.7081 19.4529C14.7243 19.4691 14.7405 19.4691 14.7568 19.4529C14.773 19.4529 14.773 19.4529 14.7892 19.4367H14.8054C14.8541 19.4204 14.9027 19.388 14.9514 19.3718C15 19.3394 15.0486 19.3069 15.0973 19.2745C15.1459 19.2421 15.2108 19.1772 15.2919 19.0961C15.373 19.015 15.4541 18.9177 15.5351 18.8204C15.6162 18.7069 15.6811 18.6258 15.7297 18.5448C15.7784 18.4799 15.8595 18.415 15.9405 18.3664C16.0054 18.334 16.0378 18.3177 16.0703 18.3177C16.1027 18.3015 16.1351 18.3015 16.1676 18.3015C16.2 18.3015 16.2162 18.3015 16.2324 18.3015C16.2486 18.3015 16.2649 18.3015 16.2811 18.3015C16.2973 18.3015 16.3135 18.3015 16.3459 18.3015C16.3622 18.3015 16.3784 18.3015 16.3946 18.2853C16.427 18.2691 16.4432 18.2529 16.4919 18.2042C16.5243 18.1718 16.5568 18.1231 16.5892 18.0907C16.6054 18.0745 16.6378 18.0421 16.6703 17.9934C16.7027 17.961 16.7189 17.9448 16.7351 17.9448C16.7676 17.9934 16.8 18.0096 16.8486 18.0096C16.8973 18.0096 16.9459 17.9772 16.9946 17.9123C17.0432 17.8475 17.0757 17.7826 17.1243 17.6853C17.1568 17.6042 17.173 17.5231 17.1892 17.4745C17.2216 17.3448 17.2378 17.215 17.2378 17.0853C17.2378 16.9556 17.2378 16.8421 17.2703 16.7448C17.2541 16.7123 17.2541 16.6799 17.2541 16.6799ZM19.6216 17.7015C19.6216 17.7015 19.6054 17.7177 19.5892 17.7502C19.573 17.7826 19.5568 17.815 19.5568 17.8312C19.5405 17.8475 19.5243 17.8475 19.5081 17.8475C19.4919 17.8475 19.4757 17.8312 19.4757 17.8475C19.4432 17.9448 19.4108 17.9772 19.3784 17.9772C19.3784 17.9772 19.3622 17.9772 19.3459 17.961C19.3297 17.961 19.3135 17.9772 19.2973 18.0258C19.2649 18.0745 19.2486 18.0907 19.2 18.0907L19.1351 18.0745C19.1189 18.0745 19.0865 18.0907 19.0541 18.1069C19.0216 18.1231 18.9892 18.1556 18.9568 18.2204C18.9081 18.2853 18.8432 18.3177 18.7622 18.3177C18.7135 18.3177 18.6649 18.3015 18.6162 18.2691C18.5676 18.2204 18.5351 18.1394 18.5351 18.0258C18.5351 18.0096 18.5351 17.9934 18.5351 17.961C18.5351 17.9123 18.5351 17.8637 18.5514 17.7826C18.5676 17.6367 18.5676 17.5394 18.5838 17.4745C18.5838 17.4583 18.5838 17.4421 18.5838 17.4421C18.5676 17.4421 18.5676 17.4421 18.5676 17.4583L18.4378 17.7826C18.4216 17.7988 18.4216 17.8475 18.4216 17.8961C18.4216 17.961 18.4216 18.0096 18.4054 18.0421C18.4054 18.0745 18.4054 18.1069 18.4054 18.1556C18.4054 18.3177 18.3892 18.415 18.3892 18.4475C18.3892 18.4799 18.373 18.5123 18.373 18.5285C18.3568 18.5772 18.3405 18.6096 18.3081 18.6421C18.2757 18.6745 18.2432 18.6745 18.1946 18.6745C18.1459 18.6745 18.1297 18.6583 18.1135 18.6583C18.0811 18.6583 18.0649 18.6421 18.0486 18.6421C18.0162 18.6421 17.9676 18.6583 17.9189 18.6745C17.8541 18.7069 17.7892 18.7556 17.7405 18.8204C17.6919 18.8853 17.6595 18.934 17.6432 18.9664C17.627 18.9988 17.627 19.015 17.6432 19.015C17.6432 19.015 17.6595 19.015 17.6757 19.015C17.7568 18.9664 17.8378 18.9502 17.9351 18.9502C17.9514 18.9502 17.9838 18.9664 18.0324 18.9664C18.0649 18.9664 18.1135 18.9664 18.1622 18.9502C18.2108 18.934 18.2595 18.9015 18.3081 18.8529C18.3405 18.8042 18.373 18.7556 18.4054 18.7069C18.4541 18.6258 18.4703 18.5772 18.4865 18.5772C18.4865 18.5772 18.4865 18.5772 18.5027 18.5772C18.5514 18.6421 18.6 18.6745 18.6811 18.6745C18.7622 18.6745 18.8432 18.6258 18.9081 18.5123C18.973 18.3988 19.0216 18.3502 19.0865 18.3177C19.1027 18.3177 19.1351 18.3177 19.1676 18.3177C19.2 18.3177 19.2486 18.2691 19.3297 18.188C19.3459 18.1718 19.3784 18.1718 19.3946 18.1556C19.4108 18.1556 19.4432 18.1394 19.4595 18.1069C19.4757 18.0907 19.5081 18.0583 19.5405 18.0421C19.573 18.0258 19.5892 17.9772 19.6054 17.9448C19.6216 17.8961 19.6378 17.8475 19.6541 17.7988C19.6378 17.734 19.6378 17.7177 19.6216 17.7015C19.6378 17.7015 19.6378 17.7015 19.6216 17.7015ZM18.6811 19.4042C18.6649 19.4042 18.6486 19.4529 18.6 19.534C18.5676 19.615 18.5351 19.6637 18.5351 19.6799C18.5351 19.6961 18.5351 19.7123 18.5514 19.7123C18.5676 19.7285 18.6 19.7448 18.6324 19.7772C18.6649 19.8096 18.6973 19.8096 18.6973 19.8096C18.7135 19.8096 18.7459 19.7772 18.7784 19.7123C18.8108 19.6475 18.827 19.5988 18.827 19.5664C18.827 19.534 18.7946 19.5015 18.7622 19.4529C18.7459 19.4204 18.7135 19.4042 18.6811 19.4042ZM20.4973 18.0583C20.5135 18.0745 20.5297 18.0745 20.5297 18.0745C20.5622 18.0745 20.6108 18.0096 20.6757 17.8961C20.7081 17.9123 20.7243 17.9448 20.7568 17.9772C20.7892 18.0096 20.8054 18.0258 20.8216 18.0258C20.8378 18.0258 20.8703 17.9934 20.9027 17.9448C20.9514 17.8799 20.9676 17.8313 20.9676 17.7988C20.9676 17.7664 20.9514 17.7177 20.9027 17.6853C20.8703 17.6529 20.8378 17.6204 20.8054 17.6204C20.7892 17.6204 20.773 17.6367 20.7568 17.6853C20.7243 17.734 20.7081 17.7664 20.6757 17.815C20.6595 17.7826 20.627 17.7502 20.5946 17.7177C20.5622 17.6853 20.5297 17.6691 20.5135 17.6691C20.4973 17.6691 20.4811 17.7177 20.4324 17.7988C20.3838 17.8799 20.3676 17.9285 20.3676 17.9448C20.3676 17.9448 20.3838 17.961 20.4162 17.9934C20.4649 18.0258 20.4811 18.0421 20.4973 18.0583ZM23.627 16.534C23.627 16.534 23.5946 16.5664 23.5622 16.615C23.5297 16.6475 23.5135 16.6961 23.4811 16.7285C23.4649 16.6961 23.4324 16.6637 23.4 16.6313C23.3514 16.5988 23.3351 16.5826 23.3027 16.5826C23.2865 16.5826 23.2541 16.6312 23.2054 16.7123C23.1568 16.8096 23.1243 16.8583 23.1243 16.8745C23.1243 16.8745 23.1568 16.9069 23.2054 16.9556C23.2541 17.0042 23.2865 17.0204 23.3027 17.0204C23.3351 17.0204 23.4 16.9556 23.4649 16.8258C23.4973 16.8421 23.5297 16.8745 23.5622 16.9069C23.5946 16.9394 23.6108 16.9556 23.627 16.9556C23.6432 16.9556 23.6757 16.9231 23.7243 16.8583C23.773 16.7934 23.7892 16.7448 23.7892 16.6961C23.7892 16.6637 23.773 16.615 23.7243 16.5826C23.6919 16.5502 23.6432 16.534 23.627 16.534ZM23.6432 17.5231C23.627 17.5231 23.627 17.5394 23.6108 17.5556C23.5946 17.5718 23.5784 17.6042 23.5622 17.6204C23.5297 17.6204 23.4973 17.6204 23.4649 17.6367C23.4324 17.6529 23.3838 17.6691 23.3514 17.7177C23.3189 17.7664 23.2865 17.7988 23.2703 17.815C23.2378 17.8475 23.2216 17.8799 23.2216 17.8961C23.1892 17.9285 23.173 17.9448 23.1405 17.9448C23.1405 17.9448 23.1243 17.9448 23.0757 17.9448C23.027 17.9448 22.9784 17.9448 22.9459 17.961C22.9297 17.961 22.9297 17.961 22.9135 17.961C22.8973 17.961 22.8811 17.961 22.8811 17.9772C22.8162 18.0096 22.7351 18.0421 22.6541 18.1069C22.573 18.1718 22.4919 18.2367 22.4108 18.3502C22.3784 18.3826 22.3135 18.4799 22.2162 18.6258C22.1838 18.6745 22.1676 18.7069 22.1351 18.7556C22.0703 18.8529 22.0054 18.9502 21.9405 19.015C21.8757 19.0961 21.7946 19.161 21.7297 19.2096C21.6649 19.2583 21.6 19.3069 21.5514 19.3394C21.5027 19.3718 21.4703 19.4042 21.4541 19.4204C21.4378 19.4367 21.4378 19.4529 21.4378 19.4529C21.4541 19.4691 21.4703 19.4691 21.4865 19.4529C21.5027 19.4529 21.5027 19.4529 21.5189 19.4367H21.5351C21.5838 19.4204 21.6324 19.388 21.6811 19.3718C21.7297 19.3394 21.7784 19.3069 21.827 19.2745C21.8757 19.2421 21.9405 19.1772 22.0216 19.0961C22.1027 19.015 22.1838 18.9177 22.2649 18.8204C22.3459 18.7069 22.4108 18.6258 22.4595 18.5448C22.5081 18.4799 22.5892 18.415 22.6703 18.3664C22.7351 18.334 22.7676 18.3177 22.8 18.3177C22.8324 18.3015 22.8649 18.3015 22.8973 18.3015C22.9297 18.3015 22.9459 18.3015 22.9622 18.3015C23.027 18.3015 23.0757 18.2853 23.1081 18.2529C23.1405 18.2204 23.2054 18.1231 23.3027 17.961C23.3351 17.9123 23.3514 17.8961 23.3838 17.8799C23.4 17.8637 23.4324 17.8475 23.4486 17.8475C23.4649 17.8475 23.4973 17.8313 23.5135 17.8313C23.5459 17.8313 23.5946 17.7664 23.6432 17.6529C23.6595 17.6042 23.6595 17.588 23.6595 17.5718C23.6595 17.5231 23.6595 17.5069 23.6432 17.5231ZM23.4162 16.5664C23.4486 16.5988 23.4811 16.615 23.4811 16.615C23.4973 16.615 23.5297 16.5826 23.5622 16.5177C23.5946 16.4529 23.627 16.4042 23.627 16.3556C23.627 16.3069 23.6108 16.2745 23.5622 16.2258C23.5135 16.1934 23.4811 16.161 23.4486 16.161C23.4324 16.161 23.4 16.2096 23.3676 16.2907C23.3189 16.3718 23.3027 16.4367 23.3027 16.4367C23.3027 16.4529 23.3189 16.4691 23.3351 16.4691C23.3514 16.5177 23.3838 16.534 23.4162 16.5664ZM21.5676 18.5934C21.5838 18.5772 21.6 18.561 21.6162 18.5285C21.6324 18.5123 21.6486 18.4961 21.6649 18.4637C21.6973 18.4313 21.7135 18.3988 21.7459 18.3664C21.7784 18.334 21.7946 18.334 21.827 18.3177C21.8595 18.3177 21.8919 18.3015 21.9243 18.3015C21.9243 18.3015 21.9405 18.3015 21.9568 18.3015C21.9892 18.3015 22.0054 18.2853 22.0378 18.2529C22.0703 18.2204 22.1027 18.1718 22.1189 18.1231C22.1514 18.0745 22.1676 18.0258 22.1838 17.9772C22.2 17.9285 22.2162 17.8637 22.2162 17.7988C22.2162 17.734 22.2324 17.5556 22.2486 17.2637C22.2486 17.215 22.2486 17.1502 22.2649 17.1015C22.2649 17.0529 22.2649 17.0042 22.2649 16.9556C22.2649 16.9231 22.2649 16.9231 22.2649 16.9069C22.2649 16.8907 22.2486 16.8907 22.2486 16.9069L22.1838 17.0853L22.1027 17.3285V17.7988C22.1027 17.8313 22.1027 17.8799 22.0865 17.9285C22.0865 17.9772 22.0703 18.0096 22.0703 18.0421C22.0541 18.0907 22.0378 18.1069 22.0054 18.0907C21.973 18.0745 21.9568 18.0745 21.9243 18.0745C21.8757 18.0907 21.827 18.1069 21.7946 18.1394C21.7784 18.1556 21.7622 18.188 21.7297 18.2204C21.6973 18.2529 21.6811 18.2691 21.6811 18.2853C21.6486 18.3177 21.6162 18.3502 21.5513 18.3664C21.5027 18.3988 21.4378 18.415 21.3568 18.4475C21.227 18.4799 21.1297 18.5123 21.0486 18.5285C20.9676 18.5448 20.8541 18.5448 20.7243 18.561C20.5946 18.561 20.4649 18.561 20.3676 18.561C20.2378 18.561 20.1405 18.5448 20.0757 18.5285C20.0108 18.5123 19.9622 18.4961 19.9297 18.4637C19.8973 18.4313 19.8811 18.3988 19.8811 18.3502C19.8811 18.3015 19.8649 18.2691 19.8486 18.2691C19.8324 18.2691 19.8162 18.3177 19.8162 18.3988C19.8 18.4799 19.8 18.5448 19.8 18.6258C19.8 18.7394 19.8324 18.8204 19.9135 18.8691C19.9622 18.9015 20.027 18.9177 20.1243 18.9177C20.2054 18.934 20.2865 18.934 20.3838 18.934C20.627 18.934 20.8541 18.9177 21.0486 18.8691C21.2432 18.8204 21.4054 18.7556 21.5027 18.6907C21.5027 18.6583 21.5351 18.6258 21.5676 18.5934ZM19.8973 17.215C19.9297 17.2312 19.9459 17.2637 19.9946 17.2961C20.027 17.3285 20.0432 17.3448 20.0595 17.3448C20.0757 17.3448 20.1081 17.3123 20.1405 17.2637C20.173 17.1988 20.2054 17.1502 20.2054 17.1015C20.2054 17.0691 20.1892 17.0204 20.1405 16.988C20.0919 16.9556 20.0595 16.9231 20.0432 16.9231C20.0432 16.9231 20.0108 16.9556 19.9784 17.0042C19.9622 17.0367 19.9297 17.0853 19.9135 17.1177C19.8973 17.0853 19.8811 17.0529 19.8324 17.0204C19.8 16.988 19.7676 16.9718 19.7514 16.9718C19.7351 16.9718 19.7027 17.0204 19.6703 17.1015C19.6216 17.1826 19.6054 17.2475 19.6054 17.2475C19.6054 17.2475 19.6378 17.2799 19.6865 17.3285C19.7351 17.3772 19.7676 17.3934 19.7838 17.3934C19.7838 17.4096 19.8324 17.3448 19.8973 17.215Z" fill="#1D93D1"/>
</svg>
