<svg viewBox="0 0 24 24" fill="none" xmlns="http://www.w3.org/2000/svg" width="24" height="24">
<path fill-rule="evenodd" clip-rule="evenodd" d="M20.7122 23.8015H3.74474V21.1331L4.0768 20.7436C3.19231 19.9416 2.42987 19.0075 1.82074 17.9725L6.2084 20.4849H6.69321L1.38953 17.1705C1.21971 16.8231 1.06647 16.4661 0.930829 16.1006L7.23296 20.4849H7.56639L0.674898 15.3301C0.548605 14.9007 0.446065 14.4612 0.368853 14.0132L8.05922 20.4849H8.40766L0.234396 12.9398C0.209757 12.6293 0.197266 12.3153 0.197266 11.9984C0.197266 11.9288 0.197856 11.8593 0.199134 11.7901L8.74179 20.4849H8.9837L0.249494 10.8823C0.290756 10.4431 0.356165 10.0107 0.444344 9.58681L9.30411 20.4849H9.52487L0.683062 8.63892C0.792585 8.26987 0.919715 7.9084 1.06347 7.55534L9.76762 20.4849H9.97354L1.49635 6.61335C1.68672 6.24308 1.89613 5.88412 2.12329 5.53775L10.2067 20.4849H10.3953L8.31978 16.1965C8.2976 16.1859 8.27561 16.175 8.25368 16.1638C8.14598 16.1065 8.04309 16.041 7.95486 15.956C7.87155 15.8757 7.80344 15.7813 7.74654 15.6808C7.67375 15.5524 7.61818 15.415 7.55405 15.2823C7.53403 15.2431 7.51377 15.2044 7.49179 15.1662C7.4792 15.1452 7.46843 15.1294 7.45018 15.1133C7.42156 15.0902 7.39107 15.0696 7.36235 15.0465C7.3349 15.0228 7.30731 14.9975 7.28853 14.966C7.27323 14.9404 7.26384 14.9125 7.25386 14.8844L7.25317 14.8842C7.23246 14.8725 7.2153 14.861 7.20173 14.8408C7.18899 14.8219 7.18171 14.7996 7.18082 14.7768C7.18009 14.7574 7.18353 14.7578 7.18442 14.7385C7.18461 14.7336 7.18319 14.7287 7.18343 14.7238C7.18442 14.7021 7.18638 14.7004 7.19278 14.68C7.197 14.6496 7.20182 14.6194 7.20743 14.5891C7.21363 14.5603 7.22046 14.5336 7.23468 14.5078C7.27525 14.434 7.3534 14.3891 7.428 14.3538L6.15558 11.7248C6.1451 11.7215 6.13531 11.7184 6.11441 11.7117C5.98483 11.6669 5.84816 11.6092 5.76224 11.4967C5.74055 11.4683 5.72181 11.4385 5.70657 11.4061C5.68847 11.3677 5.67573 11.3271 5.66712 11.2856C5.65694 11.2365 5.65326 11.1866 5.65178 11.1366C5.6503 11.088 5.6534 11.0388 5.64721 10.9904C5.64657 10.9866 5.64696 10.9867 5.64475 10.9835C5.63619 10.972 5.62709 10.9615 5.6177 10.9505C5.57673 10.9054 5.53434 10.8618 5.49387 10.8162C5.46146 10.7778 5.43067 10.7381 5.40608 10.694C5.36787 10.6255 5.34549 10.5486 5.34805 10.4698C5.34923 10.4345 5.35655 10.4005 5.36659 10.3668C5.38508 10.3148 5.40455 10.2632 5.4231 10.2113L2.74467 4.677C2.98634 4.37199 3.24272 4.07918 3.51281 3.79964L4.28011 5.60783C4.28139 5.55103 4.28459 5.49304 4.29545 5.43737C4.33106 5.25428 4.46788 5.10157 4.64163 5.037C4.70606 5.01305 4.78076 4.99869 4.84902 5.01354C4.8983 5.02426 4.94423 5.04344 4.98928 5.06602C5.03045 5.08667 5.06974 5.11057 5.10716 5.13708L4.32924 3.03077C4.6077 2.79229 4.89736 2.56661 5.19736 2.35455L6.23643 5.63035C6.27002 5.60148 6.30258 5.57153 6.33513 5.54148C6.44869 5.43354 6.55757 5.32096 6.67039 5.21223C6.74834 5.13949 6.83126 5.06223 6.9275 5.01231L6.05997 1.79906C6.41323 1.5927 6.77814 1.4042 7.15353 1.23472L8.17455 5.98848C8.18266 5.98056 8.19068 5.97259 8.1987 5.96448C8.22579 5.93532 8.25156 5.90527 8.27355 5.87202C8.29199 5.84414 8.30842 5.81453 8.32037 5.78325C8.34732 5.71263 8.35012 5.63665 8.34855 5.56189C8.34446 5.47298 8.33355 5.38465 8.32799 5.29583C8.32465 5.21601 8.32474 5.13256 8.3573 5.05795C8.40599 4.94626 8.52613 4.88833 8.63689 4.85528C8.65907 4.84864 8.68169 4.84294 8.70431 4.83792C8.73952 4.8301 8.77513 4.8241 8.81088 4.81933L8.81944 4.8182L8.15247 0.837795C8.49328 0.720158 8.84108 0.617717 9.19513 0.531308L9.70851 4.79007C9.7723 4.78731 9.80918 4.78609 9.89716 4.78289C10.0263 4.77895 10.1555 4.77541 10.2847 4.77364C10.3746 4.77236 10.4657 4.77438 10.5556 4.77138C10.5719 4.77025 10.5882 4.76892 10.6045 4.7675L10.2783 0.320278C10.656 0.264951 11.0394 0.227574 11.4278 0.209034L11.5628 5.77219C11.5732 5.78271 11.5828 5.79407 11.5917 5.80642C11.6145 5.83814 11.6286 5.87674 11.6411 5.91333C11.6719 6.00382 11.6852 6.09938 11.6928 6.1943C11.6961 6.23556 11.6983 6.27692 11.6998 6.31828C11.7023 6.38423 11.7039 6.45023 11.7075 6.51618C11.7104 6.55763 11.7141 6.59899 11.7181 6.6404C11.7297 6.74865 11.7423 6.85675 11.7527 6.96514C11.755 6.99135 11.7571 7.01751 11.759 7.04373L11.7615 7.04279C11.7824 7.03364 11.8026 7.02341 11.8225 7.01225C11.9056 6.96337 11.98 6.9016 12.0527 6.83865C12.1191 6.78116 12.1845 6.72248 12.2515 6.66573C12.2874 6.63613 12.2873 6.63627 12.3239 6.60726C12.3617 6.57868 12.4002 6.551 12.4399 6.52547L12.6005 0.210361C12.9794 0.229394 13.3537 0.266279 13.7225 0.320278L13.2819 6.32806C13.4613 6.3111 13.6419 6.29964 13.822 6.31046C13.9164 6.31611 14.0121 6.32762 14.1039 6.35216L14.8056 0.531308C15.1597 0.617766 15.5076 0.720207 15.8483 0.837795L14.839 6.86102C14.9169 6.85581 14.9948 6.85138 15.0728 6.84755C15.1435 6.84475 15.1738 6.84317 15.2447 6.84175C15.3403 6.83983 15.4363 6.83948 15.5318 6.84627C15.5674 6.84883 15.6037 6.85197 15.6395 6.85788L16.8472 1.23472C17.2226 1.4042 17.5875 1.5927 17.9408 1.79906L16.443 7.34662C16.455 7.35184 16.4668 7.35739 16.4786 7.36305C16.5348 7.38985 16.5892 7.4198 16.6421 7.45261C16.7997 7.55023 16.9383 7.68439 17.0265 7.8484C17.0339 7.86212 17.0409 7.87599 17.0475 7.89006L18.8034 2.35455C19.1034 2.56661 19.3931 2.79234 19.6715 3.03077L16.8789 10.5923C16.9059 10.6418 16.9231 10.6962 16.9271 10.7532C16.9298 10.7905 16.925 10.8261 16.9202 10.863C16.9166 10.8911 16.9137 10.9193 16.911 10.9476C16.9061 11.0091 16.9061 11.0089 16.9026 11.0705C16.8885 11.4246 16.9142 11.7781 16.9531 12.1299L20.488 3.79964C20.758 4.07913 21.0144 4.37194 21.2561 4.677L17.5507 12.3331C17.6603 12.3797 17.7585 12.4481 17.8266 12.5489C17.8513 12.5855 17.8712 12.6253 17.8854 12.6671C17.9008 12.7126 17.9094 12.7602 17.9099 12.8082C17.9102 12.8341 17.9081 12.8599 17.9039 12.8853L21.8775 5.53775C22.1046 5.88407 22.314 6.24303 22.5044 6.61335L17.6123 14.6185C17.6472 14.6469 17.6841 14.6731 17.7215 14.6982C17.808 14.7544 17.8974 14.8056 17.9843 14.8609C17.9923 14.8662 18.0004 14.8716 18.0084 14.877L22.9373 7.55534C23.081 7.90835 23.2081 8.26987 23.3177 8.63892L18.3581 15.2836C18.3674 15.3099 18.3752 15.3368 18.3816 15.364C18.4081 15.4762 18.4082 15.5908 18.4184 15.7051C18.4565 15.7234 18.497 15.7371 18.5361 15.7533L18.5413 15.7558L23.5564 9.58681C23.6446 10.0108 23.71 10.4431 23.7513 10.8823L17.7155 17.5183C17.7146 17.5386 17.714 17.5589 17.7136 17.5791C17.7127 17.6373 17.7139 17.6954 17.7177 17.7532L17.7333 17.7517C17.782 17.7478 17.7818 17.7478 17.8307 17.7449C17.8805 17.743 17.8804 17.7426 17.9301 17.7426C17.9376 17.7426 17.9453 17.7428 17.9529 17.7431L23.8016 11.7901L23.8025 11.8421C23.8032 11.8941 23.8035 11.9462 23.8035 11.9984C23.8035 12.3153 23.791 12.6293 23.7664 12.9398L18.3322 17.9563C18.3301 17.9709 18.3276 17.9852 18.3255 17.999C18.3209 18.0379 18.32 18.1264 18.3185 18.165C18.3155 18.2437 18.313 18.3223 18.3101 18.401C18.3076 18.4362 18.3036 18.4674 18.2895 18.4998C18.2869 18.5058 18.2838 18.5115 18.2803 18.5168L23.6319 14.0132L23.6171 14.0971C23.5418 14.5162 23.4443 14.9276 23.3259 15.3301L16.4344 20.4849H16.7678L23.0699 16.1006L23.0443 16.169C22.9151 16.5107 22.7704 16.8448 22.6112 17.1705L17.3076 20.4849H17.7924L22.18 17.9725L22.1559 18.0132C21.6103 18.9319 20.9437 19.7703 20.178 20.5064L20.7122 21.1331V23.8015ZM20.4171 21.4281H4.03982V23.5065H20.4171V21.4281ZM15.4236 22.8554C15.4236 22.9188 15.3958 23.0055 15.3403 23.1155C15.2869 23.2213 15.2322 23.3022 15.1762 23.3582C15.1397 23.3582 15.0908 23.3455 15.0294 23.3201C14.9681 23.2948 14.9242 23.2691 14.8978 23.2432C14.9935 23.1993 15.0789 23.1483 15.1539 23.0901C15.2423 23.0219 15.2946 22.9603 15.311 22.9053C15.2872 22.8392 15.2383 22.7813 15.1643 22.7316L15.2737 22.5199C15.3128 22.5537 15.3476 22.605 15.378 22.6737C15.4084 22.7425 15.4236 22.803 15.4236 22.8554ZM20.1406 23.1448L20.0129 23.2654L19.8876 23.1401L20.0176 23.0211L20.1406 23.1448ZM16.5007 23.1337L16.373 23.2543L16.2477 23.129L16.3778 23.01L16.5007 23.1337ZM6.31138 21.8854H6.48361V22.6228C6.48361 22.7192 6.47736 22.7934 6.46492 22.8452C6.4482 22.9131 6.41785 22.9675 6.37384 23.0086C6.32987 23.0496 6.27189 23.0701 6.19989 23.0701C6.11545 23.0701 6.05043 23.038 6.00489 22.9736C5.95935 22.9092 5.93643 22.8148 5.93604 22.6903L6.09887 22.6649C6.10084 22.7316 6.10802 22.7788 6.12051 22.8063C6.1392 22.8482 6.16758 22.8691 6.20574 22.8691C6.24425 22.8691 6.27149 22.8541 6.28748 22.8242C6.30341 22.7943 6.31138 22.7322 6.31138 22.6379V21.8854ZM7.43926 23.0503H7.25125L7.17655 22.7857H6.83445L6.76383 23.0503H6.58049L6.91383 21.8854H7.09658L7.43926 23.0503ZM5.8397 22.0825H5.37795V22.3407H5.80758V22.537H5.37795V22.854H5.85602V23.0503H5.20513V21.8854H5.8397V22.0825ZM7.70429 23.0503H7.53148V21.8854H7.89516C7.98663 21.8854 8.05308 21.8959 8.09453 21.9168C8.13599 21.9377 8.16919 21.9749 8.19407 22.0284C8.21896 22.0819 8.23145 22.1431 8.23145 22.212C8.23145 22.2994 8.21257 22.3715 8.1748 22.4285C8.13707 22.4854 8.08062 22.5213 8.00552 22.5362C8.04289 22.5659 8.07373 22.5984 8.09803 22.6339C8.12237 22.6694 8.15517 22.7324 8.19638 22.823L8.30089 23.0503H8.09424L7.96932 22.7968C7.92496 22.7062 7.89462 22.6491 7.87824 22.6256C7.86191 22.602 7.8446 22.5858 7.82631 22.5771C7.80801 22.5684 7.779 22.564 7.73931 22.564H7.70429V23.0503ZM9.16606 23.0503H8.9781L8.90334 22.7857H8.56125L8.49063 23.0503H8.30733L8.64067 21.8854H8.82338L9.16606 23.0503ZM9.78779 22.0825H9.53442V23.0503H9.36165V22.0825H9.10768V21.8854H9.78779V22.0825ZM10.5233 23.0503H10.232V21.8854H10.5741C10.6418 21.8854 10.6924 21.8892 10.7256 21.8969C10.7589 21.9046 10.7886 21.9206 10.815 21.945C10.8412 21.9694 10.8631 22.0018 10.8806 22.0423C10.8981 22.0829 10.9069 22.1283 10.9069 22.1786C10.9069 22.2332 10.8961 22.2832 10.8745 22.3288C10.8529 22.3744 10.8236 22.4085 10.7866 22.4313C10.8388 22.452 10.8788 22.4872 10.9069 22.537C10.9349 22.5868 10.9489 22.6453 10.9489 22.7126C10.9489 22.7655 10.9399 22.8171 10.9218 22.8671C10.9037 22.9172 10.8789 22.9572 10.8476 22.9871C10.8163 23.017 10.7777 23.0354 10.7317 23.0423C10.703 23.0466 10.6335 23.0492 10.5233 23.0503ZM11.8666 23.0503H11.6786L11.6039 22.7857H11.2618L11.1912 23.0503H11.0079L11.3412 21.8854H11.5239L11.8666 23.0503ZM12.1206 23.0503H11.96V21.8854H12.1281L12.4784 22.6633V21.8854H12.6389V23.0503H12.4656L12.1206 22.2906V23.0503ZM12.9968 23.0503H12.824V21.8854H12.9968V22.4027L13.3459 21.8854H13.5783L13.256 22.3391L13.5958 23.0503H13.3721L13.1369 22.5036L12.9968 22.6982V23.0503ZM5.09364 22.0825H4.84027V23.0503H4.6675V22.0825H4.41354V21.8854H5.09364V22.0825ZM19.0167 22.8902H18.9652C18.9065 22.8902 18.8507 22.8696 18.7978 22.8284C18.7687 22.8057 18.7312 22.7647 18.6852 22.7055C18.6392 22.6462 18.6025 22.6058 18.575 22.5841C18.5781 22.6031 18.5797 22.623 18.5797 22.6436C18.5797 22.6706 18.5768 22.6991 18.571 22.7292C18.5239 22.797 18.4475 22.8429 18.3418 22.8672C18.2752 22.8826 18.1837 22.8902 18.0673 22.8902C17.9093 22.8902 17.8027 22.8791 17.7477 22.857C17.6674 22.8247 17.6272 22.7565 17.6272 22.6523C17.6272 22.5587 17.6597 22.4609 17.7247 22.3589C17.7496 22.3567 17.7654 22.3654 17.7723 22.385C17.7416 22.4353 17.7263 22.4836 17.7263 22.5302C17.7263 22.5968 17.7641 22.6394 17.8397 22.6579C17.8826 22.6684 17.9716 22.6737 18.107 22.6737C18.2318 22.6737 18.323 22.669 18.3806 22.6594C18.4324 22.651 18.4766 22.6338 18.5131 22.6079C18.4518 22.5053 18.3449 22.4194 18.1926 22.3502C18.1958 22.2428 18.2043 22.1526 18.218 22.0797C18.447 21.9507 18.6667 21.8634 18.8771 21.8179L18.782 22.0226C18.7079 22.0406 18.6122 22.0736 18.4949 22.1217C18.4013 22.1598 18.3336 22.1902 18.2918 22.2129C18.3748 22.2441 18.47 22.3012 18.5773 22.3842C18.6175 22.4154 18.6669 22.4612 18.7256 22.5214C18.7785 22.5759 18.8171 22.6118 18.8414 22.6293C18.8816 22.6584 18.9236 22.6729 18.9676 22.6729H19.0485C19.1632 22.6729 19.2205 22.6558 19.2205 22.6214C19.2205 22.5976 19.1907 22.5452 19.1309 22.4643L19.2531 22.2978C19.3133 22.3781 19.3435 22.4622 19.3435 22.55C19.325 22.6621 19.2996 22.7382 19.2674 22.7784C19.2076 22.853 19.1241 22.8902 19.0167 22.8902ZM19.8209 22.8902H19.7694C19.6684 22.8902 19.6026 22.8485 19.5719 22.7649C19.5513 22.7084 19.5376 22.5822 19.5307 22.3866C19.5275 22.2899 19.5235 22.2227 19.5188 22.1852C19.5098 22.1122 19.4929 22.0474 19.468 21.9908L19.6131 21.8385C19.6375 21.8771 19.6525 21.9367 19.6583 22.017C19.6605 22.0461 19.6615 22.1077 19.6615 22.2018V22.4358C19.6615 22.5056 19.6666 22.5564 19.6766 22.5881C19.6946 22.6446 19.7305 22.6729 19.7845 22.6729H19.8527C19.9674 22.6729 20.0248 22.6558 20.0248 22.6214C20.0248 22.5976 19.9949 22.5452 19.9352 22.4643L20.0573 22.2978C20.1176 22.3781 20.1477 22.4622 20.1477 22.55C20.1292 22.6621 20.1038 22.7382 20.0716 22.7784C20.0118 22.853 19.9283 22.8902 19.8209 22.8902ZM14.8375 22.5167C14.8375 22.5416 14.8224 22.5862 14.7923 22.6507C14.7622 22.7152 14.7376 22.7551 14.7185 22.7705C14.6953 22.789 14.6225 22.8122 14.5004 22.8403C14.355 22.8736 14.2204 22.8902 14.0967 22.8902C13.9307 22.8902 13.8165 22.8577 13.7541 22.7927C13.7144 22.7515 13.6946 22.6904 13.6946 22.6095C13.6946 22.4995 13.726 22.3959 13.789 22.2986C13.7916 22.2981 13.7945 22.2978 13.7977 22.2978C13.821 22.2978 13.8371 22.3068 13.8461 22.3247C13.8138 22.4009 13.7977 22.459 13.7977 22.4992C13.7977 22.6161 13.9236 22.6745 14.1752 22.6745C14.4036 22.6745 14.5826 22.6473 14.7122 22.5928C14.69 22.5352 14.6609 22.4823 14.625 22.4342L14.7455 22.2708C14.7698 22.301 14.7918 22.3446 14.8113 22.4017C14.8288 22.4524 14.8375 22.4908 14.8375 22.5167ZM15.9574 22.8902H15.8487C15.7477 22.8902 15.6819 22.8485 15.6512 22.7649C15.6306 22.7084 15.6169 22.5822 15.61 22.3866C15.6068 22.2899 15.6028 22.2227 15.5981 22.1852C15.5891 22.1122 15.5722 22.0474 15.5473 21.9908L15.6925 21.8385C15.7168 21.8771 15.7319 21.9367 15.7377 22.017C15.7398 22.0461 15.7409 22.1077 15.7409 22.2018V22.4358C15.7409 22.5056 15.7459 22.5564 15.7559 22.5881C15.7739 22.6446 15.8099 22.6729 15.8638 22.6729H15.9923C16.0785 22.6729 16.1491 22.6642 16.2041 22.6468C16.2416 22.6351 16.3122 22.6034 16.4158 22.5516C16.2143 22.4723 16.1007 22.4326 16.0748 22.4326C16.0515 22.4326 16.0327 22.44 16.0185 22.4548C16.0058 22.4675 15.9883 22.495 15.9661 22.5373C15.9577 22.541 15.95 22.5428 15.9431 22.5428C15.9289 22.5428 15.9175 22.5357 15.909 22.5214C15.945 22.4279 15.9725 22.3633 15.9915 22.3279C16.0269 22.2613 16.061 22.228 16.0938 22.228C16.1149 22.228 16.1875 22.2557 16.3115 22.3113C16.4355 22.3668 16.5258 22.3946 16.5823 22.3946C16.6448 22.3946 16.742 22.3819 16.8742 22.3565L16.7902 22.5484C16.7209 22.5558 16.6638 22.5643 16.6188 22.5738C16.6506 22.6399 16.7119 22.6729 16.8029 22.6729H16.971C17.0858 22.6729 17.1431 22.6558 17.1431 22.6214C17.1431 22.5976 17.1132 22.5452 17.0535 22.4643L17.1757 22.2978C17.2359 22.3781 17.266 22.4622 17.266 22.55C17.2476 22.6621 17.2222 22.7382 17.1899 22.7784C17.1302 22.853 17.0466 22.8902 16.9393 22.8902H16.8734C16.7841 22.8902 16.713 22.8635 16.6601 22.8101C16.6178 22.7673 16.5811 22.6986 16.5498 22.6039C16.3807 22.7234 16.2799 22.7922 16.2477 22.8101C16.152 22.8635 16.0552 22.8902 15.9574 22.8902ZM10.5444 22.5425H10.4048V22.854H10.5648C10.627 22.854 10.6666 22.8516 10.6833 22.8469C10.709 22.8405 10.7299 22.825 10.7461 22.8004C10.7622 22.7758 10.7703 22.7428 10.7703 22.7014C10.7703 22.6665 10.7641 22.6368 10.7516 22.6125C10.7391 22.5881 10.7211 22.5703 10.6976 22.5592C10.6741 22.5481 10.623 22.5425 10.5444 22.5425ZM11.5485 22.5894L11.4305 22.1572L11.315 22.5894H11.5485ZM7.12107 22.5894L7.00319 22.1572L6.88757 22.5894H7.12107ZM8.84792 22.5894L8.72998 22.1572L8.61441 22.5894H8.84792ZM7.83914 22.0825H7.70429V22.378H7.83211C7.91503 22.378 7.96677 22.3733 7.98742 22.3638C8.00803 22.3542 8.02421 22.3378 8.03586 22.3145C8.04757 22.2912 8.05337 22.262 8.05337 22.2271C8.05337 22.1879 8.0457 22.1562 8.0303 22.1321C8.01496 22.108 7.99327 22.0928 7.96524 22.0865C7.95122 22.0838 7.90918 22.0825 7.83914 22.0825ZM10.5041 22.0793H10.4048V22.3487H10.5181C10.5854 22.3487 10.6272 22.3474 10.6436 22.3447C10.6732 22.3399 10.6964 22.326 10.7133 22.303C10.7303 22.2799 10.7388 22.2496 10.7388 22.212C10.7388 22.176 10.7314 22.1467 10.7168 22.1242C10.7023 22.1017 10.6805 22.088 10.6518 22.0833C10.6347 22.0806 10.5854 22.0793 10.5041 22.0793ZM14.2506 22.1867L14.1332 22.2978L14.0182 22.1812L14.1379 22.0741L14.2506 22.1867ZM14.5409 22.1717L14.4235 22.2819L14.3085 22.1661L14.429 22.0583L14.5409 22.1717ZM19.3554 22.063L19.2277 22.1836L19.1024 22.0583L19.2324 21.9393L19.3554 22.063ZM17.3787 22.0694L17.2692 22.1788L17.1582 22.0812L17.0567 22.1836L16.9401 22.0812L17.0495 21.9694L17.1606 22.0686L17.2621 21.9647L17.3787 22.0694ZM10.7755 20.4849L10.1602 18.8191L10.146 18.8167L10.1019 18.8084C10.0804 18.8024 10.062 18.7957 10.0447 18.7809C10.006 18.7478 9.99169 18.6926 10.0094 18.6449C10.0173 18.6236 10.0301 18.6088 10.046 18.5931L10.0695 18.5735L9.86692 18.0248C9.84739 18.0377 9.8263 18.0482 9.80392 18.0569C9.77476 18.0682 9.74441 18.0763 9.71368 18.0821C9.69784 18.085 9.6821 18.0872 9.66607 18.0887C9.6373 18.0914 9.60676 18.0919 9.57637 18.0891L10.593 20.4849H10.7755ZM10.9483 20.4849H11.1049L10.6691 18.8707C10.5896 18.8668 10.5102 18.8614 10.431 18.854L10.9483 20.4849ZM11.2881 20.4849H11.4447L11.1759 18.8815L11.1037 18.881L10.9432 18.8794L11.2881 20.4849ZM11.6006 20.4849H11.7571L11.6398 18.8849L11.6138 18.8851C11.545 18.8843 11.4762 18.8836 11.4075 18.8831L11.6006 20.4849ZM12.0847 20.4849L12.1259 18.8677C12.0684 18.9042 12.0043 18.8937 11.9402 18.8835C11.926 18.882 11.9117 18.8825 11.8974 18.8824L11.881 18.8823L11.9199 20.4849H12.0847ZM12.4002 20.4849L12.6677 18.2665C12.6634 18.278 12.659 18.2896 12.6543 18.301C12.6431 18.3257 12.6314 18.3499 12.6164 18.3724C12.5658 18.4479 12.4935 18.5085 12.4216 18.5626C12.4087 18.5718 12.3957 18.5809 12.3826 18.5898L12.2436 20.4849H12.4002ZM12.7127 20.4849L13.3122 17.6935C13.2984 17.7235 13.2846 17.7535 13.2703 17.7833C13.2528 17.8182 13.2529 17.8181 13.2346 17.8524C13.1742 17.9568 13.0978 18.0682 12.9743 18.1002C12.9679 18.1019 12.9615 18.1033 12.955 18.1044L12.5561 20.4849H12.7127ZM12.8958 20.4849H13.0524L13.7369 18.3272C13.7259 18.3191 13.7159 18.3099 13.7074 18.2991C13.6904 18.2779 13.6796 18.2517 13.6719 18.2259C13.6545 18.1669 13.6562 18.1045 13.665 18.0442C13.6671 18.0299 13.6704 18.011 13.6732 17.9968C13.6796 17.9648 13.6867 17.9329 13.6925 17.9008C13.7025 17.8345 13.7099 17.7678 13.717 17.7011C13.7251 17.6179 13.7312 17.5345 13.7306 17.4508C13.7305 17.433 13.7301 17.4152 13.7294 17.3974L12.8958 20.4849ZM13.2253 20.4849H13.4078L14.2027 18.6115C14.1892 18.609 14.1759 18.6055 14.1629 18.6003C14.1078 18.5784 14.0657 18.5329 14.048 18.4763C14.0394 18.4489 14.0373 18.4205 14.0363 18.3919L14.0361 18.383C14.0251 18.3815 14.014 18.3803 14.0029 18.3793L13.2253 20.4849ZM13.6055 20.4849H13.794L14.7317 18.7511C14.6681 18.7493 14.6046 18.7441 14.5419 18.732C14.5156 18.7269 14.4888 18.7215 14.4632 18.7126L13.6055 20.4849ZM14.2331 20.4849L15.4093 18.7378C15.3036 18.7394 15.1979 18.7395 15.0923 18.7421L14.0272 20.4849H14.2331ZM14.6967 20.4849L16.1433 18.7055L16.1348 18.706C16.0197 18.7129 15.9047 18.7194 15.7896 18.7248L14.4759 20.4849H14.6967ZM15.259 20.4849L17.0678 18.6439C16.9994 18.6484 16.931 18.6525 16.8626 18.6571L16.6675 18.6704L15.0171 20.4849H15.259ZM15.9415 20.4849L18.2282 18.5606C18.1929 18.5781 18.1501 18.5849 18.1138 18.5875C18.1049 18.5881 18.096 18.5885 18.0871 18.5887C18.07 18.5891 18.0524 18.5888 18.0354 18.5881C18.0106 18.5871 17.9889 18.5854 17.9636 18.5834C17.9333 18.581 17.9033 18.578 17.8729 18.5772C17.8233 18.5781 17.7736 18.5826 17.7241 18.5862C17.6968 18.5885 17.6695 18.5908 17.6423 18.5932L15.5931 20.4849H15.9415ZM9.88418 17.7135C9.88718 17.7132 9.89018 17.713 9.89323 17.7128C9.91339 17.713 9.91325 17.713 9.93346 17.7146C9.93921 17.7155 9.94497 17.7164 9.95067 17.7175L9.9523 17.7178C9.95771 17.7189 9.96311 17.72 9.96848 17.7212L9.97084 17.7218C9.97605 17.723 9.98126 17.7243 9.98638 17.7257L9.99218 17.7273L9.99784 17.729L10.0054 17.7313L10.0113 17.7332L10.0163 17.7349L10.0228 17.7371L10.03 17.7397L10.04 17.7435L10.0486 17.747L10.057 17.7505L10.0669 17.7549L10.0739 17.758L10.085 17.7633C10.1256 17.7829 10.1644 17.8066 10.2018 17.8317C10.269 17.8767 10.3352 17.9265 10.3861 17.9899C10.4927 18.1227 10.5205 18.2979 10.4737 18.4601C10.4587 18.5121 10.4383 18.5609 10.4064 18.6046L10.4058 18.6053C10.4711 18.612 10.5364 18.6171 10.6017 18.6211L10.6106 18.6216L10.6676 18.6247L10.6834 18.6254L10.7426 18.628L10.8128 18.6304L10.8843 18.6323L10.9376 18.6335C11.0033 18.6342 11.069 18.6348 11.1347 18.6353L11.3778 18.637C11.4568 18.6375 11.5359 18.6382 11.6149 18.6392L11.6851 18.6386L11.8117 18.6369L11.8167 18.6369C11.8446 18.6366 11.8725 18.6364 11.9004 18.6365C11.9366 18.6373 11.9365 18.6358 11.9724 18.6396L11.9813 18.641C11.9863 18.6251 11.9919 18.6099 11.9982 18.5945C12.0128 18.5653 12.0302 18.5404 12.0552 18.5192C12.0818 18.499 12.1087 18.4794 12.1361 18.4601L12.2063 18.4127L12.2413 18.3888L12.276 18.3644C12.2963 18.3491 12.316 18.3335 12.3354 18.317L12.3553 18.2987L12.365 18.2894L12.3748 18.2799L12.3843 18.27L12.3885 18.2653L12.3934 18.2598L12.3975 18.2549L12.4019 18.2494L12.4082 18.2411L12.4119 18.2357C12.4246 18.2167 12.4328 18.1943 12.4405 18.1729C12.45 18.1464 12.4592 18.1199 12.4693 18.0936C12.4789 18.0703 12.4789 18.0705 12.4897 18.0477C12.5062 18.0175 12.5238 17.9889 12.5479 17.964C12.5932 17.917 12.6516 17.8883 12.7147 17.8758L12.7257 17.8738C12.7298 17.8731 12.734 17.8724 12.7383 17.8719C12.7928 17.8646 12.8481 17.8713 12.9025 17.8641C12.9102 17.8628 12.918 17.8614 12.9247 17.8572L12.933 17.8505L12.9411 17.8433L12.9437 17.8408L12.9514 17.8331L12.9586 17.8252L12.9656 17.8169L12.9725 17.8082L12.9748 17.8051L12.9813 17.7962L12.9872 17.7875L12.9965 17.7729L13.0033 17.7615L13.0102 17.7497L13.0148 17.7415C13.0217 17.7291 13.0282 17.7167 13.0346 17.7048C13.0715 17.6313 13.1041 17.5558 13.1402 17.4821C13.1613 17.4416 13.185 17.4026 13.2063 17.3623C13.2317 17.3142 13.2561 17.2656 13.2823 17.218C13.2973 17.1925 13.3126 17.1676 13.3293 17.1432C13.348 17.1173 13.3675 17.0924 13.3895 17.0691C13.4083 17.0492 13.4285 17.0305 13.4499 17.0132L13.4601 17.0053L13.4672 16.9998L13.4751 16.9939L13.485 16.9869L13.4904 16.9832L13.5032 16.9746L13.5045 16.9737C13.5102 16.97 13.516 16.9664 13.5218 16.9628C13.6018 16.9136 13.7001 16.8648 13.7944 16.9019C13.8156 16.9103 13.8355 16.9241 13.8526 16.9389L13.8531 16.9394C13.8708 16.9548 13.8861 16.9728 13.899 16.9923C13.9186 17.0221 13.9322 17.0555 13.9417 17.0897C13.9598 17.154 13.9626 17.2211 13.9683 17.2873C13.974 17.3546 13.9773 17.4218 13.9764 17.4895C13.9756 17.5481 13.9723 17.6065 13.9674 17.6649L13.9672 17.6669L13.967 17.6688C13.9659 17.6818 13.9648 17.6948 13.9635 17.7077C13.962 17.7236 13.9603 17.7395 13.9586 17.7554L13.9569 17.7704L13.9543 17.7935L13.9529 17.8052L13.9521 17.8125L13.9508 17.8224L13.9492 17.8356L13.9465 17.8568L13.9454 17.8661L13.9383 17.9196C13.9311 17.9735 13.917 18.026 13.9084 18.0796C13.9064 18.0945 13.905 18.1091 13.9044 18.1242L13.9045 18.1268C13.9411 18.1301 13.9779 18.1309 14.0146 18.1333L14.0336 18.1351L14.0469 18.1365L14.063 18.1385L14.0715 18.1397L14.0791 18.1409L14.0903 18.1429C14.1078 18.1462 14.125 18.1507 14.1419 18.1569C14.2018 18.1789 14.2492 18.2236 14.2693 18.2848C14.2784 18.3127 14.2809 18.3416 14.2817 18.3708L14.305 18.3703L14.3096 18.3703L14.3212 18.3702L14.3374 18.3705C14.3881 18.3742 14.4335 18.3874 14.4743 18.4183C14.4863 18.4274 14.4974 18.4377 14.5082 18.4482C14.5188 18.4587 14.5291 18.4712 14.5416 18.4796L14.5493 18.4819L14.5569 18.484L14.5722 18.4875C14.5832 18.4897 14.5943 18.4915 14.6052 18.4935C14.694 18.5073 14.7837 18.5083 14.8736 18.5055L14.894 18.5048L14.9246 18.5036L15.0488 18.4978L15.0808 18.4965C15.0912 18.4962 15.1016 18.4958 15.112 18.4956L15.1128 18.4956C15.2072 18.4946 15.3016 18.4941 15.3961 18.4926C15.4614 18.4909 15.5267 18.4889 15.5919 18.4865L15.6641 18.4837L15.6859 18.4828L15.7777 18.4789L15.7868 18.4784L15.8716 18.4744L15.8905 18.4735L15.9992 18.4678C16.1177 18.4607 16.2362 18.4532 16.3547 18.4454L16.6213 18.4277L16.9058 18.4085L17.1374 18.393C17.2045 18.3879 17.2715 18.3819 17.3384 18.3755C17.4057 18.3691 17.4729 18.3623 17.5402 18.3559L17.5631 18.3537L17.5921 18.351L17.6114 18.3491L17.6341 18.3471L17.6412 18.3465C17.6625 18.3446 17.6838 18.3428 17.7051 18.341C17.7544 18.3374 17.8037 18.3343 17.8531 18.3317L17.8662 18.3316H17.8707L17.8795 18.3317L17.8883 18.3319L17.9058 18.3326L17.9235 18.3336C17.9702 18.3365 18.0169 18.3416 18.0638 18.3429H18.0657C18.0672 18.2522 18.0726 18.1614 18.0761 18.0707L18.0799 17.9842C18.0567 17.9856 18.0335 17.9874 18.0102 17.9886L17.987 17.9896C17.9702 17.9895 17.9533 17.9893 17.9365 17.989L17.9113 17.9889C17.9029 17.9888 17.8944 17.9888 17.886 17.9889L17.8613 17.9899L17.8375 17.9912L17.7894 17.9944L17.7659 17.9963L17.7386 17.9986L17.7127 18.001C17.6344 18.0084 17.5562 18.0176 17.4778 18.0251C17.4296 18.0292 17.4298 18.0292 17.3814 18.0323C17.3403 18.034 17.2993 18.0353 17.2582 18.0349L17.2458 18.0346L17.2386 18.0344L17.237 18.0343C17.2326 18.0342 17.2277 18.034 17.2188 18.0335C17.1721 18.0286 17.1281 18.0156 17.0852 17.9966C17.0357 17.9746 16.9897 17.9458 16.9401 17.924C16.9265 17.9187 16.9135 17.9149 16.8992 17.9112L16.8869 17.9089L16.8746 17.9069L16.8698 17.9061L16.8622 17.9051L16.8573 17.9044L16.8499 17.9034L16.8406 17.9023L16.8248 17.9006L16.7996 17.8983C16.7669 17.8955 16.7341 17.8933 16.7015 17.8897C16.6736 17.8857 16.6738 17.8857 16.6463 17.8807C16.6164 17.8736 16.5873 17.8659 16.5589 17.8539C16.5289 17.8413 16.5002 17.8264 16.4722 17.8103L16.4703 17.8092C16.4625 17.8047 16.4547 17.8001 16.4469 17.7953L16.446 17.7948L16.4303 17.7851L16.424 17.7811L16.4216 17.7796L16.4186 17.7777L16.4127 17.7739L16.406 17.7696L16.3967 17.7637L16.3817 17.7537L16.3777 17.7512L16.3732 17.7482L16.372 17.7474L16.3344 17.7225L16.314 17.7093L16.3016 17.7012L16.2953 17.6972L16.2726 17.6831C16.2498 17.6701 16.227 17.6577 16.2029 17.6472L16.1922 17.643L16.1894 17.6419L16.1837 17.64L16.1723 17.6363L16.1681 17.635C16.1349 17.625 16.101 17.6193 16.066 17.6141C16.0273 17.6083 15.9884 17.6036 15.9495 17.5999C15.9002 17.5952 15.8506 17.5916 15.8008 17.5895L15.7968 17.5893L15.7688 17.5884L15.7624 17.5882L15.7401 17.5877L15.7325 17.5876L15.7096 17.5875L15.7038 17.5875L15.6751 17.5877L15.6706 17.5878L15.6471 17.5884L15.6378 17.5887L15.6187 17.5895L15.6087 17.59L15.5804 17.5917L15.5524 17.5939L15.5203 17.5971L15.5108 17.5982L15.4869 17.601L15.478 17.6021L15.4467 17.6063L15.399 17.6133C15.3559 17.6198 15.3129 17.6266 15.2698 17.6323C15.2313 17.6367 15.2315 17.6366 15.1928 17.6403C15.1178 17.6454 15.043 17.647 14.9683 17.6373C14.9094 17.6296 14.8552 17.6164 14.8035 17.5862L14.795 17.5811L14.7929 17.5797L14.7916 17.5789L14.7899 17.5779L14.7867 17.5758L14.7843 17.5742L14.7799 17.5714L14.7723 17.5661L14.7703 17.5647L14.7695 17.5642C14.7648 17.5608 14.7601 17.5574 14.7554 17.5539L14.7544 17.5531L14.752 17.5513L14.7463 17.5469L14.7409 17.5425L14.7388 17.541L14.7375 17.5398L14.7354 17.5382L14.7319 17.5353L14.7236 17.5285L14.7168 17.5227L14.7141 17.5205L14.7114 17.5182L14.7085 17.5157L14.7025 17.5104L14.6931 17.5023L14.6788 17.4896C14.6626 17.4754 14.6465 17.4612 14.6301 17.4476C14.5648 17.3968 14.4944 17.3529 14.4279 17.3036C14.4207 17.298 14.4136 17.2923 14.4065 17.2866L14.4007 17.2818L14.3953 17.2773L14.394 17.2762C14.3891 17.2723 14.3844 17.2682 14.3796 17.2641L14.3769 17.2617L14.3666 17.2526L14.3651 17.2513L14.3637 17.25L14.3537 17.2408L14.3508 17.2381L14.3484 17.2359L14.3455 17.2331L14.341 17.2288L14.3366 17.2244L14.3335 17.2213L14.3314 17.2192L14.3287 17.2164L14.319 17.2063L14.3179 17.2052C14.3135 17.2005 14.3092 17.1956 14.3048 17.1907C14.3007 17.1859 14.2966 17.1811 14.2926 17.1762L14.2915 17.1749L14.2888 17.1715L14.2833 17.1648L14.2806 17.1613L14.2787 17.1588L14.2765 17.1558L14.273 17.1514L14.2689 17.1457L14.2664 17.1424L14.265 17.1404L14.2631 17.1378L14.2545 17.1256L14.254 17.1249C14.2505 17.1197 14.2471 17.1144 14.2437 17.1091L14.2432 17.1084L14.2412 17.1051L14.2353 17.0958L14.2337 17.093L14.2324 17.091L14.2302 17.0872L14.2267 17.0813L14.224 17.0765L14.2221 17.0732L14.2205 17.0703L14.2185 17.0667L14.2145 17.0593L14.2123 17.0551L14.2115 17.0536L14.2106 17.0518L14.2037 17.0382L14.203 17.0368L14.2024 17.0355L14.1959 17.0216L14.1951 17.02L14.1943 17.0182L14.1923 17.0136L14.1891 17.0063L14.1875 17.0027L14.1861 16.9994L14.1845 16.9954L14.1826 16.9908L14.1804 16.985L14.1785 16.9803L14.1775 16.9776L14.1765 16.9751L14.1733 16.9664L14.1714 16.961L14.171 16.9598L14.1708 16.9593C14.1642 16.9405 14.1584 16.9213 14.1534 16.902C14.1296 16.8106 14.122 16.7162 14.1069 16.6232C14.103 16.6021 14.0986 16.5813 14.0933 16.5605C14.0845 16.5314 14.0745 16.5023 14.0548 16.4784C14.0373 16.4573 14.0136 16.4434 13.9882 16.4341L13.9764 16.4301L13.9755 16.4299L13.9641 16.4266L13.962 16.4261L13.9509 16.4235L13.9359 16.4205C13.9156 16.4168 13.895 16.4147 13.8745 16.4142L13.8621 16.4141C13.8539 16.4142 13.8457 16.4146 13.8374 16.4152C13.7535 16.4218 13.6754 16.4557 13.6013 16.4932L13.5665 16.5119C13.4903 16.5535 13.4161 16.5989 13.3399 16.6404C13.2907 16.666 13.2402 16.6886 13.1889 16.7088L13.1883 16.709L13.1869 16.7095L13.1803 16.7121L13.1679 16.7168L13.1644 16.7181L13.1608 16.7195L13.1545 16.7217L13.1468 16.7246L13.1401 16.727L13.1345 16.729L13.1301 16.7305L13.1257 16.7321L13.1148 16.7358L13.1081 16.7381L13.106 16.7389C13.0982 16.7415 13.0904 16.744 13.0826 16.7465L13.0815 16.7469L13.0754 16.7488L13.0616 16.7532L13.0583 16.7542L13.0549 16.7552L13.0483 16.7572L13.04 16.7597L13.0337 16.7616L13.0281 16.7632L13.0232 16.7646L13.0184 16.766L13.0084 16.7688L13.0012 16.7709L12.9985 16.7716L12.9968 16.7721L12.9781 16.7771L12.9741 16.7782L12.966 16.7803L12.9532 16.7836L12.9508 16.7842L12.947 16.7852L12.9387 16.7872L12.9314 16.7891L12.9286 16.7897C12.9151 16.793 12.9015 16.7962 12.8879 16.7992L12.8874 16.7994L12.8863 16.7996L12.8652 16.8043L12.8434 16.8089L12.8377 16.8102C12.7289 16.8327 12.6187 16.8492 12.5092 16.8631C12.4989 16.8645 12.4886 16.8658 12.4783 16.8671C12.4416 16.8716 12.4049 16.876 12.3682 16.8804C12.3519 16.8823 12.3354 16.8842 12.3189 16.886L12.3177 16.8861L12.3097 16.8869L12.2966 16.8883L12.2946 16.8884L12.2923 16.8887L12.284 16.8894L12.2726 16.8904L12.2699 16.8906L12.2668 16.8909L12.2587 16.8914L12.2484 16.8922L12.2451 16.8923L12.2413 16.8926L12.2334 16.893L12.2243 16.8935L12.2203 16.8936L12.2157 16.8938L12.2082 16.894L12.2002 16.8943L12.1955 16.8943L12.1901 16.8944L12.1831 16.8944L12.1761 16.8944C12.1042 16.894 12.033 16.884 11.9659 16.8549C11.9153 16.833 11.8707 16.8034 11.8297 16.7693L11.8277 16.7676L11.8218 16.7627L11.8157 16.7573L11.8137 16.7557L11.8126 16.7546C11.803 16.7461 11.7935 16.7374 11.7842 16.7285L11.7829 16.7271L11.7808 16.7252L11.7761 16.7206L11.7697 16.7142L11.7651 16.7096L11.762 16.7064L11.753 16.6973L11.7462 16.6901L11.7434 16.6872L11.7413 16.685C11.7351 16.6784 11.729 16.6717 11.7229 16.6651L11.7221 16.6642L11.7193 16.6611L11.7098 16.6507L11.7058 16.6462L11.7011 16.641L11.6833 16.6209L11.6816 16.619L11.6808 16.618L11.6803 16.6175L11.6486 16.5813L11.6313 16.5618L11.6212 16.5503L11.6163 16.5449L11.5974 16.5242C11.5816 16.5081 11.5654 16.4924 11.5485 16.4774L11.5379 16.4688L11.5343 16.4661L11.5272 16.4606L11.5226 16.4574L11.5162 16.4528L11.511 16.4494L11.505 16.4454L11.4993 16.4418L11.4937 16.4382L11.4873 16.4344L11.4822 16.4314L11.475 16.4274L11.4705 16.4249L11.4624 16.4207C11.3655 16.3705 11.2534 16.3496 11.1472 16.3295L11.0762 16.316L11.0691 16.3146C11.0478 16.3106 11.0266 16.3065 11.0053 16.3022C10.9641 16.2932 10.9232 16.2838 10.8826 16.2728C10.8752 16.2707 10.868 16.2685 10.8607 16.2662L10.859 16.2657L10.8538 16.264L10.8435 16.2607L10.8391 16.2593L10.8357 16.2582L10.831 16.2566L10.8241 16.2542L10.8173 16.2518L10.8125 16.2502L10.8092 16.2489L10.8049 16.2474L10.7951 16.2438L10.7896 16.2417L10.7878 16.241L10.7859 16.2403L10.7695 16.2339L10.7669 16.2329L10.7634 16.2315L10.7482 16.2252L10.7466 16.2245L10.7444 16.2236L10.7295 16.2172C10.66 16.1868 10.5934 16.1503 10.5294 16.1083C10.4536 16.0587 10.3823 16.0029 10.3129 15.9448L10.3111 15.9432L10.3074 15.9402L10.2917 15.9269L10.2856 15.9217L10.2839 15.9203L10.2808 15.9177L10.2584 15.8985L10.2573 15.8976L10.2165 15.8622L10.2044 15.8517L10.2021 15.8498L10.2017 15.8494L10.1501 15.8045L10.0964 15.7582L10.0521 15.7213L10.0361 15.708L10.008 15.6849L9.91462 15.6083L9.89092 15.5887L9.83771 15.545L9.82944 15.5381L9.82364 15.5334L9.79472 15.5093L9.78808 15.5038L9.77835 15.4957L9.76472 15.4842L9.75189 15.4734L9.7333 15.4577C9.652 15.3875 9.57199 15.3159 9.49601 15.2399C9.45017 15.1941 9.40375 15.1482 9.36632 15.0951C9.30239 15.0041 9.26083 14.8988 9.23044 14.7925C9.19021 14.6519 9.16857 14.506 9.15519 14.3604C9.15057 14.31 9.15057 14.2593 9.14708 14.2089C9.14496 14.1877 9.14255 14.1667 9.13822 14.1459C9.1334 14.1262 9.1278 14.1044 9.11275 14.0898C9.10724 14.0853 9.10149 14.0825 9.09465 14.0807C9.07385 14.0769 9.05206 14.0807 9.03155 14.0842C8.99998 14.0896 8.9687 14.0962 8.93703 14.1012C8.92542 14.1024 8.91397 14.1036 8.90256 14.1044L8.90024 14.1046L8.89483 14.1049L8.89169 14.1051L8.89036 14.1052C8.88574 14.1055 8.88111 14.1057 8.87644 14.1058C8.85293 14.1054 8.82972 14.104 8.80656 14.0993C8.77592 14.093 8.74543 14.0813 8.71621 14.0712C8.63954 14.0446 8.56351 14.0077 8.5134 13.9415C8.48222 13.9002 8.46795 13.8493 8.44641 13.8029L8.44332 13.7968C8.43023 13.7915 8.41686 13.787 8.40279 13.7852L8.39709 13.7846L8.39561 13.7845L8.3904 13.7844L8.38494 13.7847L8.37761 13.7855L8.37038 13.787L8.36822 13.7875L8.36291 13.7891L8.36109 13.7897L8.35435 13.7923L8.35283 13.793L8.34766 13.7954L8.34545 13.7965L8.34068 13.7991L8.33886 13.8001L8.33301 13.8038L8.32361 13.8103L8.32228 13.8112L8.31328 13.8182C8.30409 13.8256 8.29533 13.8336 8.28688 13.8412C8.25004 13.878 8.21689 13.9179 8.18134 13.9558C8.13088 14.0069 8.07776 14.0555 8.02878 14.1081C8.01732 14.121 8.00631 14.134 7.99568 14.1476C7.97877 14.1711 7.96308 14.1954 7.94768 14.22L7.93991 14.2325L7.93126 14.2464L7.91719 14.2692L7.90991 14.2809L7.90563 14.2877L7.90411 14.2902L7.90185 14.2937L7.89349 14.3067L7.88813 14.3151L7.8869 14.317L7.88616 14.3181L7.88503 14.3198L7.87913 14.3287L7.86998 14.3421C7.85646 14.3607 7.84259 14.3787 7.82798 14.3965C7.80855 14.4186 7.78918 14.4401 7.76567 14.4579C7.72829 14.4863 7.68531 14.5069 7.64282 14.5265C7.62221 14.536 7.60146 14.5451 7.5808 14.5545L7.56851 14.5601L7.53787 14.5744L7.53531 14.5755C7.52361 14.5811 7.51195 14.5869 7.50039 14.5928C7.48569 14.601 7.47148 14.6095 7.4581 14.6198C7.45441 14.6229 7.45446 14.6228 7.45102 14.6262C7.44733 14.6432 7.44443 14.6603 7.44158 14.6775L7.43887 14.6956C7.44792 14.7107 7.45544 14.7263 7.46277 14.7423C7.47566 14.7734 7.485 14.8059 7.49828 14.8369C7.50703 14.8477 7.51815 14.8563 7.52892 14.8649C7.55552 14.8851 7.58277 14.9043 7.60874 14.9253C7.62536 14.9399 7.62521 14.9398 7.64115 14.9553C7.65787 14.9736 7.65772 14.9736 7.67316 14.993C7.68954 15.0174 7.70434 15.0425 7.719 15.068C7.79124 15.1984 7.84868 15.3358 7.91331 15.47C7.93244 15.5075 7.95181 15.5446 7.97291 15.5811C8.01491 15.6507 8.06237 15.7164 8.12001 15.7734L8.13166 15.7846L8.13491 15.7877L8.14647 15.7983C8.23602 15.8784 8.34319 15.9373 8.45182 15.9872L8.49392 16.0062L8.50705 16.012L8.53169 16.0228L8.59317 16.0494L8.66576 16.0804L8.66797 16.0814C8.6903 16.091 8.71262 16.1006 8.7349 16.1103L8.73712 16.1113C8.76549 16.1237 8.79372 16.1363 8.8218 16.1493C8.85362 16.1645 8.88515 16.1801 8.91647 16.1963C8.96472 16.2224 9.01316 16.2486 9.05693 16.2819C9.14939 16.3523 9.22739 16.4422 9.29791 16.5339C9.31016 16.5498 9.32226 16.5658 9.33411 16.5822L9.34114 16.5918L9.34552 16.598L9.35078 16.6053L9.35707 16.6143L9.36204 16.6214L9.36829 16.6305C9.37321 16.6378 9.37807 16.6451 9.38289 16.6525L9.39204 16.6667L9.39947 16.6786C9.40389 16.6857 9.40822 16.6929 9.41245 16.7001L9.42007 16.7133L9.42883 16.7291L9.43419 16.7391L9.44078 16.7517L9.44619 16.7626C9.4486 16.7675 9.45096 16.7724 9.45332 16.7774C9.48337 16.8417 9.50486 16.9097 9.52005 16.9789C9.52183 16.9871 9.5235 16.9952 9.52512 17.0033L9.52891 17.0235L9.53033 17.0313L9.53274 17.0458L9.53466 17.0577L9.53623 17.0682L9.5385 17.084L9.54204 17.1121L9.54479 17.137L9.54686 17.1583C9.55443 17.2398 9.55689 17.3218 9.55915 17.4035C9.56117 17.4775 9.56584 17.5513 9.5685 17.6252C9.57046 17.6801 9.56805 17.7349 9.57061 17.7897C9.57194 17.8069 9.57297 17.8242 9.57676 17.841C9.61679 17.8522 9.66381 17.8426 9.70241 17.8319C9.70891 17.8298 9.70866 17.8299 9.715 17.8275L9.71859 17.8261C9.72189 17.8177 9.72558 17.8095 9.72986 17.8015C9.73856 17.7879 9.74707 17.7743 9.75951 17.7635C9.76227 17.7611 9.76502 17.7588 9.76787 17.7567L9.77481 17.7515L9.78189 17.7466L9.78961 17.7419L9.79748 17.7375L9.80549 17.7336L9.81366 17.73L9.82197 17.7268L9.83038 17.724L9.83899 17.7215L9.84769 17.7193L9.85905 17.7169L9.86741 17.7156L9.87592 17.7144L9.88418 17.7135ZM10.2159 18.1758L10.2487 18.2793C10.2452 18.243 10.2343 18.2078 10.2159 18.1758ZM7.77742 6.45367C7.7426 6.43901 7.70459 6.43051 7.66879 6.42465L7.64444 6.42106L7.63647 6.42008L7.61985 6.41816L7.61056 6.41723L7.59507 6.41585L7.58548 6.41511L7.56984 6.41413L7.56064 6.41364L7.54333 6.413L7.53585 6.41275L7.51141 6.41241H7.50516L7.48677 6.41255L7.47664 6.41275L7.46213 6.41319L7.45082 6.41359L7.43759 6.41423L7.42559 6.41487L7.40056 6.41649L7.39068 6.41728C7.371 6.41885 7.35138 6.42072 7.33181 6.42288L7.30909 6.42549C7.28823 6.428 7.26743 6.43075 7.24682 6.4337L7.22582 6.43705C7.23394 6.37552 7.24117 6.31395 7.24805 6.25223L7.25184 6.21348L7.25568 6.17285L7.2604 6.12092L7.26345 6.08531L7.26512 6.0652L7.26955 6.00845C7.27309 5.95292 7.27643 5.89745 7.27845 5.84182C7.27977 5.80445 7.28071 5.76663 7.28095 5.72925C7.2812 5.69286 7.28086 5.65583 7.27973 5.61943C7.27845 5.57896 7.27697 5.55599 7.27392 5.51581C7.26807 5.44027 7.25804 5.35996 7.22735 5.28998C7.21122 5.25329 7.18697 5.21788 7.14635 5.2078C7.13366 5.20593 7.1226 5.20574 7.10986 5.20682L7.1013 5.20859L7.09855 5.20923L7.09289 5.21065L7.08965 5.21159L7.08458 5.21306L7.08124 5.21414L7.07632 5.21582L7.07302 5.217L7.06811 5.21887L7.06501 5.2201L7.05979 5.22226L7.05709 5.22344L7.05006 5.22669L7.04932 5.22703L7.03619 5.23372L7.03452 5.23465L7.0233 5.24105L7.01361 5.247L7.0086 5.25014L6.99561 5.2588L6.99434 5.25969L6.97948 5.27031C6.92971 5.30665 6.88457 5.3487 6.83957 5.3907C6.7415 5.48517 6.64644 5.58265 6.54882 5.67761C6.50298 5.72119 6.4568 5.76422 6.40929 5.80602C6.3699 5.84069 6.32918 5.87399 6.28738 5.90571C6.25467 5.93054 6.22113 5.95435 6.18666 5.97668C6.16143 5.993 6.13576 6.00854 6.10945 6.02305C6.02678 6.06859 5.93756 6.10459 5.84383 6.1189C5.82588 6.12166 5.80778 6.12362 5.78973 6.12451L5.77163 6.12495C5.74758 6.125 5.72353 6.12279 5.69978 6.11728C5.66034 6.10813 5.62336 6.09087 5.58977 6.06844C5.51467 6.01838 5.45649 5.94564 5.40396 5.87345L5.38119 5.84163L5.37883 5.83828L5.37755 5.83646L5.37283 5.82963C5.32326 5.75886 5.27634 5.68612 5.22662 5.61545C5.19928 5.57803 5.17134 5.54148 5.14213 5.50549C5.07249 5.42365 4.99454 5.34865 4.89963 5.29667C4.87907 5.28541 4.85792 5.27528 4.83623 5.26637C4.82507 5.2618 4.81342 5.25629 4.80122 5.25487C4.77643 5.25191 4.75037 5.25895 4.72735 5.2675C4.67743 5.28609 4.63194 5.31831 4.59761 5.35893C4.57091 5.3905 4.55099 5.42768 4.54066 5.46781C4.53447 5.49181 4.53206 5.5166 4.52994 5.54124C4.52606 5.58663 4.52503 5.63227 4.52557 5.67786C4.52739 5.82653 4.54504 5.9751 4.56978 6.12156C4.58866 6.2331 4.61198 6.34405 4.64045 6.45362L4.64291 6.46277L4.65456 6.50595L4.65619 6.51185L4.66848 6.55493L4.6702 6.56083L4.68102 6.59678L4.68442 6.6078L4.69755 6.64911C4.72529 6.73439 4.75661 6.81873 4.79448 6.90002L4.80746 6.92712L4.81184 6.93587L4.82099 6.95402L4.83205 6.97483L4.83397 6.97827L4.84651 7.00045L4.85399 7.01304L4.85689 7.01771C4.86314 7.02794 4.86963 7.03807 4.87637 7.04796L4.88581 7.06158L4.89427 7.07318L4.90277 7.08445L4.91123 7.09517C4.9164 7.10161 4.92166 7.10791 4.92707 7.11405L4.94109 7.2644L4.94546 7.30994L4.94782 7.33477L4.95491 7.40515C4.97659 7.5911 5.00246 7.7858 5.08926 7.95453C5.11071 7.99614 5.13692 8.0347 5.16466 8.07232C5.20243 8.12356 5.24152 8.17363 5.28161 8.22305L5.33192 8.28453L5.34215 8.29697L5.36841 8.32864L5.44823 8.42469L5.45885 8.43743L5.48585 8.46994L5.5039 8.49177C5.52057 8.51194 5.53714 8.5322 5.55367 8.55246C5.60108 8.61197 5.6475 8.67192 5.69309 8.7328C5.72339 8.77451 5.75334 8.81645 5.78196 8.85939C5.81058 8.90227 5.8394 8.94378 5.85538 8.99311C5.87456 9.05252 5.88101 9.11571 5.88293 9.17778C5.88524 9.25111 5.88071 9.32458 5.8727 9.39746L5.8722 9.40209L5.87215 9.40278L5.87201 9.40391L5.86822 9.43602C5.83847 9.67415 5.77866 9.90888 5.70691 10.1376C5.68542 10.2061 5.66255 10.2742 5.63816 10.3417C5.62439 10.3798 5.60609 10.4175 5.59665 10.457C5.59542 10.464 5.59454 10.4708 5.59404 10.4779C5.59444 10.5478 5.63658 10.604 5.67986 10.6554C5.72742 10.7089 5.77803 10.7595 5.8245 10.814C5.84073 10.8344 5.85715 10.8553 5.86871 10.879C5.88779 10.918 5.89247 10.9616 5.89522 11.0044C5.89753 11.058 5.89679 11.1117 5.89915 11.1654L5.90063 11.1827L5.90097 11.186L5.90279 11.2025C5.90629 11.2308 5.91199 11.2588 5.92247 11.2856C5.93668 11.3222 5.95925 11.3517 5.98684 11.3761C5.99727 11.3853 6.00843 11.3938 6.02014 11.4017L6.03282 11.4099L6.04591 11.4176L6.05914 11.4248L6.07114 11.431L6.07443 11.4326L6.08918 11.4395L6.0941 11.4417L6.11136 11.449L6.12961 11.4562L6.13433 11.458L6.14313 11.4613L6.16153 11.4679L6.16861 11.4704L6.19217 11.4784C6.22064 11.4879 6.23377 11.4916 6.26269 11.5003C6.3701 11.5311 6.47839 11.5586 6.58575 11.5894C6.598 11.593 6.61024 11.5967 6.62244 11.6005L6.65495 11.6106L6.66321 11.6133L6.68937 11.6217L6.70172 11.6258L6.71106 11.629L6.7236 11.6332L6.73196 11.6361L6.73998 11.6389L6.74814 11.6418L6.75773 11.6452L6.76801 11.649L6.77809 11.6526L6.78473 11.6552L6.79162 11.6577L6.80377 11.6624L6.81586 11.6671L6.82634 11.6713C6.84788 11.6799 6.86932 11.6889 6.89057 11.6985C6.95593 11.7279 7.01947 11.7616 7.07956 11.8007C7.11355 11.8229 7.1464 11.8467 7.17782 11.8724C7.2031 11.893 7.22823 11.9141 7.24845 11.94C7.31622 12.0268 7.32876 12.1444 7.33112 12.2507C7.33166 12.2759 7.33146 12.3013 7.33097 12.3265C7.33018 12.3664 7.32851 12.3993 7.32689 12.4409C7.32473 12.4966 7.32448 12.4964 7.3232 12.5521C7.323 12.5867 7.32364 12.6209 7.32551 12.6554C7.33161 12.7275 7.34513 12.809 7.40405 12.8579C7.42525 12.8755 7.45097 12.884 7.47433 12.8979C7.48643 12.9067 7.48623 12.9066 7.49754 12.9164C7.54092 12.9607 7.56723 13.0166 7.58705 13.0748C7.60726 13.1343 7.62128 13.1962 7.63141 13.2582C7.65497 13.4018 7.66574 13.5473 7.66888 13.693L7.66967 13.7356L7.66982 13.7493V13.7608L7.67002 13.7836L7.66997 13.7962L7.67002 13.8041L7.66992 13.8152L7.66987 13.8315L7.66962 13.8589L7.66947 13.868L7.66938 13.8795L7.66893 13.9008L7.66874 13.9137L7.66859 13.9201L7.66844 13.9275L7.6677 13.9554L7.66741 13.9685L7.66726 13.9718C7.66682 13.9889 7.66623 14.006 7.66564 14.0232L7.66342 14.0694L7.72588 14.1127L7.75465 14.0665C7.76434 14.0511 7.77408 14.0358 7.78411 14.0206L7.79532 14.0054L7.80678 13.9904L7.81642 13.9783C7.821 13.9725 7.82572 13.9667 7.83054 13.961C7.88931 13.8948 7.956 13.8367 8.01644 13.7722C8.04191 13.7437 8.06704 13.715 8.09321 13.6872C8.1177 13.6627 8.14239 13.6387 8.16998 13.6178C8.18773 13.6043 8.20642 13.5921 8.22589 13.5816L8.2342 13.5772L8.24261 13.573L8.25137 13.5689L8.25973 13.5652L8.26843 13.5617L8.27684 13.5585L8.28919 13.5543L8.29499 13.5525L8.30291 13.5501L8.3152 13.547L8.32224 13.5454L8.32961 13.5439L8.34186 13.5418L8.35017 13.5407L8.35691 13.54C8.36099 13.5395 8.36502 13.5392 8.3691 13.5389C8.37456 13.5386 8.38007 13.5383 8.38553 13.5383L8.40201 13.5385C8.41297 13.5389 8.42389 13.5398 8.43481 13.5412C8.46505 13.5452 8.49476 13.5531 8.52328 13.5639C8.55402 13.5754 8.58372 13.589 8.60831 13.6111C8.64303 13.6422 8.66453 13.6856 8.68218 13.7279C8.69133 13.7497 8.69856 13.7737 8.71056 13.7943C8.71616 13.8006 8.72315 13.8053 8.73018 13.8099C8.75157 13.8222 8.77439 13.8311 8.79766 13.8392C8.80533 13.8418 8.81413 13.8452 8.82333 13.8485L8.83316 13.8519L8.84551 13.8556C8.85033 13.857 8.85515 13.8581 8.85982 13.8589C8.86902 13.86 8.87806 13.8599 8.88731 13.8593C8.93098 13.8544 8.97382 13.8443 9.01724 13.8376C9.03765 13.8354 9.05727 13.8337 9.07773 13.8332C9.10773 13.8339 9.13714 13.8368 9.16606 13.8452C9.18534 13.8508 9.20408 13.8583 9.22173 13.8678C9.2415 13.8786 9.25999 13.8914 9.27676 13.9064C9.3495 13.9714 9.37601 14.0638 9.38904 14.157C9.39504 14.2175 9.39553 14.2782 9.40016 14.3387C9.41402 14.4764 9.43286 14.6145 9.47343 14.7472C9.49896 14.8305 9.53309 14.912 9.58807 14.9803C9.60209 14.9961 9.61655 15.0115 9.63125 15.0266L9.66986 15.066L9.70384 15.099L9.73827 15.1314L9.75213 15.1443L9.77304 15.1635L9.78779 15.1768L9.8082 15.1952L9.8232 15.2085L9.84381 15.2267L9.85851 15.2395L9.8798 15.258L9.89372 15.27L9.91639 15.2893L9.92869 15.2998L9.94984 15.3176L9.97939 15.3423L10.0293 15.3838L10.0418 15.3941C10.1128 15.4528 10.1844 15.5111 10.2552 15.5704C10.3336 15.6374 10.4107 15.7056 10.4897 15.7718C10.5503 15.8211 10.6126 15.8691 10.6783 15.9114L10.7035 15.9272L10.7289 15.9423L10.7548 15.9568L10.7676 15.9638L10.7808 15.9706L10.794 15.9772L10.8073 15.9836L10.8208 15.9897L10.8343 15.9957L10.8479 16.0015L10.8617 16.007L10.8755 16.0123L10.8895 16.0173L10.9127 16.0252L10.936 16.0324L10.9454 16.0352L10.9594 16.0392L10.9697 16.0419L10.983 16.0454L10.9939 16.0482L11.0064 16.0513L11.0182 16.054L11.0294 16.0566L11.0428 16.0596L11.0677 16.0649C11.1414 16.0801 11.216 16.092 11.2892 16.1071C11.3222 16.1146 11.3548 16.1223 11.3875 16.131C11.4091 16.1372 11.4306 16.1437 11.4519 16.151L11.4626 16.1546L11.481 16.1611L11.4994 16.168L11.5177 16.1753L11.5305 16.1807L11.5454 16.1873L11.5536 16.191L11.5601 16.1941L11.5712 16.1995L11.5747 16.2013L11.5889 16.2086C11.5943 16.2114 11.5995 16.2143 11.6047 16.2173L11.6175 16.2246L11.6228 16.2278L11.6313 16.2331L11.6394 16.2383L11.645 16.242L11.6557 16.2493L11.6585 16.2512L11.6717 16.2609L11.682 16.2688L11.691 16.276C11.6965 16.2805 11.702 16.285 11.7073 16.2896L11.7119 16.2936L11.7178 16.2989L11.7264 16.3066L11.7312 16.3109L11.7365 16.3161L11.7437 16.3228L11.7499 16.3288L11.7545 16.3335L11.7605 16.3395L11.7681 16.3471L11.7771 16.3564L11.786 16.3658L11.7933 16.3737L11.8093 16.3913L11.8208 16.4042C11.8591 16.4471 11.8963 16.4915 11.9357 16.5332C11.9512 16.5488 11.9671 16.5638 11.9838 16.5781C12.0117 16.6006 12.0416 16.622 12.0757 16.634C12.1083 16.6454 12.1435 16.6485 12.1779 16.6488L12.2017 16.6485L12.2212 16.6477L12.2409 16.6465L12.2605 16.6449L12.2802 16.643L12.2998 16.6408L12.3394 16.6362C12.3755 16.6319 12.4116 16.6276 12.4476 16.6231L12.4908 16.6175L12.5276 16.6126C12.632 16.5982 12.7361 16.5807 12.8387 16.5575C12.8507 16.5547 12.8627 16.5519 12.8747 16.549L12.8978 16.5433L12.916 16.5386L12.9375 16.5328L12.9593 16.5267L12.981 16.5204L13.0021 16.5139L13.0244 16.5068L13.0464 16.4993L13.0563 16.4959L13.0685 16.4915L13.0782 16.4879L13.0904 16.4834L13.0999 16.4797L13.1122 16.4748L13.1215 16.4711L13.134 16.4659L13.143 16.4621L13.1559 16.4564L13.1643 16.4527L13.1854 16.4429L13.2064 16.4327C13.3021 16.3829 13.3931 16.3248 13.4886 16.2746C13.5394 16.2489 13.5913 16.2254 13.645 16.2071L13.6559 16.2034L13.6733 16.1979L13.6907 16.1928L13.7083 16.1882L13.726 16.184L13.7445 16.1801C13.7502 16.179 13.7561 16.1779 13.7619 16.1769L13.7767 16.1747L13.7916 16.1727L13.8066 16.1711L13.8157 16.1702L13.8217 16.1697L13.8353 16.1689C13.8466 16.1683 13.858 16.168 13.8695 16.168H13.8708L13.8832 16.1681L13.8987 16.1686L13.9079 16.1691L13.9142 16.1695L13.9276 16.1705C13.9393 16.1716 13.951 16.1729 13.9626 16.1747L13.9758 16.1768L13.9911 16.1796L14.0062 16.1828L14.0187 16.1859C14.0305 16.1888 14.0422 16.1922 14.0538 16.1961C14.1163 16.2166 14.174 16.249 14.2205 16.2955C14.2449 16.3198 14.2658 16.3477 14.2829 16.3776C14.3038 16.4143 14.3187 16.453 14.33 16.493L14.3325 16.502L14.3355 16.5136C14.3369 16.5192 14.3382 16.5249 14.3395 16.5306C14.3412 16.5382 14.3429 16.5459 14.3444 16.5535L14.3482 16.5729L14.3495 16.5808L14.3516 16.593L14.3544 16.6102L14.358 16.6342L14.3634 16.6737L14.3656 16.6904L14.3708 16.7284L14.3738 16.7489L14.3759 16.7626L14.377 16.7699L14.3811 16.7938C14.3858 16.8169 14.3912 16.8395 14.3975 16.8621L14.4017 16.8743L14.4061 16.8864L14.4107 16.8983L14.4157 16.91L14.421 16.9217L14.4265 16.9332L14.4323 16.9445L14.4385 16.9556L14.4449 16.9666L14.4516 16.9774L14.4586 16.988L14.4659 16.9985L14.4735 17.0087L14.4815 17.0187L14.4897 17.0285L14.4987 17.0385C14.5225 17.0643 14.5494 17.0864 14.577 17.1081C14.6396 17.1544 14.7049 17.197 14.7677 17.2431L14.7854 17.2574L14.8028 17.272L14.8115 17.2795C14.8245 17.2907 14.8373 17.3022 14.8503 17.3134L14.8555 17.3179L14.8727 17.3327L14.8898 17.3467L14.9071 17.3602C14.92 17.3691 14.9328 17.3778 14.9475 17.3836C14.9642 17.3893 14.9825 17.3912 14.9999 17.3934L15.0129 17.395L15.0258 17.3962L15.0387 17.3972L15.0515 17.398L15.0642 17.3985L15.0754 17.3987L15.0991 17.3988L15.1081 17.3986C15.2371 17.3959 15.3645 17.3687 15.4922 17.3529C15.532 17.3488 15.5318 17.3489 15.5718 17.3459C15.5857 17.3452 15.5995 17.3447 15.6134 17.3442L15.6212 17.3439C15.6346 17.3435 15.648 17.3431 15.6614 17.3429L15.6833 17.3426L15.7106 17.3425C15.7246 17.3425 15.7387 17.3426 15.7527 17.3428L15.7597 17.343C15.7735 17.3432 15.7872 17.3436 15.8009 17.344L15.8065 17.3442C15.8356 17.3452 15.8646 17.3467 15.8935 17.3487L15.8969 17.3489C15.9118 17.3499 15.9267 17.351 15.9416 17.3523C15.9668 17.3544 15.9919 17.3569 16.0171 17.3597C16.1059 17.3697 16.1968 17.3807 16.2806 17.4133L16.3011 17.4217L16.3213 17.4307L16.3293 17.4346L16.3347 17.4372L16.3411 17.4404L16.3534 17.4467L16.3605 17.4505L16.3718 17.4567L16.3798 17.4612L16.39 17.4671L16.3989 17.4723L16.408 17.4778L16.4177 17.4837L16.4259 17.4888L16.4436 17.5L16.4625 17.5123L16.4734 17.5193L16.5105 17.5438L16.5482 17.5685L16.5661 17.5799L16.5844 17.5913L16.6022 17.6012L16.6209 17.6112C16.6317 17.6168 16.6428 17.6222 16.6541 17.6271C16.6794 17.6373 16.7057 17.6419 16.7326 17.6458C16.7875 17.6519 16.8427 17.6547 16.8976 17.6614C16.9288 17.6662 16.9595 17.6723 16.9895 17.6812L17.0007 17.6846L17.0065 17.6864L17.0174 17.6903L17.0187 17.6908C17.0238 17.6926 17.0289 17.6946 17.034 17.6967C17.086 17.7182 17.134 17.7481 17.185 17.7718C17.1962 17.7765 17.2072 17.7808 17.2188 17.7844C17.2254 17.786 17.2319 17.7876 17.2387 17.7883C17.2531 17.7891 17.2676 17.7893 17.282 17.7892L17.3254 17.7886C17.3749 17.7865 17.4242 17.7827 17.4734 17.7782C17.4576 17.5507 17.4744 17.321 17.5186 17.0973C17.5204 17.0881 17.5223 17.0789 17.5242 17.0697L17.5295 17.0453L17.5353 17.0194L17.538 17.0077C17.5473 16.9684 17.5574 16.9295 17.5687 16.8908C17.5865 16.8295 17.6063 16.7691 17.635 16.712C17.6971 16.5885 17.7891 16.4833 17.8816 16.3818C17.9118 16.3487 17.9422 16.3159 17.9721 16.2826C17.9852 16.2681 17.9973 16.2527 18.0117 16.2394C18.0185 16.2338 18.0255 16.2293 18.0333 16.2251C18.0781 16.205 18.1278 16.2124 18.1743 16.2219L18.1777 16.2226C18.2311 16.2349 18.2835 16.2518 18.337 16.2637C18.3551 16.2672 18.3755 16.2713 18.3953 16.2711L18.4018 16.2709C18.4149 16.27 18.4275 16.2671 18.4388 16.2605C18.4569 16.2499 18.472 16.2328 18.4838 16.2157C18.511 16.1761 18.5257 16.1252 18.5215 16.0771C18.5196 16.0559 18.5137 16.034 18.5003 16.0171C18.4921 16.0069 18.4822 16.0011 18.471 15.9945C18.4414 15.9796 18.4108 15.9677 18.3799 15.9555C18.3588 15.9471 18.3379 15.9384 18.3171 15.9292C18.297 15.9195 18.2779 15.9093 18.2588 15.8976C18.2398 15.8846 18.2216 15.8702 18.2083 15.8511C18.1875 15.821 18.1811 15.7835 18.1759 15.7481C18.1685 15.6868 18.1666 15.625 18.1621 15.5634L18.1609 15.5478L18.1592 15.5285L18.1565 15.5019C18.1482 15.4404 18.1356 15.3793 18.1089 15.3228L18.1037 15.3123L18.1019 15.3089L18.0982 15.3019L18.096 15.298L18.0923 15.2917L18.09 15.2877L18.0862 15.2816L18.0838 15.2778L18.0796 15.2714L18.0773 15.268L18.0719 15.2602L18.0707 15.2585L18.0638 15.2493L18.0616 15.2464L18.0567 15.2402L18.0538 15.2367L18.0493 15.2312L18.0462 15.2275L18.0417 15.2223L18.0385 15.2187L18.0357 15.2156L18.0225 15.2016L18.0218 15.201L18.0081 15.1874L18.0065 15.1859L17.9924 15.1728L17.9902 15.1709L17.9816 15.1634L17.9712 15.1545L17.9632 15.1479L17.953 15.1398L17.9445 15.1331L17.9346 15.1257L17.9255 15.1189L17.9165 15.1123C17.9015 15.1015 17.8863 15.0911 17.8711 15.081L17.8669 15.0782C17.8531 15.069 17.8392 15.0601 17.8255 15.0514C17.7456 15.0021 17.6647 14.9545 17.586 14.9034C17.5444 14.8754 17.5035 14.8462 17.4645 14.8149L17.4628 14.8135L17.4592 14.8106L17.451 14.8039L17.4458 14.7996L17.4426 14.7969L17.4397 14.7945L17.4349 14.7905L17.4266 14.7833L17.4228 14.78L17.4213 14.7787C17.4153 14.7734 17.4093 14.768 17.4034 14.7626L17.4029 14.7621L17.3883 14.7484L17.3861 14.7462L17.3844 14.7446L17.3807 14.741L17.3733 14.7338L17.3689 14.7292L17.3658 14.7262L17.363 14.7233L17.3586 14.7188L17.3514 14.7111L17.3477 14.7072L17.3463 14.7056C17.3408 14.6998 17.3354 14.6938 17.3302 14.6878C17.2773 14.6271 17.2314 14.5599 17.1963 14.4874C17.193 14.4805 17.1898 14.4736 17.1867 14.4667L17.1861 14.4655L17.1859 14.4649C17.183 14.4582 17.1801 14.4516 17.1774 14.4449L17.1767 14.4433L17.1763 14.4423C17.1736 14.4357 17.171 14.4291 17.1686 14.4224L17.168 14.4211L17.1676 14.4198L17.1661 14.4158L17.1632 14.4074L17.16 14.3986L17.159 14.3953L17.1577 14.3915L17.155 14.3829L17.1527 14.376L17.1517 14.3724L17.15 14.3671L17.1476 14.3581L17.1461 14.3532L17.1453 14.3499L17.1432 14.3425L17.1408 14.333L17.1402 14.3304L17.1396 14.328L17.1371 14.3178L17.1348 14.3074L17.1317 14.2929C17.0915 14.0933 17.1175 13.8812 17.1503 13.6815C17.1588 13.6294 17.1629 13.6082 17.1736 13.5481C17.1768 13.533 17.1804 13.5183 17.1848 13.5035C17.2137 13.417 17.2661 13.3434 17.326 13.2753C17.3908 13.2017 17.4628 13.1347 17.5298 13.0632C17.5502 13.0406 17.55 13.0408 17.5696 13.0178C17.627 12.9459 17.6835 12.8588 17.6573 12.7626C17.6514 12.7408 17.6429 12.72 17.6315 12.7006C17.6175 12.6767 17.5996 12.6553 17.5792 12.6365C17.5487 12.6087 17.5131 12.5868 17.4759 12.5691C17.4699 12.5663 17.4639 12.5635 17.4579 12.5609L17.4434 12.5548L17.4294 12.5493L17.4259 12.548L17.4133 12.5433L17.4082 12.5416L17.3964 12.5375L17.3903 12.5356L17.379 12.5321L17.3722 12.5301L17.3613 12.5269L17.3539 12.5249L17.3434 12.5221L17.3257 12.5177L17.3077 12.5136L17.2995 12.5119L17.2891 12.5098L17.2808 12.5082L17.2704 12.5063L17.2621 12.5048L17.2515 12.503L17.2435 12.5017L17.2326 12.5L17.2248 12.4988L17.2135 12.4972L17.2062 12.4962L17.1691 12.4917L17.1449 12.4892L17.1369 12.4885L17.1207 12.487L17.0964 12.4851L17.0862 12.4844L17.072 12.4835L17.0616 12.4829L17.0476 12.4823L17.0371 12.4818L17.0232 12.4813L17.0126 12.481L16.9987 12.4806L16.9881 12.4804L16.9741 12.4802L16.9636 12.4801H16.94L16.9264 12.4803L16.9164 12.4804L16.8926 12.4809L16.8765 12.4814L16.869 12.4817L16.8518 12.4824L16.8459 12.4826L16.8271 12.4835L16.8234 12.4837L16.8024 12.485L16.7864 12.486C16.7779 12.4866 16.7694 12.4872 16.761 12.4879L16.7518 12.4887C16.722 12.2888 16.6987 12.0878 16.6814 11.8864C16.6636 11.6801 16.6519 11.473 16.6521 11.2659C16.6521 11.2343 16.6525 11.2026 16.6532 11.1709L16.654 11.1384L16.6555 11.0958L16.6561 11.0832L16.6569 11.0654L16.6574 11.0534L16.658 11.0438L16.6587 11.0305L16.6598 11.0109L16.6608 10.9957L16.663 10.9652C16.6639 10.9521 16.6649 10.9391 16.666 10.9261C16.6687 10.8944 16.6723 10.8629 16.6763 10.8314C16.6786 10.8141 16.6814 10.7977 16.682 10.7804C16.6817 10.7704 16.6807 10.7611 16.6789 10.7512C16.6577 10.6673 16.5767 10.6145 16.5083 10.5707C16.4939 10.5615 16.4794 10.5524 16.4649 10.5433C16.4361 10.5251 16.4075 10.507 16.3792 10.4879C16.3593 10.4737 16.3594 10.4739 16.34 10.4591C16.3358 10.4555 16.3315 10.452 16.3273 10.4483L16.3258 10.4471L16.3233 10.4448L16.3175 10.4398L16.3144 10.4369L16.3118 10.4346L16.3076 10.4306L16.3066 10.4296L16.3061 10.4293C16.3029 10.4262 16.2998 10.4231 16.2967 10.4198L16.296 10.4192L16.2952 10.4183C16.291 10.4139 16.287 10.4095 16.2831 10.4049L16.2811 10.4025L16.2807 10.4021L16.2796 10.4007L16.2776 10.3982L16.2766 10.3967L16.2758 10.3957L16.2739 10.3934L16.2726 10.3914L16.2721 10.3908L16.2712 10.3895C16.2613 10.3756 16.2532 10.3606 16.2477 10.3441C16.2345 10.3044 16.2416 10.2624 16.2525 10.223C16.2788 10.1272 16.3351 10.0404 16.3923 9.96067C16.4176 9.92551 16.4439 9.89118 16.4707 9.85724C16.4992 9.82105 16.526 9.78839 16.5557 9.7519C16.6038 9.69274 16.6521 9.63367 16.6991 9.57358C16.7261 9.53807 16.7525 9.50227 16.7783 9.46582C16.8377 9.3776 16.8955 9.2844 16.9228 9.18043C16.9515 9.07057 16.966 8.9576 16.9702 8.84419L16.9713 8.80682L16.9715 8.79462L16.9717 8.76929L16.9717 8.75488L16.9715 8.73167L16.9712 8.71657L16.9705 8.6937L16.97 8.67865L16.9689 8.6552L16.9682 8.64098L16.9664 8.61472L16.9657 8.60341L16.9626 8.56643L16.9616 8.5562L16.9588 8.52925L16.9571 8.514L16.9544 8.49212L16.9522 8.47539L16.9493 8.45508L16.9467 8.43758L16.9437 8.4183L16.9407 8.4002L16.9374 8.38181L16.934 8.36312L16.9308 8.34659C16.9273 8.32869 16.9236 8.31089 16.9197 8.29313C16.9136 8.26599 16.907 8.23894 16.9 8.21204C16.8715 8.10438 16.836 7.99648 16.7727 7.90383C16.6972 7.79313 16.5912 7.70682 16.4762 7.63959C16.4425 7.61987 16.4079 7.60177 16.3727 7.58495C16.3533 7.5757 16.3339 7.56641 16.3136 7.55957C16.2838 7.54954 16.2529 7.54383 16.2219 7.53897C16.143 7.52874 16.0635 7.5247 15.9845 7.5159C15.9303 7.50813 15.8615 7.5011 15.823 7.45688C15.8025 7.43328 15.7911 7.40357 15.781 7.37446C15.7662 7.32616 15.7542 7.27713 15.7391 7.22894C15.7271 7.19535 15.713 7.16072 15.6864 7.13589L15.6809 7.13112L15.679 7.12964L15.6751 7.12679L15.6728 7.12522L15.6692 7.12286L15.6666 7.12138L15.663 7.11936L15.6603 7.11799L15.6565 7.11622L15.6539 7.11499L15.6499 7.11336L15.6473 7.11233L15.6428 7.11076L15.6406 7.10997L15.6339 7.10795L15.6322 7.10746L15.6271 7.10614L15.6166 7.10382L15.608 7.10225L15.6023 7.10122L15.5936 7.09994L15.5877 7.0991L15.5742 7.09733C15.5194 7.0903 15.464 7.08818 15.4088 7.08715C15.2328 7.08376 15.0565 7.09232 14.8806 7.10446L14.7972 7.11046L14.705 7.1175L14.6713 7.12035C14.661 7.10318 14.6502 7.08651 14.6391 7.06984C14.6179 7.0395 14.5958 7.01019 14.5729 6.98107C14.4875 6.8773 14.3903 6.78376 14.2794 6.70749C14.2318 6.67478 14.1818 6.64306 14.1288 6.61995L14.1162 6.61473L14.1123 6.61316L14.1034 6.60972L14.0992 6.60814L14.0899 6.60485L14.0865 6.60367L14.0741 6.59954L14.0714 6.5987C14.0286 6.58522 13.9843 6.57618 13.9401 6.56949C13.8494 6.55572 13.7573 6.55193 13.6656 6.55232C13.5283 6.55286 13.3912 6.56324 13.2547 6.5777L13.2369 6.57962L13.1813 6.58581L13.1073 6.59462C13.0386 6.60303 12.9699 6.61237 12.901 6.62004C12.8726 6.62319 12.8445 6.6254 12.8163 6.62953C12.7982 6.63288 12.7805 6.63691 12.7627 6.64163C12.6423 6.67808 12.5388 6.74924 12.4417 6.82763C12.3412 6.90883 12.2469 6.99735 12.1479 7.08041C12.1148 7.10732 12.1149 7.10722 12.0813 7.13343C11.9945 7.1981 11.9052 7.25525 11.802 7.28962L11.7836 7.29508L11.7657 7.29976L11.7656 7.30408C11.7629 7.37456 11.7558 7.44724 11.7403 7.51772C11.7369 7.54767 11.7333 7.57762 11.7297 7.60757C11.7236 7.65173 11.7178 7.69585 11.71 7.73977C11.7048 7.76922 11.6989 7.79854 11.6917 7.8276C11.6853 7.85362 11.678 7.87939 11.6689 7.90462C11.6562 7.94003 11.6396 7.97553 11.617 8.00598L11.6132 8.01114L11.61 8.01498L11.6094 8.01581L11.6084 8.01694L11.6048 8.02142L11.6023 8.02407L11.6013 8.02525L11.5994 8.02727L11.5958 8.0312L11.5939 8.03302L11.5927 8.03425L11.5899 8.03696L11.5863 8.0405L11.5841 8.04242L11.5833 8.04311C11.5805 8.04561 11.5776 8.04802 11.5746 8.05033L11.5741 8.05078L11.5735 8.05122C11.5706 8.05353 11.5676 8.05575 11.5645 8.05786L11.5599 8.06091L11.5594 8.06125L11.5588 8.06165L11.5561 8.06332L11.5542 8.0645L11.5535 8.06494L11.5501 8.06686L11.5483 8.06789L11.5423 8.07109C11.5271 8.07876 11.511 8.08437 11.4944 8.08806C11.4834 8.09056 11.4728 8.09224 11.4625 8.09268L11.4563 8.09278C11.4358 8.09263 11.4166 8.08712 11.3981 8.07266C11.3778 8.05678 11.3618 8.03514 11.3483 8.0135C11.3419 8.00347 11.3359 7.99329 11.3299 7.98306C11.2806 8.00283 11.2297 8.01832 11.178 8.03037C11.0547 8.05909 10.9282 8.0674 10.802 8.0707C10.713 8.07207 10.624 8.07089 10.535 8.07011C10.4586 8.06942 10.3822 8.07124 10.3058 8.06902C10.245 8.06627 10.1847 8.06051 10.1241 8.05343C10.0796 8.04738 10.0352 8.0406 9.99085 8.03352C9.98446 8.03406 9.97811 8.03455 9.97172 8.03499C9.95146 8.03642 9.9311 8.0375 9.91074 8.03794L9.89043 8.03824C9.80918 8.03843 9.72872 8.02811 9.65363 7.99358C9.64266 7.98857 9.63194 7.98316 9.62141 7.97745C9.59505 7.9746 9.56869 7.97243 9.54224 7.97155C9.48061 7.96948 9.41889 7.97421 9.35727 7.97455C9.33017 7.97401 9.30357 7.97263 9.27662 7.97007C9.24347 7.9656 9.21057 7.95896 9.18013 7.94465C9.15293 7.93186 9.12878 7.91312 9.10626 7.8935C9.07439 7.86572 9.04518 7.83463 9.01754 7.80272C8.95587 7.73155 8.89793 7.65729 8.83533 7.58696C8.81679 7.56685 8.79795 7.54728 8.77847 7.5281C8.71838 7.47238 8.65159 7.42034 8.56735 7.41346L8.55667 7.41316L8.5013 7.39644C8.48728 7.39772 8.47327 7.3989 8.4592 7.39998L8.4533 7.40048L8.4292 7.40215C8.41297 7.40284 8.39674 7.40343 8.38051 7.40357H8.36428C8.34265 7.40338 8.32101 7.4023 8.29947 7.39964C8.26474 7.39536 8.23017 7.3873 8.19835 7.37244C8.15193 7.35066 8.11799 7.3152 8.09232 7.27325L7.929 7.22407C7.90042 7.15694 7.86693 7.09202 7.83821 7.02499C7.82729 6.99804 7.81691 6.97099 7.8088 6.94306C7.79287 6.88807 7.78372 6.83048 7.77536 6.77393C7.75992 6.66996 7.75116 6.55739 7.77742 6.45367ZM8.88598 16.4621L9.31542 17.4741C9.31458 17.4528 9.31389 17.4316 9.3133 17.4104C9.31183 17.3577 9.30996 17.3052 9.30735 17.2525C9.30445 17.2103 9.30111 17.1685 9.29604 17.1265C9.28537 17.0497 9.26983 16.9734 9.23944 16.9016C9.20147 16.8119 9.14108 16.7306 9.08044 16.6551C9.02487 16.5859 8.96378 16.514 8.88923 16.4642L8.88598 16.4621ZM8.60005 9.10376C9.20181 9.36407 9.68569 9.82818 9.81154 10.6993C9.92451 10.7055 10.0228 10.7445 10.1146 10.8159C10.0579 10.933 10.0121 11.0551 9.97806 11.1809H9.59707C9.51479 11.5416 9.51479 11.9163 9.59707 12.277H9.97806C10.0249 12.4499 10.0937 12.616 10.1828 12.7714L9.91344 13.0408C10.1104 13.3541 10.3753 13.619 10.6886 13.8159L10.958 13.5465C11.1133 13.6356 11.2795 13.7044 11.4523 13.7512V14.1323C11.8131 14.2145 12.1877 14.2145 12.5484 14.1323V13.7512C12.7213 13.7044 12.8874 13.6356 13.0428 13.5465L13.6492 14.1529C13.1793 14.4733 12.6115 14.6608 12.0004 14.6608C10.3823 14.6608 9.06859 13.3471 9.06859 11.729C9.06859 11.505 9.0886 11.2718 9.09932 11.026C9.10872 10.8112 9.0378 10.4488 8.84202 10.2529C8.49874 9.90933 8.15079 9.68153 8.15079 9.68153L8.60005 9.10376ZM15.4007 14.3542C14.799 14.0939 14.3151 13.6298 14.1892 12.7586C14.0763 12.7524 13.978 12.7135 13.8862 12.6421C13.9429 12.525 13.9886 12.4028 14.0227 12.277H14.4037C14.486 11.9163 14.486 11.5416 14.4037 11.1809H14.0227C13.9758 11.008 13.907 10.8419 13.8179 10.6866L14.0873 10.4172C13.8904 10.1039 13.6255 9.83895 13.3122 9.64203L13.0428 9.91144C12.8874 9.82233 12.7213 9.75352 12.5484 9.70666V9.32566C12.1877 9.24338 11.8131 9.24338 11.4523 9.32566V9.70666C11.2795 9.75352 11.1133 9.82233 10.958 9.91144L10.3516 9.30506C10.8215 8.9846 11.3892 8.79718 12.0004 8.79718C13.6185 8.79718 14.9322 10.1109 14.9322 11.729C14.9322 11.953 14.9122 12.1862 14.9014 12.4319C14.892 12.6467 14.963 13.0092 15.1587 13.2051C15.502 13.5486 15.85 13.7764 15.85 13.7764L15.4007 14.3542ZM17.7266 13.2133C17.6633 13.284 17.5926 13.3494 17.5294 13.417C17.5117 13.4366 17.4945 13.4565 17.4779 13.4771C17.4545 13.5082 17.4319 13.5399 17.4194 13.577C17.4098 13.6101 17.4054 13.6486 17.3999 13.68C17.3946 13.7103 17.3914 13.7315 17.3865 13.7618C17.3811 13.7974 17.3758 13.8338 17.3711 13.8705L17.7266 13.2133ZM12.3998 9.72087C12.1361 9.6684 11.8646 9.6684 11.6009 9.72087L11.6107 10.0328C11.4216 10.0763 11.241 10.1511 11.0765 10.2541L10.8629 10.0266C10.6393 10.176 10.4474 10.3679 10.298 10.5915L10.5255 10.8051C10.4225 10.9696 10.3477 11.1502 10.3042 11.3393L9.99228 11.3295C9.93985 11.5932 9.93985 11.8647 9.99228 12.1284L10.3042 12.1186C10.3477 12.3078 10.4225 12.4883 10.5255 12.6528L10.298 12.8664C10.4474 13.09 10.6393 13.282 10.8629 13.4314L11.0765 13.2038C11.241 13.3069 11.4216 13.3817 11.6107 13.4251L11.6009 13.7371C11.8646 13.7895 12.1361 13.7895 12.3998 13.7371L12.39 13.4251C12.5792 13.3817 12.7597 13.3069 12.9242 13.2038L13.1379 13.4314C13.3614 13.282 13.5534 13.09 13.7028 12.8664L13.4752 12.6528C13.5783 12.4883 13.6531 12.3078 13.6965 12.1186L14.0085 12.1284C14.0609 11.8647 14.0609 11.5932 14.0085 11.3295L13.6965 11.3393C13.6531 11.1502 13.5783 10.9696 13.4752 10.8051L13.7028 10.5915C13.5534 10.3679 13.3614 10.176 13.1379 10.0266L12.9242 10.2541C12.7597 10.1511 12.5792 10.0763 12.39 10.0328L12.3998 9.72087ZM11.9117 10.6131V10.4282H12.0891V10.6125C12.2934 10.5742 12.3855 10.4166 12.3829 10.4296C12.3494 10.5879 12.2715 10.7592 12.0891 10.8019V11.1817C12.454 11.1403 12.6178 10.8635 12.6134 10.8851C12.5565 11.1497 12.4198 11.4374 12.0891 11.4825V11.8278C12.5377 11.788 12.7389 11.4696 12.7336 11.4943C12.6645 11.7946 12.4973 12.1216 12.0891 12.1648V12.582C12.6625 12.5404 12.9194 12.1214 12.9126 12.1533C12.8208 12.5647 12.5893 13.0153 12.0004 13.0175C11.4102 13.0193 11.1789 12.5656 11.0913 12.1515C11.0857 12.1216 11.3387 12.5434 11.9117 12.5824V12.1656C11.5006 12.1259 11.3332 11.7958 11.2672 11.4929C11.2627 11.4698 11.4616 11.7915 11.9117 11.8284V11.4834C11.5785 11.4412 11.4417 11.1508 11.3874 10.8839C11.3837 10.8636 11.5456 11.1434 11.9117 11.1823V10.8029C11.7279 10.7617 11.6499 10.5886 11.6179 10.4289C11.6157 10.4166 11.7067 10.576 11.9117 10.6131ZM7.01745 12.0586L7.08345 12.2142C7.08217 12.1933 7.07996 12.1725 7.07607 12.1519C7.07229 12.1319 7.06727 12.1106 7.05596 12.0933C7.04597 12.0797 7.03122 12.069 7.01745 12.0586ZM9.29865 7.72481C9.30608 7.72595 9.3135 7.72659 9.32112 7.72732C9.38688 7.73077 9.45268 7.7259 9.51848 7.72526C9.55084 7.72575 9.5506 7.72575 9.58281 7.72742C9.75946 7.74311 9.93287 7.7767 10.108 7.80311C10.1546 7.80945 10.201 7.81486 10.2479 7.81929C10.2852 7.82204 10.3225 7.82376 10.36 7.82421C10.5056 7.82352 10.6512 7.82711 10.7969 7.82485C10.8961 7.82224 10.9954 7.81678 11.093 7.79721C11.1534 7.78506 11.213 7.7675 11.2691 7.74163C11.3278 7.71454 11.3902 7.67809 11.4309 7.62665C11.4623 7.58697 11.4813 7.53867 11.494 7.49008C11.5142 7.41321 11.52 7.33276 11.5209 7.25358C11.5214 7.2103 11.5201 7.16702 11.5179 7.12379C11.5156 7.0783 11.5118 7.03291 11.5078 6.98751C11.4946 6.85011 11.4771 6.71314 11.4652 6.57563C11.4574 6.46759 11.4563 6.35929 11.4503 6.25115C11.4478 6.21485 11.4446 6.17885 11.4405 6.14271C11.4333 6.09185 11.4249 6.0413 11.4083 5.99256C11.403 5.97697 11.398 5.95627 11.387 5.94353C11.379 5.93546 11.3697 5.92917 11.3602 5.92292C11.349 5.91614 11.3378 5.90979 11.3263 5.90364C11.2689 5.87507 11.2103 5.8491 11.1532 5.81979C11.0805 5.7805 11.0113 5.73545 10.9541 5.67501C10.9019 5.61988 10.8635 5.55383 10.827 5.48773C10.7853 5.41254 10.7498 5.33405 10.7228 5.25236C10.6983 5.178 10.6815 5.10192 10.6668 5.02515L10.6649 5.00872C10.6563 5.00951 10.6476 5.0103 10.6389 5.01108L10.6225 5.01261L10.618 5.013L10.6065 5.01408L10.602 5.01443L10.5925 5.01521L10.5878 5.01561L10.5683 5.01698C10.5174 5.0187 10.4664 5.01782 10.4154 5.01816C10.3036 5.01895 10.2724 5.01979 10.1606 5.0217L10.1187 5.02274L10.1123 5.02293L10.1078 5.02303L10.035 5.02515L10.0119 5.02589L10.0021 5.02618L9.99823 5.02633C9.98215 5.02682 9.96606 5.02736 9.94998 5.0279L9.9493 5.02795L9.94516 5.0281L9.90951 5.02933L9.9012 5.02967L9.89653 5.02982L9.85094 5.03154L9.84375 5.03179L9.83761 5.03203L9.82585 5.03248L9.79094 5.03385L9.78976 5.0339C9.77254 5.03459 9.75538 5.03528 9.73817 5.03602C9.65589 5.03936 9.57356 5.04295 9.49124 5.04649C9.34143 5.05057 9.19158 5.04472 9.04178 5.04836C8.98149 5.05048 8.92046 5.05333 8.86006 5.06056C8.84743 5.06203 8.83484 5.06375 8.82225 5.06567L8.82136 5.06577L8.82057 5.06592L8.81536 5.06675L8.81172 5.06729L8.81118 5.06739L8.81015 5.06759L8.80597 5.06828L8.80213 5.06892L8.8011 5.06911L8.79972 5.06936L8.79618 5.07L8.79254 5.07064L8.79102 5.07093L8.78934 5.07123L8.78625 5.07182L8.78295 5.07246L8.78098 5.07285L8.77897 5.07325L8.77341 5.07438L8.77095 5.07492L8.76864 5.07536L8.76638 5.07585L8.76387 5.07639L8.76092 5.07708L8.75831 5.07762L8.75644 5.07806L8.75433 5.07856L8.75089 5.07934L8.74803 5.08003L8.74656 5.08038L8.74489 5.08077L8.74085 5.0818L8.7378 5.08254L8.73667 5.08284L8.73539 5.08313L8.73072 5.08436L8.72684 5.08539L8.726 5.08564L8.7203 5.08721L8.71739 5.088C8.71415 5.08893 8.71051 5.08997 8.70721 5.09095C8.67485 5.10064 8.64269 5.11274 8.61367 5.13029C8.60408 5.1361 8.591 5.14264 8.58466 5.15247C8.57944 5.16152 8.57767 5.17244 8.5759 5.18262C8.56995 5.22403 8.57251 5.26608 8.57512 5.30768L8.5759 5.31723C8.57836 5.34821 8.58122 5.37919 8.58397 5.41018C8.58722 5.44637 8.59036 5.48252 8.59272 5.51881C8.59321 5.52909 8.59361 5.53942 8.59385 5.54975C8.5972 5.6666 8.588 5.7836 8.54148 5.89243C8.51979 5.94318 8.49146 5.99118 8.45915 6.03589C8.42227 6.08689 8.37943 6.13253 8.33433 6.17625L8.32799 6.1821L8.32583 6.18407L8.32174 6.1878L8.31048 6.19798L8.30906 6.19926L8.29578 6.21107L8.28279 6.22238L8.27591 6.22833L8.26996 6.23344L8.26174 6.24052L8.23376 6.26428C8.19506 6.29708 8.1563 6.32974 8.11917 6.36436C8.08234 6.40021 8.04471 6.43955 8.02445 6.4877C7.99972 6.54667 8.00532 6.62029 8.01152 6.68167C8.01531 6.71963 8.02126 6.7574 8.02814 6.79493C8.0338 6.82596 8.03911 6.85729 8.04894 6.88729C8.06168 6.92609 8.07948 6.96302 8.09675 6.99996L8.10663 7.02076L8.59622 7.16825L8.58077 7.16781C8.60443 7.16977 8.60423 7.16972 8.62774 7.17292C8.65026 7.17715 8.65012 7.1771 8.67235 7.18246C8.70662 7.19245 8.73957 7.20449 8.77149 7.22058C8.87693 7.27389 8.96064 7.35553 9.0378 7.44395L9.04995 7.45797L9.06195 7.47203L9.0737 7.486L9.08506 7.49957L9.0948 7.51133C9.10773 7.52697 9.12057 7.54265 9.13345 7.55829L9.15411 7.58333L9.17231 7.60516L9.18352 7.61839L9.19562 7.63255L9.20688 7.64554L9.2174 7.65739C9.23363 7.67495 9.25006 7.69196 9.26776 7.708C9.27298 7.71237 9.28035 7.72068 9.28734 7.72265C9.29112 7.72354 9.29486 7.72423 9.29865 7.72481ZM11.429 0.208984C11.6183 0.199886 11.8088 0.195312 12.0004 0.195312C12.2015 0.195312 12.4018 0.200378 12.6005 0.210361L11.429 0.208984Z" fill="#2F4A98"/>
</svg>
