<svg viewBox="0 0 24 24" fill="none" xmlns="http://www.w3.org/2000/svg" width="24" height="24">
<path fill-rule="evenodd" clip-rule="evenodd" d="M12.9536 23.7993H11.046V22.3528H10.1772V20.5675L6.33136 20.5636L6.33579 16.0142H5.42964L5.42669 15.614H4.30766V15.0023H3.60556V14.0908H4.30766V13.2894H5.40014L5.08548 12.8046H3.26139C3.00769 12.8046 2.842 13.1193 2.842 13.1193L2.5293 13.0209C2.55811 12.8917 2.59862 12.7653 2.65025 12.6433C2.69941 12.5042 2.81102 12.2313 2.81102 12.2313L2.82577 12.1944C2.85085 12.1344 2.87494 12.075 2.90493 12.0169C3.05243 11.6631 3.31444 11.3687 3.64882 11.1811C3.69352 11.1594 3.73968 11.1408 3.78698 11.1255C3.87199 11.0985 3.96 11.082 4.04904 11.0764C4.07608 11.0764 4.10312 11.0764 4.13017 11.0764L4.13754 11.0582L4.14885 11.0316C4.1814 10.9587 4.22304 10.8901 4.27275 10.8276C4.30505 10.789 4.34055 10.7534 4.37895 10.7209C4.53363 10.5818 4.72189 10.4853 4.92519 10.4411L4.91585 8.7326L5.83674 8.73555L5.83429 7.52506L6.73551 7.51965L6.73895 6.71283L7.28815 6.71037L6.65094 5.60756H5.79544L7.22128 4.17828L9.67519 4.18123V1.47706H11.0656V0.199219H12.934V1.47755H14.3224V4.18173L16.7763 4.17877L18.2041 5.60756H17.3486L16.7095 6.71135L17.2587 6.71381L17.2621 7.52064L18.1633 7.52605L18.1594 8.73457L19.0808 8.73162L19.0714 10.4402C19.2759 10.4842 19.4653 10.581 19.6206 10.7209C19.6599 10.7548 19.6961 10.7922 19.7288 10.8325C19.7785 10.8951 19.8202 10.9636 19.8527 11.0366L19.864 11.0631L19.8709 11.0813C19.8979 11.0813 19.925 11.0813 19.952 11.0813C20.0411 11.0869 20.1291 11.1034 20.2141 11.1305C20.2614 11.1458 20.3075 11.1643 20.3522 11.186C20.6866 11.3736 20.9486 11.668 21.0961 12.0219C21.1242 12.0804 21.1502 12.1399 21.1753 12.1993L21.19 12.2362C21.19 12.2362 21.3016 12.5096 21.3508 12.6482C21.4024 12.7702 21.443 12.8966 21.4718 13.0258L21.1591 13.1242C21.1591 13.1242 20.9934 12.8095 20.7397 12.8095H18.9156L18.6009 13.2943H19.6934V14.0957H20.396V14.9984H19.6905V15.61H18.5749L18.5719 16.0103H17.6663L17.6707 20.5597L13.8249 20.5636V22.3488H12.9536V23.7993Z" fill="#E8C06A"/>
<path fill-rule="evenodd" clip-rule="evenodd" d="M12.5529 23.4071H11.4466V21.9606H10.5793V20.5648H11.4486V21.3652H12.5514V20.5648H13.4207V21.9606H12.5529V23.4071ZM17.2581 20.1715H6.74186V15.7956H17.2576L17.2581 20.1715ZM15.526 19.6459C15.5305 19.6701 15.5286 19.6953 15.5206 19.7186C15.5104 19.7491 15.4974 19.7786 15.4817 19.8066C15.4633 19.8405 15.439 19.8708 15.41 19.8961C15.3984 19.9102 15.3822 19.9198 15.3642 19.9232C15.3457 19.9169 15.3289 19.9065 15.3151 19.8927C15.2944 19.8756 15.2728 19.8581 15.2502 19.8401C15.2329 19.827 15.2165 19.8129 15.201 19.7978C15.1899 19.7896 15.1824 19.7774 15.1799 19.7639C15.1936 19.7349 15.2044 19.7122 15.2113 19.6965C15.2349 19.6467 15.2525 19.6106 15.2639 19.5883C15.2849 19.5555 15.3061 19.5206 15.3274 19.4836L15.3485 19.4531C15.355 19.4594 15.3621 19.4649 15.3696 19.4698L15.3977 19.4866C15.4333 19.5126 15.4662 19.5421 15.496 19.5746C15.5124 19.5951 15.5232 19.6195 15.5275 19.6454L15.526 19.6459ZM12.8926 19.1581C13.0512 19.1586 13.2095 19.1433 13.3651 19.1124C13.503 19.0855 13.6387 19.0487 13.7712 19.0023C13.8911 18.9591 14.0046 18.9 14.1085 18.8263C14.2068 18.7585 14.2954 18.6778 14.372 18.5863C14.393 18.5591 14.4258 18.5164 14.4704 18.458C14.4915 18.4285 14.5068 18.4088 14.5161 18.397C14.5254 18.3852 14.5279 18.3877 14.5304 18.3901C14.5332 18.394 14.5344 18.3987 14.5338 18.4034L14.5304 18.4408C14.5281 18.4611 14.5228 18.5046 14.5146 18.5711C14.507 18.6294 14.5029 18.6882 14.5023 18.7471C14.4994 18.8349 14.5143 18.9224 14.5461 19.0042C14.5714 19.0691 14.6364 19.1103 14.7059 19.1055C14.7551 19.1055 14.8031 19.069 14.8499 18.9959C14.9056 18.9 14.9448 18.7954 14.966 18.6866L14.9748 18.6429C14.9778 18.6294 14.9796 18.6158 14.9802 18.6021C14.9802 18.5794 14.9743 18.5681 14.9625 18.5681C14.9507 18.5681 14.9453 18.5785 14.9399 18.5986C14.9345 18.6188 14.9286 18.637 14.9242 18.6527C14.8986 18.7225 14.8693 18.7574 14.8362 18.7574C14.7976 18.7585 14.7595 18.7479 14.727 18.7269C14.6706 18.6798 14.6415 18.6073 14.6498 18.5342V18.4816C14.6498 18.4409 14.6534 18.3807 14.6607 18.3007C14.6685 18.2118 14.679 18.1233 14.6921 18.0352L14.7659 17.6802C14.7692 17.6628 14.7726 17.6454 14.7762 17.6281L14.8583 17.5725L15.1867 17.3237C15.2808 17.2631 15.3746 17.2018 15.468 17.1398C15.549 17.0861 15.6286 17.0307 15.7069 16.9736C15.8334 16.8812 15.9283 16.8108 15.9916 16.7622C16.0758 16.6967 16.1357 16.6495 16.1711 16.6206C16.2065 16.5918 16.241 16.5602 16.2748 16.5257C16.3171 16.4854 16.3575 16.4436 16.3962 16.4004C16.4309 16.3604 16.4626 16.3181 16.4911 16.2735C16.5197 16.2348 16.5422 16.192 16.558 16.1467C16.5627 16.1385 16.5651 16.1291 16.5649 16.1196C16.5649 16.1236 16.477 16.1979 16.3014 16.3428C16.2099 16.4202 16.1173 16.4966 16.0236 16.572C15.9229 16.6519 15.8199 16.7294 15.7143 16.8045C15.5648 16.9087 15.4149 17.0123 15.2644 17.1152C15.1193 17.2182 14.9802 17.3295 14.848 17.4486C14.8166 17.4756 14.7892 17.5071 14.7669 17.542C14.7626 17.5479 14.7586 17.5539 14.7551 17.5602C14.739 17.5872 14.7246 17.6151 14.7118 17.6438L14.6961 17.6748C14.6663 17.7304 14.6405 17.788 14.6189 17.8473L14.5697 18.0401C14.5452 18.1294 14.5059 18.2139 14.4537 18.2903C14.3812 18.3864 14.289 18.4659 14.1832 18.5234C13.8938 18.6833 13.5715 18.7746 13.2412 18.7904C13.1616 18.7972 13.055 18.8007 12.9216 18.8007C12.7611 18.8227 12.5979 18.7868 12.4614 18.6994C12.4324 18.6672 12.4151 18.6261 12.4123 18.5829C12.4088 18.5386 12.4034 18.517 12.3965 18.517C12.3778 18.517 12.3632 18.5553 12.3528 18.632C12.3424 18.706 12.3372 18.7806 12.337 18.8553C12.3317 18.9235 12.3511 18.9914 12.3916 19.0465C12.4486 19.0978 12.5207 19.1293 12.5971 19.136C12.6785 19.1487 12.7607 19.1545 12.843 19.1532L12.8926 19.1581ZM9.28182 18.2446C9.27956 18.2901 9.27361 18.3353 9.26412 18.3798C9.25232 18.4428 9.24052 18.498 9.22872 18.5455L9.18643 18.7112C9.16283 18.7741 9.14415 18.8204 9.13038 18.8498C9.11308 18.8858 9.09371 18.9208 9.07237 18.9546C9.05777 18.9783 9.03933 18.9994 9.01779 19.017C8.9879 19.0383 8.95614 19.0569 8.9229 19.0726L8.79654 19.1217C8.76945 19.1301 8.74187 19.1369 8.71394 19.1419C8.6868 19.1485 8.65917 19.1532 8.63134 19.1557C8.61954 19.1557 8.61266 19.1517 8.6102 19.1439C8.60828 19.1338 8.61079 19.1234 8.61708 19.1154C8.64157 19.0825 8.67151 19.054 8.70558 19.0313C8.75377 18.9952 8.80131 18.9603 8.84817 18.9266C8.90191 18.879 8.94173 18.8418 8.96764 18.8149C9.00791 18.773 9.04326 18.7264 9.07286 18.6763C9.08481 18.6541 9.09489 18.6309 9.10285 18.607C9.11563 18.5722 9.13614 18.5154 9.16431 18.4364L9.20659 18.3144C9.21117 18.2964 9.21825 18.2745 9.22773 18.2485C9.23708 18.223 9.24888 18.2097 9.26313 18.2097C9.27194 18.2192 9.27803 18.2309 9.28083 18.2436L9.28182 18.2446ZM11.8527 18.6276V18.6306C11.9019 18.5824 11.9311 18.5529 11.9403 18.5421C11.9769 18.5005 12.0066 18.4534 12.0283 18.4024C12.0567 18.3314 12.0773 18.2576 12.0897 18.1822C12.1044 18.1124 12.1131 18.0415 12.1158 17.9703C12.1158 17.9113 12.1158 17.8493 12.1158 17.7844C12.1158 17.7195 12.1199 17.654 12.1281 17.5877C12.1281 17.5263 12.1315 17.4894 12.1315 17.4727C12.1315 17.4697 12.1315 17.4668 12.1315 17.4643C12.1389 17.4604 12.1482 17.4545 12.1591 17.4476L12.2628 17.3768L12.514 17.2067C12.6124 17.1434 12.7094 17.0795 12.8051 17.0149C12.889 16.9589 12.9709 16.9009 13.0509 16.8409C13.1821 16.7426 13.2804 16.6685 13.3459 16.6187C13.4338 16.5508 13.496 16.5016 13.5328 16.4712C13.5695 16.4407 13.6059 16.4069 13.6419 16.3699C13.6865 16.327 13.7293 16.2824 13.7702 16.2361C13.8074 16.1929 13.8413 16.147 13.872 16.099C13.903 16.0566 13.9278 16.0101 13.9458 15.9608C13.951 15.9517 13.9538 15.9413 13.9541 15.9308C13.9541 15.9354 13.8622 16.0143 13.6783 16.1673C13.5826 16.2493 13.4859 16.3302 13.3882 16.4102C13.2834 16.4948 13.176 16.5767 13.0662 16.656C12.9112 16.7652 12.7556 16.8735 12.5996 16.981C12.4797 17.0606 12.3647 17.1475 12.2554 17.2411C12.2223 17.2697 12.1933 17.3028 12.1694 17.3395C12.1458 17.3761 12.1249 17.4143 12.1069 17.454L12.101 17.4678V17.4707L11.9821 17.7466C11.9709 17.7742 11.9649 17.8037 11.9644 17.8336C11.962 17.8719 11.9609 17.9163 11.9609 17.9668L11.9644 18.1871C11.9676 18.2589 11.9558 18.3306 11.9294 18.3975C11.9185 18.4203 11.905 18.4418 11.8891 18.4614C11.878 18.4763 11.8643 18.4891 11.8488 18.4993L11.8277 18.5091C11.811 18.511 11.7941 18.5088 11.7785 18.5027C11.7667 18.5204 11.7549 18.5367 11.7431 18.5519C11.7244 18.5765 11.6987 18.5949 11.6694 18.6045C11.6554 18.6121 11.6381 18.6094 11.6271 18.5981C11.6108 18.6134 11.5956 18.6291 11.5813 18.6443C11.5593 18.6678 11.529 18.6819 11.4968 18.6837C11.465 18.6838 11.4333 18.6816 11.4019 18.6768C11.3501 18.7118 11.2996 18.7469 11.2505 18.782C11.2086 18.8089 11.1596 18.8226 11.1098 18.8213C11.0263 18.8286 10.9452 18.7895 10.8989 18.7196C10.8709 18.6683 10.8576 18.6103 10.8606 18.5519C10.8606 18.5254 10.8606 18.4831 10.8674 18.4236C10.8733 18.3531 10.8816 18.283 10.892 18.2131L10.952 17.8119L10.9663 17.7264C10.9704 17.7092 10.9716 17.6914 10.9697 17.6738L10.9555 17.6802C10.9345 17.7218 10.9064 17.7831 10.8714 17.8641C10.8363 17.945 10.8176 17.9899 10.8153 17.9988C10.799 18.1063 10.7778 18.2613 10.7519 18.4639C10.726 18.6665 10.7131 18.7812 10.7131 18.8081C10.7136 18.8383 10.7159 18.8685 10.7199 18.8985C10.7224 18.9271 10.7281 18.9554 10.7372 18.9826C10.7617 19.0847 10.8539 19.157 10.9589 19.1567C11.056 19.152 11.144 19.0972 11.191 19.0121C11.2565 18.9157 11.3093 18.8676 11.3493 18.8676L11.3984 18.8725C11.4118 18.8742 11.4254 18.8742 11.4388 18.8725C11.4641 18.8627 11.4873 18.8482 11.5071 18.8297C11.5272 18.8119 11.5483 18.7955 11.5705 18.7805C11.5856 18.7721 11.6024 18.7671 11.6197 18.7658C11.6346 18.7647 11.6491 18.7602 11.662 18.7525C11.6807 18.7348 11.6964 18.721 11.7111 18.7112C11.723 18.7019 11.7361 18.6941 11.75 18.6881C11.7628 18.6827 11.7893 18.6699 11.8291 18.6502L11.8503 18.6335L11.8527 18.6276ZM8.94453 17.3031C8.94699 17.2956 8.94571 17.2873 8.94109 17.2809C8.93441 17.2728 8.926 17.2663 8.91651 17.2618C8.8731 17.2712 8.83155 17.2878 8.79359 17.3109C8.74841 17.3339 8.70485 17.3601 8.6633 17.3891C8.61871 17.4199 8.58232 17.447 8.55415 17.4702C8.49038 17.5267 8.43045 17.5873 8.37469 17.6517C8.30001 17.7355 8.23727 17.8293 8.18835 17.9304C8.1498 18.0029 8.12699 18.0826 8.12148 18.1645C8.11952 18.1985 8.1294 18.2323 8.14951 18.2599C8.17129 18.2853 8.19897 18.3051 8.23014 18.3174C8.24592 18.3247 8.26239 18.3305 8.27931 18.3346C8.29342 18.3379 8.31682 18.3443 8.34962 18.3538C8.38241 18.3632 8.39878 18.3775 8.39878 18.3965C8.39657 18.4353 8.38379 18.4727 8.36191 18.5047C8.33167 18.5519 8.29568 18.5952 8.25472 18.6335C8.20339 18.6821 8.144 18.7214 8.0792 18.7496C7.98775 18.7916 7.88829 18.8135 7.78764 18.8135C7.68783 18.8196 7.58866 18.7934 7.50493 18.7387C7.44067 18.6919 7.40375 18.6161 7.4066 18.5367C7.4184 18.4104 7.45286 18.2873 7.50837 18.1733L7.55066 18.0843C7.57883 18.025 7.59997 17.9826 7.61408 17.957C7.63965 17.9078 7.65686 17.8734 7.66325 17.8532C7.66964 17.8331 7.68242 17.807 7.69668 17.7751C7.70185 17.7642 7.70421 17.7522 7.70357 17.7402C7.70357 17.721 7.69521 17.7116 7.67898 17.7116C7.6721 17.7116 7.66325 17.72 7.65243 17.7372C7.64162 17.7544 7.63178 17.7711 7.62244 17.7864L7.54181 17.9427L7.44003 18.1433C7.39755 18.2267 7.36107 18.3129 7.33088 18.4015C7.31259 18.455 7.29843 18.5099 7.2886 18.5657C7.27906 18.6209 7.27429 18.6768 7.27434 18.7328C7.27488 18.7808 7.28196 18.8284 7.29548 18.8744C7.31048 18.926 7.33555 18.9741 7.36923 19.016C7.45001 19.1109 7.57209 19.1608 7.69619 19.1498C7.81581 19.1522 7.93376 19.1214 8.03692 19.0608C8.08903 19.0305 8.13741 18.9943 8.18097 18.9526C8.22277 18.9131 8.26156 18.8706 8.29701 18.8253C8.36638 18.7265 8.41983 18.6175 8.45532 18.5022C8.49205 18.396 8.51231 18.2847 8.51531 18.1723C8.52259 18.1191 8.50125 18.0657 8.45926 18.0322C8.448 18.024 8.43556 18.0176 8.42238 18.013L8.37862 17.9973L8.3152 17.9683C8.30084 17.9537 8.29214 17.9346 8.29062 17.9142C8.29961 17.8827 8.31653 17.8541 8.33978 17.8311C8.38197 17.7803 8.42961 17.7343 8.48188 17.6939C8.52509 17.6554 8.57362 17.6233 8.62593 17.5986C8.66094 17.5805 8.69924 17.5696 8.73853 17.5666C8.74664 17.567 8.7545 17.5697 8.76114 17.5745L8.78769 17.5922C8.80195 17.5922 8.81818 17.5794 8.83686 17.5538C8.84178 17.5474 8.85505 17.5224 8.87718 17.4791C8.89527 17.446 8.91169 17.4121 8.92634 17.3773C8.93573 17.3531 8.94281 17.3281 8.94748 17.3026L8.94453 17.3031ZM10.4122 18.6689L10.363 18.7938C10.3421 18.8385 10.3167 18.881 10.2873 18.9207C10.2676 18.9502 10.2434 18.9764 10.2155 18.9983C10.1821 19.0173 10.1469 19.0326 10.1103 19.0441L10.0365 19.0711C9.99882 19.0829 9.9613 19.0953 9.92394 19.1085C9.88745 19.1208 9.84969 19.1287 9.81134 19.1321L9.79708 19.1252C9.79708 19.1095 9.83922 19.0757 9.92344 19.0239L10.0606 18.9295C10.0839 18.9138 10.1096 18.8946 10.1378 18.872C10.1705 18.8454 10.2012 18.8165 10.2298 18.7854C10.2588 18.7557 10.281 18.72 10.2947 18.6807C10.295 18.6739 10.2962 18.6671 10.2981 18.6606L10.2066 18.6674C10.1679 18.6689 10.13 18.6549 10.1014 18.6286C10.0754 18.6081 10.062 18.5754 10.066 18.5426C10.0695 18.5205 10.0754 18.4988 10.0837 18.4782C10.0931 18.4536 10.1142 18.4083 10.1472 18.3429C10.1653 18.3052 10.1865 18.269 10.2106 18.2348C10.2411 18.194 10.2706 18.1738 10.2986 18.1738C10.346 18.1741 10.3909 18.1951 10.4215 18.2313C10.4565 18.2689 10.4753 18.3187 10.4741 18.37C10.4741 18.3972 10.4718 18.4243 10.4672 18.4511L10.4549 18.5219C10.4515 18.5421 10.4461 18.5667 10.4392 18.5947C10.4333 18.6197 10.425 18.644 10.4146 18.6674L10.4122 18.6689ZM9.88264 18.2181C9.88032 18.2635 9.87442 18.3087 9.86494 18.3533C9.85314 18.4162 9.84134 18.4714 9.82954 18.519L9.78725 18.6871C9.76365 18.7504 9.74497 18.7966 9.7312 18.8258C9.7139 18.8617 9.69452 18.8967 9.67319 18.9305C9.65848 18.9541 9.64005 18.9752 9.61861 18.9929C9.58867 19.0142 9.55691 19.0328 9.52372 19.0485L9.39736 19.0977C9.37027 19.1061 9.34269 19.1128 9.31476 19.1178C9.28762 19.1244 9.25999 19.1291 9.23216 19.1316C9.22036 19.1316 9.21348 19.1276 9.21102 19.1198C9.2091 19.1097 9.21161 19.0993 9.2179 19.0913C9.24258 19.0581 9.27287 19.0295 9.30738 19.0067C9.35557 18.9707 9.40311 18.9357 9.44997 18.902C9.50371 18.8548 9.54353 18.8175 9.56944 18.7904C9.60971 18.7483 9.64506 18.7018 9.67466 18.6517C9.68661 18.6295 9.69664 18.6063 9.70465 18.5824C9.71744 18.5473 9.73794 18.4904 9.76611 18.4118L9.80839 18.2898C9.81331 18.2717 9.82019 18.25 9.82954 18.224C9.83888 18.1979 9.85068 18.1851 9.86494 18.1851C9.87354 18.1944 9.87964 18.2058 9.88264 18.2181ZM15.3254 18.4855C15.3254 18.4585 15.3254 18.4147 15.3323 18.3538C15.3382 18.2813 15.3464 18.2092 15.3569 18.1374L15.4168 17.7249L15.4311 17.6369C15.4353 17.6192 15.4365 17.6009 15.4345 17.5828L15.4203 17.5897C15.3993 17.6326 15.3711 17.6958 15.3357 17.779C15.3003 17.8622 15.2816 17.9085 15.2797 17.9177C15.2633 18.0281 15.2422 18.1876 15.2162 18.396C15.1903 18.6045 15.1774 18.7219 15.1774 18.7481C15.1745 18.8358 15.1893 18.9234 15.2212 19.0052C15.2465 19.0701 15.3115 19.1113 15.381 19.1065C15.4301 19.1065 15.4782 19.07 15.525 18.9969C15.5807 18.9009 15.6199 18.7964 15.641 18.6876L15.6499 18.6438C15.6529 18.6304 15.6547 18.6168 15.6553 18.603C15.6553 18.5804 15.6494 18.5691 15.6376 18.5691C15.6258 18.5691 15.6209 18.5794 15.615 18.5996L15.5993 18.6537C15.5733 18.7235 15.544 18.7584 15.5112 18.7584C15.4726 18.7595 15.4346 18.7489 15.4021 18.7279C15.3456 18.6808 15.3166 18.6082 15.3249 18.5352V18.486L15.3254 18.4855ZM9.44308 17.4791C9.44761 17.5034 9.44574 17.5284 9.43768 17.5519C9.4274 17.5823 9.41442 17.6118 9.39883 17.6399C9.3804 17.6737 9.35611 17.704 9.32705 17.7293C9.31545 17.7435 9.29927 17.753 9.28133 17.7564C9.26279 17.7502 9.24593 17.7398 9.23216 17.7259C9.21053 17.7079 9.18825 17.6904 9.16529 17.6733C9.14804 17.6603 9.13161 17.6462 9.11613 17.631C9.10506 17.6228 9.09749 17.6107 9.09498 17.5971C9.1091 17.5679 9.11957 17.5455 9.12645 17.5297C9.15005 17.4806 9.16726 17.4442 9.17906 17.4216C9.2002 17.3876 9.22134 17.3527 9.24248 17.3168L9.26363 17.2864C9.27012 17.2927 9.2772 17.2985 9.28477 17.3036L9.31279 17.3203C9.34844 17.3462 9.38138 17.3757 9.41113 17.4083C9.4277 17.4287 9.43871 17.4531 9.44308 17.4791ZM11.2854 17.0297C11.2811 17.0038 11.2703 16.9794 11.2539 16.9589C11.2241 16.9264 11.1912 16.8969 11.1556 16.8709L11.1275 16.8542C11.12 16.8493 11.1129 16.8437 11.1064 16.8375L11.0853 16.8679C11.0643 16.904 11.0431 16.9389 11.0218 16.9727C11.01 16.9953 10.9925 17.0313 10.9692 17.0808C10.9623 17.0966 10.9515 17.1192 10.9378 17.1482C10.9403 17.1618 10.9478 17.1739 10.9589 17.1821C10.9744 17.1972 10.9908 17.2114 11.0081 17.2244C11.0307 17.2411 11.053 17.2585 11.0749 17.2765C11.0886 17.2904 11.1055 17.3009 11.1241 17.307C11.142 17.3037 11.1583 17.2941 11.1698 17.28C11.199 17.2546 11.2235 17.2243 11.2421 17.1905C11.2577 17.1624 11.2707 17.1329 11.2809 17.1025C11.289 17.0791 11.2909 17.054 11.2863 17.0297H11.2854ZM11.6472 17.0095C11.6518 17.0339 11.6499 17.0589 11.6418 17.0823C11.6316 17.1128 11.6186 17.1422 11.603 17.1703C11.5846 17.2042 11.5603 17.2345 11.5312 17.2598C11.5196 17.274 11.5034 17.2835 11.4855 17.2868C11.4669 17.2806 11.4501 17.2702 11.4363 17.2564C11.4147 17.2383 11.3924 17.2208 11.3694 17.2037C11.3522 17.1907 11.3358 17.1766 11.3203 17.1615C11.3092 17.1532 11.3017 17.1411 11.2991 17.1275C11.3134 17.0985 11.3237 17.0754 11.3306 17.0602C11.3477 17.0238 11.3652 16.9878 11.3832 16.952C11.4012 16.9163 11.4224 16.8814 11.4466 16.8473L11.4678 16.8168C11.4742 16.8231 11.4813 16.8287 11.4889 16.8335L11.5169 16.8507C11.5525 16.8767 11.5855 16.9062 11.6153 16.9387C11.632 16.9591 11.6432 16.9835 11.6477 17.0095H11.6472ZM14.876 16.9845C14.8805 17.0088 14.8786 17.0338 14.8706 17.0572C14.8604 17.0877 14.8474 17.1172 14.8318 17.1452C14.8133 17.1791 14.789 17.2094 14.76 17.2347C14.7484 17.2488 14.7322 17.2584 14.7142 17.2618C14.6957 17.2556 14.6789 17.2451 14.6651 17.2313C14.6434 17.2132 14.6212 17.1957 14.5982 17.1787C14.5809 17.1657 14.5645 17.1516 14.549 17.1364C14.538 17.1282 14.5304 17.116 14.5279 17.1025C14.542 17.0733 14.5525 17.0508 14.5594 17.0351C14.583 16.9859 14.6002 16.9496 14.612 16.9269C14.6331 16.893 14.6543 16.8581 14.6754 16.8222L14.6965 16.7917C14.703 16.7981 14.7101 16.8039 14.7177 16.8089L14.7457 16.8257C14.7814 16.8516 14.8144 16.8811 14.844 16.9137C14.8609 16.934 14.8715 16.9585 14.876 16.9845ZM11.4643 16.5911C11.46 16.5652 11.4489 16.5408 11.4324 16.5203C11.4027 16.4877 11.3697 16.4582 11.334 16.4323L11.306 16.4156C11.2984 16.4108 11.2913 16.4052 11.2849 16.3989L11.2637 16.4294C11.2426 16.4653 11.2214 16.5002 11.2003 16.5341C11.1885 16.5567 11.1708 16.5926 11.1477 16.6423C11.1408 16.658 11.13 16.6806 11.1157 16.7096C11.1182 16.7232 11.1258 16.7353 11.1369 16.7435C11.1511 16.7573 11.1679 16.7716 11.186 16.7878L11.2529 16.8404C11.2669 16.8535 11.2837 16.8633 11.3021 16.8689C11.32 16.8656 11.3362 16.856 11.3478 16.8419C11.3769 16.8166 11.4011 16.7862 11.4196 16.7524C11.4352 16.7243 11.4482 16.6948 11.4584 16.6644C11.4665 16.641 11.4683 16.616 11.4638 16.5916L11.4643 16.5911ZM9.80889 4.55118L10.4338 5.63285V10.7614L11.8031 11.7576V15.4042H10.2086V12.0452L8.63528 10.4718V6.68059L7.71586 5.08808H6.87609L7.41692 4.54725L9.80889 4.55118ZM8.44058 10.8337L9.81724 12.2104V15.4062H8.52416L6.57765 12.4129H3.17285C3.44425 11.7064 3.89069 11.2821 4.45119 11.5648C4.45709 11.1154 4.61934 10.8357 5.37749 10.8357L8.44058 10.8337ZM6.36377 12.8043L8.05462 15.4042H7.25025L5.56334 12.8043H6.36377ZM13.7909 15.4042H12.1964V11.7576L13.5657 10.7619V5.63334L14.1906 4.55167H16.5811L17.1219 5.09251H16.2822L15.3628 6.68502V10.4763L13.7894 12.0496L13.7909 15.4042ZM17.4219 12.411L15.4754 15.4042H14.1842V12.2084L15.5609 10.8317H18.6225C19.3807 10.8317 19.5434 11.1115 19.5488 11.5609C20.1108 11.2767 20.5572 11.7025 20.8271 12.409L17.4219 12.411ZM15.9469 15.4042L17.6377 12.8043H18.4386L16.7493 15.4042H15.9469ZM6.32493 14.7007H5.37896V14.2533H6.03436L6.32493 14.7007ZM18.621 14.7007H17.6746L17.9652 14.2533H18.6205L18.621 14.7007ZM12.5303 1.87209H13.9173L13.9217 4.23209L13.1724 5.53009V10.5633L12.1964 11.2713V10.1041L12.5465 9.84939V2.57812H11.453V9.8489L11.8031 10.1036V11.2708L10.8271 10.5608V5.52812L10.0778 4.23209L10.0823 1.87209H11.4692V0.59375H12.5308L12.5303 1.87209ZM7.05456 10.4404H7.4479V9.26775H7.05456V10.4404ZM7.85107 10.4404H8.2444V6.78876L7.49117 5.48387H7.04522L7.85107 6.87972V10.4404ZM16.5536 10.4404H16.9469V9.26775H16.5536V10.4404ZM16.1504 10.4404H15.7571V6.78876L16.5103 5.48387H16.9563L16.1504 6.87972V10.4404Z" fill="#1F261A"/>
</svg>
