<svg viewBox="0 0 24 24" fill="none" xmlns="http://www.w3.org/2000/svg">
<path fill-rule="evenodd" clip-rule="evenodd" d="M15.62 17.7107C5.24193 26.4988 -5.06113 13.1556 3.82238 4.16342C-0.314277 13.9125 7.29502 21.2904 15.62 17.7107ZM17.0504 8.86681C25.987 19.1243 12.8521 29.6751 3.73681 20.9192C13.5278 24.9039 20.7587 17.1529 17.0504 8.86681ZM8.34229 7.47983C18.6635 -1.37527 29.0523 11.9009 20.2269 20.9505C24.3006 11.1747 16.644 3.84632 8.34229 7.47983ZM6.61615 15.8033C-1.31034 4.74246 12.763 -4.51242 21.0093 5.07049C11.6391 0.173169 3.70795 7.20208 6.61615 15.8033Z" fill="#4C2A93"/>
<path fill-rule="evenodd" clip-rule="evenodd" d="M11.9997 16.9584C14.386 16.9584 16.3324 15.0121 16.3324 12.6257C16.3324 10.2393 14.386 8.29297 11.9997 8.29297C9.61332 8.29297 7.66699 10.2393 7.66699 12.6257C7.66699 15.0121 9.61332 16.9584 11.9997 16.9584Z" fill="#F10B7C"/>
</svg>
