<svg viewBox="0 0 24 24" fill="none" xmlns="http://www.w3.org/2000/svg" width="24" height="24">
<path fill-rule="evenodd" clip-rule="evenodd" d="M18.5872 18.8542C16.9314 20.4473 14.7208 21.3381 12.423 21.3381C8.75346 21.3381 5.44446 19.0663 4.12596 15.6419C4.10091 15.5743 4.04296 15.5239 3.97251 15.5085C3.90256 15.4908 3.82821 15.51 3.77561 15.5593L0.0711581 18.94C0.0272081 18.979 0.00150815 19.0347 0.00020815 19.0934C-0.00239185 19.1521 0.0194582 19.2092 0.0605582 19.2511C2.44041 21.764 5.75301 23.1892 9.21396 23.1892C13.0424 23.1892 16.6695 21.4453 19.0603 18.4552C19.0651 18.4496 19.0677 18.4424 19.0677 18.4351C19.0677 18.418 19.0536 18.4039 19.0365 18.4039C19.0274 18.4039 19.0186 18.408 19.0127 18.415C18.8765 18.5632 18.7347 18.7096 18.5872 18.8542ZM13.8741 7.10784C17.6665 8.20414 20.2958 11.7012 20.2958 15.6489C20.2958 17.6826 19.5979 19.6561 18.3194 21.2378C18.2731 21.2933 18.2583 21.3689 18.2803 21.4378C18.3 21.5073 18.354 21.5621 18.4232 21.5828L23.203 23.0996C23.2242 23.1062 23.2462 23.1095 23.2684 23.1095C23.3648 23.1095 23.4504 23.0459 23.4782 22.9535C23.8243 21.7882 24 20.579 24 19.3635C24 13.1597 19.4218 7.83139 13.2888 6.89724C13.2732 6.89449 13.2579 6.90419 13.2538 6.91944C13.2531 6.92214 13.2527 6.92494 13.2527 6.92774C13.2527 6.94239 13.2629 6.95519 13.2771 6.95859C13.4775 7.00094 13.6765 7.05069 13.8741 7.10784ZM6.05866 17.0634C5.88626 16.3656 5.79911 15.6495 5.79911 14.9308C5.79911 10.0535 9.81251 6.04004 14.6899 6.04004C15.1521 6.04004 15.6137 6.07609 16.0703 6.14784C16.0809 6.14944 16.0917 6.15019 16.1024 6.15019C16.2232 6.15019 16.3225 6.05084 16.3225 5.93004C16.3225 5.91504 16.321 5.90009 16.318 5.88539L15.2415 0.98804C15.2295 0.93069 15.1943 0.88084 15.1442 0.85044C15.0947 0.81839 15.0341 0.80839 14.9769 0.82294C9.32281 2.17429 5.30141 7.27004 5.30141 13.0834C5.30141 14.6538 5.59486 16.2104 6.16661 17.673C6.17246 17.6876 6.18836 17.6958 6.20366 17.6921C6.21716 17.6886 6.22666 17.6763 6.22666 17.6624C6.22666 17.6588 6.22606 17.6552 6.22481 17.6519C6.16341 17.4592 6.10731 17.2613 6.05866 17.0634Z" fill="#962575"/>
<path fill-rule="evenodd" clip-rule="evenodd" d="M12.1321 10.0032C14.5271 9.61271 16.7885 11.2401 17.179 13.6351C17.5695 16.0301 15.9421 18.2915 13.5471 18.682C11.1521 19.0725 8.8907 17.4451 8.50025 15.0501C8.10975 12.6551 9.73715 10.3937 12.1321 10.0032Z" fill="#FAA61A"/>
</svg>
