<svg viewBox="0 0 24 24" fill="none" xmlns="http://www.w3.org/2000/svg">
<path fill-rule="evenodd" clip-rule="evenodd" d="M12.0184 1.79109C13.2027 1.79109 14.1639 2.76233 14.1639 3.96043C14.1639 5.15866 13.2026 6.1299 12.0184 6.1299C10.8323 6.1299 9.87095 5.15866 9.87095 3.96043C9.87095 2.76233 10.8323 1.79109 12.0184 1.79109ZM17.0144 0.367188C18.2008 0.367188 19.1614 1.33856 19.1614 2.53666C19.1616 3.73489 18.2008 4.70627 17.0142 4.70627C15.8298 4.70627 14.8684 3.73489 14.8684 2.53666C14.8684 1.33856 15.8299 0.367188 17.0144 0.367188ZM7.43991 4.01074C8.62554 4.01074 9.5866 4.98238 9.5866 6.181C9.5866 7.37883 8.62554 8.35034 7.43991 8.35034C6.25441 8.35034 5.29322 7.37883 5.29322 6.181C5.29322 4.98238 6.25441 4.01074 7.43991 4.01074ZM12.005 14.154C12.1472 14.1472 13.5785 14.0909 14.4583 14.5343C14.7805 14.6965 14.8136 14.9057 14.8131 15.127C14.8126 16.1562 12.0326 17.6256 11.7593 17.765C8.2389 19.5613 3.27441 19.8667 3.27441 19.8667L3.32107 23.6353C5.44514 23.3409 9.27729 22.9077 13.9018 20.4022C16.1891 19.1629 18.6646 17.1228 18.2028 14.2028C17.7567 11.3857 14.8063 10.5919 12.0279 10.7136L11.9952 14.1418C11.8544 14.1488 10.4222 14.2053 9.54228 13.7619C9.21998 13.5997 9.18749 13.3907 9.18749 13.1691C9.18775 12.1398 11.9675 10.6704 12.241 10.5314C15.7618 8.73469 20.7255 8.42929 20.7255 8.42929L20.679 4.66056C18.5543 4.95558 14.7226 5.3884 10.0985 7.89375C7.81081 9.13296 5.33611 11.1732 5.79825 14.0932C6.24427 16.9109 9.19463 17.7041 11.9723 17.5822L12.005 14.154Z" fill="#D8262C"/>
</svg>
