<svg viewBox="0 0 24 24" fill="none" xmlns="http://www.w3.org/2000/svg" width="24" height="24">
<path fill-rule="evenodd" clip-rule="evenodd" d="M22.0636 23.5868H12.3666V14.1032C12.4964 12.5748 12.7263 11.1672 13.2903 10.1624C13.6254 10.3505 14.2237 11.1823 14.4022 12.7917C14.8396 12.0018 15.3723 11.1162 16.3389 10.5546C16.404 12.2978 16.3002 12.9611 15.8117 14.1747C15.1259 15.8784 13.2385 16.2751 13.2385 16.2751V22.7149H21.1917C21.1917 17.4737 21.2906 12.2315 21.1909 6.99116C21.1892 6.93858 21.1863 6.88619 21.1819 6.83376C21.1578 6.5807 21.098 6.33291 20.9989 6.09859C20.755 5.52199 20.2889 5.052 19.7165 4.80136L19.7158 4.80102C19.8885 4.53638 20.0651 4.29819 20.2398 4.08473C20.5526 4.24378 20.84 4.45217 21.0883 4.70054C21.4393 5.05147 21.7104 5.48032 21.8754 5.94853C22.0007 6.30442 22.0612 6.67809 22.0636 7.05504V23.5868ZM11.6335 23.5868H1.93652V7.05504C1.93889 6.67809 1.99944 6.30442 2.12478 5.94853C2.28972 5.48032 2.56083 5.05147 2.9118 4.70054C3.16017 4.45217 3.44756 4.24378 3.76034 4.08473C3.93503 4.29819 4.1116 4.53638 4.28436 4.80102L4.28359 4.80136C3.71123 5.052 3.24515 5.52199 3.00127 6.09859C2.90215 6.33291 2.84232 6.5807 2.81823 6.83376C2.81388 6.88619 2.81094 6.93858 2.80925 6.99116C2.70954 12.2315 2.80843 17.4737 2.80843 22.7149H10.7616V16.2751C10.7616 16.2751 8.87424 15.8784 8.18842 14.1747C7.69989 12.9611 7.59613 12.2978 7.66126 10.5546C8.6278 11.1162 9.16051 12.0018 9.59796 12.7917C9.77642 11.1823 10.3747 10.3505 10.7099 10.1624C11.2738 11.1672 11.5037 12.5748 11.6335 14.1032V23.5868ZM15.6646 1.00391C15.6566 1.08324 15.6457 1.16232 15.6319 1.24107C15.6124 1.3514 15.5876 1.46067 15.5577 1.56858C15.3117 2.45681 14.7401 3.21239 14.1198 3.87644C14.0047 3.99971 13.887 4.12061 13.7682 4.24035C13.6563 4.35309 13.5434 4.46477 13.4305 4.5765C13.6149 5.11757 13.8277 5.64883 14.0665 6.16817C14.1638 6.37984 14.2657 6.58925 14.3713 6.79677C14.6709 6.33334 15.0021 5.8903 15.3605 5.47148C15.6336 5.15233 15.9231 4.84655 16.2282 4.55724C15.997 4.11839 15.8645 3.63232 15.7801 3.1448C15.6581 2.43918 15.6344 1.71923 15.6646 1.00391ZM8.33554 1.00391C8.34355 1.08324 8.35442 1.16232 8.36828 1.24107C8.38769 1.3514 8.41255 1.46067 8.44244 1.56858C8.6884 2.45681 9.26007 3.21239 9.88032 3.87644C9.99548 3.99971 10.1131 4.12061 10.2319 4.24035C10.3438 4.35309 10.4568 4.46477 10.5696 4.5765C10.3852 5.11757 10.1724 5.64883 9.93368 6.16817C9.83634 6.37984 9.73446 6.58925 9.62881 6.79677C9.32922 6.33334 8.99799 5.8903 8.63963 5.47148C8.36649 5.15233 8.07703 4.84655 7.77197 4.55724C8.00311 4.11839 8.13565 3.63232 8.22 3.1448C8.34201 2.43918 8.36572 1.71923 8.33554 1.00391Z" fill="#B27D53"/>
<path fill-rule="evenodd" clip-rule="evenodd" d="M21.1649 2.60956C19.6332 3.71342 17.8415 6.12576 17.6304 8.66422C17.4585 10.7319 17.1052 11.6353 16.8413 12.0221C16.9582 11.325 16.9575 10.3771 16.8266 9.6128C16.5339 9.74234 16.048 10.0409 15.6032 10.4832C15.5479 10.3023 15.094 9.37312 13.5987 9.78517C13.6707 9.55365 13.75 9.32464 13.8382 9.09863C14.0494 8.558 14.305 8.03485 14.5991 7.53405C14.601 7.53081 14.6029 7.52758 14.6047 7.5243C14.9213 6.98632 15.2822 6.47427 15.6798 5.99414C16.0179 5.58576 16.3837 5.19935 16.7753 4.84132C16.7871 4.83225 16.7981 4.82216 16.8085 4.81115C17.0938 4.55244 17.3927 4.30881 17.7044 4.08274C18.5772 3.44979 19.5628 2.94504 20.6189 2.70623C20.7995 2.66543 20.9816 2.63366 21.1649 2.60956ZM2.83496 2.60956C4.36671 3.71342 6.15837 6.12576 6.36951 8.66422C6.54145 10.7319 6.89474 11.6353 7.15856 12.0221C7.04166 11.325 7.04239 10.3771 7.17328 9.6128C7.46603 9.74234 7.95186 10.0409 8.39669 10.4832C8.45198 10.3023 8.90589 9.37312 10.4012 9.78517C10.3292 9.55365 10.2499 9.32464 10.1616 9.09863C9.95051 8.558 9.69489 8.03485 9.40085 7.53405C9.39887 7.53081 9.39698 7.52758 9.39515 7.5243C9.0786 6.98632 8.71773 6.47427 8.32012 5.99414C7.98199 5.58576 7.61619 5.19935 7.22456 4.84132C7.21283 4.83225 7.20177 4.82216 7.19144 4.81115C6.90613 4.55244 6.60721 4.30881 6.29549 4.08274C5.42267 3.44979 4.43711 2.94504 3.381 2.70623C3.20037 2.66543 3.01829 2.63366 2.83496 2.60956ZM12.9259 10.0119C12.7582 9.88927 12.4929 9.669 11.9938 9.67055C11.4947 9.67214 11.2358 9.89357 11.074 10.0119C10.9494 9.22774 10.4344 8.28713 9.98184 7.37771C10.185 6.99361 10.7925 5.65809 10.9546 5.15246C11.385 3.80984 11.7606 2.16405 11.9999 1.27665C12.23 2.16651 12.6058 3.86904 13.0453 5.15246C13.2174 5.65481 13.8149 6.99361 14.0181 7.37771C13.5655 8.28713 13.0505 9.22774 12.9259 10.0119ZM16.312 1.96845C16.4278 1.04904 17.4665 0.981201 18.107 1.19568C19.0274 1.50392 19.3448 2.36366 18.6056 2.84108C18.2488 3.07149 17.8655 3.25946 17.5186 3.50155C17.2272 3.70492 16.9462 3.92288 16.6759 4.15357L16.6715 4.14406C16.3602 3.14334 16.2473 2.48185 16.312 1.96845ZM7.68789 1.96845C7.57206 1.04904 6.53338 0.981201 5.8929 1.19568C4.97252 1.50392 4.65506 2.36366 5.39433 2.84108C5.75109 3.07149 6.13437 3.25946 6.48129 3.50155C6.77268 3.70492 7.05373 3.92288 7.32403 4.15357L7.32837 4.14406C7.63966 3.14334 7.75259 2.48185 7.68789 1.96845ZM12.704 1.53941C12.5973 0.813126 13.3574 0.33932 13.9012 0.418843C14.2585 0.471086 15.2283 0.718732 14.9557 1.55056C14.8494 1.87488 14.6913 2.18143 14.5057 2.46746C14.1808 2.96817 13.7733 3.40687 13.3555 3.83036C13.3144 3.8715 13.2733 3.91254 13.2321 3.95354C13.0705 3.40875 12.9372 2.85566 12.8311 2.29741C12.7832 2.04561 12.7412 1.7929 12.704 1.53941ZM11.2959 1.53941C11.4026 0.813126 10.6425 0.33932 10.0987 0.418843C9.74139 0.471086 8.77157 0.718732 9.04418 1.55056C9.15045 1.87488 9.30858 2.18143 9.49418 2.46746C9.81913 2.96817 10.2266 3.40687 10.6444 3.83036C10.6855 3.8715 10.7266 3.91254 10.7678 3.95354C10.9294 3.40875 11.0627 2.85566 11.1688 2.29741C11.2167 2.04561 11.2587 1.7929 11.2959 1.53941Z" fill="black"/>
</svg>
