<svg viewBox="0 0 24 24" fill="none" xmlns="http://www.w3.org/2000/svg">
<g clip-path="url(#clip0_2578_5631)">
<path d="M0 8.5C0 5.22657 0 3.58985 0.736799 2.38751C1.14908 1.71473 1.71473 1.14908 2.38751 0.736799C3.58985 0 5.22657 0 8.5 0H15.5C18.7734 0 20.4101 0 21.6125 0.736799C22.2853 1.14908 22.8509 1.71473 23.2632 2.38751C24 3.58985 24 5.22657 24 8.5V15.5C24 18.7734 24 20.4101 23.2632 21.6125C22.8509 22.2853 22.2853 22.8509 21.6125 23.2632C20.4101 24 18.7734 24 15.5 24H8.5C5.22657 24 3.58985 24 2.38751 23.2632C1.71473 22.8509 1.14908 22.2853 0.736799 21.6125C0 20.4101 0 18.7734 0 15.5V8.5Z" fill="url(#paint0_linear_2578_5631)"/>
<path d="M4.06348 8.05078C8.9963 8.05078 12.9951 12.0496 12.9951 16.9825V18.6721H4.06348V8.05078Z" fill="url(#paint1_radial_2578_5631)"/>
<path d="M4.13683 18.6881C3.73714 15.9844 4.64166 13.2512 6.57531 11.3197L12.4835 5.41797C15.9965 8.93093 15.9177 14.6504 12.3094 18.0653L11.6512 18.6881L4.13683 18.6881Z" fill="url(#paint2_linear_2578_5631)"/>
<path d="M4.13683 18.6881C3.73714 15.9844 4.64166 13.2512 6.57531 11.3197L12.4835 5.41797C15.9965 8.93093 15.9177 14.6504 12.3094 18.0653L11.6512 18.6881L4.13683 18.6881Z" fill="url(#paint3_radial_2578_5631)"/>
<path d="M4.03418 18.6882C4.03418 13.7043 8.07442 9.66406 13.0583 9.66406H21.1217C21.1217 14.6479 17.0815 18.6882 12.0976 18.6882H4.03418Z" fill="url(#paint4_linear_2578_5631)"/>
</g>
<defs>
<linearGradient id="paint0_linear_2578_5631" x1="12" y1="0" x2="12" y2="24" gradientUnits="userSpaceOnUse">
<stop stop-color="#069D50"/>
<stop offset="0.0001" stop-color="#0AB05E"/>
<stop offset="1" stop-color="#06914A"/>
</linearGradient>
<radialGradient id="paint1_radial_2578_5631" cx="0" cy="0" r="1" gradientUnits="userSpaceOnUse" gradientTransform="translate(9.06708 13.8835) rotate(-137.534) scale(9.06066 19.588)">
<stop stop-color="#83C4A1"/>
<stop offset="0.301503" stop-color="#5C9C7A"/>
<stop offset="0.534058" stop-color="#B4CFC1"/>
<stop offset="1" stop-color="#BCD9CB"/>
</radialGradient>
<linearGradient id="paint2_linear_2578_5631" x1="4.04395" y1="12.053" x2="15.0678" y2="12.053" gradientUnits="userSpaceOnUse">
<stop stop-color="#FAFCFB"/>
<stop offset="1" stop-color="#CCEBDC"/>
</linearGradient>
<radialGradient id="paint3_radial_2578_5631" cx="0" cy="0" r="1" gradientUnits="userSpaceOnUse" gradientTransform="translate(11.6152 14.903) rotate(-111.542) scale(11.4115 17.0434)">
<stop stop-color="#83C4A1"/>
<stop offset="0.362713" stop-color="#47916A"/>
<stop offset="0.499995" stop-color="#C3E0D2"/>
<stop offset="1" stop-color="#C1DED0"/>
</radialGradient>
<linearGradient id="paint4_linear_2578_5631" x1="4.03418" y1="14.1761" x2="21.1217" y2="14.1761" gradientUnits="userSpaceOnUse">
<stop stop-color="#FAFCFB"/>
<stop offset="1" stop-color="#BEE6D3"/>
</linearGradient>
<clipPath id="clip0_2578_5631">
<rect fill="white"/>
</clipPath>
</defs>
</svg>
