<svg viewBox="0 0 24 24" fill="none" xmlns="http://www.w3.org/2000/svg" width="24" height="24">
<path d="M7.24609 8.33095V15.1102C11.5897 15.0281 15.9333 13.3665 20.2773 8.18031L20.2587 0.421875C16.3237 5.15255 12.0606 8.17552 7.24609 8.33095Z" fill="#3F3D8A"/>
<path d="M16.4863 20.6932C16.4863 22.2996 15.1761 23.6098 13.5695 23.6098C11.9631 23.6098 10.6529 22.2996 10.6529 20.6932C10.6529 19.0867 11.9631 17.7765 13.5695 17.7765C15.1761 17.7765 16.4863 19.0867 16.4863 20.6932Z" fill="#3F3D8A"/>
<path fill-rule="evenodd" clip-rule="evenodd" d="M16.3603 8.92188V15.7011C11.5458 15.8566 7.28263 18.8796 3.34768 23.6102L3.3291 15.8518C7.67301 10.6656 12.0166 9.00402 16.3603 8.92188Z" fill="#AFB2AE"/>
</svg>
