<svg viewBox="0 0 24 24" fill="none" xmlns="http://www.w3.org/2000/svg">
<path fill-rule="evenodd" clip-rule="evenodd" d="M8.2185 4.18863L8.2184 4.18853C9.15055 2.82013 10.4788 1.44193 11.922 0.144531C12.7575 1.14628 13.4879 2.40158 13.7497 3.85048C14.7839 3.25623 15.9489 2.76193 17.1771 2.34998C17.9856 2.07883 18.8198 1.84373 19.66 1.63868C19.556 3.51728 19.1998 5.51228 18.3852 7.30343V7.30348L18.3852 7.30343C20.3052 7.34298 22.2396 7.90673 24 8.67373C22.5941 10.4807 21.017 12.1725 19.3445 13.376L19.3445 13.3761L19.3446 13.376C20.5452 14.3678 21.3744 15.7542 21.933 17.1454C20.0408 17.9399 18.1373 18.5686 16.4489 18.7879L16.4487 18.788L16.4489 18.788C16.6665 19.9935 16.4489 21.276 16.0822 22.4048C15.4803 22.3549 14.8858 22.2859 14.3139 22.1929C13.4383 22.0512 12.6129 21.8514 11.8904 21.5727L11.8897 21.5725L11.8904 21.5727C11.4815 22.4703 10.7724 23.2446 10.0497 23.8518C9.10135 23.2619 8.19725 22.5841 7.55545 21.8404L7.55525 21.8402L7.5555 21.8405C6.8938 22.315 6.07385 22.5934 5.31285 22.7512C4.84225 21.999 4.4229 21.1743 4.21795 20.3744C3.782 20.4305 3.32405 20.406 2.8792 20.3328C2.60815 20.2889 2.34025 20.2272 2.08405 20.155C1.97955 19.3792 1.9427 18.5422 2.0764 17.7967V17.7964L2.07635 17.7967C1.4385 17.5522 0.8247 17.0985 0.2963 16.6144C0.4958 15.8808 0.7843 15.1103 1.20305 14.495L1.2031 14.495C0.7131 13.9256 0.3153 13.154 0 12.3786C0.48895 11.7583 1.09175 11.1411 1.75915 10.7556L1.7538 10.7343C1.52875 9.83378 1.47335 8.74803 1.50325 7.67548C1.7984 7.53168 2.1084 7.40228 2.42825 7.29428C2.95495 7.11848 3.5008 7.00783 4.0303 7.01718H4.0304C4.25175 5.79258 4.7592 4.41713 5.3665 3.07363C6.3615 3.20353 7.4111 3.52068 8.21835 4.18853L8.2185 4.18863Z" fill="#7DCDF1"/>
<path fill-rule="evenodd" clip-rule="evenodd" d="M9.85133 7.23141V7.23136C10.452 6.51551 11.1724 5.78471 12.0127 5.06756C12.5325 4.61831 13.1183 4.21676 13.7498 3.85156C13.8517 4.41741 13.8808 5.00506 13.8155 5.60631C13.7084 6.59941 13.4937 7.55746 13.1953 8.45001C14.1163 8.06236 15.1448 7.73501 16.2596 7.49601C16.9546 7.34831 17.6665 7.28891 18.3852 7.30456C18.0772 7.98011 17.706 8.61976 17.2653 9.20586C16.5547 10.1515 15.8028 10.9758 15.0465 11.6746C15.9506 11.8148 16.8823 12.0677 17.8032 12.4445C18.3685 12.6764 18.8813 12.9946 19.3447 13.3771C18.7256 13.8213 18.0943 14.1988 17.4506 14.4927C16.4214 14.9624 15.4406 15.3054 14.5302 15.5389V15.539L14.5302 15.5389C15.0753 16.0813 15.5657 16.714 15.9659 17.4241C16.2059 17.8476 16.362 18.3094 16.449 18.789C15.8205 18.8712 15.2178 18.8973 14.6498 18.8545C13.7306 18.7869 12.8973 18.6427 12.1558 18.4405C12.2646 19.0819 12.2874 19.754 12.215 20.428C12.172 20.8238 12.0566 21.2081 11.8905 21.5739C11.4401 21.3997 11.0258 21.1964 10.6615 20.9533C10.0606 20.5532 9.54148 20.121 9.10568 19.673L9.10233 19.6702L9.10563 19.6736C8.89453 20.1951 8.61483 20.6941 8.26848 21.1524C8.07023 21.418 7.82658 21.6456 7.55553 21.8415C7.30548 21.5533 7.09233 21.2513 6.92853 20.9362C6.65188 20.41 6.44638 19.8804 6.30363 19.361V19.3609C5.92263 19.6747 5.50083 19.94 5.04773 20.1451C4.78718 20.2653 4.50753 20.3372 4.21808 20.3755C4.13653 20.0568 4.08838 19.7399 4.08393 19.4288C4.07508 18.9008 4.12358 18.3888 4.22108 17.9044V17.9043L4.22103 17.9044C3.78098 17.9899 3.32538 18.0174 2.86773 17.9835C2.60178 17.9641 2.33658 17.8985 2.07648 17.7977C2.13198 17.496 2.21463 17.2061 2.33218 16.9409C2.53608 16.4843 2.78518 16.0629 3.07148 15.6851V15.6851C2.65243 15.5414 2.23938 15.3386 1.84513 15.0755C1.61373 14.9209 1.40033 14.7244 1.20312 14.4962C1.37543 14.244 1.56843 14.0175 1.78653 13.8299C2.16433 13.5057 2.57083 13.2393 2.99303 13.0318L2.99313 13.0317L2.99303 13.0318C2.67173 12.6576 2.37723 12.2244 2.12138 11.7329C1.96933 11.4417 1.84993 11.1123 1.75923 10.756C2.03573 10.598 2.32158 10.4787 2.61308 10.4165C3.11873 10.3083 3.62563 10.2774 4.11823 10.3179C3.99118 9.72526 3.91823 9.07176 3.90743 8.36471C3.89918 7.93876 3.94478 7.48711 4.03043 7.01821C4.37808 7.02541 4.71498 7.08606 5.02983 7.21536C5.56903 7.43481 6.06258 7.74041 6.49988 8.11201L6.50008 8.11211L6.49993 8.11196C6.69333 7.36436 6.97138 6.56476 7.34603 5.72821C7.57568 5.21396 7.87123 4.70051 8.21843 4.18961C8.54413 4.45746 8.82553 4.78026 9.04188 5.16361C9.40763 5.81056 9.67618 6.51216 9.85128 7.23136L9.85133 7.23141Z" fill="#00AAE7"/>
<path fill-rule="evenodd" clip-rule="evenodd" d="M7.99601 10.1191C7.98456 10.145 8.00751 10.1454 7.99601 10.1191L7.99641 10.1182L7.99601 10.1173C8.39931 9.20277 9.01981 8.22047 9.85147 7.23047C10.1025 8.27577 10.1506 9.34197 10.0107 10.3318C9.99201 10.3473 9.99081 10.366 10.0026 10.3877C10.0054 10.3691 10.0081 10.3505 10.0107 10.3318C10.8545 9.62977 11.9301 8.98042 13.1954 8.44907C12.7753 9.70437 12.1981 10.8144 11.5336 11.712L11.5334 11.7121H11.5336C11.7361 11.6718 11.9428 11.6391 12.1558 11.6125C13.0504 11.5022 14.0281 11.5156 15.0467 11.6741C14.0049 12.6343 12.9492 13.3575 11.9592 13.8309C12.8603 14.1838 13.7471 14.7607 14.5304 15.538C13.5185 15.797 12.5819 15.9196 11.7512 15.9224C11.5525 15.9228 11.3595 15.9162 11.1733 15.9035L11.1733 15.9034L11.1733 15.9035C11.6532 16.6182 11.9954 17.4883 12.1558 18.4394C11.1195 18.1549 10.2457 17.7503 9.56357 17.2654V17.2649L9.56352 17.2653C9.57986 18.054 9.42486 18.8818 9.10576 19.672C8.47971 19.0301 8.01106 18.343 7.71191 17.6556C7.69991 17.6279 7.72076 17.639 7.71191 17.6556C7.36896 18.2965 6.88721 18.881 6.30376 19.36C6.09531 18.5937 6.02391 17.8373 6.08606 17.1351L6.08611 17.1351H6.08606V17.1351C5.53321 17.511 4.89501 17.7736 4.22111 17.9035C4.36871 17.1748 4.63026 16.5003 4.98756 15.925C5.00926 15.923 5.00311 15.8999 4.98761 15.925C4.86066 15.9364 4.73426 15.9425 4.60601 15.9425C4.09671 15.9437 3.57841 15.8586 3.07156 15.6842C3.50606 15.1074 4.02306 14.6302 4.58666 14.2862C4.01311 14.0093 3.47106 13.5839 2.99316 13.0309C3.51031 12.7763 4.04946 12.613 4.58146 12.5473C4.71391 12.5302 4.84721 12.5208 4.98031 12.517C4.99501 12.5399 5.00841 12.5162 4.98026 12.517C4.59696 11.9214 4.30121 11.1767 4.11946 10.3171C4.86736 10.3801 5.57196 10.6096 6.17136 10.9825V10.9825C6.17276 11.0081 6.19356 10.9963 6.17136 10.9825V10.9825C6.12286 10.1399 6.22836 9.16662 6.50001 8.11112C7.15261 8.66667 7.66416 9.35992 7.99601 10.1173L7.99561 10.1182L7.99601 10.1191Z" fill="#006FBA"/>
<path fill-rule="evenodd" clip-rule="evenodd" d="M10.0114 10.3223C10.0109 10.3261 10.0104 10.33 10.0099 10.3338C9.33239 10.898 8.79539 11.5042 8.42079 12.1226C8.42504 11.4517 8.27889 10.7688 7.99524 10.1211C7.66534 10.8706 7.47374 11.5879 7.42969 12.2439C7.12714 11.7375 6.69329 11.3095 6.17059 10.9845C6.20989 11.6907 6.35834 12.3189 6.61124 12.8393C6.12004 12.6053 5.56294 12.501 4.97949 12.519C4.97289 12.5088 4.95984 12.5101 4.94189 12.5203C4.95444 12.5198 4.96694 12.5194 4.97949 12.519C5.30664 13.0294 5.70389 13.439 6.15549 13.7193C5.62054 13.7826 5.08569 13.9825 4.58594 14.2882C5.08569 14.5309 5.61484 14.6599 6.14279 14.6574C5.69244 14.9822 5.30119 15.4183 4.98684 15.927C5.54249 15.8768 6.07924 15.7146 6.55974 15.4415C6.29839 15.9498 6.14059 16.5267 6.08534 17.1371C6.57949 16.8025 7.00049 16.3824 7.31629 15.8954C7.32054 16.4758 7.45699 17.0716 7.71114 17.6576C8.01409 17.0906 8.20109 16.4885 8.25194 15.8922C8.55449 16.4008 8.99949 16.8664 9.56274 17.2673C9.54904 16.5838 9.40694 15.9417 9.13674 15.391C9.69869 15.6764 10.3865 15.8512 11.1725 15.9054C10.7672 15.3028 10.2707 14.8197 9.71579 14.4936C10.4049 14.435 11.1651 14.2126 11.9584 13.8329C11.2212 13.5444 10.4798 13.4112 9.78314 13.4383C10.4003 13.0242 10.9949 12.4404 11.5328 11.7141C10.6835 11.8821 9.92624 12.1677 9.29744 12.556C9.65184 11.9105 9.89419 11.1542 10.0099 10.3338C10.0129 10.3313 10.0133 10.3274 10.0114 10.3223Z" fill="white"/>
</svg>
