<svg viewBox="0 0 24 24" fill="none" xmlns="http://www.w3.org/2000/svg" width="24" height="24">
<path d="M17.1542 2.98516L17.8173 3.38312L7.57588 9.35721V14.5238L11.2487 16.6591L5.47514 20.1271L1.75 17.9108V5.97032L12.0194 0L17.1542 2.98516Z" fill="#277EB5"/>
<path d="M6.84591 21.0148L6.18267 20.6169L16.4242 14.6428V9.47618L12.7513 7.34093L18.5249 3.87287L22.25 6.08923V18.0297L11.9806 24L6.84591 21.0148Z" fill="#277EB5"/>
<path fill-rule="evenodd" clip-rule="evenodd" d="M12 15.5C13.9277 15.5 15.5 13.9278 15.5 12C15.5 10.0722 13.9277 8.5 12 8.5C10.0723 8.5 8.5 10.0722 8.5 12C8.5 13.9278 10.0723 15.5 12 15.5Z" fill="#DBAF2E"/>
</svg>
