<svg viewBox="0 0 24 24" fill="none" xmlns="http://www.w3.org/2000/svg" width="24" height="24">
<path fill-rule="evenodd" clip-rule="evenodd" d="M2.15515 15.7345L6 22.394H8.86695L5.0371 15.7913L5.7677 14.5259L10.3103 22.394H18L19.4353 19.908L11.7916 19.9111L7.2251 12.0017L8.8877 9.12192H5.97295L2.15515 15.7345ZM20.1551 18.6611L24 12.0017L22.5665 9.51883L18.7634 16.1369H17.3022L21.8448 8.26883L18 1.60938H15.1294L18.954 8.22743L14.3874 16.1369H11.0622L12.5196 18.6611H20.1551ZM12.93 5.34223L12.1995 4.07678L4.56655 4.09223L6 1.60938H13.6897L17.5075 8.22197L16.0501 10.7462L14.3875 7.86648H5.2544L1.4353 14.4877L0 12.0017L3.84485 5.34223H12.93Z" fill="#B11116"/>
<path fill-rule="evenodd" clip-rule="evenodd" d="M12.0003 9.12891C13.6087 9.12891 14.9146 10.4348 14.9146 12.0433C14.9146 13.6517 13.6087 14.9576 12.0003 14.9576C10.3918 14.9576 9.08594 13.6517 9.08594 12.0433C9.08594 10.4348 10.3918 9.12891 12.0003 9.12891Z" fill="#00A1BF"/>
</svg>
