<svg viewBox="0 0 24 24" fill="none" xmlns="http://www.w3.org/2000/svg" width="24" height="24">
<path d="M17.1406 9.16674L9.48188 13.5893C8.99552 13.87 8.56922 14.2437 8.22734 14.6892C7.88546 15.1346 7.6347 15.6431 7.48938 16.1855C7.34406 16.7279 7.30703 17.2936 7.3804 17.8503C7.45377 18.407 7.63612 18.9438 7.91701 19.4301L9.05133 21.3959C9.08207 21.4498 9.13024 21.4917 9.18792 21.5145C9.24561 21.5374 9.30936 21.54 9.3687 21.5218C9.42803 21.5037 9.47942 21.4658 9.51439 21.4146C9.54937 21.3633 9.56585 21.3017 9.56113 21.2398C9.50847 20.4561 9.67267 19.6731 10.0357 18.9766C10.3988 18.2802 10.9466 17.6971 11.6192 17.2915L16.3884 14.5379C16.8212 14.2881 17.2007 13.9555 17.505 13.559C17.8093 13.1626 18.0325 12.7101 18.1619 12.2273C18.2913 11.7446 18.3243 11.2411 18.2591 10.7456C18.1938 10.25 18.0316 9.77224 17.7817 9.33943C17.7189 9.23225 17.6165 9.15406 17.4966 9.12175C17.3766 9.08944 17.2488 9.1056 17.1406 9.16674Z" fill="url(#paint0_linear_2578_5579)"/>
<path d="M19.4904 0.651046C19.4274 0.544066 19.3248 0.466128 19.2049 0.434043C19.085 0.401959 18.9573 0.418298 18.8493 0.479536L6.13987 7.81302C5.65265 8.09391 5.2256 8.46814 4.88318 8.91427C4.54077 9.36041 4.28969 9.8697 4.14434 10.413C3.99899 10.9563 3.96221 11.5229 4.03611 12.0804C4.11001 12.6379 4.29313 13.1754 4.575 13.6621L5.71051 15.6267C5.74122 15.6805 5.78929 15.7222 5.84683 15.7451C5.90437 15.768 5.96798 15.7706 6.02722 15.7526C6.08647 15.7346 6.13784 15.697 6.17292 15.646C6.208 15.595 6.22471 15.5335 6.2203 15.4718C6.16738 14.6881 6.33147 13.905 6.69455 13.2084C7.05762 12.5119 7.60564 11.9289 8.27841 11.5235L18.0958 5.85427C18.5293 5.60445 18.9093 5.27163 19.214 4.87483C19.5188 4.47802 19.7423 4.02504 19.8718 3.54177C20.0013 3.05851 20.0343 2.55445 19.9689 2.05843C19.9034 1.56242 19.7408 1.08417 19.4904 0.651046Z" fill="url(#paint1_linear_2578_5579)"/>
<path d="M12.8176 19.3555C12.3998 19.3555 11.9913 19.4794 11.6439 19.7115C11.2965 19.9436 11.0258 20.2735 10.8659 20.6596C10.706 21.0456 10.6642 21.4703 10.7457 21.8801C10.8272 22.2899 11.0284 22.6663 11.3238 22.9618C11.6193 23.2572 11.9957 23.4584 12.4055 23.5399C12.8153 23.6214 13.24 23.5796 13.626 23.4197C14.012 23.2598 14.342 22.989 14.5741 22.6416C14.8062 22.2942 14.9301 21.8858 14.9301 21.468C14.9301 20.9077 14.7075 20.3704 14.3114 19.9742C13.9152 19.578 13.3779 19.3555 12.8176 19.3555Z" fill="url(#paint2_linear_2578_5579)"/>
<defs>
<linearGradient id="paint0_linear_2578_5579" x1="4.61221" y1="2.24843" x2="20.4442" y2="25.8315" gradientUnits="userSpaceOnUse">
<stop offset="0.3" stop-color="#1E3D90"/>
<stop offset="0.66" stop-color="#D0056D"/>
</linearGradient>
<linearGradient id="paint1_linear_2578_5579" x1="7.39248" y1="0.382545" x2="23.2245" y2="23.9656" gradientUnits="userSpaceOnUse">
<stop offset="0.3" stop-color="#1E3D90"/>
<stop offset="0.66" stop-color="#D0056D"/>
</linearGradient>
<linearGradient id="paint2_linear_2578_5579" x1="1.375" y1="4.42237" x2="17.207" y2="28.0042" gradientUnits="userSpaceOnUse">
<stop offset="0.3" stop-color="#1E3D90"/>
<stop offset="0.66" stop-color="#D0056D"/>
</linearGradient>
</defs>
</svg>
