<svg viewBox="0 0 24 24" fill="none" xmlns="http://www.w3.org/2000/svg" width="24" height="24">
<path fill-rule="evenodd" clip-rule="evenodd" d="M8.34029 5.63667C8.02302 5.9898 7.927 6.19852 7.91011 6.57096C7.8908 6.99995 7.91534 7.06593 8.38726 7.85734C8.7627 8.48712 8.84168 8.54054 9.11736 8.35231C9.18377 8.30696 9.33185 8.20552 9.44627 8.12697C9.94946 7.78147 10.6229 7.51827 11.2698 7.41442C11.8298 7.3245 11.8358 7.3079 11.6188 6.43286C11.4331 5.68381 11.3917 5.58969 11.1329 5.32769C10.7819 4.97254 10.2838 4.83481 9.64955 4.91809C9.1353 4.98561 8.72097 5.21307 8.34029 5.63667ZM12.4014 6.38991C12.1671 7.29577 12.1764 7.32375 12.741 7.41442C13.4919 7.53503 14.2279 7.85015 14.8177 8.30367C15.0508 8.48309 15.2417 8.47619 15.3689 8.28408C16.1583 7.09047 16.2861 6.53086 15.9041 5.93953C15.4063 5.16919 14.6277 4.80687 13.7132 4.91988C12.9665 5.01248 12.6721 5.3422 12.4014 6.38991ZM5.0672 10.7747C5.27437 11.2141 5.55139 11.386 6.39801 11.6C7.28531 11.8243 7.34304 11.8091 7.40767 11.335C7.50744 10.6033 7.81303 9.86253 8.27447 9.23407C8.56944 8.83231 8.54746 8.78743 7.85057 8.37071C6.99423 7.85854 6.71796 7.78641 6.23825 7.94981C5.20616 8.30159 4.59573 9.77409 5.0672 10.7747ZM16.1603 8.37071C15.4664 8.78578 15.4408 8.83681 15.7305 9.22884C16.1878 9.84755 16.4929 10.5876 16.6042 11.3488C16.6714 11.8079 16.7263 11.8216 17.6051 11.6014C18.5851 11.3557 18.9072 11.1015 19.0484 10.4625C19.3561 9.07068 18.2185 7.63035 17.0413 7.92136C16.8494 7.96865 16.7339 8.02761 16.1603 8.37071ZM5.33779 12.8677C4.14789 14.0634 5.55707 16.5839 7.10747 16.0327C7.29563 15.9656 8.32115 15.3652 8.38231 15.286C8.48778 15.1496 8.4586 15.0104 8.27237 14.7602C7.82664 14.162 7.5016 13.3703 7.40572 12.6495C7.34455 12.1899 7.27245 12.1704 6.43361 12.3865C5.66567 12.5843 5.5843 12.6199 5.33779 12.8677ZM16.6062 12.6304C16.4947 13.4067 16.1948 14.1388 15.7271 14.7764C15.4381 15.1704 15.4608 15.2134 16.1851 15.6451C17.2684 16.2905 17.7159 16.2839 18.4215 15.6121C19.372 14.7066 19.3238 13.0504 18.3343 12.609C18.2197 12.558 16.9665 12.2223 16.9058 12.2265C16.898 12.227 16.857 12.2425 16.8148 12.2609C16.6881 12.3162 16.6388 12.4037 16.6062 12.6304ZM8.14599 16.5443C7.73479 17.2601 7.81915 17.8394 8.42405 18.4516C9.34052 19.3793 10.9376 19.3102 11.3978 18.3229C11.4643 18.1802 11.7686 17.0157 11.7685 16.9047C11.7682 16.7355 11.644 16.6476 11.3356 16.5984C10.5591 16.4742 9.84161 16.1787 9.24809 15.7383C9.02611 15.5738 8.884 15.5326 8.75821 15.5963C8.70437 15.6237 8.43752 16.0369 8.14599 16.5443ZM12.7159 16.5902C12.1831 16.6691 12.1722 16.7023 12.3931 17.5764C12.5806 18.3177 12.6313 18.4318 12.8843 18.6829C13.8977 19.688 16.1069 18.7717 16.1103 17.3448C16.1112 16.9852 15.9746 16.6818 15.4049 15.7772C15.2411 15.5171 15.0821 15.4948 14.8203 15.6954C14.2317 16.1467 13.4414 16.4828 12.7159 16.5902Z" fill="#FF7F31"/>
<path d="M12.0001 0.628906C9.08058 0.628906 6.66218 2.79143 6.26075 5.60068C7.78041 4.2208 9.79341 3.38013 12.0001 3.38013C14.2068 3.38013 16.2198 4.2208 17.7394 5.60068C17.338 2.79143 14.9196 0.628906 12.0001 0.628906Z" fill="#37389A"/>
<path d="M5.60981 6.25859C4.25459 7.78325 3.4303 9.79512 3.4303 11.9991C3.4303 14.2031 4.25459 16.215 5.60981 17.7396C2.79659 17.3417 0.629883 14.9214 0.629883 11.9991C0.629883 9.07676 2.79659 6.65649 5.60981 6.25859Z" fill="#37389A"/>
<path d="M23.3703 11.9991C23.3703 9.07676 21.2036 6.65649 18.3903 6.25859C19.7456 7.78325 20.5699 9.79512 20.5699 11.9991C20.5699 14.2031 19.7456 16.215 18.3903 17.7396C21.2036 17.3417 23.3703 14.9214 23.3703 11.9991Z" fill="#37389A"/>
<path fill-rule="evenodd" clip-rule="evenodd" d="M11.6302 7.7482C8.95747 7.9478 7.13063 10.6621 7.9225 13.2569C8.98392 16.7345 13.6909 17.3558 15.6072 14.2714C17.4633 11.2836 15.1478 7.48541 11.6302 7.7482ZM11.663 14.2858C11.6855 14.3448 11.6797 15.3303 11.6566 15.3446C11.5899 15.386 10.7994 14.3388 10.8434 14.2673C10.868 14.2275 11.6475 14.2452 11.663 14.2858ZM14.7068 14.2732C14.7669 14.3705 13.999 14.9679 13.5052 15.2081C13.119 15.3958 13.1012 15.3891 13.2892 15.1275C13.4668 14.88 13.6562 14.568 13.7405 14.3834L13.8021 14.2486H14.2469C14.5309 14.2486 14.6972 14.2575 14.7068 14.2732ZM10.0639 14.2486H9.68032C9.37114 14.2486 9.29663 14.2548 9.29663 14.2809C9.29663 14.4315 10.4488 15.2874 10.6515 15.2874C10.6828 15.2874 10.6497 15.228 10.4609 14.9447C10.3493 14.7773 10.2142 14.5521 10.1609 14.4445L10.0639 14.2486ZM12.6776 14.2486H12.3373V14.7318C12.3373 15.1095 12.3437 15.2123 12.3667 15.2023C12.4561 15.1636 13.0592 14.3151 13.0305 14.2686C13.0237 14.2575 12.8649 14.2486 12.6776 14.2486ZM11.6658 12.3656C11.6729 12.3948 11.6757 12.6789 11.6722 12.9971L11.6655 13.5757L10.5005 13.5883L10.4406 13.3915C10.3317 13.0342 10.2169 12.3918 10.2517 12.3354C10.2603 12.3214 10.5362 12.3125 10.9593 12.3125H11.6528L11.6658 12.3656ZM9.3068 13.5874C9.5734 13.5874 9.79147 13.5795 9.79147 13.5697C9.79147 13.5599 9.76009 13.4279 9.7219 13.2763C9.65924 13.0281 9.59093 12.6269 9.57396 12.407L9.5676 12.3242L9.03568 12.318C8.7432 12.3144 8.49655 12.3188 8.48764 12.3277C8.42005 12.3956 8.57237 13.0443 8.74335 13.4163L8.82212 13.5874H9.3068ZM13.3684 13.5874L13.4437 13.3292C13.5407 12.9964 13.6061 12.6713 13.615 12.4778L13.6219 12.3242L12.9957 12.318C12.6513 12.3146 12.3622 12.319 12.3533 12.3277C12.3445 12.3367 12.3373 12.6237 12.3373 12.9657V13.5874H13.3684ZM15.1847 13.5874L15.2693 13.385C15.3998 13.0726 15.5571 12.4312 15.525 12.3419C15.5131 12.3089 14.3291 12.2974 14.3096 12.3302C14.3038 12.3399 14.2917 12.4169 14.2828 12.5013C14.2547 12.769 14.1752 13.2241 14.1275 13.3908C14.1022 13.4793 14.0816 13.5598 14.0816 13.5696C14.0816 13.5795 14.3298 13.5874 14.6332 13.5874H15.1847ZM11.663 10.3429C11.6708 10.3634 11.6773 10.6547 11.6773 10.9903C11.6773 11.3258 11.6708 11.617 11.663 11.6376C11.646 11.6819 10.2786 11.6955 10.2514 11.6517C10.1948 11.5599 10.4621 10.3821 10.5528 10.3243C10.6144 10.2851 11.6475 10.3024 11.663 10.3429ZM9.33297 10.3055H8.87276L8.7811 10.4885C8.61747 10.8152 8.43248 11.5153 8.47831 11.635C8.4926 11.6724 8.53997 11.6753 9.03002 11.6694L9.56617 11.6632L9.59363 11.4153C9.6263 11.1198 9.6799 10.8478 9.75951 10.5725C9.79162 10.4615 9.8124 10.3559 9.80548 10.3381C9.79558 10.312 9.70196 10.3055 9.33297 10.3055ZM13.3558 10.4C13.4618 10.6173 13.6622 11.5428 13.6246 11.6413C13.6133 11.6706 13.5164 11.6748 12.9803 11.6694L12.3491 11.6632L12.3429 11.0142C12.3393 10.6573 12.3417 10.3516 12.3481 10.335C12.3571 10.3113 12.4655 10.3059 12.8376 10.311L13.3155 10.3174L13.3558 10.4ZM15.5312 11.6632L15.5236 11.5687C15.5004 11.2844 15.3537 10.7689 15.218 10.4942L15.1306 10.3174L14.0526 10.3047L14.0654 10.37C14.0725 10.406 14.1058 10.5417 14.1391 10.6716C14.1951 10.8886 14.2427 11.1603 14.2881 11.5215L14.3057 11.6632H15.5312ZM11.6773 9.12446C11.6773 9.38244 11.6708 9.61023 11.663 9.63076C11.6466 9.67341 10.9146 9.68801 10.8887 9.64607C10.8502 9.58388 11.5971 8.60597 11.6554 8.64209C11.6677 8.6496 11.6773 8.86111 11.6773 9.12446ZM14.2007 9.66803C14.4786 9.66803 14.6264 9.65938 14.6368 9.64238C14.6906 9.55525 13.9206 8.959 13.5268 8.78262L13.5113 8.77568C13.2964 8.67941 13.1932 8.6332 13.175 8.65567C13.1583 8.67642 13.2139 8.75567 13.3209 8.90806L13.3292 8.9199C13.431 9.0651 13.5743 9.29291 13.6475 9.42607L13.7805 9.66803H14.2007ZM10.0974 9.66803L10.1831 9.49689C10.2609 9.34191 10.5518 8.88463 10.6314 8.79268C10.6492 8.77214 10.6637 8.74296 10.6637 8.72767C10.6637 8.68516 10.647 8.6914 10.3643 8.83943C9.96784 9.04697 9.31161 9.57325 9.35715 9.64706C9.36421 9.65867 9.53366 9.66803 9.73377 9.66803H10.0974ZM12.5102 8.93548C12.7159 9.18595 13.004 9.62354 12.9794 9.64819C12.9677 9.65994 12.821 9.66661 12.6536 9.66293L12.3491 9.65626L12.3421 9.17242C12.3383 8.91316 12.3366 8.80318 12.3665 8.79384C12.3885 8.78695 12.4275 8.83465 12.4954 8.91748L12.5102 8.93548Z" fill="#37389A"/>
<path d="M17.7394 18.3975C17.338 21.2068 14.9196 23.3693 12.0001 23.3693C9.08058 23.3693 6.66218 21.2068 6.26075 18.3975C7.78041 19.7775 9.79341 20.6181 12.0001 20.6181C14.2068 20.6181 16.2198 19.7775 17.7394 18.3975Z" fill="#37389A"/>
</svg>
