<svg viewBox="0 0 24 24" fill="none" xmlns="http://www.w3.org/2000/svg" width="24" height="24">
<path fill-rule="evenodd" clip-rule="evenodd" d="M12.7311 22.8222C12.5372 23.0161 12.2742 23.125 12 23.125C11.7258 23.125 11.4628 23.0161 11.2689 22.8222C10.491 22.0442 9.37102 20.9243 9.37102 20.9243C9.37102 20.9243 10.5704 20.9243 11.3424 20.9243C11.7498 20.9243 12.1406 20.7624 12.4288 20.4743C13.7017 19.2013 17.2367 15.6663 17.2367 15.6663L17.258 18.2953C17.258 18.2953 14.1758 21.3775 12.7311 22.8222ZM5.66732 18.0293C5.95493 18.3169 6.34501 18.4784 6.75175 18.4784C8.55101 18.4784 13.5523 18.4784 13.5523 18.4784L11.7084 20.3524H4.27257V16.6345C4.27257 16.6345 5.12149 17.4834 5.66732 18.0293ZM19.7274 20.3524H16.0095C16.0095 20.3524 16.8584 19.5035 17.4043 18.9577C17.6919 18.6701 17.8534 18.28 17.8534 17.8732C17.8534 16.074 17.8534 11.0727 17.8534 11.0727L19.7274 12.9166V20.3524ZM1.80284 13.3561C1.60894 13.1622 1.49996 12.8992 1.5 12.625C1.50004 12.3508 1.60894 12.0878 1.80284 11.8939C2.58076 11.116 3.70071 9.99602 3.70071 9.99602C3.70071 9.99602 3.70071 11.1954 3.70071 11.9674C3.70071 12.3748 3.86259 12.7656 4.15073 13.0538C5.42368 14.3267 8.95868 17.8617 8.95868 17.8617L6.32969 17.883C6.32969 17.883 3.24755 14.8008 1.80284 13.3561ZM22.1972 11.8939C22.3911 12.0878 22.5 12.3508 22.5 12.625C22.5 12.8992 22.3911 13.1622 22.1972 13.3561C21.4192 14.134 20.2993 15.254 20.2993 15.254C20.2993 15.254 20.2993 14.0546 20.2993 13.2826C20.2993 12.8752 20.1374 12.4844 19.8493 12.1962C18.5763 10.9233 15.0413 7.3883 15.0413 7.3883L17.6703 7.36704C17.6703 7.36704 20.7525 10.4492 22.1972 11.8939ZM4.27257 4.89757H7.99049C7.99049 4.89757 7.14156 5.74649 6.59569 6.29232C6.30813 6.57993 6.14656 6.97001 6.14656 7.37675C6.14656 9.17601 6.14656 14.1773 6.14656 14.1773L4.27257 12.3334V4.89757ZM14.629 4.32571C14.629 4.32571 13.4296 4.32571 12.6576 4.32571C12.2502 4.32571 11.8594 4.48759 11.5712 4.77573C10.2983 6.04868 6.7633 9.58368 6.7633 9.58368L6.74204 6.95469C6.74204 6.95469 9.82423 3.87255 11.2689 2.42784C11.4628 2.23394 11.7258 2.125 12 2.125C12.2742 2.125 12.5372 2.23394 12.7311 2.42784C13.509 3.20576 14.629 4.32571 14.629 4.32571ZM19.7274 4.89757V8.61549C19.7274 8.61549 18.8785 7.76656 18.3327 7.22069C18.0451 6.93313 17.655 6.77156 17.2482 6.77156C15.449 6.77156 10.4477 6.77156 10.4477 6.77156L12.2916 4.89757H19.7274Z" fill="#001B49"/>
<path d="M12 17.0029C14.4179 17.0029 16.3779 15.0429 16.3779 12.625C16.3779 10.2071 14.4179 8.24707 12 8.24707C9.58214 8.24707 7.62207 10.2071 7.62207 12.625C7.62207 15.0429 9.58214 17.0029 12 17.0029Z" fill="#001B49"/>
</svg>
