<svg viewBox="0 0 24 24" fill="none" xmlns="http://www.w3.org/2000/svg" width="24" height="24">
<path fill-rule="evenodd" clip-rule="evenodd" d="M15.6923 22.5828C15.6923 22.4561 15.642 22.3346 15.5526 22.245C15.4631 22.1555 15.3418 22.1051 15.2152 22.1051C13.921 22.1051 10.3538 22.1051 9.05956 22.1051C8.93306 22.1051 8.81173 22.1555 8.72225 22.245C8.63278 22.3346 8.58254 22.4561 8.58254 22.5828C8.58254 22.7637 8.58254 22.9695 8.58254 23.1504C8.58254 23.2771 8.63278 23.3986 8.72225 23.4882C8.81173 23.5778 8.93306 23.6281 9.05956 23.6281C10.3538 23.6281 13.921 23.6281 15.2152 23.6281C15.3418 23.6281 15.4631 23.5778 15.5526 23.4882C15.642 23.3986 15.6923 23.2771 15.6923 23.1504C15.6923 22.9695 15.6923 22.7637 15.6923 22.5828ZM12.3532 15.3886C12.3532 15.3886 14.5986 12.8584 16.7267 11.6629C19.2378 10.2523 23.0218 10.5798 23.0218 10.5798C23.0218 10.5798 20.0123 11.487 18.1973 14.1476C16.5711 16.5314 15.5624 21.4622 15.5624 21.4622C15.5624 21.4622 14.0431 17.7606 12.3532 15.3886ZM14.6854 21.4093H8.59676C8.59676 21.4093 7.74904 20.291 7.4369 18.7518C7.09891 17.085 6.54868 15.1055 5.69791 14.0151C4.08741 11.9512 0.977539 10.6676 0.977539 10.6676C0.977539 10.6676 6.83348 9.69799 10.408 14.2044C12.1419 16.3905 14.6832 21.4047 14.6854 21.4093Z" fill="#002263"/>
<path fill-rule="evenodd" clip-rule="evenodd" d="M12.0003 7.52837C13.6088 7.52837 14.9147 8.85559 14.9147 10.4903C14.9147 12.1251 13.6088 13.4523 12.0003 13.4523C10.3918 13.4523 9.08596 12.1251 9.08596 10.4903C9.08596 8.85559 10.3918 7.52837 12.0003 7.52837ZM15.4545 9.34336C16.5732 8.67914 18.9066 7.34599 20.166 7.00412C20.2719 6.97537 20.3782 6.96182 20.4829 6.96208L20.4904 6.96214C21.0207 6.96694 21.5047 7.32732 21.6486 7.87126C21.8216 8.52508 21.438 9.19811 20.7926 9.37329C19.6528 9.68268 17.3505 9.73452 15.9623 9.73522H15.9143C15.7864 9.73516 15.6668 9.73474 15.5571 9.73399C15.5298 9.60101 15.4955 9.47064 15.4545 9.34336ZM8.44358 9.73399C7.14727 9.74258 4.46769 9.71521 3.20803 9.37329C2.56264 9.19811 2.17911 8.52508 2.35203 7.87126C2.52494 7.21749 3.18929 6.82894 3.83467 7.00412C5.09406 7.34599 7.42745 8.67914 8.54609 9.34336C8.50518 9.47064 8.47085 9.60101 8.44358 9.73399ZM8.87055 8.61502C7.63965 8.2007 5.11302 7.30257 4.02928 6.56889C3.47383 6.19283 3.32419 5.43061 3.6954 4.86784C4.06667 4.30508 4.81905 4.15353 5.37455 4.5296C6.45808 5.26317 8.24323 7.28385 9.09223 8.27768C9.01251 8.3857 8.93842 8.4983 8.87055 8.61502ZM14.8867 8.2485C15.7325 7.25365 17.5152 5.22583 18.5979 4.48906C19.1526 4.11171 19.9053 4.26149 20.2778 4.82335C20.6504 5.38527 20.5025 6.1478 19.9479 6.52521C18.8657 7.2615 16.341 8.1656 15.1112 8.58285C15.0422 8.4671 14.9673 8.3555 14.8867 8.2485ZM9.63794 7.68579C8.60544 6.88847 6.50594 5.2103 5.71649 4.16094C5.31147 3.62261 5.4141 2.85244 5.94549 2.44218C6.47688 2.03187 7.2371 2.13584 7.64207 2.67417C8.4312 3.72311 9.47129 6.2172 9.95671 7.43769C9.84592 7.51445 9.73951 7.59734 9.63794 7.68579ZM14.0268 7.42585C14.5109 6.20995 15.5567 3.7039 16.3491 2.65209C16.7544 2.11402 17.5147 2.01059 18.0458 2.42122C18.5769 2.83185 18.6791 3.60207 18.2738 4.14014C17.4817 5.19158 15.3727 6.87401 14.3425 7.66829C14.2418 7.58187 14.1364 7.5009 14.0268 7.42585ZM10.6483 7.06231C9.92196 5.97007 8.4678 3.70225 8.05283 2.45328C7.83973 1.81178 8.18078 1.11565 8.814 0.899775C9.44722 0.683843 10.1344 1.02934 10.3475 1.67085C10.7623 2.91955 10.9577 5.61566 11.0311 6.93088C10.9004 6.96758 10.7727 7.01159 10.6483 7.06231ZM12.9689 6.93066C13.0421 5.61544 13.237 2.91934 13.6516 1.67058C13.8647 1.02902 14.5517 0.683416 15.185 0.899188C15.8182 1.11501 16.1594 1.81103 15.9464 2.45259C15.5317 3.70166 14.0779 5.96969 13.3518 7.0621C13.2274 7.01137 13.0996 6.96742 12.9689 6.93066ZM11.798 6.80344C11.4535 5.53313 10.7898 2.91496 10.7898 1.5975C10.7898 0.920632 11.3322 0.371094 12.0003 0.371094C12.6685 0.371094 13.2109 0.920632 13.2109 1.5975C13.2109 2.91496 12.5472 5.53313 12.2026 6.80344C12.1357 6.79971 12.0682 6.79779 12.0003 6.79779C11.9325 6.79779 11.865 6.79971 11.798 6.80344Z" fill="#0BBBB9"/>
</svg>
