<svg viewBox="0 0 24 24" fill="none" xmlns="http://www.w3.org/2000/svg">
<path d="M4.51891 10.5781C3.45392 10.5781 2.5065 11.1189 1.97437 12.0474C1.45182 12.9592 1.43758 14.0783 1.97388 14.9879C2.49349 15.8693 3.47429 16.336 4.47891 16.336C7.58592 16.336 9.60272 13.1776 11.2361 10.6196C11.6088 10.0359 11.9616 9.48353 12.3028 9.00703C12.4935 8.7407 12.6918 8.4822 12.8999 8.23426C13.1805 7.89999 13.4787 7.5846 13.8 7.29545C14.9906 6.22299 16.5276 5.50739 18.5999 5.50004L18.5999 9.00703C17.6601 9.00703 16.7662 9.35185 15.8936 9.90635C15.4864 10.1651 15.0839 10.4694 14.6836 10.8057C13.7646 11.5776 12.9259 12.4351 12.0871 13.2928C11.1909 14.2091 10.2946 15.1255 9.29997 15.938C8.98874 16.192 8.67285 16.4314 8.35107 16.6507C8.11446 16.812 7.87466 16.9628 7.63118 17.1004C6.67099 17.6439 5.61336 17.9998 4.50002 17.9998C3.52559 17.9975 2.57915 17.6856 1.79986 17.1004C1.61749 16.9636 1.44568 16.813 1.28638 16.6507C0.490647 15.8396 0 14.7286 0 13.5034C0 13.0333 0.0721613 12.5803 0.20593 12.1543C0.491138 11.2476 1.05616 10.4645 1.79961 9.90635C2.57719 9.32267 3.52731 9.00703 4.50002 9.00703C5.70197 9.01022 6.84182 9.35651 7.90117 9.90635C8.37954 10.1545 8.84466 10.4434 9.29997 10.7596C9.32206 10.7748 9.34415 10.7902 9.36624 10.8057C9.38558 10.8193 9.40851 10.8331 9.43385 10.8485C9.46156 10.8652 9.49214 10.8837 9.52406 10.9055L9.84658 11.1245L9.85247 11.1287L9.00224 12.3576C7.72641 11.4308 6.13886 10.5781 4.51891 10.5781Z" fill="#0091AB"/>
<path d="M18.5999 9.00703L18.5999 12.4677C19.6681 12.4714 20.535 13.3479 20.535 14.4025C20.535 15.469 19.6676 16.3237 18.6078 16.337L18.5999 16.3372L18.6029 16.337C18.5978 16.3353 18.5918 16.3356 18.586 16.3358C18.5839 16.3359 18.5801 16.336 18.5801 16.336V16.3372C18.462 16.3372 18.3439 16.3299 18.2264 16.3196C16.6302 16.0155 14.714 14.374 13.4298 13.2734L13.3933 13.2422L12.2858 14.349C14.2209 16.054 16.7777 17.986 19.4764 17.9998H19.5233C20.5274 17.9946 21.4537 17.6608 22.2001 17.1004C22.3825 16.9636 22.5541 16.813 22.7134 16.6507C23.5094 15.8396 24 14.7286 24 13.5031C24 13.0335 23.9278 12.5803 23.7941 12.1543C23.5089 11.2476 22.9438 10.4645 22.2001 9.90635C21.4537 9.34597 20.5274 9.01218 19.5233 9.00703H18.5999Z" fill="#0091AB"/>
</svg>
