<svg viewBox="0 0 24 24" fill="none" xmlns="http://www.w3.org/2000/svg">
<path d="M5.40595 4.36106H18.2528L14.3182 0.792969H2.30104C1.16749 0.792969 0.9375 2.38337 0.9375 2.38337V13.6892C0.9375 13.6892 1.24142 19.0702 8.65051 19.0702C16.0596 19.0702 15.1561 14.0683 15.1561 14.0683C15.1561 14.0683 14.4743 17.1007 10.3919 17.1007C6.3095 17.1007 5.40595 13.615 5.40595 13.615V4.36106Z" fill="#007D3D"/>
<path d="M18.5941 19.6383H5.74729L9.68183 23.2064H21.699C22.8326 23.2064 23.0625 21.616 23.0625 21.616V10.3185C23.0625 10.3185 22.7586 4.92923 15.3495 4.92923C7.94045 4.92923 8.844 9.93116 8.844 9.93116C8.844 9.93116 9.52576 6.89869 13.6082 6.89869C17.6905 6.89869 18.5941 10.3844 18.5941 10.3844V19.6383Z" fill="#007D3D"/>
<path d="M12.1946 15.3763C14.1801 15.3763 15.7897 13.7626 15.7897 11.7721C15.7897 9.7816 14.1801 8.16797 12.1946 8.16797C10.2092 8.16797 8.59961 9.7816 8.59961 11.7721C8.59961 13.7626 10.2092 15.3763 12.1946 15.3763Z" fill="#FFF400"/>
</svg>
